<svg xmlns="http://www.w3.org/2000/svg" viewBox="0 0 24 24" width="24" height="24"><path d="M11.167 20.333v-4.166q0-1.167-.354-1.73a5.6 5.6 0 0 0-.938-1.104l1.188-1.187q.25.23.479.49t.458.552a6 6 0 0 1 .594-.699q.302-.301.614-.593a9.5 9.5 0 0 0 1.438-1.688q.646-.958.687-3.354l-1.312 1.313L12.833 7l3.334-3.333L19.5 7l-1.167 1.167L17 6.854q-.041 2.98-.917 4.24-.874 1.26-1.75 2.052a8 8 0 0 0-1.083 1.177q-.417.572-.417 1.844v4.166zm-4-11.52a7 7 0 0 1-.115-.917q-.03-.5-.052-1.042L5.667 8.167 4.5 7l3.333-3.333L11.167 7 9.979 8.167 8.667 6.875q0 .438.041.823.042.385.084.719zm1.791 3.666a7.4 7.4 0 0 1-.802-1.02 6.3 6.3 0 0 1-.677-1.438l1.604-.396a4.4 4.4 0 0 0 1.063 1.667z"/></svg>