<svg xmlns="http://www.w3.org/2000/svg" viewBox="0 0 24 24" width="24" height="24"><path d="M5.333 17.854v-1.666H7v-5.834a4.88 4.88 0 0 1 1.042-3.073 4.8 4.8 0 0 1 2.708-1.76v-.583q0-.522.364-.886.366-.364.886-.364t.885.364q.365.364.365.886v.583a4.8 4.8 0 0 1 2.708 1.76A4.88 4.88 0 0 1 17 10.354v5.834h1.667v1.666zm6.667 2.5q-.687 0-1.177-.49a1.6 1.6 0 0 1-.49-1.177h3.334q0 .688-.49 1.178t-1.177.49m-8.333-10q0-2.083.927-3.823a8.5 8.5 0 0 1 2.49-2.885l.978 1.333a6.74 6.74 0 0 0-1.99 2.313q-.739 1.395-.739 3.062zm15 0q0-1.666-.74-3.062a6.74 6.74 0 0 0-1.99-2.313l.98-1.333a8.5 8.5 0 0 1 2.49 2.885q.926 1.74.926 3.823z"/></svg>