<svg xmlns="http://www.w3.org/2000/svg" viewBox="0 0 24 24" width="24" height="24"><path d="M4.5 10.75V7q0-.354.24-.594t.593-.24h2.771q.354 0 .594.24t.24.594v3.75q0 .354-.24.594a.8.8 0 0 1-.594.24h-2.77a.8.8 0 0 1-.594-.24.8.8 0 0 1-.24-.594m6.104.833a.8.8 0 0 1-.594-.24.8.8 0 0 1-.24-.593V7q0-.354.24-.594t.594-.24h2.792q.354 0 .594.24t.24.594v3.75q0 .354-.24.594a.8.8 0 0 1-.594.24zm5.292 0a.8.8 0 0 1-.594-.24.8.8 0 0 1-.24-.593V7q0-.354.24-.594t.594-.24h2.77q.355 0 .594.24.24.24.24.594v3.75q0 .354-.24.594a.8.8 0 0 1-.593.24zm-7.792 6.25h-2.77a.8.8 0 0 1-.594-.24A.8.8 0 0 1 4.5 17v-3.75q0-.354.24-.594t.593-.24h2.771q.354 0 .594.24t.24.594V17q0 .354-.24.594a.8.8 0 0 1-.594.24m2.5 0a.8.8 0 0 1-.594-.24.8.8 0 0 1-.24-.593v-3.75q0-.354.24-.594t.594-.24h2.792q.354 0 .594.24t.24.594V17q0 .354-.24.594a.8.8 0 0 1-.594.24zm5.292 0a.8.8 0 0 1-.594-.24.8.8 0 0 1-.24-.593v-3.75q0-.354.24-.594t.594-.24h2.77q.355 0 .594.24.24.24.24.594V17q0 .354-.24.594a.8.8 0 0 1-.593.24z"/></svg>