<svg xmlns="http://www.w3.org/2000/svg" viewBox="0 0 24 24" width="24" height="24"><path d="M8.17 20.837q-.687 0-1.177-.49a1.6 1.6 0 0 1-.49-1.177q0-.687.49-1.177t1.177-.49 1.177.49.49 1.177-.49 1.177-1.177.49m8.333 0q-.687 0-1.177-.49a1.6 1.6 0 0 1-.49-1.177q0-.687.49-1.177t1.177-.49 1.177.49.49 1.177-.49 1.177-1.177.49m-9.833-15h12.292q.48 0 .729.427a.84.84 0 0 1 .02.864l-2.958 5.334a1.67 1.67 0 0 1-.614.646 1.6 1.6 0 0 1-.844.229H9.087l-.917 1.666h10v1.667h-10q-.937 0-1.417-.823t-.041-1.635l1.125-2.042-3-6.333H3.17V4.17h2.708z"/></svg>