<svg xmlns="http://www.w3.org/2000/svg" viewBox="0 0 24 24" width="24" height="24"><path d="m8.875 10.696 3.75 3.75v4.742a.313.313 0 0 1-.312.312H5.75a1.25 1.25 0 0 1-1.25-1.25V5.75A1.25 1.25 0 0 1 5.75 4.5h1.563a.31.31 0 0 1 .312.313v9.17a1.875 1.875 0 1 0 1.25 0zm-.625 5.679a.626.626 0 1 0 0-1.251.626.626 0 0 0 0 1.251m8.125-6.25a.626.626 0 1 0-1.251 0 .626.626 0 0 0 1.251 0M18.25 4.5h-4.062a.313.313 0 0 0-.313.313v2.553l1.067 1.068a1.875 1.875 0 1 1-.883.883l-1.25-1.25a.62.62 0 0 1-.184-.442V4.813a.31.31 0 0 0-.312-.313H9.187a.31.31 0 0 0-.312.313v4.116l4.817 4.816a.63.63 0 0 1 .183.443v5a.313.313 0 0 0 .313.312h4.062a1.25 1.25 0 0 0 1.25-1.25V5.75a1.25 1.25 0 0 0-1.25-1.25"/></svg>