<svg xmlns="http://www.w3.org/2000/svg" viewBox="0 0 24 24" width="24" height="24"><path d="M12 20.333a8.1 8.1 0 0 1-3.23-.656 8.5 8.5 0 0 1-2.655-1.792 8.5 8.5 0 0 1-1.792-2.656A8.1 8.1 0 0 1 3.667 12a7.9 7.9 0 0 1 .677-3.25 8.4 8.4 0 0 1 1.833-2.646 8.7 8.7 0 0 1 2.698-1.781 8.3 8.3 0 0 1 3.292-.656q1.666 0 3.146.573t2.593 1.583a7.6 7.6 0 0 1 1.771 2.396q.657 1.385.656 2.99 0 2.395-1.458 3.676t-3.542 1.282h-1.541q-.188 0-.26.104a.4.4 0 0 0-.074.229q0 .25.313.719.312.468.312 1.073 0 1.041-.573 1.541t-1.51.5m-4.583-7.5q.541 0 .895-.354.355-.354.355-.896 0-.541-.355-.896a1.21 1.21 0 0 0-.895-.354q-.542 0-.896.354a1.21 1.21 0 0 0-.354.896q0 .542.354.896t.896.354m2.5-3.333q.541 0 .896-.354.354-.354.354-.896t-.354-.896A1.21 1.21 0 0 0 9.917 7q-.542 0-.896.354a1.21 1.21 0 0 0-.354.896q0 .542.354.896t.896.354m4.166 0q.542 0 .896-.354t.354-.896-.354-.896A1.21 1.21 0 0 0 14.083 7q-.541 0-.896.354a1.21 1.21 0 0 0-.354.896q0 .542.354.896.355.354.896.354m2.5 3.333q.542 0 .896-.354t.354-.896-.354-.896a1.21 1.21 0 0 0-.896-.354q-.541 0-.895.354a1.21 1.21 0 0 0-.355.896q0 .542.354.896.355.354.896.354"/></svg>