<svg xmlns="http://www.w3.org/2000/svg" viewBox="0 0 24 24" width="24" height="24"><path d="M10.71 6.112a1.234 1.234 0 0 0-2.031.45l-4.1 11.28A1.237 1.237 0 0 0 5.73 19.5a1.3 1.3 0 0 0 .427-.078l11.279-4.102a1.234 1.234 0 0 0 .451-2.03zm-3.62 8.476 1.5-4.124 4.946 4.947-4.125 1.5zm7.41-6.963c.012-.423.114-.838.3-1.217.414-.828 1.195-1.283 2.2-1.283.523 0 .86-.179 1.067-.563a1.7 1.7 0 0 0 .183-.692.625.625 0 1 1 1.25.005c0 1.005-.666 2.5-2.5 2.5-.523 0-.86.179-1.066.563-.11.215-.172.45-.184.692a.627.627 0 0 1-.866.574.625.625 0 0 1-.384-.579m-1.875-2.5V3.25a.625.625 0 1 1 1.25 0v1.875a.625.625 0 0 1-1.25 0m7.942 6.433a.624.624 0 1 1-.884.883l-1.25-1.25a.625.625 0 1 1 .884-.884zm.38-3.34-1.874.625a.625.625 0 0 1-.396-1.186l1.875-.625a.625.625 0 0 1 .396 1.186"/></svg>