<svg xmlns="http://www.w3.org/2000/svg" viewBox="0 0 24 24" width="24" height="24"><path d="M12 11.167q3.125 0 5.313-.98Q19.5 9.21 19.5 7.834q0-1.374-2.187-2.354Q15.125 4.5 12 4.5q-3.125 0-5.312.98Q4.5 6.458 4.5 7.832t2.188 2.355q2.187.978 5.312.979m0 2.083q.855 0 2.135-.177a13.7 13.7 0 0 0 2.47-.573q1.186-.396 2.04-1.031.855-.636.855-1.552V12q0 .917-.854 1.552-.855.635-2.042 1.031t-2.469.573q-1.281.177-2.135.177-.855 0-2.135-.177a13.7 13.7 0 0 1-2.47-.573q-1.186-.396-2.04-1.03Q4.5 12.915 4.5 12V9.917q0 .916.854 1.552.854.635 2.042 1.031a13.7 13.7 0 0 0 2.469.573q1.281.177 2.135.177m0 4.167q.855 0 2.135-.177a13.7 13.7 0 0 0 2.47-.573q1.186-.396 2.04-1.032.855-.634.855-1.552v2.084q0 .916-.854 1.552-.855.635-2.042 1.031t-2.469.573Q12.854 19.5 12 19.5q-.855 0-2.135-.177a13.7 13.7 0 0 1-2.47-.573q-1.186-.396-2.04-1.031-.855-.636-.855-1.552v-2.084q0 .917.854 1.552.854.636 2.042 1.032a13.7 13.7 0 0 0 2.469.573q1.281.177 2.135.177"/></svg>