<svg xmlns="http://www.w3.org/2000/svg" viewBox="0 0 24 24" width="24" height="24"><path d="M17.625 17.977v2.148a.625.625 0 1 1-1.25 0v-2.148a4.97 4.97 0 0 0-2.764-4.473l-3.781-1.89a6.22 6.22 0 0 1-3.455-5.59V3.874a.625.625 0 1 1 1.25 0v2.148a4.97 4.97 0 0 0 2.764 4.473l3.781 1.89a6.22 6.22 0 0 1 3.455 5.59m-3.125-.352H7.638c.03-.426.115-.846.253-1.25h5.68a.625.625 0 1 0 0-1.25h-5.05c.313-.453.7-.851 1.144-1.178a.627.627 0 0 0-.74-1.01 6.27 6.27 0 0 0-2.55 5.04v2.148a.625.625 0 1 0 1.25 0v-1.25H14.5a.625.625 0 1 0 0-1.25M17 3.25a.625.625 0 0 0-.625.625v1.25H9.5a.625.625 0 0 0 0 1.25h6.862c-.03.426-.115.846-.253 1.25h-5.68a.625.625 0 0 0 0 1.25h5.05c-.313.453-.7.852-1.144 1.178a.626.626 0 0 0 .74 1.008 6.27 6.27 0 0 0 2.55-5.038V3.875A.625.625 0 0 0 17 3.25"/></svg>