<svg xmlns="http://www.w3.org/2000/svg" viewBox="0 0 24 24" width="24" height="24"><path d="M6.167 19.5q-.688 0-1.177-.49a1.6 1.6 0 0 1-.49-1.177V6.167q0-.688.49-1.177.489-.49 1.177-.49h7.437l-1.666 1.667H6.167v11.666h11.666v-5.791l1.667-1.667v7.458q0 .688-.49 1.177-.489.49-1.177.49zm3.333-5v-3.542l7.646-7.645q.25-.25.562-.376.313-.124.625-.124a1.65 1.65 0 0 1 1.188.5L20.687 4.5q.23.25.355.552.125.301.125.615 0 .312-.115.614a1.6 1.6 0 0 1-.364.552L13.042 14.5zm1.667-1.667h1.166L17.167 8l-.584-.583-.604-.584-4.812 4.813z"/></svg>