<svg xmlns="http://www.w3.org/2000/svg" viewBox="0 0 24 24" width="24" height="24"><path d="M5.333 19.076a2.4 2.4 0 0 1-1.77-.73 2.4 2.4 0 0 1-.73-1.77q0-.542.209-1.031.208-.49.625-.844v-3.959h1.666v-5H12l3.917 9.23q.125.292.187.583.063.292.063.604a2.8 2.8 0 0 1-.855 2.063 2.8 2.8 0 0 1-2.062.854q-.855 0-1.573-.448a2.77 2.77 0 0 1-1.073-1.219H7.688q-.272.75-.917 1.209-.646.458-1.438.458M17 18.242V4.91h1.667v11.667h2.5v1.666zM5.333 17.41q.354 0 .594-.24t.24-.593a.8.8 0 0 0-.24-.594.8.8 0 0 0-.594-.24.8.8 0 0 0-.593.24.8.8 0 0 0-.24.594q0 .354.24.594t.593.24m7.917 0q.52 0 .886-.364.364-.366.364-.886t-.364-.885a1.2 1.2 0 0 0-.886-.365q-.52 0-.885.365a1.2 1.2 0 0 0-.365.885q0 .521.365.886.364.364.885.364m-3.812-4.166h3.937l-2.48-5.834H7v3.334z"/></svg>