<svg xmlns="http://www.w3.org/2000/svg" viewBox="0 0 24 24" width="24" height="24"><path d="M12 20.333a8.1 8.1 0 0 1-3.25-.656 8.4 8.4 0 0 1-2.646-1.781 8.4 8.4 0 0 1-1.781-2.646A8.1 8.1 0 0 1 3.667 12q0-1.73.656-3.25a8.4 8.4 0 0 1 1.781-2.646A8.4 8.4 0 0 1 8.75 4.323 8.1 8.1 0 0 1 12 3.667q1.73 0 3.25.656a8.4 8.4 0 0 1 2.646 1.781 8.4 8.4 0 0 1 1.781 2.646 8.1 8.1 0 0 1 .656 3.25 8.1 8.1 0 0 1-.656 3.25 8.4 8.4 0 0 1-1.781 2.646 8.4 8.4 0 0 1-2.646 1.781 8.1 8.1 0 0 1-3.25.656m0-1.666q2.792 0 4.73-1.938 1.936-1.937 1.937-4.729 0-.146-.01-.302a4 4 0 0 1-.011-.26q-.105.603-.563 1a1.6 1.6 0 0 1-1.083.395h-1.667q-.687 0-1.177-.49a1.6 1.6 0 0 1-.49-1.176v-.834h-3.333V8.667q0-.688.49-1.177T12 7h.833q0-.479.26-.844.261-.364.636-.593a9 9 0 0 0-.844-.167A6 6 0 0 0 12 5.333q-2.791 0-4.73 1.938Q5.335 9.209 5.334 12H9.5a3.2 3.2 0 0 1 2.354.98 3.2 3.2 0 0 1 .98 2.353v.834h-2.5v2.291q.415.105.822.157.406.051.844.052"/></svg>