<svg xmlns="http://www.w3.org/2000/svg" viewBox="0 0 24 24" width="24" height="24"><path d="M12 20.333a8.1 8.1 0 0 1-3.23-.656 8.5 8.5 0 0 1-2.655-1.792 8.5 8.5 0 0 1-1.792-2.656A8.1 8.1 0 0 1 3.667 12a8 8 0 0 1 .656-3.24 8.5 8.5 0 0 1 1.792-2.645A8.5 8.5 0 0 1 8.77 4.323 8.1 8.1 0 0 1 12 3.667a8 8 0 0 1 3.24.656 8.5 8.5 0 0 1 2.645 1.792 8.5 8.5 0 0 1 1.792 2.645 8 8 0 0 1 .656 3.24 8.1 8.1 0 0 1-.656 3.23 8.5 8.5 0 0 1-1.792 2.655 8.5 8.5 0 0 1-2.645 1.792 8 8 0 0 1-3.24.656m0-1.708q.542-.75.938-1.562t.645-1.73h-3.166q.25.917.646 1.73.395.812.937 1.562m-2.167-.333q-.374-.688-.656-1.427a12 12 0 0 1-.469-1.532H6.25a6.9 6.9 0 0 0 1.51 1.813 6 6 0 0 0 2.073 1.146m4.334 0a6 6 0 0 0 2.073-1.146 6.9 6.9 0 0 0 1.51-1.813h-2.458a12 12 0 0 1-.47 1.532q-.28.739-.655 1.427m-8.625-4.625h2.833a11.01 11.01 0 0 1-.094-2.51q.031-.408.094-.824H5.542q-.105.417-.157.823-.051.406-.052.844a6.6 6.6 0 0 0 .209 1.667m4.5 0h3.916q.063-.417.094-.823a11 11 0 0 0 0-1.688q-.03-.405-.094-.823h-3.916q-.063.417-.094.823a11 11 0 0 0 0 1.688q.03.405.094.823m5.583 0h2.833q.105-.417.157-.823.051-.406.052-.844a6.6 6.6 0 0 0-.209-1.667h-2.833q.063.417.094.823a11 11 0 0 1 0 1.688q-.031.405-.094.823m-.333-5h2.458a6.9 6.9 0 0 0-1.51-1.813 6 6 0 0 0-2.073-1.146q.374.688.656 1.427.281.74.469 1.532m-4.875 0h3.166a10 10 0 0 0-.646-1.73A10.6 10.6 0 0 0 12 5.376q-.542.75-.937 1.563a10 10 0 0 0-.646 1.729m-4.167 0h2.458q.188-.792.47-1.532.28-.739.655-1.427A6 6 0 0 0 7.76 6.854a6.9 6.9 0 0 0-1.51 1.813"/></svg>