<svg xmlns="http://www.w3.org/2000/svg" viewBox="0 0 24 24" width="24" height="24"><path d="M12 19.5q-2.875 0-5.01-1.906-2.136-1.907-2.448-4.76H6.25Q6.542 15 8.177 16.416 9.813 17.833 12 17.833q2.438 0 4.135-1.698 1.698-1.698 1.698-4.135t-1.698-4.135T12 6.167q-1.437 0-2.687.666a6.2 6.2 0 0 0-2.105 1.834H9.5v1.666h-5v-5h1.667v1.959A7.3 7.3 0 0 1 8.76 5.229Q10.292 4.5 12 4.5q1.563 0 2.927.594 1.364.593 2.375 1.604a7.6 7.6 0 0 1 1.604 2.375Q19.5 10.437 19.5 12a7.3 7.3 0 0 1-.594 2.927 7.6 7.6 0 0 1-1.604 2.375 7.6 7.6 0 0 1-2.375 1.604A7.3 7.3 0 0 1 12 19.5m2.333-4-3.166-3.167v-4.5h1.666v3.834l2.667 2.666z"/></svg>