<svg xmlns="http://www.w3.org/2000/svg" viewBox="0 0 24 24" width="24" height="24"><path d="M6.583 16.583q-1.915 0-3.25-1.333Q2 13.917 2 12t1.333-3.25q1.335-1.333 3.25-1.333.77 0 1.48.27.708.271 1.27.771L10.75 9.75 9.5 10.875 8.208 9.708a2.6 2.6 0 0 0-.75-.458 2.3 2.3 0 0 0-.875-.167 2.8 2.8 0 0 0-2.062.855A2.8 2.8 0 0 0 3.667 12q0 1.209.854 2.063a2.8 2.8 0 0 0 2.062.854q.46 0 .875-.167.417-.167.75-.458l6.459-5.834q.562-.5 1.27-.77.71-.271 1.48-.271 1.915 0 3.25 1.333Q22 10.083 22 12t-1.333 3.25q-1.335 1.333-3.25 1.333-.77 0-1.48-.27a4.1 4.1 0 0 1-1.27-.771L13.25 14.25l1.25-1.125 1.292 1.167q.333.291.75.458.416.167.875.167a2.8 2.8 0 0 0 2.062-.854A2.8 2.8 0 0 0 20.333 12a2.8 2.8 0 0 0-.854-2.062 2.8 2.8 0 0 0-2.062-.855q-.46 0-.875.167a2.6 2.6 0 0 0-.75.458l-6.459 5.834a4.1 4.1 0 0 1-1.27.77q-.71.271-1.48.271"/></svg>