<svg xmlns="http://www.w3.org/2000/svg" viewBox="0 0 24 24" width="24" height="24"><path d="M12 19.539a7.3 7.3 0 0 1-2.927-.594 7.6 7.6 0 0 1-2.375-1.604 7.6 7.6 0 0 1-1.604-2.375 7.3 7.3 0 0 1-.594-2.927q0-1.563.594-2.927.593-1.365 1.604-2.375a7.6 7.6 0 0 1 2.375-1.604A7.3 7.3 0 0 1 12 4.539h.125l-1.292-1.292L12 2.04l3.333 3.333L12 8.705l-1.167-1.208 1.292-1.292H12q-2.437 0-4.135 1.698T6.167 12.04t1.698 4.135T12 17.872t4.135-1.698 1.698-4.135H19.5a7.3 7.3 0 0 1-.594 2.927 7.6 7.6 0 0 1-1.604 2.375 7.6 7.6 0 0 1-2.375 1.604 7.3 7.3 0 0 1-2.927.594"/></svg>