<svg xmlns="http://www.w3.org/2000/svg" viewBox="0 0 24 24" width="24" height="24"><path d="M11.167 16.167H7.833q-1.728 0-2.948-1.219Q3.667 13.73 3.667 12t1.218-2.948q1.22-1.219 2.948-1.219h3.334V9.5H7.833a2.4 2.4 0 0 0-1.77.73 2.4 2.4 0 0 0-.73 1.77q0 1.042.73 1.77a2.4 2.4 0 0 0 1.77.73h3.334zm-2.5-3.334v-1.666h6.666v1.666zm4.166 3.334V14.5h3.334q1.041 0 1.77-.73a2.4 2.4 0 0 0 .73-1.77 2.4 2.4 0 0 0-.73-1.77 2.4 2.4 0 0 0-1.77-.73h-3.334V7.833h3.334q1.729 0 2.947 1.22 1.22 1.218 1.22 2.947t-1.22 2.948q-1.218 1.22-2.947 1.219z"/></svg>