<svg xmlns="http://www.w3.org/2000/svg" viewBox="0 0 24 24" width="24" height="24"><path d="M16.861 9.917q-.99 0-1.719-.59a2.82 2.82 0 0 1-.972-1.494H9.812a2.7 2.7 0 0 1-.72 1.259 2.7 2.7 0 0 1-1.259.72v4.358q.903.243 1.493.972.59.73.59 1.72 0 1.145-.815 1.96a2.68 2.68 0 0 1-1.962.817 2.68 2.68 0 0 1-1.962-.816 2.68 2.68 0 0 1-.816-1.962q0-.99.59-1.719.591-.729 1.493-.972V9.812a2.82 2.82 0 0 1-1.493-.972 2.62 2.62 0 0 1-.59-1.701q0-1.146.816-1.962a2.68 2.68 0 0 1 1.962-.816q.972 0 1.701.59.729.591.972 1.493h4.358q.243-.903.972-1.493.73-.59 1.72-.59 1.145 0 1.96.816.817.816.817 1.962T18.823 9.1a2.68 2.68 0 0 1-1.962.816m0 9.722a2.68 2.68 0 0 1-1.962-.816 2.68 2.68 0 0 1-.816-1.962q0-1.146.816-1.962a2.68 2.68 0 0 1 1.962-.816q1.146 0 1.962.816t.816 1.962-.816 1.962a2.68 2.68 0 0 1-1.962.816"/></svg>