<svg xmlns="http://www.w3.org/2000/svg" viewBox="0 0 24 24" width="24" height="24"><path d="m19.666 19.652-1.167 1.167-8-8H8.666v-1.667h.166L7.234 9.555q-.662.152-1.172.66a2.41 2.41 0 0 0-.729 1.771q0 1.043.729 1.77.73.73 1.771.73h3.333v1.666H7.833q-1.73 0-2.948-1.218-1.22-1.219-1.219-2.948 0-1.437.875-2.562.589-.755 1.401-1.161L3.166 5.486 4.333 4.32zM16.166 7.82q1.73 0 2.948 1.218 1.22 1.22 1.219 2.948a4.1 4.1 0 0 1-.615 2.188 4 4 0 0 1-1.677 1.52l-1.25-1.292a2.54 2.54 0 0 0 1.354-.884q.521-.657.521-1.532 0-1.041-.73-1.771a2.4 2.4 0 0 0-1.77-.729h-3.333V7.82z"/><path d="M15.333 12.82h-.125l-1.667-1.668h1.792z"/></svg>