<svg xmlns="http://www.w3.org/2000/svg" viewBox="0 0 24 24" width="24" height="24"><path fill-rule="evenodd" d="M9.865 5.26h8.51c.69 0 1.25.56 1.25 1.25v8.44c0 .2-.12.39-.31.48a.543.543 0 0 1-.57-.07l-1.98-1.65h-6.9c-.69 0-1.25-.56-1.25-1.25V6.51c0-.69.56-1.25 1.25-1.25m.59 6.22h5v-1.25h-5zm0-2.74h7V7.49h-7z" clip-rule="evenodd"/><path d="M6.775 15.72h7.36v-1.01h1.25v1.01c0 .69-.56 1.25-1.25 1.25h-6.9l-1.98 1.65a.54.54 0 0 1-.57.07.53.53 0 0 1-.31-.48V9.77c0-.69.56-1.25 1.25-1.25h1.99v1.25h-1.99v6.91z"/></svg>