<svg xmlns="http://www.w3.org/2000/svg" viewBox="0 0 24 24" width="24" height="24"><path d="M21.083 6.688a.62.62 0 0 0-.606-.032c-3.354 1.641-5.749.872-8.28.061-2.664-.847-5.414-1.726-9.22.132a.63.63 0 0 0-.35.56v9.37a.625.625 0 0 0 .899.562c3.354-1.64 5.749-.872 8.285-.061 1.503.48 3.034.97 4.766.97 1.335 0 2.791-.29 4.446-1.098a.63.63 0 0 0 .35-.561V7.22a.63.63 0 0 0-.29-.533M5.752 13.875a.625.625 0 0 1-1.25 0v-5a.625.625 0 0 1 1.25 0zm6.25.625a2.5 2.5 0 1 1 0-5 2.5 2.5 0 0 1 0 5m7.5.625a.625.625 0 0 1-1.25 0v-5a.625.625 0 1 1 1.25 0z"/></svg>