<svg xmlns="http://www.w3.org/2000/svg" viewBox="0 0 24 24" width="24" height="24"><path d="M20.75 11.375a.624.624 0 0 1-.625.625h-2.5v2.5h.625a1.25 1.25 0 0 1 1.25 1.25v2.5a1.25 1.25 0 0 1-1.25 1.25h-2.5a1.25 1.25 0 0 1-1.25-1.25v-2.5a1.25 1.25 0 0 1 1.25-1.25h.625V12h-8.75v2.5h.625a1.25 1.25 0 0 1 1.25 1.25v2.5a1.25 1.25 0 0 1-1.25 1.25h-2.5a1.25 1.25 0 0 1-1.25-1.25v-2.5a1.25 1.25 0 0 1 1.25-1.25h.625V12h-2.5a.625.625 0 1 1 0-1.25h7.5V8.875h-.625a1.25 1.25 0 0 1-1.25-1.25v-2.5a1.25 1.25 0 0 1 1.25-1.25h2.5a1.25 1.25 0 0 1 1.25 1.25v2.5a1.25 1.25 0 0 1-1.25 1.25h-.625v1.875h7.5a.624.624 0 0 1 .625.625"/></svg>