<svg xmlns="http://www.w3.org/2000/svg" viewBox="0 0 24 24" width="24" height="24"><path d="M18.875 5.125H5.125a1.25 1.25 0 0 0-1.25 1.25v12.5a.625.625 0 0 0 .905.559L7 18.324l2.22 1.11a.63.63 0 0 0 .56 0l2.22-1.11 2.22 1.11a.63.63 0 0 0 .56 0l2.22-1.11 2.22 1.11a.624.624 0 0 0 .905-.559v-12.5a1.25 1.25 0 0 0-1.25-1.25M11.063 14.5a.313.313 0 0 1-.313.313H7a.31.31 0 0 1-.312-.313v-5A.31.31 0 0 1 7 9.188h3.75a.313.313 0 0 1 .313.312zM17 13.875h-3.75a.624.624 0 1 1 0-1.25H17a.624.624 0 1 1 0 1.25m0-2.5h-3.75a.624.624 0 1 1 0-1.25H17a.624.624 0 1 1 0 1.25"/></svg>