<svg xmlns="http://www.w3.org/2000/svg" viewBox="0 0 24 24" width="24" height="24"><path d="M18.25 4.5h-1.875v-.625a.625.625 0 1 0-1.25 0V4.5h-2.5v-.625a.625.625 0 1 0-1.25 0V4.5h-2.5v-.625a.625.625 0 0 0-1.25 0V4.5H5.75a.625.625 0 0 0-.625.625v12.5a2.5 2.5 0 0 0 2.5 2.5h8.75a2.5 2.5 0 0 0 2.5-2.5v-12.5a.625.625 0 0 0-.625-.625m-6.875 1.875a.625.625 0 1 1 1.25 0V7a.625.625 0 1 1-1.25 0zM8.25 7.625A.625.625 0 0 1 7.625 7v-.625a.625.625 0 0 1 1.25 0V7a.625.625 0 0 1-.625.625m6.25 7.5h-5a.625.625 0 1 1 0-1.25h5a.624.624 0 1 1 0 1.25m0-2.5h-5a.625.625 0 1 1 0-1.25h5a.624.624 0 1 1 0 1.25M16.375 7a.625.625 0 1 1-1.25 0v-.625a.625.625 0 1 1 1.25 0z"/></svg>