<svg xmlns="http://www.w3.org/2000/svg" viewBox="0 0 24 24" width="24" height="24"><path d="M9.5 18.25a.625.625 0 0 1-.625.625h-3.75a1.874 1.874 0 0 1-1.623-2.812l2.188-3.774-1.08-.625a.625.625 0 0 1 .15-1.148l2.56-.686a.625.625 0 0 1 .766.443l.687 2.56a.625.625 0 0 1-.917.703l-1.084-.625-2.185 3.777a.625.625 0 0 0 .538.937h3.75a.625.625 0 0 1 .625.625M12 4.5a.61.61 0 0 1 .54.312l2.188 3.774-1.08.625a.625.625 0 0 0 .149 1.142l2.56.687a.625.625 0 0 0 .765-.442l.687-2.562a.625.625 0 0 0-.915-.703l-1.085.625-2.186-3.77a1.875 1.875 0 0 0-3.246 0l-1.81 3.124a.625.625 0 0 0 1.083.625l1.81-3.125A.61.61 0 0 1 12 4.5m8.494 11.563-1.807-3.125a.625.625 0 0 0-1.082.624l1.808 3.126a.625.625 0 0 1-.538.937H14.5v-1.25a.625.625 0 0 0-1.067-.442l-1.875 1.875a.626.626 0 0 0 0 .884l1.875 1.875a.624.624 0 0 0 1.067-.442v-1.25h4.375a1.875 1.875 0 0 0 1.623-2.812z"/></svg>