<svg xmlns="http://www.w3.org/2000/svg" viewBox="0 0 24 24" width="24" height="24"><path d="M10.438 16.688a2.5 2.5 0 1 1-5 0 2.5 2.5 0 0 1 5 0m-4.246-5.496 1.12-1.12 1.12 1.12a.625.625 0 0 0 .885-.884l-1.12-1.12 1.12-1.12a.625.625 0 0 0-.884-.885l-1.12 1.12-1.12-1.12a.625.625 0 0 0-.885.884l1.12 1.12-1.12 1.12a.625.625 0 0 0 .884.885m12.63 5.496 1.12-1.12a.626.626 0 0 0-.884-.885l-1.12 1.12-1.12-1.12a.625.625 0 0 0-.885.884l1.12 1.12-1.12 1.12a.625.625 0 1 0 .884.885l1.12-1.12 1.12 1.12a.624.624 0 1 0 .885-.884zm-3.88-10.755-.183-.183h1.616a.625.625 0 0 0 0-1.25H13.25a.625.625 0 0 0-.625.625V8.25a.625.625 0 1 0 1.25 0V6.634l.183.183c1.4 1.401 1.398 2.766 1.149 3.664-.363 1.31-1.513 2.482-2.734 2.788a.624.624 0 1 0 .304 1.212c1.657-.414 3.153-1.922 3.636-3.666.476-1.723-.046-3.456-1.47-4.882"/></svg>