<svg xmlns="http://www.w3.org/2000/svg" viewBox="0 0 24 24" width="24" height="24"><path d="M12 16.167q-1.729 0-2.948-1.219Q7.833 13.73 7.833 12t1.22-2.948Q10.27 7.833 12 7.833t2.948 1.22q1.22 1.218 1.219 2.947t-1.219 2.948Q13.73 16.168 12 16.167m-5.833-3.334H2.833v-1.666h3.334zm15 0h-3.334v-1.666h3.334zm-10-6.666V2.833h1.666v3.334zm0 15v-3.334h1.666v3.334zM7.333 8.458 5.23 6.438l1.188-1.23 2 2.084zm10.25 10.334-2.02-2.105 1.104-1.145 2.104 2.02zM15.542 7.333l2.02-2.104 1.23 1.188-2.084 2zM5.208 17.583l2.105-2.02 1.145 1.104-2.02 2.104z"/></svg>