<svg xmlns="http://www.w3.org/2000/svg" viewBox="0 0 24 24" width="24" height="24"><path d="M5.33 13.67h5v1.67H8.29l.21.21c.5.5 1.05.87 1.64 1.1.59.24 1.2.35 1.82.35 1.07 0 2.04-.31 2.91-.92s1.48-1.42 1.84-2.42h1.75c-.39 1.49-1.18 2.69-2.39 3.61-1.2.92-2.57 1.39-4.11 1.39-.83 0-1.65-.16-2.45-.47s-1.54-.81-2.22-1.49L7 16.37v2.29H5.33v-5zM7.92 6.73c1.21-.93 2.58-1.39 4.12-1.39.83 0 1.65.16 2.45.47s1.54.81 2.22 1.49l.29.33V5.34h1.67v5h-5V8.67h2.04l-.21-.21c-.5-.5-1.05-.87-1.64-1.1a4.8 4.8 0 0 0-1.82-.35c-1.07 0-2.04.31-2.91.92s-1.48 1.42-1.84 2.42H5.54c.39-1.49 1.18-2.69 2.39-3.61z"/></svg>