<svg xmlns="http://www.w3.org/2000/svg" viewBox="0 0 24 24" width="24" height="24"><path d="M20.52 14.542 14.563 20.5a1.7 1.7 0 0 1-.562.375 1.7 1.7 0 0 1-.625.125q-.313 0-.625-.125a1.7 1.7 0 0 1-.563-.375l-7.354-7.354a1.646 1.646 0 0 1-.48-1.167v-5.98q.001-.687.49-1.176.49-.49 1.178-.49H12q.333 0 .646.136.312.135.541.364l7.334 7.354q.25.25.364.563.115.312.115.625 0 .312-.115.614a1.6 1.6 0 0 1-.364.552M8.105 9.333q.52 0 .885-.364.365-.366.365-.886t-.365-.885a1.2 1.2 0 0 0-.885-.365q-.52 0-.885.365a1.2 1.2 0 0 0-.365.885q0 .52.365.886.365.364.885.364"/></svg>