<svg xmlns="http://www.w3.org/2000/svg" viewBox="0 0 24 24" width="24" height="24"><path d="M9.5 3.777V2.11h5v1.667zm1.667 9.167h1.666v-5h-1.666zM12 19.61a7.2 7.2 0 0 1-2.906-.593 7.7 7.7 0 0 1-2.386-1.615 7.7 7.7 0 0 1-1.614-2.385A7.2 7.2 0 0 1 4.5 12.11q0-1.542.594-2.907A7.7 7.7 0 0 1 6.708 6.82a7.7 7.7 0 0 1 2.386-1.615A7.2 7.2 0 0 1 12 4.61q1.292 0 2.48.417 1.186.416 2.228 1.208l1.167-1.166 1.167 1.166-1.167 1.167a8.1 8.1 0 0 1 1.208 2.23q.417 1.186.417 2.479a7.2 7.2 0 0 1-.594 2.906 7.7 7.7 0 0 1-1.614 2.385 7.7 7.7 0 0 1-2.386 1.615A7.2 7.2 0 0 1 12 19.61"/></svg>