<svg xmlns="http://www.w3.org/2000/svg" viewBox="0 0 24 24" width="24" height="24"><path d="M12.029 19.493a7.4 7.4 0 0 1-2.927-.584 7.5 7.5 0 0 1-2.386-1.604 7.5 7.5 0 0 1-1.604-2.385 7.4 7.4 0 0 1-.583-2.927q0-1.563.583-2.928A7.5 7.5 0 0 1 6.716 6.68a7.5 7.5 0 0 1 2.386-1.604 7.4 7.4 0 0 1 2.927-.584 6.6 6.6 0 0 1 1.666.209v1.708a5.543 5.543 0 0 0-1.667-.25q-2.457 0-4.145 1.688t-1.687 4.145q0 2.46 1.687 4.146 1.688 1.688 4.146 1.688t4.146-1.688 1.687-4.146q0-.228-.02-.416a6 6 0 0 0-.063-.417h1.708q.042.23.042.417v.416a7.4 7.4 0 0 1-.584 2.928 7.5 7.5 0 0 1-1.604 2.385 7.5 7.5 0 0 1-2.385 1.604 7.4 7.4 0 0 1-2.927.584m2.333-4-3.167-3.167v-4.5h1.667v3.833l2.667 2.667zm3.5-6v-2.5h-2.5V5.325h2.5v-2.5h1.667v2.5h2.5v1.666h-2.5v2.5z"/></svg>