<svg xmlns="http://www.w3.org/2000/svg" viewBox="0 0 24 24" width="24" height="24"><path d="M10.854 12.938a2.4 2.4 0 0 1-1.77.729 2.4 2.4 0 0 1-1.772-.73 2.4 2.4 0 0 1-.729-1.77q0-1.042.73-1.771a2.4 2.4 0 0 1 1.77-.73 2.4 2.4 0 0 1 1.771.73 2.4 2.4 0 0 1 .73 1.77 2.4 2.4 0 0 1-.73 1.771M14.083 17.083v1.584h-10v-1.584q0-.437.209-.833.208-.396.583-.625a7.7 7.7 0 0 1 1.99-.844 8.6 8.6 0 0 1 2.218-.281q1.167 0 2.22.281a7.7 7.7 0 0 1 1.989.844q.375.23.583.625.208.396.208.833M19.917 12v1.667H13.25V12zM19.917 5.333V7h-10V5.333zM19.917 10.333h-6.75a5 5 0 0 0-.282-.895 3.1 3.1 0 0 0-.468-.771h7.5z"/></svg>