<svg xmlns="http://www.w3.org/2000/svg" viewBox="0 0 24 24" width="24" height="24"><path d="M13.667 12.833h4.166v-1.666h-4.166zm0-2.5h4.166V8.667h-4.166zm-7.5 5h6.666v-.458q0-.937-.916-1.49-.917-.552-2.417-.552t-2.417.553q-.916.552-.916 1.489zM9.5 12q.687 0 1.177-.49.49-.489.49-1.177 0-.687-.49-1.177a1.6 1.6 0 0 0-1.177-.49q-.687 0-1.177.49t-.49 1.177.49 1.178T9.5 12m-4.167 6.667q-.687 0-1.177-.49A1.6 1.6 0 0 1 3.666 17V7q0-.687.49-1.177t1.177-.49h13.334q.687 0 1.177.49T20.334 7v10q0 .687-.49 1.177t-1.177.49z"/></svg>