<svg xmlns="http://www.w3.org/2000/svg" viewBox="0 0 24 24" width="24" height="24"><path d="M4.5 16.585v-2.5c0-.69.56-1.25 1.25-1.25h4.17c.69 0 1.25.56 1.25 1.25v2.5c0 .69-.56 1.25-1.25 1.25H5.75c-.69 0-1.25-.56-1.25-1.25M12.83 16.585v-2.5c0-.69.56-1.25 1.25-1.25h4.17c.69 0 1.25.56 1.25 1.25v2.5c0 .69-.56 1.25-1.25 1.25h-4.17c-.69 0-1.25-.56-1.25-1.25M4.5 9.915v-2.5c0-.69.56-1.25 1.25-1.25h4.17c.69 0 1.25.56 1.25 1.25v2.5c0 .69-.56 1.25-1.25 1.25H5.75c-.69 0-1.25-.56-1.25-1.25M12.83 9.915v-2.5c0-.69.56-1.25 1.25-1.25h4.17c.69 0 1.25.56 1.25 1.25v2.5c0 .69-.56 1.25-1.25 1.25h-4.17c-.69 0-1.25-.56-1.25-1.25"/></svg>