<svg xmlns="http://www.w3.org/2000/svg" viewBox="0 0 24 24" width="24" height="24"><path d="M21.375 13.875a.625.625 0 0 1-.625.625H19.5v1.25a.625.625 0 0 1-1.25 0V14.5H17a.625.625 0 1 1 0-1.25h1.25V12a.625.625 0 1 1 1.25 0v1.25h1.25a.625.625 0 0 1 .625.625m-15-6.25h1.25v1.25a.625.625 0 0 0 1.25 0v-1.25h1.25a.625.625 0 0 0 0-1.25h-1.25v-1.25a.625.625 0 0 0-1.25 0v1.25h-1.25a.625.625 0 0 0 0 1.25m10 9.375h-.625v-.625a.625.625 0 0 0-1.25 0V17h-.625a.625.625 0 1 0 0 1.25h.625v.625a.625.625 0 1 0 1.25 0v-.625h.625a.625.625 0 1 0 0-1.25m2.759-8.75L8.25 19.134a1.25 1.25 0 0 1-1.767 0l-1.617-1.616a1.25 1.25 0 0 1 0-1.768L15.75 4.866a1.25 1.25 0 0 1 1.768 0l1.616 1.616a1.25 1.25 0 0 1 0 1.768m-.884-.884L16.634 5.75l-2.5 2.5 1.616 1.616z"/></svg>