<svg width="24" height="24" viewBox="0 0 24 24"  xmlns="http://www.w3.org/2000/svg">
<path d="M7.2 6.3V17.7C7.2 17.8657 7.06569 18 6.9 18H6.3C6.13431 18 6 17.8657 6 17.7V6.3C6 6.13431 6.13431 6 6.3 6H6.9C7.06569 6 7.2 6.13431 7.2 6.3Z" />
<path d="M9.15 11.59C9.06 11.7 9 11.84 9 12H8.99C8.99 12.15 9.05 12.29 9.14 12.4L11.89 15.77C12.11 16.03 12.51 16.06 12.77 15.84C13.03 15.62 13.07 15.22 12.84 14.96L10.98 12.62H17.37C17.72 12.62 18 12.35 18 12C18 11.65 17.73 11.37 17.38 11.37H10.99L12.85 9.03C13.07 8.77 13.04 8.38 12.78 8.15C12.52 7.93 12.12 7.96 11.9 8.22L9.15 11.59Z" />
</svg>
