<svg width="24" height="24" viewBox="0 0 24 24"  xmlns="http://www.w3.org/2000/svg">
<path d="M6.77305 6.35318C6.6809 6.38978 6.59453 6.44536 6.51996 6.51993C6.44405 6.59585 6.38781 6.68399 6.35125 6.77802C6.32276 6.85112 6.3054 6.92978 6.30127 7.01193C6.30055 7.02607 6.30023 7.04023 6.3003 7.05439L6.3003 14.1213C6.3003 14.5355 6.63609 14.8713 7.0503 14.8713C7.46452 14.8713 7.8003 14.5355 7.8003 14.1213L7.8003 8.86093L16.4195 17.4801C16.7124 17.773 17.1872 17.773 17.4801 17.4801C17.773 17.1872 17.773 16.7123 17.4801 16.4194L8.86096 7.80027L14.1214 7.80027C14.5356 7.80027 14.8714 7.46448 14.8714 7.05027C14.8714 6.63605 14.5356 6.30027 14.1214 6.30027L7.05272 6.30027C7.04494 6.30024 7.03715 6.30034 7.02937 6.30055C6.93904 6.30303 6.85269 6.32148 6.77305 6.35318Z" />
</svg>
