<?xml version="1.0" encoding="utf-8"?><svg width="24" height="24" xmlns="http://www.w3.org/2000/svg" viewBox="0 0 24 24"><path d="M19 5.636v3.819a.636.636 0 1 1-1.273 0V7.172l-3.368 3.37a.637.637 0 1 1-.9-.901l3.369-3.368h-2.282a.636.636 0 1 1 0-1.273h3.818a.636.636 0 0 1 .636.636ZM9.64 13.46l-3.367 3.369v-2.282a.636.636 0 1 0-1.273 0v3.818a.636.636 0 0 0 .636.636h3.819a.636.636 0 1 0 0-1.273H7.172l3.37-3.368a.637.637 0 1 0-.901-.9Zm8.724.45a.636.636 0 0 0-.637.636v2.283l-3.368-3.37a.637.637 0 1 0-.9.901l3.369 3.368h-2.282a.636.636 0 1 0 0 1.273h3.818a.636.636 0 0 0 .636-.636v-3.819a.636.636 0 0 0-.636-.636ZM7.172 6.273h2.283a.636.636 0 0 0 0-1.273H5.636A.636.636 0 0 0 5 5.636v3.819a.636.636 0 0 0 1.273 0V7.172l3.368 3.37a.637.637 0 0 0 .9-.901L7.172 6.273Z"/></svg>