<svg width="24" height="24" viewBox="0 0 24 24"  xmlns="http://www.w3.org/2000/svg">
<path d="M17.5058 17.4531C17.3686 17.6046 17.1703 17.6998 16.9498 17.6998L9.87871 17.6998C9.46449 17.6998 9.12871 17.364 9.12871 16.9498C9.12871 16.5355 9.46449 16.1998 9.87871 16.1998H15.1391L6.51993 7.58059C6.22704 7.2877 6.22704 6.81283 6.51993 6.51993C6.81283 6.22704 7.2877 6.22704 7.58059 6.51993L16.1998 15.1391V9.87869C16.1998 9.46447 16.5356 9.12869 16.9498 9.12869C17.364 9.12869 17.6998 9.46447 17.6998 9.87869V16.9498C17.6998 17.0587 17.6765 17.1623 17.6347 17.2557C17.6032 17.3263 17.5602 17.393 17.5058 17.4531Z" />
</svg>
