<svg width="24" height="24" viewBox="0 0 24 24"  xmlns="http://www.w3.org/2000/svg">
<path d="M17.7 7.2L6.3 7.2C6.13431 7.2 6 7.06569 6 6.9V6.3C6 6.13431 6.13431 6 6.3 6H17.7C17.8657 6 18 6.13431 18 6.3V6.9C18 7.06569 17.8657 7.2 17.7 7.2Z" />
<path d="M12.41 9.15C12.3 9.06 12.16 9 12.01 9C11.86 9 11.72 9.06 11.61 9.15L8.24 11.9C7.98 12.12 7.95 12.52 8.17 12.78C8.39 13.04 8.79 13.08 9.05 12.85L11.39 10.99V17.38C11.39 17.72 11.67 18 12.01 18C12.35 18 12.63 17.73 12.63 17.38V10.99L14.97 12.85C15.23 13.07 15.62 13.04 15.85 12.78C16.07 12.52 16.04 12.12 15.78 11.9L12.41 9.15Z" />
</svg>
