<svg width="24" height="24" viewBox="0 0 24 24"  xmlns="http://www.w3.org/2000/svg">
<path d="M6.54517 17.5042C6.52739 17.488 6.51038 17.4709 6.49422 17.4531C6.43872 17.3919 6.39513 17.3237 6.36346 17.2516C6.32282 17.1592 6.30026 17.0571 6.30026 16.9498L6.30026 9.87869C6.30026 9.46448 6.63605 9.12869 7.05026 9.12869C7.46448 9.12869 7.80026 9.46448 7.80026 9.87869L7.80026 15.1391L16.4194 6.51993C16.7123 6.22704 17.1872 6.22704 17.4801 6.51993C17.773 6.81283 17.773 7.2877 17.4801 7.58059L8.86093 16.1998H14.1213C14.5355 16.1998 14.8713 16.5355 14.8713 16.9498C14.8713 17.364 14.5355 17.6998 14.1213 17.6998L7.05026 17.6998C6.85571 17.6998 6.67846 17.6257 6.54517 17.5042Z" />
</svg>
