<svg width="24" height="24" viewBox="0 0 24 24"  xmlns="http://www.w3.org/2000/svg">
<path d="M11.59 14.85C11.7 14.94 11.84 15 11.99 15C12.14 15 12.28 14.94 12.39 14.85L15.76 12.1C16.02 11.88 16.05 11.48 15.83 11.22C15.61 10.96 15.21 10.92 14.95 11.15L12.61 13.01V6.62C12.61 6.28 12.33 6 11.99 6C11.65 6 11.37 6.27 11.37 6.62V13.01L9.03 11.15C8.77 10.93 8.38 10.96 8.15 11.22C7.93 11.48 7.96 11.88 8.22 12.1L11.59 14.85Z" />
<path d="M6.3 16.8H17.7C17.8657 16.8 18 16.9343 18 17.1V17.7C18 17.8657 17.8657 18 17.7 18H6.3C6.13431 18 6 17.8657 6 17.7V17.1C6 16.9343 6.13431 16.8 6.3 16.8Z" />
</svg>
