<?xml version="1.0" encoding="utf-8"?><svg width="24" height="24" xmlns="http://www.w3.org/2000/svg" viewBox="0 0 24 24"><path d="M9 11.995V12v-.01.005Zm0 0a.495.495 0 0 0 .5.495h3.79l-1.15 1.15c-.2.2-.2.51 0 .71.2.2.51.2.71 0l2-2c.2-.2.2-.51 0-.71l-2-2c-.2-.2-.51-.2-.71 0-.2.2-.2.51 0 .71l1.15 1.15H9.5a.495.495 0 0 0-.5.495Z"/><path fill-rule="evenodd" clip-rule="evenodd" d="M6.6 6h10.81c.33 0 .6.27.6.6v10.81c0 .33-.27.6-.6.6H6.6c-.33 0-.6-.27-.6-.6V6.6c0-.33.27-.6.6-.6Zm.6 10.8h9.6V7.2H7.2v9.6Z"/></svg>