<?xml version="1.0" encoding="utf-8"?><svg width="24" height="24" xmlns="http://www.w3.org/2000/svg" viewBox="0 0 24 24"><path d="M13.273 10.091V6.909a.636.636 0 1 1 1.272 0v1.646l3.368-3.369a.637.637 0 0 1 .9.9l-3.368 3.369h1.646a.636.636 0 0 1 0 1.272h-3.182a.637.637 0 0 1-.636-.636Zm-3.182 3.182H6.909a.636.636 0 1 0 0 1.272h1.646l-3.369 3.368a.637.637 0 0 0 .9.9l3.369-3.368v1.646a.636.636 0 0 0 1.272 0v-3.182a.637.637 0 0 0-.636-.636Zm5.354 1.272h1.646a.636.636 0 1 0 0-1.272h-3.182a.637.637 0 0 0-.636.636v3.182a.636.636 0 1 0 1.272 0v-1.646l3.368 3.369a.636.636 0 0 0 .9-.9l-3.368-3.369ZM10.09 6.273a.636.636 0 0 0-.636.636v1.646L6.087 5.186a.637.637 0 0 0-.9.9l3.368 3.369H6.91a.636.636 0 0 0 0 1.272h3.182a.637.637 0 0 0 .636-.636V6.909a.636.636 0 0 0-.636-.636Z"/></svg>