<svg width="24" height="24" viewBox="0 0 24 24"  xmlns="http://www.w3.org/2000/svg">
<path d="M12.5303 19.5303C12.4584 19.6022 12.3755 19.6565 12.2871 19.6931C12.1987 19.7298 12.1017 19.75 12 19.75C11.8081 19.75 11.6161 19.6768 11.4697 19.5303L6.46967 14.5303C6.17678 14.2374 6.17678 13.7626 6.46967 13.4697C6.76256 13.1768 7.23744 13.1768 7.53033 13.4697L11.25 17.1893L11.25 5C11.25 4.58579 11.5858 4.25 12 4.25C12.4142 4.25 12.75 4.58579 12.75 5L12.75 17.1893L16.4697 13.4697C16.7626 13.1768 17.2374 13.1768 17.5303 13.4697C17.8232 13.7626 17.8232 14.2374 17.5303 14.5303L12.5303 19.5303Z" />
</svg>
