<svg width="24" height="24" viewBox="0 0 24 24"  xmlns="http://www.w3.org/2000/svg">
<path d="M17.2474 6.3616C17.1562 6.32211 17.0555 6.30023 16.9498 6.30023L9.87873 6.30023C9.46452 6.30023 9.12873 6.63602 9.12873 7.05023C9.12873 7.46445 9.46452 7.80023 9.87873 7.80023H15.1391L6.51996 16.4194C6.22707 16.7123 6.22707 17.1872 6.51996 17.4801C6.81286 17.773 7.28773 17.773 7.58062 17.4801L16.1998 8.86088V14.1213C16.1998 14.5355 16.5356 14.8713 16.9498 14.8713C17.364 14.8713 17.6998 14.5355 17.6998 14.1213V7.05023C17.6998 6.94287 17.6772 6.84078 17.6366 6.74843C17.6049 6.6763 17.5613 6.60813 17.5058 6.54692C17.4893 6.52865 17.4719 6.51119 17.4536 6.49463C17.3911 6.43784 17.3213 6.3935 17.2474 6.3616Z" />
</svg>
