<?xml version="1.0" encoding="utf-8"?><svg width="24" height="24" xmlns="http://www.w3.org/2000/svg" viewBox="0 0 24 24"><path d="M8.5 12.875c-.1 0-.2-.02-.29-.06a.74.74 0 0 1-.46-.69v-2.25A4.26 4.26 0 0 1 12 5.625c.76 0 1.5.2 2.15.58.2.12.33.32.36.56.03.22-.05.46-.21.62l-5.27 5.27c-.14.14-.34.22-.53.22Zm8.97-7.03c.29-.29.77-.29 1.06 0 .29.29.29.77 0 1.06l-2.33 2.33c.03.21.05.43.05.64v3c0 .59.24 1.15.71 1.64.34.37.44.89.24 1.35-.2.46-.65.76-1.15.76H13.9c-.26 1.01-1.01 1.75-1.9 1.75-.9 0-1.64-.74-1.9-1.75H8.81l-2.28 2.28c-.15.15-.34.22-.53.22s-.38-.07-.53-.22a.754.754 0 0 1 0-1.06l12-12Z"/></svg>