<?xml version="1.0" encoding="utf-8"?><svg width="24" height="24" xmlns="http://www.w3.org/2000/svg" viewBox="0 0 24 24"><path d="M7.2 6.3v11.4a.3.3 0 0 1-.3.3h-.6a.3.3 0 0 1-.3-.3V6.3a.3.3 0 0 1 .3-.3h.6a.3.3 0 0 1 .3.3Zm2.7.9h7.8a.3.3 0 0 1 .3.3v.6a.3.3 0 0 1-.3.3H9.9a.3.3 0 0 1-.3-.3v-.6a.3.3 0 0 1 .3-.3Zm7.8 5.6H9.9a.3.3 0 0 0-.3.3v.6a.3.3 0 0 0 .3.3h7.8a.3.3 0 0 0 .3-.3v-.6a.3.3 0 0 0-.3-.3Zm-3.6 2.8H9.9a.3.3 0 0 0-.3.3v.6a.3.3 0 0 0 .3.3h4.2a.3.3 0 0 0 .3-.3v-.6a.3.3 0 0 0-.3-.3Zm1.2-5.6H9.9a.3.3 0 0 0-.3.3v.6a.3.3 0 0 0 .3.3h5.4a.3.3 0 0 0 .3-.3v-.6a.3.3 0 0 0-.3-.3Z"/></svg>