<?xml version="1.0" encoding="utf-8"?><svg width="24" height="24" xmlns="http://www.w3.org/2000/svg" viewBox="0 0 24 24"><path d="M14.64 12.88c-.45-.48-.99-.75-1.56-.92.49-.19.95-.46 1.32-.91 1.5-1.81.68-4.56-1.7-4.96-.33-.05-.64-.08-.95-.09-1.41 0-2.26 0-2.75.24-.04.02-.08.03-.11.05-.29.18-.41.48-.41.96v9.51c0 1.25.8 1.24 3.25 1.24h-.01c.36 0 .73-.02 1.11-.07 2.53-.33 3.58-3.16 1.81-5.05ZM13.52 9.1c.14 1.86-1.82 2.22-3.46 2.27V7.22c1.62-.24 3.33.05 3.46 1.88Zm.02 6.8c-.63.96-2.16.98-3.48.8v-4.1c.86.02 1.76.12 2.51.37 1.34.43 1.63 1.93.98 2.93h-.01Z"/></svg>