<?xml version="1.0" encoding="utf-8"?><svg width="24" height="24" xmlns="http://www.w3.org/2000/svg" viewBox="0 0 24 24"><path d="m9.409 17.414 3.76-11.301a.37.37 0 0 1 .467-.235l.721.24a.37.37 0 0 1 .235.468l-3.76 11.301a.37.37 0 0 1-.468.235l-.72-.24a.37.37 0 0 1-.235-.468Zm-.889-2.065.39-.39c.1-.1.11-.26.01-.37l-2.3-2.58 2.3-2.58c.1-.11.09-.27-.01-.37l-.39-.39a.26.26 0 0 0-.38 0l-3.34 3.34 3.34 3.34c.11.11.28.11.38 0Zm6.96 0-.39-.39c-.1-.1-.11-.26-.01-.37l2.3-2.58-2.3-2.58c-.1-.11-.09-.27.01-.37l.39-.39a.26.26 0 0 1 .38 0l3.34 3.34-3.34 3.34a.26.26 0 0 1-.38 0Z"/></svg>