<?xml version="1.0" encoding="utf-8"?><svg width="24" height="24" xmlns="http://www.w3.org/2000/svg" viewBox="0 0 24 24"><path fill-rule="evenodd" clip-rule="evenodd" d="M12.2 5C8.22 5 5 8.22 5 12.2s3.22 7.2 7.2 7.2c2.4 0 2.4-1.48 2.4-1.8 0-1.6-2.4-1.38-2.4-3 0-.66.53-1.15 1.5-1.2.97-.05 1.97-.05 3.3 0 1.33.05 2.4-1.07 2.4-2.4 0-3.04-3.84-6-7.2-6Zm-3.6 9.6c-.66 0-1.2-.54-1.2-1.2 0-.66.54-1.2 1.2-1.2.66 0 1.2.54 1.2 1.2 0 .66-.54 1.2-1.2 1.2Zm1.8-3.6c-.99 0-1.8-.81-1.8-1.8s.81-1.8 1.8-1.8 1.8.81 1.8 1.8-.81 1.8-1.8 1.8Zm4.8 0c-.66 0-1.2-.54-1.2-1.2 0-.66.54-1.2 1.2-1.2.66 0 1.2.54 1.2 1.2 0 .66-.54 1.2-1.2 1.2Z"/></svg>