<?xml version="1.0" encoding="utf-8"?><svg width="24" height="24" xmlns="http://www.w3.org/2000/svg" viewBox="0 0 24 24"><path fill-rule="evenodd" clip-rule="evenodd" d="M13.793 4a.5.5 0 0 1 .353.146l3.708 3.708a.5.5 0 0 1 .146.353V19.5a.5.5 0 0 1-.5.5h-11a.5.5 0 0 1-.5-.5v-15a.5.5 0 0 1 .5-.5h7.293ZM8.75 7a.75.75 0 0 0 0 1.5h4.5a.75.75 0 0 0 0-1.5h-4.5ZM8 11.25a.75.75 0 0 1 .75-.75h6.5a.75.75 0 0 1 0 1.5h-6.5a.75.75 0 0 1-.75-.75ZM8.75 14a.75.75 0 0 0 0 1.5h6.5a.75.75 0 0 0 0-1.5h-6.5Z"/></svg>