<?xml version="1.0" encoding="utf-8"?><svg width="24" height="24" xmlns="http://www.w3.org/2000/svg" viewBox="0 0 24 24"><path d="M11.5 5.7 9.85 7.35v.01c-.2.2-.51.2-.71 0-.2-.2-.2-.51 0-.71l2.5-2.5c.2-.2.51-.2.71 0l2.51 2.5c.2.2.2.51 0 .71-.2.2-.51.2-.71 0L12.5 5.71v5.78c0 .28-.22.5-.5.5s-.5-.22-.5-.5V5.7Z"/><path d="M14.79 9h2.11v-.01c.33 0 .6.27.6.6v6.81c0 .33-.27.6-.6.6H7.09a.6.6 0 0 1-.59-.6V9.59c0-.32.26-.59.59-.59H9.2c.17 0 .3.14.3.3v.6c0 .17-.13.3-.3.3H7.7v5.6h8.59v-5.6h-1.5a.3.3 0 0 1-.3-.3v-.6c0-.17.13-.3.3-.3Z"/></svg>