<svg width="24" height="24" viewBox="0 0 24 24"  xmlns="http://www.w3.org/2000/svg">
<path d="M11.5 5.7L9.85 7.35V7.36C9.65 7.56 9.34 7.56 9.14 7.36C8.94 7.16 8.94 6.85 9.14 6.65L11.64 4.15C11.84 3.95 12.15 3.95 12.35 4.15L14.86 6.65C15.06 6.85 15.06 7.16 14.86 7.36C14.66 7.56 14.35 7.56 14.15 7.36L12.5 5.71V11.49C12.5 11.77 12.28 11.99 12 11.99C11.72 11.99 11.5 11.77 11.5 11.49V5.7Z" />
<path d="M14.79 9H16.9V8.99C17.23 8.99 17.5 9.26 17.5 9.59V16.4C17.5 16.73 17.23 17 16.9 17H7.09C6.77 17 6.5 16.73 6.5 16.4V9.59C6.5 9.27 6.76 9 7.09 9H9.2C9.37 9 9.5 9.14 9.5 9.3V9.9C9.5 10.07 9.37 10.2 9.2 10.2H7.7V15.8H16.29V10.2H14.79C14.62 10.2 14.49 10.06 14.49 9.9V9.3C14.49 9.13 14.62 9 14.79 9Z" />
</svg>
