<?xml version="1.0" encoding="utf-8"?><svg width="24" height="24" xmlns="http://www.w3.org/2000/svg" viewBox="0 0 24 24"><path d="m15.563 4.754.002-.004h-.01l.008.004Z"/><path fill-rule="evenodd" clip-rule="evenodd" d="M15.563 4.754 14.075 7.36c-.65-.23-1.33-.36-2.07-.36-2.87 0-4.99 1.73-6.69 4.47-.2.32-.2.73 0 1.05 1.05 1.68 2.26 2.96 3.69 3.71l-1.44 2.52.87.5 7.99-14-.863-.496ZM11.995 8.5c-1.93 0-3.5 1.57-3.5 3.5h-.01c0 1.12.54 2.1 1.36 2.74l1.02-1.78c-.22-.26-.37-.59-.37-.96 0-.83.67-1.5 1.5-1.5.082 0 .155.017.236.034l.024.006 1.02-1.78c-.4-.16-.83-.26-1.28-.26Z"/><path d="m15.265 10.77 1.16-2.03c.83.73 1.58 1.64 2.26 2.73.2.32.2.73 0 1.05-1.71 2.74-3.83 4.47-6.69 4.47-.045 0-.09-.005-.135-.01-.045-.005-.09-.01-.135-.01l.88-1.54a3.493 3.493 0 0 0 2.89-3.44c0-.43-.09-.84-.23-1.22Z"/></svg>