<svg width="24" height="24" viewBox="0 0 24 24"  xmlns="http://www.w3.org/2000/svg">
<path d="M4.75 7.5H18.75C19.16 7.5 19.5 7.16 19.5 6.75C19.5 6.34 19.16 6 18.75 6H4.75C4.34 6 4 6.34 4 6.75C4 7.16 4.34 7.5 4.75 7.5Z" />
<path d="M18.75 10.99H4.75C4.34 10.99 4 11.32 4 11.74C4 12.16 4.34 12.49 4.75 12.49H18.75C19.16 12.49 19.5 12.15 19.5 11.74C19.5 11.33 19.16 10.99 18.75 10.99Z" />
<path d="M4.75 15.98H18.75C19.16 15.98 19.5 16.32 19.5 16.73C19.5 17.14 19.16 17.48 18.75 17.48H4.75C4.34 17.48 4 17.15 4 16.73C4 16.31 4.34 15.98 4.75 15.98Z" />
</svg>
