<?xml version="1.0" encoding="utf-8"?><svg width="24" height="24" xmlns="http://www.w3.org/2000/svg" viewBox="0 0 24 24"><path d="M11.82 6h.8c.19 0 .35.16.35.35v11.3c0 .19-.16.35-.35.35h-.8c-.19 0-.35-.16-.35-.35V12.6h-4.2v5.05c0 .19-.16.35-.35.35h-.8c-.19 0-.35-.16-.35-.35V6.35c0-.19.16-.35.35-.35h.8c.19 0 .35.16.35.35v5.05h4.2V6.35c0-.19.16-.35.35-.35Zm7.48 5.64c0 .94-.32 1.52-.74 1.88h.01c.5.38.88 1.02.88 1.99 0 1.38-1.08 2.45-2.46 2.45-.98 0-1.8-.54-2.2-1.35a.27.27 0 0 1 .15-.37l.75-.3c.12-.06.27 0 .34.12.18.33.52.55.95.55.63 0 1.11-.47 1.11-1.1 0-1.15-.83-1.33-1.13-1.38-.08-.02-.2-.03-.31-.03a.284.284 0 0 1-.27-.28v-.52c0-.15.11-.27.25-.28a2.081 2.081 0 0 0 .398-.07c.298-.084.922-.257.922-1.32 0-.62-.42-1.1-.96-1.1-.37 0-.67.24-.83.58-.07.14-.22.21-.36.15l-.75-.3a.272.272 0 0 1-.15-.36c.36-.84 1.15-1.41 2.09-1.41 1.29 0 2.31 1.08 2.31 2.45Z"/></svg>