<?xml version="1.0" encoding="utf-8"?><svg width="24" height="24" xmlns="http://www.w3.org/2000/svg" viewBox="0 0 24 24"><path d="M11.82 5.995h.8c.19 0 .35.16.35.35v11.3c0 .19-.16.35-.35.35h-.8c-.19 0-.35-.16-.35-.35v-5.05h-4.2v5.05c0 .19-.16.35-.35.35h-.8c-.19 0-.35-.16-.35-.35v-11.3c0-.19.16-.35.35-.35h.8c.19 0 .35.16.35.35v5.05h4.2v-5.05c0-.19.16-.35.35-.35Zm5.366 3.217a.47.47 0 0 1 .154-.057l.01.01c.47-.08.88.29.88.74v7.75c0 .19-.16.35-.35.35h-.8c-.19 0-.35-.16-.35-.35v-6.81l-1.3.73c-.18.1-.4.03-.49-.15l-.22-.45a.352.352 0 0 1 .14-.46l2.3-1.29.026-.013Z"/></svg>