<?xml version="1.0" encoding="utf-8"?><svg width="24" height="24" xmlns="http://www.w3.org/2000/svg" viewBox="0 0 24 24"><path d="M11.82 6h.8c.19 0 .35.16.35.35v11.3c0 .19-.16.35-.35.35h-.8c-.19 0-.35-.16-.35-.35V12.6h-4.2v5.05c0 .19-.16.35-.35.35h-.8c-.19 0-.35-.16-.35-.35V6.35c0-.19.16-.35.35-.35h.8c.19 0 .35.16.35.35v5.05h4.2V6.35c0-.19.16-.35.35-.35Zm7.56 5.76c0 2.2-1.3 3.96-2.37 5.04h2.1c.19 0 .34.15.34.34v.52c0 .19-.15.34-.34.34h-3.79c-.64 0-.9-.83-.37-1.2.41-.3 3.08-2.34 3.08-5.05 0-.68-.51-1.19-1.13-1.08-.47.09-.79.52-.79 1v.29c0 .19-.15.34-.34.34h-.67c-.19 0-.34-.15-.34-.34v-.25c0-1.25.96-2.34 2.21-2.39 1.34-.06 2.41 1.03 2.41 2.44Z"/></svg>