<?xml version="1.0" encoding="utf-8"?><svg width="24" height="24" xmlns="http://www.w3.org/2000/svg" viewBox="0 0 24 24"><path d="m14.957 5.128 4.2 7.1-.04-.03c.12.23.07.51-.11.69l-3.89 3.89a.99.99 0 0 1-1.39 0l-.17-.17-1.24 1.23a.99.99 0 0 1-1.39 0l-.155-.155-1.375 1.375c-.09.09-.21.14-.34.14-.05 0-.15-.02-.15-.02l-3.76-.86a.485.485 0 0 1-.19-.8l2.83-2.82v-.01l2.975 2.975 1.925-1.925-2.99-2.99-1.93 1.93-.17-.17a.972.972 0 0 1 0-1.39l1.24-1.23-.17-.17a.99.99 0 0 1 0-1.39l5.34-5.35c.29-.29.77-.21.95.15Z"/></svg>