<?xml version="1.0" encoding="utf-8"?><svg width="24" height="24" xmlns="http://www.w3.org/2000/svg" viewBox="0 0 24 24"><path d="M8.105 14.55c-1.1 0-2.14-.91-2.35-2.1-.03-.15-.05-.3-.05-.45 0-.15.02-.31.05-.45.22-1.19 1.25-2.1 2.35-2.1h1.77c.18 0 .33-.15.33-.33v-.54c0-.18-.15-.33-.33-.33h-1.81c-2.02 0-3.76 1.55-3.86 3.56a3.75 3.75 0 0 0 3.74 3.94h1.92c.18 0 .33-.15.33-.33v-.54c0-.18-.15-.33-.33-.33h-1.76Z"/><path d="M14.675 11.4h-5.34a.33.33 0 0 0-.33.33v.54c0 .182.148.33.33.33h5.34a.33.33 0 0 0 .33-.33v-.54a.33.33 0 0 0-.33-.33Z"/><path d="M18.255 12.45c-.21 1.19-1.25 2.1-2.35 2.1h-1.77c-.18 0-.33.15-.33.33v.54c0 .18.15.33.33.33h1.92a3.75 3.75 0 0 0 3.74-3.94c-.1-2.01-1.83-3.56-3.85-3.56h-1.81c-.18 0-.33.15-.33.33v.54c0 .18.15.33.33.33h1.77c1.1 0 2.13.91 2.35 2.1.03.14.05.29.05.45 0 .15-.02.3-.05.45Z"/></svg>