<?xml version="1.0" encoding="utf-8"?><svg width="24" height="24" xmlns="http://www.w3.org/2000/svg" viewBox="0 0 24 24"><path d="m9.408 17.414 3.76-11.301a.37.37 0 0 1 .468-.235l.72.24a.37.37 0 0 1 .235.468l-3.76 11.301a.37.37 0 0 1-.467.235l-.721-.24a.37.37 0 0 1-.235-.468ZM8.1 14.558c-1.1 0-2.14-.91-2.35-2.1-.03-.15-.05-.3-.05-.45 0-.15.02-.31.05-.45.22-1.19 1.25-2.1 2.35-2.1h1.77c.18 0 .33-.15.33-.33v-.54c0-.18-.15-.33-.33-.33H8.06c-2.02 0-3.75 1.55-3.85 3.56a3.75 3.75 0 0 0 3.74 3.94h.72c.18 0 .33-.15.33-.33v-.54c0-.18-.15-.33-.33-.33H8.1Zm7.8 0c1.1 0 2.14-.91 2.35-2.1.03-.15.05-.3.05-.45 0-.16-.02-.31-.05-.45-.22-1.19-1.25-2.1-2.35-2.1h-.57c-.18 0-.33-.15-.33-.33v-.54c0-.18.15-.33.33-.33h.61c2.02 0 3.75 1.55 3.85 3.56a3.75 3.75 0 0 1-3.74 3.94h-1.92c-.18 0-.33-.15-.33-.33v-.54c0-.18.15-.33.33-.33h1.77Z"/></svg>