<?xml version="1.0" encoding="utf-8"?><svg width="24" height="24" xmlns="http://www.w3.org/2000/svg" viewBox="0 0 24 24"><path fill-rule="evenodd" clip-rule="evenodd" d="M8.06 6.13A.626.626 0 0 0 7.6 6a.227.227 0 0 0-.092.027.622.622 0 0 1-.058.023l-1.28.73c-.16.09-.22.28-.13.44l.12.25c.04.08.11.15.2.17.09.03.19.02.27-.03l.5-.28v3.52c0 .19.15.34.34.34h.44c.19 0 .34-.15.34-.34V6.56c0-.16-.07-.32-.2-.43h.01Zm2.44.47h6a.3.3 0 0 1 .3.3v.6a.3.3 0 0 1-.3.3h-6a.3.3 0 0 1-.3-.3v-.6a.3.3 0 0 1 .3-.3Zm4.8 4.8h-4.8a.3.3 0 0 0-.3.3v.6a.3.3 0 0 0 .3.3h4.8a.3.3 0 0 0 .3-.3v-.6a.3.3 0 0 0-.3-.3Zm2.4 4.8h-7.2a.3.3 0 0 0-.3.3v.6a.3.3 0 0 0 .3.3h7.2a.3.3 0 0 0 .3-.3v-.6a.3.3 0 0 0-.3-.3Zm-9.92.84h.82c.18 0 .33.15.33.33v.29c0 .18-.15.33-.33.33H6.5c-.23 0-.43-.14-.49-.36-.06-.22.01-.44.2-.57.17-.12 1.64-1.23 1.64-2.67 0-.16-.06-.29-.16-.38a.32.32 0 0 0-.29-.08.42.42 0 0 0-.32.41v.16c0 .18-.15.33-.33.33h-.37c-.18 0-.33-.15-.33-.33v-.14c0-.79.59-1.44 1.36-1.47.38-.03.75.12 1.03.39.3.28.46.68.46 1.11 0 1.11-.56 2.02-1.12 2.65Z"/></svg>