<svg width="24" height="24" viewBox="0 0 24 24"  xmlns="http://www.w3.org/2000/svg">
<path d="M17.5 4.75H6.5C5.26 4.75 4.25 5.76 4.25 7V18.5C4.25 18.79 4.42 19.06 4.68 19.18C4.78 19.23 4.89 19.25 5 19.25C5.17 19.25 5.34 19.19 5.48 19.08L8.27 16.75H17.5C18.74 16.75 19.75 15.74 19.75 14.5V7C19.75 5.76 18.74 4.75 17.5 4.75ZM8.5 11.75C7.95 11.75 7.5 11.3 7.5 10.75C7.5 10.2 7.95 9.75 8.5 9.75C9.05 9.75 9.5 10.2 9.5 10.75C9.5 11.3 9.05 11.75 8.5 11.75ZM12 11.75C11.45 11.75 11 11.3 11 10.75C11 10.2 11.45 9.75 12 9.75C12.55 9.75 13 10.2 13 10.75C13 11.3 12.55 11.75 12 11.75ZM15.5 11.75C14.95 11.75 14.5 11.3 14.5 10.75C14.5 10.2 14.95 9.75 15.5 9.75C16.05 9.75 16.5 10.2 16.5 10.75C16.5 11.3 16.05 11.75 15.5 11.75Z" />
</svg>
