<svg width="24" height="24" viewBox="0 0 24 24"  xmlns="http://www.w3.org/2000/svg">
<path d="M17.863 13.1879C17.8026 13.1274 17.7269 13.0845 17.644 13.0638C17.5611 13.0431 17.4741 13.0453 17.3923 13.0703C16.4949 13.3416 15.5406 13.3643 14.6312 13.1361C13.7219 12.9078 12.8915 12.4372 12.2285 11.7742C11.5655 11.1112 11.0949 10.2808 10.8666 9.37147C10.6384 8.4621 10.6611 7.50785 10.9324 6.61039C10.9576 6.52862 10.96 6.44152 10.9394 6.35848C10.9188 6.27543 10.8759 6.19958 10.8154 6.13908C10.7549 6.07857 10.6791 6.03571 10.596 6.01509C10.513 5.99447 10.4259 5.99688 10.3441 6.02206C9.10333 6.40215 8.01405 7.16389 7.23125 8.19889C6.54668 9.10777 6.1291 10.1895 6.02545 11.3227C5.92179 12.4558 6.13615 13.5954 6.64445 14.6134C7.15276 15.6314 7.93486 16.4875 8.90289 17.0855C9.87093 17.6835 10.9865 17.9998 12.1244 17.9987C13.4519 18.0028 14.744 17.5713 15.8026 16.7703C16.8376 15.9875 17.5994 14.8982 17.9795 13.6574C18.0044 13.5759 18.0067 13.4892 17.9861 13.4066C17.9656 13.3239 17.9231 13.2483 17.863 13.1879ZM15.2367 16.0184C14.2398 16.7693 13.0052 17.1347 11.7602 17.0476C10.5152 16.9604 9.3436 16.4264 8.46106 15.544C7.57853 14.6615 7.04446 13.4899 6.95719 12.2449C6.86991 11 7.2353 9.76535 7.98608 8.76839C8.47522 8.12244 9.10759 7.59882 9.83344 7.23873C9.79209 7.52891 9.77125 7.82164 9.77107 8.11475C9.77279 9.73699 10.418 11.2923 11.5651 12.4394C12.7122 13.5865 14.2675 14.2317 15.8897 14.2334C16.1834 14.2333 16.4767 14.2125 16.7675 14.171C16.4071 14.897 15.883 15.5294 15.2367 16.0184Z" />
</svg>
