<svg width="24" height="24" viewBox="0 0 24 24"  xmlns="http://www.w3.org/2000/svg">
<path d="M5.75 12C5.75 8.54421 8.54421 5.75 12 5.75C14.2634 5.75 16.2397 6.9503 17.3383 8.75H15C14.5858 8.75 14.25 9.08579 14.25 9.5C14.25 9.91421 14.5858 10.25 15 10.25H18.5228C18.5343 10.2503 18.5459 10.2503 18.5575 10.25H19C19.4142 10.25 19.75 9.91421 19.75 9.5V5.5C19.75 5.08579 19.4142 4.75 19 4.75C18.5858 4.75 18.25 5.08579 18.25 5.5V7.41907C16.8409 5.49915 14.5715 4.25 12 4.25C7.71579 4.25 4.25 7.71579 4.25 12C4.25 16.2842 7.71579 19.75 12 19.75C15.3015 19.75 18.1229 17.6782 19.2401 14.7689C19.3886 14.3822 19.1956 13.9484 18.8089 13.7999C18.4222 13.6514 17.9884 13.8444 17.8399 14.2311C16.9371 16.5818 14.6585 18.25 12 18.25C8.54421 18.25 5.75 15.4558 5.75 12Z" />
</svg>
