<svg width="24" height="24" viewBox="0 0 24 24"  xmlns="http://www.w3.org/2000/svg">
<path d="M18.25 12C18.25 8.54421 15.4558 5.75 12 5.75C9.73664 5.75 7.76031 6.9503 6.66169 8.75H9C9.41421 8.75 9.75 9.08579 9.75 9.5C9.75 9.91421 9.41421 10.25 9 10.25H5.47719C5.46565 10.2503 5.45408 10.2503 5.44249 10.25H5C4.58579 10.25 4.25 9.91421 4.25 9.5V5.5C4.25 5.08579 4.58579 4.75 5 4.75C5.41421 4.75 5.75 5.08579 5.75 5.5V7.41907C7.15912 5.49915 9.4285 4.25 12 4.25C16.2842 4.25 19.75 7.71579 19.75 12C19.75 16.2842 16.2842 19.75 12 19.75C8.69847 19.75 5.87714 17.6782 4.75985 14.7689C4.61136 14.3822 4.80444 13.9484 5.19112 13.7999C5.5778 13.6514 6.01165 13.8444 6.16015 14.2311C7.06286 16.5818 9.34153 18.25 12 18.25C15.4558 18.25 18.25 15.4558 18.25 12Z" />
</svg>
