<?xml version="1.0" encoding="utf-8"?><svg width="24" height="24" xmlns="http://www.w3.org/2000/svg" viewBox="0 0 24 24"><path d="m16.53 4.49 3 3c.29.29.29.77 0 1.06-.29.29-.77.29-1.06 0l-1.72-1.72v6.19c0 .41-.34.75-.75.75s-.75-.34-.75-.75V6.83l-1.72 1.72c-.29.29-.77.29-1.06 0a.754.754 0 0 1 0-1.06l3-3c.07-.07.15-.12.24-.16.18-.07.4-.07.58 0 .09.03.17.09.24.16ZM5 7.77h5c.41 0 .75-.34.75-.75s-.34-.75-.75-.75H5c-.41 0-.75.34-.75.75s.34.75.75.75Zm7 4.99H5c-.41 0-.75-.34-.75-.75s.34-.75.75-.75h7c.41 0 .75.34.75.75s-.34.75-.75.75Zm-7 3.48h11c.41 0 .75.34.75.75s-.34.75-.75.75H5c-.41 0-.75-.34-.75-.75s.34-.75.75-.75Z"/></svg>