<svg width="24" height="24" viewBox="0 0 24 24"  xmlns="http://www.w3.org/2000/svg">
<path fill-rule="evenodd" clip-rule="evenodd" d="M5.5 5C5.22386 5 5 5.22386 5 5.5V10.5C5 10.7761 5.22386 11 5.5 11H10.5C10.7761 11 11 10.7761 11 10.5V5.5C11 5.22386 10.7761 5 10.5 5H5.5ZM6.25 6.25V9.75H9.75V6.25H6.25Z" />
<path fill-rule="evenodd" clip-rule="evenodd" d="M13 5.5C13 5.22386 13.2239 5 13.5 5H18.5C18.7761 5 19 5.22386 19 5.5V10.5C19 10.7761 18.7761 11 18.5 11H13.5C13.2239 11 13 10.7761 13 10.5V5.5ZM14.25 9.75V6.25H17.75V9.75H14.25Z" />
<path fill-rule="evenodd" clip-rule="evenodd" d="M13 13.5C13 13.2239 13.2239 13 13.5 13H18.5C18.7761 13 19 13.2239 19 13.5V18.5C19 18.7761 18.7761 19 18.5 19H13.5C13.2239 19 13 18.7761 13 18.5V13.5ZM14.25 17.75V14.25H17.75V17.75H14.25Z" />
<path fill-rule="evenodd" clip-rule="evenodd" d="M5 13.5C5 13.2239 5.22386 13 5.5 13H10.5C10.7761 13 11 13.2239 11 13.5V18.5C11 18.7761 10.7761 19 10.5 19H5.5C5.22386 19 5 18.7761 5 18.5V13.5ZM6.25 17.75V14.25H9.75V17.75H6.25Z" />
</svg>
