<?xml version="1.0" encoding="utf-8"?><svg width="24" height="24" xmlns="http://www.w3.org/2000/svg" viewBox="0 0 24 24"><path fill-rule="evenodd" clip-rule="evenodd" d="M12 4.25a.75.75 0 0 1 .713.518L14.285 9.6h5.075a.75.75 0 0 1 .44 1.357l-4.108 2.98 1.571 4.831a.75.75 0 0 1-1.153.84L12 16.625l-4.11 2.981a.75.75 0 0 1-1.153-.839l1.571-4.831-4.108-2.98A.75.75 0 0 1 4.64 9.6h5.075l1.572-4.832A.75.75 0 0 1 12 4.25Zm0 3.175-1.027 3.157a.75.75 0 0 1-.713.518H6.952l2.678 1.943a.75.75 0 0 1 .273.839l-1.027 3.157 2.684-1.946a.75.75 0 0 1 .88 0l2.684 1.946-1.027-3.157a.75.75 0 0 1 .273-.84l2.679-1.942H13.74a.75.75 0 0 1-.713-.518L12 7.425Z"/></svg>