<svg width="24" height="24" viewBox="0 0 24 24"  xmlns="http://www.w3.org/2000/svg">
<path d="M12.7132 4.76803C12.6128 4.45912 12.3248 4.25 12 4.25C11.6752 4.25 11.3872 4.45912 11.2868 4.76803L9.71526 9.6H4.64C4.31497 9.6 4.02693 9.80937 3.92662 10.1185C3.8263 10.4277 3.93655 10.7663 4.19967 10.9571L8.30805 13.9368L6.73678 18.768C6.63631 19.077 6.74613 19.4154 7.00883 19.6065C7.27153 19.7976 7.62738 19.7978 7.89034 19.6071L12 16.6265L16.1097 19.6071C16.3726 19.7978 16.7285 19.7976 16.9912 19.6065C17.2539 19.4154 17.3637 19.077 17.2632 18.768L15.692 13.9368L19.8003 10.9571C20.0635 10.7663 20.1737 10.4277 20.0734 10.1185C19.9731 9.80937 19.685 9.6 19.36 9.6H14.2847L12.7132 4.76803Z" />
</svg>
