<?xml version="1.0" encoding="utf-8"?><svg width="24" height="24" xmlns="http://www.w3.org/2000/svg" viewBox="0 0 24 24"><path d="M9.155 10.23a.327.327 0 0 1-.38-.26h.01l-.08-.41c-.05-.22-.07-.45-.07-.71 0-1.4 1.26-2.85 3.37-2.85 1.63 0 2.65 1.28 2.69 1.34l.26.33c.11.14.08.35-.06.46l-.67.52c-.14.11-.35.08-.46-.06l-.26-.33s-.63-.76-1.51-.76c-1.17 0-1.87.69-1.87 1.35 0 .16.01.3.04.43l.08.41c.03.17-.08.35-.26.38l-.83.16Zm-2.82 1.16h11.33c.18 0 .33.15.33.33v.55c0 .18-.15.33-.33.33h-2.47c.42.49.7 1.13.7 2.02 0 2.09-2.02 3.38-3.9 3.38-2.163 0-3.608-1.715-3.724-1.853l-.006-.007-.26-.33a.33.33 0 0 1 .05-.46l.66-.53a.33.33 0 0 1 .46.05l.26.33c.03.04 1.09 1.3 2.57 1.3 1.15 0 2.4-.72 2.4-1.88 0-.93-.43-1.41-1.71-1.92l-.24-.1h-6.12c-.18 0-.33-.15-.33-.33v-.55c0-.18.15-.33.33-.33Z"/></svg>