<?xml version="1.0" encoding="utf-8"?><svg width="24" height="24" xmlns="http://www.w3.org/2000/svg" viewBox="0 0 24 24"><path d="M11.433 5.767v-1.7a.567.567 0 1 1 1.134 0v1.7a.567.567 0 1 1-1.134 0Zm5.1 6.233a4.533 4.533 0 1 1-9.065 0 4.533 4.533 0 0 1 9.065 0ZM15.4 12a3.4 3.4 0 1 0-6.8 0 3.4 3.4 0 0 0 6.8 0ZM7.066 7.868a.567.567 0 1 0 .802-.802L6.734 5.932a.567.567 0 1 0-.802.802l1.134 1.134Zm0 8.264-1.134 1.134a.567.567 0 0 0 .802.802l1.134-1.134a.566.566 0 1 0-.802-.802Zm9.467-8.099a.567.567 0 0 0 .401-.165l1.134-1.134a.567.567 0 0 0-.802-.802l-1.134 1.134a.567.567 0 0 0 .401.967Zm.401 8.1a.567.567 0 0 0-.802.801l1.134 1.134a.569.569 0 0 0 .968-.401.567.567 0 0 0-.166-.401l-1.134-1.134ZM6.334 12a.567.567 0 0 0-.567-.567h-1.7a.567.567 0 1 0 0 1.134h1.7A.567.567 0 0 0 6.333 12ZM12 17.667a.567.567 0 0 0-.567.566v1.7a.566.566 0 1 0 1.134 0v-1.7a.567.567 0 0 0-.567-.566Zm7.933-6.234h-1.7a.567.567 0 0 0 0 1.134h1.7a.566.566 0 1 0 0-1.134Z"/></svg>