<?xml version="1.0" encoding="utf-8"?><svg width="24" height="24" xmlns="http://www.w3.org/2000/svg" viewBox="0 0 24 24"><path d="M19.5 6a1.5 1.5 0 1 1-3 0 1.5 1.5 0 0 1 3 0Zm-6 6a1.5 1.5 0 1 1-3 0 1.5 1.5 0 0 1 3 0Zm0 6a1.5 1.5 0 1 1-3 0 1.5 1.5 0 0 1 3 0Zm4.5 1.5a1.5 1.5 0 1 0 0-3 1.5 1.5 0 0 0 0 3Zm-12 0a1.5 1.5 0 1 0 0-3 1.5 1.5 0 0 0 0 3ZM7.5 6a1.5 1.5 0 1 1-3 0 1.5 1.5 0 0 1 3 0ZM12 7.5a1.5 1.5 0 1 0 0-3 1.5 1.5 0 0 0 0 3ZM7.5 12a1.5 1.5 0 1 1-3 0 1.5 1.5 0 0 1 3 0ZM18 13.5a1.5 1.5 0 1 0 0-3 1.5 1.5 0 0 0 0 3Z"/></svg>