<?xml version="1.0" encoding="utf-8"?><svg width="24" height="24" xmlns="http://www.w3.org/2000/svg" viewBox="0 0 24 24"><path d="M7.5 6h9a.3.3 0 0 1 .3.3v.6a.3.3 0 0 1-.3.3h-9a.3.3 0 0 1-.3-.3v-.6a.3.3 0 0 1 .3-.3Zm9 8.1h-9a.3.3 0 0 0-.3.3v.6a.3.3 0 0 0 .3.3h9a.3.3 0 0 0 .3-.3v-.6a.3.3 0 0 0-.3-.3Zm-1.8 2.7H9.3a.3.3 0 0 0-.3.3v.6a.3.3 0 0 0 .3.3h5.4a.3.3 0 0 0 .3-.3v-.6a.3.3 0 0 0-.3-.3Zm.6-5.4H8.7a.3.3 0 0 0-.3.3v.6a.3.3 0 0 0 .3.3h6.6a.3.3 0 0 0 .3-.3v-.6a.3.3 0 0 0-.3-.3Zm-9-2.7h11.4a.3.3 0 0 1 .3.3v.6a.3.3 0 0 1-.3.3H6.3a.3.3 0 0 1-.3-.3V9a.3.3 0 0 1 .3-.3Z"/></svg>