<svg width="24" height="24" viewBox="0 0 24 24"  xmlns="http://www.w3.org/2000/svg">
<path d="M11.5 6.7L9.85 8.35V8.36C9.65 8.56 9.34 8.56 9.14 8.36C8.94 8.16 8.94 7.85 9.14 7.65L11.64 5.15C11.84 4.95 12.15 4.95 12.35 5.15L14.86 7.65C15.06 7.85 15.06 8.16 14.86 8.36C14.66 8.56 14.35 8.56 14.15 8.36L12.5 6.71V12.49C12.5 12.77 12.28 12.99 12 12.99C11.72 12.99 11.5 12.77 11.5 12.49V6.7Z" />
<path d="M17.7 12C17.87 12 18 12.14 18 12.3H18.01V16.41C18.01 16.74 17.74 17.01 17.41 17.01H6.6C6.27 17.01 6 16.74 6 16.41V12.3C6 12.13 6.13 12 6.3 12H6.9C7.07 12 7.2 12.14 7.2 12.3V15.8H16.8V12.3C16.8 12.13 16.93 12 17.1 12H17.7Z" />
</svg>
