<?xml version="1.0" encoding="utf-8"?><svg width="24" height="24" xmlns="http://www.w3.org/2000/svg" viewBox="0 0 24 24"><path d="m18.805 15.85-5.472-9.12c-.43-.7-1.38-.94-2.11-.53-.23.13-.42.31-.551.53L5.2 15.85c-.27.44-.27.98 0 1.42.27.46.78.74 1.33.73h10.934c.55 0 1.06-.27 1.33-.73.271-.44.271-.98 0-1.42h.01Zm-6.803.15c-.41 0-.75-.34-.75-.75s.34-.75.75-.75.75.34.75.75-.34.75-.75.75Zm0-2.5a.56.56 0 0 1-.55-.49l-.32-2.35c-.05-.35.21-.66.55-.66h.64c.34 0 .6.31.55.66l-.32 2.35c-.04.28-.27.5-.55.5v-.01Z"/></svg>