<svg width="69" height="12" viewBox="0 0 69 12" xmlns="http://www.w3.org/2000/svg">
<g>
  <path fill-rule="evenodd" clip-rule="evenodd" d="M3.94141 2.76367C5.18262 2.76367 6.14348 3.0648 6.82227 3.66602C7.51051 4.25751 7.85449 5.08684 7.85449 6.15332V8.50977C7.85442 9.54701 7.51045 10.3518 6.82227 10.9238C6.13387 11.4959 5.16872 11.7822 3.92773 11.7822C2.68665 11.7822 1.72167 11.4958 1.0332 10.9238C0.344746 10.342 2.8003e-05 9.52768 0 8.48047V6.12402C0 5.05736 0.344718 4.23319 1.0332 3.65137C1.73129 3.06004 2.70052 2.76374 3.94141 2.76367ZM3.92773 4.43652C3.32652 4.43652 2.88473 4.57719 2.60352 4.8584C2.3223 5.13961 2.18164 5.57645 2.18164 6.16797V8.36426C2.18168 8.96524 2.32243 9.40633 2.60352 9.6875C2.88473 9.96871 3.32652 10.1094 3.92773 10.1094C4.52871 10.1093 4.96984 9.97359 5.25098 9.70215C5.53216 9.42094 5.67285 8.98902 5.67285 8.40723V6.18262C5.67285 5.5814 5.53219 5.13961 5.25098 4.8584C4.96984 4.57728 4.52869 4.4366 3.92773 4.43652Z"/>
  <path fill-rule="evenodd" clip-rule="evenodd" d="M43.6387 2.76367C44.7731 2.76367 45.6608 2.99159 46.3008 3.44727C46.9505 3.90302 47.2754 4.61129 47.2754 5.57129V9.09082C47.2754 9.53675 47.4063 9.81319 47.668 9.91992C47.9298 10.0266 48.3082 10.0464 48.8027 9.97852V11.6221C48.0949 11.7675 47.4837 11.7487 46.9697 11.5645C46.4655 11.3705 46.1505 10.9337 46.0244 10.2549H45.6611C45.3703 10.6718 44.953 11.0305 44.4102 11.3311C43.8672 11.6316 43.2608 11.7822 42.5918 11.7822C41.7966 11.7822 41.127 11.5692 40.584 11.1426C40.0507 10.7159 39.7842 10.0898 39.7842 9.26562C39.7842 8.47056 40.0556 7.85925 40.5986 7.43262C41.1416 6.99631 41.8352 6.77837 42.6787 6.77832H45.166V5.6582C45.166 5.222 45.0352 4.90183 44.7734 4.69824C44.5117 4.49475 44.119 4.3936 43.5957 4.39355C43.0624 4.39355 42.6642 4.48473 42.4023 4.66895C42.1405 4.84349 41.9424 5.20801 41.8066 5.76074L39.9883 5.39648C40.1822 4.46592 40.5649 3.79691 41.1367 3.38965C41.7088 2.97272 42.5431 2.76371 43.6387 2.76367ZM42.9844 8.05859C42.6256 8.0586 42.3393 8.13587 42.126 8.29102C41.9224 8.44618 41.8203 8.74734 41.8203 9.19336C41.8204 9.54226 41.9175 9.81393 42.1113 10.0078C42.3052 10.192 42.6254 10.2841 43.0713 10.2842C43.4785 10.2842 43.857 10.2208 44.2061 10.0947C44.555 9.95901 44.8752 9.75081 45.166 9.46973V8.05859H42.9844Z"/>
  <path d="M52.5176 8.42188C52.5176 8.9455 52.6236 9.33877 52.8369 9.60059C53.0599 9.86234 53.385 9.9931 53.8115 9.99316C54.1897 9.99316 54.5582 9.87628 54.917 9.64355C55.2854 9.40117 55.6491 9.05728 56.0078 8.61133V2.90918H58.1904V11.6367H56.0078V10.1094H55.5723C55.3395 10.6621 54.975 11.0791 54.4805 11.3604C53.986 11.6414 53.4816 11.7822 52.9678 11.7822C52.2116 11.7821 51.5813 11.5345 51.0771 11.04C50.5827 10.5358 50.3359 9.84722 50.3359 8.97461V2.90918H52.5176V8.42188Z"/>
  <path d="M23.4824 2.76367C24.1223 2.76371 24.7674 2.86573 25.417 3.06934C26.0666 3.27297 26.6581 3.55435 27.1914 3.91309L26.6094 5.29492C26.1148 4.97492 25.6057 4.73223 25.082 4.56738C24.5584 4.39287 24.0442 4.30566 23.54 4.30566C23.1233 4.3057 22.7743 4.38307 22.4932 4.53809C22.2216 4.68354 22.0859 4.93613 22.0859 5.29492C22.0859 5.65353 22.2457 5.9053 22.5654 6.05078C22.8951 6.19624 23.4677 6.31807 24.2822 6.41504C25.407 6.5508 26.2461 6.82719 26.7988 7.24414C27.3513 7.65137 27.6279 8.23312 27.6279 8.98926C27.6279 9.89091 27.2641 10.5795 26.5371 11.0547C25.8196 11.5201 24.8981 11.7529 23.7734 11.7529C23.0171 11.7529 22.2751 11.6509 21.5479 11.4473C20.8304 11.234 20.1903 10.9238 19.6279 10.5166L20.2822 9.07715C20.8056 9.44543 21.3777 9.72602 21.998 9.91992C22.6282 10.1138 23.2297 10.2109 23.8018 10.2109C24.2769 10.2109 24.6702 10.1436 24.9805 10.0078C25.3003 9.8624 25.4599 9.59564 25.46 9.20801C25.46 8.84934 25.3151 8.59169 25.0244 8.43652C24.7335 8.28139 24.2143 8.15556 23.4678 8.05859C22.3138 7.93253 21.4312 7.68984 20.8203 7.33105C20.2191 6.96257 19.9189 6.36125 19.9189 5.52734C19.919 4.65481 20.2529 3.976 20.9219 3.49121C21.6007 3.00636 22.4545 2.76367 23.4824 2.76367Z"/>
  <path d="M12.4561 6.31348H13.0957L15.6123 2.90918H17.9834L14.8848 6.89453L17.9395 11.6367H15.5684L13.0957 7.86914H12.4561V11.6367H10.2744V0H12.4561V6.31348Z"/>
  <path d="M32.1426 4.43652H32.5791C32.8021 3.91306 33.146 3.50569 33.6113 3.21484C34.0768 2.91424 34.6058 2.76367 35.1973 2.76367C36.002 2.76374 36.6371 3.01633 37.1025 3.52051C37.5776 4.02472 37.8154 4.70343 37.8154 5.55664V11.6367H35.6328V6.10938C35.6328 5.60537 35.5217 5.21777 35.2988 4.94629C35.0855 4.67482 34.7704 4.53813 34.3535 4.53809C33.985 4.53809 33.6116 4.65992 33.2334 4.90234C32.8553 5.14471 32.4916 5.48866 32.1426 5.93457V11.6367H29.9609V0H32.1426V4.43652Z"/>
  <path d="M65.832 2.76367C66.6272 2.76367 67.2483 3.01627 67.6943 3.52051C68.1499 4.01503 68.3779 4.69875 68.3779 5.57129V11.6367H66.1953V5.96387C66.1953 5.49859 66.0842 5.14474 65.8613 4.90234C65.6481 4.65998 65.3328 4.53815 64.916 4.53809C64.5476 4.53809 64.1691 4.64512 63.7812 4.8584C63.3935 5.06197 63.0347 5.37228 62.7051 5.78906V11.6367H60.5234V2.90918H62.7051V4.43652H63.1416C63.3646 3.91304 63.7134 3.50569 64.1885 3.21484C64.6733 2.91427 65.2212 2.76367 65.832 2.76367Z"/>
</g>
</svg>
