<?xml version="1.0" encoding="utf-8"?><svg xmlns="http://www.w3.org/2000/svg" xmlns:xlink="http://www.w3.org/1999/xlink"><symbol viewBox="0 0 24 24" id="alarm" xmlns="http://www.w3.org/2000/svg"><path d="M12 5.4a7.2 7.2 0 1 0 7.2 7.2A7.21 7.21 0 0 0 12 5.4m0 13.2a6 6 0 1 1 6-6 6.007 6.007 0 0 1-6 6M7.025 5.225l-2.4 2.4a.6.6 0 1 1-.85-.85l2.4-2.4a.6.6 0 0 1 .85.85m13.2 2.4a.6.6 0 0 1-.85 0l-2.4-2.4a.6.6 0 0 1 .85-.85l2.4 2.4a.6.6 0 0 1 0 .85M16.2 12a.6.6 0 0 1 0 1.2H12a.6.6 0 0 1-.6-.6V8.4a.6.6 0 1 1 1.2 0V12z"/></symbol><symbol viewBox="0 0 24 24" id="app-window" xmlns="http://www.w3.org/2000/svg"><path d="M18.6 5.4H5.4a1.2 1.2 0 0 0-1.2 1.2v10.8a1.2 1.2 0 0 0 1.2 1.2h13.2a1.2 1.2 0 0 0 1.2-1.2V6.6a1.2 1.2 0 0 0-1.2-1.2m0 12H5.4V6.6h13.2zM8.4 8.7a.9.9 0 1 1-1.8 0 .9.9 0 0 1 1.8 0m3 0a.9.9 0 1 1-1.8 0 .9.9 0 0 1 1.8 0"/></symbol><symbol viewBox="0 0 24 24" id="archive" xmlns="http://www.w3.org/2000/svg"><path d="M19.2 6H4.8a1.2 1.2 0 0 0-1.2 1.2V9a1.2 1.2 0 0 0 1.2 1.2v6.6A1.2 1.2 0 0 0 6 18h12a1.2 1.2 0 0 0 1.2-1.2v-6.6A1.2 1.2 0 0 0 20.4 9V7.2A1.2 1.2 0 0 0 19.2 6M18 16.8H6v-6.6h12zM19.2 9H4.8V7.2h14.4zm-9.6 3.6a.6.6 0 0 1 .6-.6h3.6a.6.6 0 1 1 0 1.2h-3.6a.6.6 0 0 1-.6-.6"/></symbol><symbol viewBox="0 0 24 24" id="arrow-clockwise" xmlns="http://www.w3.org/2000/svg"><path d="M20.4 6.6v3.6a.6.6 0 0 1-.6.6h-3.6a.6.6 0 1 1 0-1.2h2.055l-1.994-1.827-.019-.018a6 6 0 1 0-.125 8.609.6.6 0 1 1 .825.872A7.16 7.16 0 0 1 12 19.2h-.099a7.2 7.2 0 1 1 5.18-12.3L19.2 8.835V6.6a.6.6 0 1 1 1.2 0"/></symbol><symbol viewBox="0 0 24 24" id="arrow-counter-clockwise" xmlns="http://www.w3.org/2000/svg"><path d="M19.2 12a7.2 7.2 0 0 1-7.103 7.2H12a7.15 7.15 0 0 1-4.943-1.965.6.6 0 0 1 .825-.872 6 6 0 1 0-.144-8.59L5.744 9.6H7.8a.6.6 0 1 1 0 1.2H4.2a.6.6 0 0 1-.6-.6V6.6a.6.6 0 1 1 1.2 0v2.235L6.919 6.9A7.2 7.2 0 0 1 19.2 12"/></symbol><symbol viewBox="0 0 24 24" id="arrow-down" xmlns="http://www.w3.org/2000/svg"><path d="m17.825 13.625-5.4 5.4a.6.6 0 0 1-.85 0l-5.4-5.4a.6.6 0 1 1 .85-.85l4.375 4.377V5.4a.6.6 0 1 1 1.2 0v11.752l4.376-4.377a.6.6 0 0 1 .849.85"/></symbol><symbol viewBox="0 0 24 24" id="arrow-left" xmlns="http://www.w3.org/2000/svg"><path d="M19.2 12a.6.6 0 0 1-.6.6H6.848l4.377 4.376a.601.601 0 0 1-.85.849l-5.4-5.4a.6.6 0 0 1 0-.85l5.4-5.4a.6.6 0 0 1 .85.85L6.848 11.4H18.6a.6.6 0 0 1 .6.6"/></symbol><symbol viewBox="0 0 24 24" id="arrow-line-down" xmlns="http://www.w3.org/2000/svg"><path d="M6.175 11.225a.6.6 0 0 1 .85-.85l4.375 4.377V4.8a.6.6 0 1 1 1.2 0v9.952l4.376-4.376a.6.6 0 1 1 .849.849l-5.4 5.4a.6.6 0 0 1-.85 0zM18.6 18H5.4a.6.6 0 1 0 0 1.2h13.2a.6.6 0 0 0 0-1.2"/></symbol><symbol viewBox="0 0 24 24" id="arrow-line-left" xmlns="http://www.w3.org/2000/svg"><path d="M19.8 12a.6.6 0 0 1-.6.6H9.248l4.377 4.376a.601.601 0 0 1-.85.849l-5.4-5.4a.6.6 0 0 1 0-.85l5.4-5.4a.6.6 0 1 1 .85.85L9.247 11.4H19.2a.6.6 0 0 1 .6.6M5.4 4.8a.6.6 0 0 0-.6.6v13.2a.6.6 0 1 0 1.2 0V5.4a.6.6 0 0 0-.6-.6"/></symbol><symbol viewBox="0 0 24 24" id="arrow-line-right" xmlns="http://www.w3.org/2000/svg"><path d="M16.625 11.576a.6.6 0 0 1 0 .848l-5.4 5.4a.6.6 0 1 1-.85-.849l4.377-4.375H4.8a.6.6 0 1 1 0-1.2h9.952l-4.376-4.375a.6.6 0 0 1 .849-.85zM18.6 4.8a.6.6 0 0 0-.6.6v13.2a.6.6 0 1 0 1.2 0V5.4a.6.6 0 0 0-.6-.6"/></symbol><symbol viewBox="0 0 24 24" id="arrow-line-up" xmlns="http://www.w3.org/2000/svg"><path d="M17.825 12.776a.601.601 0 0 1-.85.848L12.6 9.249V19.2a.6.6 0 1 1-1.2 0V9.248l-4.376 4.377a.6.6 0 1 1-.849-.85l5.4-5.4a.6.6 0 0 1 .85 0zM18.6 4.8H5.4a.6.6 0 0 0 0 1.2h13.2a.6.6 0 0 0 0-1.2"/></symbol><symbol viewBox="0 0 24 24" id="arrow-right" xmlns="http://www.w3.org/2000/svg"><path d="m19.025 12.425-5.4 5.4a.6.6 0 0 1-.85-.85l4.377-4.375H5.4a.6.6 0 1 1 0-1.2h11.752l-4.377-4.376a.6.6 0 0 1 .85-.849l5.4 5.4a.6.6 0 0 1 0 .85"/></symbol><symbol viewBox="0 0 24 24" id="arrow-square-in" xmlns="http://www.w3.org/2000/svg"><path d="M12 12.6v4.8a.6.6 0 1 1-1.2 0v-3.351l-4.975 4.976a.6.6 0 1 1-.85-.85L9.952 13.2H6.6a.6.6 0 1 1 0-1.2h4.8a.6.6 0 0 1 .6.6m6-7.8H8.4A1.2 1.2 0 0 0 7.2 6v3.6a.6.6 0 1 0 1.2 0V6H18v9.6h-3.6a.6.6 0 0 0 0 1.2H18a1.2 1.2 0 0 0 1.2-1.2V6A1.2 1.2 0 0 0 18 4.8"/></symbol><symbol viewBox="0 0 24 24" id="arrow-square-out" xmlns="http://www.w3.org/2000/svg"><path d="M19.2 10.2a.6.6 0 1 1-1.2 0V6.85l-4.975 4.975a.6.6 0 1 1-.849-.85L17.151 6H13.8a.6.6 0 0 1 0-1.2h4.8a.6.6 0 0 1 .6.6zm-3 1.8a.6.6 0 0 0-.6.6V18H6V8.4h5.4a.6.6 0 0 0 0-1.2H6a1.2 1.2 0 0 0-1.2 1.2V18A1.2 1.2 0 0 0 6 19.2h9.6a1.2 1.2 0 0 0 1.2-1.2v-5.4a.6.6 0 0 0-.6-.6"/></symbol><symbol viewBox="0 0 24 24" id="arrow-up" xmlns="http://www.w3.org/2000/svg"><path d="M17.825 11.225a.6.6 0 0 1-.85 0L12.6 6.848V18.6a.6.6 0 1 1-1.2 0V6.848l-4.375 4.377a.6.6 0 1 1-.85-.85l5.4-5.4a.6.6 0 0 1 .85 0l5.4 5.4a.6.6 0 0 1 0 .85"/></symbol><symbol viewBox="0 0 24 24" id="arrows-clockwise" xmlns="http://www.w3.org/2000/svg"><path d="M19.2 6v3.6a.6.6 0 0 1-.6.6H15A.6.6 0 0 1 15 9h2.152l-1.098-1.097a5.97 5.97 0 0 0-4.21-1.758h-.033a5.96 5.96 0 0 0-4.192 1.708.6.6 0 0 1-.838-.858 7.2 7.2 0 0 1 10.125.06L18 8.151V6a.6.6 0 1 1 1.2 0m-2.82 10.147a6 6 0 0 1-8.435-.05L6.848 15H9a.6.6 0 0 0 0-1.2H5.4a.6.6 0 0 0-.6.6V18A.6.6 0 0 0 6 18v-2.152l1.097 1.097a7.16 7.16 0 0 0 5.053 2.11h.04a7.15 7.15 0 0 0 5.03-2.05.6.6 0 0 0-.838-.858z"/></symbol><symbol viewBox="0 0 24 24" id="arrows-down-up" xmlns="http://www.w3.org/2000/svg"><path d="M11.225 15.176a.6.6 0 0 1 0 .848l-2.4 2.4a.6.6 0 0 1-.85 0l-2.4-2.4a.6.6 0 1 1 .85-.849L7.8 16.553V6A.6.6 0 0 1 9 6v10.552l1.376-1.376a.6.6 0 0 1 .849 0m7.2-7.2-2.4-2.4a.6.6 0 0 0-.85 0l-2.4 2.4a.6.6 0 0 0 .85.849L15 7.448V18a.6.6 0 1 0 1.2 0V7.448l1.376 1.377a.6.6 0 0 0 .848-.85"/></symbol><symbol viewBox="0 0 24 24" id="arrows-left-right" xmlns="http://www.w3.org/2000/svg"><path d="m18.425 16.025-2.4 2.4a.6.6 0 0 1-.85-.85l1.377-1.375H6A.6.6 0 1 1 6 15h10.552l-1.376-1.376a.6.6 0 0 1 .848-.849l2.4 2.4a.6.6 0 0 1 0 .85m-10.45-4.8a.6.6 0 0 0 .85-.85L7.448 9H18a.6.6 0 1 0 0-1.2H7.448l1.377-1.376a.6.6 0 0 0-.85-.849l-2.4 2.4a.6.6 0 0 0 0 .85z"/></symbol><symbol viewBox="0 0 24 24" id="at" xmlns="http://www.w3.org/2000/svg"><path d="M12 4.2a7.8 7.8 0 1 0 0 15.6c1.613 0 3.307-.486 4.532-1.3a.601.601 0 0 0-.448-1.089.6.6 0 0 0-.216.09C14.85 18.178 13.366 18.6 12 18.6a6.6 6.6 0 1 1 6.6-6.6c0 1.984-.816 2.4-1.5 2.4s-1.5-.416-1.5-2.4V9a.6.6 0 1 0-1.2 0v.32a3.6 3.6 0 1 0 .445 4.882c.45.9 1.226 1.398 2.255 1.398 1.69 0 2.7-1.345 2.7-3.6A7.81 7.81 0 0 0 12 4.2m0 10.2a2.4 2.4 0 1 1 0-4.8 2.4 2.4 0 0 1 0 4.8"/></symbol><symbol viewBox="0 0 24 24" id="barcode" xmlns="http://www.w3.org/2000/svg"><path d="M19.8 6v3a.6.6 0 0 1-1.2 0V6.6h-2.4a.6.6 0 1 1 0-1.2h3a.6.6 0 0 1 .6.6m-12 11.4H5.4V15a.6.6 0 0 0-1.2 0v3a.6.6 0 0 0 .6.6h3a.6.6 0 1 0 0-1.2m11.4-3a.6.6 0 0 0-.6.6v2.4h-2.4a.6.6 0 1 0 0 1.2h3a.6.6 0 0 0 .6-.6v-3a.6.6 0 0 0-.6-.6M4.8 9.6a.6.6 0 0 0 .6-.6V6.6h2.4a.6.6 0 0 0 0-1.2h-3a.6.6 0 0 0-.6.6v3a.6.6 0 0 0 .6.6m3.6-1.2a.6.6 0 0 0-.6.6v6A.6.6 0 1 0 9 15V9a.6.6 0 0 0-.6-.6m7.8 6.6V9A.6.6 0 0 0 15 9v6a.6.6 0 1 0 1.2 0m-3-6.6a.6.6 0 0 0-.6.6v6a.6.6 0 1 0 1.2 0V9a.6.6 0 0 0-.6-.6m-2.4 0a.6.6 0 0 0-.6.6v6a.6.6 0 1 0 1.2 0V9a.6.6 0 0 0-.6-.6"/></symbol><symbol viewBox="0 0 24 24" id="basket" xmlns="http://www.w3.org/2000/svg"><path d="M12.6 11.4v4.2a.6.6 0 1 1-1.2 0v-4.2a.6.6 0 1 1 1.2 0m2.763-.06-.42 4.2a.599.599 0 1 0 1.194.12l.42-4.2a.6.6 0 0 0-1.194-.12m-6.726 0a.6.6 0 0 0-1.194.12l.42 4.2a.6.6 0 0 0 .6.54h.06a.6.6 0 0 0 .538-.657zm11.758-2.26-1.13 8.479a1.204 1.204 0 0 1-1.19 1.04H5.925a1.204 1.204 0 0 1-1.19-1.04l-1.13-8.48A.6.6 0 0 1 4.2 8.4h3.328l4.022-4.594a.6.6 0 0 1 .9 0L16.472 8.4H19.8a.6.6 0 0 1 .595.68M9.122 8.4h5.756L12 5.111zm9.993 1.2H4.884l1.04 7.8h12.15z"/></symbol><symbol viewBox="0 0 24 24" id="bell-ringing" xmlns="http://www.w3.org/2000/svg"><path d="M19.2 7.732a.6.6 0 0 1-.808-.256 7.06 7.06 0 0 0-2.51-2.768.6.6 0 1 1 .64-1.016 8.36 8.36 0 0 1 2.935 3.232.6.6 0 0 1-.257.808M5.078 7.8a.6.6 0 0 0 .533-.324 7.06 7.06 0 0 1 2.51-2.768.6.6 0 1 0-.641-1.016 8.36 8.36 0 0 0-2.934 3.232.6.6 0 0 0 .532.876m13.958 7.796A1.2 1.2 0 0 1 18 17.4h-3.06a3 3 0 0 1-5.88 0H6a1.2 1.2 0 0 1-1.034-1.804C5.642 14.429 6 12.77 6 10.8a6 6 0 0 1 12 0c0 1.97.358 3.628 1.036 4.795m-5.34 1.804h-3.392a1.8 1.8 0 0 0 3.393 0M18 16.2c-.798-1.37-1.2-3.187-1.2-5.4a4.8 4.8 0 1 0-9.6 0c0 2.214-.403 4.03-1.2 5.4z"/></symbol><symbol viewBox="0 0 24 24" id="bell-slash" xmlns="http://www.w3.org/2000/svg"><path d="M6.444 4.997a.6.6 0 1 0-.888.807l1.255 1.381A5.97 5.97 0 0 0 6 10.2c0 2.65-.62 4.679-1.036 5.396A1.2 1.2 0 0 0 6 17.4h3.06a3 3 0 0 0 5.88 0h1.158l1.458 1.604a.6.6 0 1 0 .888-.808zM12 18.6a1.8 1.8 0 0 1-1.697-1.2h3.393A1.8 1.8 0 0 1 12 18.6m-6-2.4c.577-.993 1.2-3.294 1.2-6a4.8 4.8 0 0 1 .47-2.071l7.337 8.071zm12.45-.355a.6.6 0 0 1-.778-.34c-.546-1.39-.872-3.374-.872-5.305a4.8 4.8 0 0 0-7.168-4.177.6.6 0 0 1-.592-1.043A6 6 0 0 1 18 10.2c0 2.651.604 4.394.789 4.866a.6.6 0 0 1-.339.778z"/></symbol><symbol viewBox="0 0 24 24" id="bookmark" xmlns="http://www.w3.org/2000/svg"><path d="M16.2 4.8H7.8A1.2 1.2 0 0 0 6.6 6v13.2a.6.6 0 0 0 .918.509L12 16.907l4.483 2.802a.6.6 0 0 0 .917-.509V6a1.2 1.2 0 0 0-1.2-1.2m0 13.318-3.883-2.426a.6.6 0 0 0-.636 0L7.8 18.118V6h8.4z"/></symbol><symbol viewBox="0 0 24 24" id="bookmark-filled" xmlns="http://www.w3.org/2000/svg"><path d="M16.2 4.8H7.8A1.2 1.2 0 0 0 6.6 6v13.2a.6.6 0 0 0 .918.509L12 16.907l4.483 2.802a.6.6 0 0 0 .917-.509V6a1.2 1.2 0 0 0-1.2-1.2"/></symbol><symbol viewBox="0 0 24 24" id="bookmarks" xmlns="http://www.w3.org/2000/svg"><path d="M14.4 6.6H7.2A1.2 1.2 0 0 0 6 7.8v11.4a.6.6 0 0 0 .949.488l3.851-2.75 3.852 2.75a.6.6 0 0 0 .948-.488V7.8a1.2 1.2 0 0 0-1.2-1.2m0 11.435-3.252-2.325a.6.6 0 0 0-.697 0L7.2 18.034V7.8h7.2zM18 5.4v11.4a.6.6 0 1 1-1.2 0V5.4H9a.6.6 0 1 1 0-1.2h7.8A1.2 1.2 0 0 1 18 5.4"/></symbol><symbol viewBox="0 0 24 24" id="calendar-dots" xmlns="http://www.w3.org/2000/svg"><path d="M18 4.8h-1.8v-.6a.6.6 0 1 0-1.2 0v.6H9v-.6a.6.6 0 0 0-1.2 0v.6H6A1.2 1.2 0 0 0 4.8 6v12A1.2 1.2 0 0 0 6 19.2h12a1.2 1.2 0 0 0 1.2-1.2V6A1.2 1.2 0 0 0 18 4.8M7.8 6v.6a.6.6 0 1 0 1.2 0V6h6v.6a.6.6 0 1 0 1.2 0V6H18v2.4H6V6zM18 18H6V9.6h12zm-5.1-5.7a.9.9 0 1 1-1.8 0 .9.9 0 0 1 1.8 0m3.3 0a.9.9 0 1 1-1.8 0 .9.9 0 0 1 1.8 0m-6.6 3a.9.9 0 1 1-1.8 0 .9.9 0 0 1 1.8 0m3.3 0a.9.9 0 1 1-1.8 0 .9.9 0 0 1 1.8 0m3.3 0a.9.9 0 1 1-1.8 0 .9.9 0 0 1 1.8 0"/></symbol><symbol viewBox="0 0 24 24" id="caret-down" xmlns="http://www.w3.org/2000/svg"><path fill-rule="evenodd" d="M5.576 9.176a.6.6 0 0 1 .848 0L12 14.752l5.576-5.576a.6.6 0 1 1 .848.848l-6 6a.6.6 0 0 1-.848 0l-6-6a.6.6 0 0 1 0-.848" clip-rule="evenodd"/></symbol><symbol viewBox="0 0 24 24" id="caret-left" xmlns="http://www.w3.org/2000/svg"><path fill-rule="evenodd" d="M14.824 5.576a.6.6 0 0 1 0 .848L9.25 12l5.575 5.576a.6.6 0 1 1-.848.848l-6-6a.6.6 0 0 1 0-.848l6-6a.6.6 0 0 1 .848 0" clip-rule="evenodd"/></symbol><symbol viewBox="0 0 24 24" id="caret-right" xmlns="http://www.w3.org/2000/svg"><path fill-rule="evenodd" d="M9.176 5.576a.6.6 0 0 1 .848 0l6 6a.6.6 0 0 1 0 .848l-6 6a.6.6 0 0 1-.848-.848L14.752 12 9.176 6.424a.6.6 0 0 1 0-.848" clip-rule="evenodd"/></symbol><symbol viewBox="0 0 24 24" id="caret-up" xmlns="http://www.w3.org/2000/svg"><path d="M18.425 14.825a.6.6 0 0 1-.85 0L12 9.248l-5.576 5.577a.6.6 0 1 1-.849-.85l6-6a.6.6 0 0 1 .85 0l6 6a.6.6 0 0 1 0 .85"/></symbol><symbol viewBox="0 0 24 24" id="check" xmlns="http://www.w3.org/2000/svg"><path d="m19.625 8.224-9.6 9.6a.6.6 0 0 1-.85 0l-4.2-4.2a.6.6 0 0 1 .85-.849L9.6 16.553l9.176-9.177a.6.6 0 0 1 .849.85"/></symbol><symbol viewBox="0 0 24 24" id="check-thick" xmlns="http://www.w3.org/2000/svg"><path d="m9.8 14.037-3.068-3.069a1.6 1.6 0 0 0-2.264 2.264l4.2 4.2a1.6 1.6 0 0 0 2.264 0l8.6-8.6a1.6 1.6 0 1 0-2.264-2.264z"/></symbol><symbol viewBox="0 0 24 24" id="circles-four" xmlns="http://www.w3.org/2000/svg"><path d="M8.4 5.4a3 3 0 1 0 0 6 3 3 0 0 0 0-6m0 4.8a1.8 1.8 0 1 1 0-3.6 1.8 1.8 0 0 1 0 3.6m7.2 1.2a3 3 0 1 0 0-5.999 3 3 0 0 0 0 5.999m0-4.8a1.8 1.8 0 1 1 0 3.6 1.8 1.8 0 0 1 0-3.6m-7.2 6a3 3 0 1 0 0 6 3 3 0 0 0 0-6m0 4.8a1.8 1.8 0 1 1 0-3.6 1.8 1.8 0 0 1 0 3.6m7.2-4.8a3 3 0 1 0 0 6.001 3 3 0 0 0 0-6.001m0 4.8a1.8 1.8 0 1 1 0-3.6 1.8 1.8 0 0 1 0 3.6"/></symbol><symbol viewBox="0 0 24 24" id="circles-three-plus" xmlns="http://www.w3.org/2000/svg"><path d="M8.4 5.4a3 3 0 1 0 0 6 3 3 0 0 0 0-6m0 4.8a1.8 1.8 0 1 1 0-3.6 1.8 1.8 0 0 1 0 3.6m7.2 1.2a3 3 0 1 0 0-5.999 3 3 0 0 0 0 5.999m0-4.8a1.8 1.8 0 1 1 0 3.6 1.8 1.8 0 0 1 0-3.6m-7.2 6a3 3 0 1 0 0 6 3 3 0 0 0 0-6m0 4.8a1.8 1.8 0 1 1 0-3.6 1.8 1.8 0 0 1 0 3.6m10.2-1.8a.6.6 0 0 1-.6.6h-1.8V18a.6.6 0 1 1-1.2 0v-1.8h-1.8a.6.6 0 1 1 0-1.2H15v-1.8a.6.6 0 1 1 1.2 0V15H18a.6.6 0 0 1 .6.6"/></symbol><symbol viewBox="0 0 24 24" id="clipboard" xmlns="http://www.w3.org/2000/svg"><path d="M15 13.8a.6.6 0 0 1-.6.6H9.6a.6.6 0 1 1 0-1.2h4.8a.6.6 0 0 1 .6.6m-.6-3H9.6a.6.6 0 1 0 0 1.2h4.8a.6.6 0 1 0 0-1.2M18.6 6v12.6a1.2 1.2 0 0 1-1.2 1.2H6.6a1.2 1.2 0 0 1-1.2-1.2V6a1.2 1.2 0 0 1 1.2-1.2h2.72a3.594 3.594 0 0 1 5.36 0h2.72A1.2 1.2 0 0 1 18.6 6m-9 1.2h4.8a2.4 2.4 0 1 0-4.8 0M17.4 6h-2.006c.136.385.206.791.206 1.2v.6a.6.6 0 0 1-.6.6H9a.6.6 0 0 1-.6-.6v-.6c0-.409.07-.815.206-1.2H6.6v12.6h10.8z"/></symbol><symbol viewBox="0 0 24 24" id="clock-counter-clockwise" xmlns="http://www.w3.org/2000/svg"><path d="M12.6 8.4v3.26l2.709 1.625a.6.6 0 1 1-.618 1.03l-3-1.8A.6.6 0 0 1 11.4 12V8.4a.6.6 0 1 1 1.2 0M12 4.8a7.16 7.16 0 0 0-5.094 2.11A31 31 0 0 0 5.4 8.55V7.2a.6.6 0 1 0-1.2 0v3a.6.6 0 0 0 .6.6h3a.6.6 0 1 0 0-1.2H6.075a32 32 0 0 1 1.68-1.843 6 6 0 1 1 .124 8.606.601.601 0 0 0-.825.873A7.2 7.2 0 1 0 12 4.8"/></symbol><symbol viewBox="0 0 24 24" id="copy" xmlns="http://www.w3.org/2000/svg"><path d="M18.6 4.8H9a.6.6 0 0 0-.6.6v3h-3a.6.6 0 0 0-.6.6v9.6a.6.6 0 0 0 .6.6H15a.6.6 0 0 0 .6-.6v-3h3a.6.6 0 0 0 .6-.6V5.4a.6.6 0 0 0-.6-.6M14.4 18H6V9.6h8.4zm3.6-3.6h-2.4V9a.6.6 0 0 0-.6-.6H9.6V6H18z"/></symbol><symbol viewBox="0 0 24 24" id="devices" xmlns="http://www.w3.org/2000/svg"><path d="M19.2 7.8H18v-.6a1.8 1.8 0 0 0-1.8-1.8H5.4a1.8 1.8 0 0 0-1.8 1.8v7.2a1.8 1.8 0 0 0 1.8 1.8h8.4v.6a1.8 1.8 0 0 0 1.8 1.8h3.6a1.8 1.8 0 0 0 1.8-1.8V9.6a1.8 1.8 0 0 0-1.8-1.8M5.4 15a.6.6 0 0 1-.6-.6V7.2a.6.6 0 0 1 .6-.6h10.8a.6.6 0 0 1 .6.6v.6h-1.2a1.8 1.8 0 0 0-1.8 1.8V15zm14.4 1.8a.6.6 0 0 1-.6.6h-3.6a.6.6 0 0 1-.6-.6V9.6a.6.6 0 0 1 .6-.6h3.6a.6.6 0 0 1 .6.6zM12.6 18a.6.6 0 0 1-.6.6H9a.6.6 0 1 1 0-1.2h3a.6.6 0 0 1 .6.6m6-7.2a.6.6 0 0 1-.6.6h-1.2a.6.6 0 1 1 0-1.2H18a.6.6 0 0 1 .6.6"/></symbol><symbol viewBox="0 0 24 24" id="diamonds-four" xmlns="http://www.w3.org/2000/svg"><path d="M11.576 10.625a.6.6 0 0 0 .848 0l3-3a.6.6 0 0 0 0-.85l-3-3a.6.6 0 0 0-.848 0l-3 3a.6.6 0 0 0 0 .85zM12 5.047 14.152 7.2 12 9.352 9.848 7.2zm.425 8.325a.6.6 0 0 0-.85 0l-3 3a.6.6 0 0 0 0 .85l3 3a.6.6 0 0 0 .85 0l3-3a.6.6 0 0 0 0-.85zM12 18.952 9.848 16.8 12 14.648l2.152 2.152zm8.224-7.377-3-3a.6.6 0 0 0-.849 0l-3 3a.6.6 0 0 0 0 .85l3 3a.6.6 0 0 0 .85 0l3-3a.6.6 0 0 0 0-.85M16.8 14.153 14.648 12 16.8 9.848 18.952 12zm-6.176-2.576-3-3a.6.6 0 0 0-.849 0l-3 3a.6.6 0 0 0 0 .848l3 3a.6.6 0 0 0 .85 0l3-3a.6.6 0 0 0 0-.848M7.2 14.152 5.048 12 7.2 9.848 9.352 12z"/></symbol><symbol viewBox="0 0 24 24" id="dots-three" xmlns="http://www.w3.org/2000/svg"><path d="M12.9 12a.9.9 0 1 1-1.8 0 .9.9 0 0 1 1.8 0m4.2-.9a.9.9 0 1 0 0 1.8.9.9 0 0 0 0-1.8m-10.2 0a.9.9 0 1 0 0 1.8.9.9 0 0 0 0-1.8"/></symbol><symbol viewBox="0 0 24 24" id="download" xmlns="http://www.w3.org/2000/svg"><path d="M20.4 12.6v4.8a1.2 1.2 0 0 1-1.2 1.2H4.8a1.2 1.2 0 0 1-1.2-1.2v-4.8a1.2 1.2 0 0 1 1.2-1.2h3a.6.6 0 1 1 0 1.2h-3v4.8h14.4v-4.8h-3a.6.6 0 1 1 0-1.2h3a1.2 1.2 0 0 1 1.2 1.2m-8.824-.175a.6.6 0 0 0 .848 0l3.6-3.6a.6.6 0 0 0-.849-.85L12.6 10.552V4.2a.6.6 0 1 0-1.2 0v6.352L8.824 7.975a.6.6 0 1 0-.849.85zM17.4 15a.9.9 0 1 0-1.8 0 .9.9 0 0 0 1.8 0"/></symbol><symbol viewBox="0 0 24 24" id="envelope" xmlns="http://www.w3.org/2000/svg"><path d="M19.2 6H4.8a.6.6 0 0 0-.6.6v10.2A1.2 1.2 0 0 0 5.4 18h13.2a1.2 1.2 0 0 0 1.2-1.2V6.6a.6.6 0 0 0-.6-.6M12 12.386 6.343 7.2h11.314zM9.803 12 5.4 16.036V7.964zm.888.814.9.829a.6.6 0 0 0 .812 0l.9-.83 4.35 3.987H6.343zM14.197 12 18.6 7.964v8.073z"/></symbol><symbol viewBox="0 0 24 24" id="export" xmlns="http://www.w3.org/2000/svg"><path d="M18.6 10.8V18a1.2 1.2 0 0 1-1.2 1.2H6.6A1.2 1.2 0 0 1 5.4 18v-7.2a1.2 1.2 0 0 1 1.2-1.2h1.8a.6.6 0 1 1 0 1.2H6.6V18h10.8v-7.2h-1.8a.6.6 0 0 1 0-1.2h1.8a1.2 1.2 0 0 1 1.2 1.2M9.425 7.624 11.4 5.648V12.6a.6.6 0 1 0 1.2 0V5.648l1.976 1.976a.6.6 0 0 0 .848-.849l-3-3a.6.6 0 0 0-.848 0l-3 3a.6.6 0 0 0 .849.85"/></symbol><symbol viewBox="0 0 24 24" id="eye" xmlns="http://www.w3.org/2000/svg"><path d="M20.948 11.757c-.026-.06-.661-1.468-2.073-2.88C16.993 6.993 14.616 6 12 6s-4.993.995-6.875 2.876c-1.412 1.413-2.05 2.824-2.073 2.881a.6.6 0 0 0 0 .488c.026.059.661 1.467 2.073 2.88C7.007 17.005 9.384 18 12 18s4.993-.994 6.875-2.876c1.412-1.412 2.047-2.82 2.073-2.88a.6.6 0 0 0 0-.487M12 16.8c-2.309 0-4.325-.84-5.995-2.494A10 10 0 0 1 4.275 12a10 10 0 0 1 1.73-2.306C7.675 8.039 9.691 7.2 12 7.2s4.325.84 5.995 2.494A9.998 9.998 0 0 1 19.729 12c-.541 1.01-2.897 4.8-7.729 4.8m0-8.4a3.6 3.6 0 1 0 0 7.2 3.6 3.6 0 0 0 0-7.2m0 6a2.4 2.4 0 1 1 0-4.8 2.4 2.4 0 0 1 0 4.8"/></symbol><symbol viewBox="0 0 24 24" id="eye-slash" xmlns="http://www.w3.org/2000/svg"><path d="M6.444 4.997a.6.6 0 1 0-.888.806l1.443 1.588c-2.724 1.672-3.896 4.249-3.947 4.366a.6.6 0 0 0 0 .488c.026.059.661 1.467 2.073 2.88C7.007 17.005 9.384 18 12 18a9.5 9.5 0 0 0 3.905-.812l1.65 1.816a.6.6 0 1 0 .888-.808zm3.55 5.688 3.125 3.438a2.4 2.4 0 0 1-3.125-3.438M12 16.8c-2.309 0-4.325-.84-5.995-2.494A10 10 0 0 1 4.275 12c.352-.66 1.474-2.504 3.551-3.703l1.35 1.48a3.6 3.6 0 0 0 4.775 5.25l1.104 1.216A8.4 8.4 0 0 1 12 16.8m.45-7.157a.6.6 0 1 1 .225-1.18 3.61 3.61 0 0 1 2.908 3.199.6.6 0 0 1-1.004.497.6.6 0 0 1-.194-.389 2.41 2.41 0 0 0-1.935-2.127m8.496 2.601c-.032.071-.791 1.753-2.502 3.286a.6.6 0 1 1-.8-.894A10 10 0 0 0 19.729 12a10 10 0 0 0-1.734-2.308C16.325 8.04 14.308 7.2 12 7.2q-.73 0-1.452.118a.6.6 0 1 1-.198-1.184A10 10 0 0 1 12 6c2.616 0 4.993.995 6.875 2.876 1.412 1.413 2.047 2.822 2.073 2.881a.6.6 0 0 1 0 .488z"/></symbol><symbol viewBox="0 0 24 24" id="file" xmlns="http://www.w3.org/2000/svg"><path d="m18.425 8.575-4.2-4.2A.6.6 0 0 0 13.8 4.2H6.6a1.2 1.2 0 0 0-1.2 1.2v13.2a1.2 1.2 0 0 0 1.2 1.2h10.8a1.2 1.2 0 0 0 1.2-1.2V9a.6.6 0 0 0-.176-.425M14.4 6.248 16.552 8.4H14.4zm3 12.352H6.6V5.4h6.6V9a.6.6 0 0 0 .6.6h3.6zm-2.4-6a.6.6 0 0 1-.6.6H9.6a.6.6 0 0 1 0-1.2h4.8a.6.6 0 0 1 .6.6m0 2.4a.6.6 0 0 1-.6.6H9.6a.6.6 0 0 1 0-1.2h4.8a.6.6 0 0 1 .6.6"/></symbol><symbol viewBox="0 0 24 24" id="files" xmlns="http://www.w3.org/2000/svg"><path d="m18.425 7.375-3-3A.6.6 0 0 0 15 4.2H9a1.2 1.2 0 0 0-1.2 1.2v1.2H6.6a1.2 1.2 0 0 0-1.2 1.2v10.8a1.2 1.2 0 0 0 1.2 1.2H15a1.2 1.2 0 0 0 1.2-1.2v-1.2h1.2a1.2 1.2 0 0 0 1.2-1.2V7.8a.6.6 0 0 0-.176-.425M15 18.6H6.6V7.8h5.752L15 10.448V18.6m2.4-2.4h-1.2v-6a.6.6 0 0 0-.175-.425l-3-3A.6.6 0 0 0 12.6 6.6H9V5.4h5.752L17.4 8.048zm-4.2-2.4a.6.6 0 0 1-.6.6H9a.6.6 0 0 1 0-1.2h3.6a.6.6 0 0 1 .6.6m0 2.4a.6.6 0 0 1-.6.6H9a.6.6 0 0 1 0-1.2h3.6a.6.6 0 0 1 .6.6"/></symbol><symbol viewBox="0 0 24 24" id="flag" xmlns="http://www.w3.org/2000/svg"><path d="M5.607 6.15a.6.6 0 0 0-.207.45v12.6a.6.6 0 0 0 1.2 0v-3.317c2.01-1.587 3.74-.731 5.734.256 1.23.608 2.554 1.263 3.975 1.263 1.044 0 2.14-.356 3.286-1.35a.6.6 0 0 0 .207-.45V6.6a.6.6 0 0 0-.995-.45c-2.1 1.817-3.879.937-5.94-.084-2.137-1.059-4.558-2.257-7.26.084M18.6 15.319c-2.01 1.587-3.74.73-5.734-.256-1.875-.926-3.96-1.96-6.266-.63V6.884c2.01-1.587 3.74-.731 5.734.255 1.875.926 3.961 1.96 6.266.63z"/></symbol><symbol viewBox="0 0 24 24" id="funnel" xmlns="http://www.w3.org/2000/svg"><path d="M17.4 12.6a.6.6 0 0 1-.6.6H7.2a.6.6 0 1 1 0-1.2h9.6a.6.6 0 0 1 .6.6m2.4-4.2H4.2a.6.6 0 0 0 0 1.2h15.6a.6.6 0 0 0 0-1.2m-6 7.2h-3.6a.6.6 0 1 0 0 1.2h3.6a.6.6 0 1 0 0-1.2"/></symbol><symbol viewBox="0 0 24 24" id="funnel-x" xmlns="http://www.w3.org/2000/svg"><path d="M16.8 13.2H7.2a.6.6 0 1 1 0-1.2h9.6a.6.6 0 1 1 0 1.2m3-4.8H4.2a.6.6 0 0 0 0 1.2h15.6a.6.6 0 0 0 0-1.2M12 15.6h-1.8a.6.6 0 1 0 0 1.2H12a.6.6 0 1 0 0-1.2m7.025-.425a.6.6 0 0 0-.85 0L16.8 16.553l-1.376-1.376a.6.6 0 0 0-.848.848l1.376 1.376-1.376 1.376a.6.6 0 1 0 .848.849l1.376-1.377 1.375 1.377a.6.6 0 1 0 .85-.85L17.648 17.4l1.377-1.375a.6.6 0 0 0 0-.85"/></symbol><symbol viewBox="0 0 24 24" id="garage" xmlns="http://www.w3.org/2000/svg"><path d="M20.4 16.8h-.6v-7a1.2 1.2 0 0 0-.534-.998l-6.6-4.4a1.2 1.2 0 0 0-1.331 0l-6.6 4.4A1.2 1.2 0 0 0 4.2 9.8v7h-.6a.6.6 0 1 0 0 1.2h16.8a.6.6 0 0 0 0-1.2m-15-7L12 5.4l6.6 4.4v7h-1.8v-4.2a.6.6 0 0 0-.6-.6H7.8a.6.6 0 0 0-.6.6v4.2H5.4zm10.2 3.4v1.2h-3v-1.2zm-4.2 1.2h-3v-1.2h3zm-3 1.2h3v1.2h-3zm4.2 0h3v1.2h-3z"/></symbol><symbol viewBox="0 0 24 24" id="grid-four" xmlns="http://www.w3.org/2000/svg"><path d="M17.4 5.4H6.6a1.2 1.2 0 0 0-1.2 1.2v10.8a1.2 1.2 0 0 0 1.2 1.2h10.8a1.2 1.2 0 0 0 1.2-1.2V6.6a1.2 1.2 0 0 0-1.2-1.2m0 6h-4.8V6.6h4.8zm-6-4.8v4.8H6.6V6.6zm-4.8 6h4.8v4.8H6.6zm10.8 4.8h-4.8v-4.8h4.8z"/></symbol><symbol viewBox="0 0 24 24" id="grid-nine" xmlns="http://www.w3.org/2000/svg"><path d="M18.6 6H5.4a1.2 1.2 0 0 0-1.2 1.2v9.6A1.2 1.2 0 0 0 5.4 18h13.2a1.2 1.2 0 0 0 1.2-1.2V7.2A1.2 1.2 0 0 0 18.6 6m-8.4 7.2v-2.4h3.6v2.4zm3.6 1.2v2.4h-3.6v-2.4zm-8.4-3.6H9v2.4H5.4zm4.8-1.2V7.2h3.6v2.4zm4.8 1.2h3.6v2.4H15zm3.6-1.2H15V7.2h3.6zM9 7.2v2.4H5.4V7.2zm-3.6 7.2H9v2.4H5.4zm13.2 2.4H15v-2.4h3.6z"/></symbol><symbol viewBox="0 0 24 24" id="hash" xmlns="http://www.w3.org/2000/svg"><path d="M19.2 9h-3.645l.635-3.493a.6.6 0 0 0-1.18-.214L14.335 9h-3.58l.635-3.493a.6.6 0 0 0-1.18-.214L9.535 9H6a.6.6 0 0 0 0 1.2h3.317l-.655 3.6H4.8a.6.6 0 1 0 0 1.2h3.645l-.635 3.493a.6.6 0 0 0 1.18.214L9.663 15h3.581l-.635 3.493a.6.6 0 0 0 1.18.214L14.465 15H18a.6.6 0 1 0 0-1.2h-3.317l.655-3.6H19.2a.6.6 0 1 0 0-1.2m-5.737 4.8h-3.58l.655-3.6h3.58z"/></symbol><symbol viewBox="0 0 24 24" id="house-line" xmlns="http://www.w3.org/2000/svg"><path d="M20.4 18h-1.2v-5.4l.175.175a.6.6 0 1 0 .85-.85l-7.377-7.374a1.2 1.2 0 0 0-1.696 0l-7.376 7.374a.6.6 0 0 0 .849.848L4.8 12.6V18H3.6a.6.6 0 1 0 0 1.2h16.8a.6.6 0 0 0 0-1.2M6 11.4l6-6 6 6V18h-3.6v-4.2a.6.6 0 0 0-.6-.6h-3.6a.6.6 0 0 0-.6.6V18H6zm7.2 6.6h-2.4v-3.6h2.4z"/></symbol><symbol viewBox="0 0 24 24" id="identification-badge" xmlns="http://www.w3.org/2000/svg"><path d="M8.04 17.28a.603.603 0 0 0 .84-.12 3.9 3.9 0 0 1 6.24 0 .6.6 0 0 0 .96-.72 5.1 5.1 0 0 0-2.055-1.627 3 3 0 1 0-4.045 0 5.1 5.1 0 0 0-2.06 1.627.6.6 0 0 0 .12.84M12 10.8a1.8 1.8 0 1 1 0 3.6 1.8 1.8 0 0 1 0-3.6m5.4-6.6H6.6a1.2 1.2 0 0 0-1.2 1.2v13.2a1.2 1.2 0 0 0 1.2 1.2h10.8a1.2 1.2 0 0 0 1.2-1.2V5.4a1.2 1.2 0 0 0-1.2-1.2m0 14.4H6.6V5.4h10.8zM9 7.2a.6.6 0 0 1 .6-.6h4.8a.6.6 0 1 1 0 1.2H9.6a.6.6 0 0 1-.6-.6"/></symbol><symbol viewBox="0 0 24 24" id="identification-card" xmlns="http://www.w3.org/2000/svg"><path d="M17.4 10.8a.6.6 0 0 1-.6.6h-3a.6.6 0 1 1 0-1.2h3a.6.6 0 0 1 .6.6m-.6 1.8h-3a.6.6 0 1 0 0 1.2h3a.6.6 0 1 0 0-1.2m3-6v10.8a1.2 1.2 0 0 1-1.2 1.2H5.4a1.2 1.2 0 0 1-1.2-1.2V6.6a1.2 1.2 0 0 1 1.2-1.2h13.2a1.2 1.2 0 0 1 1.2 1.2m-1.2 10.8V6.6H5.4v10.8zm-6.02-2.55a.601.601 0 0 1-1.162.3c-.197-.77-.98-1.35-1.819-1.35-.84 0-1.62.58-1.819 1.35a.6.6 0 1 1-1.162-.3 3 3 0 0 1 1.29-1.75 2.4 2.4 0 1 1 3.383 0 2.98 2.98 0 0 1 1.29 1.75M9.6 12.6a1.2 1.2 0 1 0 0-2.4 1.2 1.2 0 0 0 0 2.4"/></symbol><symbol viewBox="0 0 24 24" id="image" xmlns="http://www.w3.org/2000/svg"><path d="M18.6 5.4H5.4a1.2 1.2 0 0 0-1.2 1.2v10.8a1.2 1.2 0 0 0 1.2 1.2h13.2a1.2 1.2 0 0 0 1.2-1.2V6.6a1.2 1.2 0 0 0-1.2-1.2m0 1.2v7.706l-1.955-1.954a1.2 1.2 0 0 0-1.697 0l-1.5 1.5-3.3-3.3a1.2 1.2 0 0 0-1.697 0L5.4 13.602V6.6zM5.4 15.3l3.9-3.9 6 6H5.4zm13.2 2.1h-1.603l-2.7-2.7 1.5-1.5 2.803 2.803zm-5.4-7.5a.9.9 0 1 1 1.8 0 .9.9 0 0 1-1.8 0"/></symbol><symbol viewBox="0 0 24 24" id="images" xmlns="http://www.w3.org/2000/svg"><path d="M18.6 5.4H7.8a1.2 1.2 0 0 0-1.2 1.2v1.2H5.4A1.2 1.2 0 0 0 4.2 9v8.4a1.2 1.2 0 0 0 1.2 1.2h10.8a1.2 1.2 0 0 0 1.2-1.2v-1.2h1.2a1.2 1.2 0 0 0 1.2-1.2V6.6a1.2 1.2 0 0 0-1.2-1.2M7.8 6.6h10.8v4.706l-.755-.754a1.2 1.2 0 0 0-1.697 0l-1.5 1.5-3.3-3.3a1.2 1.2 0 0 0-1.697 0L7.8 10.602zm8.4 10.8H5.4V9h1.2v6a1.2 1.2 0 0 0 1.2 1.2h8.4zm2.4-2.4H7.8v-2.7l2.7-2.7 3.725 3.725a.6.6 0 0 0 .848 0l1.924-1.925 1.603 1.604zm-4.2-6.3a.9.9 0 1 1 1.8 0 .9.9 0 0 1-1.8 0"/></symbol><symbol viewBox="0 0 24 24" id="info" xmlns="http://www.w3.org/2000/svg"><path d="M12 4.2a7.8 7.8 0 1 0 7.8 7.8A7.81 7.81 0 0 0 12 4.2m0 14.4a6.6 6.6 0 1 1 6.6-6.6 6.61 6.61 0 0 1-6.6 6.6m1.2-3a.6.6 0 0 1-.6.6 1.2 1.2 0 0 1-1.2-1.2v-3a.6.6 0 1 1 0-1.2 1.2 1.2 0 0 1 1.2 1.2v3a.6.6 0 0 1 .6.6m-2.4-6.9a.9.9 0 1 1 1.8 0 .9.9 0 0 1-1.8 0"/></symbol><symbol viewBox="0 0 24 24" id="invoice" xmlns="http://www.w3.org/2000/svg"><path d="M4.5 12a.6.6 0 1 1 0-1.2h2.1a.6.6 0 1 0 0-1.2H5.4a1.8 1.8 0 0 1 0-3.6.6.6 0 1 1 1.2 0h.6a.6.6 0 0 1 0 1.2H5.4a.6.6 0 0 0 0 1.2h1.2a1.8 1.8 0 0 1 0 3.6.6.6 0 1 1-1.2 0zm15.3-5.4v10.2a1.2 1.2 0 0 1-1.2 1.2H5.4a1.2 1.2 0 0 1-1.2-1.2v-3a.6.6 0 0 1 1.2 0v3h9v-2.4h-6a.6.6 0 1 1 0-1.2h6v-2.4h-4.2a.6.6 0 1 1 0-1.2h8.4V7.2h-9a.6.6 0 1 1 0-1.2h9.6a.6.6 0 0 1 .6.6m-4.2 6.6h3v-2.4h-3zm3 3.6v-2.4h-3v2.4z"/></symbol><symbol viewBox="0 0 24 24" id="link-break" xmlns="http://www.w3.org/2000/svg"><path d="M17.297 6.703a2.4 2.4 0 0 0-3.389-.005l-.874.916a.6.6 0 0 1-.868-.825l.879-.922.01-.01a3.6 3.6 0 0 1 5.08 5.101l-.921.88a.6.6 0 0 1-.825-.87l.916-.873a2.4 2.4 0 0 0-.008-3.392m-6.331 9.683-.874.916a2.4 2.4 0 0 1-3.394-3.394l.916-.874a.6.6 0 0 0-.825-.868l-.925.879-.01.01a3.6 3.6 0 0 0 5.101 5.08l.88-.921a.6.6 0 1 0-.87-.825zM18.6 13.8h-1.8a.6.6 0 1 0 0 1.2h1.8a.6.6 0 0 0 0-1.2M5.4 10.2h1.8a.6.6 0 1 0 0-1.2H5.4a.6.6 0 0 0 0 1.2m9 6a.6.6 0 0 0-.6.6v1.8a.6.6 0 0 0 1.2 0v-1.8a.6.6 0 0 0-.6-.6M9.6 7.8a.6.6 0 0 0 .6-.6V5.4a.6.6 0 1 0-1.2 0v1.8a.6.6 0 0 0 .6.6"/></symbol><symbol viewBox="0 0 24 24" id="link-simple" xmlns="http://www.w3.org/2000/svg"><path d="M14.825 9.176a.6.6 0 0 1 0 .848l-4.8 4.8a.598.598 0 0 1-.98-.194.6.6 0 0 1 .13-.655l4.8-4.8a.6.6 0 0 1 .85 0M18.57 5.43a4.2 4.2 0 0 0-5.94 0l-2.254 2.254a.6.6 0 1 0 .849.849l2.254-2.25a3 3 0 0 1 4.243 4.242l-2.256 2.254a.6.6 0 1 0 .849.85l2.255-2.259a4.2 4.2 0 0 0 0-5.94m-5.795 10.037-2.254 2.254a3 3 0 1 1-4.242-4.243l2.254-2.253a.6.6 0 0 0-.85-.85L5.43 12.63a4.2 4.2 0 1 0 5.94 5.94l2.255-2.255a.6.6 0 0 0-.85-.849"/></symbol><symbol viewBox="0 0 24 24" id="list" xmlns="http://www.w3.org/2000/svg"><path d="M19.2 12a.6.6 0 0 1-.6.6H5.4a.6.6 0 1 1 0-1.2h13.2a.6.6 0 0 1 .6.6M5.4 7.8h13.2a.6.6 0 1 0 0-1.2H5.4a.6.6 0 0 0 0 1.2m13.2 8.4H5.4a.6.6 0 1 0 0 1.2h13.2a.6.6 0 1 0 0-1.2"/></symbol><symbol viewBox="0 0 24 24" id="list-bullets" xmlns="http://www.w3.org/2000/svg"><path d="M8.4 7.2a.6.6 0 0 1 .6-.6h9.6a.6.6 0 0 1 0 1.2H9a.6.6 0 0 1-.6-.6m10.2 4.2H9a.6.6 0 1 0 0 1.2h9.6a.6.6 0 0 0 0-1.2m0 4.8H9a.6.6 0 1 0 0 1.2h9.6a.6.6 0 0 0 0-1.2M5.7 6.3a.9.9 0 1 0 0 1.8.9.9 0 0 0 0-1.8m0 4.8a.9.9 0 1 0 0 1.8.9.9 0 0 0 0-1.8m0 4.8a.9.9 0 1 0 0 1.8.9.9 0 0 0 0-1.8"/></symbol><symbol viewBox="0 0 24 24" id="list-checks" xmlns="http://www.w3.org/2000/svg"><path d="M19.2 12a.6.6 0 0 1-.6.6H12a.6.6 0 1 1 0-1.2h6.6a.6.6 0 0 1 .6.6M12 7.8h6.6a.6.6 0 1 0 0-1.2H12a.6.6 0 0 0 0 1.2m6.6 8.4H12a.6.6 0 1 0 0 1.2h6.6a.6.6 0 1 0 0-1.2M8.576 5.575 6.6 7.552l-.775-.777a.6.6 0 0 0-.85.85l1.2 1.2a.6.6 0 0 0 .85 0l2.4-2.4a.6.6 0 0 0-.85-.85m0 4.8L6.6 12.353l-.775-.777a.6.6 0 0 0-.85.85l1.2 1.2a.6.6 0 0 0 .85 0l2.4-2.4a.6.6 0 0 0-.85-.85m0 4.8L6.6 17.153l-.775-.777a.6.6 0 0 0-.85 0 .6.6 0 0 0 0 .85l1.2 1.2a.6.6 0 0 0 .85 0l2.4-2.4a.6.6 0 0 0-.85-.85"/></symbol><symbol viewBox="0 0 24 24" id="list-numbers" xmlns="http://www.w3.org/2000/svg"><path d="M19.2 12a.6.6 0 0 1-.6.6h-8.4a.6.6 0 0 1 0-1.2h8.4a.6.6 0 0 1 .6.6m-9-4.2h8.4a.6.6 0 1 0 0-1.2h-8.4a.6.6 0 0 0 0 1.2m8.4 8.4h-8.4a.6.6 0 0 0 0 1.2h8.4a.6.6 0 1 0 0-1.2M5.668 6.537 6 6.37v3.83a.6.6 0 0 0 1.2 0V5.4a.6.6 0 0 0-.869-.537l-1.2.6a.6.6 0 1 0 .537 1.074m2.715 7.617a1.78 1.78 0 0 0-.72-1.196 1.864 1.864 0 0 0-2.559.352q-.172.222-.267.485a.6.6 0 1 0 1.125.41.6.6 0 0 1 .088-.16.657.657 0 0 1 1.063.055q.064.104.082.225a.57.57 0 0 1-.124.442L4.919 17.64a.6.6 0 0 0 .481.959h2.4a.6.6 0 1 0 0-1.2H6.6l1.431-1.915a1.76 1.76 0 0 0 .352-1.331"/></symbol><symbol viewBox="0 0 24 24" id="lock" xmlns="http://www.w3.org/2000/svg"><path d="M18 8.4H9.6V6.6A2.4 2.4 0 0 1 12 4.2c1.153 0 2.19.825 2.412 1.92a.6.6 0 0 0 1.176-.24C15.249 4.212 13.74 3 12 3a3.604 3.604 0 0 0-3.6 3.6v1.8H6a1.2 1.2 0 0 0-1.2 1.2V18A1.2 1.2 0 0 0 6 19.2h12a1.2 1.2 0 0 0 1.2-1.2V9.6A1.2 1.2 0 0 0 18 8.4m0 9.6H6V9.6h12zm-5.1-4.2a.9.9 0 1 1-1.8 0 .9.9 0 0 1 1.8 0"/></symbol><symbol viewBox="0 0 24 24" id="lock-open" xmlns="http://www.w3.org/2000/svg"><path d="M18 8.4h-2.4V6.6a3.6 3.6 0 0 0-7.2 0v1.8H6a1.2 1.2 0 0 0-1.2 1.2V18A1.2 1.2 0 0 0 6 19.2h12a1.2 1.2 0 0 0 1.2-1.2V9.6A1.2 1.2 0 0 0 18 8.4M9.6 6.6a2.4 2.4 0 0 1 4.8 0v1.8H9.6zM18 18H6V9.6h12zm-5.1-4.2a.9.9 0 1 1-1.8 0 .9.9 0 0 1 1.8 0"/></symbol><symbol viewBox="0 0 24 24" id="magnifying-glass" xmlns="http://www.w3.org/2000/svg"><path d="m19.625 18.776-3.756-3.755a6.608 6.608 0 1 0-.848.848l3.755 3.756a.6.6 0 0 0 .849-.85M5.4 10.8a5.4 5.4 0 1 1 10.8 0 5.4 5.4 0 0 1-10.8 0"/></symbol><symbol viewBox="0 0 24 24" id="mailbox" xmlns="http://www.w3.org/2000/svg"><path d="M10.2 13.8a.6.6 0 0 1-.6.6h-3a.6.6 0 1 1 0-1.2h3a.6.6 0 0 1 .6.6m10.2-2.7v4.5a1.2 1.2 0 0 1-1.2 1.2h-6.6v2.4a.6.6 0 1 1-1.2 0v-2.4H4.8a1.2 1.2 0 0 1-1.2-1.2v-4.5a4.505 4.505 0 0 1 4.5-4.5h5.7V4.2a.6.6 0 0 1 .6-.6h2.4a.6.6 0 0 1 0 1.2H15v1.8h.9a4.505 4.505 0 0 1 4.5 4.5m-9 4.5v-4.5a3.3 3.3 0 0 0-6.6 0v4.5zm7.8-4.5a3.304 3.304 0 0 0-3.3-3.3H15v5.4a.6.6 0 1 1-1.2 0V7.8h-2.644a4.5 4.5 0 0 1 1.444 3.3v4.5h6.6z"/></symbol><symbol viewBox="0 0 24 24" id="map-pin" xmlns="http://www.w3.org/2000/svg"><path d="M16.2 7.8a4.2 4.2 0 1 0-4.8 4.157V19.8a.6.6 0 0 0 1.2 0v-7.844A4.21 4.21 0 0 0 16.2 7.8m-4.2 3a3 3 0 1 1 0-6 3 3 0 0 1 0 6"/></symbol><symbol viewBox="0 0 24 24" id="minus" xmlns="http://www.w3.org/2000/svg"><path d="M19.2 12a.6.6 0 0 1-.6.6H5.4a.6.6 0 1 1 0-1.2h13.2a.6.6 0 0 1 .6.6"/></symbol><symbol viewBox="0 0 24 24" id="minus-thick" xmlns="http://www.w3.org/2000/svg"><path fill-rule="evenodd" d="M19.731 13.131A1.6 1.6 0 0 0 18.6 10.4H5.4a1.6 1.6 0 0 0 0 3.2h13.2a1.6 1.6 0 0 0 1.131-.469" clip-rule="evenodd"/></symbol><symbol viewBox="0 0 24 24" id="moon-filled" xmlns="http://www.w3.org/2000/svg"><path d="M20.4 9.6a.6.6 0 0 1-.6.6h-1.2v1.2a.6.6 0 1 1-1.2 0v-1.2h-1.2a.6.6 0 1 1 0-1.2h1.2V7.8a.6.6 0 1 1 1.2 0V9h1.2a.6.6 0 0 1 .6.6m-7.2-3h.6v.6a.6.6 0 1 0 1.2 0v-.6h.6a.6.6 0 1 0 0-1.2H15v-.6a.6.6 0 1 0-1.2 0v.6h-.6a.6.6 0 0 0 0 1.2m4.886 7.075a6.607 6.607 0 0 1-7.76-7.76.6.6 0 0 0-.796-.68 7.2 7.2 0 1 0 9.235 9.235.6.6 0 0 0-.68-.795"/></symbol><symbol viewBox="0 0 24 24" id="note-pencil" xmlns="http://www.w3.org/2000/svg"><path d="m19.625 6.776-2.4-2.4a.6.6 0 0 0-.85 0l-7.2 7.2A.6.6 0 0 0 9 12v2.4a.6.6 0 0 0 .6.6H12a.6.6 0 0 0 .425-.175l7.2-7.2a.6.6 0 0 0 0-.85M11.752 13.8H10.2v-1.552l4.8-4.8L16.552 9zM17.4 8.152 15.848 6.6l.952-.952L18.352 7.2zM19.2 12v6a1.2 1.2 0 0 1-1.2 1.2H6A1.2 1.2 0 0 1 4.8 18V6A1.2 1.2 0 0 1 6 4.8h6A.6.6 0 0 1 12 6H6v12h12v-6a.6.6 0 1 1 1.2 0"/></symbol><symbol viewBox="0 0 24 24" id="nut" xmlns="http://www.w3.org/2000/svg"><path d="M12 8.4a3.6 3.6 0 1 0 0 7.2 3.6 3.6 0 0 0 0-7.2m0 6a2.4 2.4 0 1 1 0-4.8 2.4 2.4 0 0 1 0 4.8m7.176-7.039-6.6-3.611a1.19 1.19 0 0 0-1.152 0l-6.6 3.613a1.2 1.2 0 0 0-.624 1.05v7.173a1.2 1.2 0 0 0 .624 1.05l6.6 3.613a1.19 1.19 0 0 0 1.152 0l6.6-3.613a1.2 1.2 0 0 0 .624-1.05V8.413a1.2 1.2 0 0 0-.624-1.052M12 19.2l-6.6-3.613V8.412L12 4.8l6.6 3.613v7.173z"/></symbol><symbol viewBox="0 0 24 24" id="package" xmlns="http://www.w3.org/2000/svg"><path d="m19.176 7.361-6.6-3.611a1.19 1.19 0 0 0-1.152 0l-6.6 3.613a1.2 1.2 0 0 0-.624 1.05v7.173a1.2 1.2 0 0 0 .624 1.05l6.6 3.613a1.19 1.19 0 0 0 1.152 0l6.6-3.613a1.2 1.2 0 0 0 .624-1.05V8.413a1.2 1.2 0 0 0-.624-1.052M12 4.8l6.026 3.3-2.233 1.222-6.027-3.3zm0 6.6L5.974 8.1l2.543-1.392 6.026 3.3zM5.4 9.15l6 3.284v6.434l-6-3.281zm13.2 6.434-6 3.284v-6.431l2.4-1.314V13.8a.6.6 0 0 0 1.2 0v-3.334l2.4-1.316v6.433"/></symbol><symbol viewBox="0 0 24 24" id="paperclip" xmlns="http://www.w3.org/2000/svg"><path d="M18.125 11.575a.6.6 0 0 1 0 .85l-6.154 6.15a4.2 4.2 0 0 1-5.94-5.941l7.444-7.554a3 3 0 1 1 4.246 4.24l-7.446 7.555a1.803 1.803 0 1 1-2.55-2.55l6.248-6.347a.6.6 0 1 1 .854.842L8.58 15.173a.6.6 0 0 0 .846.852l7.445-7.55a1.802 1.802 0 0 0-2.545-2.55l-7.443 7.55a3 3 0 0 0 4.24 4.247l6.154-6.15a.6.6 0 0 1 .849.003"/></symbol><symbol viewBox="0 0 24 24" id="password" xmlns="http://www.w3.org/2000/svg"><path d="M6 6.6v10.8a.6.6 0 0 1-1.2 0V6.6a.6.6 0 1 1 1.2 0m6.9 4.088-1.5.487V9.6a.6.6 0 1 0-1.2 0v1.575l-1.5-.488a.6.6 0 0 0-.375 1.142l1.5.487L8.9 13.59a.6.6 0 1 0 .97.705l.926-1.275.925 1.275a.601.601 0 0 0 1.089-.254.6.6 0 0 0-.119-.451l-.925-1.275 1.5-.487a.6.6 0 0 0-.366-1.142m7.95.385a.6.6 0 0 0-.75-.386l-1.5.488V9.6a.6.6 0 1 0-1.2 0v1.575l-1.5-.487a.6.6 0 1 0-.371 1.142l1.5.486-.926 1.275a.6.6 0 1 0 .97.706L18 13.02l.926 1.275a.599.599 0 1 0 .97-.704l-.925-1.276 1.5-.486a.6.6 0 0 0 .38-.757"/></symbol><symbol viewBox="0 0 24 24" id="pause" xmlns="http://www.w3.org/2000/svg"><path d="M17.4 4.8h-3A1.2 1.2 0 0 0 13.2 6v12a1.2 1.2 0 0 0 1.2 1.2h3a1.2 1.2 0 0 0 1.2-1.2V6a1.2 1.2 0 0 0-1.2-1.2m0 13.2h-3V6h3zM9.6 4.8h-3A1.2 1.2 0 0 0 5.4 6v12a1.2 1.2 0 0 0 1.2 1.2h3a1.2 1.2 0 0 0 1.2-1.2V6a1.2 1.2 0 0 0-1.2-1.2m0 13.2h-3V6h3z"/></symbol><symbol viewBox="0 0 24 24" id="pencil-line" xmlns="http://www.w3.org/2000/svg"><path d="m19.449 7.903-3.352-3.351a1.2 1.2 0 0 0-1.697 0L5.152 13.8a1.2 1.2 0 0 0-.352.848V18A1.2 1.2 0 0 0 6 19.2h12.6a.6.6 0 0 0 0-1.2h-7.551l8.4-8.4a1.2 1.2 0 0 0 0-1.697M9.352 18H6v-3.352l6.6-6.6 3.352 3.352zm7.448-7.448L13.449 7.2l1.8-1.8L18.6 8.752z"/></symbol><symbol viewBox="0 0 24 24" id="placeholder" xmlns="http://www.w3.org/2000/svg"><path d="M18 4.8H6A1.2 1.2 0 0 0 4.8 6v12A1.2 1.2 0 0 0 6 19.2h12a1.2 1.2 0 0 0 1.2-1.2V6A1.2 1.2 0 0 0 18 4.8M6 18V6.848L17.152 18zm.848-12H18v11.153z"/></symbol><symbol viewBox="0 0 24 24" id="play" xmlns="http://www.w3.org/2000/svg"><path d="M19.83 10.987 9.024 4.377a1.2 1.2 0 0 0-1.66.412 1.2 1.2 0 0 0-.164.601v13.22a1.196 1.196 0 0 0 1.2 1.19c.221 0 .438-.061.627-.176l10.803-6.61a1.186 1.186 0 0 0 0-2.026zM8.4 18.596V5.4L19.187 12z"/></symbol><symbol viewBox="0 0 24 24" id="play-pause" xmlns="http://www.w3.org/2000/svg"><path d="M16.2 7.2v9.6a.6.6 0 0 1-1.2 0V7.2a.6.6 0 1 1 1.2 0m3-.6a.6.6 0 0 0-.6.6v9.6a.6.6 0 1 0 1.2 0V7.2a.6.6 0 0 0-.6-.6m-6 5.4a1.18 1.18 0 0 1-.55 1l-6.614 4.212a1.193 1.193 0 0 1-1.836-1V7.788a1.193 1.193 0 0 1 1.836-1l6.614 4.21A1.18 1.18 0 0 1 13.2 12m-1.213 0L5.4 7.806v8.389z"/></symbol><symbol viewBox="0 0 24 24" id="plus" xmlns="http://www.w3.org/2000/svg"><path d="M19.2 12a.6.6 0 0 1-.6.6h-6v6a.6.6 0 0 1-1.2 0v-6h-6a.6.6 0 1 1 0-1.2h6v-6a.6.6 0 1 1 1.2 0v6h6a.6.6 0 0 1 .6.6"/></symbol><symbol viewBox="0 0 24 24" id="plus-minus" xmlns="http://www.w3.org/2000/svg"><path d="m17.825 7.024-10.8 10.8a.6.6 0 0 1-.85-.849l10.8-10.8a.6.6 0 0 1 .85.85M7.2 10.8a.6.6 0 0 0 1.2 0V8.4h2.4a.6.6 0 1 0 0-1.2H8.4V4.8a.6.6 0 1 0-1.2 0v2.4H4.8a.6.6 0 0 0 0 1.2h2.4zm12 4.8h-6a.6.6 0 0 0 0 1.2h6a.6.6 0 0 0 0-1.2"/></symbol><symbol viewBox="0 0 24 24" id="printer" xmlns="http://www.w3.org/2000/svg"><path d="M18.5 7.8h-1.1V5.4a.6.6 0 0 0-.6-.6H7.2a.6.6 0 0 0-.6.6v2.4H5.5c-1.048 0-1.9.808-1.9 1.8v6a.6.6 0 0 0 .6.6h2.4v2.4a.6.6 0 0 0 .6.6h9.6a.6.6 0 0 0 .6-.6v-2.4h2.4a.6.6 0 0 0 .6-.6v-6c0-.992-.852-1.8-1.9-1.8M7.8 6h8.4v1.8H7.8zm8.4 12H7.8v-3.6h8.4zm3-3h-1.8v-1.2a.6.6 0 0 0-.6-.6H7.2a.6.6 0 0 0-.6.6V15H4.8V9.6c0-.33.314-.6.7-.6h13c.386 0 .7.27.7.6zm-1.8-3.9a.9.9 0 1 1-1.8 0 .9.9 0 0 1 1.8 0"/></symbol><symbol viewBox="0 0 24 24" id="prohibit" xmlns="http://www.w3.org/2000/svg"><path d="M12 4.2a7.8 7.8 0 1 0 7.8 7.8A7.81 7.81 0 0 0 12 4.2m6.6 7.8a6.57 6.57 0 0 1-1.53 4.221L7.778 6.93A6.6 6.6 0 0 1 18.6 12M5.4 12a6.57 6.57 0 0 1 1.53-4.221l9.291 9.291A6.6 6.6 0 0 1 5.4 12"/></symbol><symbol viewBox="0 0 24 24" id="question" xmlns="http://www.w3.org/2000/svg"><path d="M12.9 15.9a.9.9 0 1 1-1.8 0 .9.9 0 0 1 1.8 0M12 7.8c-1.655 0-3 1.211-3 2.7v.3a.6.6 0 0 0 1.2 0v-.3c0-.825.808-1.5 1.8-1.5s1.8.675 1.8 1.5S12.992 12 12 12a.6.6 0 0 0-.6.6v.6a.6.6 0 1 0 1.2 0v-.054c1.368-.251 2.4-1.343 2.4-2.646 0-1.489-1.345-2.7-3-2.7m7.8 4.2A7.8 7.8 0 1 1 12 4.2a7.81 7.81 0 0 1 7.8 7.8m-1.2 0a6.6 6.6 0 1 0-6.6 6.6 6.61 6.61 0 0 0 6.6-6.6"/></symbol><symbol viewBox="0 0 24 24" id="question-mark" xmlns="http://www.w3.org/2000/svg"><path d="M16.8 9.6c0 2.138-1.835 3.908-4.2 4.167v.633a.6.6 0 0 1-1.2 0v-1.2a.6.6 0 0 1 .6-.6c1.985 0 3.6-1.345 3.6-3 0-1.654-1.615-3-3.6-3s-3.6 1.346-3.6 3a.6.6 0 0 1-1.2 0c0-2.316 2.153-4.2 4.8-4.2s4.8 1.884 4.8 4.2M12 16.8a1.2 1.2 0 1 0 0 2.4 1.2 1.2 0 0 0 0-2.4"/></symbol><symbol viewBox="0 0 24 24" id="quote" xmlns="http://www.w3.org/2000/svg"><path d="M11.383 10.37v.117c0 1.115-.386 2.215-1.168 3.526-.599 1.002-1.58 1.869-2.36 2.45a.594.594 0 0 1-.826-.122c-.205-.265-.158-.642.083-.874a7.3 7.3 0 0 0 1.163-1.454q.316-.517.453-1.008c.027-.098-.052-.19-.153-.19a2.808 2.808 0 1 1 .11-5.612q.063-.003.128-.003 1.135 0 1.853.837.64.747.709 2.117.008.108.008.215m6.85.001v.117c0 1.115-.386 2.215-1.169 3.526-.598 1.002-1.58 1.869-2.36 2.45a.594.594 0 0 1-.825-.122c-.205-.265-.158-.642.082-.874a7.3 7.3 0 0 0 1.164-1.454q.317-.517.453-1.008c.027-.098-.052-.19-.153-.19a2.808 2.808 0 1 1 .11-5.612q.063-.003.128-.003 1.135 0 1.852.837.642.747.71 2.117.008.108.008.215"/></symbol><symbol viewBox="0 0 24 24" id="receipt" xmlns="http://www.w3.org/2000/svg"><path d="M7.8 10.2a.6.6 0 0 1 .6-.6h7.2a.6.6 0 0 1 0 1.2H8.4a.6.6 0 0 1-.6-.6m.6 3h7.2a.6.6 0 1 0 0-1.2H8.4a.6.6 0 1 0 0 1.2m11.4-6.6V18a.6.6 0 0 1-.869.536L16.8 17.471l-2.132 1.065a.6.6 0 0 1-.536 0L12 17.471l-2.132 1.065a.6.6 0 0 1-.537 0L7.2 17.471l-2.132 1.065A.6.6 0 0 1 4.2 18V6.6a1.2 1.2 0 0 1 1.2-1.2h13.2a1.2 1.2 0 0 1 1.2 1.2m-1.2 0H5.4v10.43l1.531-.767a.6.6 0 0 1 .537 0L9.6 17.329l2.132-1.066a.6.6 0 0 1 .537 0l2.131 1.066 2.132-1.066a.6.6 0 0 1 .537 0l1.531.766z"/></symbol><symbol viewBox="0 0 24 24" id="repeat" xmlns="http://www.w3.org/2000/svg"><path d="M4.2 12a5.406 5.406 0 0 1 5.4-5.4h8.152l-.776-.775a.6.6 0 0 1 .849-.85l1.8 1.8a.6.6 0 0 1 0 .85l-1.8 1.8a.6.6 0 0 1-.85-.85l.777-.775H9.6A4.205 4.205 0 0 0 5.4 12a.6.6 0 0 1-1.2 0m15-.6a.6.6 0 0 0-.6.6 4.204 4.204 0 0 1-4.2 4.2H6.248l.776-.775a.6.6 0 1 0-.848-.85l-1.8 1.8a.6.6 0 0 0 0 .85l1.8 1.8a.6.6 0 1 0 .848-.85l-.776-.775H14.4a5.406 5.406 0 0 0 5.4-5.4.6.6 0 0 0-.6-.6"/></symbol><symbol viewBox="0 0 24 24" id="rows" xmlns="http://www.w3.org/2000/svg"><path d="M18 12.6H6a1.2 1.2 0 0 0-1.2 1.2v3A1.2 1.2 0 0 0 6 18h12a1.2 1.2 0 0 0 1.2-1.2v-3a1.2 1.2 0 0 0-1.2-1.2m0 4.2H6v-3h12zM18 6H6a1.2 1.2 0 0 0-1.2 1.2v3A1.2 1.2 0 0 0 6 11.4h12a1.2 1.2 0 0 0 1.2-1.2v-3A1.2 1.2 0 0 0 18 6m0 4.2H6v-3h12z"/></symbol><symbol viewBox="0 0 24 24" id="rows-plus-bottom" xmlns="http://www.w3.org/2000/svg"><path d="M18 10.8H6A1.2 1.2 0 0 0 4.8 12v1.8A1.2 1.2 0 0 0 6 15h12a1.2 1.2 0 0 0 1.2-1.2V12a1.2 1.2 0 0 0-1.2-1.2m0 3H6V12h12zm0-8.4H6a1.2 1.2 0 0 0-1.2 1.2v1.8A1.2 1.2 0 0 0 6 9.6h12a1.2 1.2 0 0 0 1.2-1.2V6.6A1.2 1.2 0 0 0 18 5.4m0 3H6V6.6h12zm-3.6 10.2a.6.6 0 0 1-.6.6h-1.2v1.2a.6.6 0 1 1-1.2 0v-1.2h-1.2a.6.6 0 0 1 0-1.2h1.2v-1.2a.6.6 0 0 1 1.2 0V18h1.2a.6.6 0 0 1 .6.6"/></symbol><symbol viewBox="0 0 24 24" id="share" xmlns="http://www.w3.org/2000/svg"><path d="m19.625 10.625-3.6 3.6a.6.6 0 0 1-.85-.85l2.577-2.575h-2.977a6.6 6.6 0 0 0-6.392 4.95.6.6 0 1 1-1.163-.3 7.796 7.796 0 0 1 7.555-5.85h2.978l-2.578-2.576a.6.6 0 0 1 .85-.849l3.6 3.6a.6.6 0 0 1 0 .85M16.8 18H5.4V9a.6.6 0 0 0-1.2 0v9.6a.6.6 0 0 0 .6.6h12a.6.6 0 1 0 0-1.2"/></symbol><symbol viewBox="0 0 24 24" id="shuffle" xmlns="http://www.w3.org/2000/svg"><path d="M20.225 15.776a.6.6 0 0 1 0 .849l-1.8 1.8a.6.6 0 0 1-.85-.85l.777-.775h-.881a5.41 5.41 0 0 1-4.395-2.261l-3.129-4.38A4.2 4.2 0 0 0 6.53 8.4H4.8a.6.6 0 1 1 0-1.2h1.73a5.41 5.41 0 0 1 4.394 2.261l3.129 4.38A4.2 4.2 0 0 0 17.47 15.6h.88l-.775-.775a.6.6 0 1 1 .848-.85zm-7.1-5.351a.6.6 0 0 0 .837-.14l.09-.125a4.2 4.2 0 0 1 3.419-1.76h.88l-.775.775a.6.6 0 1 0 .848.85l1.8-1.8a.6.6 0 0 0 0-.85l-1.8-1.8a.6.6 0 0 0-.848.85l.776.775h-.881a5.41 5.41 0 0 0-4.395 2.261l-.09.125a.6.6 0 0 0 .139.839m-2.25 3.15a.6.6 0 0 0-.837.14l-.09.125a4.2 4.2 0 0 1-3.419 1.76H4.8a.6.6 0 1 0 0 1.2h1.73a5.41 5.41 0 0 0 4.394-2.261l.09-.125a.6.6 0 0 0-.139-.839"/></symbol><symbol viewBox="0 0 24 24" id="skip-back" xmlns="http://www.w3.org/2000/svg"><path d="M17.386 4.95a1.2 1.2 0 0 0-1.218.032L7.2 10.592V5.4a.6.6 0 1 0-1.2 0v13.2a.6.6 0 1 0 1.2 0v-5.192l8.968 5.608A1.196 1.196 0 0 0 18 18.01V5.99a1.19 1.19 0 0 0-.614-1.041M16.8 18l-9.588-6L16.8 6.005z"/></symbol><symbol viewBox="0 0 24 24" id="skip-forward" xmlns="http://www.w3.org/2000/svg"><path d="M17.4 4.8a.6.6 0 0 0-.6.6v5.192L7.832 4.984A1.196 1.196 0 0 0 6 5.99v12.02a1.2 1.2 0 0 0 1.832 1.007l8.968-5.608V18.6a.6.6 0 1 0 1.2 0V5.4a.6.6 0 0 0-.6-.6M7.2 17.995V6.004l9.588 6z"/></symbol><symbol viewBox="0 0 24 24" id="sliders" xmlns="http://www.w3.org/2000/svg"><path d="M8.7 12.6a2.1 2.1 0 0 1-1.5 2.012V18.6a.6.6 0 1 1-1.2 0v-3.988a2.1 2.1 0 0 1 0-4.024V5.4a.6.6 0 0 1 1.2 0v5.188A2.1 2.1 0 0 1 8.7 12.6m3.9-5.612V5.4a.6.6 0 1 0-1.2 0v1.588a2.1 2.1 0 0 0 0 4.024V18.6a.6.6 0 1 0 1.2 0v-7.588a2.1 2.1 0 0 0 0-4.024m5.4 6V5.4a.6.6 0 1 0-1.2 0v7.588a2.1 2.1 0 0 0 0 4.024V18.6a.6.6 0 1 0 1.2 0v-1.588a2.1 2.1 0 0 0 0-4.024"/></symbol><symbol viewBox="0 0 24 24" id="sort-ascending" xmlns="http://www.w3.org/2000/svg"><path d="M12 12a.6.6 0 0 1-.6.6H6a.6.6 0 1 1 0-1.2h5.4a.6.6 0 0 1 .6.6M6 7.8h10.2a.6.6 0 1 0 0-1.2H6a.6.6 0 1 0 0 1.2m4.2 8.4H6a.6.6 0 1 0 0 1.2h4.2a.6.6 0 1 0 0-1.2m9.425-1.624a.6.6 0 0 0-.85 0L16.8 16.552V10.8a.6.6 0 1 0-1.2 0v5.752l-1.976-1.976a.6.6 0 1 0-.849.848l3 3a.6.6 0 0 0 .85 0l3-3a.6.6 0 0 0 0-.848"/></symbol><symbol viewBox="0 0 24 24" id="sort-descending" xmlns="http://www.w3.org/2000/svg"><path d="M5.4 12a.6.6 0 0 1 .6-.6h5.4a.6.6 0 1 1 0 1.2H6a.6.6 0 0 1-.6-.6M6 7.8h4.2a.6.6 0 1 0 0-1.2H6a.6.6 0 1 0 0 1.2m10.2 8.4H6a.6.6 0 1 0 0 1.2h10.2a.6.6 0 1 0 0-1.2m3.425-7.624-3-3a.6.6 0 0 0-.85 0l-3 3a.6.6 0 0 0 .85.849L15.6 7.448V13.2a.6.6 0 1 0 1.2 0V7.448l1.976 1.977a.602.602 0 0 0 .849-.85"/></symbol><symbol viewBox="0 0 24 24" id="square-half" xmlns="http://www.w3.org/2000/svg"><path d="M17.4 5.4H6.6a1.2 1.2 0 0 0-1.2 1.2v10.8a1.2 1.2 0 0 0 1.2 1.2h10.8a1.2 1.2 0 0 0 1.2-1.2V6.6a1.2 1.2 0 0 0-1.2-1.2m-4.8 6h4.8v1.2h-4.8zm0-1.2V9h4.8v1.2zm0 3.6h4.8V15h-4.8zm4.8-6h-4.8V6.6h4.8zM6.6 6.6h4.8v10.8H6.6zm10.8 10.8h-4.8v-1.2h4.8z"/></symbol><symbol viewBox="0 0 24 24" id="square-split-horizontal" xmlns="http://www.w3.org/2000/svg"><path d="M17.4 5.4H6.6a1.2 1.2 0 0 0-1.2 1.2v10.8a1.2 1.2 0 0 0 1.2 1.2h10.8a1.2 1.2 0 0 0 1.2-1.2V6.6a1.2 1.2 0 0 0-1.2-1.2M6.6 6.6h4.8v10.8H6.6zm10.8 10.8h-4.8V6.6h4.8z"/></symbol><symbol viewBox="0 0 24 24" id="square-split-vertical" xmlns="http://www.w3.org/2000/svg"><path d="M17.4 5.4H6.6a1.2 1.2 0 0 0-1.2 1.2v10.8a1.2 1.2 0 0 0 1.2 1.2h10.8a1.2 1.2 0 0 0 1.2-1.2V6.6a1.2 1.2 0 0 0-1.2-1.2m0 1.2v4.8H6.6V6.6zm0 10.8H6.6v-4.8h10.8z"/></symbol><symbol viewBox="0 0 24 24" id="squares-four" xmlns="http://www.w3.org/2000/svg"><path d="M10.2 5.4H6.6a1.2 1.2 0 0 0-1.2 1.2v3.6a1.2 1.2 0 0 0 1.2 1.2h3.6a1.2 1.2 0 0 0 1.2-1.2V6.6a1.2 1.2 0 0 0-1.2-1.2m0 4.8H6.6V6.6h3.6zm7.2-4.8h-3.6a1.2 1.2 0 0 0-1.2 1.2v3.6a1.2 1.2 0 0 0 1.2 1.2h3.6a1.2 1.2 0 0 0 1.2-1.2V6.6a1.2 1.2 0 0 0-1.2-1.2m0 4.8h-3.6V6.6h3.6zm-7.2 2.4H6.6a1.2 1.2 0 0 0-1.2 1.2v3.6a1.2 1.2 0 0 0 1.2 1.2h3.6a1.2 1.2 0 0 0 1.2-1.2v-3.6a1.2 1.2 0 0 0-1.2-1.2m0 4.8H6.6v-3.6h3.6zm7.2-4.8h-3.6a1.2 1.2 0 0 0-1.2 1.2v3.6a1.2 1.2 0 0 0 1.2 1.2h3.6a1.2 1.2 0 0 0 1.2-1.2v-3.6a1.2 1.2 0 0 0-1.2-1.2m0 4.8h-3.6v-3.6h3.6z"/></symbol><symbol viewBox="0 0 24 24" id="star" xmlns="http://www.w3.org/2000/svg"><path d="M20.339 9.694a1.23 1.23 0 0 0-1.07-.844l-4.425-.357-1.708-4.132a1.227 1.227 0 0 0-2.27 0L9.157 8.492 4.73 8.85a1.234 1.234 0 0 0-.703 2.165l3.375 2.912-1.028 4.354a1.229 1.229 0 0 0 1.837 1.337L12 17.287l3.79 2.33a1.23 1.23 0 0 0 1.835-1.336l-1.032-4.355 3.375-2.912a1.23 1.23 0 0 0 .37-1.32m-1.151.41-3.652 3.15a.6.6 0 0 0-.192.594l1.115 4.71a.028.028 0 0 1-.013.036c-.013.01-.017.008-.028 0l-4.104-2.524a.6.6 0 0 0-.628 0l-4.104 2.526c-.012.006-.015.009-.029 0a.03.03 0 0 1-.013-.037l1.116-4.71a.6.6 0 0 0-.192-.593l-3.652-3.15c-.009-.007-.017-.014-.01-.037.008-.024.014-.02.025-.022L9.62 9.66a.6.6 0 0 0 .504-.37l1.847-4.471c.005-.013.008-.019.026-.019s.02.006.026.019l1.851 4.47a.6.6 0 0 0 .506.37l4.794.386c.011 0 .018 0 .025.022s0 .03-.012.038"/></symbol><symbol viewBox="0 0 24 24" id="star-filled" xmlns="http://www.w3.org/2000/svg"><path d="m19.972 11.014-3.375 2.912 1.028 4.355a1.23 1.23 0 0 1-1.838 1.337L12 17.287l-3.79 2.33a1.23 1.23 0 0 1-1.835-1.336l1.032-4.355-3.375-2.912a1.235 1.235 0 0 1 .699-2.164l4.425-.357 1.707-4.131a1.227 1.227 0 0 1 2.27 0l1.707 4.131 4.425.357a1.235 1.235 0 0 1 .702 2.165z"/></symbol><symbol viewBox="0 0 24 24" id="stop" xmlns="http://www.w3.org/2000/svg"><path d="M17.4 5.4H6.6a1.2 1.2 0 0 0-1.2 1.2v10.8a1.2 1.2 0 0 0 1.2 1.2h10.8a1.2 1.2 0 0 0 1.2-1.2V6.6a1.2 1.2 0 0 0-1.2-1.2m0 12H6.6V6.6h10.8z"/></symbol><symbol viewBox="0 0 24 24" id="sun-filled" xmlns="http://www.w3.org/2000/svg"><path d="M11.4 5.4V3.6a.6.6 0 1 1 1.2 0v1.8a.6.6 0 1 1-1.2 0m.6 1.8a4.8 4.8 0 1 0 0 9.6 4.8 4.8 0 0 0 0-9.6m-5.224.425a.6.6 0 0 0 .849-.85l-1.2-1.2a.6.6 0 0 0-.85.85zm0 8.75-1.2 1.2a.6.6 0 0 0 .849.85l1.2-1.2a.6.6 0 1 0-.85-.85M16.8 7.8a.6.6 0 0 0 .424-.175l1.2-1.2a.6.6 0 0 0-.848-.85l-1.2 1.2A.6.6 0 0 0 16.8 7.8m.424 8.575a.6.6 0 0 0-.849.85l1.2 1.2A.599.599 0 0 0 18.6 18a.6.6 0 0 0-.176-.424zM6 12a.6.6 0 0 0-.6-.6H3.6a.6.6 0 1 0 0 1.2h1.8A.6.6 0 0 0 6 12m6 6a.6.6 0 0 0-.6.6v1.8a.6.6 0 0 0 1.2 0v-1.8a.6.6 0 0 0-.6-.6m8.4-6.6h-1.8a.6.6 0 0 0 0 1.2h1.8a.6.6 0 0 0 0-1.2"/></symbol><symbol viewBox="0 0 24 24" id="table" xmlns="http://www.w3.org/2000/svg"><path d="M19.2 6H4.8a.6.6 0 0 0-.6.6v10.2A1.2 1.2 0 0 0 5.4 18h13.2a1.2 1.2 0 0 0 1.2-1.2V6.6a.6.6 0 0 0-.6-.6M5.4 10.8h3v2.4h-3zm4.2 0h9v2.4h-9zm9-3.6v2.4H5.4V7.2zM5.4 14.4h3v2.4h-3zm13.2 2.4h-9v-2.4h9z"/></symbol><symbol viewBox="0 0 24 24" id="tag" xmlns="http://www.w3.org/2000/svg"><path d="M20.648 12.6 13.2 5.152a1.2 1.2 0 0 0-.848-.352H5.4a.6.6 0 0 0-.6.6v6.952a1.2 1.2 0 0 0 .352.848l7.448 7.448a1.2 1.2 0 0 0 1.697 0l6.351-6.35a1.2 1.2 0 0 0 0-1.698m-7.2 7.2L6 12.352V6h6.352l7.448 7.448zM9.6 8.7a.9.9 0 1 1-1.8 0 .9.9 0 0 1 1.8 0"/></symbol><symbol viewBox="0 0 24 24" id="target" xmlns="http://www.w3.org/2000/svg"><path d="M19.04 8.637a7.808 7.808 0 1 1-1.965-2.562l1.7-1.701a.6.6 0 0 1 .85.849l-7.2 7.2a.6.6 0 1 1-.85-.849l2.08-2.079a3 3 0 1 0 1.34 2.332.6.6 0 0 1 1.2-.068 4.2 4.2 0 1 1-1.679-3.123l1.707-1.707a6.591 6.591 0 1 0 1.734 2.226.6.6 0 0 1 1.083-.518"/></symbol><symbol viewBox="0 0 24 24" id="text-columns" xmlns="http://www.w3.org/2000/svg"><path d="M11.4 7.2a.6.6 0 0 1-.6.6H5.4a.6.6 0 0 1 0-1.2h5.4a.6.6 0 0 1 .6.6m-.6 2.4H5.4a.6.6 0 0 0 0 1.2h5.4a.6.6 0 1 0 0-1.2m0 3H5.4a.6.6 0 1 0 0 1.2h5.4a.6.6 0 1 0 0-1.2m0 3H5.4a.6.6 0 1 0 0 1.2h5.4a.6.6 0 1 0 0-1.2m2.4-7.8h5.4a.6.6 0 1 0 0-1.2h-5.4a.6.6 0 0 0 0 1.2m5.4 1.8h-5.4a.6.6 0 0 0 0 1.2h5.4a.6.6 0 1 0 0-1.2m0 3h-5.4a.6.6 0 1 0 0 1.2h5.4a.6.6 0 1 0 0-1.2m0 3h-5.4a.6.6 0 1 0 0 1.2h5.4a.6.6 0 1 0 0-1.2"/></symbol><symbol viewBox="0 0 24 24" id="toolbox" xmlns="http://www.w3.org/2000/svg"><path d="M19.2 7.2h-3.6v-.6a1.8 1.8 0 0 0-1.8-1.8h-3.6a1.8 1.8 0 0 0-1.8 1.8v.6H4.8a1.2 1.2 0 0 0-1.2 1.2v8.4A1.2 1.2 0 0 0 4.8 18h14.4a1.2 1.2 0 0 0 1.2-1.2V8.4a1.2 1.2 0 0 0-1.2-1.2m-9.6-.6a.6.6 0 0 1 .6-.6h3.6a.6.6 0 0 1 .6.6v.6H9.6zm9.6 1.8v2.4h-2.4v-.6a.6.6 0 1 0-1.2 0v.6H8.4v-.6a.6.6 0 0 0-1.2 0v.6H4.8V8.4zm0 8.4H4.8V12h2.4v.6a.6.6 0 1 0 1.2 0V12h7.2v.6a.6.6 0 1 0 1.2 0V12h2.4z"/></symbol><symbol viewBox="0 0 24 24" id="trash" xmlns="http://www.w3.org/2000/svg"><path d="M18.6 6h-3v-.6a1.8 1.8 0 0 0-1.8-1.8h-3.6a1.8 1.8 0 0 0-1.8 1.8V6h-3a.6.6 0 0 0 0 1.2H6V18a1.2 1.2 0 0 0 1.2 1.2h9.6A1.2 1.2 0 0 0 18 18V7.2h.6a.6.6 0 0 0 0-1.2m-9-.6a.6.6 0 0 1 .6-.6h3.6a.6.6 0 0 1 .6.6V6H9.6zM16.8 18H7.2V7.2h9.6zm-6-7.8V15a.6.6 0 1 1-1.2 0v-4.8a.6.6 0 1 1 1.2 0m3.6 0V15a.6.6 0 1 1-1.2 0v-4.8a.6.6 0 1 1 1.2 0"/></symbol><symbol viewBox="0 0 24 24" id="truck-trailer" xmlns="http://www.w3.org/2000/svg"><path d="M19.2 9.66V9.6A4.204 4.204 0 0 0 15 5.4h-.6a1.2 1.2 0 0 0-1.2 1.2v9H12V7.8a.6.6 0 0 0-.6-.6H3.6a1.2 1.2 0 0 0-1.2 1.2v7.8a2.4 2.4 0 0 0 4.2 1.585 2.4 2.4 0 0 0 4.125-.985h6.15a2.4 2.4 0 0 0 4.725-.6v-3.6a3.005 3.005 0 0 0-2.4-2.94M14.4 6.6h.6a3 3 0 0 1 3 3v.6a.6.6 0 0 0 .6.6 1.8 1.8 0 0 1 1.8 1.8v1.523a2.4 2.4 0 0 0-1.2-.323 2.405 2.405 0 0 0-2.325 1.8H14.4zm-3.6 1.8v7.2h-.075a2.4 2.4 0 0 0-4.125-.985 2.39 2.39 0 0 0-3-.492V8.4zm-6 9a1.2 1.2 0 1 1 0-2.4 1.2 1.2 0 0 1 0 2.4m3.6 0a1.2 1.2 0 1 1 0-2.4 1.2 1.2 0 0 1 0 2.4m10.8 0a1.2 1.2 0 1 1 0-2.401 1.2 1.2 0 0 1 0 2.401"/></symbol><symbol viewBox="0 0 24 24" id="upload" xmlns="http://www.w3.org/2000/svg"><path d="M20.4 12.6v4.8a1.2 1.2 0 0 1-1.2 1.2H4.8a1.2 1.2 0 0 1-1.2-1.2v-4.8a1.2 1.2 0 0 1 1.2-1.2h3.6a.6.6 0 1 1 0 1.2H4.8v4.8h14.4v-4.8h-3.6a.6.6 0 0 1 0-1.2h3.6a1.2 1.2 0 0 1 1.2 1.2M8.824 8.224 11.4 5.648V12a.6.6 0 1 0 1.2 0V5.648l2.576 2.576a.6.6 0 0 0 .848-.849l-3.6-3.6a.6.6 0 0 0-.848 0l-3.6 3.6a.6.6 0 1 0 .848.85M17.4 15a.9.9 0 1 0-1.8 0 .9.9 0 0 0 1.8 0"/></symbol><symbol viewBox="0 0 24 24" id="user" xmlns="http://www.w3.org/2000/svg"><path d="M19.719 18.3c-1.142-1.975-2.902-3.39-4.957-4.062a5.4 5.4 0 1 0-5.524 0c-2.055.67-3.815 2.087-4.957 4.062a.6.6 0 1 0 1.039.6C6.733 16.458 9.23 15 12 15s5.267 1.458 6.68 3.9a.601.601 0 1 0 1.039-.6M7.8 9.6a4.2 4.2 0 1 1 8.4 0 4.2 4.2 0 0 1-8.4 0"/></symbol><symbol viewBox="0 0 24 24" id="users-three" xmlns="http://www.w3.org/2000/svg"><path d="M20.76 13.68a.603.603 0 0 1-.84-.12A3.87 3.87 0 0 0 16.8 12a.6.6 0 1 1 0-1.2 1.801 1.801 0 1 0-1.743-2.25.6.6 0 0 1-1.162-.3 3 3 0 1 1 4.93 2.963 5.1 5.1 0 0 1 2.057 1.626.6.6 0 0 1-.122.841m-4.041 4.62a.601.601 0 1 1-1.038.6 4.276 4.276 0 0 0-7.362 0 .6.6 0 1 1-1.038-.6 5.4 5.4 0 0 1 2.53-2.244 3.6 3.6 0 1 1 4.377 0A5.4 5.4 0 0 1 16.72 18.3M12 15.6a2.4 2.4 0 1 0 0-4.8 2.4 2.4 0 0 0 0 4.8m-4.2-4.2a.6.6 0 0 0-.6-.6 1.8 1.8 0 1 1 1.743-2.25.6.6 0 0 0 1.162-.3 3 3 0 1 0-4.93 2.963A5.1 5.1 0 0 0 3.12 12.84a.6.6 0 0 0 .96.721A3.87 3.87 0 0 1 7.2 12a.6.6 0 0 0 .6-.6"/></symbol><symbol viewBox="0 0 24 24" id="warning" xmlns="http://www.w3.org/2000/svg"><path d="m20.16 16.507-6.559-11.39a1.857 1.857 0 0 0-3.202 0L3.84 16.507a1.76 1.76 0 0 0 0 1.779 1.83 1.83 0 0 0 1.601.914H18.56a1.826 1.826 0 0 0 1.841-1.803c0-.313-.082-.62-.24-.89m-1.04 1.178a.64.64 0 0 1-.561.315H5.44a.64.64 0 0 1-.56-.315.57.57 0 0 1 0-.579l6.558-11.39a.657.657 0 0 1 1.125 0l6.559 11.39a.57.57 0 0 1-.003.579M11.4 13.2v-3a.6.6 0 0 1 1.2 0v3a.6.6 0 0 1-1.2 0m1.5 2.7a.9.9 0 1 1-1.8 0 .9.9 0 0 1 1.8 0"/></symbol><symbol viewBox="0 0 24 24" id="warning-circle" xmlns="http://www.w3.org/2000/svg"><path d="M12 4.2a7.8 7.8 0 1 0 7.8 7.8A7.81 7.81 0 0 0 12 4.2m0 14.4a6.6 6.6 0 1 1 6.6-6.6 6.61 6.61 0 0 1-6.6 6.6m-.6-6V8.4a.6.6 0 1 1 1.2 0v4.2a.6.6 0 1 1-1.2 0m1.5 2.7a.9.9 0 1 1-1.8 0 .9.9 0 0 1 1.8 0"/></symbol><symbol viewBox="0 0 24 24" id="warning-diamond" xmlns="http://www.w3.org/2000/svg"><path d="M12 7.8a.6.6 0 0 1 .6.6v4.2a.6.6 0 0 1-1.2 0V8.4a.6.6 0 0 1 .6-.6m-.9 7.5a.9.9 0 1 0 1.8 0 .9.9 0 0 0-1.8 0m9.3-3.3a1.2 1.2 0 0 1-.35.846l-7.204 7.204a1.2 1.2 0 0 1-1.692 0l-7.2-7.204a1.2 1.2 0 0 1 0-1.692l7.204-7.204a1.2 1.2 0 0 1 1.692 0l7.204 7.204A1.2 1.2 0 0 1 20.4 12m-1.2 0L12 4.8 4.8 12l7.2 7.2z"/></symbol><symbol viewBox="0 0 24 24" id="warning-octagon" xmlns="http://www.w3.org/2000/svg"><path d="M11.4 12.6V8.4a.6.6 0 1 1 1.2 0v4.2a.6.6 0 0 1-1.2 0m8.4-3.334v5.468a1.2 1.2 0 0 1-.352.848l-3.866 3.866a1.2 1.2 0 0 1-.848.352H9.266a1.2 1.2 0 0 1-.848-.352l-3.866-3.866a1.2 1.2 0 0 1-.352-.848V9.266a1.2 1.2 0 0 1 .352-.848l3.866-3.866a1.2 1.2 0 0 1 .848-.352h5.468a1.2 1.2 0 0 1 .848.352l3.866 3.866a1.2 1.2 0 0 1 .352.848m-1.2 0L14.734 5.4H9.266L5.4 9.266v5.468L9.266 18.6h5.468l3.866-3.866zM12 14.4a.9.9 0 1 0 0 1.8.9.9 0 0 0 0-1.8"/></symbol><symbol viewBox="0 0 24 24" id="windows" xmlns="http://www.w3.org/2000/svg"><path d="M10.2 13.2v3.873a.6.6 0 0 1-.707.59l-4.8-.873a.6.6 0 0 1-.493-.59v-3a.6.6 0 0 1 .6-.6h4.8a.6.6 0 0 1 .6.6m-.215-6.733a.6.6 0 0 0-.492-.13l-4.8.873a.6.6 0 0 0-.493.59v3a.6.6 0 0 0 .6.6h4.8a.6.6 0 0 0 .6-.6V6.927a.6.6 0 0 0-.215-.46M18 12.6h-6a.6.6 0 0 0-.6.6v4.309a.6.6 0 0 0 .493.59l6 1.091q.053.01.107.01a.6.6 0 0 0 .6-.6v-5.4a.6.6 0 0 0-.6-.6m.385-7.66a.6.6 0 0 0-.492-.13l-6 1.091a.6.6 0 0 0-.493.59V10.8a.6.6 0 0 0 .6.6h6a.6.6 0 0 0 .6-.6V5.4a.6.6 0 0 0-.215-.46"/></symbol><symbol viewBox="0 0 24 24" id="wrench" xmlns="http://www.w3.org/2000/svg"><path d="M19.407 7.575a.6.6 0 0 0-.963-.216l-3.022 2.79-1.293-.278-.277-1.292 2.789-3.023a.6.6 0 0 0-.216-.963A5.4 5.4 0 0 0 9 9.6a5.4 5.4 0 0 0 .45 2.17l-4.516 3.905-.032.03a2.4 2.4 0 1 0 3.424 3.362l3.903-4.517A5.4 5.4 0 0 0 19.8 9.6a5.4 5.4 0 0 0-.393-2.025M14.4 13.8a4.2 4.2 0 0 1-2.03-.525.6.6 0 0 0-.744.133l-4.193 4.855a1.2 1.2 0 0 1-1.696-1.696l4.852-4.192a.6.6 0 0 0 .132-.745 4.2 4.2 0 0 1 4.377-6.173l-2.34 2.536a.6.6 0 0 0-.145.532l.424 1.975a.6.6 0 0 0 .46.46l1.977.425a.6.6 0 0 0 .532-.146l2.536-2.34A4.205 4.205 0 0 1 14.4 13.8"/></symbol><symbol viewBox="0 0 24 24" id="x" xmlns="http://www.w3.org/2000/svg"><path d="M17.825 16.976a.601.601 0 0 1-.85.849L12 12.848l-4.975 4.977a.6.6 0 1 1-.85-.85L11.153 12 6.176 7.025a.6.6 0 1 1 .849-.85L12 11.153l4.976-4.976a.6.6 0 0 1 .849.849L12.848 12z"/></symbol></svg>