<svg xmlns="http://www.w3.org/2000/svg" viewBox="0 0 24 24" width="24" height="24"><path d="M12 19.493a7.3 7.3 0 0 1-2.927-.593 7.6 7.6 0 0 1-2.375-1.605 7.6 7.6 0 0 1-1.604-2.375 7.3 7.3 0 0 1-.594-2.927q0-1.562.594-2.927.593-1.365 1.604-2.375a7.6 7.6 0 0 1 2.375-1.604A7.3 7.3 0 0 1 12 4.493q1.563 0 2.927.594 1.364.593 2.375 1.604a7.6 7.6 0 0 1 1.604 2.375q.594 1.365.594 2.927a7.3 7.3 0 0 1-.594 2.927 7.6 7.6 0 0 1-1.604 2.375 7.6 7.6 0 0 1-2.375 1.604 7.3 7.3 0 0 1-2.927.594m2.333-4 1.167-1.166-2.667-2.667V7.827h-1.666v4.5zM6.667 3.118l1.166 1.167-3.541 3.542L3.125 6.66zm10.666 0 3.542 3.542-1.167 1.167-3.541-3.542z"/></svg>