<svg xmlns="http://www.w3.org/2000/svg" viewBox="0 0 24 24" width="24" height="24"><path d="M7 18.667q-.687 0-1.177-.49A1.6 1.6 0 0 1 5.333 17q0-.687.49-1.177T7 15.333t1.177.49.49 1.177-.49 1.177-1.177.49m5 0q-.687 0-1.177-.49a1.6 1.6 0 0 1-.49-1.177q0-.687.49-1.177t1.177-.49 1.177.49.49 1.177-.49 1.177-1.177.49m5 0q-.687 0-1.177-.49a1.6 1.6 0 0 1-.49-1.177q0-.687.49-1.177t1.177-.49 1.177.49.49 1.177-.49 1.177-1.177.49m-10-5q-.687 0-1.177-.49A1.6 1.6 0 0 1 5.333 12q0-.687.49-1.177T7 10.333t1.177.49.49 1.177-.49 1.177-1.177.49m5 0q-.687 0-1.177-.49a1.6 1.6 0 0 1-.49-1.177q0-.687.49-1.177t1.177-.49 1.177.49.49 1.177-.49 1.177-1.177.49m5 0q-.687 0-1.177-.49a1.6 1.6 0 0 1-.49-1.177q0-.687.49-1.177t1.177-.49 1.177.49.49 1.177-.49 1.177-1.177.49m-10-5q-.687 0-1.177-.49A1.6 1.6 0 0 1 5.333 7q0-.687.49-1.177T7 5.333t1.177.49T8.667 7t-.49 1.177T7 8.667m5 0q-.687 0-1.177-.49A1.6 1.6 0 0 1 10.333 7q0-.687.49-1.177T12 5.333t1.177.49.49 1.177-.49 1.177-1.177.49m5 0q-.687 0-1.177-.49A1.6 1.6 0 0 1 15.333 7q0-.687.49-1.177T17 5.333t1.177.49.49 1.177-.49 1.177-1.177.49"/></svg>