<svg xmlns="http://www.w3.org/2000/svg" viewBox="0 0 24 24" width="24" height="24"><path d="M12 4.5q1.542 0 2.906.594a7.7 7.7 0 0 1 2.386 1.614 7.7 7.7 0 0 1 1.614 2.386Q19.5 10.458 19.5 12a7.2 7.2 0 0 1-.594 2.906 7.7 7.7 0 0 1-1.614 2.386 7.7 7.7 0 0 1-2.386 1.614A7.2 7.2 0 0 1 12 19.5q-.854 0-1.646-.187a9 9 0 0 1-1.583-.542l1.27-1.271q.48.166.97.25t.989.083q2.416 0 4.125-1.708 1.708-1.709 1.708-4.125t-1.708-4.125T12 6.167 7.875 7.875 6.167 12a5.9 5.9 0 0 0 .333 1.958l-1.25 1.25A7.05 7.05 0 0 1 4.5 12q0-1.542.594-2.906a7.7 7.7 0 0 1 1.614-2.386 7.7 7.7 0 0 1 2.386-1.614A7.2 7.2 0 0 1 12 4.5m.833 10.833v-3L5.667 19.5 4.5 18.333l7.167-7.166h-3V9.5H14.5v5.833z"/></svg>