<svg xmlns="http://www.w3.org/2000/svg" viewBox="0 0 24 24" width="24" height="24"><path d="M12 20.333a8.1 8.1 0 0 1-3.25-.656 8.4 8.4 0 0 1-2.646-1.781 8.4 8.4 0 0 1-1.781-2.646A8.1 8.1 0 0 1 3.667 12q0-1.73.656-3.25a8.4 8.4 0 0 1 1.781-2.646A8.4 8.4 0 0 1 8.75 4.323 8.1 8.1 0 0 1 12 3.667q1.73 0 3.25.656a8.4 8.4 0 0 1 2.646 1.781 8.4 8.4 0 0 1 1.781 2.646 8.1 8.1 0 0 1 .656 3.25v1.208q0 1.23-.843 2.094-.845.865-2.073.865-.73 0-1.375-.313a2.94 2.94 0 0 1-1.084-.896 4 4 0 0 1-1.364.907 4.3 4.3 0 0 1-1.594.302q-1.729 0-2.948-1.22Q7.833 13.73 7.833 12t1.219-2.948T12 7.833t2.948 1.22Q16.167 10.27 16.167 12v1.208q0 .542.354.917t.896.375.895-.375.355-.917V12q0-2.791-1.938-4.73Q14.792 5.335 12 5.334q-2.792 0-4.73 1.938Q5.335 9.209 5.334 12q0 2.792 1.938 4.73Q9.208 18.665 12 18.666h4.167v1.666zm0-5.833a2.4 2.4 0 0 0 1.77-.73q.73-.727.73-1.77 0-1.042-.73-1.77A2.4 2.4 0 0 0 12 9.5a2.4 2.4 0 0 0-1.77.73A2.4 2.4 0 0 0 9.5 12q0 1.042.73 1.77a2.4 2.4 0 0 0 1.77.73"/></svg>