<svg xmlns="http://www.w3.org/2000/svg" viewBox="0 0 24 24" width="24" height="24"><path d="M21.375 18.25a.625.625 0 0 1-.625.625H3.25a.625.625 0 1 1 0-1.25h17.5a.625.625 0 0 1 .625.625M3.273 9.67a.625.625 0 0 1 .275-.703l8.125-5a.63.63 0 0 1 .654 0l8.125 5a.625.625 0 0 1-.327 1.158H18.25v5h1.25a.625.625 0 0 1 0 1.25h-15a.625.625 0 1 1 0-1.25h1.25v-5H3.875a.625.625 0 0 1-.602-.455m9.977 4.83a.625.625 0 1 0 1.25 0v-3.75a.625.625 0 1 0-1.25 0zm-3.75 0a.625.625 0 1 0 1.25 0v-3.75a.625.625 0 1 0-1.25 0z"/></svg>