<svg xmlns="http://www.w3.org/2000/svg" viewBox="0 0 24 24" width="24" height="24"><path d="M19.8 6v3a.6.6 0 0 1-1.2 0V6.6h-2.4a.6.6 0 1 1 0-1.2h3a.6.6 0 0 1 .6.6m-12 11.4H5.4V15a.6.6 0 0 0-1.2 0v3a.6.6 0 0 0 .6.6h3a.6.6 0 1 0 0-1.2m11.4-3a.6.6 0 0 0-.6.6v2.4h-2.4a.6.6 0 1 0 0 1.2h3a.6.6 0 0 0 .6-.6v-3a.6.6 0 0 0-.6-.6M4.8 9.6a.6.6 0 0 0 .6-.6V6.6h2.4a.6.6 0 0 0 0-1.2h-3a.6.6 0 0 0-.6.6v3a.6.6 0 0 0 .6.6m3.6-1.2a.6.6 0 0 0-.6.6v6A.6.6 0 1 0 9 15V9a.6.6 0 0 0-.6-.6m7.8 6.6V9A.6.6 0 0 0 15 9v6a.6.6 0 1 0 1.2 0m-3-6.6a.6.6 0 0 0-.6.6v6a.6.6 0 1 0 1.2 0V9a.6.6 0 0 0-.6-.6m-2.4 0a.6.6 0 0 0-.6.6v6a.6.6 0 1 0 1.2 0V9a.6.6 0 0 0-.6-.6"/></svg>