<svg xmlns="http://www.w3.org/2000/svg" viewBox="0 0 24 24" width="24" height="24"><path d="M11.395 11.74h1.2v3.53h-1.2zM15.965 11.74h-1.21l-.47 3.53h1.21zM9.235 11.74l.47 3.53h-1.21l-.47-3.53z"/><path fill-rule="evenodd" d="M20.245 8.62c.05.06.1.14.12.22l.01-.01c.02.08.03.17.02.25l-1.13 8.48a1.21 1.21 0 0 1-1.19 1.04H5.925a1.214 1.214 0 0 1-1.19-1.04l-1.13-8.48c-.01-.08 0-.17.02-.25s.06-.16.12-.22c.05-.06.12-.12.2-.15s.16-.05.25-.05h3.33l4.02-4.6c.05-.06.12-.11.2-.15.08-.03.16-.05.25-.05s.17.01.25.05c.07.04.14.09.2.15l4.02 4.61h3.33c.09 0 .17.01.25.05a.7.7 0 0 1 .2.15M12 5.836 9.745 8.41h4.51zM6.325 16.94h11.32l.92-6.87H5.405z" clip-rule="evenodd"/></svg>