<svg xmlns="http://www.w3.org/2000/svg" viewBox="0 0 24 24" width="24" height="24"><path d="M12.6 11.4v4.2a.6.6 0 1 1-1.2 0v-4.2a.6.6 0 1 1 1.2 0m2.763-.06-.42 4.2a.599.599 0 1 0 1.194.12l.42-4.2a.6.6 0 0 0-1.194-.12m-6.726 0a.6.6 0 0 0-1.194.12l.42 4.2a.6.6 0 0 0 .6.54h.06a.6.6 0 0 0 .538-.657zm11.758-2.26-1.13 8.479a1.204 1.204 0 0 1-1.19 1.04H5.925a1.204 1.204 0 0 1-1.19-1.04l-1.13-8.48A.6.6 0 0 1 4.2 8.4h3.328l4.022-4.594a.6.6 0 0 1 .9 0L16.472 8.4H19.8a.6.6 0 0 1 .595.68M9.122 8.4h5.756L12 5.111zm9.993 1.2H4.884l1.04 7.8h12.15z"/></svg>