<svg xmlns="http://www.w3.org/2000/svg" viewBox="0 0 24 24" width="24" height="24"><path d="M19.2 7.732a.6.6 0 0 1-.808-.256 7.06 7.06 0 0 0-2.51-2.768.6.6 0 1 1 .64-1.016 8.36 8.36 0 0 1 2.935 3.232.6.6 0 0 1-.257.808M5.078 7.8a.6.6 0 0 0 .533-.324 7.06 7.06 0 0 1 2.51-2.768.6.6 0 1 0-.641-1.016 8.36 8.36 0 0 0-2.934 3.232.6.6 0 0 0 .532.876m13.958 7.796A1.2 1.2 0 0 1 18 17.4h-3.06a3 3 0 0 1-5.88 0H6a1.2 1.2 0 0 1-1.034-1.804C5.642 14.429 6 12.77 6 10.8a6 6 0 0 1 12 0c0 1.97.358 3.628 1.036 4.795m-5.34 1.804h-3.392a1.8 1.8 0 0 0 3.393 0M18 16.2c-.798-1.37-1.2-3.187-1.2-5.4a4.8 4.8 0 1 0-9.6 0c0 2.214-.403 4.03-1.2 5.4z"/></svg>