<svg xmlns="http://www.w3.org/2000/svg" viewBox="0 0 24 24" width="24" height="24"><path d="M12.625 11.375H14.5v1.25h-1.875zM20.75 7v10.625a.624.624 0 0 1-.625.625H5.75a2.5 2.5 0 0 1-2.5-2.5V7a2.5 2.5 0 0 1 2.5-2.5H7a.625.625 0 0 1 .625.625v1.25h12.5A.625.625 0 0 1 20.75 7M6.375 5.75H5.75A1.25 1.25 0 0 0 4.5 7v6.585c.38-.22.811-.336 1.25-.335h.625zm9.375 6.875v-1.25H17a.624.624 0 1 0 0-1.25h-1.25V9.5a.625.625 0 1 0-1.25 0v.625h-1.875V9.5a.625.625 0 1 0-1.25 0v.625h-1.25a.625.625 0 1 0 0 1.25h1.25v1.25h-1.25a.625.625 0 1 0 0 1.25h1.25v.625a.624.624 0 1 0 1.25 0v-.625H14.5v.625a.624.624 0 1 0 1.25 0v-.625H17a.624.624 0 1 0 0-1.25z"/></svg>