<svg xmlns="http://www.w3.org/2000/svg" viewBox="0 0 24 24" width="24" height="24"><path d="M15.125 12a3.125 3.125 0 1 1-6.25 0 3.125 3.125 0 0 1 6.25 0m3.125 0a6.23 6.23 0 0 0-1.591-4.166.625.625 0 1 0-.932.833 5 5 0 0 1 0 6.667.625.625 0 0 0 .931.833A6.23 6.23 0 0 0 18.25 12M8.273 8.667a.625.625 0 1 0-.932-.833 6.245 6.245 0 0 0 0 8.333.625.625 0 0 0 .932-.833 4.996 4.996 0 0 1 0-6.667m12.365-.312a9.3 9.3 0 0 0-1.942-2.917.625.625 0 1 0-.892.875 8.117 8.117 0 0 1 0 11.371.624.624 0 0 0 .45 1.065.62.62 0 0 0 .442-.186A9.38 9.38 0 0 0 20.638 8.35zM4.513 15.162a8.12 8.12 0 0 1 1.683-8.848.625.625 0 1 0-.892-.876 9.365 9.365 0 0 0 0 13.125.624.624 0 1 0 .892-.875 8.1 8.1 0 0 1-1.683-2.525"/></svg>