<svg xmlns="http://www.w3.org/2000/svg" viewBox="0 0 24 24" width="24" height="24"><path d="M12 13.667a.8.8 0 0 1-.594-.24.8.8 0 0 1-.24-.594q0-.354.24-.593.24-.24.594-.24t.594.24.24.593-.24.594a.8.8 0 0 1-.594.24m-3.333 0a.8.8 0 0 1-.594-.24.8.8 0 0 1-.24-.594q0-.354.24-.593.24-.24.594-.24t.593.24.24.593-.24.594a.8.8 0 0 1-.593.24m6.666 0a.8.8 0 0 1-.593-.24.8.8 0 0 1-.24-.594q0-.354.24-.593.24-.24.593-.24.354 0 .594.24t.24.593-.24.594a.8.8 0 0 1-.594.24M12 17a.8.8 0 0 1-.594-.24.8.8 0 0 1-.24-.593q0-.354.24-.594t.594-.24.594.24.24.594-.24.593A.8.8 0 0 1 12 17m-3.333 0a.8.8 0 0 1-.594-.24.8.8 0 0 1-.24-.593q0-.354.24-.594t.594-.24.593.24.24.594-.24.593a.8.8 0 0 1-.593.24m6.666 0a.8.8 0 0 1-.593-.24.8.8 0 0 1-.24-.593q0-.354.24-.594t.593-.24.594.24.24.594-.24.593a.8.8 0 0 1-.594.24m-9.166 3.333q-.688 0-1.177-.49a1.6 1.6 0 0 1-.49-1.176V7q0-.687.49-1.177.489-.49 1.177-.49H7V3.667h1.667v1.666h6.666V3.667H17v1.666h.833q.688 0 1.177.49T19.5 7v11.667q0 .687-.49 1.177-.489.49-1.177.49zm0-1.666h11.666v-8.334H6.167z"/></svg>