<svg xmlns="http://www.w3.org/2000/svg" viewBox="0 0 24 24" width="24" height="24"><path d="M18 4.8h-1.8v-.6a.6.6 0 1 0-1.2 0v.6H9v-.6a.6.6 0 0 0-1.2 0v.6H6A1.2 1.2 0 0 0 4.8 6v12A1.2 1.2 0 0 0 6 19.2h12a1.2 1.2 0 0 0 1.2-1.2V6A1.2 1.2 0 0 0 18 4.8M7.8 6v.6a.6.6 0 1 0 1.2 0V6h6v.6a.6.6 0 1 0 1.2 0V6H18v2.4H6V6zM18 18H6V9.6h12zm-5.1-5.7a.9.9 0 1 1-1.8 0 .9.9 0 0 1 1.8 0m3.3 0a.9.9 0 1 1-1.8 0 .9.9 0 0 1 1.8 0m-6.6 3a.9.9 0 1 1-1.8 0 .9.9 0 0 1 1.8 0m3.3 0a.9.9 0 1 1-1.8 0 .9.9 0 0 1 1.8 0m3.3 0a.9.9 0 1 1-1.8 0 .9.9 0 0 1 1.8 0"/></svg>