<svg xmlns="http://www.w3.org/2000/svg" viewBox="0 0 24 24" width="24" height="24"><path d="M13.458 17.833a.8.8 0 0 1-.593-.24.8.8 0 0 1-.24-.593V7q0-.354.24-.594t.593-.24h1.146q.354 0 .594.24t.24.594v10q0 .354-.24.594a.8.8 0 0 1-.594.24zm-4.062 0a.8.8 0 0 1-.594-.24.8.8 0 0 1-.24-.593V7q0-.354.24-.594t.594-.24h1.146q.354 0 .593.24.24.24.24.594v10q0 .354-.24.594a.8.8 0 0 1-.593.24zm-4.063 0a.8.8 0 0 1-.593-.24A.8.8 0 0 1 4.5 17V7q0-.354.24-.594t.593-.24H6.48q.354 0 .594.24t.24.594v10q0 .354-.24.594a.8.8 0 0 1-.594.24zm12.188 0a.8.8 0 0 1-.594-.24.8.8 0 0 1-.24-.593V7q0-.354.24-.594t.594-.24h1.146q.354 0 .593.24.24.24.24.594v10q0 .354-.24.594a.8.8 0 0 1-.593.24z"/></svg>