<svg xmlns="http://www.w3.org/2000/svg" viewBox="0 0 24 24" width="24" height="24"><path d="M20.125 8.76V6.375a1.25 1.25 0 0 0-1.25-1.25H5.125a1.25 1.25 0 0 0-1.25 1.25v10a1.25 1.25 0 0 0 1.25 1.25H14.5V19.5a.625.625 0 0 0 .938.547l1.874-1.074 1.875 1.074a.624.624 0 0 0 .938-.547v-4.885a4.05 4.05 0 0 0 0-5.855M12 13.25H7.625a.625.625 0 1 1 0-1.25H12a.624.624 0 1 1 0 1.25m0-2.5H7.625a.625.625 0 1 1 0-1.25H12a.625.625 0 1 1 0 1.25m6.875 7.673-1.25-.716a.63.63 0 0 0-.62 0l-1.25.716v-2.985a4.05 4.05 0 0 0 3.125 0zM17.313 14.5a2.813 2.813 0 1 1 0-5.625 2.813 2.813 0 0 1 0 5.625"/></svg>