<svg xmlns="http://www.w3.org/2000/svg" viewBox="0 0 24 24" width="24" height="24"><path d="M17.838 3.501c.71 0 1.38.28 1.88.78.51.51.791 1.18.791 1.891v11.676c0 .71-.28 1.38-.78 1.88-.51.51-1.18.791-1.891.791H6.172c-.71 0-1.38-.28-1.88-.78-.51-.51-.791-1.18-.791-1.891V6.172c0-.71.28-1.38.78-1.88.51-.51 1.18-.791 1.891-.791h11.676m-.01-2.001H6.172c-1.24 0-2.41.49-3.301 1.37A4.62 4.62 0 0 0 1.51 6.163v11.676c0 1.24.49 2.41 1.37 3.301.881.88 2.052 1.361 3.292 1.361h11.676c1.24 0 2.41-.49 3.301-1.37.88-.881 1.361-2.052 1.361-3.292V6.172c0-1.24-.49-2.41-1.37-3.301a4.62 4.62 0 0 0-3.292-1.361z"/></svg>