<svg xmlns="http://www.w3.org/2000/svg" viewBox="0 0 24 24" width="24" height="24"><path d="M15 13.8a.6.6 0 0 1-.6.6H9.6a.6.6 0 1 1 0-1.2h4.8a.6.6 0 0 1 .6.6m-.6-3H9.6a.6.6 0 1 0 0 1.2h4.8a.6.6 0 1 0 0-1.2M18.6 6v12.6a1.2 1.2 0 0 1-1.2 1.2H6.6a1.2 1.2 0 0 1-1.2-1.2V6a1.2 1.2 0 0 1 1.2-1.2h2.72a3.594 3.594 0 0 1 5.36 0h2.72A1.2 1.2 0 0 1 18.6 6m-9 1.2h4.8a2.4 2.4 0 1 0-4.8 0M17.4 6h-2.006c.136.385.206.791.206 1.2v.6a.6.6 0 0 1-.6.6H9a.6.6 0 0 1-.6-.6v-.6c0-.409.07-.815.206-1.2H6.6v12.6h10.8z"/></svg>