<svg xmlns="http://www.w3.org/2000/svg" viewBox="0 0 24 24" width="24" height="24"><path d="M6.167 19.8q-.688 0-1.177-.49a1.6 1.6 0 0 1-.49-1.177V6.467q0-.688.49-1.177.489-.49 1.177-.49h3.479q.229-.729.896-1.198.666-.469 1.458-.469a2.5 2.5 0 0 1 1.49.47q.656.467.885 1.197h3.458q.688 0 1.177.49.49.489.49 1.177v11.666q0 .688-.49 1.177-.489.49-1.177.49zm0-1.667h11.666V6.467h-1.666v2.5H7.833v-2.5H6.167zM12 6.467q.354 0 .594-.24t.24-.594a.8.8 0 0 0-.24-.593A.8.8 0 0 0 12 4.8a.8.8 0 0 0-.594.24.8.8 0 0 0-.24.593q0 .354.24.594t.594.24"/></svg>