<svg xmlns="http://www.w3.org/2000/svg" viewBox="0 0 24 24" width="24" height="24"><path d="M14.708 6.167q-.437 0-.74-.302a1 1 0 0 1-.301-.74q0-.437.302-.74.302-.301.74-.302.436 0 .739.303.302.3.302.74 0 .436-.302.739a1 1 0 0 1-.74.302m0 13.75q-.437 0-.74-.302a1 1 0 0 1-.301-.74q0-.438.302-.74.302-.301.74-.302.436 0 .739.303.302.3.302.74 0 .436-.302.739a1 1 0 0 1-.74.302m3.334-10.834q-.438 0-.74-.302a1 1 0 0 1-.302-.74q0-.436.302-.739.302-.302.74-.302.437 0 .74.302.3.303.301.74 0 .437-.302.74a1 1 0 0 1-.74.301m0 7.917q-.438 0-.74-.302a1 1 0 0 1-.302-.74q0-.437.302-.74.302-.3.74-.301.437 0 .74.302.3.302.301.74 0 .437-.302.739a1 1 0 0 1-.74.302m1.25-3.958q-.438 0-.74-.302a1 1 0 0 1-.302-.74q0-.437.302-.74.302-.301.74-.302.437 0 .74.303.3.3.301.74 0 .436-.302.739a1 1 0 0 1-.74.302M12 20.333a8.1 8.1 0 0 1-3.25-.656 8.4 8.4 0 0 1-2.646-1.781 8.4 8.4 0 0 1-1.781-2.646A8.1 8.1 0 0 1 3.667 12q0-1.73.656-3.25a8.4 8.4 0 0 1 1.781-2.646A8.4 8.4 0 0 1 8.75 4.323 8.1 8.1 0 0 1 12 3.667v1.666q-2.792 0-4.73 1.938Q5.335 9.208 5.334 12q0 2.79 1.938 4.728T12 18.667zm2.75-4.416-3.583-3.584v-4.5h1.666v3.834l3.084 3.083z"/></svg>