<svg xmlns="http://www.w3.org/2000/svg" viewBox="0 0 24 24" width="24" height="24"><path d="M18.806 11.66a.624.624 0 1 0-1.112-.57 6.2 6.2 0 0 1-2.585 2.618L13.684 10.5a2.813 2.813 0 0 0-1.059-4.992V3.875a.625.625 0 0 0-1.25 0v1.634a2.812 2.812 0 0 0-1.06 4.992L6.43 19.246a.625.625 0 1 0 1.142.508l1.964-4.419A7.5 7.5 0 0 0 12 15.75a7.8 7.8 0 0 0 2.469-.407l1.96 4.41a.625.625 0 0 0 1.142-.507l-1.953-4.394a7.5 7.5 0 0 0 3.188-3.193M12 14.5a6.2 6.2 0 0 1-1.953-.312l1.412-3.179c.358.071.727.071 1.085 0l1.417 3.188A6.5 6.5 0 0 1 12 14.5"/></svg>