<svg xmlns="http://www.w3.org/2000/svg" viewBox="0 0 24 24" width="24" height="24"><path d="M20.125 5.75v3.125a.625.625 0 1 1-1.25 0v-2.5h-2.5a.625.625 0 1 1 0-1.25H19.5a.625.625 0 0 1 .625.625m-12.5 11.875h-2.5v-2.5a.625.625 0 1 0-1.25 0v3.125a.625.625 0 0 0 .625.625h3.125a.625.625 0 1 0 0-1.25M19.5 14.5a.624.624 0 0 0-.625.625v2.5h-2.5a.624.624 0 1 0 0 1.25H19.5a.624.624 0 0 0 .625-.625v-3.125a.624.624 0 0 0-.625-.625m-15-5a.625.625 0 0 0 .625-.625v-2.5h2.5a.625.625 0 0 0 0-1.25H4.5a.625.625 0 0 0-.625.625v3.125A.625.625 0 0 0 4.5 9.5m11.4-.991-3.588-2.052a.63.63 0 0 0-.62 0L8.1 8.509a.313.313 0 0 0 0 .546l3.9 2.226 3.9-2.23a.312.312 0 0 0 0-.542M7 10.4V14.5a.63.63 0 0 0 .313.547l3.593 2.052a.312.312 0 0 0 .469-.27v-4.466L7.469 10.13A.312.312 0 0 0 7 10.4M17 14.5v-4.1a.312.312 0 0 0-.469-.27l-3.906 2.233v4.461a.312.312 0 0 0 .469.271l3.594-2.048A.63.63 0 0 0 17 14.5"/></svg>