<svg xmlns="http://www.w3.org/2000/svg" viewBox="0 0 24 24" width="24" height="24"><path d="M17.833 19.5 12 13.667l-1.958 1.958q.165.312.229.667.062.354.062.708a3.2 3.2 0 0 1-.979 2.354 3.2 3.2 0 0 1-2.354.98 3.2 3.2 0 0 1-2.354-.98A3.2 3.2 0 0 1 3.666 17q0-1.375.98-2.354A3.2 3.2 0 0 1 7 13.666q.354 0 .708.063.355.063.667.23L10.333 12l-1.958-1.958q-.312.165-.667.229a4 4 0 0 1-.708.062 3.2 3.2 0 0 1-2.354-.979A3.2 3.2 0 0 1 3.666 7q0-1.375.98-2.354A3.2 3.2 0 0 1 7 3.666a3.2 3.2 0 0 1 2.354.98A3.2 3.2 0 0 1 10.334 7q0 .354-.063.708a2.2 2.2 0 0 1-.23.667l10.292 10.292v.833zM14.5 11.167 12.833 9.5l5-5h2.5v.833zM7 8.667q.687 0 1.177-.49T8.667 7t-.49-1.177A1.6 1.6 0 0 0 7 5.333q-.687 0-1.177.49T5.333 7t.49 1.177T7 8.667m5 3.75a.4.4 0 0 0 .292-.125.4.4 0 0 0 0-.584.4.4 0 0 0-.584 0 .4.4 0 0 0-.125.292.4.4 0 0 0 .125.292.4.4 0 0 0 .292.125m-5 6.25q.687 0 1.177-.49T8.667 17t-.49-1.177A1.6 1.6 0 0 0 7 15.333q-.687 0-1.177.49T5.333 17t.49 1.177 1.177.49"/></svg>