<svg xmlns="http://www.w3.org/2000/svg" viewBox="0 0 24 24" width="24" height="24"><path d="M13.667 18.667V17h2.5q.354 0 .593-.24.24-.24.24-.593V14.5q0-.792.458-1.437a2.5 2.5 0 0 1 1.209-.917v-.292a2.5 2.5 0 0 1-1.209-.916A2.43 2.43 0 0 1 17 9.5V7.833a.8.8 0 0 0-.24-.593.8.8 0 0 0-.593-.24h-2.5V5.333h2.5q1.041 0 1.77.73a2.4 2.4 0 0 1 .73 1.77V9.5q0 .354.24.594.239.24.593.24h.833v3.333H19.5a.8.8 0 0 0-.594.24.8.8 0 0 0-.24.593v1.667a2.4 2.4 0 0 1-.729 1.77 2.4 2.4 0 0 1-1.77.73zm-5.834 0a2.4 2.4 0 0 1-1.77-.73 2.4 2.4 0 0 1-.73-1.77V14.5a.8.8 0 0 0-.24-.594.8.8 0 0 0-.593-.24h-.833v-3.333H4.5q.354 0 .594-.24.24-.239.24-.593V7.833q0-1.041.728-1.77a2.4 2.4 0 0 1 1.771-.73h2.5V7h-2.5a.8.8 0 0 0-.593.24.8.8 0 0 0-.24.593V9.5q0 .792-.458 1.438a2.5 2.5 0 0 1-1.209.916v.292q.75.27 1.209.916Q7 13.709 7 14.5v1.667q0 .354.24.593.24.24.593.24h2.5v1.667z"/></svg>