<svg xmlns="http://www.w3.org/2000/svg" viewBox="0 0 24 24" width="24" height="24"><path d="M19.2 7.8H18v-.6a1.8 1.8 0 0 0-1.8-1.8H5.4a1.8 1.8 0 0 0-1.8 1.8v7.2a1.8 1.8 0 0 0 1.8 1.8h8.4v.6a1.8 1.8 0 0 0 1.8 1.8h3.6a1.8 1.8 0 0 0 1.8-1.8V9.6a1.8 1.8 0 0 0-1.8-1.8M5.4 15a.6.6 0 0 1-.6-.6V7.2a.6.6 0 0 1 .6-.6h10.8a.6.6 0 0 1 .6.6v.6h-1.2a1.8 1.8 0 0 0-1.8 1.8V15zm14.4 1.8a.6.6 0 0 1-.6.6h-3.6a.6.6 0 0 1-.6-.6V9.6a.6.6 0 0 1 .6-.6h3.6a.6.6 0 0 1 .6.6zM12.6 18a.6.6 0 0 1-.6.6H9a.6.6 0 1 1 0-1.2h3a.6.6 0 0 1 .6.6m6-7.2a.6.6 0 0 1-.6.6h-1.2a.6.6 0 1 1 0-1.2H18a.6.6 0 0 1 .6.6"/></svg>