<svg xmlns="http://www.w3.org/2000/svg" viewBox="0 0 24 24" width="24" height="24"><path d="M11.576 10.625a.6.6 0 0 0 .848 0l3-3a.6.6 0 0 0 0-.85l-3-3a.6.6 0 0 0-.848 0l-3 3a.6.6 0 0 0 0 .85zM12 5.047 14.152 7.2 12 9.352 9.848 7.2zm.425 8.325a.6.6 0 0 0-.85 0l-3 3a.6.6 0 0 0 0 .85l3 3a.6.6 0 0 0 .85 0l3-3a.6.6 0 0 0 0-.85zM12 18.952 9.848 16.8 12 14.648l2.152 2.152zm8.224-7.377-3-3a.6.6 0 0 0-.849 0l-3 3a.6.6 0 0 0 0 .85l3 3a.6.6 0 0 0 .85 0l3-3a.6.6 0 0 0 0-.85M16.8 14.153 14.648 12 16.8 9.848 18.952 12zm-6.176-2.576-3-3a.6.6 0 0 0-.849 0l-3 3a.6.6 0 0 0 0 .848l3 3a.6.6 0 0 0 .85 0l3-3a.6.6 0 0 0 0-.848M7.2 14.152 5.048 12 7.2 9.848 9.352 12z"/></svg>