<svg xmlns="http://www.w3.org/2000/svg" viewBox="0 0 24 24" width="24" height="24"><path d="M18.5 21.254 15 17.795a10 10 0 0 1-1.469.344q-.74.114-1.531.114-3.145 0-5.604-1.739t-3.563-4.51Q3.271 10.9 3.938 9.95a9.6 9.6 0 0 1 1.52-1.697L3.167 5.92l1.166-1.166 15.334 15.333zm-6.5-5.5q.23 0 .427-.021.198-.021.427-.084l-4.5-4.5a3 3 0 0 0-.083.428q-.021.197-.021.427 0 1.562 1.094 2.656 1.093 1.094 2.656 1.094m6.083.374-2.645-2.624q.145-.355.229-.72.083-.364.083-.78 0-1.563-1.094-2.657Q13.563 8.254 12 8.254a3.5 3.5 0 0 0-.781.083 3.5 3.5 0 0 0-.719.25L8.375 6.462A9.2 9.2 0 0 1 12 5.754q3.145 0 5.604 1.74 2.46 1.738 3.563 4.51-.48 1.23-1.26 2.28a9.2 9.2 0 0 1-1.824 1.844m-3.854-3.833-2.5-2.5q.585-.104 1.073.094.49.198.844.573t.51.864.073.97"/></svg>