<svg xmlns="http://www.w3.org/2000/svg" viewBox="0 0 24 24" width="24" height="24"><path d="M6.444 4.997a.6.6 0 1 0-.888.806l1.443 1.588c-2.724 1.672-3.896 4.249-3.947 4.366a.6.6 0 0 0 0 .488c.026.059.661 1.467 2.073 2.88C7.007 17.005 9.384 18 12 18a9.5 9.5 0 0 0 3.905-.812l1.65 1.816a.6.6 0 1 0 .888-.808zm3.55 5.688 3.125 3.438a2.4 2.4 0 0 1-3.125-3.438M12 16.8c-2.309 0-4.325-.84-5.995-2.494A10 10 0 0 1 4.275 12c.352-.66 1.474-2.504 3.551-3.703l1.35 1.48a3.6 3.6 0 0 0 4.775 5.25l1.104 1.216A8.4 8.4 0 0 1 12 16.8m.45-7.157a.6.6 0 1 1 .225-1.18 3.61 3.61 0 0 1 2.908 3.199.6.6 0 0 1-1.004.497.6.6 0 0 1-.194-.389 2.41 2.41 0 0 0-1.935-2.127m8.496 2.601c-.032.071-.791 1.753-2.502 3.286a.6.6 0 1 1-.8-.894A10 10 0 0 0 19.729 12a10 10 0 0 0-1.734-2.308C16.325 8.04 14.308 7.2 12 7.2q-.73 0-1.452.118a.6.6 0 1 1-.198-1.184A10 10 0 0 1 12 6c2.616 0 4.993.995 6.875 2.876 1.412 1.413 2.047 2.822 2.073 2.881a.6.6 0 0 1 0 .488z"/></svg>