<svg xmlns="http://www.w3.org/2000/svg" viewBox="0 0 24 24" width="24" height="24"><path d="M20.948 11.757c-.026-.06-.661-1.468-2.073-2.88C16.993 6.993 14.616 6 12 6s-4.993.995-6.875 2.876c-1.412 1.413-2.05 2.824-2.073 2.881a.6.6 0 0 0 0 .488c.026.059.661 1.467 2.073 2.88C7.007 17.005 9.384 18 12 18s4.993-.994 6.875-2.876c1.412-1.412 2.047-2.82 2.073-2.88a.6.6 0 0 0 0-.487M12 16.8c-2.309 0-4.325-.84-5.995-2.494A10 10 0 0 1 4.275 12a10 10 0 0 1 1.73-2.306C7.675 8.039 9.691 7.2 12 7.2s4.325.84 5.995 2.494c.686.68 1.27 1.457 1.734 2.306-.541 1.01-2.897 4.8-7.729 4.8m0-8.4a3.6 3.6 0 1 0 0 7.2 3.6 3.6 0 0 0 0-7.2m0 6a2.4 2.4 0 1 1 0-4.8 2.4 2.4 0 0 1 0 4.8"/></svg>