<svg xmlns="http://www.w3.org/2000/svg" viewBox="0 0 24 24" width="24" height="24"><path d="M12 15.75q1.563 0 2.656-1.094Q15.751 13.563 15.75 12t-1.094-2.656T12 8.25 9.344 9.344Q8.25 10.437 8.25 12t1.094 2.656Q10.437 15.751 12 15.75m0-1.5a2.17 2.17 0 0 1-1.594-.656A2.17 2.17 0 0 1 9.75 12q0-.937.656-1.594A2.17 2.17 0 0 1 12 9.75a2.17 2.17 0 0 1 1.594.656q.656.657.656 1.594a2.17 2.17 0 0 1-.656 1.594A2.17 2.17 0 0 1 12 14.25m0 4q-3.042 0-5.542-1.698T2.833 12q1.125-2.854 3.625-4.552T12 5.75t5.542 1.698T21.167 12q-1.126 2.854-3.625 4.552T12 18.25"/></svg>