<svg xmlns="http://www.w3.org/2000/svg" viewBox="0 0 24 24" width="24" height="24"><path d="M19.68 8.75A8.5 8.5 0 0 0 17.9 6.1a8.4 8.4 0 0 0-2.65-1.78c-1.01-.44-2.1-.66-3.25-.66s-2.24.22-3.25.66S6.85 5.35 6.1 6.1 4.76 7.73 4.32 8.75s-.66 2.1-.66 3.25.22 2.24.66 3.25 1.03 1.9 1.78 2.65 1.63 1.34 2.65 1.78c1.01.44 2.1.66 3.25.66h6.67c.46 0 .85-.16 1.18-.49s.49-.72.49-1.18V12c0-1.15-.22-2.24-.66-3.25m-7.02 7.95c-.2.2-.45.3-.74.3s-.54-.1-.74-.3-.3-.45-.3-.74.1-.54.3-.74.45-.3.74-.3.54.1.74.3.3.45.3.74-.1.54-.3.74m1.96-6.12c-.2.33-.55.73-1.03 1.22-.36.36-.6.66-.71.9s-.17.6-.17 1.1h-1.54c0-.62.09-1.12.26-1.49s.49-.75.95-1.16c.36-.32.62-.61.77-.88.15-.26.23-.51.23-.75 0-.33-.12-.6-.38-.8-.25-.2-.56-.3-.94-.3a1.61 1.61 0 0 0-1.6 1.25l-1.38-.54q.315-1.005 1.11-1.56c.53-.38 1.18-.56 1.95-.56.85 0 1.52.23 2.02.68s.75 1.05.75 1.78q0 .63-.3 1.11z"/></svg>