<svg xmlns="http://www.w3.org/2000/svg" viewBox="0 0 24 24" width="24" height="24"><path d="m18.425 7.375-3-3A.6.6 0 0 0 15 4.2H9a1.2 1.2 0 0 0-1.2 1.2v1.2H6.6a1.2 1.2 0 0 0-1.2 1.2v10.8a1.2 1.2 0 0 0 1.2 1.2H15a1.2 1.2 0 0 0 1.2-1.2v-1.2h1.2a1.2 1.2 0 0 0 1.2-1.2V7.8a.6.6 0 0 0-.176-.425M15 18.6H6.6V7.8h5.752L15 10.448V18.6m2.4-2.4h-1.2v-6a.6.6 0 0 0-.175-.425l-3-3A.6.6 0 0 0 12.6 6.6H9V5.4h5.752L17.4 8.048zm-4.2-2.4a.6.6 0 0 1-.6.6H9a.6.6 0 0 1 0-1.2h3.6a.6.6 0 0 1 .6.6m0 2.4a.6.6 0 0 1-.6.6H9a.6.6 0 0 1 0-1.2h3.6a.6.6 0 0 1 .6.6"/></svg>