<svg xmlns="http://www.w3.org/2000/svg" viewBox="0 0 24 24" width="24" height="24"><path fill-rule="evenodd" d="M18.55 7.57a.5.5 0 0 0-.13-.19l-3-3a.5.5 0 0 0-.19-.13.6.6 0 0 0-.23-.05H9c-.32 0-.62.13-.85.35-.23.23-.35.53-.35.85v1.2H6.6c-.32 0-.62.13-.85.35-.22.23-.35.53-.35.85v10.8c0 .32.13.62.35.85.23.23.53.35.85.35H15c.32 0 .62-.13.85-.35.22-.23.35-.53.35-.85v-1.2h1.2c.32 0 .62-.13.85-.35.23-.23.35-.53.35-.85V7.8c0-.08-.02-.16-.05-.23m-5.23 9.59H8.04v-1.32h5.28zm0-2.64H8.04V13.2h5.28zm-1.86-3.18v-3.3l3.3 3.3zm5.94 4.86h-1.2v-6c0-.08-.01-.16-.05-.23a.5.5 0 0 0-.13-.19l-3-3a.5.5 0 0 0-.19-.13.6.6 0 0 0-.23-.05H9V5.4h5.75l2.65 2.65z" clip-rule="evenodd"/></svg>