<svg xmlns="http://www.w3.org/2000/svg" viewBox="0 0 24 24" width="24" height="24"><path d="M19.76 5.809a.63.63 0 0 0-.67.097c-2.187 1.892-4.04.975-6.188-.088-2.225-1.102-4.747-2.35-7.561.088a.63.63 0 0 0-.216.469V19.5a.625.625 0 0 0 1.25 0v-3.456c2.093-1.653 3.896-.761 5.973.267 1.28.634 2.66 1.316 4.14 1.316 1.089 0 2.23-.37 3.424-1.406a.63.63 0 0 0 .215-.469V6.375a.63.63 0 0 0-.368-.566M6.374 14.534v-3.95c1.316-.88 2.55-.905 3.75-.573v4.042c-1.182-.298-2.432-.279-3.75.481m3.75-8.56c.723.221 1.454.582 2.223.963.88.435 1.805.893 2.777 1.137v4.042c1.2.332 2.433.308 3.75-.574v3.915c-1.318 1.04-2.521 1.072-3.75.696v-4.037c-1.69-.468-3.31-1.64-5-2.105z"/></svg>