<svg xmlns="http://www.w3.org/2000/svg" viewBox="0 0 24 24" width="24" height="24"><path d="M5.607 6.15a.6.6 0 0 0-.207.45v12.6a.6.6 0 0 0 1.2 0v-3.317c2.01-1.587 3.74-.731 5.734.256 1.23.608 2.554 1.263 3.975 1.263 1.044 0 2.14-.356 3.286-1.35a.6.6 0 0 0 .207-.45V6.6a.6.6 0 0 0-.995-.45c-2.1 1.817-3.879.937-5.94-.084-2.137-1.059-4.558-2.257-7.26.084M18.6 15.319c-2.01 1.587-3.74.73-5.734-.256-1.875-.926-3.96-1.96-6.266-.63V6.884c2.01-1.587 3.74-.731 5.734.255 1.875.926 3.961 1.96 6.266.63z"/></svg>