<svg xmlns="http://www.w3.org/2000/svg" viewBox="0 0 24 24" width="24" height="24"><path d="M9.5 18.667q-.687 0-1.177-.49A1.6 1.6 0 0 1 7.833 17q0-.687.49-1.177t1.177-.49 1.177.49.49 1.177-.49 1.177-1.177.49m5 0q-.687 0-1.177-.49a1.6 1.6 0 0 1-.49-1.177q0-.687.49-1.177t1.177-.49 1.177.49.49 1.177-.49 1.177-1.177.49m-5-5q-.687 0-1.177-.49A1.6 1.6 0 0 1 7.833 12q0-.687.49-1.177t1.177-.49 1.177.49.49 1.177-.49 1.177-1.177.49m5 0q-.687 0-1.177-.49a1.6 1.6 0 0 1-.49-1.177q0-.687.49-1.177t1.177-.49 1.177.49.49 1.177-.49 1.177-1.177.49m-5-5q-.687 0-1.177-.49A1.6 1.6 0 0 1 7.833 7q0-.687.49-1.177t1.177-.49 1.177.49.49 1.177-.49 1.177-1.177.49m5 0q-.687 0-1.177-.49A1.6 1.6 0 0 1 12.833 7q0-.687.49-1.177t1.177-.49 1.177.49.49 1.177-.49 1.177-1.177.49"/></svg>