<svg xmlns="http://www.w3.org/2000/svg" viewBox="0 0 24 24" width="24" height="24"><path fill-rule="evenodd" d="M15.93 5c-.22 0-.44.02-.66.05-1.59.23-2.56 1.16-3.27 2.5-.71-1.35-1.68-2.27-3.27-2.5-.22-.03-.44-.05-.66-.05a4.7 4.7 0 0 0-2.91 1.03A5.08 5.08 0 0 0 3.3 9.37c-.75 5.67 8.07 10.36 8.41 10.55.09.05.19.08.29.08s.2-.03.29-.08c.34-.19 9.16-4.88 8.41-10.55a5.18 5.18 0 0 0-1.87-3.35A4.7 4.7 0 0 0 15.93 5m0 1.67c.68 0 1.32.23 1.87.66.68.54 1.13 1.36 1.25 2.26.44 3.31-4.02 6.83-7.05 8.59-3.03-1.76-7.49-5.28-7.05-8.59.12-.9.58-1.72 1.25-2.26a3 3 0 0 1 2.29-.63c.91.13 1.5.6 2.03 1.63.29.55.86.89 1.47.89s1.19-.34 1.47-.89c.54-1.02 1.13-1.49 2.03-1.63q.21-.03.42-.03" clip-rule="evenodd"/></svg>