<svg xmlns="http://www.w3.org/2000/svg" viewBox="0 0 24 24" width="24" height="24"><path d="M12 17q.438 0 .74-.302t.302-.74-.302-.74a1 1 0 0 0-.74-.301q-.437 0-.74.302a1 1 0 0 0-.302.74q0 .437.302.739.303.302.74.302m-.75-3.208h1.542q0-.75.166-1.104.167-.355.709-.896.73-.73 1.03-1.22.303-.488.303-1.114 0-1.104-.75-1.78Q13.5 7 12.23 7q-1.147 0-1.949.563T9.167 9.125l1.375.542q.145-.562.583-.907.438-.343 1.02-.343.563 0 .938.302t.375.802q0 .354-.229.75-.23.395-.77.875-.688.604-.949 1.156-.26.552-.26 1.49M6.167 19.5q-.688 0-1.177-.49a1.6 1.6 0 0 1-.49-1.177V6.167q0-.688.49-1.177.489-.49 1.177-.49h11.666q.688 0 1.177.49.49.489.49 1.177v11.666q0 .688-.49 1.177-.489.49-1.177.49z"/></svg>