<svg xmlns="http://www.w3.org/2000/svg" viewBox="0 0 24 24" width="24" height="24"><path d="M17.4 10.8a.6.6 0 0 1-.6.6h-3a.6.6 0 1 1 0-1.2h3a.6.6 0 0 1 .6.6m-.6 1.8h-3a.6.6 0 1 0 0 1.2h3a.6.6 0 1 0 0-1.2m3-6v10.8a1.2 1.2 0 0 1-1.2 1.2H5.4a1.2 1.2 0 0 1-1.2-1.2V6.6a1.2 1.2 0 0 1 1.2-1.2h13.2a1.2 1.2 0 0 1 1.2 1.2m-1.2 10.8V6.6H5.4v10.8zm-6.02-2.55a.601.601 0 0 1-1.162.3c-.197-.77-.98-1.35-1.819-1.35-.84 0-1.62.58-1.819 1.35a.6.6 0 1 1-1.162-.3 3 3 0 0 1 1.29-1.75 2.4 2.4 0 1 1 3.383 0 2.98 2.98 0 0 1 1.29 1.75M9.6 12.6a1.2 1.2 0 1 0 0-2.4 1.2 1.2 0 0 0 0 2.4"/></svg>