<svg xmlns="http://www.w3.org/2000/svg" viewBox="0 0 24 24" width="24" height="24"><path d="M18.6 5.4H7.8a1.2 1.2 0 0 0-1.2 1.2v1.2H5.4A1.2 1.2 0 0 0 4.2 9v8.4a1.2 1.2 0 0 0 1.2 1.2h10.8a1.2 1.2 0 0 0 1.2-1.2v-1.2h1.2a1.2 1.2 0 0 0 1.2-1.2V6.6a1.2 1.2 0 0 0-1.2-1.2M7.8 6.6h10.8v4.706l-.755-.754a1.2 1.2 0 0 0-1.697 0l-1.5 1.5-3.3-3.3a1.2 1.2 0 0 0-1.697 0L7.8 10.602zm8.4 10.8H5.4V9h1.2v6a1.2 1.2 0 0 0 1.2 1.2h8.4zm2.4-2.4H7.8v-2.7l2.7-2.7 3.725 3.725a.6.6 0 0 0 .848 0l1.924-1.925 1.603 1.604zm-4.2-6.3a.9.9 0 1 1 1.8 0 .9.9 0 0 1-1.8 0"/></svg>