<svg xmlns="http://www.w3.org/2000/svg" viewBox="0 0 24 24" width="24" height="24"><path d="M6.415 8.705c.61.17 1.09.47 1.41.86l-.01-.01c.32.4.49.87.49 1.4 0 .66-.2 1.17-.6 1.52-.33.29-.74.49-1.2.59v.83h-1.49v-.87c-.39-.11-.74-.31-1.04-.57-.2-.18-.37-.42-.53-.74l-.1-.2 1.39-.57c.11.23.22.38.34.48.2.17.45.25.79.25.28 0 .53-.07.72-.19.16-.11.24-.27.24-.5 0-.22-.06-.38-.19-.5-.08-.08-.35-.26-1.16-.52-.76-.24-1.27-.52-1.57-.87s-.45-.79-.45-1.29c0-.6.2-1.09.6-1.43.31-.26.64-.44.97-.52v-.83h1.49v.83c.36.09.68.25.93.47.18.16.34.36.48.61l.12.2-1.39.58a1 1 0 0 0-.26-.34c-.13-.1-.33-.15-.59-.15q-.45 0-.66.18c-.14.12-.2.24-.2.41 0 .19.08.32.25.43.23.14.64.29 1.22.46"/><path fill-rule="evenodd" d="M8.555 5.525h11.09v.01c.34 0 .62.27.62.62v11.06c0 .69-.56 1.25-1.25 1.25H4.985c-.69 0-1.25-.56-1.25-1.25v-2.32l1.67.5v1.4h9v-2.4h-5.85l1-1.2h4.85v-2.4h-4.5v-1.2h8.7v-2.4h-9.05zm7.05 11.27h3v-2.4h-3zm0-3.6h3v-2.4h-3z" clip-rule="evenodd"/></svg>