<svg xmlns="http://www.w3.org/2000/svg" viewBox="0 0 24 24" width="24" height="24"><path d="M12 19.539a7.3 7.3 0 0 1-2.927-.594 7.6 7.6 0 0 1-2.375-1.604 7.6 7.6 0 0 1-1.604-2.375 7.3 7.3 0 0 1-.594-2.927h1.667q0 2.437 1.698 4.135T12 17.872t4.135-1.698 1.698-4.135-1.698-4.136T12 6.205h-.125l1.292 1.292L12 8.705 8.667 5.372 12 2.04l1.167 1.208-1.292 1.292H12q1.563 0 2.927.594 1.364.593 2.375 1.604a7.6 7.6 0 0 1 1.604 2.375q.594 1.364.594 2.927a7.3 7.3 0 0 1-.594 2.927 7.6 7.6 0 0 1-1.604 2.375 7.6 7.6 0 0 1-2.375 1.604 7.3 7.3 0 0 1-2.927.594"/></svg>