<svg xmlns="http://www.w3.org/2000/svg" viewBox="0 0 24 24" width="24" height="24"><path d="M14.5 6.375v7.5a.624.624 0 0 1-.625.625H10.75a.624.624 0 0 1-.625-.625v-7.5a.625.625 0 0 1 .625-.625h3.125a.625.625 0 0 1 .625.625m5-.625h-3.125a.625.625 0 0 0-.625.625v4.063a.313.313 0 0 0 .313.312h3.75a.313.313 0 0 0 .312-.312V6.375a.625.625 0 0 0-.625-.625m.313 6.25h-3.75a.313.313 0 0 0-.313.313v3.437A1.25 1.25 0 0 0 17 17h1.875a1.25 1.25 0 0 0 1.25-1.25v-3.437a.313.313 0 0 0-.312-.313M8.25 5.75H5.125a.625.625 0 0 0-.625.625v4.063a.313.313 0 0 0 .313.312h3.75a.31.31 0 0 0 .312-.312V6.375a.625.625 0 0 0-.625-.625M8.563 12h-3.75a.31.31 0 0 0-.313.313v5.937a1.25 1.25 0 0 0 1.25 1.25h1.875a1.25 1.25 0 0 0 1.25-1.25v-5.937A.313.313 0 0 0 8.563 12"/></svg>