<svg xmlns="http://www.w3.org/2000/svg" viewBox="0 0 24 24" width="24" height="24"><path d="M7.417 19.5a2.8 2.8 0 0 1-2.063-.854 2.8 2.8 0 0 1-.854-2.063q0-1.208.854-2.062a2.8 2.8 0 0 1 2.063-.854h1.25v-3.334h-1.25a2.8 2.8 0 0 1-2.063-.854A2.8 2.8 0 0 1 4.5 7.417q0-1.209.854-2.063A2.8 2.8 0 0 1 7.417 4.5a2.8 2.8 0 0 1 2.062.854q.854.854.854 2.063v1.25h3.334v-1.25q0-1.209.854-2.063a2.8 2.8 0 0 1 2.062-.854 2.8 2.8 0 0 1 2.063.854q.855.854.854 2.063a2.8 2.8 0 0 1-.854 2.062 2.8 2.8 0 0 1-2.063.854h-1.25v3.334h1.25a2.8 2.8 0 0 1 2.063.854q.855.855.854 2.062a2.8 2.8 0 0 1-.854 2.063 2.8 2.8 0 0 1-2.063.854 2.8 2.8 0 0 1-2.062-.854 2.8 2.8 0 0 1-.854-2.063v-1.25h-3.334v1.25a2.8 2.8 0 0 1-.854 2.063 2.8 2.8 0 0 1-2.062.854m0-1.667q.52 0 .885-.364t.365-.886v-1.25h-1.25q-.522 0-.886.365a1.2 1.2 0 0 0-.364.885q0 .522.364.886t.886.364m9.166 0q.522 0 .886-.364t.364-.886q0-.52-.364-.885a1.2 1.2 0 0 0-.886-.365h-1.25v1.25q0 .522.365.886t.885.364m-6.25-4.166h3.334v-3.334h-3.334zm-2.916-5h1.25v-1.25q0-.522-.365-.886a1.2 1.2 0 0 0-.885-.364q-.522 0-.886.364a1.2 1.2 0 0 0-.364.886q0 .52.364.885t.886.365m7.916 0h1.25q.522 0 .886-.365t.364-.885q0-.522-.364-.886a1.2 1.2 0 0 0-.886-.364q-.52 0-.885.364a1.2 1.2 0 0 0-.365.886z"/></svg>