<svg xmlns="http://www.w3.org/2000/svg" viewBox="0 0 24 24" width="24" height="24"><path d="M5.333 17.833q-.687 0-1.177-.49a1.6 1.6 0 0 1-.49-1.176V7.833q0-.687.49-1.177t1.177-.49h13.334q.687 0 1.177.49t.49 1.177v8.334q0 .687-.49 1.177t-1.177.49zm3.334-2.5h6.666v-1.666H8.667zm-2.5-2.5h1.666v-1.666H6.167zm2.5 0h1.666v-1.666H8.667zm2.5 0h1.666v-1.666h-1.666zm2.5 0h1.666v-1.666h-1.666zm2.5 0h1.666v-1.666h-1.666zm-10-2.5h1.666V8.667H6.167zm2.5 0h1.666V8.667H8.667zm2.5 0h1.666V8.667h-1.666zm2.5 0h1.666V8.667h-1.666zm2.5 0h1.666V8.667h-1.666z"/></svg>