<svg xmlns="http://www.w3.org/2000/svg" viewBox="0 0 24 24" width="24" height="24"><path d="M14.825 9.176a.6.6 0 0 1 0 .848l-4.8 4.8a.598.598 0 0 1-.98-.194.6.6 0 0 1 .13-.655l4.8-4.8a.6.6 0 0 1 .85 0M18.57 5.43a4.2 4.2 0 0 0-5.94 0l-2.254 2.254a.6.6 0 1 0 .849.849l2.254-2.25a3 3 0 0 1 4.243 4.242l-2.256 2.254a.6.6 0 1 0 .849.85l2.255-2.259a4.2 4.2 0 0 0 0-5.94m-5.795 10.037-2.254 2.254a3 3 0 1 1-4.242-4.243l2.254-2.253a.6.6 0 0 0-.85-.85L5.43 12.63a4.2 4.2 0 1 0 5.94 5.94l2.255-2.255a.6.6 0 0 0-.85-.849"/></svg>