<svg xmlns="http://www.w3.org/2000/svg" viewBox="0 0 24 24" width="24" height="24"><path d="M17.297 6.703a2.4 2.4 0 0 0-3.389-.005l-.874.916a.6.6 0 0 1-.868-.825l.879-.922.01-.01a3.6 3.6 0 0 1 5.08 5.101l-.921.88a.6.6 0 0 1-.825-.87l.916-.873a2.4 2.4 0 0 0-.008-3.392m-6.331 9.683-.874.916a2.4 2.4 0 0 1-3.394-3.394l.916-.874a.6.6 0 0 0-.825-.868l-.925.879-.01.01a3.6 3.6 0 0 0 5.101 5.08l.88-.921a.6.6 0 1 0-.87-.825zM18.6 13.8h-1.8a.6.6 0 1 0 0 1.2h1.8a.6.6 0 0 0 0-1.2M5.4 10.2h1.8a.6.6 0 1 0 0-1.2H5.4a.6.6 0 0 0 0 1.2m9 6a.6.6 0 0 0-.6.6v1.8a.6.6 0 0 0 1.2 0v-1.8a.6.6 0 0 0-.6-.6M9.6 7.8a.6.6 0 0 0 .6-.6V5.4a.6.6 0 1 0-1.2 0v1.8a.6.6 0 0 0 .6.6"/></svg>