<svg xmlns="http://www.w3.org/2000/svg" viewBox="0 0 24 24" width="24" height="24"><path d="M5.52 6.31c.2-.14.44-.21.69-.21.33 0 .65.14.88.37.24.23.37.55.37.88 0 .24-.07.48-.21.69s-.33.37-.56.46-.48.12-.72.07-.47-.17-.64-.34-.29-.4-.34-.64-.02-.49.07-.72.25-.42.46-.56M5.52 10.96c.2-.14.44-.21.69-.21.33 0 .65.14.88.37.24.23.37.55.37.88 0 .24-.07.48-.21.69s-.33.37-.56.46-.48.12-.72.07-.47-.17-.64-.34-.29-.4-.34-.64-.02-.49.07-.72.25-.42.46-.56M6.21 15.42c-.25 0-.49.07-.69.21-.21.14-.37.33-.46.56s-.12.48-.07.72.17.47.34.64.4.29.64.34.49.02.72-.07.42-.25.56-.46.21-.45.21-.69c0-.33-.13-.65-.37-.88s-.55-.37-.88-.37M9.5 15.83h10v1.67h-10zM19.5 11.17h-10v1.67h10zM9.5 8.17V6.5l10 .03v1.66z"/></svg>