<svg xmlns="http://www.w3.org/2000/svg" viewBox="0 0 24 24" width="24" height="24"><path d="M19.2 12a.6.6 0 0 1-.6.6h-8.4a.6.6 0 0 1 0-1.2h8.4a.6.6 0 0 1 .6.6m-9-4.2h8.4a.6.6 0 1 0 0-1.2h-8.4a.6.6 0 0 0 0 1.2m8.4 8.4h-8.4a.6.6 0 0 0 0 1.2h8.4a.6.6 0 1 0 0-1.2M5.668 6.537 6 6.37v3.83a.6.6 0 0 0 1.2 0V5.4a.6.6 0 0 0-.869-.537l-1.2.6a.6.6 0 1 0 .537 1.074m2.715 7.617a1.78 1.78 0 0 0-.72-1.196 1.864 1.864 0 0 0-2.559.352q-.172.222-.267.485a.6.6 0 1 0 1.125.41.6.6 0 0 1 .088-.16.657.657 0 0 1 1.063.055q.064.104.082.225a.57.57 0 0 1-.124.442L4.919 17.64a.6.6 0 0 0 .481.959h2.4a.6.6 0 1 0 0-1.2H6.6l1.431-1.915a1.76 1.76 0 0 0 .352-1.331"/></svg>