<svg xmlns="http://www.w3.org/2000/svg" viewBox="0 0 24 24" width="24" height="24"><path d="M19.2 12a.6.6 0 0 1-.6.6H12a.6.6 0 1 1 0-1.2h6.6a.6.6 0 0 1 .6.6M12 7.8h6.6a.6.6 0 1 0 0-1.2H12a.6.6 0 0 0 0 1.2m6.6 8.4H12a.6.6 0 1 0 0 1.2h6.6a.6.6 0 1 0 0-1.2M8.576 5.575 6.6 7.552l-.775-.777a.6.6 0 0 0-.85.85l1.2 1.2a.6.6 0 0 0 .85 0l2.4-2.4a.6.6 0 0 0-.85-.85m0 4.8L6.6 12.353l-.775-.777a.6.6 0 0 0-.85.85l1.2 1.2a.6.6 0 0 0 .85 0l2.4-2.4a.6.6 0 0 0-.85-.85m0 4.8L6.6 17.153l-.775-.777a.6.6 0 0 0-.85 0 .6.6 0 0 0 0 .85l1.2 1.2a.6.6 0 0 0 .85 0l2.4-2.4a.6.6 0 0 0-.85-.85"/></svg>