<svg xmlns="http://www.w3.org/2000/svg" viewBox="0 0 24 24" width="24" height="24"><path d="M6.01 6.67v4.43h1.2V5.33l-.6-.3-2.01 1 .54 1.08zM10.5 8.17V6.5l9 .03v1.66zM19.5 11.17h-9v1.67h9zM19.5 15.83h-9v1.67h9zM7.89 15.99l-.7.93.02-.02-.59.78h1.8v1.2H5.17l-.38-.76 2.3-3.07.02-.028c.035-.051.072-.104.08-.172l.002-.013a.8.8 0 0 0 .008-.217.58.58 0 0 0-.24-.39c-.13-.1-.3-.14-.47-.12s-.33.1-.43.24c-.21.28-.31.76-.31.76l-1.13-.41.22-.6q.105-.255.27-.48c.3-.38.73-.62 1.21-.69.48-.06.96.06 1.35.34.19.14.36.31.48.52.13.2.21.43.24.67.03.23.02.47-.04.7s-.16.44-.31.63z"/></svg>