<svg xmlns="http://www.w3.org/2000/svg" viewBox="0 0 24 24" width="24" height="24"><path d="M7 8.083h7.5V6.417a2.4 2.4 0 0 0-.73-1.771 2.4 2.4 0 0 0-1.77-.73 2.4 2.4 0 0 0-1.77.73 2.4 2.4 0 0 0-.73 1.77H7.833q0-1.728 1.22-2.947Q10.27 2.249 12 2.25t2.948 1.219q1.22 1.218 1.219 2.948v1.666H17q.687 0 1.177.49t.49 1.177v8.333q0 .688-.49 1.177T17 19.75H7q-.687 0-1.177-.49a1.6 1.6 0 0 1-.49-1.177V9.75q0-.687.49-1.177T7 8.083m5 7.5q.687 0 1.177-.49.49-.489.49-1.176 0-.688-.49-1.177A1.6 1.6 0 0 0 12 12.25q-.687 0-1.177.49-.49.489-.49 1.177 0 .687.49 1.177t1.177.49"/></svg>