<svg xmlns="http://www.w3.org/2000/svg" viewBox="0 0 24 24" width="24" height="24"><path d="M10.2 13.8a.6.6 0 0 1-.6.6h-3a.6.6 0 1 1 0-1.2h3a.6.6 0 0 1 .6.6m10.2-2.7v4.5a1.2 1.2 0 0 1-1.2 1.2h-6.6v2.4a.6.6 0 1 1-1.2 0v-2.4H4.8a1.2 1.2 0 0 1-1.2-1.2v-4.5a4.505 4.505 0 0 1 4.5-4.5h5.7V4.2a.6.6 0 0 1 .6-.6h2.4a.6.6 0 0 1 0 1.2H15v1.8h.9a4.505 4.505 0 0 1 4.5 4.5m-9 4.5v-4.5a3.3 3.3 0 0 0-6.6 0v4.5zm7.8-4.5a3.304 3.304 0 0 0-3.3-3.3H15v5.4a.6.6 0 1 1-1.2 0V7.8h-2.644a4.5 4.5 0 0 1 1.444 3.3v4.5h6.6z"/></svg>