<svg xmlns="http://www.w3.org/2000/svg" viewBox="0 0 24 24" width="24" height="24"><path d="M15.002 7.508h-1.2v-.9h-.9v-1.2h.9v-.9h1.2v.9h.9v1.2h-.9zM14.882 13.518a6.6 6.6 0 0 1-2.75-1.65 6.6 6.6 0 0 1-1.65-2.75 6.55 6.55 0 0 1-.16-3.2c.06-.39.28-.9.28-.9s-.66.07-1.08.22a7.26 7.26 0 0 0-2.95 2.02c-.79.92-1.34 2.01-1.6 3.19a7.197 7.197 0 0 0 8.58 8.58c1.18-.26 2.28-.82 3.19-1.61a7.16 7.16 0 0 0 2.02-2.95c.15-.41.22-1.08.22-1.08s-.51.22-.9.28c-1.06.21-2.16.16-3.2-.16zM18.602 9.008v-1.5h-1.2v1.5h-1.5v1.2h1.5v1.5h1.2v-1.5h1.5v-1.2z"/></svg>