<svg xmlns="http://www.w3.org/2000/svg" viewBox="0 0 24 24" width="24" height="24"><path d="M7.838 18.671V9.484q0-.688.5-1.167t1.187-.48h9.146q.688 0 1.177.49t.49 1.178v6.666l-4.167 4.167H9.505q-.688 0-1.177-.49a1.6 1.6 0 0 1-.49-1.177M3.692 7.213a1.56 1.56 0 0 1 .27-1.24 1.64 1.64 0 0 1 1.084-.677l9.042-1.604q.688-.124 1.24.27.551.397.677 1.084l.208 1.125H9.505a3.2 3.2 0 0 0-2.355.98 3.2 3.2 0 0 0-.979 2.354v7.958a1.9 1.9 0 0 1-.573-.5 1.54 1.54 0 0 1-.302-.708zm14.98 8.125h-3.334v3.333z"/></svg>