<svg xmlns="http://www.w3.org/2000/svg" viewBox="0 0 24 24" width="24" height="24"><path d="m19.176 7.361-6.6-3.611a1.19 1.19 0 0 0-1.152 0l-6.6 3.613a1.2 1.2 0 0 0-.624 1.05v7.173a1.2 1.2 0 0 0 .624 1.05l6.6 3.613a1.19 1.19 0 0 0 1.152 0l6.6-3.613a1.2 1.2 0 0 0 .624-1.05V8.413a1.2 1.2 0 0 0-.624-1.052M12 4.8l6.026 3.3-2.233 1.222-6.027-3.3zm0 6.6L5.974 8.1l2.543-1.392 6.026 3.3zM5.4 9.15l6 3.284v6.434l-6-3.281zm13.2 6.434-6 3.284v-6.431l2.4-1.314V13.8a.6.6 0 0 0 1.2 0v-3.334l2.4-1.316v6.433"/></svg>