<svg xmlns="http://www.w3.org/2000/svg" viewBox="0 0 24 24" width="24" height="24"><path fill-rule="evenodd" d="m17.99 6-3.57 1.13-.81 3.66 2.76 2.53 3.57-1.13.81-3.66zm-.81 5.25c-.88 0-1.6-.72-1.6-1.6s.72-1.6 1.6-1.6 1.6.72 1.6 1.6-.72 1.6-1.6 1.6" clip-rule="evenodd"/><path d="m9.35 14.23.95.95 4.04-.35-1.77-1.77zM14.35 14.84l1.78 1.78-4.05.34-.95-.95zM12.91 17.79l1.03 1.03h2.2v-2.19zM10.21 10.7l2.35 2.35-4.05.34-.49-.49-2 1.99-.85-.85.88-.88L4 11.1l1.84-1.84.96.96.73-.73-.96-.96 1.85-1.84 2.05 2.05.88-.88.85.85z"/></svg>