<svg xmlns="http://www.w3.org/2000/svg" viewBox="0 0 24 24" width="24" height="24"><path d="M6 6.6v10.8a.6.6 0 0 1-1.2 0V6.6a.6.6 0 1 1 1.2 0m6.9 4.088-1.5.487V9.6a.6.6 0 1 0-1.2 0v1.575l-1.5-.488a.6.6 0 0 0-.375 1.142l1.5.487L8.9 13.59a.6.6 0 1 0 .97.705l.926-1.275.925 1.275a.601.601 0 0 0 1.089-.254.6.6 0 0 0-.119-.451l-.925-1.275 1.5-.487a.6.6 0 0 0-.366-1.142m7.95.385a.6.6 0 0 0-.75-.386l-1.5.488V9.6a.6.6 0 1 0-1.2 0v1.575l-1.5-.487a.6.6 0 1 0-.371 1.142l1.5.486-.926 1.275a.6.6 0 1 0 .97.706L18 13.02l.926 1.275a.599.599 0 1 0 .97-.704l-.925-1.276 1.5-.486a.6.6 0 0 0 .38-.757"/></svg>