<svg xmlns="http://www.w3.org/2000/svg" viewBox="0 0 24 24" width="24" height="24"><path d="M8.25 11.167a2.8 2.8 0 0 1-2.062-.854 2.8 2.8 0 0 1-.855-2.063q0-1.208.855-2.063a2.8 2.8 0 0 1 2.062-.854 2.8 2.8 0 0 1 2.063.854q.854.854.854 2.063a2.8 2.8 0 0 1-.854 2.063 2.8 2.8 0 0 1-2.063.854m0-1.667q.52 0 .885-.365.365-.364.365-.885 0-.52-.365-.885A1.2 1.2 0 0 0 8.25 7q-.52 0-.885.365A1.2 1.2 0 0 0 7 8.25q0 .52.365.885t.885.365m7.5 9.167a2.8 2.8 0 0 1-2.062-.855 2.8 2.8 0 0 1-.855-2.062q0-1.209.854-2.062a2.8 2.8 0 0 1 2.063-.855 2.8 2.8 0 0 1 2.063.854q.854.854.854 2.063a2.8 2.8 0 0 1-.855 2.063 2.8 2.8 0 0 1-2.062.854m0-1.667q.52 0 .886-.365.364-.364.364-.885 0-.52-.364-.885a1.2 1.2 0 0 0-.886-.365q-.52 0-.885.365a1.2 1.2 0 0 0-.365.885q0 .52.365.885.364.365.885.365M6.5 18.667 5.333 17.5 17.5 5.333 18.667 6.5z"/></svg>