<svg xmlns="http://www.w3.org/2000/svg" viewBox="0 0 24 24" width="24" height="24"><path d="M10.833 14.917q0-1.687.303-2.427.301-.74 1.28-1.615.855-.75 1.303-1.302t.448-1.26q0-.855-.573-1.417T12 6.333q-1.062 0-1.614.646-.553.645-.782 1.313l-2.146-.917q.438-1.334 1.605-2.312 1.165-.98 2.937-.98 2.187 0 3.365 1.22 1.176 1.218 1.177 2.926 0 1.042-.448 1.782t-1.407 1.677q-1.02.978-1.239 1.49-.219.51-.219 1.739zm1.167 5q-.687 0-1.177-.49a1.6 1.6 0 0 1-.49-1.177q0-.687.49-1.177t1.177-.49 1.177.49.49 1.177-.49 1.177-1.177.49"/></svg>