<svg xmlns="http://www.w3.org/2000/svg" viewBox="0 0 24 24" width="24" height="24"><path d="M11.383 10.37v.11699999999999999c0 1.115-.386 2.215-1.168 3.526-.599 1.002-1.58 1.869-2.36 2.45a.594.594 0 0 1-.826-.122c-.205-.265-.158-.642.083-.874a7.3 7.3 0 0 0 1.163-1.454q.316-.517.453-1.008c.027-.098-.052-.19-.153-.19a2.808 2.808 0 1 1 .11-5.612q.063-.003.128-.003 1.135 0 1.853.837.64.747.709 2.117.008.108.008.215M18.233 10.37v.11699999999999999c0 1.115-.386 2.215-1.169 3.526-.598 1.002-1.58 1.869-2.36 2.45a.594.594 0 0 1-.825-.122c-.205-.265-.158-.642.082-.874a7.3 7.3 0 0 0 1.164-1.454q.317-.517.453-1.008c.027-.098-.052-.19-.153-.19a2.808 2.808 0 1 1 .11-5.612q.063-.003.128-.003 1.135 0 1.852.837.642.747.71 2.117.008.108.008.215"/></svg>