<svg xmlns="http://www.w3.org/2000/svg" viewBox="0 0 24 24" width="24" height="24"><path d="M18.467 5.066 8.291 3.27a1.25 1.25 0 0 0-1.447 1.014L4.52 17.487a1.25 1.25 0 0 0 1.015 1.447l10.176 1.797a1.25 1.25 0 0 0 1.448-1.015l2.325-13.204a1.25 1.25 0 0 0-1.017-1.446m-5.881 7.212a.625.625 0 0 1-.724.507l-3.242-.572a.625.625 0 0 1 .218-1.229l3.24.57a.625.625 0 0 1 .508.724m3.672-1.889a.625.625 0 0 1-.724.506L9.049 9.751a.625.625 0 1 1 .218-1.231l6.485 1.145a.625.625 0 0 1 .508.724zm.433-2.462a.625.625 0 0 1-.724.507L9.483 7.288a.625.625 0 1 1 .217-1.23l6.484 1.144a.626.626 0 0 1 .51.725z"/></svg>