<svg xmlns="http://www.w3.org/2000/svg" viewBox="0 0 24 24" width="24" height="24"><path fill-rule="evenodd" d="M19.44 4.749c-.23-.23-.53-.35-.85-.35H5.39c-.32 0-.62.13-.85.35-.23.23-.35.53-.35.85v13.4a.63.63 0 0 0 .29.51c.09.05.19.08.29.09q.15 0 .3-.06l2.13-1.07 2.13 1.07a.63.63 0 0 0 .54 0l2.13-1.07 2.13 1.07a.63.63 0 0 0 .54 0l2.13-1.07 2.13 1.07q.135.075.3.06c.1 0 .2-.04.29-.09s.16-.13.21-.22.08-.19.08-.29v-13.4c0-.32-.13-.62-.35-.85zm-4.95 10.73h-7v-1.25h7zm2-3.25h-9v-1.25h9zm0-3.25h-9v-1.25h9z" clip-rule="evenodd"/></svg>