<svg xmlns="http://www.w3.org/2000/svg" viewBox="0 0 24 24" width="24" height="24"><path d="M13.25 11.375v6.875a.624.624 0 0 1-.625.625H5.75a.625.625 0 0 1-.625-.625v-6.875a.625.625 0 0 1 .625-.625h6.875a.624.624 0 0 1 .625.625m5 4.375a.624.624 0 0 0-.625.625v1.25H15.75a.624.624 0 1 0 0 1.25h1.875a1.25 1.25 0 0 0 1.25-1.25v-1.25a.624.624 0 0 0-.625-.625m0-5.625a.624.624 0 0 0-.625.625v2.5a.624.624 0 1 0 1.25 0v-2.5a.624.624 0 0 0-.625-.625m-.625-5h-1.25a.625.625 0 1 0 0 1.25h1.25v1.25a.625.625 0 1 0 1.25 0v-1.25a1.25 1.25 0 0 0-1.25-1.25m-4.375 0h-2.5a.625.625 0 1 0 0 1.25h2.5a.625.625 0 1 0 0-1.25m-7.5 3.75a.625.625 0 0 0 .625-.625V6.375h1.25a.625.625 0 0 0 0-1.25h-1.25a1.25 1.25 0 0 0-1.25 1.25V8.25a.625.625 0 0 0 .625.625"/></svg>