<svg xmlns="http://www.w3.org/2000/svg" viewBox="0 0 24 24" width="24" height="24"><path d="M12 12.417a2.4 2.4 0 0 1-1.77-.73 2.4 2.4 0 0 1-.73-1.77q0-1.042.73-1.771a2.4 2.4 0 0 1 1.77-.73q1.042 0 1.77.73a2.4 2.4 0 0 1 .73 1.77 2.4 2.4 0 0 1-.73 1.771 2.4 2.4 0 0 1-1.77.73M7 20.75v-6.437a6.4 6.4 0 0 1-1.23-2 6.6 6.6 0 0 1-.437-2.396q0-2.792 1.938-4.73Q9.209 3.25 12 3.25t4.73 1.938q1.936 1.937 1.937 4.729a6.6 6.6 0 0 1-.438 2.396 6.4 6.4 0 0 1-1.229 2v6.437l-5-1.667zm5-5.833q2.084 0 3.542-1.459Q17 12 17 9.917q0-2.085-1.458-3.542Q14.083 4.917 12 4.917q-2.084 0-3.542 1.458T7 9.917t1.458 3.541q1.459 1.46 3.542 1.459"/></svg>