<svg xmlns="http://www.w3.org/2000/svg" viewBox="0 0 24 24" width="24" height="24"><path d="M20.384 9.5 9.5 20.384a1.25 1.25 0 0 1-1.768 0l-4.116-4.116a1.25 1.25 0 0 1 0-1.768l2.279-2.279a.31.31 0 0 1 .442 0l2.72 2.721a.625.625 0 0 0 .916-.033.64.64 0 0 0-.047-.867L7.22 11.337a.31.31 0 0 1 0-.442l1.172-1.172a.313.313 0 0 1 .442 0l2.722 2.721a.623.623 0 0 0 1.06-.475.64.64 0 0 0-.193-.425L9.721 8.837a.31.31 0 0 1 0-.442l1.172-1.172a.31.31 0 0 1 .441 0l2.722 2.722a.624.624 0 0 0 .915-.034.64.64 0 0 0-.048-.866l-2.702-2.708a.31.31 0 0 1 0-.442L14.5 3.616a1.25 1.25 0 0 1 1.768 0l4.116 4.116a1.25 1.25 0 0 1 0 1.768"/></svg>