<svg xmlns="http://www.w3.org/2000/svg" viewBox="0 0 24 24" width="24" height="24"><path d="M3.667 20.333q0-2.311.614-3.948.615-1.635 1.573-2.718A7.1 7.1 0 0 1 8 11.99a9.3 9.3 0 0 1 2.333-.823v-2.5q-2.854-.354-4.76-1.76t-1.906-3.24h16.666q0 1.833-1.906 3.24-1.906 1.406-4.76 1.76v2.5A9.3 9.3 0 0 1 16 11.99a7.1 7.1 0 0 1 2.146 1.677q.958 1.083 1.573 2.718.614 1.636.614 3.948h-5v-1.666h3.23q-.376-3.167-2.365-4.584T12 12.667q-2.208 0-4.198 1.416-1.99 1.418-2.365 4.584h3.23v1.666zm8.333 0q-.687 0-1.177-.49a1.6 1.6 0 0 1-.49-1.176q0-.355.136-.646.135-.292.364-.521.5-.5 1.688-1.052a30 30 0 0 1 2.812-1.115 37 37 0 0 1-1.125 2.813q-.54 1.187-1.041 1.687a1.8 1.8 0 0 1-.521.365q-.292.135-.646.135"/></svg>