<svg xmlns="http://www.w3.org/2000/svg" viewBox="0 0 24 24" width="24" height="24"><path d="M20.221 3.777a3.94 3.94 0 0 0-5.571 0l-4.16 4.16a1.25 1.25 0 0 0-.365.883v1.305H8.81c-.272 0-.537.09-.755.253a1 1 0 0 0-.064.056l-.625.625a1.25 1.25 0 0 0 0 1.768l1.461 1.462-6.015 6.02a.626.626 0 0 0 .884.884l6.016-6.02 1.461 1.461a1.25 1.25 0 0 0 1.768 0l.625-.625a1 1 0 0 0 .056-.065 1.25 1.25 0 0 0 .254-.754v-1.315h1.304a1.24 1.24 0 0 0 .883-.367l4.158-4.159a3.94 3.94 0 0 0 0-5.572m-2.154 3.039-4.375 4.375a.625.625 0 0 1-.884-.884l4.375-4.375a.625.625 0 0 1 .884.884"/></svg>