<svg xmlns="http://www.w3.org/2000/svg" viewBox="0 0 24 24" width="24" height="24"><path d="m19.792 20.958-2.563-2.541q-.375.229-.802.343t-.885.115a3.2 3.2 0 0 1-2.354-.98 3.2 3.2 0 0 1-.98-2.353q0-1.376.98-2.354a3.2 3.2 0 0 1 2.354-.98 3.2 3.2 0 0 1 2.354.98 3.2 3.2 0 0 1 .979 2.354 3.2 3.2 0 0 1-.48 1.708l2.563 2.542zM6.375 18.875a3.2 3.2 0 0 1-2.354-.98 3.2 3.2 0 0 1-.98-2.353q0-1.376.98-2.354a3.2 3.2 0 0 1 2.354-.98 3.2 3.2 0 0 1 2.354.98 3.2 3.2 0 0 1 .98 2.354 3.2 3.2 0 0 1-.98 2.354 3.2 3.2 0 0 1-2.354.979m9.167-1.667q.687 0 1.177-.49.49-.489.49-1.176 0-.688-.49-1.178a1.6 1.6 0 0 0-1.177-.489q-.688 0-1.177.49-.49.489-.49 1.177 0 .687.49 1.177.489.49 1.177.49m-9.167-7.5a3.2 3.2 0 0 1-2.354-.979 3.2 3.2 0 0 1-.98-2.354q0-1.375.98-2.354a3.2 3.2 0 0 1 2.354-.98 3.2 3.2 0 0 1 2.354.98 3.2 3.2 0 0 1 .98 2.354 3.2 3.2 0 0 1-.98 2.354 3.2 3.2 0 0 1-2.354.98m9.167 0a3.2 3.2 0 0 1-2.354-.979 3.2 3.2 0 0 1-.98-2.354q0-1.375.98-2.354a3.2 3.2 0 0 1 2.354-.98 3.2 3.2 0 0 1 2.354.98 3.2 3.2 0 0 1 .979 2.354 3.2 3.2 0 0 1-.98 2.354 3.2 3.2 0 0 1-2.353.98"/></svg>