<svg xmlns="http://www.w3.org/2000/svg" viewBox="0 0 24 24" width="24" height="24"><path d="M3.667 17.417V15.75H12v1.667zm0-4.167v-1.667h4.166v1.667zm0-4.167V7.417h4.166v1.666zm15.5 8.334-3.209-3.209a3.7 3.7 0 0 1-1.093.532 4.2 4.2 0 0 1-1.198.177q-1.73 0-2.948-1.219Q9.499 12.48 9.5 10.75t1.219-2.948q1.218-1.219 2.948-1.219 1.728 0 2.948 1.22 1.218 1.218 1.218 2.947 0 .604-.177 1.198t-.531 1.094l3.208 3.208zm-5.5-4.167a2.4 2.4 0 0 0 1.77-.73q.73-.727.73-1.77 0-1.042-.73-1.77a2.4 2.4 0 0 0-1.77-.73 2.4 2.4 0 0 0-1.771.73 2.4 2.4 0 0 0-.73 1.77q0 1.042.73 1.77a2.4 2.4 0 0 0 1.77.73"/></svg>