<svg xmlns="http://www.w3.org/2000/svg" viewBox="0 0 24 24" width="24" height="24"><path d="m9.708 20.333-.333-2.666a3 3 0 0 1-.51-.25 7 7 0 0 1-.47-.313l-2.478 1.042-2.292-3.959 2.146-1.624a2 2 0 0 1-.021-.282v-.562q0-.135.02-.281L3.626 9.813l2.292-3.959 2.479 1.042q.229-.166.479-.313.25-.145.5-.25l.333-2.666h4.584l.333 2.666q.27.105.51.25.24.147.47.313l2.478-1.042 2.292 3.959-2.146 1.624q.021.147.021.282v.562q0 .135-.042.281l2.146 1.626-2.291 3.958-2.459-1.042a6 6 0 0 1-.479.313q-.25.145-.5.25l-.333 2.666zm2.334-5.416a2.8 2.8 0 0 0 2.062-.854A2.8 2.8 0 0 0 14.958 12a2.8 2.8 0 0 0-.854-2.062 2.8 2.8 0 0 0-2.062-.855q-1.23 0-2.073.855A2.83 2.83 0 0 0 9.125 12q0 1.209.844 2.063.843.854 2.073.854"/></svg>