<svg xmlns="http://www.w3.org/2000/svg" viewBox="0 0 24 24" width="24" height="24"><path d="M20.225 15.776a.6.6 0 0 1 0 .849l-1.8 1.8a.6.6 0 0 1-.85-.85l.777-.775h-.881a5.41 5.41 0 0 1-4.395-2.261l-3.129-4.38A4.2 4.2 0 0 0 6.53 8.4H4.8a.6.6 0 1 1 0-1.2h1.73a5.41 5.41 0 0 1 4.394 2.261l3.129 4.38A4.2 4.2 0 0 0 17.47 15.6h.88l-.775-.775a.6.6 0 1 1 .848-.85zm-7.1-5.351a.6.6 0 0 0 .837-.14l.09-.125a4.2 4.2 0 0 1 3.419-1.76h.88l-.775.775a.6.6 0 1 0 .848.85l1.8-1.8a.6.6 0 0 0 0-.85l-1.8-1.8a.6.6 0 0 0-.848.85l.776.775h-.881a5.41 5.41 0 0 0-4.395 2.261l-.09.125a.6.6 0 0 0 .139.839m-2.25 3.15a.6.6 0 0 0-.837.14l-.09.125a4.2 4.2 0 0 1-3.419 1.76H4.8a.6.6 0 1 0 0 1.2h1.73a5.41 5.41 0 0 0 4.394-2.261l.09-.125a.6.6 0 0 0-.139-.839"/></svg>