<svg xmlns="http://www.w3.org/2000/svg" viewBox="0 0 24 24" width="24" height="24"><path d="M10.75 15.125h2.5l-1.25-2.5zm-1.667-2.292q.688 0 1.177-.49.49-.489.49-1.176 0-.688-.49-1.177a1.6 1.6 0 0 0-1.177-.49q-.687 0-1.177.49-.49.489-.49 1.177 0 .687.49 1.177t1.177.49m5.834 0q.687 0 1.177-.49.49-.489.49-1.176 0-.688-.49-1.177a1.6 1.6 0 0 0-1.177-.49q-.688 0-1.178.49-.489.489-.489 1.177 0 .687.49 1.177.489.49 1.177.49M7 20.333v-3.541a4.8 4.8 0 0 1-1.427-.948A6 6 0 0 1 4.53 14.5a6.5 6.5 0 0 1-.646-1.604 7 7 0 0 1-.218-1.73q0-3.29 2.333-5.395t6-2.104q3.666 0 6 2.104t2.333 5.396a7 7 0 0 1-.218 1.729 6.5 6.5 0 0 1-.646 1.604q-.427.75-1.042 1.344-.614.594-1.427.948v3.541h-2.5v-1.666h-1.667v1.666h-1.666v-1.666H9.5v1.666z"/></svg>