<svg xmlns="http://www.w3.org/2000/svg" viewBox="0 0 24 24" width="24" height="24"><path d="M10.2 5.4H6.6a1.2 1.2 0 0 0-1.2 1.2v3.6a1.2 1.2 0 0 0 1.2 1.2h3.6a1.2 1.2 0 0 0 1.2-1.2V6.6a1.2 1.2 0 0 0-1.2-1.2m0 4.8H6.6V6.6h3.6zm7.2-4.8h-3.6a1.2 1.2 0 0 0-1.2 1.2v3.6a1.2 1.2 0 0 0 1.2 1.2h3.6a1.2 1.2 0 0 0 1.2-1.2V6.6a1.2 1.2 0 0 0-1.2-1.2m0 4.8h-3.6V6.6h3.6zm-7.2 2.4H6.6a1.2 1.2 0 0 0-1.2 1.2v3.6a1.2 1.2 0 0 0 1.2 1.2h3.6a1.2 1.2 0 0 0 1.2-1.2v-3.6a1.2 1.2 0 0 0-1.2-1.2m0 4.8H6.6v-3.6h3.6zm7.2-4.8h-3.6a1.2 1.2 0 0 0-1.2 1.2v3.6a1.2 1.2 0 0 0 1.2 1.2h3.6a1.2 1.2 0 0 0 1.2-1.2v-3.6a1.2 1.2 0 0 0-1.2-1.2m0 4.8h-3.6v-3.6h3.6z"/></svg>