<svg xmlns="http://www.w3.org/2000/svg" viewBox="0 0 24 24" width="24" height="24"><path d="M10.125 5.125a.625.625 0 0 1 .625-.625h2.5a.625.625 0 1 1 0 1.25h-2.5a.625.625 0 0 1-.625-.625M13.25 18.25h-2.5a.624.624 0 1 0 0 1.25h2.5a.624.624 0 1 0 0-1.25m5-13.75h-1.875a.625.625 0 1 0 0 1.25h1.875v1.875a.625.625 0 1 0 1.25 0V5.75a1.25 1.25 0 0 0-1.25-1.25m.625 5.625a.624.624 0 0 0-.625.625v2.5a.624.624 0 1 0 1.25 0v-2.5a.624.624 0 0 0-.625-.625m0 5.625a.624.624 0 0 0-.625.625v1.875h-1.875a.624.624 0 1 0 0 1.25h1.875a1.25 1.25 0 0 0 1.25-1.25v-1.875a.624.624 0 0 0-.625-.625m-13.75-1.875a.625.625 0 0 0 .625-.625v-2.5a.625.625 0 1 0-1.25 0v2.5a.625.625 0 0 0 .625.625m2.5 4.375H5.75v-1.875a.625.625 0 1 0-1.25 0v1.875a1.25 1.25 0 0 0 1.25 1.25h1.875a.625.625 0 1 0 0-1.25m-2.5-10a.625.625 0 0 0 .625-.625V5.75h1.875a.625.625 0 0 0 0-1.25H5.75A1.25 1.25 0 0 0 4.5 5.75v1.875a.625.625 0 0 0 .625.625m11.25 7.5v-7.5a.625.625 0 0 0-.625-.625h-7.5a.625.625 0 0 0-.625.625v7.5a.625.625 0 0 0 .625.625h7.5a.624.624 0 0 0 .625-.625"/></svg>