<svg xmlns="http://www.w3.org/2000/svg" viewBox="0 0 24 24" width="24" height="24"><path d="M20.339 9.694a1.23 1.23 0 0 0-1.07-.844l-4.425-.357-1.708-4.132a1.227 1.227 0 0 0-2.27 0L9.157 8.492l-4.427.358a1.234 1.234 0 0 0-.703 2.165l3.375 2.912-1.028 4.354a1.229 1.229 0 0 0 1.837 1.337L12 17.287l3.79 2.33a1.23 1.23 0 0 0 1.835-1.336l-1.032-4.355 3.375-2.912a1.23 1.23 0 0 0 .37-1.32m-1.151.41-3.652 3.15a.6.6 0 0 0-.192.594l1.115 4.71a.028.028 0 0 1-.013.036c-.013.01-.017.008-.028 0l-4.104-2.524a.6.6 0 0 0-.628 0l-4.104 2.526c-.012.006-.015.009-.029 0a.03.03 0 0 1-.013-.037l1.116-4.71a.6.6 0 0 0-.192-.593l-3.652-3.15c-.009-.007-.017-.014-.01-.037.008-.024.014-.02.025-.022l4.794-.387a.6.6 0 0 0 .504-.37l1.847-4.471c.005-.013.008-.019.026-.019s.02.006.026.019l1.851 4.47a.6.6 0 0 0 .506.37l4.794.386c.011 0 .018 0 .025.022s0 .03-.012.038"/></svg>