<svg xmlns="http://www.w3.org/2000/svg" viewBox="0 0 24 24" width="24" height="24"><path fill-rule="evenodd" d="M11.99 3.6c-.24 0-.48.07-.68.21s-.36.33-.45.55L9.15 8.49l-4.42.36a1.23 1.23 0 0 0-1.08 1.56c.07.23.2.44.38.6l3.38 2.91-1.03 4.36c-.06.24-.04.48.04.71s.23.43.43.57.43.22.67.23h.05c.23 0 .45-.06.64-.18L12 17.28l3.79 2.33c.19.12.42.18.64.18h.05c.24 0 .48-.09.67-.23a1.232 1.232 0 0 0 .47-1.28l-1.03-4.36 3.38-2.91a1.24 1.24 0 0 0 .37-1.31c-.08-.23-.22-.43-.41-.59a1.23 1.23 0 0 0-.66-.26l-4.42-.36-1.71-4.13c-.09-.23-.25-.42-.45-.55-.2-.14-.44-.21-.68-.21zm0 2.38 1.3 3.15c.24.58.78.97 1.41 1.02l3.39.27-2.59 2.24c-.47.41-.68 1.04-.53 1.64l.79 3.34-2.89-1.78c-.27-.16-.57-.25-.87-.25s-.61.08-.87.25l-2.89 1.78.79-3.33a1.68 1.68 0 0 0-.53-1.65l-2.59-2.24 3.39-.27c.62-.05 1.17-.45 1.41-1.02l1.3-3.15" clip-rule="evenodd"/></svg>