<svg xmlns="http://www.w3.org/2000/svg" viewBox="0 0 24 24" width="24" height="24"><path d="M12.33 7.46c.75 0 1.4.27 1.94.81s.81 1.19.81 1.94-.27 1.4-.81 1.94-1.19.81-1.94.81-1.4-.27-1.94-.81-.81-1.19-.81-1.94.27-1.4.81-1.94 1.18-.81 1.94-.81"/><path fill-rule="evenodd" d="M19 5c.46 0 .85.16 1.18.49s.49.72.49 1.18v10c0 .46-.16.85-.49 1.18a1.6 1.6 0 0 1-1.18.49H5.67a1.6 1.6 0 0 1-1.18-.49A1.6 1.6 0 0 1 4 16.67v-10c0-.46.16-.85.49-1.18A1.6 1.6 0 0 1 5.67 5zM5.68 6.5c-.06 0-.07 0-.12.05s-.05.06-.05.12v10c0 .06 0 .07.05.12s.06.05.12.05h.89c0-.4.11-.77.31-1.1.21-.35.49-.61.84-.79.74-.37 1.5-.65 2.27-.84s1.55-.28 2.35-.28 1.58.09 2.35.28 1.52.47 2.27.84c.35.19.63.45.84.79.2.34.31.7.31 1.1H19c.06 0 .07 0 .12-.05s.05-.06.05-.12h.01v-10c0-.06 0-.07-.05-.12s-.06-.05-.12-.05z" clip-rule="evenodd"/></svg>