<svg xmlns="http://www.w3.org/2000/svg" viewBox="0 0 24 24" width="24" height="24"><path d="M11.4 5.4V3.6a.6.6 0 1 1 1.2 0v1.8a.6.6 0 1 1-1.2 0m.6 1.8a4.8 4.8 0 1 0 0 9.6 4.8 4.8 0 0 0 0-9.6m-5.224.425a.6.6 0 0 0 .849-.85l-1.2-1.2a.6.6 0 0 0-.85.85zm0 8.75-1.2 1.2a.6.6 0 0 0 .849.85l1.2-1.2a.6.6 0 1 0-.85-.85M16.8 7.8a.6.6 0 0 0 .424-.175l1.2-1.2a.6.6 0 0 0-.848-.85l-1.2 1.2A.6.6 0 0 0 16.8 7.8m.424 8.575a.6.6 0 0 0-.849.85l1.2 1.2A.599.599 0 0 0 18.6 18a.6.6 0 0 0-.176-.424zM6 12a.6.6 0 0 0-.6-.6H3.6a.6.6 0 1 0 0 1.2h1.8A.6.6 0 0 0 6 12m6 6a.6.6 0 0 0-.6.6v1.8a.6.6 0 0 0 1.2 0v-1.8a.6.6 0 0 0-.6-.6m8.4-6.6h-1.8a.6.6 0 0 0 0 1.2h1.8a.6.6 0 0 0 0-1.2"/></svg>