<svg xmlns="http://www.w3.org/2000/svg" viewBox="0 0 24 24" width="24" height="24"><path d="M12 20.333a8.1 8.1 0 0 1-3.25-.656 8.4 8.4 0 0 1-2.646-1.781 8.4 8.4 0 0 1-1.781-2.646A8.1 8.1 0 0 1 3.667 12q0-1.73.656-3.25a8.4 8.4 0 0 1 1.781-2.646A8.4 8.4 0 0 1 8.75 4.323 8.1 8.1 0 0 1 12 3.667q1.73 0 3.25.656a8.4 8.4 0 0 1 2.646 1.781 8.4 8.4 0 0 1 1.781 2.646 8.1 8.1 0 0 1 .656 3.25 8.1 8.1 0 0 1-.656 3.25 8.4 8.4 0 0 1-1.781 2.646 8.4 8.4 0 0 1-2.646 1.781 8.1 8.1 0 0 1-3.25.656m-2.417-2.125 1-2.291a3.9 3.9 0 0 1-1.51-.97 4.7 4.7 0 0 1-.99-1.53l-2.291.958a6.25 6.25 0 0 0 1.479 2.333 6.5 6.5 0 0 0 2.312 1.5m-1.5-7.625a4.7 4.7 0 0 1 .99-1.531q.635-.655 1.51-.969l-.958-2.291a6.5 6.5 0 0 0-2.333 1.5 6.5 6.5 0 0 0-1.5 2.333zM12 14.5q1.042 0 1.77-.73.73-.728.73-1.77t-.73-1.77A2.4 2.4 0 0 0 12 9.5q-1.042 0-1.77.73A2.4 2.4 0 0 0 9.5 12q0 1.042.73 1.77.728.73 1.77.73m2.417 3.708a6.5 6.5 0 0 0 2.302-1.49 6.5 6.5 0 0 0 1.49-2.301l-2.292-1a3.96 3.96 0 0 1-.959 1.51q-.645.636-1.5.99zm1.5-7.666 2.291-.959a6.5 6.5 0 0 0-1.49-2.302 6.5 6.5 0 0 0-2.301-1.49l-.959 2.334q.855.312 1.48.948.624.635.979 1.469"/></svg>