<svg xmlns="http://www.w3.org/2000/svg" viewBox="0 0 24 24" width="24" height="24"><path d="M12 20.333a8.1 8.1 0 0 1-3.25-.656 8.4 8.4 0 0 1-2.646-1.781 8.4 8.4 0 0 1-1.781-2.646A8.1 8.1 0 0 1 3.667 12q0-1.73.656-3.25a8.4 8.4 0 0 1 1.781-2.646A8.4 8.4 0 0 1 8.75 4.323 8.1 8.1 0 0 1 12 3.667q1.73 0 3.25.656a8.4 8.4 0 0 1 2.646 1.781 8.4 8.4 0 0 1 1.781 2.646 8.1 8.1 0 0 1 .656 3.25 8.1 8.1 0 0 1-.656 3.25 8.4 8.4 0 0 1-1.781 2.646 8.4 8.4 0 0 1-2.646 1.781 8.1 8.1 0 0 1-3.25.656m0-1.666q2.792 0 4.73-1.938 1.936-1.937 1.937-4.729 0-2.792-1.938-4.73Q14.792 5.335 12 5.334q-2.791 0-4.73 1.938Q5.335 9.208 5.334 12q0 2.792 1.938 4.73 1.937 1.936 4.73 1.937M12 17q-2.084 0-3.542-1.458Q7 14.083 7 12q0-2.084 1.458-3.542Q9.917 7 12 7q2.084 0 3.542 1.458Q17 9.917 17 12q0 2.084-1.458 3.542Q14.083 17 12 17m0-1.667a3.2 3.2 0 0 0 2.354-.979 3.2 3.2 0 0 0 .98-2.354 3.2 3.2 0 0 0-.98-2.354A3.2 3.2 0 0 0 12 8.666a3.2 3.2 0 0 0-2.354.98A3.2 3.2 0 0 0 8.666 12q0 1.375.98 2.354a3.2 3.2 0 0 0 2.354.98m0-1.666q-.687 0-1.177-.49a1.6 1.6 0 0 1-.49-1.177q0-.687.49-1.177t1.177-.49 1.177.49.49 1.177-.49 1.177-1.177.49"/></svg>