<svg xmlns="http://www.w3.org/2000/svg" viewBox="0 0 24 24" width="24" height="24"><path d="M12 20.333a8.1 8.1 0 0 1-3.25-.656 8.4 8.4 0 0 1-2.646-1.781 8.4 8.4 0 0 1-1.781-2.646A8.1 8.1 0 0 1 3.667 12q0-1.73.656-3.25a8.4 8.4 0 0 1 1.781-2.646A8.4 8.4 0 0 1 8.75 4.323 8.1 8.1 0 0 1 12 3.667a8.2 8.2 0 0 1 2.563.396 8.6 8.6 0 0 1 2.229 1.104l-1.209 1.229a7.2 7.2 0 0 0-1.687-.781A6.3 6.3 0 0 0 12 5.333q-2.77 0-4.719 1.948Q5.334 9.23 5.333 12t1.948 4.719Q9.23 18.667 12 18.667t4.719-1.948Q18.667 14.77 18.667 12q0-.375-.042-.75a6 6 0 0 0-.125-.73l1.354-1.353q.23.666.354 1.375.126.708.125 1.458a8.1 8.1 0 0 1-.656 3.25 8.4 8.4 0 0 1-1.781 2.646 8.4 8.4 0 0 1-2.646 1.781 8.1 8.1 0 0 1-3.25.656m-1.167-4.5-3.541-3.541 1.166-1.167 2.375 2.375 8.334-8.354 1.166 1.167z"/></svg>