<svg xmlns="http://www.w3.org/2000/svg" viewBox="0 0 24 24" width="24" height="24"><path d="M11.4 7.2a.6.6 0 0 1-.6.6H5.4a.6.6 0 0 1 0-1.2h5.4a.6.6 0 0 1 .6.6m-.6 2.4H5.4a.6.6 0 0 0 0 1.2h5.4a.6.6 0 1 0 0-1.2m0 3H5.4a.6.6 0 1 0 0 1.2h5.4a.6.6 0 1 0 0-1.2m0 3H5.4a.6.6 0 1 0 0 1.2h5.4a.6.6 0 1 0 0-1.2m2.4-7.8h5.4a.6.6 0 1 0 0-1.2h-5.4a.6.6 0 0 0 0 1.2m5.4 1.8h-5.4a.6.6 0 0 0 0 1.2h5.4a.6.6 0 1 0 0-1.2m0 3h-5.4a.6.6 0 1 0 0 1.2h5.4a.6.6 0 1 0 0-1.2m0 3h-5.4a.6.6 0 1 0 0 1.2h5.4a.6.6 0 1 0 0-1.2"/></svg>