<svg xmlns="http://www.w3.org/2000/svg" viewBox="0 0 24 24" width="24" height="24"><path d="m17.948 19.51-4.563-4.562 1.75-1.75 4.563 4.562zm-11.5 0-1.75-1.75 5.75-5.75-1.417-1.416-.583.583-1.063-1.062v1.708l-.583.583-2.52-2.52.583-.584h1.708L5.53 8.26 8.49 5.302a2.6 2.6 0 0 1 .895-.604 2.67 2.67 0 0 1 1.959 0q.48.187.896.604L10.323 7.22l1.042 1.041-.584.584 1.417 1.416 1.875-1.875a3.5 3.5 0 0 1-.136-.479 2.5 2.5 0 0 1-.052-.5q0-1.23.844-2.073.845-.843 2.073-.843.312 0 .594.062.28.063.573.188l-2.063 2.062 1.5 1.5L19.47 6.24q.146.291.198.572.051.282.052.594 0 1.23-.844 2.073-.843.844-2.073.844-.25 0-.5-.042a2 2 0 0 1-.48-.146z"/></svg>