<svg xmlns="http://www.w3.org/2000/svg" viewBox="0 0 24 24" width="24" height="24"><path d="M19.2 9.66V9.6A4.204 4.204 0 0 0 15 5.4h-.6a1.2 1.2 0 0 0-1.2 1.2v9H12V7.8a.6.6 0 0 0-.6-.6H3.6a1.2 1.2 0 0 0-1.2 1.2v7.8a2.4 2.4 0 0 0 4.2 1.585 2.4 2.4 0 0 0 4.125-.985h6.15a2.4 2.4 0 0 0 4.725-.6v-3.6a3.005 3.005 0 0 0-2.4-2.94M14.4 6.6h.6a3 3 0 0 1 3 3v.6a.6.6 0 0 0 .6.6 1.8 1.8 0 0 1 1.8 1.8v1.523a2.4 2.4 0 0 0-1.2-.323 2.405 2.405 0 0 0-2.325 1.8H14.4zm-3.6 1.8v7.2h-.075a2.4 2.4 0 0 0-4.125-.985 2.39 2.39 0 0 0-3-.492V8.4zm-6 9a1.2 1.2 0 1 1 0-2.4 1.2 1.2 0 0 1 0 2.4m3.6 0a1.2 1.2 0 1 1 0-2.4 1.2 1.2 0 0 1 0 2.4m10.8 0a1.2 1.2 0 1 1 0-2.401 1.2 1.2 0 0 1 0 2.401"/></svg>