<svg xmlns="http://www.w3.org/2000/svg" viewBox="0 0 24 24" width="24" height="24"><path d="M12 19.5a7.3 7.3 0 0 1-2.927-.594 7.6 7.6 0 0 1-2.375-1.604 7.6 7.6 0 0 1-1.604-2.375A7.3 7.3 0 0 1 4.5 12q0-1.562.594-2.927.593-1.365 1.604-2.375a7.6 7.6 0 0 1 2.375-1.604A7.3 7.3 0 0 1 12 4.5q1.708 0 3.24.73a7.3 7.3 0 0 1 2.593 2.062V5.333H19.5v5h-5V8.667h2.292a6.2 6.2 0 0 0-2.105-1.834A5.6 5.6 0 0 0 12 6.167q-2.437 0-4.135 1.698T6.167 12t1.698 4.135T12 17.833q2.188 0 3.823-1.416 1.636-1.418 1.927-3.584h1.708q-.312 2.855-2.448 4.76Q14.876 19.5 12 19.5m2.333-4-3.166-3.167v-4.5h1.666v3.834l2.667 2.666z"/></svg>