<svg xmlns="http://www.w3.org/2000/svg" viewBox="0 0 24 24" width="24" height="24"><path d="M20.76 13.68a.603.603 0 0 1-.84-.12A3.87 3.87 0 0 0 16.8 12a.6.6 0 1 1 0-1.2 1.801 1.801 0 1 0-1.743-2.25.6.6 0 0 1-1.162-.3 3 3 0 1 1 4.93 2.963 5.1 5.1 0 0 1 2.057 1.626.6.6 0 0 1-.122.841m-4.041 4.62a.601.601 0 1 1-1.038.6 4.276 4.276 0 0 0-7.362 0 .6.6 0 1 1-1.038-.6 5.4 5.4 0 0 1 2.53-2.244 3.6 3.6 0 1 1 4.377 0A5.4 5.4 0 0 1 16.72 18.3M12 15.6a2.4 2.4 0 1 0 0-4.8 2.4 2.4 0 0 0 0 4.8m-4.2-4.2a.6.6 0 0 0-.6-.6 1.8 1.8 0 1 1 1.743-2.25.6.6 0 0 0 1.162-.3 3 3 0 1 0-4.93 2.963A5.1 5.1 0 0 0 3.12 12.84a.6.6 0 0 0 .96.721A3.87 3.87 0 0 1 7.2 12a.6.6 0 0 0 .6-.6"/></svg>