<svg xmlns="http://www.w3.org/2000/svg" viewBox="0 0 24 24" width="24" height="24"><path d="M2 17v-1.312q0-.897.917-1.459.916-.562 2.416-.562.27 0 .521.01.25.01.48.052-.292.438-.438.917t-.146 1V17zm5 0v-1.354q0-.667.365-1.219.364-.551 1.03-.969.668-.416 1.595-.625a9.2 9.2 0 0 1 2.01-.208q1.104 0 2.031.208.928.21 1.594.625.667.417 1.02.97.355.55.355 1.218V17zm11.25 0v-1.354q0-.542-.135-1.021a3.3 3.3 0 0 0-.407-.896q.23-.042.47-.052.238-.01.489-.01 1.5 0 2.416.552.917.551.917 1.469V17zM5.333 12.833q-.687 0-1.177-.49a1.6 1.6 0 0 1-.49-1.176q0-.709.49-1.188.49-.48 1.177-.479.709 0 1.188.48.48.478.479 1.187 0 .687-.48 1.177-.478.49-1.187.49m13.334 0q-.688 0-1.177-.49a1.6 1.6 0 0 1-.49-1.176q0-.709.49-1.188.489-.48 1.177-.479.708 0 1.187.48.48.478.48 1.187 0 .687-.48 1.177t-1.187.49M12 12a2.4 2.4 0 0 1-1.77-.73A2.4 2.4 0 0 1 9.5 9.5q0-1.062.73-1.781A2.43 2.43 0 0 1 12 7q1.062 0 1.781.719.72.719.719 1.781 0 1.042-.719 1.77Q13.062 12 12 12"/></svg>