<svg xmlns="http://www.w3.org/2000/svg" viewBox="0 0 24 24" width="24" height="24"><path d="M4.5 17.833q-.687 0-1.177-.49a1.6 1.6 0 0 1-.49-1.176V7.833q0-.687.49-1.177t1.177-.49h8.333q.688 0 1.177.49t.49 1.177v8.334q0 .687-.49 1.177-.489.49-1.177.49zm0-3.041a8.2 8.2 0 0 1 1.958-.834 8.2 8.2 0 0 1 2.209-.291q1.166 0 2.208.291a8.2 8.2 0 0 1 1.958.834V7.833H4.5zm4.167-1.75q-.959 0-1.625-.667a2.2 2.2 0 0 1-.667-1.625q0-.958.667-1.625a2.2 2.2 0 0 1 1.625-.667q.958 0 1.625.667.666.666.666 1.625 0 .958-.666 1.625a2.2 2.2 0 0 1-1.625.667m7.5 4.791V6.167h1.666v11.666zm3.333 0V6.167h1.667v11.666z"/></svg>