<svg xmlns="http://www.w3.org/2000/svg" viewBox="0 0 24 24" width="24" height="24"><path d="M11.4 12.6V8.4a.6.6 0 1 1 1.2 0v4.2a.6.6 0 0 1-1.2 0m8.4-3.334v5.468a1.2 1.2 0 0 1-.352.848l-3.866 3.866a1.2 1.2 0 0 1-.848.352H9.266a1.2 1.2 0 0 1-.848-.352l-3.866-3.866a1.2 1.2 0 0 1-.352-.848V9.266a1.2 1.2 0 0 1 .352-.848l3.866-3.866a1.2 1.2 0 0 1 .848-.352h5.468a1.2 1.2 0 0 1 .848.352l3.866 3.866a1.2 1.2 0 0 1 .352.848m-1.2 0L14.734 5.4H9.266L5.4 9.266v5.468L9.266 18.6h5.468l3.866-3.866zM12 14.4a.9.9 0 1 0 0 1.8.9.9 0 0 0 0-1.8"/></svg>