<svg xmlns="http://www.w3.org/2000/svg" viewBox="0 0 24 24" width="24" height="24"><path fill-rule="evenodd" d="M20.16 16.31 13.6 4.92c-.16-.28-.4-.51-.68-.67S12.32 4 12 4s-.64.08-.92.25-.51.39-.68.67L3.84 16.31c-.16.27-.24.58-.24.89s.08.62.24.89c.16.28.4.51.68.67s.6.24.92.24h13.12c.32 0 .64-.08.92-.24s.51-.39.68-.67c.16-.27.24-.58.24-.89s-.08-.62-.24-.89m-7.57-.05c-.16.16-.36.24-.59.24s-.43-.08-.59-.24a.8.8 0 0 1-.24-.59c0-.23.08-.43.24-.59s.36-.24.59-.24.43.08.59.24.24.36.24.59-.08.43-.24.59m.24-2.26h-1.67V9.83h1.67z" clip-rule="evenodd"/></svg>