<svg xmlns="http://www.w3.org/2000/svg" viewBox="0 0 24 24" width="24" height="24"><path d="m20.16 16.507-6.559-11.39a1.857 1.857 0 0 0-3.202 0L3.84 16.507a1.76 1.76 0 0 0 0 1.779 1.83 1.83 0 0 0 1.601.914H18.56a1.826 1.826 0 0 0 1.841-1.803c0-.313-.082-.62-.24-.89m-1.04 1.178a.64.64 0 0 1-.561.315H5.44a.64.64 0 0 1-.56-.315.57.57 0 0 1 0-.579l6.558-11.39a.657.657 0 0 1 1.125 0l6.559 11.39a.57.57 0 0 1-.003.579M11.4 13.2v-3a.6.6 0 0 1 1.2 0v3a.6.6 0 0 1-1.2 0m1.5 2.7a.9.9 0 1 1-1.8 0 .9.9 0 0 1 1.8 0"/></svg>