<svg xmlns="http://www.w3.org/2000/svg" viewBox="0 0 24 24" width="24" height="24"><path d="M10.2 13.2v3.873a.6.6 0 0 1-.707.59l-4.8-.873a.6.6 0 0 1-.493-.59v-3a.6.6 0 0 1 .6-.6h4.8a.6.6 0 0 1 .6.6m-.215-6.733a.6.6 0 0 0-.492-.13l-4.8.873a.6.6 0 0 0-.493.59v3a.6.6 0 0 0 .6.6h4.8a.6.6 0 0 0 .6-.6V6.927a.6.6 0 0 0-.215-.46M18 12.6h-6a.6.6 0 0 0-.6.6v4.309a.6.6 0 0 0 .493.59l6 1.091q.053.01.107.01a.6.6 0 0 0 .6-.6v-5.4a.6.6 0 0 0-.6-.6m.385-7.66a.6.6 0 0 0-.492-.13l-6 1.091a.6.6 0 0 0-.493.59V10.8a.6.6 0 0 0 .6.6h6a.6.6 0 0 0 .6-.6V5.4a.6.6 0 0 0-.215-.46"/></svg>