<svg xmlns="http://www.w3.org/2000/svg" viewBox="0 0 24 24" width="24" height="24"><path d="m18.063 9.646-2.938-2.938-1.77 1.75-1.772-1.75 2.355-2.375a1.54 1.54 0 0 1 .562-.364 1.8 1.8 0 0 1 1.26 0q.303.115.532.364l1.77 1.771q.375.354.553.823.177.47.177.948 0 .48-.177.938a2.4 2.4 0 0 1-.552.833m-11.48 3.833a1.2 1.2 0 0 1-.375-.885q0-.51.375-.886l2.042-2.062 1.77 1.77-2.062 2.063q-.354.375-.864.375a1.2 1.2 0 0 1-.886-.375m-.895 6.188a1.9 1.9 0 0 1-.355-.552 1.65 1.65 0 0 1-.125-.636q0-.333.115-.635.114-.303.365-.552l5.895-5.875L8.938 8.75a1.14 1.14 0 0 1-.375-.865q0-.51.375-.885.354-.375.875-.375.52 0 .895.375l2.646 2.646 1.188-1.188 2.333 2.375a.8.8 0 0 1 .25.584.8.8 0 0 1-.25.583.8.8 0 0 1-.583.25.8.8 0 0 1-.584-.25l-7.666 7.667q-.25.25-.552.364a1.673 1.673 0 0 1-1.24-.01 1.8 1.8 0 0 1-.562-.354"/></svg>