<svg xmlns="http://www.w3.org/2000/svg" viewBox="0 0 24 24" width="24" height="24"><path d="M19.407 7.575a.6.6 0 0 0-.963-.216l-3.022 2.79-1.293-.278-.277-1.292 2.789-3.023a.6.6 0 0 0-.216-.963A5.4 5.4 0 0 0 9 9.6a5.4 5.4 0 0 0 .45 2.17l-4.516 3.905-.032.03a2.4 2.4 0 1 0 3.424 3.362l3.903-4.517A5.4 5.4 0 0 0 19.8 9.6a5.4 5.4 0 0 0-.393-2.025M14.4 13.8a4.2 4.2 0 0 1-2.03-.525.6.6 0 0 0-.744.133l-4.193 4.855a1.2 1.2 0 0 1-1.696-1.696l4.852-4.192a.6.6 0 0 0 .132-.745 4.2 4.2 0 0 1 4.377-6.173l-2.34 2.536a.6.6 0 0 0-.145.532l.424 1.975a.6.6 0 0 0 .46.46l1.977.425a.6.6 0 0 0 .532-.146l2.536-2.34A4.205 4.205 0 0 1 14.4 13.8"/></svg>