<svg width="24" height="24" viewBox="0 0 24 24" fill="none" xmlns="http://www.w3.org/2000/svg">
<path fill-rule="evenodd" clip-rule="evenodd" d="M17.5 4.5H6.5C5.4 4.5 4.5 5.4 4.5 6.5V17.5C4.5 18.6 5.4 19.5 6.5 19.5H17.5C18.6 19.5 19.5 18.6 19.5 17.5V6.5C19.5 5.4 18.6 4.5 17.5 4.5ZM6.17 12.22L12.22 6.17H16.66L6.17 16.66V12.22ZM17.83 7.34V11.78L11.78 17.83H7.34L17.83 7.34ZM6.5 6.17H10.8L6.17 10.8V6.5C6.17 6.32 6.32 6.17 6.5 6.17ZM17.5 17.83H13.2L17.84 13.19V17.49C17.84 17.67 17.69 17.82 17.51 17.82L17.5 17.83Z" fill="#1E1E1E"/>
</svg>
