<svg width="24" height="24" viewBox="0 0 24 24" fill="none" xmlns="http://www.w3.org/2000/svg">
<path d="M12 19.4933C10.9583 19.4933 9.98264 19.2954 9.07292 18.8995C8.16319 18.5037 7.37153 17.969 6.69792 17.2954C6.02431 16.6218 5.48958 15.8301 5.09375 14.9204C4.69792 14.0106 4.5 13.035 4.5 11.9933C4.5 10.9516 4.69792 9.97593 5.09375 9.0662C5.48958 8.15648 6.02431 7.36481 6.69792 6.6912C7.37153 6.01759 8.16319 5.48287 9.07292 5.08704C9.98264 4.6912 10.9583 4.49329 12 4.49329C13.0417 4.49329 14.0174 4.6912 14.9271 5.08704C15.8368 5.48287 16.6285 6.01759 17.3021 6.6912C17.9757 7.36481 18.5104 8.15648 18.9063 9.0662C19.3021 9.97593 19.5 10.9516 19.5 11.9933C19.5 13.035 19.3021 14.0106 18.9063 14.9204C18.5104 15.8301 17.9757 16.6218 17.3021 17.2954C16.6285 17.969 15.8368 18.5037 14.9271 18.8995C14.0174 19.2954 13.0417 19.4933 12 19.4933ZM14.3333 15.4933L15.5 14.3266L12.8333 11.66V7.82662H11.1667V12.3266L14.3333 15.4933ZM6.66667 3.11829L7.83333 4.28495L4.29167 7.82662L3.125 6.65995L6.66667 3.11829ZM17.3333 3.11829L20.875 6.65995L19.7083 7.82662L16.1667 4.28495L17.3333 3.11829Z" fill="#1E1E1E"/>
</svg>
