<svg width="24" height="24" viewBox="0 0 24 24" fill="none" xmlns="http://www.w3.org/2000/svg">
<path d="M12 5.40004C10.576 5.40004 9.18393 5.82231 7.9999 6.61346C6.81586 7.40461 5.89302 8.52909 5.34807 9.84472C4.80312 11.1603 4.66054 12.608 4.93835 14.0047C5.21616 15.4014 5.9019 16.6843 6.90884 17.6912C7.91577 18.6981 9.19869 19.3839 10.5954 19.6617C11.992 19.9395 13.4397 19.7969 14.7553 19.252C16.071 18.707 17.1954 17.7842 17.9866 16.6001C18.7777 15.4161 19.2 14.0241 19.2 12.6C19.1978 10.6912 18.4386 8.86107 17.0888 7.51128C15.739 6.16149 13.9089 5.40222 12 5.40004ZM12 18.6C10.8133 18.6 9.65328 18.2481 8.66658 17.5889C7.67989 16.9296 6.91085 15.9925 6.45673 14.8961C6.0026 13.7998 5.88378 12.5934 6.11529 11.4295C6.3468 10.2656 6.91825 9.19651 7.75736 8.3574C8.59648 7.51828 9.66558 6.94684 10.8295 6.71533C11.9933 6.48382 13.1997 6.60264 14.2961 7.05676C15.3925 7.51089 16.3295 8.27992 16.9888 9.26662C17.6481 10.2533 18 11.4134 18 12.6C17.9982 14.1908 17.3655 15.7159 16.2407 16.8407C15.1158 17.9655 13.5908 18.5983 12 18.6ZM7.0245 5.22454L4.6245 7.62454C4.51192 7.73713 4.35922 7.80037 4.2 7.80037C4.04079 7.80037 3.88809 7.73713 3.7755 7.62454C3.66292 7.51196 3.59967 7.35926 3.59967 7.20004C3.59967 7.04082 3.66292 6.88812 3.7755 6.77554L6.1755 4.37554C6.28809 4.26296 6.44079 4.19971 6.6 4.19971C6.75922 4.19971 6.91192 4.26296 7.0245 4.37554C7.13709 4.48813 7.20034 4.64082 7.20034 4.80004C7.20034 4.95926 7.13709 5.11196 7.0245 5.22454ZM20.2245 7.62454C20.1688 7.68033 20.1026 7.72458 20.0298 7.75478C19.9569 7.78497 19.8789 7.80051 19.8 7.80051C19.7212 7.80051 19.6431 7.78497 19.5702 7.75478C19.4974 7.72458 19.4312 7.68033 19.3755 7.62454L16.9755 5.22454C16.8629 5.11196 16.7997 4.95926 16.7997 4.80004C16.7997 4.64082 16.8629 4.48813 16.9755 4.37554C17.0881 4.26296 17.2408 4.19971 17.4 4.19971C17.5592 4.19971 17.7119 4.26296 17.8245 4.37554L20.2245 6.77554C20.2803 6.83126 20.3245 6.89744 20.3547 6.97028C20.3849 7.04312 20.4005 7.12119 20.4005 7.20004C20.4005 7.27889 20.3849 7.35697 20.3547 7.4298C20.3245 7.50264 20.2803 7.56882 20.2245 7.62454ZM16.2 12C16.3591 12 16.5117 12.0633 16.6243 12.1758C16.7368 12.2883 16.8 12.4409 16.8 12.6C16.8 12.7592 16.7368 12.9118 16.6243 13.0243C16.5117 13.1368 16.3591 13.2 16.2 13.2H12C11.8409 13.2 11.6883 13.1368 11.5757 13.0243C11.4632 12.9118 11.4 12.7592 11.4 12.6V8.40004C11.4 8.24091 11.4632 8.0883 11.5757 7.97578C11.6883 7.86325 11.8409 7.80004 12 7.80004C12.1591 7.80004 12.3117 7.86325 12.4243 7.97578C12.5368 8.0883 12.6 8.24091 12.6 8.40004V12H16.2Z" fill="#1E1E1E"/>
</svg>
