<svg width="24" height="24" viewBox="0 0 24 24" fill="none" xmlns="http://www.w3.org/2000/svg">
<path d="M11.1667 20.3333V16.1666C11.1667 15.3888 11.0486 14.8125 10.8125 14.4375C10.5764 14.0625 10.2639 13.6944 9.875 13.3333L11.0625 12.1458C11.2292 12.2986 11.3889 12.4618 11.5417 12.6354C11.6944 12.809 11.8472 12.993 12 13.1875C12.1944 12.9236 12.3924 12.6909 12.5938 12.4895C12.7951 12.2882 13 12.0902 13.2083 11.8958C13.7361 11.4097 14.2153 10.8472 14.6458 10.2083C15.0764 9.5694 15.3056 8.45135 15.3333 6.85413L14.0208 8.16663L12.8333 6.99996L16.1667 3.66663L19.5 6.99996L18.3333 8.16663L17 6.85413C16.9722 8.84024 16.6667 10.2534 16.0833 11.0937C15.5 11.934 14.9167 12.618 14.3333 13.1458C13.8889 13.5486 13.5278 13.9409 13.25 14.3229C12.9722 14.7048 12.8333 15.3194 12.8333 16.1666V20.3333H11.1667ZM7.16667 8.81246C7.11111 8.53468 7.07292 8.22913 7.05208 7.89579C7.03125 7.56246 7.01389 7.21524 7 6.85413L5.66667 8.16663L4.5 6.99996L7.83333 3.66663L11.1667 6.99996L9.97917 8.16663L8.66667 6.87496C8.66667 7.16663 8.68056 7.44093 8.70833 7.69788C8.73611 7.95482 8.76389 8.1944 8.79167 8.41663L7.16667 8.81246ZM8.95833 12.4791C8.68056 12.1875 8.41319 11.8472 8.15625 11.4583C7.89931 11.0694 7.67361 10.5902 7.47917 10.0208L9.08333 9.62496C9.22222 9.99996 9.38194 10.3194 9.5625 10.5833C9.74306 10.8472 9.9375 11.0833 10.1458 11.2916L8.95833 12.4791Z" fill="#1E1E1E"/>
</svg>
