<svg width="24" height="24" viewBox="0 0 24 24" fill="none" xmlns="http://www.w3.org/2000/svg">
<path d="M18.6 5.40002H5.40001C5.08175 5.40002 4.77653 5.52645 4.55148 5.7515C4.32644 5.97654 4.20001 6.28176 4.20001 6.60002V17.4C4.20001 17.7183 4.32644 18.0235 4.55148 18.2486C4.77653 18.4736 5.08175 18.6 5.40001 18.6H18.6C18.9183 18.6 19.2235 18.4736 19.4485 18.2486C19.6736 18.0235 19.8 17.7183 19.8 17.4V6.60002C19.8 6.28176 19.6736 5.97654 19.4485 5.7515C19.2235 5.52645 18.9183 5.40002 18.6 5.40002ZM18.6 17.4H5.40001V6.60002H18.6V17.4ZM8.40001 8.70002C8.40001 8.87803 8.34723 9.05203 8.24834 9.20004C8.14944 9.34804 8.00888 9.4634 7.84443 9.53152C7.67997 9.59963 7.49901 9.61746 7.32443 9.58273C7.14985 9.548 6.98948 9.46229 6.86362 9.33642C6.73775 9.21055 6.65203 9.05019 6.61731 8.87561C6.58258 8.70102 6.6004 8.52006 6.66852 8.35561C6.73664 8.19116 6.85199 8.05059 7 7.9517C7.148 7.85281 7.32201 7.80002 7.50001 7.80002C7.73871 7.80002 7.96763 7.89485 8.13641 8.06363C8.30519 8.23241 8.40001 8.46133 8.40001 8.70002ZM11.4 8.70002C11.4 8.87803 11.3472 9.05203 11.2483 9.20004C11.1494 9.34804 11.0089 9.4634 10.8444 9.53152C10.68 9.59963 10.499 9.61746 10.3244 9.58273C10.1498 9.548 9.98948 9.46229 9.86362 9.33642C9.73775 9.21055 9.65203 9.05019 9.61731 8.87561C9.58258 8.70102 9.6004 8.52006 9.66852 8.35561C9.73664 8.19116 9.852 8.05059 10 7.9517C10.148 7.85281 10.322 7.80002 10.5 7.80002C10.7387 7.80002 10.9676 7.89485 11.1364 8.06363C11.3052 8.23241 11.4 8.46133 11.4 8.70002Z" fill="#1E1E1E"/>
</svg>
