<svg width="24" height="24" viewBox="0 0 24 24" fill="none" xmlns="http://www.w3.org/2000/svg">
<path d="M6.99998 18.6666C6.54165 18.6666 6.14929 18.5035 5.8229 18.1771C5.49651 17.8507 5.33331 17.4583 5.33331 17C5.33331 16.5416 5.49651 16.1493 5.8229 15.8229C6.14929 15.4965 6.54165 15.3333 6.99998 15.3333C7.45831 15.3333 7.85067 15.4965 8.17706 15.8229C8.50345 16.1493 8.66665 16.5416 8.66665 17C8.66665 17.4583 8.50345 17.8507 8.17706 18.1771C7.85067 18.5035 7.45831 18.6666 6.99998 18.6666ZM12 18.6666C11.5416 18.6666 11.1493 18.5035 10.8229 18.1771C10.4965 17.8507 10.3333 17.4583 10.3333 17C10.3333 16.5416 10.4965 16.1493 10.8229 15.8229C11.1493 15.4965 11.5416 15.3333 12 15.3333C12.4583 15.3333 12.8507 15.4965 13.1771 15.8229C13.5035 16.1493 13.6666 16.5416 13.6666 17C13.6666 17.4583 13.5035 17.8507 13.1771 18.1771C12.8507 18.5035 12.4583 18.6666 12 18.6666ZM17 18.6666C16.5416 18.6666 16.1493 18.5035 15.8229 18.1771C15.4965 17.8507 15.3333 17.4583 15.3333 17C15.3333 16.5416 15.4965 16.1493 15.8229 15.8229C16.1493 15.4965 16.5416 15.3333 17 15.3333C17.4583 15.3333 17.8507 15.4965 18.1771 15.8229C18.5035 16.1493 18.6666 16.5416 18.6666 17C18.6666 17.4583 18.5035 17.8507 18.1771 18.1771C17.8507 18.5035 17.4583 18.6666 17 18.6666ZM6.99998 13.6666C6.54165 13.6666 6.14929 13.5035 5.8229 13.1771C5.49651 12.8507 5.33331 12.4583 5.33331 12C5.33331 11.5416 5.49651 11.1493 5.8229 10.8229C6.14929 10.4965 6.54165 10.3333 6.99998 10.3333C7.45831 10.3333 7.85067 10.4965 8.17706 10.8229C8.50345 11.1493 8.66665 11.5416 8.66665 12C8.66665 12.4583 8.50345 12.8507 8.17706 13.1771C7.85067 13.5035 7.45831 13.6666 6.99998 13.6666ZM12 13.6666C11.5416 13.6666 11.1493 13.5035 10.8229 13.1771C10.4965 12.8507 10.3333 12.4583 10.3333 12C10.3333 11.5416 10.4965 11.1493 10.8229 10.8229C11.1493 10.4965 11.5416 10.3333 12 10.3333C12.4583 10.3333 12.8507 10.4965 13.1771 10.8229C13.5035 11.1493 13.6666 11.5416 13.6666 12C13.6666 12.4583 13.5035 12.8507 13.1771 13.1771C12.8507 13.5035 12.4583 13.6666 12 13.6666ZM17 13.6666C16.5416 13.6666 16.1493 13.5035 15.8229 13.1771C15.4965 12.8507 15.3333 12.4583 15.3333 12C15.3333 11.5416 15.4965 11.1493 15.8229 10.8229C16.1493 10.4965 16.5416 10.3333 17 10.3333C17.4583 10.3333 17.8507 10.4965 18.1771 10.8229C18.5035 11.1493 18.6666 11.5416 18.6666 12C18.6666 12.4583 18.5035 12.8507 18.1771 13.1771C17.8507 13.5035 17.4583 13.6666 17 13.6666ZM6.99998 8.66665C6.54165 8.66665 6.14929 8.50345 5.8229 8.17706C5.49651 7.85067 5.33331 7.45831 5.33331 6.99998C5.33331 6.54165 5.49651 6.14929 5.8229 5.8229C6.14929 5.49651 6.54165 5.33331 6.99998 5.33331C7.45831 5.33331 7.85067 5.49651 8.17706 5.8229C8.50345 6.14929 8.66665 6.54165 8.66665 6.99998C8.66665 7.45831 8.50345 7.85067 8.17706 8.17706C7.85067 8.50345 7.45831 8.66665 6.99998 8.66665ZM12 8.66665C11.5416 8.66665 11.1493 8.50345 10.8229 8.17706C10.4965 7.85067 10.3333 7.45831 10.3333 6.99998C10.3333 6.54165 10.4965 6.14929 10.8229 5.8229C11.1493 5.49651 11.5416 5.33331 12 5.33331C12.4583 5.33331 12.8507 5.49651 13.1771 5.8229C13.5035 6.14929 13.6666 6.54165 13.6666 6.99998C13.6666 7.45831 13.5035 7.85067 13.1771 8.17706C12.8507 8.50345 12.4583 8.66665 12 8.66665ZM17 8.66665C16.5416 8.66665 16.1493 8.50345 15.8229 8.17706C15.4965 7.85067 15.3333 7.45831 15.3333 6.99998C15.3333 6.54165 15.4965 6.14929 15.8229 5.8229C16.1493 5.49651 16.5416 5.33331 17 5.33331C17.4583 5.33331 17.8507 5.49651 18.1771 5.8229C18.5035 6.14929 18.6666 6.54165 18.6666 6.99998C18.6666 7.45831 18.5035 7.85067 18.1771 8.17706C17.8507 8.50345 17.4583 8.66665 17 8.66665Z" fill="#1E1E1E"/>
</svg>
