<svg width="24" height="24" viewBox="0 0 24 24" fill="none" xmlns="http://www.w3.org/2000/svg">
<path d="M19.2 6H4.79998C4.48172 6 4.17649 6.12643 3.95145 6.35147C3.7264 6.57652 3.59998 6.88174 3.59998 7.2V9C3.59998 9.31826 3.7264 9.62348 3.95145 9.84853C4.17649 10.0736 4.48172 10.2 4.79998 10.2V16.8C4.79998 17.1183 4.9264 17.4235 5.15145 17.6485C5.37649 17.8736 5.68172 18 5.99998 18H18C18.3182 18 18.6235 17.8736 18.8485 17.6485C19.0735 17.4235 19.2 17.1183 19.2 16.8V10.2C19.5182 10.2 19.8235 10.0736 20.0485 9.84853C20.2735 9.62348 20.4 9.31826 20.4 9V7.2C20.4 6.88174 20.2735 6.57652 20.0485 6.35147C19.8235 6.12643 19.5182 6 19.2 6ZM18 16.8H5.99998V10.2H18V16.8ZM19.2 9H4.79998V7.2H19.2V9ZM9.59998 12.6C9.59998 12.4409 9.66319 12.2883 9.77571 12.1757C9.88823 12.0632 10.0408 12 10.2 12H13.8C13.9591 12 14.1117 12.0632 14.2242 12.1757C14.3368 12.2883 14.4 12.4409 14.4 12.6C14.4 12.7591 14.3368 12.9117 14.2242 13.0243C14.1117 13.1368 13.9591 13.2 13.8 13.2H10.2C10.0408 13.2 9.88823 13.1368 9.77571 13.0243C9.66319 12.9117 9.59998 12.7591 9.59998 12.6Z" fill="#1E1E1E"/>
</svg>
