<svg width="24" height="24" viewBox="0 0 24 24" fill="none" xmlns="http://www.w3.org/2000/svg">
<path d="M18.4245 16.0245L16.0245 18.4245C15.9119 18.5371 15.7592 18.6003 15.6 18.6003C15.4408 18.6003 15.2881 18.5371 15.1755 18.4245C15.0629 18.3119 14.9997 18.1592 14.9997 18C14.9997 17.8408 15.0629 17.6881 15.1755 17.5755L16.5518 16.2H6.00001C5.84088 16.2 5.68827 16.1368 5.57574 16.0243C5.46322 15.9117 5.40001 15.7591 5.40001 15.6C5.40001 15.4409 5.46322 15.2883 5.57574 15.1757C5.68827 15.0632 5.84088 15 6.00001 15H16.5518L15.1755 13.6245C15.0629 13.5119 14.9997 13.3592 14.9997 13.2C14.9997 13.0408 15.0629 12.8881 15.1755 12.7755C15.2881 12.6629 15.4408 12.5997 15.6 12.5997C15.7592 12.5997 15.9119 12.6629 16.0245 12.7755L18.4245 15.1755C18.4803 15.2312 18.5245 15.2974 18.5547 15.3702C18.5849 15.4431 18.6005 15.5211 18.6005 15.6C18.6005 15.6788 18.5849 15.7569 18.5547 15.8298C18.5245 15.9026 18.4803 15.9688 18.4245 16.0245ZM7.97551 11.2245C8.08809 11.3371 8.24079 11.4003 8.40001 11.4003C8.55923 11.4003 8.71192 11.3371 8.82451 11.2245C8.93709 11.1119 9.00034 10.9592 9.00034 10.8C9.00034 10.6408 8.93709 10.4881 8.82451 10.3755L7.44826 8.99999H18C18.1591 8.99999 18.3118 8.93678 18.4243 8.82426C18.5368 8.71173 18.6 8.55912 18.6 8.39999C18.6 8.24086 18.5368 8.08825 18.4243 7.97573C18.3118 7.86321 18.1591 7.79999 18 7.79999H7.44826L8.82451 6.42449C8.93709 6.31191 9.00034 6.15921 9.00034 5.99999C9.00034 5.84077 8.93709 5.68808 8.82451 5.57549C8.71192 5.46291 8.55923 5.39966 8.40001 5.39966C8.24079 5.39966 8.08809 5.46291 7.97551 5.57549L5.57551 7.97549C5.51972 8.03122 5.47547 8.09739 5.44527 8.17023C5.41508 8.24307 5.39954 8.32114 5.39954 8.39999C5.39954 8.47884 5.41508 8.55692 5.44527 8.62976C5.47547 8.70259 5.51972 8.76877 5.57551 8.82449L7.97551 11.2245Z" fill="#1E1E1E"/>
</svg>
