<svg width="24" height="24" viewBox="0 0 24 24" fill="none" xmlns="http://www.w3.org/2000/svg">
<path d="M19.8 12C19.8 12.1592 19.7368 12.3118 19.6243 12.4243C19.5117 12.5368 19.3591 12.6 19.2 12.6H9.24824L13.6245 16.9755C13.6802 17.0313 13.7245 17.0975 13.7546 17.1703C13.7848 17.2431 13.8003 17.3212 13.8003 17.4C13.8003 17.4789 13.7848 17.557 13.7546 17.6298C13.7245 17.7026 13.6802 17.7688 13.6245 17.8245C13.5687 17.8803 13.5026 17.9245 13.4297 17.9547C13.3569 17.9849 13.2788 18.0004 13.2 18.0004C13.1212 18.0004 13.0431 17.9849 12.9703 17.9547C12.8974 17.9245 12.8312 17.8803 12.7755 17.8245L7.37549 12.4245C7.3197 12.3688 7.27545 12.3027 7.24525 12.2298C7.21506 12.157 7.19952 12.0789 7.19952 12C7.19952 11.9212 7.21506 11.8431 7.24525 11.7703C7.27545 11.6974 7.3197 11.6313 7.37549 11.5755L12.7755 6.17555C12.8312 6.1198 12.8974 6.07558 12.9703 6.04541C13.0431 6.01524 13.1212 5.99972 13.2 5.99972C13.2788 5.99972 13.3569 6.01524 13.4297 6.04541C13.5026 6.07558 13.5687 6.1198 13.6245 6.17555C13.6802 6.23129 13.7245 6.29748 13.7546 6.37031C13.7848 6.44315 13.8003 6.52121 13.8003 6.60005C13.8003 6.67889 13.7848 6.75695 13.7546 6.82979C13.7245 6.90262 13.6802 6.9688 13.6245 7.02455L9.24824 11.4H19.2C19.3591 11.4 19.5117 11.4633 19.6243 11.5758C19.7368 11.6883 19.8 11.8409 19.8 12ZM5.39999 4.80005C5.24086 4.80005 5.08825 4.86326 4.97572 4.97578C4.8632 5.08831 4.79999 5.24092 4.79999 5.40005V18.6C4.79999 18.7592 4.8632 18.9118 4.97572 19.0243C5.08825 19.1368 5.24086 19.2 5.39999 19.2C5.55912 19.2 5.71173 19.1368 5.82425 19.0243C5.93677 18.9118 5.99999 18.7592 5.99999 18.6V5.40005C5.99999 5.24092 5.93677 5.08831 5.82425 4.97578C5.71173 4.86326 5.55912 4.80005 5.39999 4.80005Z" fill="#1E1E1E"/>
</svg>
