<svg width="24" height="24" viewBox="0 0 24 24" fill="none" xmlns="http://www.w3.org/2000/svg">
<path d="M19.0245 12.4245L13.6245 17.8245C13.5119 17.9371 13.3592 18.0003 13.2 18.0003C13.0408 18.0003 12.8881 17.9371 12.7755 17.8245C12.6629 17.7119 12.5997 17.5592 12.5997 17.4C12.5997 17.2408 12.6629 17.0881 12.7755 16.9755L17.1517 12.6H5.39999C5.24086 12.6 5.08825 12.5368 4.97572 12.4242C4.8632 12.3117 4.79999 12.1591 4.79999 12C4.79999 11.8408 4.8632 11.6882 4.97572 11.5757C5.08825 11.4632 5.24086 11.4 5.39999 11.4H17.1517L12.7755 7.02447C12.6629 6.91188 12.5997 6.75919 12.5997 6.59997C12.5997 6.44075 12.6629 6.28805 12.7755 6.17547C12.8881 6.06288 13.0408 5.99963 13.2 5.99963C13.3592 5.99963 13.5119 6.06288 13.6245 6.17547L19.0245 11.5755C19.0803 11.6312 19.1245 11.6974 19.1547 11.7702C19.1849 11.843 19.2005 11.9211 19.2005 12C19.2005 12.0788 19.1849 12.1569 19.1547 12.2297C19.1245 12.3026 19.0803 12.3687 19.0245 12.4245Z" fill="#1E1E1E"/>
</svg>
