<svg width="24" height="24" viewBox="0 0 24 24" fill="none" xmlns="http://www.w3.org/2000/svg">
<path d="M19.2 12C19.2001 13.8929 18.4549 15.7097 17.1255 17.0572C15.7961 18.4047 13.9895 19.1745 12.0967 19.2H12C10.1612 19.2045 8.39119 18.5009 7.05748 17.235C7.0002 17.1808 6.95416 17.1159 6.92198 17.0439C6.88979 16.9719 6.8721 16.8943 6.86991 16.8155C6.86771 16.7367 6.88106 16.6583 6.90919 16.5846C6.93732 16.511 6.97968 16.4436 7.03385 16.3863C7.08802 16.3291 7.15294 16.283 7.22491 16.2508C7.29687 16.2187 7.37447 16.201 7.45327 16.1988C7.53207 16.1966 7.61053 16.2099 7.68418 16.2381C7.75782 16.2662 7.8252 16.3085 7.88248 16.3627C8.74032 17.1717 9.81754 17.71 10.9795 17.9104C12.1416 18.1108 13.3368 17.9643 14.4161 17.4893C15.4953 17.0143 16.4107 16.2318 17.0478 15.2396C17.6849 14.2473 18.0156 13.0894 17.9984 11.9104C17.9813 10.7313 17.6171 9.58349 16.9514 8.61023C16.2857 7.63697 15.3479 6.88145 14.2553 6.43804C13.1627 5.99462 11.9637 5.88299 10.808 6.11707C9.65227 6.35115 8.59117 6.92058 7.75723 7.75421C7.7511 7.76084 7.74459 7.7671 7.73773 7.77296L5.74423 9.59996H7.79998C7.95911 9.59996 8.11172 9.66317 8.22424 9.7757C8.33676 9.88822 8.39998 10.0408 8.39998 10.2C8.39998 10.3591 8.33676 10.5117 8.22424 10.6242C8.11172 10.7367 7.95911 10.8 7.79998 10.8H4.19998C4.04085 10.8 3.88823 10.7367 3.77571 10.6242C3.66319 10.5117 3.59998 10.3591 3.59998 10.2V6.59996C3.59998 6.44083 3.66319 6.28822 3.77571 6.1757C3.88823 6.06317 4.04085 5.99996 4.19998 5.99996C4.35911 5.99996 4.51172 6.06317 4.62424 6.1757C4.73676 6.28822 4.79998 6.44083 4.79998 6.59996V8.83496L6.91873 6.89996C7.92671 5.89589 9.20958 5.21296 10.6054 4.93738C12.0012 4.66181 13.4473 4.80593 14.7613 5.35158C16.0752 5.89722 17.1981 6.81991 17.9881 8.00317C18.778 9.18643 19.1998 10.5772 19.2 12Z" fill="#1E1E1E"/>
</svg>
