<svg width="24" height="24" viewBox="0 0 24 24" fill="none" xmlns="http://www.w3.org/2000/svg">
<path d="M17.8245 11.2245C17.7688 11.2803 17.7026 11.3246 17.6298 11.3548C17.557 11.385 17.4789 11.4005 17.4 11.4005C17.3212 11.4005 17.2431 11.385 17.1703 11.3548C17.0974 11.3246 17.0313 11.2803 16.9755 11.2245L12.6 6.84828V18.6C12.6 18.7592 12.5368 18.9118 12.4243 19.0243C12.3118 19.1368 12.1592 19.2 12 19.2C11.8409 19.2 11.6883 19.1368 11.5758 19.0243C11.4632 18.9118 11.4 18.7592 11.4 18.6V6.84828L7.02453 11.2245C6.91194 11.3371 6.75925 11.4004 6.60003 11.4004C6.44081 11.4004 6.28811 11.3371 6.17553 11.2245C6.06294 11.1119 5.99969 10.9593 5.99969 10.8C5.99969 10.6408 6.06294 10.4881 6.17553 10.3755L11.5755 4.97553C11.6313 4.91975 11.6974 4.87549 11.7703 4.8453C11.8431 4.8151 11.9212 4.79956 12 4.79956C12.0789 4.79956 12.157 4.8151 12.2298 4.8453C12.3026 4.87549 12.3688 4.91975 12.4245 4.97553L17.8245 10.3755C17.8803 10.4313 17.9246 10.4974 17.9548 10.5703C17.985 10.6431 18.0005 10.7212 18.0005 10.8C18.0005 10.8789 17.985 10.957 17.9548 11.0298C17.9246 11.1026 17.8803 11.1688 17.8245 11.2245Z" fill="#1E1E1E"/>
</svg>
