<svg width="24" height="24" viewBox="0 0 24 24" fill="none" xmlns="http://www.w3.org/2000/svg">
<path d="M14.5 17.8333L13.3333 16.6458L16.3125 13.6666H8.25C7.20833 13.6666 6.32292 13.302 5.59375 12.5729C4.86458 11.8437 4.5 10.9583 4.5 9.91663C4.5 8.87496 4.86458 7.98954 5.59375 7.26038C6.32292 6.53121 7.20833 6.16663 8.25 6.16663H8.66667V7.83329H8.25C7.66667 7.83329 7.17361 8.03468 6.77083 8.43746C6.36806 8.84024 6.16667 9.33329 6.16667 9.91663C6.16667 10.5 6.36806 10.993 6.77083 11.3958C7.17361 11.7986 7.66667 12 8.25 12H16.3125L13.3333 8.99996L14.5 7.83329L19.5 12.8333L14.5 17.8333Z" fill="#1E1E1E"/>
</svg>
