<svg width="24" height="24" viewBox="0 0 24 24" fill="none" xmlns="http://www.w3.org/2000/svg">
<path d="M16.6245 11.5755C16.6803 11.6313 16.7246 11.6974 16.7547 11.7703C16.7849 11.8431 16.8005 11.9212 16.8005 12C16.8005 12.0789 16.7849 12.157 16.7547 12.2298C16.7246 12.3027 16.6803 12.3688 16.6245 12.4245L11.2245 17.8245C11.1688 17.8803 11.1026 17.9245 11.0298 17.9547C10.9569 17.9849 10.8788 18.0004 10.8 18.0004C10.7212 18.0004 10.6431 17.9849 10.5703 17.9547C10.4974 17.9245 10.4313 17.8803 10.3755 17.8245C10.3198 17.7688 10.2755 17.7026 10.2454 17.6298C10.2152 17.557 10.1997 17.4789 10.1997 17.4C10.1997 17.3212 10.2152 17.2431 10.2454 17.1703C10.2755 17.0975 10.3198 17.0313 10.3755 16.9755L14.7518 12.6H4.80001C4.64088 12.6 4.48827 12.5368 4.37575 12.4243C4.26323 12.3118 4.20001 12.1592 4.20001 12C4.20001 11.8409 4.26323 11.6883 4.37575 11.5758C4.48827 11.4633 4.64088 11.4 4.80001 11.4H14.7518L10.3755 7.02455C10.2629 6.91196 10.1997 6.75927 10.1997 6.60005C10.1997 6.44083 10.2629 6.28813 10.3755 6.17555C10.4881 6.06296 10.6408 5.99972 10.8 5.99972C10.9592 5.99972 11.1119 6.06296 11.2245 6.17555L16.6245 11.5755ZM18.6 4.80005C18.4409 4.80005 18.2883 4.86326 18.1757 4.97578C18.0632 5.08831 18 5.24092 18 5.40005V18.6C18 18.7592 18.0632 18.9118 18.1757 19.0243C18.2883 19.1368 18.4409 19.2 18.6 19.2C18.7591 19.2 18.9118 19.1368 19.0243 19.0243C19.1368 18.9118 19.2 18.7592 19.2 18.6V5.40005C19.2 5.24092 19.1368 5.08831 19.0243 4.97578C18.9118 4.86326 18.7591 4.80005 18.6 4.80005Z" fill="#1E1E1E"/>
</svg>
