<svg width="24" height="24" viewBox="0 0 24 24" fill="none" xmlns="http://www.w3.org/2000/svg">
<path d="M7.33002 17.25V15.5833H13.2467C14.1217 15.5833 14.8821 15.3056 15.5279 14.75C16.1738 14.1944 16.4967 13.5 16.4967 12.6667C16.4967 11.8333 16.1738 11.1389 15.5279 10.5833C14.8821 10.0278 14.1217 9.75 13.2467 9.75H7.99668L10.1634 11.9167L8.99668 13.0833L4.83002 8.91667L8.99668 4.75L10.1634 5.91667L7.99668 8.08333H13.2467C14.5939 8.08333 15.7502 8.52083 16.7154 9.39583C17.6807 10.2708 18.1634 11.3611 18.1634 12.6667C18.1634 13.9722 17.6807 15.0625 16.7154 15.9375C15.7502 16.8125 14.5939 17.25 13.2467 17.25H7.33002Z" fill="#1E1E1E"/>
</svg>
