<svg width="24" height="24" viewBox="0 0 24 24" fill="none" xmlns="http://www.w3.org/2000/svg">
<path d="M17.8245 12.7755C17.8802 12.8313 17.9245 12.8975 17.9546 12.9703C17.9848 13.0431 18.0003 13.1212 18.0003 13.2C18.0003 13.2789 17.9848 13.357 17.9546 13.4298C17.9245 13.5026 17.8802 13.5688 17.8245 13.6245C17.7687 13.6803 17.7026 13.7245 17.6297 13.7547C17.5569 13.7849 17.4788 13.8004 17.4 13.8004C17.3212 13.8004 17.2431 13.7849 17.1702 13.7547C17.0974 13.7245 17.0312 13.6803 16.9755 13.6245L12.6 9.2483V19.2C12.6 19.3592 12.5368 19.5118 12.4243 19.6243C12.3117 19.7368 12.1591 19.8 12 19.8C11.8409 19.8 11.6882 19.7368 11.5757 19.6243C11.4632 19.5118 11.4 19.3592 11.4 19.2V9.2483L7.02449 13.6245C6.96874 13.6803 6.90256 13.7245 6.82973 13.7547C6.75689 13.7849 6.67882 13.8004 6.59999 13.8004C6.52115 13.8004 6.44309 13.7849 6.37025 13.7547C6.29741 13.7245 6.23123 13.6803 6.17549 13.6245C6.11974 13.5688 6.07552 13.5026 6.04535 13.4298C6.01518 13.357 5.99965 13.2789 5.99965 13.2C5.99965 13.1212 6.01518 13.0431 6.04535 12.9703C6.07552 12.8975 6.11974 12.8313 6.17549 12.7755L11.5755 7.37555C11.6312 7.31976 11.6974 7.27551 11.7702 7.24531C11.8431 7.21512 11.9211 7.19958 12 7.19958C12.0788 7.19958 12.1569 7.21512 12.2298 7.24531C12.3026 7.27551 12.3688 7.31976 12.4245 7.37555L17.8245 12.7755ZM18.6 4.80005H5.39999C5.24086 4.80005 5.08825 4.86326 4.97572 4.97578C4.8632 5.08831 4.79999 5.24092 4.79999 5.40005C4.79999 5.55918 4.8632 5.71179 4.97572 5.82431C5.08825 5.93683 5.24086 6.00005 5.39999 6.00005H18.6C18.7591 6.00005 18.9117 5.93683 19.0243 5.82431C19.1368 5.71179 19.2 5.55918 19.2 5.40005C19.2 5.24092 19.1368 5.08831 19.0243 4.97578C18.9117 4.86326 18.7591 4.80005 18.6 4.80005Z" fill="#1E1E1E"/>
</svg>
