<svg width="24" height="24" viewBox="0 0 24 24" fill="none" xmlns="http://www.w3.org/2000/svg">
<path d="M19.2 12C19.2 12.1591 19.1368 12.3117 19.0242 12.4242C18.9117 12.5368 18.7591 12.6 18.6 12.6H6.84822L11.2245 16.9755C11.2802 17.0312 11.3244 17.0974 11.3546 17.1702C11.3848 17.2431 11.4003 17.3211 11.4003 17.4C11.4003 17.4788 11.3848 17.5569 11.3546 17.6297C11.3244 17.7025 11.2802 17.7687 11.2245 17.8245C11.1687 17.8802 11.1025 17.9244 11.0297 17.9546C10.9569 17.9848 10.8788 18.0003 10.8 18.0003C10.7211 18.0003 10.6431 17.9848 10.5702 17.9546C10.4974 17.9244 10.4312 17.8802 10.3755 17.8245L4.97547 12.4245C4.91969 12.3687 4.87543 12.3026 4.84524 12.2297C4.81504 12.1569 4.7995 12.0788 4.7995 12C4.7995 11.9211 4.81504 11.843 4.84524 11.7702C4.87543 11.6974 4.91969 11.6312 4.97547 11.5755L10.3755 6.17547C10.4881 6.06288 10.6408 5.99963 10.8 5.99963C10.9592 5.99963 11.1119 6.06288 11.2245 6.17547C11.3371 6.28805 11.4003 6.44075 11.4003 6.59997C11.4003 6.75919 11.3371 6.91188 11.2245 7.02447L6.84822 11.4H18.6C18.7591 11.4 18.9117 11.4632 19.0242 11.5757C19.1368 11.6882 19.2 11.8408 19.2 12Z" fill="#1E1E1E"/>
</svg>
