<svg width="24" height="24" viewBox="0 0 24 24" fill="none" xmlns="http://www.w3.org/2000/svg">
<path d="M19.2 5.99996V9.59996C19.2 9.75909 19.1368 9.9117 19.0243 10.0242C18.9117 10.1367 18.7591 10.2 18.6 10.2H15C14.8409 10.2 14.6882 10.1367 14.5757 10.0242C14.4632 9.9117 14.4 9.75909 14.4 9.59996C14.4 9.44083 14.4632 9.28822 14.5757 9.17569C14.6882 9.06317 14.8409 8.99996 15 8.99996H17.1517L16.0545 7.90271C14.9394 6.78251 13.4253 6.15052 11.8447 6.14546H11.811C10.2436 6.14178 8.7378 6.75526 7.61924 7.85321C7.50465 7.96017 7.35276 8.01805 7.19605 8.01446C7.03933 8.01086 6.89025 7.94608 6.78069 7.83397C6.67113 7.72187 6.6098 7.57133 6.60981 7.41458C6.60981 7.25783 6.67117 7.1073 6.78074 6.99521C8.13638 5.67025 9.95985 4.93337 11.8554 4.94446C13.751 4.95555 15.5657 5.71373 16.9057 7.05446L18 8.15171V5.99996C18 5.84083 18.0632 5.68822 18.1757 5.57569C18.2882 5.46317 18.4409 5.39996 18.6 5.39996C18.7591 5.39996 18.9117 5.46317 19.0243 5.57569C19.1368 5.68822 19.2 5.84083 19.2 5.99996ZM16.3807 16.1467C15.2511 17.2501 13.732 17.8638 12.1529 17.8545C10.5739 17.8452 9.06208 17.2138 7.94549 16.0972L6.84824 15H8.99999C9.15912 15 9.31173 14.9367 9.42425 14.8242C9.53677 14.7117 9.59999 14.5591 9.59999 14.4C9.59999 14.2408 9.53677 14.0882 9.42425 13.9757C9.31173 13.8632 9.15912 13.8 8.99999 13.8H5.39999C5.24086 13.8 5.08825 13.8632 4.97572 13.9757C4.8632 14.0882 4.79999 14.2408 4.79999 14.4V18C4.79999 18.1591 4.8632 18.3117 4.97572 18.4242C5.08825 18.5367 5.24086 18.6 5.39999 18.6C5.55912 18.6 5.71173 18.5367 5.82425 18.4242C5.93677 18.3117 5.99999 18.1591 5.99999 18V15.8482L7.09724 16.9455C8.4354 18.2904 10.2528 19.0489 12.15 19.0545H12.1897C14.0708 19.0593 15.878 18.3229 17.22 17.0047C17.3296 16.8926 17.3909 16.7421 17.3909 16.5853C17.3909 16.4286 17.3296 16.278 17.22 16.1659C17.1105 16.0538 16.9614 15.9891 16.8047 15.9855C16.648 15.9819 16.4961 16.0397 16.3815 16.1467H16.3807Z" fill="#1E1E1E"/>
</svg>
