<svg width="24" height="24" viewBox="0 0 24 24" fill="none" xmlns="http://www.w3.org/2000/svg">
<path d="M6.17549 11.2245C6.0629 11.1119 5.99965 10.9592 5.99965 10.8C5.99965 10.6407 6.0629 10.488 6.17549 10.3755C6.28807 10.2629 6.44077 10.1996 6.59999 10.1996C6.75921 10.1996 6.9119 10.2629 7.02449 10.3755L11.4 14.7517V4.79995C11.4 4.64082 11.4632 4.48821 11.5757 4.37569C11.6882 4.26317 11.8409 4.19995 12 4.19995C12.1591 4.19995 12.3117 4.26317 12.4243 4.37569C12.5368 4.48821 12.6 4.64082 12.6 4.79995V14.7517L16.9755 10.3755C17.0312 10.3197 17.0974 10.2755 17.1702 10.2453C17.2431 10.2151 17.3212 10.1996 17.4 10.1996C17.4788 10.1996 17.5569 10.2151 17.6297 10.2453C17.7026 10.2755 17.7687 10.3197 17.8245 10.3755C17.8802 10.4312 17.9245 10.4974 17.9546 10.5702C17.9848 10.643 18.0003 10.7211 18.0003 10.8C18.0003 10.8788 17.9848 10.9569 17.9546 11.0297C17.9245 11.1025 17.8802 11.1687 17.8245 11.2245L12.4245 16.6245C12.3688 16.6802 12.3026 16.7245 12.2298 16.7547C12.1569 16.7849 12.0788 16.8004 12 16.8004C11.9211 16.8004 11.8431 16.7849 11.7702 16.7547C11.6974 16.7245 11.6312 16.6802 11.5755 16.6245L6.17549 11.2245ZM18.6 18H5.39999C5.24086 18 5.08825 18.0632 4.97572 18.1757C4.8632 18.2882 4.79999 18.4408 4.79999 18.6C4.79999 18.7591 4.8632 18.9117 4.97572 19.0242C5.08825 19.1367 5.24086 19.2 5.39999 19.2H18.6C18.7591 19.2 18.9117 19.1367 19.0243 19.0242C19.1368 18.9117 19.2 18.7591 19.2 18.6C19.2 18.4408 19.1368 18.2882 19.0243 18.1757C18.9117 18.0632 18.7591 18 18.6 18Z" fill="#1E1E1E"/>
</svg>
