<svg width="24" height="24" viewBox="0 0 24 24" fill="none" xmlns="http://www.w3.org/2000/svg">
<path d="M19.2 10.2C19.2 10.3592 19.1368 10.5118 19.0243 10.6243C18.9117 10.7368 18.7591 10.8 18.6 10.8C18.4409 10.8 18.2882 10.7368 18.1757 10.6243C18.0632 10.5118 18 10.3592 18 10.2V6.84905L13.0252 11.8245C12.9127 11.9371 12.76 12.0004 12.6007 12.0004C12.4415 12.0004 12.2888 11.9371 12.1762 11.8245C12.0637 11.712 12.0004 11.5593 12.0004 11.4C12.0004 11.2408 12.0637 11.0881 12.1762 10.9755L17.151 6.00005H13.8C13.6409 6.00005 13.4882 5.93683 13.3757 5.82431C13.2632 5.71179 13.2 5.55918 13.2 5.40005C13.2 5.24092 13.2632 5.08831 13.3757 4.97578C13.4882 4.86326 13.6409 4.80005 13.8 4.80005H18.6C18.7591 4.80005 18.9117 4.86326 19.0243 4.97578C19.1368 5.08831 19.2 5.24092 19.2 5.40005V10.2ZM16.2 12C16.0409 12 15.8882 12.0633 15.7757 12.1758C15.6632 12.2883 15.6 12.4409 15.6 12.6V18H5.99999V8.40005H11.4C11.5591 8.40005 11.7117 8.33683 11.8243 8.22431C11.9368 8.11179 12 7.95918 12 7.80005C12 7.64092 11.9368 7.48831 11.8243 7.37578C11.7117 7.26326 11.5591 7.20005 11.4 7.20005H5.99999C5.68173 7.20005 5.3765 7.32648 5.15146 7.55152C4.92642 7.77656 4.79999 8.08179 4.79999 8.40005V18C4.79999 18.3183 4.92642 18.6235 5.15146 18.8486C5.3765 19.0736 5.68173 19.2 5.99999 19.2H15.6C15.9182 19.2 16.2235 19.0736 16.4485 18.8486C16.6736 18.6235 16.8 18.3183 16.8 18V12.6C16.8 12.4409 16.7368 12.2883 16.6243 12.1758C16.5117 12.0633 16.3591 12 16.2 12Z" fill="#1E1E1E"/>
</svg>
