<svg width="24" height="24" viewBox="0 0 24 24" fill="none" xmlns="http://www.w3.org/2000/svg">
<path d="M20.4 6.59998V10.2C20.4 10.3591 20.3368 10.5117 20.2243 10.6242C20.1118 10.7368 19.9591 10.8 19.8 10.8H16.2C16.0409 10.8 15.8883 10.7368 15.7758 10.6242C15.6632 10.5117 15.6 10.3591 15.6 10.2C15.6 10.0409 15.6632 9.88824 15.7758 9.77572C15.8883 9.6632 16.0409 9.59998 16.2 9.59998H18.255L16.2608 7.77298L16.242 7.75498C15.4081 6.92135 14.347 6.35193 13.1913 6.11784C12.0356 5.88376 10.8365 5.9954 9.74394 6.43881C8.65133 6.88222 7.71359 7.63775 7.04787 8.61101C6.38215 9.58427 6.01797 10.7321 6.00082 11.9111C5.98366 13.0902 6.3143 14.2481 6.95142 15.2403C7.58854 16.2326 8.5039 17.015 9.58315 17.4901C10.6624 17.9651 11.8577 18.1115 13.0197 17.9112C14.1817 17.7108 15.2589 17.1725 16.1168 16.3635C16.2324 16.2541 16.3868 16.1951 16.546 16.1995C16.7051 16.204 16.856 16.2714 16.9654 16.3871C17.0748 16.5028 17.1338 16.6572 17.1293 16.8163C17.1249 16.9755 17.0574 17.1263 16.9418 17.2357C15.6079 18.5008 13.8384 19.2041 12 19.2H11.901C10.7218 19.1838 9.56464 18.8783 8.53119 18.3102C7.49774 17.7421 6.61965 16.9288 5.97411 15.9419C5.32857 14.9549 4.93533 13.8246 4.82897 12.6501C4.7226 11.4756 4.90636 10.2929 5.3641 9.20605C5.82184 8.1192 6.53953 7.16143 7.45411 6.41691C8.36869 5.67238 9.45215 5.16391 10.6093 4.93618C11.7664 4.70845 12.9617 4.76843 14.0902 5.11085C15.2187 5.45327 16.2458 6.06765 17.0813 6.89998L19.2 8.83499V6.59998C19.2 6.44085 19.2632 6.28824 19.3758 6.17572C19.4883 6.0632 19.6409 5.99998 19.8 5.99998C19.9591 5.99998 20.1118 6.0632 20.2243 6.17572C20.3368 6.28824 20.4 6.44085 20.4 6.59998Z" fill="#1E1E1E"/>
</svg>
