<svg width="24" height="24" viewBox="0 0 24 24" fill="none" xmlns="http://www.w3.org/2000/svg">
<path d="M12 12.6V17.4C12 17.5592 11.9368 17.7118 11.8243 17.8243C11.7118 17.9368 11.5591 18 11.4 18C11.2409 18 11.0883 17.9368 10.9758 17.8243C10.8632 17.7118 10.8 17.5592 10.8 17.4V14.049L5.82452 19.0245C5.76877 19.0803 5.70259 19.1245 5.62975 19.1547C5.55692 19.1849 5.47885 19.2004 5.40002 19.2004C5.32118 19.2004 5.24311 19.1849 5.17028 19.1547C5.09744 19.1245 5.03126 19.0803 4.97552 19.0245C4.91977 18.9688 4.87555 18.9026 4.84538 18.8298C4.81521 18.757 4.79968 18.6789 4.79968 18.6C4.79968 18.5212 4.81521 18.4431 4.84538 18.3703C4.87555 18.2975 4.91977 18.2313 4.97552 18.1755L9.95102 13.2H6.60002C6.44089 13.2 6.28827 13.1368 6.17575 13.0243C6.06323 12.9118 6.00002 12.7592 6.00002 12.6C6.00002 12.4409 6.06323 12.2883 6.17575 12.1758C6.28827 12.0633 6.44089 12 6.60002 12H11.4C11.5591 12 11.7118 12.0633 11.8243 12.1758C11.9368 12.2883 12 12.4409 12 12.6ZM18 4.80005H8.40002C8.08176 4.80005 7.77653 4.92648 7.55149 5.15152C7.32644 5.37656 7.20002 5.68179 7.20002 6.00005V9.60005C7.20002 9.75918 7.26323 9.91179 7.37575 10.0243C7.48827 10.1368 7.64089 10.2 7.80002 10.2C7.95915 10.2 8.11176 10.1368 8.22428 10.0243C8.3368 9.91179 8.40002 9.75918 8.40002 9.60005V6.00005H18V15.6H14.4C14.2409 15.6 14.0883 15.6633 13.9758 15.7758C13.8632 15.8883 13.8 16.0409 13.8 16.2C13.8 16.3592 13.8632 16.5118 13.9758 16.6243C14.0883 16.7368 14.2409 16.8 14.4 16.8H18C18.3183 16.8 18.6235 16.6736 18.8485 16.4486C19.0736 16.2235 19.2 15.9183 19.2 15.6V6.00005C19.2 5.68179 19.0736 5.37656 18.8485 5.15152C18.6235 4.92648 18.3183 4.80005 18 4.80005Z" fill="#1E1E1E"/>
</svg>
