<svg width="24" height="24" viewBox="0 0 24 24" fill="none" xmlns="http://www.w3.org/2000/svg">
<path d="M12 4.5C13.0278 4.5 13.9965 4.69792 14.9062 5.09375C15.816 5.48958 16.6111 6.02778 17.2917 6.70833C17.9722 7.38889 18.5104 8.18403 18.9062 9.09375C19.3021 10.0035 19.5 10.9722 19.5 12C19.5 13.0278 19.3021 13.9965 18.9062 14.9062C18.5104 15.816 17.9722 16.6111 17.2917 17.2917C16.6111 17.9722 15.816 18.5104 14.9062 18.9062C13.9965 19.3021 13.0278 19.5 12 19.5C11.4306 19.5 10.8819 19.4375 10.3542 19.3125C9.82639 19.1875 9.29861 19.0069 8.77083 18.7708L10.0417 17.5C10.3611 17.6111 10.684 17.6944 11.0104 17.75C11.3368 17.8056 11.6667 17.8333 12 17.8333C13.6111 17.8333 14.9861 17.2639 16.125 16.125C17.2639 14.9861 17.8333 13.6111 17.8333 12C17.8333 10.3889 17.2639 9.01389 16.125 7.875C14.9861 6.73611 13.6111 6.16667 12 6.16667C10.3889 6.16667 9.01389 6.73611 7.875 7.875C6.73611 9.01389 6.16667 10.3889 6.16667 12C6.16667 12.3333 6.19444 12.6632 6.25 12.9896C6.30556 13.316 6.38889 13.6389 6.5 13.9583L5.25 15.2083C5 14.7083 4.8125 14.191 4.6875 13.6562C4.5625 13.1215 4.5 12.5694 4.5 12C4.5 10.9722 4.69792 10.0035 5.09375 9.09375C5.48958 8.18403 6.02778 7.38889 6.70833 6.70833C7.38889 6.02778 8.18403 5.48958 9.09375 5.09375C10.0035 4.69792 10.9722 4.5 12 4.5ZM12.8333 15.3333V12.3333L5.66667 19.5L4.5 18.3333L11.6667 11.1667H8.66667V9.5H14.5V15.3333H12.8333Z" fill="#1E1E1E"/>
</svg>
