<svg width="24" height="24" viewBox="0 0 24 24" fill="none" xmlns="http://www.w3.org/2000/svg">
<path d="M10.7467 17.25C9.39946 17.25 8.24321 16.8125 7.27793 15.9375C6.31266 15.0625 5.83002 13.9722 5.83002 12.6667C5.83002 11.3611 6.31266 10.2708 7.27793 9.39583C8.24321 8.52083 9.39946 8.08333 10.7467 8.08333H15.9967L13.83 5.91667L14.9967 4.75L19.1634 8.91667L14.9967 13.0833L13.83 11.9167L15.9967 9.75H10.7467C9.87168 9.75 9.11127 10.0278 8.46543 10.5833C7.8196 11.1389 7.49668 11.8333 7.49668 12.6667C7.49668 13.5 7.8196 14.1944 8.46543 14.75C9.11127 15.3056 9.87168 15.5833 10.7467 15.5833H16.6634V17.25H10.7467Z" fill="#1E1E1E"/>
</svg>
