<svg width="24" height="24" viewBox="0 0 24 24" fill="none" xmlns="http://www.w3.org/2000/svg">
<path d="M17.8245 13.6245L12.4245 19.0245C12.3688 19.0803 12.3026 19.1246 12.2298 19.1548C12.157 19.185 12.0789 19.2005 12 19.2005C11.9212 19.2005 11.8431 19.185 11.7703 19.1548C11.6974 19.1246 11.6313 19.0803 11.5755 19.0245L6.17553 13.6245C6.06294 13.512 5.99969 13.3593 5.99969 13.2C5.99969 13.0408 6.06294 12.8881 6.17553 12.7755C6.28811 12.663 6.44081 12.5997 6.60003 12.5997C6.75925 12.5997 6.91194 12.663 7.02453 12.7755L11.4 17.1518V5.40005C11.4 5.24092 11.4632 5.08831 11.5758 4.97578C11.6883 4.86326 11.8409 4.80005 12 4.80005C12.1592 4.80005 12.3118 4.86326 12.4243 4.97578C12.5368 5.08831 12.6 5.24092 12.6 5.40005V17.1518L16.9755 12.7755C17.0881 12.663 17.2408 12.5997 17.4 12.5997C17.5592 12.5997 17.7119 12.663 17.8245 12.7755C17.9371 12.8881 18.0004 13.0408 18.0004 13.2C18.0004 13.3593 17.9371 13.512 17.8245 13.6245Z" fill="#1E1E1E"/>
</svg>
