<svg width="24" height="24" viewBox="0 0 24 24" fill="none" xmlns="http://www.w3.org/2000/svg">
<path d="M11.2245 15.1755C11.2803 15.2312 11.3245 15.2974 11.3547 15.3702C11.3849 15.4431 11.4005 15.5212 11.4005 15.6C11.4005 15.6789 11.3849 15.7569 11.3547 15.8298C11.3245 15.9026 11.2803 15.9688 11.2245 16.0245L8.82449 18.4245C8.76877 18.4803 8.70259 18.5245 8.62976 18.5547C8.55692 18.5849 8.47884 18.6005 8.39999 18.6005C8.32114 18.6005 8.24307 18.5849 8.17023 18.5547C8.09739 18.5245 8.03122 18.4803 7.97549 18.4245L5.57549 16.0245C5.51975 15.9688 5.47553 15.9026 5.44536 15.8297C5.41519 15.7569 5.39966 15.6788 5.39966 15.6C5.39966 15.5212 5.41519 15.4431 5.44536 15.3703C5.47553 15.2974 5.51975 15.2313 5.57549 15.1755C5.68808 15.0629 5.84077 14.9997 5.99999 14.9997C6.07883 14.9997 6.15689 15.0152 6.22973 15.0454C6.30257 15.0755 6.36875 15.1198 6.42449 15.1755L7.79999 16.5518V6.00001C7.79999 5.84088 7.86321 5.68827 7.97573 5.57574C8.08825 5.46322 8.24086 5.40001 8.39999 5.40001C8.55912 5.40001 8.71173 5.46322 8.82426 5.57574C8.93678 5.68827 8.99999 5.84088 8.99999 6.00001V16.5518L10.3755 15.1755C10.4312 15.1197 10.4974 15.0755 10.5702 15.0453C10.6431 15.0151 10.7211 14.9995 10.8 14.9995C10.8788 14.9995 10.9569 15.0151 11.0298 15.0453C11.1026 15.0755 11.1688 15.1197 11.2245 15.1755ZM18.4245 7.97551L16.0245 5.57551C15.9688 5.51972 15.9026 5.47547 15.8298 5.44527C15.7569 5.41508 15.6788 5.39954 15.6 5.39954C15.5211 5.39954 15.4431 5.41508 15.3702 5.44527C15.2974 5.47547 15.2312 5.51972 15.1755 5.57551L12.7755 7.97551C12.6629 8.08809 12.5997 8.24079 12.5997 8.40001C12.5997 8.55923 12.6629 8.71192 12.7755 8.82451C12.8881 8.93709 13.0408 9.00034 13.2 9.00034C13.3592 9.00034 13.5119 8.93709 13.6245 8.82451L15 7.44826V18C15 18.1591 15.0632 18.3118 15.1757 18.4243C15.2883 18.5368 15.4409 18.6 15.6 18.6C15.7591 18.6 15.9117 18.5368 16.0243 18.4243C16.1368 18.3118 16.2 18.1591 16.2 18V7.44826L17.5755 8.82451C17.6881 8.93709 17.8408 9.00034 18 9.00034C18.1592 9.00034 18.3119 8.93709 18.4245 8.82451C18.5371 8.71192 18.6003 8.55923 18.6003 8.40001C18.6003 8.24079 18.5371 8.08809 18.4245 7.97551Z" fill="#1E1E1E"/>
</svg>
