<svg width="24" height="24" viewBox="0 0 24 24" fill="none" xmlns="http://www.w3.org/2000/svg">
<path d="M12 4.19995C9.93132 4.19995 7.94736 5.02173 6.48458 6.48452C5.0218 7.9473 4.20001 9.93126 4.20001 12C4.20001 14.0686 5.0218 16.0526 6.48458 17.5154C7.94736 18.9782 9.93132 19.8 12 19.8C13.6133 19.8 15.3075 19.314 16.5323 18.5002C16.5979 18.4566 16.6543 18.4004 16.6983 18.335C16.7422 18.2696 16.7728 18.1961 16.7884 18.1189C16.804 18.0416 16.8042 17.962 16.789 17.8847C16.7738 17.8073 16.7435 17.7337 16.6999 17.6681C16.6563 17.6024 16.6001 17.546 16.5347 17.5021C16.4693 17.4581 16.3958 17.4275 16.3185 17.4119C16.2413 17.3964 16.1617 17.3962 16.0843 17.4114C16.007 17.4265 15.9334 17.4568 15.8678 17.5005C14.85 18.1785 13.3658 18.6 12 18.6C10.6947 18.6 9.41861 18.2129 8.33325 17.4877C7.24788 16.7624 6.40195 15.7317 5.90241 14.5257C5.40287 13.3197 5.27217 11.9926 5.52683 10.7124C5.78149 9.43208 6.41008 8.25607 7.33311 7.33305C8.25613 6.41002 9.43214 5.78143 10.7124 5.52677C11.9927 5.27211 13.3197 5.40281 14.5257 5.90235C15.7317 6.40188 16.7625 7.24782 17.4877 8.33319C18.2129 9.41855 18.6 10.6946 18.6 12C18.6 13.9837 17.784 14.4 17.1 14.4C16.416 14.4 15.6 13.9837 15.6 12V8.99995C15.6 8.84082 15.5368 8.68821 15.4243 8.57569C15.3118 8.46317 15.1591 8.39995 15 8.39995C14.8409 8.39995 14.6883 8.46317 14.5757 8.57569C14.4632 8.68821 14.4 8.84082 14.4 8.99995V9.31945C13.8616 8.8367 13.1902 8.5273 12.4734 8.43156C11.7566 8.33581 11.0276 8.45817 10.3813 8.78269C9.73507 9.1072 9.20152 9.61883 8.8502 10.2509C8.49887 10.883 8.34605 11.6063 8.41166 12.3264C8.47726 13.0466 8.75824 13.7304 9.21799 14.2886C9.67774 14.8468 10.295 15.2536 10.9892 15.456C11.6835 15.6584 12.4226 15.647 13.1103 15.4233C13.798 15.1997 14.4024 14.774 14.8448 14.202C15.2948 15.102 16.071 15.6 17.1 15.6C18.7905 15.6 19.8 14.2545 19.8 12C19.7978 9.93193 18.9753 7.94924 17.513 6.48693C16.0507 5.02462 14.068 4.20214 12 4.19995ZM12 14.4C11.5253 14.4 11.0613 14.2592 10.6666 13.9955C10.272 13.7318 9.96435 13.3569 9.7827 12.9184C9.60105 12.4798 9.55352 11.9973 9.64613 11.5317C9.73873 11.0662 9.96731 10.6385 10.303 10.3029C10.6386 9.96725 11.0662 9.73867 11.5318 9.64607C11.9974 9.55346 12.4799 9.60099 12.9185 9.78264C13.357 9.96429 13.7318 10.2719 13.9955 10.6666C14.2593 11.0613 14.4 11.5253 14.4 12C14.4 12.6365 14.1472 13.2469 13.6971 13.697C13.247 14.1471 12.6365 14.4 12 14.4Z" fill="#1E1E1E"/>
</svg>
