<svg width="24" height="24" viewBox="0 0 24 24" fill="none" xmlns="http://www.w3.org/2000/svg">
<path d="M12 20.3334C10.8472 20.3334 9.76385 20.1146 8.74996 19.6771C7.73607 19.2396 6.85413 18.6459 6.10413 17.8959C5.35413 17.1459 4.76038 16.2639 4.32288 15.25C3.88538 14.2361 3.66663 13.1528 3.66663 12C3.66663 10.8472 3.88538 9.76391 4.32288 8.75002C4.76038 7.73613 5.35413 6.85419 6.10413 6.10419C6.85413 5.35419 7.73607 4.76044 8.74996 4.32294C9.76385 3.88544 10.8472 3.66669 12 3.66669C13.1527 3.66669 14.2361 3.88544 15.25 4.32294C16.2638 4.76044 17.1458 5.35419 17.8958 6.10419C18.6458 6.85419 19.2395 7.73613 19.677 8.75002C20.1145 9.76391 20.3333 10.8472 20.3333 12V13.2084C20.3333 14.0278 20.052 14.7257 19.4895 15.3021C18.927 15.8785 18.2361 16.1667 17.4166 16.1667C16.9305 16.1667 16.4722 16.0625 16.0416 15.8542C15.6111 15.6459 15.25 15.3472 14.9583 14.9584C14.5555 15.3611 14.1007 15.6632 13.5937 15.8646C13.0868 16.066 12.5555 16.1667 12 16.1667C10.8472 16.1667 9.86454 15.7604 9.05204 14.9479C8.23954 14.1354 7.83329 13.1528 7.83329 12C7.83329 10.8472 8.23954 9.8646 9.05204 9.0521C9.86454 8.2396 10.8472 7.83335 12 7.83335C13.1527 7.83335 14.1354 8.2396 14.9479 9.0521C15.7604 9.8646 16.1666 10.8472 16.1666 12V13.2084C16.1666 13.5695 16.2847 13.875 16.5208 14.125C16.7569 14.375 17.0555 14.5 17.4166 14.5C17.7777 14.5 18.0763 14.375 18.3125 14.125C18.5486 13.875 18.6666 13.5695 18.6666 13.2084V12C18.6666 10.1389 18.0208 8.56252 16.7291 7.27085C15.4375 5.97919 13.8611 5.33335 12 5.33335C10.1388 5.33335 8.56246 5.97919 7.27079 7.27085C5.97913 8.56252 5.33329 10.1389 5.33329 12C5.33329 13.8611 5.97913 15.4375 7.27079 16.7292C8.56246 18.0209 10.1388 18.6667 12 18.6667H16.1666V20.3334H12ZM12 14.5C12.6944 14.5 13.2847 14.257 13.7708 13.7709C14.2569 13.2847 14.5 12.6945 14.5 12C14.5 11.3056 14.2569 10.7153 13.7708 10.2292C13.2847 9.74308 12.6944 9.50002 12 9.50002C11.3055 9.50002 10.7152 9.74308 10.2291 10.2292C9.74301 10.7153 9.49996 11.3056 9.49996 12C9.49996 12.6945 9.74301 13.2847 10.2291 13.7709C10.7152 14.257 11.3055 14.5 12 14.5Z" fill="#1E1E1E"/>
</svg>
