<svg width="24" height="24" viewBox="0 0 24 24" fill="none" xmlns="http://www.w3.org/2000/svg">
<path d="M18.1245 11.5755C18.1803 11.6312 18.2246 11.6974 18.2548 11.7702C18.285 11.8431 18.3005 11.9212 18.3005 12C18.3005 12.0789 18.285 12.1569 18.2548 12.2298C18.2246 12.3026 18.1803 12.3688 18.1245 12.4245L11.9708 18.5745C11.183 19.3622 10.1145 19.8047 9.00051 19.8046C7.88647 19.8045 6.81809 19.3619 6.0304 18.5741C5.2427 17.7863 4.80022 16.7179 4.80029 15.6039C4.80036 14.4898 5.24298 13.4214 6.03077 12.6338L13.4753 5.07975C14.0377 4.51673 14.8007 4.20019 15.5966 4.19977C16.3924 4.19935 17.1558 4.51508 17.7188 5.0775C18.2818 5.63993 18.5983 6.40297 18.5988 7.19879C18.5992 7.9946 18.2834 8.75798 17.721 9.321L10.275 16.875C9.93687 17.2132 9.47824 17.4031 9.00002 17.4031C8.5218 17.4031 8.06317 17.2132 7.72502 16.875C7.38687 16.5369 7.1969 16.0782 7.1969 15.6C7.1969 15.1218 7.38687 14.6632 7.72502 14.325L13.9725 7.9785C14.0272 7.92012 14.0931 7.87328 14.1662 7.84072C14.2393 7.80817 14.3182 7.79058 14.3982 7.78897C14.4782 7.78736 14.5577 7.80177 14.6321 7.83135C14.7064 7.86093 14.7741 7.90509 14.8311 7.96122C14.8882 8.01735 14.9334 8.08432 14.9642 8.1582C14.9949 8.23207 15.0106 8.31135 15.0103 8.39137C15.0099 8.47139 14.9936 8.55054 14.9622 8.62415C14.9308 8.69776 14.885 8.76435 14.8275 8.82L8.57927 15.1733C8.52333 15.2288 8.47886 15.2947 8.44842 15.3674C8.41797 15.4401 8.40214 15.5181 8.40183 15.5969C8.40152 15.6757 8.41673 15.7538 8.44659 15.8267C8.47646 15.8996 8.5204 15.9659 8.5759 16.0219C8.6314 16.0778 8.69737 16.1223 8.77006 16.1527C8.84274 16.1832 8.92071 16.199 8.99951 16.1993C9.07831 16.1996 9.1564 16.1844 9.22933 16.1546C9.30225 16.1247 9.36858 16.0808 9.42452 16.0253L16.8698 8.475C17.2079 8.13755 17.3982 7.67958 17.3987 7.20186C17.3992 6.72413 17.2099 6.26578 16.8724 5.92763C16.5349 5.58948 16.077 5.39923 15.5993 5.39874C15.1215 5.39824 14.6632 5.58755 14.325 5.925L6.88202 13.476C6.60319 13.7544 6.38193 14.085 6.23086 14.4489C6.07978 14.8128 6.00187 15.2029 6.00155 15.5969C6.00124 15.9909 6.07854 16.3811 6.22903 16.7452C6.37952 17.1094 6.60026 17.4403 6.87865 17.7191C7.15703 17.998 7.48761 18.2192 7.85151 18.3703C8.21541 18.5214 8.6055 18.5993 8.99951 18.5996C9.39352 18.5999 9.78374 18.5226 10.1479 18.3721C10.512 18.2216 10.8429 18.0009 11.1218 17.7225L17.2763 11.5725C17.3892 11.4605 17.542 11.3978 17.701 11.3984C17.8601 11.399 18.0124 11.4627 18.1245 11.5755Z" fill="#1E1E1E"/>
</svg>
