<svg width="24" height="24" viewBox="0 0 24 24" fill="none" xmlns="http://www.w3.org/2000/svg">
<path d="M21.375 18.25C21.375 18.4158 21.3092 18.5748 21.1919 18.692C21.0747 18.8092 20.9158 18.875 20.75 18.875H3.25C3.08424 18.875 2.92527 18.8092 2.80806 18.692C2.69085 18.5748 2.625 18.4158 2.625 18.25C2.625 18.0843 2.69085 17.9253 2.80806 17.8081C2.92527 17.6909 3.08424 17.625 3.25 17.625H20.75C20.9158 17.625 21.0747 17.6909 21.1919 17.8081C21.3092 17.9253 21.375 18.0843 21.375 18.25ZM3.27344 9.67034C3.23626 9.53927 3.24294 9.39964 3.29244 9.27271C3.34194 9.14579 3.43156 9.03851 3.54766 8.96721L11.6727 3.96721C11.7711 3.90668 11.8844 3.87463 12 3.87463C12.1156 3.87463 12.2289 3.90668 12.3273 3.96721L20.4523 8.96721C20.5685 9.03842 20.6582 9.14562 20.7078 9.2725C20.7573 9.39937 20.7641 9.53898 20.7271 9.67006C20.69 9.80115 20.6111 9.91654 20.5024 9.99867C20.3938 10.0808 20.2612 10.1252 20.125 10.125H18.25V15.125H19.5C19.6658 15.125 19.8247 15.1909 19.9419 15.3081C20.0592 15.4253 20.125 15.5843 20.125 15.75C20.125 15.9158 20.0592 16.0748 19.9419 16.192C19.8247 16.3092 19.6658 16.375 19.5 16.375H4.5C4.33424 16.375 4.17527 16.3092 4.05806 16.192C3.94085 16.0748 3.875 15.9158 3.875 15.75C3.875 15.5843 3.94085 15.4253 4.05806 15.3081C4.17527 15.1909 4.33424 15.125 4.5 15.125H5.75V10.125H3.875C3.7389 10.1251 3.6065 10.0807 3.49792 9.99862C3.38935 9.91656 3.31053 9.80129 3.27344 9.67034ZM13.25 14.5C13.25 14.6658 13.3158 14.8248 13.4331 14.942C13.5503 15.0592 13.7092 15.125 13.875 15.125C14.0408 15.125 14.1997 15.0592 14.3169 14.942C14.4342 14.8248 14.5 14.6658 14.5 14.5V10.75C14.5 10.5843 14.4342 10.4253 14.3169 10.3081C14.1997 10.1909 14.0408 10.125 13.875 10.125C13.7092 10.125 13.5503 10.1909 13.4331 10.3081C13.3158 10.4253 13.25 10.5843 13.25 10.75V14.5ZM9.5 14.5C9.5 14.6658 9.56585 14.8248 9.68306 14.942C9.80027 15.0592 9.95924 15.125 10.125 15.125C10.2908 15.125 10.4497 15.0592 10.5669 14.942C10.6842 14.8248 10.75 14.6658 10.75 14.5V10.75C10.75 10.5843 10.6842 10.4253 10.5669 10.3081C10.4497 10.1909 10.2908 10.125 10.125 10.125C9.95924 10.125 9.80027 10.1909 9.68306 10.3081C9.56585 10.4253 9.5 10.5843 9.5 10.75V14.5Z" fill="#1E1E1E"/>
</svg>
