<svg width="24" height="24" viewBox="0 0 24 24" fill="none" xmlns="http://www.w3.org/2000/svg">
<path d="M19.8 6.00002V9.00002C19.8 9.15915 19.7367 9.31177 19.6242 9.42429C19.5117 9.53681 19.3591 9.60002 19.2 9.60002C19.0408 9.60002 18.8882 9.53681 18.7757 9.42429C18.6632 9.31177 18.6 9.15915 18.6 9.00002V6.60002H16.2C16.0408 6.60002 15.8882 6.53681 15.7757 6.42429C15.6632 6.31177 15.6 6.15915 15.6 6.00002C15.6 5.84089 15.6632 5.68828 15.7757 5.57576C15.8882 5.46324 16.0408 5.40002 16.2 5.40002H19.2C19.3591 5.40002 19.5117 5.46324 19.6242 5.57576C19.7367 5.68828 19.8 5.84089 19.8 6.00002ZM7.79995 17.4H5.39995V15C5.39995 14.8409 5.33674 14.6883 5.22422 14.5758C5.11169 14.4632 4.95908 14.4 4.79995 14.4C4.64082 14.4 4.48821 14.4632 4.37569 14.5758C4.26317 14.6883 4.19995 14.8409 4.19995 15V18C4.19995 18.1592 4.26317 18.3118 4.37569 18.4243C4.48821 18.5368 4.64082 18.6 4.79995 18.6H7.79995C7.95908 18.6 8.11169 18.5368 8.22422 18.4243C8.33674 18.3118 8.39995 18.1592 8.39995 18C8.39995 17.8409 8.33674 17.6883 8.22422 17.5758C8.11169 17.4632 7.95908 17.4 7.79995 17.4ZM19.2 14.4C19.0408 14.4 18.8882 14.4632 18.7757 14.5758C18.6632 14.6883 18.6 14.8409 18.6 15V17.4H16.2C16.0408 17.4 15.8882 17.4632 15.7757 17.5758C15.6632 17.6883 15.6 17.8409 15.6 18C15.6 18.1592 15.6632 18.3118 15.7757 18.4243C15.8882 18.5368 16.0408 18.6 16.2 18.6H19.2C19.3591 18.6 19.5117 18.5368 19.6242 18.4243C19.7367 18.3118 19.8 18.1592 19.8 18V15C19.8 14.8409 19.7367 14.6883 19.6242 14.5758C19.5117 14.4632 19.3591 14.4 19.2 14.4ZM4.79995 9.60002C4.95908 9.60002 5.11169 9.53681 5.22422 9.42429C5.33674 9.31177 5.39995 9.15915 5.39995 9.00002V6.60002H7.79995C7.95908 6.60002 8.11169 6.53681 8.22422 6.42429C8.33674 6.31177 8.39995 6.15915 8.39995 6.00002C8.39995 5.84089 8.33674 5.68828 8.22422 5.57576C8.11169 5.46324 7.95908 5.40002 7.79995 5.40002H4.79995C4.64082 5.40002 4.48821 5.46324 4.37569 5.57576C4.26317 5.68828 4.19995 5.84089 4.19995 6.00002V9.00002C4.19995 9.15915 4.26317 9.31177 4.37569 9.42429C4.48821 9.53681 4.64082 9.60002 4.79995 9.60002ZM8.39995 8.40002C8.24082 8.40002 8.08821 8.46324 7.97569 8.57576C7.86317 8.68828 7.79995 8.84089 7.79995 9.00002V15C7.79995 15.1592 7.86317 15.3118 7.97569 15.4243C8.08821 15.5368 8.24082 15.6 8.39995 15.6C8.55908 15.6 8.71169 15.5368 8.82422 15.4243C8.93674 15.3118 8.99995 15.1592 8.99995 15V9.00002C8.99995 8.84089 8.93674 8.68828 8.82422 8.57576C8.71169 8.46324 8.55908 8.40002 8.39995 8.40002ZM16.2 15V9.00002C16.2 8.84089 16.1367 8.68828 16.0242 8.57576C15.9117 8.46324 15.7591 8.40002 15.6 8.40002C15.4408 8.40002 15.2882 8.46324 15.1757 8.57576C15.0632 8.68828 15 8.84089 15 9.00002V15C15 15.1592 15.0632 15.3118 15.1757 15.4243C15.2882 15.5368 15.4408 15.6 15.6 15.6C15.7591 15.6 15.9117 15.5368 16.0242 15.4243C16.1367 15.3118 16.2 15.1592 16.2 15ZM13.2 8.40002C13.0408 8.40002 12.8882 8.46324 12.7757 8.57576C12.6632 8.68828 12.6 8.84089 12.6 9.00002V15C12.6 15.1592 12.6632 15.3118 12.7757 15.4243C12.8882 15.5368 13.0408 15.6 13.2 15.6C13.3591 15.6 13.5117 15.5368 13.6242 15.4243C13.7367 15.3118 13.8 15.1592 13.8 15V9.00002C13.8 8.84089 13.7367 8.68828 13.6242 8.57576C13.5117 8.46324 13.3591 8.40002 13.2 8.40002ZM10.8 8.40002C10.6408 8.40002 10.4882 8.46324 10.3757 8.57576C10.2632 8.68828 10.2 8.84089 10.2 9.00002V15C10.2 15.1592 10.2632 15.3118 10.3757 15.4243C10.4882 15.5368 10.6408 15.6 10.8 15.6C10.9591 15.6 11.1117 15.5368 11.2242 15.4243C11.3367 15.3118 11.4 15.1592 11.4 15V9.00002C11.4 8.84089 11.3367 8.68828 11.2242 8.57576C11.1117 8.46324 10.9591 8.40002 10.8 8.40002Z" fill="#1E1E1E"/>
</svg>
