<svg width="24" height="24" viewBox="0 0 24 24" fill="none" xmlns="http://www.w3.org/2000/svg">
<path d="M8.17135 19.9167C7.33802 19.9167 6.67483 19.5938 6.18177 18.948C5.68871 18.3021 5.54635 17.5834 5.75469 16.7917L7.25469 11.125C6.79635 10.8334 6.41788 10.4375 6.11927 9.93754C5.82066 9.43754 5.67135 8.87504 5.67135 8.25004C5.67135 7.33337 5.99774 6.54865 6.65052 5.89587C7.3033 5.2431 8.08802 4.91671 9.00469 4.91671H15.6714C16.2964 4.91671 16.7686 5.1806 17.088 5.70837C17.4075 6.23615 17.4283 6.77782 17.1505 7.33337L15.4839 10.6667C15.3311 10.9445 15.1262 11.1667 14.8693 11.3334C14.6123 11.5 14.3241 11.5834 14.0047 11.5834H12.3172L12.088 12.4167H12.338C12.5741 12.4167 12.772 12.4966 12.9318 12.6563C13.0915 12.816 13.1714 13.0139 13.1714 13.25V14.9167C13.1714 15.1528 13.0915 15.3507 12.9318 15.5105C12.772 15.6702 12.5741 15.75 12.338 15.75H11.213L10.588 18.0834C10.4352 18.625 10.1366 19.066 9.69219 19.4063C9.24774 19.7466 8.7408 19.9167 8.17135 19.9167ZM19.0047 6.58337L18.4839 5.45837L21.5047 4.08337L22.0047 5.22921L19.0047 6.58337ZM21.5047 12.4167L18.4839 11.0625L19.0047 9.91671L22.0047 11.2917L21.5047 12.4167ZM19.0047 8.87504V7.62504H22.338V8.87504H19.0047Z" fill="#1E1E1E"/>
</svg>
