<svg width="24" height="24" viewBox="0 0 24 24" fill="none" xmlns="http://www.w3.org/2000/svg">
<path d="M19.5 7H4.5C4.16848 7 3.85054 7.1317 3.61612 7.36612C3.3817 7.60054 3.25 7.91848 3.25 8.25V13.875C3.25 14.2065 3.3817 14.5245 3.61612 14.7589C3.85054 14.9933 4.16848 15.125 4.5 15.125H6.375V17.625C6.375 17.7908 6.44085 17.9497 6.55806 18.0669C6.67527 18.1842 6.83424 18.25 7 18.25C7.16576 18.25 7.32473 18.1842 7.44194 18.0669C7.55915 17.9497 7.625 17.7908 7.625 17.625V15.125H16.375V17.625C16.375 17.7908 16.4408 17.9497 16.5581 18.0669C16.6753 18.1842 16.8342 18.25 17 18.25C17.1658 18.25 17.3247 18.1842 17.4419 18.0669C17.5592 17.9497 17.625 17.7908 17.625 17.625V15.125H19.5C19.8315 15.125 20.1495 14.9933 20.3839 14.7589C20.6183 14.5245 20.75 14.2065 20.75 13.875V8.25C20.75 7.91848 20.6183 7.60054 20.3839 7.36612C20.1495 7.1317 19.8315 7 19.5 7ZM4.5 13.875V9.1875L9.1875 13.875H4.5ZM19.5 13.875H15.0711L9.44609 8.25H14.8125L19.5 12.9375V13.875Z" fill="#1E1E1E"/>
</svg>
