<svg width="24" height="24" viewBox="0 0 24 24" fill="none" xmlns="http://www.w3.org/2000/svg">
<path d="M12.6 11.3999V15.5999C12.6 15.7591 12.5368 15.9117 12.4243 16.0242C12.3118 16.1367 12.1591 16.1999 12 16.1999C11.8409 16.1999 11.6883 16.1367 11.5758 16.0242C11.4632 15.9117 11.4 15.7591 11.4 15.5999V11.3999C11.4 11.2408 11.4632 11.0882 11.5758 10.9757C11.6883 10.8632 11.8409 10.7999 12 10.7999C12.1591 10.7999 12.3118 10.8632 12.4243 10.9757C12.5368 11.0882 12.6 11.2408 12.6 11.3999ZM15.363 11.3399L14.943 15.5399C14.9347 15.6186 14.942 15.6981 14.9646 15.7739C14.9871 15.8497 15.0244 15.9203 15.0743 15.9816C15.1242 16.0429 15.1857 16.0938 15.2554 16.1313C15.325 16.1687 15.4013 16.1921 15.48 16.1999C15.5002 16.2011 15.5205 16.2011 15.5408 16.1999C15.6894 16.1998 15.8326 16.1444 15.9428 16.0447C16.0529 15.9449 16.1222 15.8078 16.137 15.6599L16.557 11.4599C16.5729 11.3016 16.5253 11.1434 16.4246 11.0202C16.3239 10.897 16.1783 10.8189 16.02 10.8029C15.8617 10.787 15.7035 10.8347 15.5803 10.9354C15.4571 11.0361 15.3789 11.1816 15.363 11.3399ZM8.63702 11.3399C8.6211 11.1816 8.54294 11.0361 8.41973 10.9354C8.29652 10.8347 8.13835 10.787 7.98002 10.8029C7.82168 10.8189 7.67615 10.897 7.57545 11.0202C7.47474 11.1434 7.4271 11.3016 7.44302 11.4599L7.86302 15.6599C7.87794 15.8085 7.94768 15.9461 8.05863 16.0459C8.16958 16.1458 8.31375 16.2007 8.46302 16.1999C8.48325 16.2011 8.50353 16.2011 8.52377 16.1999C8.60216 16.1921 8.67825 16.1688 8.74766 16.1315C8.81708 16.0943 8.87847 16.0437 8.92834 15.9827C8.9782 15.9217 9.01556 15.8514 9.03828 15.776C9.06101 15.7005 9.06865 15.6213 9.06077 15.5429L8.63702 11.3399ZM20.3948 9.07945L19.2645 17.5589C19.2251 17.8467 19.083 18.1106 18.8644 18.3019C18.6458 18.4932 18.3655 18.599 18.075 18.5999H5.92502C5.63455 18.599 5.3542 18.4932 5.13562 18.3019C4.91704 18.1106 4.77494 17.8467 4.73552 17.5589L3.60527 9.07945C3.59394 8.99469 3.60085 8.90849 3.62555 8.82663C3.65026 8.74476 3.69217 8.66912 3.74849 8.60478C3.80481 8.54043 3.87423 8.48887 3.95211 8.45354C4.02998 8.41822 4.1145 8.39994 4.20002 8.39995H7.52777L11.55 3.8047C11.6063 3.74086 11.6756 3.68972 11.7532 3.6547C11.8307 3.61968 11.9149 3.60156 12 3.60156C12.0851 3.60156 12.1693 3.61968 12.2469 3.6547C12.3245 3.68972 12.3937 3.74086 12.45 3.8047L16.4723 8.39995H19.8C19.8855 8.39994 19.9701 8.41822 20.0479 8.45354C20.1258 8.48887 20.1952 8.54043 20.2515 8.60478C20.3079 8.66912 20.3498 8.74476 20.3745 8.82663C20.3992 8.90849 20.4061 8.99469 20.3948 9.07945ZM9.12227 8.39995H14.8778L12 5.1112L9.12227 8.39995ZM19.1145 9.59995H4.88552L5.92502 17.3999H18.075L19.1145 9.59995Z" fill="#1E1E1E"/>
</svg>
