<svg width="24" height="24" viewBox="0 0 24 24" fill="none" xmlns="http://www.w3.org/2000/svg">
<path d="M11.395 11.74H12.595V15.27H11.395V11.74Z" fill="#1E1E1E"/>
<path d="M15.965 11.74H14.755L14.285 15.27H15.495L15.965 11.74Z" fill="#1E1E1E"/>
<path d="M9.235 11.74L9.705 15.27H8.495L8.025 11.74H9.235Z" fill="#1E1E1E"/>
<path fill-rule="evenodd" clip-rule="evenodd" d="M20.245 8.61999C20.295 8.67999 20.345 8.75999 20.365 8.83999L20.375 8.82999C20.395 8.90999 20.405 8.99999 20.395 9.07999L19.265 17.56C19.225 17.84 19.085 18.11 18.865 18.3C18.645 18.49 18.365 18.6 18.075 18.6H5.925C5.635 18.6 5.355 18.49 5.135 18.3C4.915 18.11 4.775 17.85 4.735 17.56L3.605 9.07999C3.595 8.99999 3.605 8.90999 3.625 8.82999C3.645 8.74999 3.685 8.66999 3.745 8.60999C3.795 8.54999 3.865 8.48999 3.945 8.45999C4.025 8.42999 4.105 8.40999 4.195 8.40999H7.525L11.545 3.80999C11.595 3.74999 11.665 3.69999 11.745 3.65999C11.825 3.62999 11.905 3.60999 11.995 3.60999C12.085 3.60999 12.165 3.61999 12.245 3.65999C12.315 3.69999 12.385 3.74999 12.445 3.80999L16.465 8.41999H19.795C19.885 8.41999 19.965 8.42999 20.045 8.46999C20.115 8.49999 20.185 8.55999 20.245 8.61999ZM12 5.83569L9.745 8.40999H14.255L12 5.83569ZM6.325 16.94H17.645L18.565 10.07H5.405L6.325 16.94Z" fill="#1E1E1E"/>
</svg>
