<svg width="24" height="24" viewBox="0 0 24 24" fill="none" xmlns="http://www.w3.org/2000/svg">
<path d="M5.33337 17.8333V16.1666H7.00004V10.3333C7.00004 9.18051 7.34726 8.15621 8.04171 7.26038C8.73615 6.36454 9.63893 5.77774 10.75 5.49996V4.91663C10.75 4.5694 10.8716 4.27426 11.1146 4.03121C11.3577 3.78815 11.6528 3.66663 12 3.66663C12.3473 3.66663 12.6424 3.78815 12.8855 4.03121C13.1285 4.27426 13.25 4.5694 13.25 4.91663V5.49996C14.3612 5.77774 15.2639 6.36454 15.9584 7.26038C16.6528 8.15621 17 9.18051 17 10.3333V16.1666H18.6667V17.8333H5.33337ZM12 20.3333C11.5417 20.3333 11.1493 20.1701 10.823 19.8437C10.4966 19.5173 10.3334 19.125 10.3334 18.6666H13.6667C13.6667 19.125 13.5035 19.5173 13.1771 19.8437C12.8507 20.1701 12.4584 20.3333 12 20.3333Z" fill="#1E1E1E"/>
</svg>
