<svg width="24" height="24" viewBox="0 0 24 24" fill="none" xmlns="http://www.w3.org/2000/svg">
<path d="M19.2 7.73248C19.0588 7.80562 18.8943 7.81969 18.7427 7.77159C18.5911 7.72349 18.4648 7.61717 18.3915 7.47598C17.8188 6.3446 16.952 5.38836 15.882 4.70773C15.8153 4.66568 15.7576 4.6109 15.7121 4.54653C15.6666 4.48216 15.6342 4.40945 15.6168 4.33256C15.5994 4.25568 15.5973 4.17611 15.6106 4.09842C15.6239 4.02072 15.6525 3.94641 15.6945 3.87973C15.7366 3.81305 15.7913 3.75531 15.8557 3.7098C15.9201 3.66429 15.9928 3.63191 16.0697 3.6145C16.1466 3.59709 16.2261 3.59499 16.3038 3.60833C16.3815 3.62166 16.4558 3.65018 16.5225 3.69223C17.7695 4.49063 18.782 5.6059 19.4565 6.92398C19.5297 7.06522 19.5437 7.22972 19.4956 7.38133C19.4475 7.53293 19.3412 7.65924 19.2 7.73248ZM5.07826 7.79998C5.18819 7.79993 5.29598 7.76969 5.38989 7.71256C5.4838 7.65542 5.5602 7.57358 5.61076 7.47598C6.18347 6.3446 7.05033 5.38836 8.12026 4.70773C8.25493 4.6228 8.35034 4.48784 8.3855 4.33256C8.42066 4.17728 8.3927 4.01439 8.30776 3.87973C8.22283 3.74507 8.08788 3.64966 7.9326 3.6145C7.77732 3.57933 7.61443 3.6073 7.47976 3.69223C6.23282 4.49063 5.2203 5.6059 4.54576 6.92398C4.49839 7.01542 4.47535 7.11751 4.47886 7.22044C4.48238 7.32336 4.51232 7.42364 4.56581 7.51164C4.6193 7.59964 4.69454 7.67239 4.78429 7.72289C4.87405 7.77339 4.97528 7.79994 5.07826 7.79998ZM19.0358 15.5955C19.1421 15.7778 19.1984 15.9849 19.1991 16.1959C19.1999 16.4069 19.1449 16.6143 19.0399 16.7974C18.9348 16.9804 18.7834 17.1324 18.6008 17.2382C18.4183 17.344 18.211 17.3998 18 17.4H14.94C14.8023 18.0782 14.4344 18.6879 13.8986 19.1258C13.3628 19.5637 12.692 19.803 12 19.803C11.308 19.803 10.6373 19.5637 10.1015 19.1258C9.56565 18.6879 9.19772 18.0782 9.06001 17.4H6.00001C5.78913 17.3996 5.58208 17.3436 5.39972 17.2377C5.21736 17.1318 5.06613 16.9797 4.96126 16.7967C4.8564 16.6137 4.8016 16.4064 4.80239 16.1955C4.80318 15.9846 4.85953 15.7777 4.96576 15.5955C5.64151 14.4292 6.00001 12.771 6.00001 10.8C6.00001 9.20868 6.63216 7.68256 7.75737 6.55734C8.88259 5.43212 10.4087 4.79998 12 4.79998C13.5913 4.79998 15.1174 5.43212 16.2427 6.55734C17.3679 7.68256 18 9.20868 18 10.8C18 12.7702 18.3585 14.4285 19.0358 15.5955ZM13.6965 17.4H10.3035C10.4278 17.7505 10.6577 18.054 10.9615 18.2686C11.2653 18.4832 11.6281 18.5984 12 18.5984C12.372 18.5984 12.7348 18.4832 13.0386 18.2686C13.3424 18.054 13.5722 17.7505 13.6965 17.4ZM18 16.2C17.202 14.8297 16.8 13.0132 16.8 10.8C16.8 9.52694 16.2943 8.30604 15.3941 7.40587C14.494 6.50569 13.2731 5.99998 12 5.99998C10.727 5.99998 9.50608 6.50569 8.6059 7.40587C7.70573 8.30604 7.20001 9.52694 7.20001 10.8C7.20001 13.014 6.79651 14.8305 6.00001 16.2H18Z" fill="#1E1E1E"/>
</svg>
