<svg width="24" height="24" viewBox="0 0 24 24" fill="none" xmlns="http://www.w3.org/2000/svg">
<path d="M5.33329 17.8542V16.1875H6.99996V10.3542C6.99996 9.20143 7.34718 8.17712 8.04163 7.28129C8.73607 6.38546 9.63885 5.79865 10.75 5.52087V4.93754C10.75 4.59032 10.8715 4.29518 11.1145 4.05212C11.3576 3.80907 11.6527 3.68754 12 3.68754C12.3472 3.68754 12.6423 3.80907 12.8854 4.05212C13.1284 4.29518 13.25 4.59032 13.25 4.93754V5.52087C14.3611 5.79865 15.2638 6.38546 15.9583 7.28129C16.6527 8.17712 17 9.20143 17 10.3542V16.1875H18.6666V17.8542H5.33329ZM12 20.3542C11.5416 20.3542 11.1493 20.191 10.8229 19.8646C10.4965 19.5382 10.3333 19.1459 10.3333 18.6875H13.6666C13.6666 19.1459 13.5034 19.5382 13.177 19.8646C12.8507 20.191 12.4583 20.3542 12 20.3542ZM3.66663 10.3542C3.66663 8.96532 3.97565 7.69101 4.59371 6.53129C5.21176 5.37157 6.04163 4.40976 7.08329 3.64587L8.06246 4.97921C7.22913 5.59032 6.56593 6.36115 6.07288 7.29171C5.57982 8.22226 5.33329 9.2431 5.33329 10.3542H3.66663ZM18.6666 10.3542C18.6666 9.2431 18.4201 8.22226 17.927 7.29171C17.434 6.36115 16.7708 5.59032 15.9375 4.97921L16.9166 3.64587C17.9583 4.40976 18.7882 5.37157 19.4062 6.53129C20.0243 7.69101 20.3333 8.96532 20.3333 10.3542H18.6666Z" fill="#1E1E1E"/>
</svg>
