<svg width="24" height="24" viewBox="0 0 24 24" fill="none" xmlns="http://www.w3.org/2000/svg">
<path d="M19.6719 19.6562L18.5049 20.8232L15.4639 17.8232H5.33887V16.1562H7.00488V10.3232C7.00488 10.0141 7.0332 9.7081 7.08691 9.40527L3.17188 5.48926L4.33887 4.32324L19.6719 19.6562Z" fill="#1E1E1E"/>
<path d="M13.6719 18.6562C13.6719 19.1144 13.5087 19.5067 13.1826 19.833C12.8562 20.1594 12.4632 20.3232 12.0049 20.3232C11.5467 20.3232 11.1544 20.1593 10.8281 19.833C10.5019 19.5067 10.3389 19.1145 10.3389 18.6562H13.6719Z" fill="#1E1E1E"/>
<path d="M12.0049 3.65625C12.352 3.65625 12.6476 3.7776 12.8906 4.02051C13.1337 4.26353 13.2549 4.55908 13.2549 4.90625V5.48926C14.366 5.76704 15.2694 6.35417 15.9639 7.25C16.6583 8.14581 17.0049 9.1705 17.0049 10.3232V14.6143L8.83887 6.44824C9.11662 6.22605 9.41497 6.0309 9.73438 5.86426C10.0537 5.69767 10.3939 5.57258 10.7549 5.48926V4.90625C10.7549 4.55908 10.8771 4.26353 11.1201 4.02051C11.363 3.77779 11.658 3.65633 12.0049 3.65625Z" fill="#1E1E1E"/>
</svg>
