<svg width="24" height="24" viewBox="0 0 24 24" fill="none" xmlns="http://www.w3.org/2000/svg">
<path d="M6.44397 4.99651C6.39128 4.93712 6.32733 4.88877 6.25581 4.85428C6.1843 4.81978 6.10665 4.79982 6.02737 4.79556C5.94808 4.79129 5.86874 4.8028 5.79394 4.82943C5.71914 4.85605 5.65036 4.89726 5.59161 4.95066C5.53285 5.00406 5.48527 5.06859 5.45163 5.14051C5.418 5.21243 5.39897 5.29031 5.39566 5.36964C5.39234 5.44897 5.40481 5.52817 5.43233 5.60265C5.45985 5.67712 5.50187 5.7454 5.55597 5.80351L6.81147 7.18501C6.27827 8.10022 5.99819 9.14082 5.99997 10.2C5.99997 12.8505 5.38047 14.8785 4.96422 15.5955C4.85793 15.7778 4.80157 15.9849 4.80085 16.1959C4.80012 16.4069 4.85505 16.6144 4.9601 16.7974C5.06514 16.9804 5.21658 17.1325 5.39915 17.2383C5.58172 17.3441 5.78896 17.3999 5.99997 17.4H9.05997C9.19768 18.0782 9.56561 18.6879 10.1014 19.1258C10.6372 19.5638 11.308 19.803 12 19.803C12.692 19.803 13.3627 19.5638 13.8985 19.1258C14.4343 18.6879 14.8023 18.0782 14.94 17.4H16.098L17.556 19.0035C17.6087 19.0629 17.6726 19.1113 17.7441 19.1458C17.8156 19.1802 17.8933 19.2002 17.9726 19.2045C18.0519 19.2087 18.1312 19.1972 18.206 19.1706C18.2808 19.144 18.3496 19.1028 18.4083 19.0494C18.4671 18.996 18.5147 18.9314 18.5483 18.8595C18.5819 18.7876 18.601 18.7097 18.6043 18.6304C18.6076 18.5511 18.5951 18.4719 18.5676 18.3974C18.5401 18.3229 18.4981 18.2546 18.444 18.1965L6.44397 4.99651ZM12 18.6C11.6278 18.5999 11.2649 18.4844 10.9611 18.2695C10.6573 18.0546 10.4275 17.7509 10.3035 17.4H13.6965C13.5724 17.7509 13.3427 18.0546 13.0389 18.2695C12.7351 18.4844 12.3721 18.5999 12 18.6ZM5.99997 16.2C6.57747 15.207 7.19997 12.906 7.19997 10.2C7.19892 9.48302 7.35939 8.77499 7.66947 8.12851L15.0067 16.2H5.99997ZM18.45 15.8453C18.3799 15.8724 18.3054 15.8864 18.2302 15.8865C18.1097 15.8864 17.992 15.85 17.8925 15.782C17.793 15.7141 17.7162 15.6177 17.6722 15.5055C17.1262 14.1143 16.8 12.1313 16.8 10.2C16.8002 9.36047 16.5803 8.53555 16.162 7.80758C15.7438 7.07962 15.142 6.47407 14.4166 6.05138C13.6913 5.6287 12.8677 5.40366 12.0282 5.39872C11.1887 5.39379 10.3625 5.60913 9.63222 6.02326C9.49413 6.09809 9.33221 6.11578 9.18122 6.07255C9.03023 6.02932 8.90222 5.9286 8.82465 5.79204C8.74709 5.65547 8.72617 5.49393 8.76638 5.34211C8.80659 5.19029 8.90473 5.06028 9.03972 4.98001C9.95254 4.46225 10.9852 4.19296 12.0346 4.19901C13.084 4.20507 14.1135 4.48626 15.0203 5.01453C15.927 5.54279 16.6794 6.29964 17.2023 7.20955C17.7251 8.11945 18.0002 9.15058 18 10.2C18 12.8513 18.6037 14.5943 18.789 15.066C18.8471 15.2141 18.8441 15.3792 18.7805 15.5251C18.7169 15.6709 18.598 15.7856 18.45 15.8438V15.8453Z" fill="#1E1E1E"/>
</svg>
