<svg width="24" height="24" viewBox="0 0 24 24" fill="none" xmlns="http://www.w3.org/2000/svg">
<path fill-rule="evenodd" clip-rule="evenodd" d="M20.05 6.35C19.83 6.12 19.52 6 19.2 6H4.79998C4.47998 6 4.17998 6.13 3.94998 6.35C3.71998 6.57 3.59998 6.88 3.59998 7.2V9C3.59998 9.32 3.72998 9.62 3.94998 9.85C4.17998 10.08 4.47998 10.2 4.79998 10.2V16.8C4.79998 17.12 4.92998 17.42 5.14998 17.65C5.36998 17.88 5.67998 18 5.99998 18H18C18.32 18 18.62 17.87 18.85 17.65C19.08 17.43 19.2 17.12 19.2 16.8V10.2C19.52 10.2 19.82 10.07 20.05 9.85C20.27 9.62 20.4 9.32 20.4 9V7.2C20.4 6.88 20.27 6.58 20.05 6.35ZM14.33 13.23H9.65998V11.98H14.33V13.23ZM19.2 9H4.79998V7.2H19.2V9Z" fill="#1E1E1E"/>
</svg>
