<svg width="24" height="24" viewBox="0 0 24 24" fill="none" xmlns="http://www.w3.org/2000/svg">
<path d="M5.33329 19.5C4.87496 19.5 4.4826 19.3368 4.15621 19.0104C3.82982 18.684 3.66663 18.2917 3.66663 17.8333V6.16667C3.66663 5.70833 3.82982 5.31597 4.15621 4.98958C4.4826 4.66319 4.87496 4.5 5.33329 4.5H18.6666C19.125 4.5 19.5173 4.66319 19.8437 4.98958C20.1701 5.31597 20.3333 5.70833 20.3333 6.16667V17.8333C20.3333 18.2917 20.1701 18.684 19.8437 19.0104C19.5173 19.3368 19.125 19.5 18.6666 19.5H5.33329ZM6.99996 16.1667H17V14.5H6.99996V16.1667ZM6.99996 12.8333H10.3333V7.83333H6.99996V12.8333ZM12 12.8333H17V11.1667H12V12.8333ZM12 9.5H17V7.83333H12V9.5Z" fill="#1E1E1E"/>
</svg>
