<svg width="24" height="24" viewBox="0 0 24 24" fill="none" xmlns="http://www.w3.org/2000/svg">
<path d="M12.625 11.375H14.5V12.625H12.625V11.375ZM20.75 7V17.625C20.75 17.7908 20.6842 17.9497 20.5669 18.0669C20.4497 18.1842 20.2908 18.25 20.125 18.25H5.75C5.08696 18.25 4.45107 17.9866 3.98223 17.5178C3.51339 17.0489 3.25 16.413 3.25 15.75V7C3.25 6.33696 3.51339 5.70107 3.98223 5.23223C4.45107 4.76339 5.08696 4.5 5.75 4.5H7C7.16576 4.5 7.32473 4.56585 7.44194 4.68306C7.55915 4.80027 7.625 4.95924 7.625 5.125V6.375H20.125C20.2908 6.375 20.4497 6.44085 20.5669 6.55806C20.6842 6.67527 20.75 6.83424 20.75 7ZM6.375 5.75H5.75C5.41848 5.75 5.10054 5.8817 4.86612 6.11612C4.6317 6.35054 4.5 6.66848 4.5 7V13.5852C4.87977 13.365 5.31105 13.2494 5.75 13.25H6.375V5.75ZM15.75 12.625V11.375H17C17.1658 11.375 17.3247 11.3092 17.4419 11.1919C17.5592 11.0747 17.625 10.9158 17.625 10.75C17.625 10.5842 17.5592 10.4253 17.4419 10.3081C17.3247 10.1908 17.1658 10.125 17 10.125H15.75V9.5C15.75 9.33424 15.6842 9.17527 15.5669 9.05806C15.4497 8.94085 15.2908 8.875 15.125 8.875C14.9592 8.875 14.8003 8.94085 14.6831 9.05806C14.5658 9.17527 14.5 9.33424 14.5 9.5V10.125H12.625V9.5C12.625 9.33424 12.5592 9.17527 12.4419 9.05806C12.3247 8.94085 12.1658 8.875 12 8.875C11.8342 8.875 11.6753 8.94085 11.5581 9.05806C11.4408 9.17527 11.375 9.33424 11.375 9.5V10.125H10.125C9.95924 10.125 9.80027 10.1908 9.68306 10.3081C9.56585 10.4253 9.5 10.5842 9.5 10.75C9.5 10.9158 9.56585 11.0747 9.68306 11.1919C9.80027 11.3092 9.95924 11.375 10.125 11.375H11.375V12.625H10.125C9.95924 12.625 9.80027 12.6908 9.68306 12.8081C9.56585 12.9253 9.5 13.0842 9.5 13.25C9.5 13.4158 9.56585 13.5747 9.68306 13.6919C9.80027 13.8092 9.95924 13.875 10.125 13.875H11.375V14.5C11.375 14.6658 11.4408 14.8247 11.5581 14.9419C11.6753 15.0592 11.8342 15.125 12 15.125C12.1658 15.125 12.3247 15.0592 12.4419 14.9419C12.5592 14.8247 12.625 14.6658 12.625 14.5V13.875H14.5V14.5C14.5 14.6658 14.5658 14.8247 14.6831 14.9419C14.8003 15.0592 14.9592 15.125 15.125 15.125C15.2908 15.125 15.4497 15.0592 15.5669 14.9419C15.6842 14.8247 15.75 14.6658 15.75 14.5V13.875H17C17.1658 13.875 17.3247 13.8092 17.4419 13.6919C17.5592 13.5747 17.625 13.4158 17.625 13.25C17.625 13.0842 17.5592 12.9253 17.4419 12.8081C17.3247 12.6908 17.1658 12.625 17 12.625H15.75Z" fill="#1E1E1E"/>
</svg>
