<svg width="24" height="24" viewBox="0 0 24 24" fill="none" xmlns="http://www.w3.org/2000/svg">
<path d="M16.2 4.79999H7.79998C7.48172 4.79999 7.17649 4.92642 6.95145 5.15146C6.7264 5.3765 6.59998 5.68173 6.59998 5.99999V19.2C6.60003 19.3071 6.62874 19.4122 6.68312 19.5044C6.7375 19.5967 6.81558 19.6727 6.90925 19.7245C7.00291 19.7764 7.10876 19.8023 7.2158 19.7995C7.32284 19.7967 7.42717 19.7652 7.51798 19.7085L12 16.9072L16.4827 19.7085C16.5735 19.765 16.6778 19.7963 16.7847 19.799C16.8916 19.8018 16.9973 19.7758 17.0909 19.724C17.1844 19.6721 17.2624 19.5962 17.3168 19.5041C17.3711 19.4119 17.3998 19.307 17.4 19.2V5.99999C17.4 5.68173 17.2735 5.3765 17.0485 5.15146C16.8235 4.92642 16.5182 4.79999 16.2 4.79999ZM16.2 18.1177L12.3172 15.6915C12.2219 15.6319 12.1117 15.6003 11.9992 15.6003C11.8868 15.6003 11.7766 15.6319 11.6812 15.6915L7.79998 18.1177V5.99999H16.2V18.1177Z" fill="#1E1E1E"/>
</svg>
