<svg width="24" height="24" viewBox="0 0 24 24" fill="none" xmlns="http://www.w3.org/2000/svg">
<path d="M8.24998 20.3334C7.43054 20.3334 6.73956 20.0521 6.17706 19.4896C5.61456 18.9271 5.33331 18.2361 5.33331 17.4167V6.58335C5.33331 5.7778 5.61456 5.0903 6.17706 4.52085C6.73956 3.95141 7.43054 3.66669 8.24998 3.66669H18.6666V16.1667C18.3055 16.1667 18.0069 16.2882 17.7708 16.5313C17.5347 16.7743 17.4166 17.0695 17.4166 17.4167C17.4166 17.7778 17.5347 18.0764 17.7708 18.3125C18.0069 18.5486 18.3055 18.6667 18.6666 18.6667V20.3334H8.24998ZM9.27081 12.8334H10.2916L10.8125 11.3542H13.1666L13.6875 12.8334H14.7083L12.5 7.00002H11.4583L9.27081 12.8334ZM11.1041 10.5L11.9583 8.08335H12.0208L12.875 10.5H11.1041ZM8.24998 18.6667H16.0208C15.9375 18.4722 15.8715 18.2743 15.8229 18.0729C15.7743 17.8715 15.75 17.6528 15.75 17.4167C15.75 17.1945 15.7708 16.9792 15.8125 16.7709C15.8541 16.5625 15.9236 16.3611 16.0208 16.1667H8.24998C7.88887 16.1667 7.59026 16.2882 7.35415 16.5313C7.11804 16.7743 6.99998 17.0695 6.99998 17.4167C6.99998 17.7778 7.11804 18.0764 7.35415 18.3125C7.59026 18.5486 7.88887 18.6667 8.24998 18.6667Z" fill="#1E1E1E"/>
</svg>
