<svg width="24" height="24" viewBox="0 0 24 24" fill="none" xmlns="http://www.w3.org/2000/svg">
<path d="M14.4 6.59995H7.2C6.88174 6.59995 6.57652 6.72638 6.35147 6.95142C6.12643 7.17647 6 7.48169 6 7.79995V19.2C6 19.3102 6.03037 19.4183 6.08778 19.5124C6.14519 19.6065 6.22742 19.683 6.32545 19.7335C6.42347 19.7839 6.5335 19.8064 6.64346 19.7984C6.75341 19.7904 6.85904 19.7523 6.94875 19.6882L10.8 16.9372L14.652 19.6882C14.7417 19.7521 14.8473 19.79 14.9571 19.7979C15.0669 19.8058 15.1768 19.7833 15.2747 19.7328C15.3726 19.6824 15.4548 19.606 15.5121 19.512C15.5695 19.418 15.5999 19.3101 15.6 19.2V7.79995C15.6 7.48169 15.4736 7.17647 15.2485 6.95142C15.0235 6.72638 14.7183 6.59995 14.4 6.59995ZM14.4 18.0345L11.148 15.7095C11.0462 15.6368 10.9243 15.5977 10.7993 15.5977C10.6742 15.5977 10.5523 15.6368 10.4505 15.7095L7.2 18.0337V7.79995H14.4V18.0345ZM18 5.39995V16.8C18 16.9591 17.9368 17.1117 17.8243 17.2242C17.7117 17.3367 17.5591 17.4 17.4 17.4C17.2409 17.4 17.0883 17.3367 16.9757 17.2242C16.8632 17.1117 16.8 16.9591 16.8 16.8V5.39995H9C8.84087 5.39995 8.68826 5.33674 8.57574 5.22422C8.46321 5.11169 8.4 4.95908 8.4 4.79995C8.4 4.64082 8.46321 4.48821 8.57574 4.37569C8.68826 4.26317 8.84087 4.19995 9 4.19995H16.8C17.1183 4.19995 17.4235 4.32638 17.6485 4.55142C17.8736 4.77647 18 5.08169 18 5.39995Z" fill="#1E1E1E"/>
</svg>
