<svg width="24" height="24" viewBox="0 0 24 24" fill="none" xmlns="http://www.w3.org/2000/svg">
<path d="M15.125 12C15.125 12.6181 14.9417 13.2223 14.5983 13.7362C14.2549 14.2501 13.7669 14.6506 13.1958 14.8871C12.6248 15.1237 11.9965 15.1855 11.3903 15.065C10.7841 14.9444 10.2273 14.6468 9.79024 14.2097C9.3532 13.7727 9.05557 13.2159 8.935 12.6097C8.81442 12.0035 8.8763 11.3751 9.11283 10.8041C9.34935 10.2331 9.74989 9.74505 10.2638 9.40167C10.7777 9.05829 11.3819 8.87501 12 8.87501C12.8288 8.87501 13.6236 9.20425 14.2097 9.7903C14.7957 10.3764 15.125 11.1712 15.125 12ZM18.25 12C18.2518 10.4624 17.685 8.97842 16.6585 7.8336C16.6042 7.77095 16.538 7.71974 16.4637 7.68294C16.3894 7.64613 16.3085 7.62448 16.2258 7.61925C16.143 7.61401 16.0601 7.62528 15.9817 7.65242C15.9034 7.67956 15.8312 7.72201 15.7694 7.77731C15.7077 7.83261 15.6575 7.89965 15.6219 7.97452C15.5863 8.0494 15.5659 8.13061 15.562 8.21343C15.5581 8.29625 15.5707 8.37902 15.599 8.45692C15.6274 8.53483 15.671 8.60631 15.7273 8.6672C16.5471 9.58388 17.0004 10.7706 17.0004 12.0004C17.0004 13.2302 16.5471 14.4169 15.7273 15.3336C15.6198 15.4576 15.5654 15.6188 15.5758 15.7825C15.5862 15.9462 15.6605 16.0993 15.7827 16.2087C15.9049 16.3181 16.0653 16.3751 16.2291 16.3673C16.393 16.3595 16.5472 16.2877 16.6585 16.1672C17.6849 15.022 18.2517 13.5378 18.25 12ZM8.27261 8.6672C8.32888 8.60631 8.37248 8.53483 8.40086 8.45692C8.42924 8.37902 8.44183 8.29625 8.43791 8.21343C8.43399 8.13061 8.41362 8.0494 8.37801 7.97452C8.34239 7.89965 8.29224 7.83261 8.23046 7.77731C8.16868 7.72201 8.09652 7.67956 8.01817 7.65242C7.93983 7.62528 7.85686 7.61401 7.77412 7.61925C7.69137 7.62448 7.61049 7.64613 7.5362 7.68294C7.4619 7.71974 7.39567 7.77095 7.34136 7.8336C6.31541 8.97903 5.74811 10.4627 5.74811 12.0004C5.74811 13.5381 6.31541 15.0218 7.34136 16.1672C7.45269 16.2877 7.60693 16.3595 7.77078 16.3673C7.93464 16.3751 8.09498 16.3181 8.2172 16.2087C8.33943 16.0993 8.41374 15.9462 8.42411 15.7825C8.43447 15.6188 8.38006 15.4576 8.27261 15.3336C7.45195 14.4173 6.99817 13.2305 6.99817 12.0004C6.99817 10.7703 7.45195 9.58349 8.27261 8.6672ZM20.6382 8.3547C20.1808 7.2684 19.5218 6.27856 18.696 5.43751C18.6391 5.37666 18.5706 5.3278 18.4945 5.29381C18.4185 5.25982 18.3364 5.24138 18.2531 5.23959C18.1698 5.23779 18.0869 5.25267 18.0095 5.28334C17.932 5.31402 17.8615 5.35988 17.802 5.41822C17.7425 5.47656 17.6953 5.54621 17.6631 5.62307C17.6309 5.69993 17.6144 5.78244 17.6146 5.86576C17.6148 5.94909 17.6316 6.03153 17.6641 6.10825C17.6966 6.18497 17.7441 6.25442 17.8039 6.31251C19.2935 7.83019 20.128 9.87186 20.128 11.9984C20.128 14.125 19.2935 16.1667 17.8039 17.6844C17.7462 17.743 17.7006 17.8123 17.6698 17.8885C17.6389 17.9647 17.6234 18.0462 17.6241 18.1284C17.6247 18.2106 17.6415 18.2919 17.6736 18.3676C17.7057 18.4432 17.7523 18.5119 17.8109 18.5695C17.8695 18.6272 17.9388 18.6728 18.015 18.7036C18.0912 18.7345 18.1727 18.75 18.2549 18.7493C18.3371 18.7487 18.4184 18.7319 18.4941 18.6998C18.5698 18.6677 18.6384 18.6211 18.696 18.5625C19.99 17.2412 20.8646 15.5669 21.2102 13.7501C21.5557 11.9333 21.3567 10.0549 20.6382 8.35079V8.3547ZM4.51323 15.1625C3.88873 13.6863 3.71529 12.0582 4.01477 10.4835C4.31424 8.90879 5.07323 7.45802 6.19604 6.31407C6.31228 6.19576 6.37676 6.03612 6.3753 5.87027C6.37383 5.70441 6.30654 5.54594 6.18823 5.4297C6.06992 5.31346 5.91028 5.24898 5.74443 5.25044C5.57857 5.25191 5.4201 5.3192 5.30386 5.43751C3.58369 7.1887 2.61987 9.54529 2.61987 12C2.61987 14.4547 3.58369 16.8113 5.30386 18.5625C5.36077 18.6234 5.42928 18.6722 5.50536 18.7062C5.58143 18.7402 5.66353 18.7586 5.74684 18.7604C5.83014 18.7622 5.91296 18.7474 5.99043 18.7167C6.0679 18.686 6.13845 18.6401 6.19794 18.5818C6.25743 18.5235 6.30465 18.4538 6.33683 18.3769C6.369 18.3001 6.38549 18.2176 6.38531 18.1343C6.38514 18.0509 6.3683 17.9685 6.3358 17.8918C6.30329 17.815 6.25578 17.7456 6.19604 17.6875C5.48095 16.9594 4.90999 16.1027 4.51323 15.1625Z" fill="#1E1E1E"/>
</svg>
