<svg width="24" height="24" viewBox="0 0 24 24" fill="none" xmlns="http://www.w3.org/2000/svg">
<path d="M16.9732 20.3334V17.8334H14.4732V16.1667H16.9732V13.6667H18.6399V16.1667H21.1399V17.8334H18.6399V20.3334H16.9732ZM6.97319 18.6667C6.51485 18.6667 6.12249 18.5035 5.7961 18.1771C5.46971 17.8507 5.30652 17.4584 5.30652 17V7.00002C5.30652 6.54169 5.46971 6.14933 5.7961 5.82294C6.12249 5.49655 6.51485 5.33335 6.97319 5.33335H7.80652V3.66669H9.47319V5.33335H14.4732V3.66669H16.1399V5.33335H16.9732C17.4315 5.33335 17.8239 5.49655 18.1503 5.82294C18.4767 6.14933 18.6399 6.54169 18.6399 7.00002V12.0834C18.3621 12.0417 18.0843 12.0209 17.8065 12.0209C17.5287 12.0209 17.251 12.0417 16.9732 12.0834V10.3334H6.97319V17H12.8065C12.8065 17.2778 12.8274 17.5556 12.869 17.8334C12.9107 18.1111 12.9871 18.3889 13.0982 18.6667H6.97319Z" fill="#1E1E1E"/>
</svg>
