<svg width="24" height="24" viewBox="0 0 24 24" fill="none" xmlns="http://www.w3.org/2000/svg">
<path d="M13.4583 17.8334C13.2222 17.8334 13.0243 17.7535 12.8646 17.5938C12.7049 17.434 12.625 17.2361 12.625 17V7.00002C12.625 6.76391 12.7049 6.56599 12.8646 6.40627C13.0243 6.24655 13.2222 6.16669 13.4583 6.16669H14.6042C14.8403 6.16669 15.0382 6.24655 15.1979 6.40627C15.3576 6.56599 15.4375 6.76391 15.4375 7.00002V17C15.4375 17.2361 15.3576 17.434 15.1979 17.5938C15.0382 17.7535 14.8403 17.8334 14.6042 17.8334H13.4583ZM9.39583 17.8334C9.15972 17.8334 8.96181 17.7535 8.80208 17.5938C8.64236 17.434 8.5625 17.2361 8.5625 17V7.00002C8.5625 6.76391 8.64236 6.56599 8.80208 6.40627C8.96181 6.24655 9.15972 6.16669 9.39583 6.16669H10.5417C10.7778 6.16669 10.9757 6.24655 11.1354 6.40627C11.2951 6.56599 11.375 6.76391 11.375 7.00002V17C11.375 17.2361 11.2951 17.434 11.1354 17.5938C10.9757 17.7535 10.7778 17.8334 10.5417 17.8334H9.39583ZM5.33333 17.8334C5.09722 17.8334 4.89931 17.7535 4.73958 17.5938C4.57986 17.434 4.5 17.2361 4.5 17V7.00002C4.5 6.76391 4.57986 6.56599 4.73958 6.40627C4.89931 6.24655 5.09722 6.16669 5.33333 6.16669H6.47917C6.71528 6.16669 6.91319 6.24655 7.07292 6.40627C7.23264 6.56599 7.3125 6.76391 7.3125 7.00002V17C7.3125 17.2361 7.23264 17.434 7.07292 17.5938C6.91319 17.7535 6.71528 17.8334 6.47917 17.8334H5.33333ZM17.5208 17.8334C17.2847 17.8334 17.0868 17.7535 16.9271 17.5938C16.7674 17.434 16.6875 17.2361 16.6875 17V7.00002C16.6875 6.76391 16.7674 6.56599 16.9271 6.40627C17.0868 6.24655 17.2847 6.16669 17.5208 6.16669H18.6667C18.9028 6.16669 19.1007 6.24655 19.2604 6.40627C19.4201 6.56599 19.5 6.76391 19.5 7.00002V17C19.5 17.2361 19.4201 17.434 19.2604 17.5938C19.1007 17.7535 18.9028 17.8334 18.6667 17.8334H17.5208Z" fill="#1E1E1E"/>
</svg>
