<svg width="24" height="24" viewBox="0 0 24 24" fill="none" xmlns="http://www.w3.org/2000/svg">
<path d="M18 4.79998H16.2V4.19998C16.2 4.04085 16.1368 3.88823 16.0243 3.77571C15.9117 3.66319 15.7591 3.59998 15.6 3.59998C15.4409 3.59998 15.2882 3.66319 15.1757 3.77571C15.0632 3.88823 15 4.04085 15 4.19998V4.79998H8.99999V4.19998C8.99999 4.04085 8.93677 3.88823 8.82425 3.77571C8.71173 3.66319 8.55912 3.59998 8.39999 3.59998C8.24086 3.59998 8.08825 3.66319 7.97572 3.77571C7.8632 3.88823 7.79999 4.04085 7.79999 4.19998V4.79998H5.99999C5.68173 4.79998 5.3765 4.9264 5.15146 5.15145C4.92642 5.37649 4.79999 5.68172 4.79999 5.99998V18C4.79999 18.3182 4.92642 18.6235 5.15146 18.8485C5.3765 19.0735 5.68173 19.2 5.99999 19.2H18C18.3182 19.2 18.6235 19.0735 18.8485 18.8485C19.0736 18.6235 19.2 18.3182 19.2 18V5.99998C19.2 5.68172 19.0736 5.37649 18.8485 5.15145C18.6235 4.9264 18.3182 4.79998 18 4.79998ZM7.79999 5.99998V6.59998C7.79999 6.75911 7.8632 6.91172 7.97572 7.02424C8.08825 7.13676 8.24086 7.19998 8.39999 7.19998C8.55912 7.19998 8.71173 7.13676 8.82425 7.02424C8.93677 6.91172 8.99999 6.75911 8.99999 6.59998V5.99998H15V6.59998C15 6.75911 15.0632 6.91172 15.1757 7.02424C15.2882 7.13676 15.4409 7.19998 15.6 7.19998C15.7591 7.19998 15.9117 7.13676 16.0243 7.02424C16.1368 6.91172 16.2 6.75911 16.2 6.59998V5.99998H18V8.39998H5.99999V5.99998H7.79999ZM18 18H5.99999V9.59998H18V18ZM12.9 12.3C12.9 12.478 12.8472 12.652 12.7483 12.8C12.6494 12.948 12.5089 13.0633 12.3444 13.1315C12.1799 13.1996 11.999 13.2174 11.8244 13.1827C11.6498 13.148 11.4895 13.0622 11.3636 12.9364C11.2377 12.8105 11.152 12.6501 11.1173 12.4756C11.0826 12.301 11.1004 12.12 11.1685 11.9556C11.2366 11.7911 11.352 11.6505 11.5 11.5517C11.648 11.4528 11.822 11.4 12 11.4C12.2387 11.4 12.4676 11.4948 12.6364 11.6636C12.8052 11.8324 12.9 12.0613 12.9 12.3ZM16.2 12.3C16.2 12.478 16.1472 12.652 16.0483 12.8C15.9494 12.948 15.8089 13.0633 15.6444 13.1315C15.4799 13.1996 15.299 13.2174 15.1244 13.1827C14.9498 13.148 14.7895 13.0622 14.6636 12.9364C14.5377 12.8105 14.452 12.6501 14.4173 12.4756C14.3826 12.301 14.4004 12.12 14.4685 11.9556C14.5366 11.7911 14.652 11.6505 14.8 11.5517C14.948 11.4528 15.122 11.4 15.3 11.4C15.5387 11.4 15.7676 11.4948 15.9364 11.6636C16.1052 11.8324 16.2 12.0613 16.2 12.3ZM9.59999 15.3C9.59999 15.478 9.5472 15.652 9.44831 15.8C9.34942 15.948 9.20886 16.0633 9.0444 16.1315C8.87995 16.1996 8.69899 16.2174 8.52441 16.1827C8.34982 16.148 8.18946 16.0622 8.06359 15.9364C7.93772 15.8105 7.85201 15.6501 7.81728 15.4756C7.78255 15.301 7.80038 15.12 7.8685 14.9556C7.93661 14.7911 8.05197 14.6505 8.19997 14.5517C8.34798 14.4528 8.52198 14.4 8.69999 14.4C8.93868 14.4 9.1676 14.4948 9.33638 14.6636C9.50517 14.8324 9.59999 15.0613 9.59999 15.3ZM12.9 15.3C12.9 15.478 12.8472 15.652 12.7483 15.8C12.6494 15.948 12.5089 16.0633 12.3444 16.1315C12.1799 16.1996 11.999 16.2174 11.8244 16.1827C11.6498 16.148 11.4895 16.0622 11.3636 15.9364C11.2377 15.8105 11.152 15.6501 11.1173 15.4756C11.0826 15.301 11.1004 15.12 11.1685 14.9556C11.2366 14.7911 11.352 14.6505 11.5 14.5517C11.648 14.4528 11.822 14.4 12 14.4C12.2387 14.4 12.4676 14.4948 12.6364 14.6636C12.8052 14.8324 12.9 15.0613 12.9 15.3ZM16.2 15.3C16.2 15.478 16.1472 15.652 16.0483 15.8C15.9494 15.948 15.8089 16.0633 15.6444 16.1315C15.4799 16.1996 15.299 16.2174 15.1244 16.1827C14.9498 16.148 14.7895 16.0622 14.6636 15.9364C14.5377 15.8105 14.452 15.6501 14.4173 15.4756C14.3826 15.301 14.4004 15.12 14.4685 14.9556C14.5366 14.7911 14.652 14.6505 14.8 14.5517C14.948 14.4528 15.122 14.4 15.3 14.4C15.5387 14.4 15.7676 14.4948 15.9364 14.6636C16.1052 14.8324 16.2 15.0613 16.2 15.3Z" fill="#1E1E1E"/>
</svg>
