<svg width="24" height="24" viewBox="0 0 24 24" fill="none" xmlns="http://www.w3.org/2000/svg">
<path d="M12 13.6667C11.7639 13.6667 11.566 13.5868 11.4062 13.4271C11.2465 13.2674 11.1667 13.0695 11.1667 12.8334C11.1667 12.5972 11.2465 12.3993 11.4062 12.2396C11.566 12.0799 11.7639 12 12 12C12.2361 12 12.434 12.0799 12.5938 12.2396C12.7535 12.3993 12.8333 12.5972 12.8333 12.8334C12.8333 13.0695 12.7535 13.2674 12.5938 13.4271C12.434 13.5868 12.2361 13.6667 12 13.6667ZM8.66667 13.6667C8.43056 13.6667 8.23264 13.5868 8.07292 13.4271C7.91319 13.2674 7.83333 13.0695 7.83333 12.8334C7.83333 12.5972 7.91319 12.3993 8.07292 12.2396C8.23264 12.0799 8.43056 12 8.66667 12C8.90278 12 9.10069 12.0799 9.26042 12.2396C9.42014 12.3993 9.5 12.5972 9.5 12.8334C9.5 13.0695 9.42014 13.2674 9.26042 13.4271C9.10069 13.5868 8.90278 13.6667 8.66667 13.6667ZM15.3333 13.6667C15.0972 13.6667 14.8993 13.5868 14.7396 13.4271C14.5799 13.2674 14.5 13.0695 14.5 12.8334C14.5 12.5972 14.5799 12.3993 14.7396 12.2396C14.8993 12.0799 15.0972 12 15.3333 12C15.5694 12 15.7674 12.0799 15.9271 12.2396C16.0868 12.3993 16.1667 12.5972 16.1667 12.8334C16.1667 13.0695 16.0868 13.2674 15.9271 13.4271C15.7674 13.5868 15.5694 13.6667 15.3333 13.6667ZM12 17C11.7639 17 11.566 16.9202 11.4062 16.7604C11.2465 16.6007 11.1667 16.4028 11.1667 16.1667C11.1667 15.9306 11.2465 15.7327 11.4062 15.5729C11.566 15.4132 11.7639 15.3334 12 15.3334C12.2361 15.3334 12.434 15.4132 12.5938 15.5729C12.7535 15.7327 12.8333 15.9306 12.8333 16.1667C12.8333 16.4028 12.7535 16.6007 12.5938 16.7604C12.434 16.9202 12.2361 17 12 17ZM8.66667 17C8.43056 17 8.23264 16.9202 8.07292 16.7604C7.91319 16.6007 7.83333 16.4028 7.83333 16.1667C7.83333 15.9306 7.91319 15.7327 8.07292 15.5729C8.23264 15.4132 8.43056 15.3334 8.66667 15.3334C8.90278 15.3334 9.10069 15.4132 9.26042 15.5729C9.42014 15.7327 9.5 15.9306 9.5 16.1667C9.5 16.4028 9.42014 16.6007 9.26042 16.7604C9.10069 16.9202 8.90278 17 8.66667 17ZM15.3333 17C15.0972 17 14.8993 16.9202 14.7396 16.7604C14.5799 16.6007 14.5 16.4028 14.5 16.1667C14.5 15.9306 14.5799 15.7327 14.7396 15.5729C14.8993 15.4132 15.0972 15.3334 15.3333 15.3334C15.5694 15.3334 15.7674 15.4132 15.9271 15.5729C16.0868 15.7327 16.1667 15.9306 16.1667 16.1667C16.1667 16.4028 16.0868 16.6007 15.9271 16.7604C15.7674 16.9202 15.5694 17 15.3333 17ZM6.16667 20.3334C5.70833 20.3334 5.31597 20.1702 4.98958 19.8438C4.66319 19.5174 4.5 19.125 4.5 18.6667V7.00002C4.5 6.54169 4.66319 6.14933 4.98958 5.82294C5.31597 5.49655 5.70833 5.33335 6.16667 5.33335H7V3.66669H8.66667V5.33335H15.3333V3.66669H17V5.33335H17.8333C18.2917 5.33335 18.684 5.49655 19.0104 5.82294C19.3368 6.14933 19.5 6.54169 19.5 7.00002V18.6667C19.5 19.125 19.3368 19.5174 19.0104 19.8438C18.684 20.1702 18.2917 20.3334 17.8333 20.3334H6.16667ZM6.16667 18.6667H17.8333V10.3334H6.16667V18.6667Z" fill="#1E1E1E"/>
</svg>
