<svg width="24" height="24" viewBox="0 0 24 24" fill="none" xmlns="http://www.w3.org/2000/svg">
<path d="M5.74998 20.3334C5.29165 20.3334 4.89929 20.1702 4.5729 19.8438C4.24651 19.5174 4.08331 19.125 4.08331 18.6667V7.00002C4.08331 6.54169 4.24651 6.14933 4.5729 5.82294C4.89929 5.49655 5.29165 5.33335 5.74998 5.33335H6.58331V3.66669H8.24998V5.33335H14.9166V3.66669H16.5833V5.33335H17.4166C17.875 5.33335 18.2673 5.49655 18.5937 5.82294C18.9201 6.14933 19.0833 6.54169 19.0833 7.00002V12H17.4166V10.3334H5.74998V18.6667H13.25V20.3334H5.74998ZM15.625 20.3334C15.4305 20.3334 15.2639 20.2639 15.125 20.125C14.9861 19.9861 14.9166 19.8195 14.9166 19.625V16.875C14.9166 16.6806 14.9861 16.5139 15.125 16.375C15.2639 16.2361 15.4305 16.1667 15.625 16.1667H15.75V15.3334C15.75 14.875 15.9132 14.4827 16.2396 14.1563C16.566 13.8299 16.9583 13.6667 17.4166 13.6667C17.875 13.6667 18.2673 13.8299 18.5937 14.1563C18.9201 14.4827 19.0833 14.875 19.0833 15.3334V16.1667H19.2083C19.4028 16.1667 19.5694 16.2361 19.7083 16.375C19.8472 16.5139 19.9166 16.6806 19.9166 16.875V19.625C19.9166 19.8195 19.8472 19.9861 19.7083 20.125C19.5694 20.2639 19.4028 20.3334 19.2083 20.3334H15.625ZM16.5833 16.1667H18.25V15.3334C18.25 15.0972 18.1701 14.8993 18.0104 14.7396C17.8507 14.5799 17.6528 14.5 17.4166 14.5C17.1805 14.5 16.9826 14.5799 16.8229 14.7396C16.6632 14.8993 16.5833 15.0972 16.5833 15.3334V16.1667Z" fill="#1E1E1E"/>
</svg>
