<svg width="24" height="24" viewBox="0 0 24 24" fill="none" xmlns="http://www.w3.org/2000/svg">
<path d="M6.16667 16.1667C5.70833 16.1667 5.31597 16.0035 4.98958 15.6771C4.66319 15.3507 4.5 14.9583 4.5 14.5V9.5C4.5 9.04167 4.66319 8.64931 4.98958 8.32292C5.31597 7.99653 5.70833 7.83333 6.16667 7.83333H17.8333C18.2917 7.83333 18.684 7.99653 19.0104 8.32292C19.3368 8.64931 19.5 9.04167 19.5 9.5V14.5C19.5 14.9583 19.3368 15.3507 19.0104 15.6771C18.684 16.0035 18.2917 16.1667 17.8333 16.1667H6.16667ZM4.5 6.16667V4.5H19.5V6.16667H4.5ZM4.5 19.5V17.8333H19.5V19.5H4.5Z" fill="#1E1E1E"/>
</svg>
