<svg width="24" height="24" viewBox="0 0 24 24" fill="none" xmlns="http://www.w3.org/2000/svg">
<path d="M4.5 10.75V7.00002C4.5 6.76391 4.57986 6.56599 4.73958 6.40627C4.89931 6.24655 5.09722 6.16669 5.33333 6.16669H8.10417C8.34028 6.16669 8.53819 6.24655 8.69792 6.40627C8.85764 6.56599 8.9375 6.76391 8.9375 7.00002V10.75C8.9375 10.9861 8.85764 11.184 8.69792 11.3438C8.53819 11.5035 8.34028 11.5834 8.10417 11.5834H5.33333C5.09722 11.5834 4.89931 11.5035 4.73958 11.3438C4.57986 11.184 4.5 10.9861 4.5 10.75ZM10.6042 11.5834C10.3681 11.5834 10.1701 11.5035 10.0104 11.3438C9.85069 11.184 9.77083 10.9861 9.77083 10.75V7.00002C9.77083 6.76391 9.85069 6.56599 10.0104 6.40627C10.1701 6.24655 10.3681 6.16669 10.6042 6.16669H13.3958C13.6319 6.16669 13.8299 6.24655 13.9896 6.40627C14.1493 6.56599 14.2292 6.76391 14.2292 7.00002V10.75C14.2292 10.9861 14.1493 11.184 13.9896 11.3438C13.8299 11.5035 13.6319 11.5834 13.3958 11.5834H10.6042ZM15.8958 11.5834C15.6597 11.5834 15.4618 11.5035 15.3021 11.3438C15.1424 11.184 15.0625 10.9861 15.0625 10.75V7.00002C15.0625 6.76391 15.1424 6.56599 15.3021 6.40627C15.4618 6.24655 15.6597 6.16669 15.8958 6.16669H18.6667C18.9028 6.16669 19.1007 6.24655 19.2604 6.40627C19.4201 6.56599 19.5 6.76391 19.5 7.00002V10.75C19.5 10.9861 19.4201 11.184 19.2604 11.3438C19.1007 11.5035 18.9028 11.5834 18.6667 11.5834H15.8958ZM8.10417 17.8334H5.33333C5.09722 17.8334 4.89931 17.7535 4.73958 17.5938C4.57986 17.434 4.5 17.2361 4.5 17V13.25C4.5 13.0139 4.57986 12.816 4.73958 12.6563C4.89931 12.4965 5.09722 12.4167 5.33333 12.4167H8.10417C8.34028 12.4167 8.53819 12.4965 8.69792 12.6563C8.85764 12.816 8.9375 13.0139 8.9375 13.25V17C8.9375 17.2361 8.85764 17.434 8.69792 17.5938C8.53819 17.7535 8.34028 17.8334 8.10417 17.8334ZM10.6042 17.8334C10.3681 17.8334 10.1701 17.7535 10.0104 17.5938C9.85069 17.434 9.77083 17.2361 9.77083 17V13.25C9.77083 13.0139 9.85069 12.816 10.0104 12.6563C10.1701 12.4965 10.3681 12.4167 10.6042 12.4167H13.3958C13.6319 12.4167 13.8299 12.4965 13.9896 12.6563C14.1493 12.816 14.2292 13.0139 14.2292 13.25V17C14.2292 17.2361 14.1493 17.434 13.9896 17.5938C13.8299 17.7535 13.6319 17.8334 13.3958 17.8334H10.6042ZM15.8958 17.8334C15.6597 17.8334 15.4618 17.7535 15.3021 17.5938C15.1424 17.434 15.0625 17.2361 15.0625 17V13.25C15.0625 13.0139 15.1424 12.816 15.3021 12.6563C15.4618 12.4965 15.6597 12.4167 15.8958 12.4167H18.6667C18.9028 12.4167 19.1007 12.4965 19.2604 12.6563C19.4201 12.816 19.5 13.0139 19.5 13.25V17C19.5 17.2361 19.4201 17.434 19.2604 17.5938C19.1007 17.7535 18.9028 17.8334 18.6667 17.8334H15.8958Z" fill="#1E1E1E"/>
</svg>
