<svg width="24" height="24" viewBox="0 0 24 24" fill="none" xmlns="http://www.w3.org/2000/svg">
<path d="M18.4245 14.8245C18.3688 14.8803 18.3026 14.9246 18.2298 14.9548C18.1569 14.985 18.0788 15.0005 18 15.0005C17.9211 15.0005 17.8431 14.985 17.7702 14.9548C17.6974 14.9246 17.6312 14.8803 17.5755 14.8245L12 9.24828L6.42449 14.8245C6.31191 14.9371 6.15921 15.0004 5.99999 15.0004C5.84077 15.0004 5.68808 14.9371 5.57549 14.8245C5.46291 14.7119 5.39966 14.5593 5.39966 14.4C5.39966 14.2408 5.46291 14.0881 5.57549 13.9755L11.5755 7.97553C11.6312 7.91975 11.6974 7.87549 11.7702 7.8453C11.8431 7.8151 11.9211 7.79956 12 7.79956C12.0788 7.79956 12.1569 7.8151 12.2298 7.8453C12.3026 7.87549 12.3688 7.91975 12.4245 7.97553L18.4245 13.9755C18.4803 14.0313 18.5245 14.0974 18.5547 14.1703C18.5849 14.2431 18.6005 14.3212 18.6005 14.4C18.6005 14.4789 18.5849 14.557 18.5547 14.6298C18.5245 14.7026 18.4803 14.7688 18.4245 14.8245Z" fill="#1E1E1E"/>
</svg>
