<svg width="24" height="24" viewBox="0 0 24 24" fill="none" xmlns="http://www.w3.org/2000/svg">
<path d="M8.17004 20.8367C7.71171 20.8367 7.31935 20.6735 6.99296 20.3471C6.66657 20.0207 6.50338 19.6284 6.50338 19.17C6.50338 18.7117 6.66657 18.3193 6.99296 17.993C7.31935 17.6666 7.71171 17.5034 8.17004 17.5034C8.62838 17.5034 9.02074 17.6666 9.34713 17.993C9.67352 18.3193 9.83671 18.7117 9.83671 19.17C9.83671 19.6284 9.67352 20.0207 9.34713 20.3471C9.02074 20.6735 8.62838 20.8367 8.17004 20.8367ZM16.5034 20.8367C16.045 20.8367 15.6527 20.6735 15.3263 20.3471C14.9999 20.0207 14.8367 19.6284 14.8367 19.17C14.8367 18.7117 14.9999 18.3193 15.3263 17.993C15.6527 17.6666 16.045 17.5034 16.5034 17.5034C16.9617 17.5034 17.3541 17.6666 17.6805 17.993C18.0069 18.3193 18.17 18.7117 18.17 19.17C18.17 19.6284 18.0069 20.0207 17.6805 20.3471C17.3541 20.6735 16.9617 20.8367 16.5034 20.8367ZM6.67004 5.83671H18.9617C19.2812 5.83671 19.5242 5.97907 19.6909 6.26379C19.8575 6.54852 19.8645 6.83671 19.7117 7.12838L16.7534 12.4617C16.6006 12.7395 16.3957 12.9548 16.1388 13.1075C15.8818 13.2603 15.6006 13.3367 15.295 13.3367H9.08671L8.17004 15.0034H18.17V16.67H8.17004C7.54504 16.67 7.07282 16.3957 6.75338 15.8471C6.43393 15.2985 6.42004 14.7534 6.71171 14.2117L7.83671 12.17L4.83671 5.83671H3.17004V4.17004H5.87838L6.67004 5.83671Z" fill="#1E1E1E"/>
</svg>
