<svg width="24" height="24" viewBox="0 0 24 24" fill="none" xmlns="http://www.w3.org/2000/svg">
<path d="M20.125 8.76016V6.375C20.125 6.04348 19.9933 5.72554 19.7589 5.49112C19.5245 5.2567 19.2065 5.125 18.875 5.125H5.125C4.79348 5.125 4.47554 5.2567 4.24112 5.49112C4.0067 5.72554 3.875 6.04348 3.875 6.375V16.375C3.875 16.7065 4.0067 17.0245 4.24112 17.2589C4.47554 17.4933 4.79348 17.625 5.125 17.625H14.5V19.5C14.499 19.6102 14.5272 19.7187 14.5816 19.8145C14.6361 19.9103 14.7149 19.99 14.8101 20.0455C14.9052 20.101 15.0134 20.1304 15.1236 20.1306C15.2338 20.1309 15.3421 20.102 15.4375 20.0469L17.3125 18.9734L19.1875 20.0469C19.2829 20.102 19.3912 20.1309 19.5014 20.1306C19.6116 20.1304 19.7198 20.101 19.8149 20.0455C19.9101 19.99 19.9889 19.9103 20.0434 19.8145C20.0978 19.7187 20.126 19.6102 20.125 19.5V14.6148C20.5201 14.2365 20.8345 13.7821 21.0493 13.279C21.2641 12.7759 21.3748 12.2345 21.3748 11.6875C21.3748 11.1405 21.2641 10.5991 21.0493 10.096C20.8345 9.59291 20.5201 9.1385 20.125 8.76016ZM12 13.25H7.625C7.45924 13.25 7.30027 13.1842 7.18306 13.0669C7.06585 12.9497 7 12.7908 7 12.625C7 12.4592 7.06585 12.3003 7.18306 12.1831C7.30027 12.0658 7.45924 12 7.625 12H12C12.1658 12 12.3247 12.0658 12.4419 12.1831C12.5592 12.3003 12.625 12.4592 12.625 12.625C12.625 12.7908 12.5592 12.9497 12.4419 13.0669C12.3247 13.1842 12.1658 13.25 12 13.25ZM12 10.75H7.625C7.45924 10.75 7.30027 10.6842 7.18306 10.5669C7.06585 10.4497 7 10.2908 7 10.125C7 9.95924 7.06585 9.80027 7.18306 9.68306C7.30027 9.56585 7.45924 9.5 7.625 9.5H12C12.1658 9.5 12.3247 9.56585 12.4419 9.68306C12.5592 9.80027 12.625 9.95924 12.625 10.125C12.625 10.2908 12.5592 10.4497 12.4419 10.5669C12.3247 10.6842 12.1658 10.75 12 10.75ZM18.875 18.4227L17.625 17.707C17.5305 17.653 17.4236 17.6246 17.3148 17.6246C17.206 17.6246 17.0991 17.653 17.0047 17.707L15.7547 18.4227V15.4375C16.2497 15.6443 16.7808 15.7508 17.3172 15.7508C17.8536 15.7508 18.3847 15.6443 18.8797 15.4375L18.875 18.4227ZM17.3125 14.5C16.7562 14.5 16.2125 14.335 15.75 14.026C15.2874 13.717 14.927 13.2777 14.7141 12.7638C14.5012 12.2499 14.4455 11.6844 14.554 11.1388C14.6626 10.5932 14.9304 10.0921 15.3238 9.69876C15.7171 9.30543 16.2182 9.03756 16.7638 8.92904C17.3094 8.82052 17.8749 8.87622 18.3888 9.08909C18.9027 9.30196 19.342 9.66245 19.651 10.125C19.9601 10.5875 20.125 11.1312 20.125 11.6875C20.125 12.0568 20.0523 12.4226 19.9109 12.7638C19.7696 13.105 19.5624 13.4151 19.3012 13.6762C19.0401 13.9374 18.73 14.1446 18.3888 14.2859C18.0476 14.4273 17.6818 14.5 17.3125 14.5Z" fill="#1E1E1E"/>
</svg>
