<svg width="24" height="24" viewBox="0 0 24 24" fill="none" xmlns="http://www.w3.org/2000/svg">
<path d="M9.80007 14.0374L6.73171 10.9684C6.43158 10.6683 6.02446 10.4996 5.60003 10.4996C5.17559 10.4996 4.76854 10.6682 4.46842 10.9683C4.1683 11.2685 3.99969 11.6755 3.99969 12.0999C3.99969 12.5244 4.1683 12.9314 4.46842 13.2316L8.66803 17.4312C8.81663 17.5799 8.99309 17.6979 9.18732 17.7785C9.38157 17.859 9.58977 17.9004 9.80003 17.9004C10.0103 17.9004 10.2185 17.859 10.4127 17.7785C10.607 17.6979 10.7834 17.5799 10.932 17.4312L19.5316 8.83155C19.8318 8.53143 20.0004 8.12438 20.0004 7.69994C20.0004 7.27551 19.8318 6.86846 19.5316 6.56834C19.2315 6.26821 18.8245 6.09961 18.4 6.09961C17.9756 6.09961 17.5685 6.26825 17.2684 6.56837L9.80007 14.0374Z" fill="#1E1E1E"/>
</svg>
