<svg width="24" height="24" viewBox="0 0 24 24" fill="none" xmlns="http://www.w3.org/2000/svg">
<path d="M19.6245 8.22448L10.0245 17.8245C9.96879 17.8803 9.90262 17.9245 9.82978 17.9547C9.75694 17.9849 9.67887 18.0005 9.60002 18.0005C9.52117 18.0005 9.44309 17.9849 9.37025 17.9547C9.29741 17.9245 9.23124 17.8803 9.17552 17.8245L4.97552 13.6245C4.86293 13.5119 4.79968 13.3592 4.79968 13.2C4.79968 13.0408 4.86293 12.8881 4.97552 12.7755C5.0881 12.6629 5.2408 12.5996 5.40002 12.5996C5.55923 12.5996 5.71193 12.6629 5.82452 12.7755L9.60002 16.5517L18.7755 7.37548C18.8881 7.26289 19.0408 7.19965 19.2 7.19965C19.3592 7.19965 19.5119 7.26289 19.6245 7.37548C19.7371 7.48806 19.8004 7.64076 19.8004 7.79998C19.8004 7.9592 19.7371 8.1119 19.6245 8.22448Z" fill="#1E1E1E"/>
</svg>
