<svg width="24" height="24" viewBox="0 0 24 24" fill="none" xmlns="http://www.w3.org/2000/svg">
<path d="M17.8378 3.50095C18.5481 3.50095 19.2184 3.78109 19.7187 4.28132C20.2289 4.79157 20.5091 5.46189 20.5091 6.17222V17.8478C20.5091 18.5581 20.2289 19.2284 19.7287 19.7287C19.2184 20.2389 18.5481 20.5191 17.8378 20.5191H6.17223C5.46189 20.5191 4.79157 20.2389 4.29133 19.7387C3.78109 19.2284 3.50096 18.5581 3.50096 17.8478V6.17222C3.50096 5.46189 3.78109 4.79157 4.28133 4.29133C4.79157 3.78109 5.46189 3.50095 6.17223 3.50095H17.8478M17.8378 1.5H6.17223C4.93164 1.5 3.76108 1.99023 2.87066 2.87065C1.99024 3.75107 1.51001 4.92163 1.51001 6.16222V17.8378C1.51001 19.0784 2.00024 20.2489 2.88066 21.1394C3.76108 22.0198 4.93164 22.5 6.17223 22.5H17.8478C19.0884 22.5 20.2589 22.0098 21.1494 21.1293C22.0298 20.2489 22.51 19.0784 22.51 17.8378V6.17222C22.51 4.93163 22.0198 3.76108 21.1394 2.87065C20.2589 1.99023 19.0884 1.51 17.8478 1.51L17.8378 1.5Z" fill="#1E1E1E"/>
</svg>
