<svg width="24" height="24" viewBox="0 0 24 24" fill="none" xmlns="http://www.w3.org/2000/svg">
<path d="M8.875 10.6961L12.625 14.4461V19.1875C12.625 19.2704 12.5921 19.3499 12.5335 19.4085C12.4749 19.4671 12.3954 19.5 12.3125 19.5H5.75C5.41848 19.5 5.10054 19.3683 4.86612 19.1339C4.6317 18.8995 4.5 18.5815 4.5 18.25V5.75C4.5 5.41848 4.6317 5.10054 4.86612 4.86612C5.10054 4.6317 5.41848 4.5 5.75 4.5H7.3125C7.39538 4.5 7.47487 4.53292 7.53347 4.59153C7.59208 4.65013 7.625 4.72962 7.625 4.8125V13.9828C7.20799 14.1302 6.85653 14.4204 6.63273 14.8019C6.40893 15.1834 6.32721 15.6317 6.402 16.0676C6.4768 16.5036 6.70329 16.899 7.04146 17.1841C7.37963 17.4692 7.8077 17.6256 8.25 17.6256C8.6923 17.6256 9.12037 17.4692 9.45854 17.1841C9.79671 16.899 10.0232 16.5036 10.098 16.0676C10.1728 15.6317 10.0911 15.1834 9.86727 14.8019C9.64347 14.4204 9.29201 14.1302 8.875 13.9828V10.6961ZM8.25 16.375C8.37361 16.375 8.49445 16.3383 8.59723 16.2697C8.70001 16.201 8.78012 16.1034 8.82742 15.9892C8.87473 15.875 8.88711 15.7493 8.86299 15.6281C8.83888 15.5068 8.77935 15.3955 8.69194 15.3081C8.60453 15.2206 8.49317 15.1611 8.37193 15.137C8.25069 15.1129 8.12503 15.1253 8.01082 15.1726C7.89662 15.2199 7.79901 15.3 7.73033 15.4028C7.66166 15.5055 7.625 15.6264 7.625 15.75C7.625 15.9158 7.69085 16.0747 7.80806 16.1919C7.92527 16.3092 8.08424 16.375 8.25 16.375ZM16.375 10.125C16.375 10.0014 16.3383 9.88055 16.2697 9.77777C16.201 9.67499 16.1034 9.59488 15.9892 9.54758C15.875 9.50027 15.7493 9.48789 15.6281 9.51201C15.5068 9.53612 15.3955 9.59565 15.3081 9.68306C15.2206 9.77047 15.1611 9.88183 15.137 10.0031C15.1129 10.1243 15.1253 10.25 15.1726 10.3642C15.2199 10.4784 15.3 10.576 15.4028 10.6447C15.5055 10.7133 15.6264 10.75 15.75 10.75C15.9158 10.75 16.0747 10.6842 16.1919 10.5669C16.3092 10.4497 16.375 10.2908 16.375 10.125ZM18.25 4.5H14.1875C14.1046 4.5 14.0251 4.53292 13.9665 4.59153C13.9079 4.65013 13.875 4.72962 13.875 4.8125V7.36641L14.9422 8.43359C15.3413 8.24292 15.795 8.19949 16.223 8.31097C16.6511 8.42246 17.0259 8.68168 17.2813 9.04282C17.5367 9.40396 17.6562 9.84377 17.6187 10.2845C17.5812 10.7252 17.389 11.1385 17.0763 11.4513C16.7635 11.764 16.3502 11.9562 15.9095 11.9937C15.4688 12.0312 15.029 11.9117 14.6678 11.6563C14.3067 11.4009 14.0475 11.0261 13.936 10.598C13.8245 10.17 13.8679 9.7163 14.0586 9.31719L12.8086 8.06719C12.7504 8.00917 12.7043 7.94025 12.6728 7.86437C12.6413 7.7885 12.625 7.70715 12.625 7.625V4.8125C12.625 4.72962 12.5921 4.65013 12.5335 4.59153C12.4749 4.53292 12.3954 4.5 12.3125 4.5H9.1875C9.10462 4.5 9.02513 4.53292 8.96653 4.59153C8.90792 4.65013 8.875 4.72962 8.875 4.8125V8.92891L13.6922 13.7453C13.7502 13.8034 13.7962 13.8723 13.8276 13.9482C13.859 14.0241 13.8751 14.1054 13.875 14.1875V19.1875C13.875 19.2704 13.9079 19.3499 13.9665 19.4085C14.0251 19.4671 14.1046 19.5 14.1875 19.5H18.25C18.5815 19.5 18.8995 19.3683 19.1339 19.1339C19.3683 18.8995 19.5 18.5815 19.5 18.25V5.75C19.5 5.41848 19.3683 5.10054 19.1339 4.86612C18.8995 4.6317 18.5815 4.5 18.25 4.5Z" fill="#1E1E1E"/>
</svg>
