<svg width="24" height="24" viewBox="0 0 24 24" fill="none" xmlns="http://www.w3.org/2000/svg">
<path d="M11.375 8.25C11.375 8.86807 11.1917 9.47225 10.8483 9.98616C10.505 10.5001 10.0169 10.9006 9.44589 11.1371C8.87487 11.3736 8.24654 11.4355 7.64034 11.315C7.03415 11.1944 6.47733 10.8967 6.04029 10.4597C5.60325 10.0227 5.30563 9.46585 5.18505 8.85966C5.06447 8.25347 5.12635 7.62513 5.36288 7.05412C5.5994 6.4831 5.99994 5.99504 6.51384 5.65166C7.02775 5.30828 7.63193 5.125 8.25 5.125C9.0788 5.125 9.87366 5.45424 10.4597 6.04029C11.0458 6.62634 11.375 7.4212 11.375 8.25ZM15.75 11.375C16.3681 11.375 16.9723 11.1917 17.4862 10.8483C18.0001 10.505 18.4006 10.0169 18.6371 9.44589C18.8736 8.87487 18.9355 8.24654 18.815 7.64034C18.6944 7.03415 18.3967 6.47733 17.9597 6.04029C17.5227 5.60325 16.9658 5.30563 16.3597 5.18505C15.7535 5.06447 15.1251 5.12635 14.5541 5.36288C13.9831 5.5994 13.495 5.99994 13.1517 6.51384C12.8083 7.02775 12.625 7.63193 12.625 8.25C12.625 9.0788 12.9542 9.87366 13.5403 10.4597C14.1263 11.0458 14.9212 11.375 15.75 11.375ZM8.25 12.625C7.63193 12.625 7.02775 12.8083 6.51384 13.1517C5.99994 13.495 5.5994 13.9831 5.36288 14.5541C5.12635 15.1251 5.06447 15.7535 5.18505 16.3597C5.30563 16.9658 5.60325 17.5227 6.04029 17.9597C6.47733 18.3967 7.03415 18.6944 7.64034 18.815C8.24654 18.9355 8.87487 18.8736 9.44589 18.6371C10.0169 18.4006 10.505 18.0001 10.8483 17.4862C11.1917 16.9723 11.375 16.3681 11.375 15.75C11.375 14.9212 11.0458 14.1263 10.4597 13.5403C9.87366 12.9542 9.0788 12.625 8.25 12.625ZM18.25 15.125H16.375V13.25C16.375 13.0842 16.3092 12.9253 16.1919 12.8081C16.0747 12.6908 15.9158 12.625 15.75 12.625C15.5842 12.625 15.4253 12.6908 15.3081 12.8081C15.1908 12.9253 15.125 13.0842 15.125 13.25V15.125H13.25C13.0842 15.125 12.9253 15.1908 12.8081 15.3081C12.6908 15.4253 12.625 15.5842 12.625 15.75C12.625 15.9158 12.6908 16.0747 12.8081 16.1919C12.9253 16.3092 13.0842 16.375 13.25 16.375H15.125V18.25C15.125 18.4158 15.1908 18.5747 15.3081 18.6919C15.4253 18.8092 15.5842 18.875 15.75 18.875C15.9158 18.875 16.0747 18.8092 16.1919 18.6919C16.3092 18.5747 16.375 18.4158 16.375 18.25V16.375H18.25C18.4158 16.375 18.5747 16.3092 18.6919 16.1919C18.8092 16.0747 18.875 15.9158 18.875 15.75C18.875 15.5842 18.8092 15.4253 18.6919 15.3081C18.5747 15.1908 18.4158 15.125 18.25 15.125Z" fill="#1E1E1E"/>
</svg>
