<svg width="24" height="24" viewBox="0 0 24 24" fill="none" xmlns="http://www.w3.org/2000/svg">
<path d="M8.40003 5.40003C7.80668 5.40003 7.22666 5.57597 6.73332 5.90562C6.23997 6.23526 5.85545 6.7038 5.62839 7.25198C5.40132 7.80015 5.34191 8.40335 5.45767 8.9853C5.57343 9.56724 5.85915 10.1018 6.27871 10.5213C6.69826 10.9409 7.23281 11.2266 7.81476 11.3424C8.3967 11.4581 8.9999 11.3987 9.54808 11.1717C10.0963 10.9446 10.5648 10.5601 10.8944 10.0667C11.2241 9.57339 11.4 8.99337 11.4 8.40003C11.4 7.60438 11.084 6.84131 10.5213 6.27871C9.95874 5.7161 9.19568 5.40003 8.40003 5.40003ZM8.40003 10.2C8.04402 10.2 7.69601 10.0945 7.4 9.89667C7.10399 9.69888 6.87328 9.41776 6.73704 9.08886C6.6008 8.75995 6.56516 8.39803 6.63461 8.04886C6.70407 7.6997 6.8755 7.37897 7.12723 7.12723C7.37897 6.8755 7.6997 6.70407 8.04886 6.63461C8.39803 6.56516 8.75995 6.6008 9.08886 6.73704C9.41776 6.87328 9.69888 7.10399 9.89667 7.4C10.0945 7.69601 10.2 8.04402 10.2 8.40003C10.2 8.87742 10.0104 9.33525 9.67282 9.67282C9.33525 10.0104 8.87742 10.2 8.40003 10.2ZM15.6 11.4C16.1934 11.4 16.7734 11.2241 17.2667 10.8944C17.7601 10.5648 18.1446 10.0963 18.3717 9.54808C18.5987 8.9999 18.6581 8.3967 18.5424 7.81476C18.4266 7.23281 18.1409 6.69826 17.7213 6.27871C17.3018 5.85915 16.7672 5.57343 16.1853 5.45767C15.6034 5.34191 15.0002 5.40132 14.452 5.62839C13.9038 5.85545 13.4353 6.23997 13.1056 6.73332C12.776 7.22666 12.6 7.80668 12.6 8.40003C12.6 9.19568 12.9161 9.95874 13.4787 10.5213C14.0413 11.084 14.8044 11.4 15.6 11.4ZM15.6 6.60003C15.956 6.60003 16.304 6.70559 16.6001 6.90338C16.8961 7.10117 17.1268 7.38229 17.263 7.7112C17.3992 8.0401 17.4349 8.40202 17.3654 8.75119C17.296 9.10035 17.1246 9.42108 16.8728 9.67282C16.6211 9.92455 16.3004 10.096 15.9512 10.1654C15.602 10.2349 15.2401 10.1992 14.9112 10.063C14.5823 9.92677 14.3012 9.69606 14.1034 9.40005C13.9056 9.10404 13.8 8.75603 13.8 8.40003C13.8 7.92264 13.9897 7.4648 14.3272 7.12723C14.6648 6.78967 15.1226 6.60003 15.6 6.60003ZM8.40003 12.6C7.80668 12.6 7.22666 12.776 6.73332 13.1056C6.23997 13.4353 5.85545 13.9038 5.62839 14.452C5.40132 15.0002 5.34191 15.6034 5.45767 16.1853C5.57343 16.7672 5.85915 17.3018 6.27871 17.7213C6.69826 18.1409 7.23281 18.4266 7.81476 18.5424C8.3967 18.6581 8.9999 18.5987 9.54808 18.3717C10.0963 18.1446 10.5648 17.7601 10.8944 17.2667C11.2241 16.7734 11.4 16.1934 11.4 15.6C11.4 14.8044 11.084 14.0413 10.5213 13.4787C9.95874 12.9161 9.19568 12.6 8.40003 12.6ZM8.40003 17.4C8.04402 17.4 7.69601 17.2945 7.4 17.0967C7.10399 16.8989 6.87328 16.6178 6.73704 16.2889C6.6008 15.9599 6.56516 15.598 6.63461 15.2489C6.70407 14.8997 6.8755 14.579 7.12723 14.3272C7.37897 14.0755 7.6997 13.9041 8.04886 13.8346C8.39803 13.7652 8.75995 13.8008 9.08886 13.937C9.41776 14.0733 9.69888 14.304 9.89667 14.6C10.0945 14.896 10.2 15.244 10.2 15.6C10.2 16.0774 10.0104 16.5353 9.67282 16.8728C9.33525 17.2104 8.87742 17.4 8.40003 17.4ZM18.6 15.6C18.6 15.7592 18.5368 15.9118 18.4243 16.0243C18.3118 16.1368 18.1592 16.2 18 16.2H16.2V18C16.2 18.1592 16.1368 18.3118 16.0243 18.4243C15.9118 18.5368 15.7592 18.6 15.6 18.6C15.4409 18.6 15.2883 18.5368 15.1758 18.4243C15.0632 18.3118 15 18.1592 15 18V16.2H13.2C13.0409 16.2 12.8883 16.1368 12.7758 16.0243C12.6632 15.9118 12.6 15.7592 12.6 15.6C12.6 15.4409 12.6632 15.2883 12.7758 15.1758C12.8883 15.0632 13.0409 15 13.2 15H15V13.2C15 13.0409 15.0632 12.8883 15.1758 12.7758C15.2883 12.6632 15.4409 12.6 15.6 12.6C15.7592 12.6 15.9118 12.6632 16.0243 12.7758C16.1368 12.8883 16.2 13.0409 16.2 13.2V15H18C18.1592 15 18.3118 15.0632 18.4243 15.1758C18.5368 15.2883 18.6 15.4409 18.6 15.6Z" fill="#1E1E1E"/>
</svg>
