<svg width="24" height="24" viewBox="0 0 24 24" fill="none" xmlns="http://www.w3.org/2000/svg">
<path d="M9.49996 17.8334C7.87496 17.8334 6.49649 17.2674 5.36454 16.1354C4.2326 15.0035 3.66663 13.625 3.66663 12C3.66663 10.375 4.2326 8.99655 5.36454 7.8646C6.49649 6.73266 7.87496 6.16669 9.49996 6.16669C11.125 6.16669 12.5034 6.73266 13.6354 7.8646C14.7673 8.99655 15.3333 10.375 15.3333 12C15.3333 13.625 14.7673 15.0035 13.6354 16.1354C12.5034 17.2674 11.125 17.8334 9.49996 17.8334ZM15.3333 17.75V16.0834C16.3055 15.8889 17.1041 15.4097 17.7291 14.6459C18.3541 13.882 18.6666 13 18.6666 12C18.6666 11 18.3541 10.1181 17.7291 9.35419C17.1041 8.5903 16.3055 8.11113 15.3333 7.91669V6.25002C16.7777 6.44446 17.9722 7.08683 18.9166 8.1771C19.8611 9.26738 20.3333 10.5417 20.3333 12C20.3333 13.4584 19.8611 14.7327 18.9166 15.8229C17.9722 16.9132 16.7777 17.5556 15.3333 17.75Z" fill="#1E1E1E"/>
</svg>
