<svg width="24" height="24" viewBox="0 0 24 24" fill="none" xmlns="http://www.w3.org/2000/svg">
<path d="M6.16667 19.8C5.70833 19.8 5.31597 19.6368 4.98958 19.3104C4.66319 18.984 4.5 18.5916 4.5 18.1333V6.46663C4.5 6.0083 4.66319 5.61594 4.98958 5.28955C5.31597 4.96316 5.70833 4.79997 6.16667 4.79997H9.64583C9.79861 4.31386 10.0972 3.91455 10.5417 3.60205C10.9861 3.28955 11.4722 3.1333 12 3.1333C12.5556 3.1333 13.0521 3.28955 13.4896 3.60205C13.9271 3.91455 14.2222 4.31386 14.375 4.79997H17.8333C18.2917 4.79997 18.684 4.96316 19.0104 5.28955C19.3368 5.61594 19.5 6.0083 19.5 6.46663V18.1333C19.5 18.5916 19.3368 18.984 19.0104 19.3104C18.684 19.6368 18.2917 19.8 17.8333 19.8H6.16667ZM6.16667 18.1333H17.8333V6.46663H16.1667V8.96663H7.83333V6.46663H6.16667V18.1333ZM12 6.46663C12.2361 6.46663 12.434 6.38677 12.5938 6.22705C12.7535 6.06733 12.8333 5.86941 12.8333 5.6333C12.8333 5.39719 12.7535 5.19927 12.5938 5.03955C12.434 4.87983 12.2361 4.79997 12 4.79997C11.7639 4.79997 11.566 4.87983 11.4062 5.03955C11.2465 5.19927 11.1667 5.39719 11.1667 5.6333C11.1667 5.86941 11.2465 6.06733 11.4062 6.22705C11.566 6.38677 11.7639 6.46663 12 6.46663Z" fill="#1E1E1E"/>
</svg>
