<svg width="24" height="24" viewBox="0 0 24 24" fill="none" xmlns="http://www.w3.org/2000/svg">
<path d="M15 13.8C15 13.9591 14.9368 14.1117 14.8243 14.2243C14.7118 14.3368 14.5592 14.4 14.4 14.4H9.60002C9.44089 14.4 9.28828 14.3368 9.17576 14.2243C9.06324 14.1117 9.00002 13.9591 9.00002 13.8C9.00002 13.6409 9.06324 13.4882 9.17576 13.3757C9.28828 13.2632 9.44089 13.2 9.60002 13.2H14.4C14.5592 13.2 14.7118 13.2632 14.8243 13.3757C14.9368 13.4882 15 13.6409 15 13.8ZM14.4 10.8H9.60002C9.44089 10.8 9.28828 10.8632 9.17576 10.9757C9.06324 11.0882 9.00002 11.2409 9.00002 11.4C9.00002 11.5591 9.06324 11.7117 9.17576 11.8243C9.28828 11.9368 9.44089 12 9.60002 12H14.4C14.5592 12 14.7118 11.9368 14.8243 11.8243C14.9368 11.7117 15 11.5591 15 11.4C15 11.2409 14.9368 11.0882 14.8243 10.9757C14.7118 10.8632 14.5592 10.8 14.4 10.8ZM18.6 5.99999V18.6C18.6 18.9182 18.4736 19.2235 18.2486 19.4485C18.0235 19.6736 17.7183 19.8 17.4 19.8H6.60002C6.28176 19.8 5.97654 19.6736 5.7515 19.4485C5.52645 19.2235 5.40002 18.9182 5.40002 18.6V5.99999C5.40002 5.68173 5.52645 5.3765 5.7515 5.15146C5.97654 4.92642 6.28176 4.79999 6.60002 4.79999H9.31952C9.65665 4.42253 10.0697 4.12053 10.5316 3.91376C10.9935 3.70698 11.4939 3.6001 12 3.6001C12.5061 3.6001 13.0065 3.70698 13.4684 3.91376C13.9303 4.12053 14.3434 4.42253 14.6805 4.79999H17.4C17.7183 4.79999 18.0235 4.92642 18.2486 5.15146C18.4736 5.3765 18.6 5.68173 18.6 5.99999ZM9.60002 7.19999H14.4C14.4 6.56347 14.1472 5.95302 13.6971 5.50293C13.247 5.05285 12.6365 4.79999 12 4.79999C11.3635 4.79999 10.7531 5.05285 10.303 5.50293C9.85288 5.95302 9.60002 6.56347 9.60002 7.19999ZM17.4 5.99999H15.3938C15.5303 6.38535 15.6 6.79117 15.6 7.19999V7.79999C15.6 7.95912 15.5368 8.11173 15.4243 8.22425C15.3118 8.33677 15.1592 8.39999 15 8.39999H9.00002C8.84089 8.39999 8.68828 8.33677 8.57576 8.22425C8.46324 8.11173 8.40002 7.95912 8.40002 7.79999V7.19999C8.40004 6.79117 8.46979 6.38535 8.60627 5.99999H6.60002V18.6H17.4V5.99999Z" fill="#1E1E1E"/>
</svg>
