<svg width="24" height="24" viewBox="0 0 24 24" fill="none" xmlns="http://www.w3.org/2000/svg">
<path d="M14.7083 6.16675C14.4166 6.16675 14.1701 6.06605 13.9687 5.86466C13.7673 5.66328 13.6666 5.41675 13.6666 5.12508C13.6666 4.83341 13.7673 4.58689 13.9687 4.3855C14.1701 4.18411 14.4166 4.08341 14.7083 4.08341C15 4.08341 15.2465 4.18411 15.4479 4.3855C15.6493 4.58689 15.75 4.83341 15.75 5.12508C15.75 5.41675 15.6493 5.66328 15.4479 5.86466C15.2465 6.06605 15 6.16675 14.7083 6.16675ZM14.7083 19.9167C14.4166 19.9167 14.1701 19.8161 13.9687 19.6147C13.7673 19.4133 13.6666 19.1667 13.6666 18.8751C13.6666 18.5834 13.7673 18.3369 13.9687 18.1355C14.1701 17.9341 14.4166 17.8334 14.7083 17.8334C15 17.8334 15.2465 17.9341 15.4479 18.1355C15.6493 18.3369 15.75 18.5834 15.75 18.8751C15.75 19.1667 15.6493 19.4133 15.4479 19.6147C15.2465 19.8161 15 19.9167 14.7083 19.9167ZM18.0416 9.08341C17.75 9.08341 17.5034 8.98272 17.302 8.78133C17.1007 8.57994 17 8.33341 17 8.04175C17 7.75008 17.1007 7.50355 17.302 7.30216C17.5034 7.10078 17.75 7.00008 18.0416 7.00008C18.3333 7.00008 18.5798 7.10078 18.7812 7.30216C18.9826 7.50355 19.0833 7.75008 19.0833 8.04175C19.0833 8.33341 18.9826 8.57994 18.7812 8.78133C18.5798 8.98272 18.3333 9.08341 18.0416 9.08341ZM18.0416 17.0001C17.75 17.0001 17.5034 16.8994 17.302 16.698C17.1007 16.4966 17 16.2501 17 15.9584C17 15.6667 17.1007 15.4202 17.302 15.2188C17.5034 15.0174 17.75 14.9167 18.0416 14.9167C18.3333 14.9167 18.5798 15.0174 18.7812 15.2188C18.9826 15.4202 19.0833 15.6667 19.0833 15.9584C19.0833 16.2501 18.9826 16.4966 18.7812 16.698C18.5798 16.8994 18.3333 17.0001 18.0416 17.0001ZM19.2916 13.0417C19 13.0417 18.7534 12.9411 18.552 12.7397C18.3507 12.5383 18.25 12.2917 18.25 12.0001C18.25 11.7084 18.3507 11.4619 18.552 11.2605C18.7534 11.0591 19 10.9584 19.2916 10.9584C19.5833 10.9584 19.8298 11.0591 20.0312 11.2605C20.2326 11.4619 20.3333 11.7084 20.3333 12.0001C20.3333 12.2917 20.2326 12.5383 20.0312 12.7397C19.8298 12.9411 19.5833 13.0417 19.2916 13.0417ZM12 20.3334C10.8472 20.3334 9.76385 20.1147 8.74996 19.6772C7.73607 19.2397 6.85413 18.6459 6.10413 17.8959C5.35413 17.1459 4.76038 16.264 4.32288 15.2501C3.88538 14.2362 3.66663 13.1529 3.66663 12.0001C3.66663 10.8473 3.88538 9.76397 4.32288 8.75008C4.76038 7.73619 5.35413 6.85425 6.10413 6.10425C6.85413 5.35425 7.73607 4.7605 8.74996 4.323C9.76385 3.8855 10.8472 3.66675 12 3.66675V5.33341C10.1388 5.33341 8.56246 5.97925 7.27079 7.27091C5.97913 8.56258 5.33329 10.139 5.33329 12.0001C5.33329 13.8612 5.97913 15.4376 7.27079 16.7292C8.56246 18.0209 10.1388 18.6667 12 18.6667V20.3334ZM14.75 15.9167L11.1666 12.3334V7.83341H12.8333V11.6667L15.9166 14.7501L14.75 15.9167Z" fill="#1E1E1E"/>
</svg>
