<svg width="24" height="24" viewBox="0 0 24 24" fill="none" xmlns="http://www.w3.org/2000/svg">
<path d="M14.75 15.9167L15.9166 14.7501L12.8333 11.6667V7.83341H11.1666V12.3334L14.75 15.9167ZM12 20.3334C10.8472 20.3334 9.76385 20.1147 8.74996 19.6772C7.73607 19.2397 6.85413 18.6459 6.10413 17.8959C5.35413 17.1459 4.76038 16.264 4.32288 15.2501C3.88538 14.2362 3.66663 13.1529 3.66663 12.0001C3.66663 10.8473 3.88538 9.76397 4.32288 8.75008C4.76038 7.73619 5.35413 6.85425 6.10413 6.10425C6.85413 5.35425 7.73607 4.7605 8.74996 4.323C9.76385 3.8855 10.8472 3.66675 12 3.66675C13.1527 3.66675 14.2361 3.8855 15.25 4.323C16.2638 4.7605 17.1458 5.35425 17.8958 6.10425C18.6458 6.85425 19.2395 7.73619 19.677 8.75008C20.1145 9.76397 20.3333 10.8473 20.3333 12.0001C20.3333 13.1529 20.1145 14.2362 19.677 15.2501C19.2395 16.264 18.6458 17.1459 17.8958 17.8959C17.1458 18.6459 16.2638 19.2397 15.25 19.6772C14.2361 20.1147 13.1527 20.3334 12 20.3334Z" fill="#1E1E1E"/>
</svg>
