<svg width="24" height="24" viewBox="0 0 24 24" fill="none" xmlns="http://www.w3.org/2000/svg">
<path d="M12.6 8.39995V11.6602L15.309 13.2854C15.4455 13.3674 15.5438 13.5002 15.5823 13.6546C15.6209 13.8091 15.5965 13.9725 15.5145 14.1089C15.4326 14.2454 15.2998 14.3437 15.1453 14.3823C14.9909 14.4208 14.8275 14.3964 14.691 14.3144L11.691 12.5144C11.6022 12.4611 11.5288 12.3857 11.4778 12.2955C11.4268 12.2054 11.4 12.1035 11.4 11.9999V8.39995C11.4 8.24082 11.4632 8.08821 11.5757 7.97569C11.6883 7.86316 11.8409 7.79995 12 7.79995C12.1591 7.79995 12.3118 7.86316 12.4243 7.97569C12.5368 8.08821 12.6 8.24082 12.6 8.39995ZM12 4.79995C11.0535 4.79759 10.1159 4.98297 9.24155 5.34537C8.36717 5.70776 7.57334 6.23997 6.90601 6.9112C6.36076 7.4632 5.87626 7.9942 5.40001 8.54995V7.19995C5.40001 7.04082 5.3368 6.88821 5.22428 6.77569C5.11175 6.66316 4.95914 6.59995 4.80001 6.59995C4.64088 6.59995 4.48827 6.66316 4.37575 6.77569C4.26323 6.88821 4.20001 7.04082 4.20001 7.19995V10.1999C4.20001 10.3591 4.26323 10.5117 4.37575 10.6242C4.48827 10.7367 4.64088 10.7999 4.80001 10.7999H7.80001C7.95914 10.7999 8.11175 10.7367 8.22428 10.6242C8.3368 10.5117 8.40001 10.3591 8.40001 10.1999C8.40001 10.0408 8.3368 9.88821 8.22428 9.77569C8.11175 9.66316 7.95914 9.59995 7.80001 9.59995H6.07501C6.61126 8.96845 7.14526 8.3737 7.75426 7.7572C8.58815 6.92331 9.64929 6.35366 10.8051 6.11941C11.9609 5.88516 13.1601 5.99671 14.2528 6.44011C15.3456 6.88352 16.2835 7.63912 16.9493 8.61251C17.615 9.58589 17.9792 10.7339 17.9963 11.9131C18.0133 13.0922 17.6825 14.2503 17.0452 15.2425C16.4078 16.2348 15.4922 17.0172 14.4127 17.492C13.3332 17.9668 12.1378 18.113 10.9757 17.9123C9.8136 17.7116 8.73643 17.1729 7.87876 16.3634C7.82144 16.3093 7.75401 16.2669 7.68032 16.2388C7.60663 16.2107 7.52813 16.1974 7.44929 16.1996C7.37045 16.2018 7.29283 16.2196 7.22085 16.2518C7.14886 16.284 7.08393 16.3301 7.02976 16.3874C6.97559 16.4448 6.93324 16.5122 6.90513 16.5859C6.87702 16.6596 6.8637 16.7381 6.86593 16.8169C6.86816 16.8958 6.88589 16.9734 6.91812 17.0454C6.95035 17.1173 6.99644 17.1823 7.05376 17.2364C7.90835 18.0429 8.94733 18.6279 10.08 18.9405C11.2127 19.2531 12.4047 19.2837 13.5519 19.0297C14.6992 18.7756 15.7668 18.2447 16.6616 17.4832C17.5565 16.7216 18.2514 15.7526 18.6856 14.6608C19.1199 13.569 19.2803 12.3874 19.1529 11.2193C19.0255 10.0512 18.6141 8.93207 17.9548 7.9595C17.2954 6.98693 16.408 6.19053 15.37 5.63979C14.332 5.08905 13.175 4.80071 12 4.79995Z" fill="#1E1E1E"/>
</svg>
