<svg width="24" height="24" viewBox="0 0 24 24" fill="none" xmlns="http://www.w3.org/2000/svg">
<path d="M10.625 16.1667L15.3334 11.4584L14.125 10.25L10.6042 13.7709L8.85421 12.0209L7.66671 13.2084L10.625 16.1667ZM7.41671 18.6667C6.15282 18.6667 5.07296 18.2292 4.17712 17.3542C3.28129 16.4792 2.83337 15.4098 2.83337 14.1459C2.83337 13.0625 3.15976 12.0973 3.81254 11.25C4.46532 10.4028 5.31949 9.86115 6.37504 9.62504C6.72226 8.34726 7.41671 7.31254 8.45837 6.52087C9.50004 5.72921 10.6806 5.33337 12 5.33337C13.625 5.33337 15.0035 5.89935 16.1355 7.03129C17.2674 8.16324 17.8334 9.54171 17.8334 11.1667C18.7917 11.2778 19.5868 11.691 20.2188 12.4063C20.8507 13.1216 21.1667 13.9584 21.1667 14.9167C21.1667 15.9584 20.8021 16.8438 20.073 17.573C19.3438 18.3021 18.4584 18.6667 17.4167 18.6667H7.41671Z" fill="#1E1E1E"/>
</svg>
