<svg width="24" height="24" viewBox="0 0 24 24" fill="none" xmlns="http://www.w3.org/2000/svg">
<path d="M12 20.3334C10.8611 20.3334 9.78468 20.1146 8.77079 19.6771C7.7569 19.2396 6.87149 18.6424 6.11454 17.8854C5.3576 17.1285 4.76038 16.2431 4.32288 15.2292C3.88538 14.2153 3.66663 13.1389 3.66663 12C3.66663 10.8472 3.89232 9.76391 4.34371 8.75002C4.7951 7.73613 5.40621 6.85419 6.17704 6.10419C6.94788 5.35419 7.84718 4.76044 8.87496 4.32294C9.90274 3.88544 11 3.66669 12.1666 3.66669C13.2777 3.66669 14.3263 3.85766 15.3125 4.2396C16.2986 4.62155 17.1632 5.14933 17.9062 5.82294C18.6493 6.49655 19.2395 7.29516 19.677 8.21877C20.1145 9.14238 20.3333 10.1389 20.3333 11.2084C20.3333 12.8056 19.8472 14.0313 18.875 14.8854C17.9027 15.7396 16.7222 16.1667 15.3333 16.1667H13.7916C13.6666 16.1667 13.5798 16.2014 13.5312 16.2709C13.4826 16.3403 13.4583 16.4167 13.4583 16.5C13.4583 16.6667 13.5625 16.9063 13.7708 17.2188C13.9791 17.5313 14.0833 17.8889 14.0833 18.2917C14.0833 18.9861 13.8923 19.5 13.5104 19.8334C13.1284 20.1667 12.625 20.3334 12 20.3334ZM7.41663 12.8334C7.77774 12.8334 8.07635 12.7153 8.31246 12.4792C8.54857 12.2431 8.66663 11.9445 8.66663 11.5834C8.66663 11.2222 8.54857 10.9236 8.31246 10.6875C8.07635 10.4514 7.77774 10.3334 7.41663 10.3334C7.05551 10.3334 6.7569 10.4514 6.52079 10.6875C6.28468 10.9236 6.16663 11.2222 6.16663 11.5834C6.16663 11.9445 6.28468 12.2431 6.52079 12.4792C6.7569 12.7153 7.05551 12.8334 7.41663 12.8334ZM9.91663 9.50002C10.2777 9.50002 10.5763 9.38197 10.8125 9.14585C11.0486 8.90974 11.1666 8.61113 11.1666 8.25002C11.1666 7.88891 11.0486 7.5903 10.8125 7.35419C10.5763 7.11808 10.2777 7.00002 9.91663 7.00002C9.55551 7.00002 9.2569 7.11808 9.02079 7.35419C8.78468 7.5903 8.66663 7.88891 8.66663 8.25002C8.66663 8.61113 8.78468 8.90974 9.02079 9.14585C9.2569 9.38197 9.55551 9.50002 9.91663 9.50002ZM14.0833 9.50002C14.4444 9.50002 14.743 9.38197 14.9791 9.14585C15.2152 8.90974 15.3333 8.61113 15.3333 8.25002C15.3333 7.88891 15.2152 7.5903 14.9791 7.35419C14.743 7.11808 14.4444 7.00002 14.0833 7.00002C13.7222 7.00002 13.4236 7.11808 13.1875 7.35419C12.9513 7.5903 12.8333 7.88891 12.8333 8.25002C12.8333 8.61113 12.9513 8.90974 13.1875 9.14585C13.4236 9.38197 13.7222 9.50002 14.0833 9.50002ZM16.5833 12.8334C16.9444 12.8334 17.243 12.7153 17.4791 12.4792C17.7152 12.2431 17.8333 11.9445 17.8333 11.5834C17.8333 11.2222 17.7152 10.9236 17.4791 10.6875C17.243 10.4514 16.9444 10.3334 16.5833 10.3334C16.2222 10.3334 15.9236 10.4514 15.6875 10.6875C15.4513 10.9236 15.3333 11.2222 15.3333 11.5834C15.3333 11.9445 15.4513 12.2431 15.6875 12.4792C15.9236 12.7153 16.2222 12.8334 16.5833 12.8334Z" fill="#1E1E1E"/>
</svg>
