<svg width="24" height="24" viewBox="0 0 24 24" fill="none" xmlns="http://www.w3.org/2000/svg">
<path d="M5.33337 17C4.87504 17 4.48268 16.8368 4.15629 16.5104C3.8299 16.184 3.66671 15.7917 3.66671 15.3333V6.16667C3.66671 5.70833 3.8299 5.31597 4.15629 4.98958C4.48268 4.66319 4.87504 4.5 5.33337 4.5H18.6667C19.125 4.5 19.5174 4.66319 19.8438 4.98958C20.1702 5.31597 20.3334 5.70833 20.3334 6.16667V15.3333C20.3334 15.7917 20.1702 16.184 19.8438 16.5104C19.5174 16.8368 19.125 17 18.6667 17H5.33337ZM2.83337 19.5V17.8333H21.1667V19.5H2.83337Z" fill="#1E1E1E"/>
</svg>
