<svg width="24" height="24" viewBox="0 0 24 24" fill="none" xmlns="http://www.w3.org/2000/svg">
<path d="M18.8062 11.6594C18.8465 11.5861 18.8716 11.5054 18.8801 11.4222C18.8887 11.339 18.8804 11.255 18.8558 11.175C18.8313 11.0951 18.7909 11.0209 18.7372 10.9568C18.6834 10.8927 18.6173 10.8401 18.5429 10.802C18.4684 10.764 18.3871 10.7412 18.3037 10.7352C18.2202 10.7291 18.1365 10.7399 18.0573 10.7668C17.9781 10.7937 17.9051 10.8362 17.8427 10.8918C17.7802 10.9475 17.7296 11.0151 17.6937 11.0906C17.1159 12.2037 16.215 13.116 15.1093 13.7078L13.6843 10.5008C14.1136 10.179 14.4419 9.74126 14.6305 9.23905C14.8191 8.73684 14.8602 8.19117 14.7488 7.6664C14.6375 7.14162 14.3783 6.65965 14.002 6.27732C13.6257 5.89499 13.1479 5.62826 12.625 5.50859V3.875C12.625 3.70924 12.5591 3.55027 12.4419 3.43306C12.3247 3.31585 12.1657 3.25 12 3.25C11.8342 3.25 11.6752 3.31585 11.558 3.43306C11.4408 3.55027 11.375 3.70924 11.375 3.875V5.50859C10.852 5.62826 10.3742 5.89499 9.99791 6.27732C9.62159 6.65965 9.36248 7.14162 9.25112 7.6664C9.13976 8.19117 9.1808 8.73684 9.36941 9.23905C9.55802 9.74126 9.88632 10.179 10.3156 10.5008L6.42887 19.2461C6.39508 19.3212 6.37645 19.4022 6.37405 19.4844C6.37164 19.5667 6.38552 19.6487 6.41489 19.7256C6.44425 19.8025 6.48852 19.8729 6.54514 19.9326C6.60177 19.9924 6.66965 20.0403 6.74487 20.0738C6.82009 20.1072 6.90118 20.1255 6.98348 20.1275C7.06578 20.1295 7.14766 20.1152 7.22443 20.0855C7.3012 20.0558 7.37134 20.0112 7.43083 19.9543C7.49031 19.8974 7.53797 19.8293 7.57106 19.7539L9.53512 15.3352C10.3276 15.6111 11.1609 15.7513 12 15.75C12.8395 15.749 13.6733 15.6116 14.4687 15.343L16.4289 19.7539C16.4967 19.9046 16.6215 20.0223 16.7759 20.0812C16.9302 20.1402 17.1017 20.1356 17.2527 20.0684C17.4037 20.0013 17.522 19.8771 17.5816 19.723C17.6413 19.5689 17.6375 19.3974 17.5711 19.2461L15.6179 14.8516C16.9837 14.1407 18.0971 13.026 18.8062 11.6594ZM12 14.5C11.3364 14.5008 10.677 14.3953 10.0468 14.1875L11.4593 11.0094C11.8173 11.0802 12.1857 11.0802 12.5437 11.0094L13.9609 14.1969C13.3266 14.3977 12.6653 14.4999 12 14.5Z" fill="#1E1E1E"/>
</svg>
