<svg width="24" height="24" viewBox="0 0 24 24" fill="none" xmlns="http://www.w3.org/2000/svg">
<path d="M20.125 18.25H18.6945L13.9859 4.71484C13.9008 4.4696 13.7413 4.25697 13.5298 4.10647C13.3182 3.95597 13.0651 3.87507 12.8055 3.875H11.1945C10.935 3.87501 10.6819 3.9558 10.4704 4.10615C10.2589 4.2565 10.0994 4.46897 10.0141 4.71406L5.30547 18.25H3.875C3.70924 18.25 3.55027 18.3158 3.43306 18.4331C3.31585 18.5503 3.25 18.7092 3.25 18.875C3.25 19.0408 3.31585 19.1997 3.43306 19.3169C3.55027 19.4342 3.70924 19.5 3.875 19.5H20.125C20.2908 19.5 20.4497 19.4342 20.5669 19.3169C20.6842 19.1997 20.75 19.0408 20.75 18.875C20.75 18.7092 20.6842 18.5503 20.5669 18.4331C20.4497 18.3158 20.2908 18.25 20.125 18.25ZM9.45547 10.125H14.5445L15.8492 13.875H8.15078L9.45547 10.125Z" fill="#1E1E1E"/>
</svg>
