<svg width="24" height="24" viewBox="0 0 24 24" fill="none" xmlns="http://www.w3.org/2000/svg">
<path d="M10.7102 6.11172C10.5634 5.96531 10.3821 5.85824 10.183 5.80037C9.98395 5.74251 9.7735 5.73572 9.5711 5.78064C9.3687 5.82556 9.18087 5.92073 9.02495 6.05738C8.86903 6.19402 8.75004 6.36774 8.67896 6.5625L4.57818 17.8422C4.51082 18.0282 4.48906 18.2276 4.51473 18.4238C4.5404 18.62 4.61276 18.8071 4.72572 18.9695C4.83869 19.1319 4.98897 19.2649 5.16394 19.3572C5.33892 19.4495 5.53348 19.4985 5.73131 19.5C5.87696 19.499 6.02132 19.4726 6.15787 19.4219L17.4368 15.3203C17.6316 15.2493 17.8054 15.1304 17.9421 14.9745C18.0789 14.8186 18.1741 14.6308 18.2191 14.4284C18.2641 14.226 18.2574 14.0155 18.1996 13.8164C18.1418 13.6173 18.0347 13.4359 17.8883 13.2891L10.7102 6.11172ZM7.08912 14.5883L8.58912 10.4641L13.536 15.4109L9.411 16.9109L7.08912 14.5883ZM14.5001 7.625C14.5118 7.20248 14.6141 6.7874 14.8001 6.40781C15.2141 5.58047 15.9954 5.125 17.0001 5.125C17.5235 5.125 17.8594 4.94609 18.0665 4.56172C18.1755 4.34668 18.238 4.11111 18.2501 3.87031C18.2507 3.70455 18.3171 3.54583 18.4348 3.42906C18.5524 3.31229 18.7116 3.24703 18.8774 3.24766C19.0432 3.24828 19.2019 3.31472 19.3187 3.43237C19.4354 3.55002 19.5007 3.70924 19.5001 3.875C19.5001 4.87969 18.8344 6.375 17.0001 6.375C16.4766 6.375 16.1407 6.55391 15.9337 6.93828C15.8246 7.15332 15.7621 7.38889 15.7501 7.62969C15.7497 7.71176 15.7333 7.79298 15.7016 7.86869C15.6699 7.9444 15.6236 8.01312 15.5653 8.07094C15.5071 8.12876 15.438 8.17454 15.3621 8.20567C15.2861 8.23679 15.2048 8.25265 15.1227 8.25234C15.0406 8.25204 14.9594 8.23556 14.8837 8.20387C14.808 8.17218 14.7393 8.12588 14.6815 8.06763C14.6236 8.00937 14.5779 7.9403 14.5467 7.86436C14.5156 7.78841 14.4998 7.70708 14.5001 7.625ZM12.6251 5.125V3.25C12.6251 3.08424 12.6909 2.92527 12.8081 2.80806C12.9253 2.69085 13.0843 2.625 13.2501 2.625C13.4158 2.625 13.5748 2.69085 13.692 2.80806C13.8092 2.92527 13.8751 3.08424 13.8751 3.25V5.125C13.8751 5.29076 13.8092 5.44973 13.692 5.56694C13.5748 5.68415 13.4158 5.75 13.2501 5.75C13.0843 5.75 12.9253 5.68415 12.8081 5.56694C12.6909 5.44973 12.6251 5.29076 12.6251 5.125ZM20.5672 11.5578C20.6253 11.6159 20.6713 11.6848 20.7027 11.7607C20.734 11.8365 20.7502 11.9178 20.7501 11.9999C20.7501 12.082 20.7339 12.1632 20.7024 12.2391C20.671 12.3149 20.6249 12.3838 20.5669 12.4418C20.5088 12.4998 20.4399 12.5458 20.364 12.5772C20.2882 12.6086 20.2069 12.6247 20.1248 12.6247C20.0427 12.6246 19.9614 12.6084 19.8856 12.577C19.8098 12.5455 19.7409 12.4995 19.6829 12.4414L18.4329 11.1914C18.3156 11.0741 18.2497 10.9151 18.2497 10.7492C18.2497 10.5834 18.3156 10.4243 18.4329 10.307C18.5501 10.1898 18.7092 10.1239 18.8751 10.1239C19.0409 10.1239 19.2 10.1898 19.3172 10.307L20.5672 11.5578ZM20.9477 8.21797L19.0727 8.84297C18.9154 8.89539 18.7438 8.88319 18.5955 8.80906C18.4473 8.73492 18.3345 8.60492 18.2821 8.44766C18.2297 8.29039 18.2419 8.11874 18.316 7.97047C18.3901 7.8222 18.5201 7.70945 18.6774 7.65703L20.5524 7.03203C20.7097 6.97961 20.8813 6.99181 21.0296 7.06594C21.1779 7.14008 21.2906 7.27008 21.343 7.42734C21.3954 7.58461 21.3832 7.75626 21.3091 7.90453C21.235 8.0528 21.105 8.16555 20.9477 8.21797Z" fill="#1E1E1E"/>
</svg>
