<svg width="24" height="24" viewBox="0 0 24 24" fill="none" xmlns="http://www.w3.org/2000/svg">
<path d="M19.5 11.375C18.6712 11.375 17.8763 11.0458 17.2903 10.4597C16.7042 9.87366 16.375 9.0788 16.375 8.25C16.375 8.08424 16.3092 7.92527 16.1919 7.80806C16.0747 7.69085 15.9158 7.625 15.75 7.625C14.9212 7.625 14.1263 7.29576 13.5403 6.70971C12.9542 6.12366 12.625 5.3288 12.625 4.5C12.625 4.33424 12.5592 4.17527 12.4419 4.05806C12.3247 3.94085 12.1658 3.875 12 3.875C10.393 3.875 8.82214 4.35152 7.486 5.24431C6.14985 6.1371 5.10844 7.40605 4.49348 8.8907C3.87852 10.3753 3.71762 12.009 4.03112 13.5851C4.34463 15.1612 5.11846 16.6089 6.25476 17.7452C7.39106 18.8815 8.8388 19.6554 10.4149 19.9689C11.991 20.2824 13.6247 20.1215 15.1093 19.5065C16.594 18.8916 17.8629 17.8502 18.7557 16.514C19.6485 15.1779 20.125 13.607 20.125 12C20.125 11.8342 20.0592 11.6753 19.9419 11.5581C19.8247 11.4408 19.6658 11.375 19.5 11.375ZM7.89922 9.77422C8.03046 9.64343 8.19752 9.55447 8.37928 9.51856C8.56105 9.48265 8.74938 9.5014 8.9205 9.57246C9.09162 9.64351 9.23784 9.76367 9.34071 9.91777C9.44358 10.0719 9.49848 10.253 9.49848 10.4383C9.49848 10.6236 9.44358 10.8047 9.34071 10.9588C9.23784 11.1129 9.09162 11.2331 8.9205 11.3041C8.74938 11.3752 8.56105 11.3939 8.37928 11.358C8.19752 11.3221 8.03046 11.2331 7.89922 11.1023C7.81182 11.0152 7.74248 10.9118 7.69516 10.7978C7.64784 10.6838 7.62348 10.5617 7.62348 10.4383C7.62348 10.3149 7.64784 10.1927 7.69516 10.0788C7.74248 9.96481 7.81182 9.86132 7.89922 9.77422ZM9.85235 15.4773C9.72111 15.6081 9.55405 15.6971 9.37229 15.733C9.19052 15.7689 9.00218 15.7502 8.83107 15.6791C8.65995 15.6081 8.51373 15.4879 8.41086 15.3338C8.30799 15.1797 8.25309 14.9986 8.25309 14.8133C8.25309 14.628 8.30799 14.4469 8.41086 14.2928C8.51373 14.1387 8.65995 14.0185 8.83107 13.9475C9.00218 13.8764 9.19052 13.8576 9.37229 13.8936C9.55405 13.9295 9.72111 14.0184 9.85235 14.1492C9.93941 14.2364 10.0084 14.3399 10.0555 14.4537C10.1025 14.5676 10.1267 14.6896 10.1265 14.8128C10.1264 14.936 10.1019 15.058 10.0546 15.1717C10.0073 15.2855 9.93805 15.3888 9.85078 15.4758L9.85235 15.4773ZM11.6492 12.3523C11.5184 12.2211 11.4295 12.0541 11.3936 11.8723C11.3577 11.6905 11.3764 11.5022 11.4475 11.3311C11.5185 11.1599 11.6387 11.0137 11.7928 10.9109C11.9469 10.808 12.128 10.7531 12.3133 10.7531C12.4986 10.7531 12.6797 10.808 12.8338 10.9109C12.9879 11.0137 13.1081 11.1599 13.1791 11.3311C13.2502 11.5022 13.2689 11.6905 13.233 11.8723C13.1971 12.0541 13.1081 12.2211 12.9773 12.3523C12.8901 12.4396 12.7866 12.5089 12.6726 12.5561C12.5586 12.6032 12.4363 12.6274 12.313 12.6273C12.1896 12.6272 12.0674 12.6027 11.9535 12.5552C11.8396 12.5078 11.7362 12.4383 11.6492 12.3508V12.3523ZM14.8523 16.1023C14.7211 16.2331 14.5541 16.3221 14.3723 16.358C14.1905 16.3939 14.0022 16.3752 13.8311 16.3041C13.66 16.2331 13.5137 16.1129 13.4109 15.9588C13.308 15.8047 13.2531 15.6236 13.2531 15.4383C13.2531 15.253 13.308 15.0719 13.4109 14.9178C13.5137 14.7637 13.66 14.6435 13.8311 14.5725C14.0022 14.5014 14.1905 14.4826 14.3723 14.5186C14.5541 14.5545 14.7211 14.6434 14.8523 14.7742C14.9394 14.8614 15.0084 14.9649 15.0555 15.0787C15.1025 15.1926 15.1267 15.3146 15.1265 15.4378C15.1264 15.561 15.1019 15.683 15.0546 15.7967C15.0073 15.9105 14.9381 16.0138 14.8508 16.1008L14.8523 16.1023Z" fill="#1E1E1E"/>
</svg>
