<svg width="24" height="24" viewBox="0 0 24 24" fill="none" xmlns="http://www.w3.org/2000/svg">
<path d="M8.73498 15.28C9.06498 15.61 9.45498 15.77 9.91498 15.77V15.78H17.415C17.875 15.78 18.265 15.62 18.595 15.29C18.925 14.96 19.085 14.57 19.085 14.11V6.56001C19.085 6.10001 18.925 5.71001 18.595 5.38001C18.265 5.05001 17.875 4.89001 17.415 4.89001H9.91498C9.45498 4.89001 9.06498 5.05001 8.73498 5.38001C8.40498 5.71001 8.24498 6.10001 8.24498 6.56001V14.1C8.24498 14.56 8.40498 14.95 8.73498 15.28Z" fill="#1E1E1E"/>
<path d="M5.40498 18.62C5.73498 18.95 6.12498 19.11 6.58498 19.11H15.755V17.44H6.58498V8.22001H4.91498V17.44C4.91498 17.9 5.07498 18.29 5.40498 18.62Z" fill="#1E1E1E"/>
</svg>
