<svg width="24" height="24" viewBox="0 0 24 24" fill="none" xmlns="http://www.w3.org/2000/svg">
<path d="M18.6 4.80005H8.99999C8.84086 4.80005 8.68825 4.86326 8.57572 4.97578C8.4632 5.08831 8.39999 5.24092 8.39999 5.40005V8.40005H5.39999C5.24086 8.40005 5.08825 8.46326 4.97572 8.57578C4.8632 8.68831 4.79999 8.84092 4.79999 9.00005V18.6C4.79999 18.7592 4.8632 18.9118 4.97572 19.0243C5.08825 19.1368 5.24086 19.2 5.39999 19.2H15C15.1591 19.2 15.3117 19.1368 15.4243 19.0243C15.5368 18.9118 15.6 18.7592 15.6 18.6V15.6H18.6C18.7591 15.6 18.9117 15.5368 19.0243 15.4243C19.1368 15.3118 19.2 15.1592 19.2 15V5.40005C19.2 5.24092 19.1368 5.08831 19.0243 4.97578C18.9117 4.86326 18.7591 4.80005 18.6 4.80005ZM14.4 18H5.99999V9.60005H14.4V18ZM18 14.4H15.6V9.00005C15.6 8.84092 15.5368 8.68831 15.4243 8.57578C15.3117 8.46326 15.1591 8.40005 15 8.40005H9.59999V6.00005H18V14.4Z" fill="#1E1E1E"/>
</svg>
