<svg width="24" height="24" viewBox="0 0 24 24" fill="none" xmlns="http://www.w3.org/2000/svg">
<path d="M19.5 5.75H4.5C4.16848 5.75 3.85054 5.8817 3.61612 6.11612C3.3817 6.35054 3.25 6.66848 3.25 7V17C3.25 17.3315 3.3817 17.6495 3.61612 17.8839C3.85054 18.1183 4.16848 18.25 4.5 18.25H19.5C19.8315 18.25 20.1495 18.1183 20.3839 17.8839C20.6183 17.6495 20.75 17.3315 20.75 17V7C20.75 6.66848 20.6183 6.35054 20.3839 6.11612C20.1495 5.8817 19.8315 5.75 19.5 5.75ZM12.625 15.75H11.375C11.2092 15.75 11.0503 15.6842 10.9331 15.5669C10.8158 15.4497 10.75 15.2908 10.75 15.125C10.75 14.9592 10.8158 14.8003 10.9331 14.6831C11.0503 14.5658 11.2092 14.5 11.375 14.5H12.625C12.7908 14.5 12.9497 14.5658 13.0669 14.6831C13.1842 14.8003 13.25 14.9592 13.25 15.125C13.25 15.2908 13.1842 15.4497 13.0669 15.5669C12.9497 15.6842 12.7908 15.75 12.625 15.75ZM17.625 15.75H15.125C14.9592 15.75 14.8003 15.6842 14.6831 15.5669C14.5658 15.4497 14.5 15.2908 14.5 15.125C14.5 14.9592 14.5658 14.8003 14.6831 14.6831C14.8003 14.5658 14.9592 14.5 15.125 14.5H17.625C17.7908 14.5 17.9497 14.5658 18.0669 14.6831C18.1842 14.8003 18.25 14.9592 18.25 15.125C18.25 15.2908 18.1842 15.4497 18.0669 15.5669C17.9497 15.6842 17.7908 15.75 17.625 15.75ZM4.5 8.875V7H19.5V8.875H4.5Z" fill="#1E1E1E"/>
</svg>
