<svg width="24" height="24" viewBox="0 0 24 24" fill="none" xmlns="http://www.w3.org/2000/svg">
<path d="M20.125 5.75V8.875C20.125 9.04076 20.0592 9.19973 19.9419 9.31694C19.8247 9.43415 19.6658 9.5 19.5 9.5C19.3342 9.5 19.1753 9.43415 19.0581 9.31694C18.9408 9.19973 18.875 9.04076 18.875 8.875V6.375H16.375C16.2092 6.375 16.0503 6.30915 15.9331 6.19194C15.8158 6.07473 15.75 5.91576 15.75 5.75C15.75 5.58424 15.8158 5.42527 15.9331 5.30806C16.0503 5.19085 16.2092 5.125 16.375 5.125H19.5C19.6658 5.125 19.8247 5.19085 19.9419 5.30806C20.0592 5.42527 20.125 5.58424 20.125 5.75ZM7.625 17.625H5.125V15.125C5.125 14.9592 5.05915 14.8003 4.94194 14.6831C4.82473 14.5658 4.66576 14.5 4.5 14.5C4.33424 14.5 4.17527 14.5658 4.05806 14.6831C3.94085 14.8003 3.875 14.9592 3.875 15.125V18.25C3.875 18.4158 3.94085 18.5747 4.05806 18.6919C4.17527 18.8092 4.33424 18.875 4.5 18.875H7.625C7.79076 18.875 7.94973 18.8092 8.06694 18.6919C8.18415 18.5747 8.25 18.4158 8.25 18.25C8.25 18.0842 8.18415 17.9253 8.06694 17.8081C7.94973 17.6908 7.79076 17.625 7.625 17.625ZM19.5 14.5C19.3342 14.5 19.1753 14.5658 19.0581 14.6831C18.9408 14.8003 18.875 14.9592 18.875 15.125V17.625H16.375C16.2092 17.625 16.0503 17.6908 15.9331 17.8081C15.8158 17.9253 15.75 18.0842 15.75 18.25C15.75 18.4158 15.8158 18.5747 15.9331 18.6919C16.0503 18.8092 16.2092 18.875 16.375 18.875H19.5C19.6658 18.875 19.8247 18.8092 19.9419 18.6919C20.0592 18.5747 20.125 18.4158 20.125 18.25V15.125C20.125 14.9592 20.0592 14.8003 19.9419 14.6831C19.8247 14.5658 19.6658 14.5 19.5 14.5ZM4.5 9.5C4.66576 9.5 4.82473 9.43415 4.94194 9.31694C5.05915 9.19973 5.125 9.04076 5.125 8.875V6.375H7.625C7.79076 6.375 7.94973 6.30915 8.06694 6.19194C8.18415 6.07473 8.25 5.91576 8.25 5.75C8.25 5.58424 8.18415 5.42527 8.06694 5.30806C7.94973 5.19085 7.79076 5.125 7.625 5.125H4.5C4.33424 5.125 4.17527 5.19085 4.05806 5.30806C3.94085 5.42527 3.875 5.58424 3.875 5.75V8.875C3.875 9.04076 3.94085 9.19973 4.05806 9.31694C4.17527 9.43415 4.33424 9.5 4.5 9.5ZM15.9 8.50859L12.3125 6.45703C12.218 6.40304 12.1111 6.37464 12.0023 6.37464C11.8935 6.37464 11.7866 6.40304 11.6922 6.45703L8.1 8.50859C8.05116 8.53562 8.01044 8.57523 7.98209 8.62332C7.95374 8.67141 7.93879 8.72621 7.93879 8.78203C7.93879 8.83785 7.95374 8.89266 7.98209 8.94074C8.01044 8.98883 8.05116 9.02844 8.1 9.05547L12 11.2805L15.9 9.05156C15.9479 9.02425 15.9877 8.98475 16.0154 8.93707C16.0431 8.88939 16.0577 8.83522 16.0577 8.78008C16.0577 8.72493 16.0431 8.67077 16.0154 8.62309C15.9877 8.57541 15.9479 8.5359 15.9 8.50859ZM7 10.4008V14.5C6.99901 14.6107 7.02742 14.7196 7.08232 14.8157C7.13723 14.9118 7.21666 14.9915 7.3125 15.0469L10.9062 17.0992C10.9538 17.1267 11.0077 17.1411 11.0626 17.1411C11.1175 17.1411 11.1714 17.1266 11.2189 17.0991C11.2665 17.0716 11.3059 17.0321 11.3333 16.9845C11.3607 16.937 11.3751 16.883 11.375 16.8281V12.3625L7.46875 10.1297C7.42121 10.1022 7.36728 10.0878 7.31239 10.0878C7.25749 10.0878 7.20357 10.1023 7.15605 10.1298C7.10853 10.1573 7.06909 10.1968 7.04169 10.2444C7.0143 10.2919 6.99992 10.3459 7 10.4008ZM17 14.5V10.4008C17.0001 10.3459 16.9857 10.2919 16.9583 10.2444C16.9309 10.1968 16.8915 10.1573 16.844 10.1298C16.7964 10.1023 16.7425 10.0878 16.6876 10.0878C16.6327 10.0878 16.5788 10.1022 16.5312 10.1297L12.625 12.3625V16.8242C12.6249 16.8791 12.6393 16.9331 12.6667 16.9806C12.6941 17.0282 12.7335 17.0677 12.781 17.0952C12.8286 17.1227 12.8825 17.1372 12.9374 17.1372C12.9923 17.1372 13.0462 17.1228 13.0938 17.0953L16.6875 15.0469C16.7833 14.9915 16.8628 14.9118 16.9177 14.8157C16.9726 14.7196 17.001 14.6107 17 14.5Z" fill="#1E1E1E"/>
</svg>
