<svg width="24" height="24" viewBox="0 0 24 24" fill="none" xmlns="http://www.w3.org/2000/svg">
<path d="M17.8334 19.5L12 13.6666L10.0417 15.625C10.1528 15.8333 10.2292 16.0555 10.2709 16.2916C10.3125 16.5277 10.3334 16.7638 10.3334 17C10.3334 17.9166 10.007 18.7013 9.35419 19.3541C8.70141 20.0069 7.91669 20.3333 7.00002 20.3333C6.08335 20.3333 5.29863 20.0069 4.64585 19.3541C3.99308 18.7013 3.66669 17.9166 3.66669 17C3.66669 16.0833 3.99308 15.2986 4.64585 14.6458C5.29863 13.993 6.08335 13.6666 7.00002 13.6666C7.23613 13.6666 7.47224 13.6875 7.70835 13.7291C7.94446 13.7708 8.16669 13.8472 8.37502 13.9583L10.3334 12L8.37502 10.0416C8.16669 10.1527 7.94446 10.2291 7.70835 10.2708C7.47224 10.3125 7.23613 10.3333 7.00002 10.3333C6.08335 10.3333 5.29863 10.0069 4.64585 9.35413C3.99308 8.70135 3.66669 7.91663 3.66669 6.99996C3.66669 6.08329 3.99308 5.29857 4.64585 4.64579C5.29863 3.99301 6.08335 3.66663 7.00002 3.66663C7.91669 3.66663 8.70141 3.99301 9.35419 4.64579C10.007 5.29857 10.3334 6.08329 10.3334 6.99996C10.3334 7.23607 10.3125 7.47218 10.2709 7.70829C10.2292 7.9444 10.1528 8.16663 10.0417 8.37496L20.3334 18.6666V19.5H17.8334ZM14.5 11.1666L12.8334 9.49996L17.8334 4.49996H20.3334V5.33329L14.5 11.1666ZM7.00002 8.66663C7.45835 8.66663 7.85071 8.50343 8.1771 8.17704C8.50349 7.85065 8.66669 7.45829 8.66669 6.99996C8.66669 6.54163 8.50349 6.14926 8.1771 5.82288C7.85071 5.49649 7.45835 5.33329 7.00002 5.33329C6.54169 5.33329 6.14933 5.49649 5.82294 5.82288C5.49655 6.14926 5.33335 6.54163 5.33335 6.99996C5.33335 7.45829 5.49655 7.85065 5.82294 8.17704C6.14933 8.50343 6.54169 8.66663 7.00002 8.66663ZM12 12.4166C12.1111 12.4166 12.2084 12.375 12.2917 12.2916C12.375 12.2083 12.4167 12.1111 12.4167 12C12.4167 11.8888 12.375 11.7916 12.2917 11.7083C12.2084 11.625 12.1111 11.5833 12 11.5833C11.8889 11.5833 11.7917 11.625 11.7084 11.7083C11.625 11.7916 11.5834 11.8888 11.5834 12C11.5834 12.1111 11.625 12.2083 11.7084 12.2916C11.7917 12.375 11.8889 12.4166 12 12.4166ZM7.00002 18.6666C7.45835 18.6666 7.85071 18.5034 8.1771 18.177C8.50349 17.8507 8.66669 17.4583 8.66669 17C8.66669 16.5416 8.50349 16.1493 8.1771 15.8229C7.85071 15.4965 7.45835 15.3333 7.00002 15.3333C6.54169 15.3333 6.14933 15.4965 5.82294 15.8229C5.49655 16.1493 5.33335 16.5416 5.33335 17C5.33335 17.4583 5.49655 17.8507 5.82294 18.177C6.14933 18.5034 6.54169 18.6666 7.00002 18.6666Z" fill="#1E1E1E"/>
</svg>
