<svg width="24" height="24" viewBox="0 0 24 24" fill="none" xmlns="http://www.w3.org/2000/svg">
<path d="M13.6666 18.6666V17H16.1666C16.4027 17 16.6007 16.9201 16.7604 16.7604C16.9201 16.6007 17 16.4028 17 16.1666V14.5C17 13.9722 17.1527 13.493 17.4583 13.0625C17.7638 12.6319 18.1666 12.3264 18.6666 12.1458V11.8541C18.1666 11.6736 17.7638 11.368 17.4583 10.9375C17.1527 10.5069 17 10.0278 17 9.49998V7.83331C17 7.5972 16.9201 7.39929 16.7604 7.23956C16.6007 7.07984 16.4027 6.99998 16.1666 6.99998H13.6666V5.33331H16.1666C16.8611 5.33331 17.4513 5.57637 17.9375 6.06248C18.4236 6.54859 18.6666 7.13887 18.6666 7.83331V9.49998C18.6666 9.73609 18.7465 9.93401 18.9062 10.0937C19.0659 10.2535 19.2638 10.3333 19.5 10.3333H20.3333V13.6666H19.5C19.2638 13.6666 19.0659 13.7465 18.9062 13.9062C18.7465 14.066 18.6666 14.2639 18.6666 14.5V16.1666C18.6666 16.8611 18.4236 17.4514 17.9375 17.9375C17.4513 18.4236 16.8611 18.6666 16.1666 18.6666H13.6666ZM7.83329 18.6666C7.13885 18.6666 6.54857 18.4236 6.06246 17.9375C5.57635 17.4514 5.33329 16.8611 5.33329 16.1666V14.5C5.33329 14.2639 5.25343 14.066 5.09371 13.9062C4.93399 13.7465 4.73607 13.6666 4.49996 13.6666H3.66663V10.3333H4.49996C4.73607 10.3333 4.93399 10.2535 5.09371 10.0937C5.25343 9.93401 5.33329 9.73609 5.33329 9.49998V7.83331C5.33329 7.13887 5.57635 6.54859 6.06246 6.06248C6.54857 5.57637 7.13885 5.33331 7.83329 5.33331H10.3333V6.99998H7.83329C7.59718 6.99998 7.39926 7.07984 7.23954 7.23956C7.07982 7.39929 6.99996 7.5972 6.99996 7.83331V9.49998C6.99996 10.0278 6.84718 10.5069 6.54163 10.9375C6.23607 11.368 5.83329 11.6736 5.33329 11.8541V12.1458C5.83329 12.3264 6.23607 12.6319 6.54163 13.0625C6.84718 13.493 6.99996 13.9722 6.99996 14.5V16.1666C6.99996 16.4028 7.07982 16.6007 7.23954 16.7604C7.39926 16.9201 7.59718 17 7.83329 17H10.3333V18.6666H7.83329Z" fill="#1E1E1E"/>
</svg>
