<svg width="24" height="24" viewBox="0 0 24 24" fill="none" xmlns="http://www.w3.org/2000/svg">
<path d="M12 11.1667C14.0833 11.1667 15.8542 10.8403 17.3125 10.1875C18.7708 9.53472 19.5 8.75 19.5 7.83333C19.5 6.91667 18.7708 6.13194 17.3125 5.47917C15.8542 4.82639 14.0833 4.5 12 4.5C9.91667 4.5 8.14583 4.82639 6.6875 5.47917C5.22917 6.13194 4.5 6.91667 4.5 7.83333C4.5 8.75 5.22917 9.53472 6.6875 10.1875C8.14583 10.8403 9.91667 11.1667 12 11.1667ZM12 13.25C12.5694 13.25 13.2812 13.191 14.1354 13.0729C14.9896 12.9549 15.8125 12.7639 16.6042 12.5C17.3958 12.2361 18.0764 11.8924 18.6458 11.4688C19.2153 11.0451 19.5 10.5278 19.5 9.91667V12C19.5 12.6111 19.2153 13.1285 18.6458 13.5521C18.0764 13.9757 17.3958 14.3194 16.6042 14.5833C15.8125 14.8472 14.9896 15.0382 14.1354 15.1562C13.2812 15.2743 12.5694 15.3333 12 15.3333C11.4306 15.3333 10.7187 15.2743 9.86458 15.1562C9.01042 15.0382 8.1875 14.8472 7.39583 14.5833C6.60417 14.3194 5.92361 13.9757 5.35417 13.5521C4.78472 13.1285 4.5 12.6111 4.5 12V9.91667C4.5 10.5278 4.78472 11.0451 5.35417 11.4688C5.92361 11.8924 6.60417 12.2361 7.39583 12.5C8.1875 12.7639 9.01042 12.9549 9.86458 13.0729C10.7187 13.191 11.4306 13.25 12 13.25ZM12 17.4167C12.5694 17.4167 13.2812 17.3576 14.1354 17.2396C14.9896 17.1215 15.8125 16.9306 16.6042 16.6667C17.3958 16.4028 18.0764 16.059 18.6458 15.6354C19.2153 15.2118 19.5 14.6944 19.5 14.0833V16.1667C19.5 16.7778 19.2153 17.2951 18.6458 17.7188C18.0764 18.1424 17.3958 18.4861 16.6042 18.75C15.8125 19.0139 14.9896 19.2049 14.1354 19.3229C13.2812 19.441 12.5694 19.5 12 19.5C11.4306 19.5 10.7187 19.441 9.86458 19.3229C9.01042 19.2049 8.1875 19.0139 7.39583 18.75C6.60417 18.4861 5.92361 18.1424 5.35417 17.7188C4.78472 17.2951 4.5 16.7778 4.5 16.1667V14.0833C4.5 14.6944 4.78472 15.2118 5.35417 15.6354C5.92361 16.059 6.60417 16.4028 7.39583 16.6667C8.1875 16.9306 9.01042 17.1215 9.86458 17.2396C10.7187 17.3576 11.4306 17.4167 12 17.4167Z" fill="#1E1E1E"/>
</svg>
