<svg width="24" height="24" viewBox="0 0 24 24" fill="none" xmlns="http://www.w3.org/2000/svg">
<path d="M19.2 7.80002H18V7.20002C18 6.72263 17.8103 6.2648 17.4728 5.92723C17.1352 5.58967 16.6774 5.40002 16.2 5.40002H5.39998C4.92259 5.40002 4.46475 5.58967 4.12718 5.92723C3.78962 6.2648 3.59998 6.72263 3.59998 7.20002V14.4C3.59998 14.8774 3.78962 15.3353 4.12718 15.6728C4.46475 16.0104 4.92259 16.2 5.39998 16.2H13.8V16.8C13.8 17.2774 13.9896 17.7353 14.3272 18.0728C14.6647 18.4104 15.1226 18.6 15.6 18.6H19.2C19.6774 18.6 20.1352 18.4104 20.4728 18.0728C20.8103 17.7353 21 17.2774 21 16.8V9.60002C21 9.12263 20.8103 8.6648 20.4728 8.32723C20.1352 7.98967 19.6774 7.80002 19.2 7.80002ZM5.39998 15C5.24085 15 5.08823 14.9368 4.97571 14.8243C4.86319 14.7118 4.79998 14.5592 4.79998 14.4V7.20002C4.79998 7.04089 4.86319 6.88828 4.97571 6.77576C5.08823 6.66324 5.24085 6.60002 5.39998 6.60002H16.2C16.3591 6.60002 16.5117 6.66324 16.6242 6.77576C16.7368 6.88828 16.8 7.04089 16.8 7.20002V7.80002H15.6C15.1226 7.80002 14.6647 7.98967 14.3272 8.32723C13.9896 8.6648 13.8 9.12263 13.8 9.60002V15H5.39998ZM19.8 16.8C19.8 16.9592 19.7368 17.1118 19.6242 17.2243C19.5117 17.3368 19.3591 17.4 19.2 17.4H15.6C15.4408 17.4 15.2882 17.3368 15.1757 17.2243C15.0632 17.1118 15 16.9592 15 16.8V9.60002C15 9.44089 15.0632 9.28828 15.1757 9.17576C15.2882 9.06324 15.4408 9.00002 15.6 9.00002H19.2C19.3591 9.00002 19.5117 9.06324 19.6242 9.17576C19.7368 9.28828 19.8 9.44089 19.8 9.60002V16.8ZM12.6 18C12.6 18.1592 12.5368 18.3118 12.4242 18.4243C12.3117 18.5368 12.1591 18.6 12 18.6H8.99998C8.84085 18.6 8.68823 18.5368 8.57571 18.4243C8.46319 18.3118 8.39998 18.1592 8.39998 18C8.39998 17.8409 8.46319 17.6883 8.57571 17.5758C8.68823 17.4632 8.84085 17.4 8.99998 17.4H12C12.1591 17.4 12.3117 17.4632 12.4242 17.5758C12.5368 17.6883 12.6 17.8409 12.6 18ZM18.6 10.8C18.6 10.9592 18.5368 11.1118 18.4242 11.2243C18.3117 11.3368 18.1591 11.4 18 11.4H16.8C16.6408 11.4 16.4882 11.3368 16.3757 11.2243C16.2632 11.1118 16.2 10.9592 16.2 10.8C16.2 10.6409 16.2632 10.4883 16.3757 10.3758C16.4882 10.2632 16.6408 10.2 16.8 10.2H18C18.1591 10.2 18.3117 10.2632 18.4242 10.3758C18.5368 10.4883 18.6 10.6409 18.6 10.8Z" fill="#1E1E1E"/>
</svg>
