<svg width="24" height="24" viewBox="0 0 24 24" fill="none" xmlns="http://www.w3.org/2000/svg">
<path d="M11.5755 10.6245C11.6312 10.6803 11.6974 10.7246 11.7702 10.7548C11.843 10.785 11.9211 10.8005 12 10.8005C12.0788 10.8005 12.1569 10.785 12.2297 10.7548C12.3026 10.7246 12.3687 10.6803 12.4245 10.6245L15.4245 7.62452C15.4802 7.5688 15.5245 7.50262 15.5547 7.42979C15.5849 7.35695 15.6004 7.27887 15.6004 7.20002C15.6004 7.12117 15.5849 7.0431 15.5547 6.97026C15.5245 6.89742 15.4802 6.83124 15.4245 6.77552L12.4245 3.77552C12.3687 3.71973 12.3026 3.67548 12.2297 3.64528C12.1569 3.61509 12.0788 3.59955 12 3.59955C11.9211 3.59955 11.843 3.61509 11.7702 3.64528C11.6974 3.67548 11.6312 3.71973 11.5755 3.77552L8.57546 6.77552C8.51967 6.83124 8.47542 6.89742 8.44522 6.97026C8.41503 7.0431 8.39949 7.12117 8.39949 7.20002C8.39949 7.27887 8.41503 7.35695 8.44522 7.42979C8.47542 7.50262 8.51967 7.5688 8.57546 7.62452L11.5755 10.6245ZM12 5.04827L14.1517 7.20002L12 9.35177L9.84821 7.20002L12 5.04827ZM12.4245 13.3733C12.3687 13.3175 12.3026 13.2732 12.2297 13.243C12.1569 13.2128 12.0788 13.1973 12 13.1973C11.9211 13.1973 11.843 13.2128 11.7702 13.243C11.6974 13.2732 11.6312 13.3175 11.5755 13.3733L8.57546 16.3733C8.51967 16.429 8.47542 16.4952 8.44522 16.568C8.41503 16.6408 8.39949 16.7189 8.39949 16.7978C8.39949 16.8766 8.41503 16.9547 8.44522 17.0275C8.47542 17.1004 8.51967 17.1665 8.57546 17.2223L11.5755 20.2223C11.6312 20.2781 11.6974 20.3223 11.7702 20.3525C11.843 20.3827 11.9211 20.3982 12 20.3982C12.0788 20.3982 12.1569 20.3827 12.2297 20.3525C12.3026 20.3223 12.3687 20.2781 12.4245 20.2223L15.4245 17.2223C15.4802 17.1665 15.5245 17.1004 15.5547 17.0275C15.5849 16.9547 15.6004 16.8766 15.6004 16.7978C15.6004 16.7189 15.5849 16.6408 15.5547 16.568C15.5245 16.4952 15.4802 16.429 15.4245 16.3733L12.4245 13.3733ZM12 18.9518L9.84821 16.8L12 14.6483L14.1517 16.8L12 18.9518ZM20.2245 11.5755L17.2245 8.57552C17.1687 8.51973 17.1026 8.47548 17.0297 8.44529C16.9569 8.41509 16.8788 8.39955 16.8 8.39955C16.7211 8.39955 16.643 8.41509 16.5702 8.44529C16.4974 8.47548 16.4312 8.51973 16.3755 8.57552L13.3755 11.5755C13.3197 11.6312 13.2754 11.6974 13.2452 11.7703C13.215 11.8431 13.1995 11.9212 13.1995 12C13.1995 12.0789 13.215 12.1569 13.2452 12.2298C13.2754 12.3026 13.3197 12.3688 13.3755 12.4245L16.3755 15.4245C16.4312 15.4803 16.4974 15.5246 16.5702 15.5548C16.643 15.585 16.7211 15.6005 16.8 15.6005C16.8788 15.6005 16.9569 15.585 17.0297 15.5548C17.1026 15.5246 17.1687 15.4803 17.2245 15.4245L20.2245 12.4245C20.2802 12.3688 20.3245 12.3026 20.3547 12.2298C20.3849 12.1569 20.4004 12.0789 20.4004 12C20.4004 11.9212 20.3849 11.8431 20.3547 11.7703C20.3245 11.6974 20.2802 11.6312 20.2245 11.5755ZM16.8 14.1518L14.6482 12L16.8 9.84827L18.9517 12L16.8 14.1518ZM10.6245 11.5755L7.62446 8.57552C7.56874 8.51973 7.50256 8.47548 7.42972 8.44529C7.35688 8.41509 7.27881 8.39955 7.19996 8.39955C7.12111 8.39955 7.04303 8.41509 6.9702 8.44529C6.89736 8.47548 6.83118 8.51973 6.77546 8.57552L3.77546 11.5755C3.71967 11.6312 3.67542 11.6974 3.64522 11.7703C3.61503 11.8431 3.59949 11.9212 3.59949 12C3.59949 12.0789 3.61503 12.1569 3.64522 12.2298C3.67542 12.3026 3.71967 12.3688 3.77546 12.4245L6.77546 15.4245C6.83118 15.4803 6.89736 15.5246 6.9702 15.5548C7.04303 15.585 7.12111 15.6005 7.19996 15.6005C7.27881 15.6005 7.35688 15.585 7.42972 15.5548C7.50256 15.5246 7.56874 15.4803 7.62446 15.4245L10.6245 12.4245C10.6802 12.3688 10.7245 12.3026 10.7547 12.2298C10.7849 12.1569 10.8004 12.0789 10.8004 12C10.8004 11.9212 10.7849 11.8431 10.7547 11.7703C10.7245 11.6974 10.6802 11.6312 10.6245 11.5755ZM7.19996 14.1518L5.04821 12L7.19996 9.84827L9.35171 12L7.19996 14.1518Z" fill="#1E1E1E"/>
</svg>
