<svg width="24" height="24" viewBox="0 0 24 24" fill="none" xmlns="http://www.w3.org/2000/svg">
<path d="M5.33337 13.8541H6.27087L6.75004 12.4791H8.91671L9.41671 13.8541H10.3334L8.31254 8.47915H7.35421L5.33337 13.8541ZM7.02087 11.7083L7.81254 9.47915H7.85421L8.64587 11.7083H7.02087ZM13.6667 10.25V8.83331C14.125 8.63887 14.5938 8.49304 15.073 8.39581C15.5521 8.29859 16.0556 8.24998 16.5834 8.24998C16.9445 8.24998 17.2987 8.27776 17.6459 8.33331C17.9931 8.38887 18.3334 8.45831 18.6667 8.54165V9.87498C18.3334 9.74998 17.9966 9.65623 17.6563 9.59373C17.316 9.53123 16.9584 9.49998 16.5834 9.49998C16.0556 9.49998 15.5487 9.56595 15.0625 9.6979C14.5764 9.82984 14.1112 10.0139 13.6667 10.25ZM13.6667 14.8333V13.4166C14.125 13.2222 14.5938 13.0764 15.073 12.9791C15.5521 12.8819 16.0556 12.8333 16.5834 12.8333C16.9445 12.8333 17.2987 12.8611 17.6459 12.9166C17.9931 12.9722 18.3334 13.0416 18.6667 13.125V14.4583C18.3334 14.3333 17.9966 14.2396 17.6563 14.1771C17.316 14.1146 16.9584 14.0833 16.5834 14.0833C16.0556 14.0833 15.5487 14.1458 15.0625 14.2708C14.5764 14.3958 14.1112 14.5833 13.6667 14.8333ZM13.6667 12.5416V11.125C14.125 10.9305 14.5938 10.7847 15.073 10.6875C15.5521 10.5903 16.0556 10.5416 16.5834 10.5416C16.9445 10.5416 17.2987 10.5694 17.6459 10.625C17.9931 10.6805 18.3334 10.75 18.6667 10.8333V12.1666C18.3334 12.0416 17.9966 11.9479 17.6563 11.8854C17.316 11.8229 16.9584 11.7916 16.5834 11.7916C16.0556 11.7916 15.5487 11.8576 15.0625 11.9896C14.5764 12.1215 14.1112 12.3055 13.6667 12.5416ZM12.8334 16.2083C13.4445 15.9166 14.0591 15.6979 14.6771 15.5521C15.2952 15.4062 15.9306 15.3333 16.5834 15.3333C17.0834 15.3333 17.573 15.375 18.0521 15.4583C18.5313 15.5416 19.0139 15.6666 19.5 15.8333V7.58331C19.0417 7.38887 18.566 7.24304 18.073 7.14581C17.5799 7.04859 17.0834 6.99998 16.5834 6.99998C15.9306 6.99998 15.2848 7.08331 14.6459 7.24998C14.007 7.41665 13.4028 7.66665 12.8334 7.99998V16.2083ZM12 18.6666C11.3334 18.1389 10.6112 17.7291 9.83337 17.4375C9.0556 17.1458 8.25004 17 7.41671 17C6.83337 17 6.26046 17.0764 5.69796 17.2291C5.13546 17.3819 4.59726 17.5972 4.08337 17.875C3.79171 18.0278 3.51046 18.0208 3.23962 17.8541C2.96879 17.6875 2.83337 17.4444 2.83337 17.125V7.08331C2.83337 6.93054 2.87157 6.7847 2.94796 6.64581C3.02435 6.50692 3.13893 6.40276 3.29171 6.33331C3.9306 5.99998 4.59726 5.74998 5.29171 5.58331C5.98615 5.41665 6.69449 5.33331 7.41671 5.33331C8.22226 5.33331 9.01046 5.43748 9.78129 5.64581C10.5521 5.85415 11.2917 6.16665 12 6.58331C12.7084 6.16665 13.448 5.85415 14.2188 5.64581C14.9896 5.43748 15.7778 5.33331 16.5834 5.33331C17.3056 5.33331 18.0139 5.41665 18.7084 5.58331C19.4028 5.74998 20.0695 5.99998 20.7084 6.33331C20.8612 6.40276 20.9757 6.50692 21.0521 6.64581C21.1285 6.7847 21.1667 6.93054 21.1667 7.08331V17.125C21.1667 17.4444 21.0313 17.6875 20.7605 17.8541C20.4896 18.0208 20.2084 18.0278 19.9167 17.875C19.4028 17.5972 18.8646 17.3819 18.3021 17.2291C17.7396 17.0764 17.1667 17 16.5834 17C15.75 17 14.9445 17.1458 14.1667 17.4375C13.3889 17.7291 12.6667 18.1389 12 18.6666Z" fill="#1E1E1E"/>
</svg>
