<svg width="24" height="24" viewBox="0 0 24 24" fill="none" xmlns="http://www.w3.org/2000/svg">
<path d="M17.625 17.9766V20.125C17.625 20.2908 17.5592 20.4497 17.442 20.5669C17.3248 20.6842 17.1658 20.75 17 20.75C16.8343 20.75 16.6753 20.6842 16.5581 20.5669C16.4409 20.4497 16.375 20.2908 16.375 20.125V17.9766C16.3781 17.0473 16.1208 16.1357 15.6322 15.3452C15.1437 14.5547 14.4435 13.9168 13.611 13.5039L9.82972 11.6141C8.78912 11.098 7.91392 10.3006 7.30332 9.31252C6.69271 8.3244 6.37114 7.18499 6.37504 6.02344V3.875C6.37504 3.70924 6.44088 3.55027 6.55809 3.43306C6.6753 3.31585 6.83427 3.25 7.00003 3.25C7.1658 3.25 7.32477 3.31585 7.44198 3.43306C7.55919 3.55027 7.62503 3.70924 7.62503 3.875V6.02344C7.62197 6.95273 7.87929 7.86429 8.36782 8.65481C8.85636 9.44533 9.55657 10.0832 10.3891 10.4961L14.1703 12.3859C15.2109 12.902 16.0861 13.6994 16.6968 14.6875C17.3074 15.6756 17.6289 16.815 17.625 17.9766ZM14.5 17.625H7.63832C7.66838 17.1992 7.7532 16.7791 7.89066 16.375H13.5711C13.7369 16.375 13.8959 16.3092 14.0131 16.1919C14.1303 16.0747 14.1961 15.9158 14.1961 15.75C14.1961 15.5842 14.1303 15.4253 14.0131 15.3081C13.8959 15.1908 13.7369 15.125 13.5711 15.125H8.52035C8.83398 14.6716 9.22076 14.2735 9.66488 13.9469C9.73116 13.8983 9.78721 13.8371 9.82986 13.7669C9.8725 13.6967 9.90088 13.6187 9.9134 13.5375C9.92591 13.4563 9.92231 13.3734 9.90279 13.2936C9.88327 13.2137 9.84822 13.1385 9.79964 13.0723C9.75107 13.006 9.68991 12.9499 9.61966 12.9073C9.54942 12.8646 9.47147 12.8363 9.39025 12.8237C9.30904 12.8112 9.22615 12.8148 9.14633 12.8344C9.06651 12.8539 8.99131 12.8889 8.92503 12.9375C8.13553 13.5195 7.49356 14.2786 7.05068 15.1537C6.60781 16.0289 6.3764 16.9957 6.37504 17.9766V20.125C6.37504 20.2908 6.44088 20.4497 6.55809 20.5669C6.6753 20.6842 6.83427 20.75 7.00003 20.75C7.1658 20.75 7.32477 20.6842 7.44198 20.5669C7.55919 20.4497 7.62503 20.2908 7.62503 20.125V18.875H14.5C14.6658 18.875 14.8248 18.8092 14.942 18.6919C15.0592 18.5747 15.125 18.4158 15.125 18.25C15.125 18.0842 15.0592 17.9253 14.942 17.8081C14.8248 17.6908 14.6658 17.625 14.5 17.625ZM17 3.25C16.8343 3.25 16.6753 3.31585 16.5581 3.43306C16.4409 3.55027 16.375 3.70924 16.375 3.875V5.125H9.50003C9.33427 5.125 9.1753 5.19085 9.05809 5.30806C8.94088 5.42527 8.87503 5.58424 8.87503 5.75C8.87503 5.91576 8.94088 6.07473 9.05809 6.19194C9.1753 6.30915 9.33427 6.375 9.50003 6.375H16.3618C16.3317 6.80078 16.2469 7.2209 16.1094 7.625H10.4289C10.2632 7.625 10.1042 7.69085 9.987 7.80806C9.86979 7.92527 9.80394 8.08424 9.80394 8.25C9.80394 8.41576 9.86979 8.57473 9.987 8.69194C10.1042 8.80915 10.2632 8.875 10.4289 8.875H15.4797C15.1661 9.32838 14.7793 9.72651 14.3352 10.0531C14.269 10.1017 14.2131 10.1628 14.1705 10.233C14.128 10.3032 14.0997 10.3811 14.0872 10.4623C14.0748 10.5434 14.0784 10.6262 14.098 10.706C14.1176 10.7857 14.1526 10.8608 14.2012 10.927C14.2993 11.0606 14.4465 11.1498 14.6104 11.1749C14.6915 11.1874 14.7743 11.1837 14.854 11.1641C14.9338 11.1446 15.0089 11.1095 15.075 11.0609C15.8643 10.4791 16.5062 9.72027 16.949 8.8454C17.3919 7.97054 17.6234 7.00401 17.625 6.02344V3.875C17.625 3.70924 17.5592 3.55027 17.442 3.43306C17.3248 3.31585 17.1658 3.25 17 3.25Z" fill="#1E1E1E"/>
</svg>
