<svg width="24" height="24" viewBox="0 0 24 24" fill="none" xmlns="http://www.w3.org/2000/svg">
<path d="M12 14.5C12.6944 14.5 13.2847 14.257 13.7708 13.7709C14.2569 13.2847 14.5 12.6945 14.5 12C14.5 11.3056 14.2569 10.7153 13.7708 10.2292C13.2847 9.74308 12.6944 9.50002 12 9.50002C11.3055 9.50002 10.7152 9.74308 10.2291 10.2292C9.74301 10.7153 9.49996 11.3056 9.49996 12C9.49996 12.6945 9.74301 13.2847 10.2291 13.7709C10.7152 14.257 11.3055 14.5 12 14.5ZM12 20.3334C10.8472 20.3334 9.76385 20.1146 8.74996 19.6771C7.73607 19.2396 6.85413 18.6459 6.10413 17.8959C5.35413 17.1459 4.76038 16.2639 4.32288 15.25C3.88538 14.2361 3.66663 13.1528 3.66663 12C3.66663 10.8472 3.88538 9.76391 4.32288 8.75002C4.76038 7.73613 5.35413 6.85419 6.10413 6.10419C6.85413 5.35419 7.73607 4.76044 8.74996 4.32294C9.76385 3.88544 10.8472 3.66669 12 3.66669C13.1527 3.66669 14.2361 3.88544 15.25 4.32294C16.2638 4.76044 17.1458 5.35419 17.8958 6.10419C18.6458 6.85419 19.2395 7.73613 19.677 8.75002C20.1145 9.76391 20.3333 10.8472 20.3333 12C20.3333 13.1528 20.1145 14.2361 19.677 15.25C19.2395 16.2639 18.6458 17.1459 17.8958 17.8959C17.1458 18.6459 16.2638 19.2396 15.25 19.6771C14.2361 20.1146 13.1527 20.3334 12 20.3334Z" fill="#1E1E1E"/>
</svg>
