<svg width="24" height="24" viewBox="0 0 24 24" fill="none" xmlns="http://www.w3.org/2000/svg">
<path d="M12 8.25C11.2583 8.25 10.5333 8.46993 9.91661 8.88199C9.29993 9.29404 8.81928 9.87971 8.53545 10.5649C8.25162 11.2502 8.17736 12.0042 8.32206 12.7316C8.46675 13.459 8.8239 14.1272 9.34835 14.6517C9.8728 15.1761 10.541 15.5333 11.2684 15.6779C11.9958 15.8226 12.7498 15.7484 13.4351 15.4645C14.1203 15.1807 14.706 14.7001 15.118 14.0834C15.5301 13.4667 15.75 12.7417 15.75 12C15.75 11.0054 15.3549 10.0516 14.6517 9.34835C13.9484 8.64509 12.9946 8.25 12 8.25ZM12 12.9375C11.8146 12.9375 11.6333 12.8825 11.4792 12.7795C11.325 12.6765 11.2048 12.5301 11.1339 12.3588C11.0629 12.1875 11.0443 11.999 11.0805 11.8171C11.1167 11.6352 11.206 11.4682 11.3371 11.3371C11.4682 11.206 11.6352 11.1167 11.8171 11.0805C11.999 11.0443 12.1875 11.0629 12.3588 11.1339C12.5301 11.2048 12.6765 11.325 12.7795 11.4792C12.8825 11.6333 12.9375 11.8146 12.9375 12C12.9375 12.2486 12.8387 12.4871 12.6629 12.6629C12.4871 12.8387 12.2486 12.9375 12 12.9375Z" fill="#1E1E1E"/>
</svg>
