<svg width="24" height="24" viewBox="0 0 24 24" fill="none" xmlns="http://www.w3.org/2000/svg">
<path d="M12.9 12C12.9 12.178 12.8472 12.352 12.7483 12.5C12.6494 12.648 12.5089 12.7633 12.3444 12.8315C12.18 12.8996 11.999 12.9174 11.8244 12.8827C11.6498 12.848 11.4895 12.7622 11.3636 12.6364C11.2377 12.5105 11.152 12.3501 11.1173 12.1756C11.0826 12.001 11.1004 11.82 11.1685 11.6556C11.2366 11.4911 11.352 11.3505 11.5 11.2517C11.648 11.1528 11.822 11.1 12 11.1C12.2387 11.1 12.4676 11.1948 12.6364 11.3636C12.8052 11.5324 12.9 11.7613 12.9 12ZM17.1 11.1C16.922 11.1 16.748 11.1528 16.6 11.2517C16.452 11.3505 16.3366 11.4911 16.2685 11.6556C16.2004 11.82 16.1826 12.001 16.2173 12.1756C16.252 12.3501 16.3377 12.5105 16.4636 12.6364C16.5895 12.7622 16.7498 12.848 16.9244 12.8827C17.099 12.9174 17.28 12.8996 17.4444 12.8315C17.6089 12.7633 17.7494 12.648 17.8483 12.5C17.9472 12.352 18 12.178 18 12C18 11.7613 17.9052 11.5324 17.7364 11.3636C17.5676 11.1948 17.3387 11.1 17.1 11.1ZM6.9 11.1C6.722 11.1 6.54799 11.1528 6.39999 11.2517C6.25198 11.3505 6.13663 11.4911 6.06851 11.6556C6.00039 11.82 5.98257 12.001 6.01729 12.1756C6.05202 12.3501 6.13774 12.5105 6.2636 12.6364C6.38947 12.7622 6.54984 12.848 6.72442 12.8827C6.899 12.9174 7.07996 12.8996 7.24442 12.8315C7.40887 12.7633 7.54943 12.648 7.64832 12.5C7.74722 12.352 7.8 12.178 7.8 12C7.8 11.7613 7.70518 11.5324 7.5364 11.3636C7.36761 11.1948 7.1387 11.1 6.9 11.1Z" fill="#1E1E1E"/>
</svg>
