<svg width="24" height="24" viewBox="0 0 24 24" fill="none" xmlns="http://www.w3.org/2000/svg">
<path d="M7.00004 13.6666C6.54171 13.6666 6.14935 13.5035 5.82296 13.1771C5.49657 12.8507 5.33337 12.4583 5.33337 12C5.33337 11.5416 5.49657 11.1493 5.82296 10.8229C6.14935 10.4965 6.54171 10.3333 7.00004 10.3333C7.45837 10.3333 7.85074 10.4965 8.17712 10.8229C8.50351 11.1493 8.66671 11.5416 8.66671 12C8.66671 12.4583 8.50351 12.8507 8.17712 13.1771C7.85074 13.5035 7.45837 13.6666 7.00004 13.6666ZM12 13.6666C11.5417 13.6666 11.1493 13.5035 10.823 13.1771C10.4966 12.8507 10.3334 12.4583 10.3334 12C10.3334 11.5416 10.4966 11.1493 10.823 10.8229C11.1493 10.4965 11.5417 10.3333 12 10.3333C12.4584 10.3333 12.8507 10.4965 13.1771 10.8229C13.5035 11.1493 13.6667 11.5416 13.6667 12C13.6667 12.4583 13.5035 12.8507 13.1771 13.1771C12.8507 13.5035 12.4584 13.6666 12 13.6666ZM17 13.6666C16.5417 13.6666 16.1493 13.5035 15.823 13.1771C15.4966 12.8507 15.3334 12.4583 15.3334 12C15.3334 11.5416 15.4966 11.1493 15.823 10.8229C16.1493 10.4965 16.5417 10.3333 17 10.3333C17.4584 10.3333 17.8507 10.4965 18.1771 10.8229C18.5035 11.1493 18.6667 11.5416 18.6667 12C18.6667 12.4583 18.5035 12.8507 18.1771 13.1771C17.8507 13.5035 17.4584 13.6666 17 13.6666Z" fill="#1E1E1E"/>
</svg>
