<svg width="24" height="24" viewBox="0 0 24 24" fill="none" xmlns="http://www.w3.org/2000/svg">
<path d="M20.4 12.6V17.4C20.4 17.7182 20.2735 18.0235 20.0485 18.2485C19.8235 18.4735 19.5182 18.6 19.2 18.6H4.79998C4.48172 18.6 4.17649 18.4735 3.95145 18.2485C3.7264 18.0235 3.59998 17.7182 3.59998 17.4V12.6C3.59998 12.2817 3.7264 11.9765 3.95145 11.7514C4.17649 11.5264 4.48172 11.4 4.79998 11.4H7.79998C7.95911 11.4 8.11172 11.4632 8.22424 11.5757C8.33676 11.6882 8.39998 11.8408 8.39998 12C8.39998 12.1591 8.33676 12.3117 8.22424 12.4242C8.11172 12.5368 7.95911 12.6 7.79998 12.6H4.79998V17.4H19.2V12.6H16.2C16.0408 12.6 15.8882 12.5368 15.7757 12.4242C15.6632 12.3117 15.6 12.1591 15.6 12C15.6 11.8408 15.6632 11.6882 15.7757 11.5757C15.8882 11.4632 16.0408 11.4 16.2 11.4H19.2C19.5182 11.4 19.8235 11.5264 20.0485 11.7514C20.2735 11.9765 20.4 12.2817 20.4 12.6ZM11.5755 12.4245C11.6312 12.4803 11.6974 12.5245 11.7702 12.5547C11.843 12.5849 11.9211 12.6004 12 12.6004C12.0788 12.6004 12.1569 12.5849 12.2297 12.5547C12.3026 12.5245 12.3688 12.4803 12.4245 12.4245L16.0245 8.82448C16.1371 8.71189 16.2003 8.55919 16.2003 8.39998C16.2003 8.24076 16.1371 8.08806 16.0245 7.97548C15.9119 7.86289 15.7592 7.79964 15.6 7.79964C15.4408 7.79964 15.2881 7.86289 15.1755 7.97548L12.6 10.5517V4.19998C12.6 4.04085 12.5368 3.88823 12.4242 3.77571C12.3117 3.66319 12.1591 3.59998 12 3.59998C11.8408 3.59998 11.6882 3.66319 11.5757 3.77571C11.4632 3.88823 11.4 4.04085 11.4 4.19998V10.5517L8.82448 7.97548C8.71189 7.86289 8.55919 7.79964 8.39998 7.79964C8.24076 7.79964 8.08806 7.86289 7.97548 7.97548C7.86289 8.08806 7.79964 8.24076 7.79964 8.39998C7.79964 8.55919 7.86289 8.71189 7.97548 8.82448L11.5755 12.4245ZM17.4 15C17.4 14.822 17.3472 14.648 17.2483 14.5C17.1494 14.352 17.0088 14.2366 16.8444 14.1685C16.6799 14.1004 16.499 14.0825 16.3244 14.1173C16.1498 14.152 15.9894 14.2377 15.8636 14.3636C15.7377 14.4894 15.652 14.6498 15.6173 14.8244C15.5825 14.999 15.6004 15.1799 15.6685 15.3444C15.7366 15.5088 15.852 15.6494 16 15.7483C16.148 15.8472 16.322 15.9 16.5 15.9C16.7387 15.9 16.9676 15.8052 17.1364 15.6364C17.3052 15.4676 17.4 15.2387 17.4 15Z" fill="#1E1E1E"/>
</svg>
