<svg width="24" height="24" viewBox="0 0 24 24" fill="none" xmlns="http://www.w3.org/2000/svg">
<path d="M7.41671 18.6355C6.15282 18.6355 5.07296 18.198 4.17712 17.323C3.28129 16.448 2.83337 15.3785 2.83337 14.1146C2.83337 13.0313 3.15976 12.066 3.81254 11.2188C4.46532 10.3716 5.31949 9.8299 6.37504 9.59379C6.69449 8.46879 7.28824 7.52435 8.15629 6.76046C9.02435 5.99657 10.0278 5.53129 11.1667 5.36462V12.0938L9.83337 10.8021L8.66671 11.9688L12 15.3021L15.3334 11.9688L14.1667 10.8021L12.8334 12.0938V5.36462C14.2639 5.55907 15.4549 6.20143 16.4063 7.29171C17.3577 8.38198 17.8334 9.66324 17.8334 11.1355C18.7917 11.2466 19.5868 11.6598 20.2188 12.375C20.8507 13.0903 21.1667 13.9271 21.1667 14.8855C21.1667 15.9271 20.8021 16.8125 20.073 17.5417C19.3438 18.2709 18.4584 18.6355 17.4167 18.6355H7.41671Z" fill="#1E1E1E"/>
</svg>
