<svg width="24" height="24" viewBox="0 0 24 24" fill="none" xmlns="http://www.w3.org/2000/svg">
<path d="M9.49998 18.6667C9.04165 18.6667 8.64929 18.5035 8.3229 18.1771C7.99651 17.8507 7.83331 17.4584 7.83331 17C7.83331 16.5417 7.99651 16.1493 8.3229 15.823C8.64929 15.4966 9.04165 15.3334 9.49998 15.3334C9.95831 15.3334 10.3507 15.4966 10.6771 15.823C11.0035 16.1493 11.1666 16.5417 11.1666 17C11.1666 17.4584 11.0035 17.8507 10.6771 18.1771C10.3507 18.5035 9.95831 18.6667 9.49998 18.6667ZM14.5 18.6667C14.0416 18.6667 13.6493 18.5035 13.3229 18.1771C12.9965 17.8507 12.8333 17.4584 12.8333 17C12.8333 16.5417 12.9965 16.1493 13.3229 15.823C13.6493 15.4966 14.0416 15.3334 14.5 15.3334C14.9583 15.3334 15.3507 15.4966 15.6771 15.823C16.0035 16.1493 16.1666 16.5417 16.1666 17C16.1666 17.4584 16.0035 17.8507 15.6771 18.1771C15.3507 18.5035 14.9583 18.6667 14.5 18.6667ZM9.49998 13.6667C9.04165 13.6667 8.64929 13.5035 8.3229 13.1771C7.99651 12.8507 7.83331 12.4584 7.83331 12C7.83331 11.5417 7.99651 11.1493 8.3229 10.823C8.64929 10.4966 9.04165 10.3334 9.49998 10.3334C9.95831 10.3334 10.3507 10.4966 10.6771 10.823C11.0035 11.1493 11.1666 11.5417 11.1666 12C11.1666 12.4584 11.0035 12.8507 10.6771 13.1771C10.3507 13.5035 9.95831 13.6667 9.49998 13.6667ZM14.5 13.6667C14.0416 13.6667 13.6493 13.5035 13.3229 13.1771C12.9965 12.8507 12.8333 12.4584 12.8333 12C12.8333 11.5417 12.9965 11.1493 13.3229 10.823C13.6493 10.4966 14.0416 10.3334 14.5 10.3334C14.9583 10.3334 15.3507 10.4966 15.6771 10.823C16.0035 11.1493 16.1666 11.5417 16.1666 12C16.1666 12.4584 16.0035 12.8507 15.6771 13.1771C15.3507 13.5035 14.9583 13.6667 14.5 13.6667ZM9.49998 8.66671C9.04165 8.66671 8.64929 8.50351 8.3229 8.17712C7.99651 7.85074 7.83331 7.45837 7.83331 7.00004C7.83331 6.54171 7.99651 6.14935 8.3229 5.82296C8.64929 5.49657 9.04165 5.33337 9.49998 5.33337C9.95831 5.33337 10.3507 5.49657 10.6771 5.82296C11.0035 6.14935 11.1666 6.54171 11.1666 7.00004C11.1666 7.45837 11.0035 7.85074 10.6771 8.17712C10.3507 8.50351 9.95831 8.66671 9.49998 8.66671ZM14.5 8.66671C14.0416 8.66671 13.6493 8.50351 13.3229 8.17712C12.9965 7.85074 12.8333 7.45837 12.8333 7.00004C12.8333 6.54171 12.9965 6.14935 13.3229 5.82296C13.6493 5.49657 14.0416 5.33337 14.5 5.33337C14.9583 5.33337 15.3507 5.49657 15.6771 5.82296C16.0035 6.14935 16.1666 6.54171 16.1666 7.00004C16.1666 7.45837 16.0035 7.85074 15.6771 8.17712C15.3507 8.50351 14.9583 8.66671 14.5 8.66671Z" fill="#1E1E1E"/>
</svg>
