<svg width="24" height="24" viewBox="0 0 24 24" fill="none" xmlns="http://www.w3.org/2000/svg">
<path d="M6.16667 19.5C5.70833 19.5 5.31597 19.3368 4.98958 19.0104C4.66319 18.684 4.5 18.2917 4.5 17.8333V6.16667C4.5 5.70833 4.66319 5.31597 4.98958 4.98958C5.31597 4.66319 5.70833 4.5 6.16667 4.5H13.6042L11.9375 6.16667H6.16667V17.8333H17.8333V12.0417L19.5 10.375V17.8333C19.5 18.2917 19.3368 18.684 19.0104 19.0104C18.684 19.3368 18.2917 19.5 17.8333 19.5H6.16667ZM9.5 14.5V10.9583L17.1458 3.3125C17.3125 3.14583 17.5 3.02083 17.7083 2.9375C17.9167 2.85417 18.125 2.8125 18.3333 2.8125C18.5556 2.8125 18.7674 2.85417 18.9688 2.9375C19.1701 3.02083 19.3542 3.14583 19.5208 3.3125L20.6875 4.5C20.8403 4.66667 20.9583 4.85069 21.0417 5.05208C21.125 5.25347 21.1667 5.45833 21.1667 5.66667C21.1667 5.875 21.1285 6.07986 21.0521 6.28125C20.9757 6.48264 20.8542 6.66667 20.6875 6.83333L13.0417 14.5H9.5ZM11.1667 12.8333H12.3333L17.1667 8L16.5833 7.41667L15.9792 6.83333L11.1667 11.6458V12.8333Z" fill="#1E1E1E"/>
</svg>
