<svg width="24" height="24" viewBox="0 0 24 24" fill="none" xmlns="http://www.w3.org/2000/svg">
<path d="M10.75 14.8333H13.25L12.7709 12.1458C13.0487 12.0069 13.2674 11.8056 13.4271 11.5417C13.5868 11.2778 13.6667 10.9861 13.6667 10.6667C13.6667 10.2083 13.5035 9.81597 13.1771 9.48958C12.8507 9.16319 12.4584 9 12 9C11.5417 9 11.1493 9.16319 10.823 9.48958C10.4966 9.81597 10.3334 10.2083 10.3334 10.6667C10.3334 10.9861 10.4132 11.2778 10.573 11.5417C10.7327 11.8056 10.9514 12.0069 11.2292 12.1458L10.75 14.8333ZM12 20.6667C10.0695 20.1806 8.47574 19.0729 7.21879 17.3438C5.96185 15.6146 5.33337 13.6944 5.33337 11.5833V6.5L12 4L18.6667 6.5V11.5833C18.6667 13.6944 18.0382 15.6146 16.7813 17.3438C15.5243 19.0729 13.9306 20.1806 12 20.6667Z" fill="#1E1E1E"/>
</svg>
