<svg width="24" height="24" viewBox="0 0 24 24" fill="none" xmlns="http://www.w3.org/2000/svg">
<path d="M5.33329 18.6666C4.87496 18.6666 4.4826 18.5035 4.15621 18.1771C3.82982 17.8507 3.66663 17.4583 3.66663 17V6.99998C3.66663 6.54165 3.82982 6.14929 4.15621 5.8229C4.4826 5.49651 4.87496 5.33331 5.33329 5.33331H18.6666C19.125 5.33331 19.5173 5.49651 19.8437 5.8229C20.1701 6.14929 20.3333 6.54165 20.3333 6.99998V17C20.3333 17.4583 20.1701 17.8507 19.8437 18.1771C19.5173 18.5035 19.125 18.6666 18.6666 18.6666H5.33329ZM12 12.8333L18.6666 8.66665V6.99998L12 11.1666L5.33329 6.99998V8.66665L12 12.8333Z" fill="#1E1E1E"/>
</svg>
