<svg width="24" height="24" viewBox="0 0 24 24" fill="none" xmlns="http://www.w3.org/2000/svg">
<path d="M19.2 6H4.79995C4.64082 6 4.48821 6.06321 4.37569 6.17574C4.26317 6.28826 4.19995 6.44087 4.19995 6.6V16.8C4.19995 17.1183 4.32638 17.4235 4.55142 17.6485C4.77647 17.8736 5.08169 18 5.39995 18H18.6C18.9182 18 19.2234 17.8736 19.4485 17.6485C19.6735 17.4235 19.8 17.1183 19.8 16.8V6.6C19.8 6.44087 19.7367 6.28826 19.6242 6.17574C19.5117 6.06321 19.3591 6 19.2 6ZM12 12.3862L6.3427 7.2H17.6572L12 12.3862ZM9.8032 12L5.39995 16.0358V7.96425L9.8032 12ZM10.6912 12.8138L11.5912 13.6425C11.7019 13.7441 11.8467 13.8005 11.997 13.8005C12.1472 13.8005 12.292 13.7441 12.4027 13.6425L13.3027 12.8138L17.6527 16.8H6.3427L10.6912 12.8138ZM14.1967 12L18.6 7.9635V16.0365L14.1967 12Z" fill="#1E1E1E"/>
</svg>
