<svg width="24" height="24" viewBox="0 0 24 24" fill="none" xmlns="http://www.w3.org/2000/svg">
<path d="M12 16.1667C12.2361 16.1667 12.434 16.0868 12.5938 15.9271C12.7535 15.7674 12.8333 15.5694 12.8333 15.3333C12.8333 15.0972 12.7535 14.8993 12.5938 14.7396C12.434 14.5799 12.2361 14.5 12 14.5C11.7639 14.5 11.566 14.5799 11.4062 14.7396C11.2465 14.8993 11.1667 15.0972 11.1667 15.3333C11.1667 15.5694 11.2465 15.7674 11.4062 15.9271C11.566 16.0868 11.7639 16.1667 12 16.1667ZM11.1667 12.8333H12.8333V7.83333H11.1667V12.8333ZM8.875 19.5L4.5 15.125V8.875L8.875 4.5H15.125L19.5 8.875V15.125L15.125 19.5H8.875Z" fill="#1E1E1E"/>
</svg>
