<svg width="24" height="24" viewBox="0 0 24 24" fill="none" xmlns="http://www.w3.org/2000/svg">
<path d="M15.3334 19.5C14.875 19.5 14.4827 19.3368 14.1563 19.0104C13.8299 18.684 13.6667 18.2917 13.6667 17.8333V14.5C13.6667 14.0417 13.8299 13.6493 14.1563 13.3229C14.4827 12.9965 14.875 12.8333 15.3334 12.8333H18.6667C19.125 12.8333 19.5174 12.9965 19.8438 13.3229C20.1702 13.6493 20.3334 14.0417 20.3334 14.5V17.8333C20.3334 18.2917 20.1702 18.684 19.8438 19.0104C19.5174 19.3368 19.125 19.5 18.6667 19.5H15.3334ZM3.66669 17V15.3333H11.1667V17H3.66669ZM15.3334 11.1667C14.875 11.1667 14.4827 11.0035 14.1563 10.6771C13.8299 10.3507 13.6667 9.95833 13.6667 9.5V6.16667C13.6667 5.70833 13.8299 5.31597 14.1563 4.98958C14.4827 4.66319 14.875 4.5 15.3334 4.5H18.6667C19.125 4.5 19.5174 4.66319 19.8438 4.98958C20.1702 5.31597 20.3334 5.70833 20.3334 6.16667V9.5C20.3334 9.95833 20.1702 10.3507 19.8438 10.6771C19.5174 11.0035 19.125 11.1667 18.6667 11.1667H15.3334ZM3.66669 8.66667V7H11.1667V8.66667H3.66669Z" fill="#1E1E1E"/>
</svg>
