<svg width="24" height="24" viewBox="0 0 24 24" fill="none" xmlns="http://www.w3.org/2000/svg">
<path d="M18.6 10.8V18C18.6 18.3182 18.4736 18.6234 18.2486 18.8485C18.0235 19.0735 17.7183 19.2 17.4 19.2H6.60002C6.28176 19.2 5.97654 19.0735 5.7515 18.8485C5.52645 18.6234 5.40002 18.3182 5.40002 18V10.8C5.40002 10.4817 5.52645 10.1765 5.7515 9.95143C5.97654 9.72639 6.28176 9.59996 6.60002 9.59996H8.40002C8.55915 9.59996 8.71177 9.66317 8.82429 9.7757C8.93681 9.88822 9.00002 10.0408 9.00002 10.2C9.00002 10.3591 8.93681 10.5117 8.82429 10.6242C8.71177 10.7367 8.55915 10.8 8.40002 10.8H6.60002V18H17.4V10.8H15.6C15.4409 10.8 15.2883 10.7367 15.1758 10.6242C15.0632 10.5117 15 10.3591 15 10.2C15 10.0408 15.0632 9.88822 15.1758 9.7757C15.2883 9.66317 15.4409 9.59996 15.6 9.59996H17.4C17.7183 9.59996 18.0235 9.72639 18.2486 9.95143C18.4736 10.1765 18.6 10.4817 18.6 10.8ZM9.42452 7.62446L11.4 5.64821V12.6C11.4 12.7591 11.4632 12.9117 11.5758 13.0242C11.6883 13.1367 11.8409 13.2 12 13.2C12.1592 13.2 12.3118 13.1367 12.4243 13.0242C12.5368 12.9117 12.6 12.7591 12.6 12.6V5.64821L14.5755 7.62446C14.6881 7.73704 14.8408 7.80029 15 7.80029C15.1592 7.80029 15.3119 7.73704 15.4245 7.62446C15.5371 7.51188 15.6004 7.35918 15.6004 7.19996C15.6004 7.04074 15.5371 6.88804 15.4245 6.77546L12.4245 3.77546C12.3688 3.71967 12.3026 3.67542 12.2298 3.64522C12.1569 3.61503 12.0789 3.59949 12 3.59949C11.9212 3.59949 11.8431 3.61503 11.7703 3.64522C11.6974 3.67542 11.6312 3.71967 11.5755 3.77546L8.57552 6.77546C8.46294 6.88804 8.39969 7.04074 8.39969 7.19996C8.39969 7.35918 8.46294 7.51187 8.57552 7.62446C8.68811 7.73704 8.84081 7.80029 9.00002 7.80029C9.15924 7.80029 9.31194 7.73704 9.42452 7.62446Z" fill="#1E1E1E"/>
</svg>
