<svg width="24" height="24" viewBox="0 0 24 24" fill="none" xmlns="http://www.w3.org/2000/svg">
<path d="M9.75533 19.078H6.58866C6.13033 19.078 5.73797 18.9148 5.41158 18.5884C5.08519 18.262 4.922 17.8697 4.922 17.4113V14.2447C5.58866 14.2447 6.172 14.0329 6.672 13.6093C7.172 13.1856 7.422 12.6474 7.422 11.9947C7.422 11.3419 7.172 10.8037 6.672 10.3801C6.172 9.95647 5.58866 9.74467 4.922 9.74467V6.578C4.922 6.11967 5.08519 5.72731 5.41158 5.40092C5.73797 5.07453 6.13033 4.91134 6.58866 4.91134H9.922C9.922 4.328 10.1234 3.83495 10.5262 3.43217C10.9289 3.02939 11.422 2.828 12.0053 2.828C12.5887 2.828 13.0817 3.02939 13.4845 3.43217C13.8873 3.83495 14.0887 4.328 14.0887 4.91134H17.422C17.8803 4.91134 18.2727 5.07453 18.5991 5.40092C18.9255 5.72731 19.0887 6.11967 19.0887 6.578V9.91134C19.672 9.91134 20.1651 10.1127 20.5678 10.5155C20.9706 10.9183 21.172 11.4113 21.172 11.9947C21.172 12.578 20.9706 13.0711 20.5678 13.4738C20.1651 13.8766 19.672 14.078 19.0887 14.078V17.4113C19.0887 17.8697 18.9255 18.262 18.5991 18.5884C18.2727 18.9148 17.8803 19.078 17.422 19.078H14.2553C14.2553 18.3836 14.0366 17.7933 13.5991 17.3072C13.1616 16.8211 12.6303 16.578 12.0053 16.578C11.3803 16.578 10.8491 16.8211 10.4116 17.3072C9.97408 17.7933 9.75533 18.3836 9.75533 19.078Z" fill="#1E1E1E"/>
</svg>
