<svg width="24" height="24" viewBox="0 0 24 24" fill="none" xmlns="http://www.w3.org/2000/svg">
<path d="M18.5 21.2535L15 17.7952C14.5139 17.948 14.0243 18.0626 13.5313 18.139C13.0382 18.2153 12.5278 18.2535 12 18.2535C9.90282 18.2535 8.03476 17.6737 6.39587 16.514C4.75699 15.3542 3.56949 13.8508 2.83337 12.0035C3.12504 11.2674 3.4931 10.5834 3.93754 9.95146C4.38199 9.31951 4.88893 8.75354 5.45837 8.25354L3.16671 5.92021L4.33337 4.75354L19.6667 20.0869L18.5 21.2535ZM12 15.7535C12.1528 15.7535 12.2952 15.7466 12.4271 15.7327C12.5591 15.7188 12.7014 15.691 12.8542 15.6494L8.35421 11.1494C8.31254 11.3022 8.28476 11.4445 8.27087 11.5765C8.25699 11.7084 8.25004 11.8508 8.25004 12.0035C8.25004 13.0452 8.61462 13.9306 9.34379 14.6598C10.073 15.389 10.9584 15.7535 12 15.7535ZM18.0834 16.1285L15.4375 13.5035C15.5348 13.2674 15.6112 13.0278 15.6667 12.7848C15.7223 12.5417 15.75 12.2813 15.75 12.0035C15.75 10.9619 15.3855 10.0765 14.6563 9.34729C13.9271 8.61812 13.0417 8.25354 12 8.25354C11.7223 8.25354 11.4618 8.28132 11.2188 8.33687C10.9757 8.39243 10.7362 8.47576 10.5 8.58687L8.37504 6.46187C8.94449 6.22576 9.52782 6.04868 10.125 5.93062C10.7223 5.81257 11.3473 5.75354 12 5.75354C14.0973 5.75354 15.9653 6.3334 17.6042 7.49312C19.2431 8.65285 20.4306 10.1563 21.1667 12.0035C20.8473 12.823 20.4271 13.5834 19.9063 14.2848C19.3855 14.9862 18.7778 15.6008 18.0834 16.1285ZM14.2292 12.2952L11.7292 9.79521C12.1181 9.72576 12.4757 9.75701 12.8021 9.88896C13.1285 10.0209 13.4098 10.2119 13.6459 10.4619C13.882 10.7119 14.0521 11.0001 14.1563 11.3265C14.2605 11.6528 14.2848 11.9758 14.2292 12.2952Z" fill="#1E1E1E"/>
</svg>
