<svg width="24" height="24" viewBox="0 0 24 24" fill="none" xmlns="http://www.w3.org/2000/svg">
<path d="M6.44399 4.9965C6.3913 4.93711 6.32735 4.88876 6.25583 4.85426C6.18432 4.81977 6.10667 4.79981 6.02739 4.79554C5.9481 4.79128 5.86876 4.80279 5.79396 4.82942C5.71916 4.85604 5.65038 4.89725 5.59163 4.95065C5.53287 5.00405 5.48529 5.06858 5.45165 5.1405C5.41802 5.21242 5.39899 5.2903 5.39568 5.36963C5.39236 5.44896 5.40483 5.52816 5.43235 5.60264C5.45987 5.67711 5.50189 5.74539 5.55599 5.8035L6.99899 7.39125C4.27499 9.063 3.10349 11.64 3.05174 11.757C3.01763 11.8337 3 11.9168 3 12.0008C3 12.0847 3.01763 12.1678 3.05174 12.2445C3.07799 12.3038 3.71324 13.7123 5.12549 15.1245C7.00724 17.0055 9.38399 18 12 18C13.3445 18.0077 14.6753 17.7309 15.9052 17.1878L17.5552 19.0035C17.6079 19.0629 17.6719 19.1112 17.7434 19.1457C17.8149 19.1802 17.8926 19.2002 17.9718 19.2045C18.0511 19.2087 18.1305 19.1972 18.2053 19.1706C18.2801 19.144 18.3489 19.1028 18.4076 19.0494C18.4664 18.996 18.5139 18.9314 18.5476 18.8595C18.5812 18.7876 18.6002 18.7097 18.6036 18.6304C18.6069 18.551 18.5944 18.4718 18.5669 18.3974C18.5394 18.3229 18.4973 18.2546 18.4432 18.1965L6.44399 4.9965ZM9.99374 10.6845L13.119 14.1233C12.6484 14.3708 12.1088 14.4551 11.5851 14.3628C11.0614 14.2705 10.5832 14.0069 10.2255 13.6134C9.86785 13.2199 9.65102 12.7187 9.60907 12.1886C9.56712 11.6584 9.70243 11.1294 9.99374 10.6845ZM12 16.8C9.69149 16.8 7.67474 15.9608 6.00524 14.3063C5.31998 13.6252 4.73716 12.8484 4.27499 12C4.62674 11.3408 5.74949 9.49575 7.82624 8.2965L9.17624 9.77775C8.6536 10.4471 8.38442 11.2797 8.41629 12.1284C8.44817 12.977 8.77904 13.7871 9.35042 14.4154C9.9218 15.0437 10.6969 15.4497 11.5387 15.5618C12.3806 15.6739 13.2349 15.4847 13.9507 15.0278L15.0555 16.2428C14.0805 16.6168 13.0443 16.8058 12 16.8ZM12.45 9.64275C12.2936 9.61291 12.1556 9.52219 12.0661 9.39054C11.9767 9.25889 11.9432 9.0971 11.973 8.94075C12.0028 8.78441 12.0936 8.64632 12.2252 8.55686C12.3569 8.46741 12.5186 8.43391 12.675 8.46375C13.4397 8.612 14.136 9.00349 14.66 9.57982C15.184 10.1561 15.5077 10.8864 15.5827 11.6618C15.5976 11.8202 15.5488 11.978 15.4473 12.1005C15.3457 12.223 15.1997 12.3002 15.0412 12.315C15.0225 12.3161 15.0037 12.3161 14.985 12.315C14.835 12.3156 14.6903 12.2601 14.5792 12.1593C14.4682 12.0585 14.3989 11.9198 14.385 11.7705C14.3345 11.2548 14.1189 10.7692 13.7703 10.3858C13.4216 10.0025 12.9586 9.74185 12.45 9.64275ZM20.946 12.2445C20.9145 12.315 20.1547 13.9973 18.444 15.5295C18.3855 15.5835 18.3169 15.6254 18.2421 15.6526C18.1673 15.6799 18.0879 15.692 18.0084 15.6882C17.9289 15.6844 17.8509 15.6649 17.779 15.6307C17.7071 15.5965 17.6428 15.5483 17.5897 15.489C17.5366 15.4297 17.4959 15.3605 17.4698 15.2852C17.4438 15.21 17.4329 15.1304 17.438 15.051C17.443 14.9715 17.4638 14.8939 17.4991 14.8225C17.5344 14.7512 17.5836 14.6876 17.6437 14.6355C18.483 13.8815 19.1881 12.9903 19.7287 12C19.2656 11.1508 18.6815 10.3735 17.9947 9.69225C16.3252 8.03925 14.3085 7.2 12 7.2C11.5136 7.19941 11.028 7.23879 10.548 7.31775C10.4699 7.33155 10.3899 7.32976 10.3126 7.31246C10.2352 7.29516 10.1621 7.26271 10.0973 7.21698C10.0326 7.17125 9.97756 7.11315 9.9354 7.04603C9.89325 6.97891 9.86481 6.9041 9.85173 6.82592C9.83865 6.74775 9.84119 6.66776 9.85921 6.59057C9.87722 6.51338 9.91034 6.44053 9.95667 6.37622C10.003 6.31191 10.0616 6.25741 10.1291 6.21588C10.1966 6.17435 10.2717 6.1466 10.35 6.13425C10.8954 6.0442 11.4472 5.9993 12 6C14.616 6 16.9927 6.9945 18.8745 8.87625C20.2867 10.2885 20.922 11.6978 20.9482 11.757C20.9824 11.8337 21 11.9168 21 12.0008C21 12.0847 20.9824 12.1678 20.9482 12.2445H20.946Z" fill="#1E1E1E"/>
</svg>
