<svg width="24" height="24" viewBox="0 0 24 24" fill="none" xmlns="http://www.w3.org/2000/svg">
<path d="M12 15.75C13.0417 15.75 13.9271 15.3854 14.6563 14.6562C15.3855 13.9271 15.75 13.0417 15.75 12C15.75 10.9583 15.3855 10.0729 14.6563 9.34375C13.9271 8.61458 13.0417 8.25 12 8.25C10.9584 8.25 10.073 8.61458 9.34379 9.34375C8.61462 10.0729 8.25004 10.9583 8.25004 12C8.25004 13.0417 8.61462 13.9271 9.34379 14.6562C10.073 15.3854 10.9584 15.75 12 15.75ZM12 14.25C11.375 14.25 10.8438 14.0312 10.4063 13.5938C9.96879 13.1562 9.75004 12.625 9.75004 12C9.75004 11.375 9.96879 10.8438 10.4063 10.4062C10.8438 9.96875 11.375 9.75 12 9.75C12.625 9.75 13.1563 9.96875 13.5938 10.4062C14.0313 10.8438 14.25 11.375 14.25 12C14.25 12.625 14.0313 13.1562 13.5938 13.5938C13.1563 14.0312 12.625 14.25 12 14.25ZM12 18.25C9.97226 18.25 8.12504 17.684 6.45837 16.5521C4.79171 15.4201 3.58337 13.9028 2.83337 12C3.58337 10.0972 4.79171 8.57986 6.45837 7.44792C8.12504 6.31597 9.97226 5.75 12 5.75C14.0278 5.75 15.875 6.31597 17.5417 7.44792C19.2084 8.57986 20.4167 10.0972 21.1667 12C20.4167 13.9028 19.2084 15.4201 17.5417 16.5521C15.875 17.684 14.0278 18.25 12 18.25Z" fill="#1E1E1E"/>
</svg>
