<svg width="24" height="24" viewBox="0 0 24 24" fill="none" xmlns="http://www.w3.org/2000/svg">
<path d="M20.9482 11.757C20.922 11.6978 20.2867 10.2885 18.8745 8.87625C16.9927 6.9945 14.616 6 12 6C9.38399 6 7.00724 6.9945 5.12549 8.87625C3.71324 10.2885 3.07499 11.7 3.05174 11.757C3.01763 11.8337 3 11.9168 3 12.0007C3 12.0847 3.01763 12.1678 3.05174 12.2445C3.07799 12.3037 3.71324 13.7123 5.12549 15.1245C7.00724 17.0055 9.38399 18 12 18C14.616 18 16.9927 17.0055 18.8745 15.1245C20.2867 13.7123 20.922 12.3037 20.9482 12.2445C20.9824 12.1678 21 12.0847 21 12.0007C21 11.9168 20.9824 11.8337 20.9482 11.757ZM12 16.8C9.69149 16.8 7.67474 15.9608 6.00524 14.3063C5.32023 13.625 4.73743 12.8482 4.27499 12C4.73731 11.1517 5.32012 10.3749 6.00524 9.69375C7.67474 8.03925 9.69149 7.2 12 7.2C14.3085 7.2 16.3252 8.03925 17.9947 9.69375C18.6811 10.3747 19.2652 11.1515 19.7287 12C19.188 13.0095 16.8322 16.8 12 16.8ZM12 8.4C11.288 8.4 10.592 8.61114 9.99994 9.00671C9.40792 9.40228 8.9465 9.96453 8.67403 10.6223C8.40155 11.2802 8.33026 12.004 8.46917 12.7023C8.60807 13.4007 8.95094 14.0421 9.45441 14.5456C9.95788 15.0491 10.5993 15.3919 11.2977 15.5308C11.996 15.6697 12.7198 15.5984 13.3777 15.326C14.0355 15.0535 14.5977 14.5921 14.9933 14.0001C15.3889 13.408 15.6 12.712 15.6 12C15.599 11.0455 15.2194 10.1304 14.5445 9.45551C13.8696 8.7806 12.9545 8.40099 12 8.4ZM12 14.4C11.5253 14.4 11.0613 14.2592 10.6666 13.9955C10.2719 13.7318 9.96433 13.357 9.78268 12.9184C9.60103 12.4799 9.5535 11.9973 9.64611 11.5318C9.73871 11.0662 9.96729 10.6386 10.3029 10.3029C10.6386 9.9673 11.0662 9.73872 11.5318 9.64612C11.9973 9.55351 12.4799 9.60104 12.9184 9.78269C13.357 9.96434 13.7318 10.272 13.9955 10.6666C14.2592 11.0613 14.4 11.5253 14.4 12C14.4 12.6365 14.1471 13.247 13.697 13.6971C13.247 14.1471 12.6365 14.4 12 14.4Z" fill="#1E1E1E"/>
</svg>
