<svg width="24" height="24" viewBox="0 0 24 24" fill="none" xmlns="http://www.w3.org/2000/svg">
<path d="M19.68 8.75003C19.24 7.74003 18.65 6.85003 17.9 6.10003C17.15 5.35003 16.27 4.76003 15.25 4.32003C14.24 3.88003 13.15 3.66003 12 3.66003C10.85 3.66003 9.76003 3.88003 8.75003 4.32003C7.74003 4.76003 6.85003 5.35003 6.10003 6.10003C5.35003 6.85003 4.76003 7.73003 4.32003 8.75003C3.88003 9.77003 3.66003 10.85 3.66003 12C3.66003 13.15 3.88003 14.24 4.32003 15.25C4.76003 16.26 5.35003 17.15 6.10003 17.9C6.85003 18.65 7.73003 19.24 8.75003 19.68C9.76003 20.12 10.85 20.34 12 20.34H18.67C19.13 20.34 19.52 20.18 19.85 19.85C20.18 19.52 20.34 19.13 20.34 18.67V12C20.34 10.85 20.12 9.76003 19.68 8.75003ZM12.66 16.7C12.46 16.9 12.21 17 11.92 17C11.63 17 11.38 16.9 11.18 16.7C10.98 16.5 10.88 16.25 10.88 15.96C10.88 15.67 10.98 15.42 11.18 15.22C11.38 15.02 11.63 14.92 11.92 14.92C12.21 14.92 12.46 15.02 12.66 15.22C12.86 15.42 12.96 15.67 12.96 15.96C12.96 16.25 12.86 16.5 12.66 16.7ZM14.62 10.58C14.42 10.91 14.07 11.31 13.59 11.8C13.23 12.16 12.99 12.46 12.88 12.7C12.77 12.94 12.71 13.3 12.71 13.8H11.17C11.17 13.18 11.26 12.68 11.43 12.31C11.6 11.94 11.92 11.56 12.38 11.15C12.74 10.83 13 10.54 13.15 10.27C13.3 10.01 13.38 9.76003 13.38 9.52003C13.38 9.19003 13.26 8.92003 13 8.72003C12.75 8.52003 12.44 8.42003 12.06 8.42003C11.68 8.42003 11.33 8.53003 11.04 8.76003C10.75 8.99003 10.55 9.29003 10.46 9.67003L9.08003 9.13003C9.29003 8.46003 9.66003 7.94003 10.19 7.57003C10.72 7.19003 11.37 7.01003 12.14 7.01003C12.99 7.01003 13.66 7.24003 14.16 7.69003C14.66 8.14003 14.91 8.74003 14.91 9.47003C14.91 9.89003 14.81 10.26 14.61 10.58H14.62Z" fill="#1E1E1E"/>
</svg>
