<svg width="24" height="24" viewBox="0 0 24 24" fill="none" xmlns="http://www.w3.org/2000/svg">
<path fill-rule="evenodd" clip-rule="evenodd" d="M18.55 7.57001C18.52 7.50001 18.48 7.43001 18.42 7.38001L15.42 4.38001C15.37 4.32001 15.3 4.28001 15.23 4.25001C15.16 4.22001 15.08 4.20001 15 4.20001H8.99996C8.67996 4.20001 8.37996 4.33001 8.14996 4.55001C7.91996 4.78001 7.79996 5.08001 7.79996 5.40001V6.60001H6.59996C6.27996 6.60001 5.97996 6.73001 5.74996 6.95001C5.52996 7.18001 5.39996 7.48001 5.39996 7.80001V18.6C5.39996 18.92 5.52996 19.22 5.74996 19.45C5.97996 19.68 6.27996 19.8 6.59996 19.8H15C15.32 19.8 15.62 19.67 15.85 19.45C16.07 19.22 16.2 18.92 16.2 18.6V17.4H17.4C17.72 17.4 18.02 17.27 18.25 17.05C18.48 16.82 18.6 16.52 18.6 16.2V7.80001C18.6 7.72001 18.58 7.64001 18.55 7.57001ZM13.32 17.16H8.03996V15.84H13.32V17.16ZM13.32 14.52H8.03996V13.2H13.32V14.52ZM11.46 11.34V8.04001L14.76 11.34H11.46ZM17.4 16.2H16.2V10.2C16.2 10.12 16.19 10.04 16.15 9.97001C16.12 9.90001 16.08 9.83001 16.02 9.78001L13.02 6.78001C12.97 6.72001 12.9 6.68001 12.83 6.65001C12.76 6.62001 12.68 6.60001 12.6 6.60001H8.99996V5.40001H14.75L17.4 8.05001V16.2Z" fill="#1E1E1E"/>
</svg>
