<svg width="24" height="24" viewBox="0 0 24 24" fill="none" xmlns="http://www.w3.org/2000/svg">
<path d="M18.4245 8.57545L14.2245 4.37545C14.1688 4.31975 14.1026 4.27558 14.0297 4.24547C13.9569 4.21536 13.8788 4.19989 13.8 4.19995H6.60002C6.28176 4.19995 5.97654 4.32638 5.7515 4.55142C5.52645 4.77647 5.40002 5.08169 5.40002 5.39995V18.6C5.40002 18.9182 5.52645 19.2234 5.7515 19.4485C5.97654 19.6735 6.28176 19.8 6.60002 19.8H17.4C17.7183 19.8 18.0235 19.6735 18.2486 19.4485C18.4736 19.2234 18.6 18.9182 18.6 18.6V8.99995C18.6001 8.92113 18.5846 8.84308 18.5545 8.77024C18.5244 8.6974 18.4802 8.63121 18.4245 8.57545ZM14.4 6.2482L16.5518 8.39995H14.4V6.2482ZM17.4 18.6H6.60002V5.39995H13.2V8.99995C13.2 9.15908 13.2632 9.31169 13.3758 9.42422C13.4883 9.53674 13.6409 9.59995 13.8 9.59995H17.4V18.6ZM15 12.6C15 12.7591 14.9368 12.9117 14.8243 13.0242C14.7118 13.1367 14.5592 13.2 14.4 13.2H9.60002C9.44089 13.2 9.28828 13.1367 9.17576 13.0242C9.06324 12.9117 9.00002 12.7591 9.00002 12.6C9.00002 12.4408 9.06324 12.2882 9.17576 12.1757C9.28828 12.0632 9.44089 12 9.60002 12H14.4C14.5592 12 14.7118 12.0632 14.8243 12.1757C14.9368 12.2882 15 12.4408 15 12.6ZM15 15C15 15.1591 14.9368 15.3117 14.8243 15.4242C14.7118 15.5367 14.5592 15.6 14.4 15.6H9.60002C9.44089 15.6 9.28828 15.5367 9.17576 15.4242C9.06324 15.3117 9.00002 15.1591 9.00002 15C9.00002 14.8408 9.06324 14.6882 9.17576 14.5757C9.28828 14.4632 9.44089 14.4 9.60002 14.4H14.4C14.5592 14.4 14.7118 14.4632 14.8243 14.5757C14.9368 14.6882 15 14.8408 15 15Z" fill="#1E1E1E"/>
</svg>
