<svg width="24" height="24" viewBox="0 0 24 24" fill="none" xmlns="http://www.w3.org/2000/svg">
<path d="M18.4245 7.37545L15.4245 4.37545C15.3688 4.31975 15.3026 4.27558 15.2297 4.24547C15.1569 4.21536 15.0788 4.19989 15 4.19995H9.00002C8.68176 4.19995 8.37654 4.32638 8.1515 4.55142C7.92645 4.77647 7.80002 5.08169 7.80002 5.39995V6.59995H6.60002C6.28176 6.59995 5.97654 6.72638 5.7515 6.95142C5.52645 7.17647 5.40002 7.48169 5.40002 7.79995V18.6C5.40002 18.9182 5.52645 19.2234 5.7515 19.4485C5.97654 19.6735 6.28176 19.8 6.60002 19.8H15C15.3183 19.8 15.6235 19.6735 15.8486 19.4485C16.0736 19.2234 16.2 18.9182 16.2 18.6V17.4H17.4C17.7183 17.4 18.0235 17.2735 18.2486 17.0485C18.4736 16.8234 18.6 16.5182 18.6 16.2V7.79995C18.6001 7.72114 18.5846 7.64308 18.5545 7.57024C18.5244 7.4974 18.4802 7.43121 18.4245 7.37545ZM15 18.6H6.60002V7.79995H12.3518L15 10.4482V16.788C15 16.7925 15 16.7962 15 16.8C15 16.8037 15 16.8075 15 16.812V18.6ZM17.4 16.2H16.2V10.2C16.2001 10.1211 16.1846 10.0431 16.1545 9.97024C16.1244 9.8974 16.0802 9.83121 16.0245 9.77545L13.0245 6.77545C12.9688 6.71975 12.9026 6.67558 12.8297 6.64547C12.7569 6.61536 12.6788 6.59989 12.6 6.59995H9.00002V5.39995H14.7518L17.4 8.0482V16.2ZM13.2 13.8C13.2 13.9591 13.1368 14.1117 13.0243 14.2242C12.9118 14.3367 12.7592 14.4 12.6 14.4H9.00002C8.84089 14.4 8.68828 14.3367 8.57576 14.2242C8.46324 14.1117 8.40002 13.9591 8.40002 13.8C8.40002 13.6408 8.46324 13.4882 8.57576 13.3757C8.68828 13.2632 8.84089 13.2 9.00002 13.2H12.6C12.7592 13.2 12.9118 13.2632 13.0243 13.3757C13.1368 13.4882 13.2 13.6408 13.2 13.8ZM13.2 16.2C13.2 16.3591 13.1368 16.5117 13.0243 16.6242C12.9118 16.7367 12.7592 16.8 12.6 16.8H9.00002C8.84089 16.8 8.68828 16.7367 8.57576 16.6242C8.46324 16.5117 8.40002 16.3591 8.40002 16.2C8.40002 16.0408 8.46324 15.8882 8.57576 15.7757C8.68828 15.6632 8.84089 15.6 9.00002 15.6H12.6C12.7592 15.6 12.9118 15.6632 13.0243 15.7757C13.1368 15.8882 13.2 16.0408 13.2 16.2Z" fill="#1E1E1E"/>
</svg>
