<svg width="24" height="24" viewBox="0 0 24 24" fill="none" xmlns="http://www.w3.org/2000/svg">
<path d="M11.1666 17H12.8333V14.5H15.3333V12.8334H12.8333V10.3334H11.1666V12.8334H8.66665V14.5H11.1666V17ZM6.99998 20.3334C6.54165 20.3334 6.14929 20.1702 5.8229 19.8438C5.49651 19.5174 5.33331 19.125 5.33331 18.6667V5.33335C5.33331 4.87502 5.49651 4.48266 5.8229 4.15627C6.14929 3.82988 6.54165 3.66669 6.99998 3.66669H13.6666L18.6666 8.66669V18.6667C18.6666 19.125 18.5035 19.5174 18.1771 19.8438C17.8507 20.1702 17.4583 20.3334 17 20.3334H6.99998ZM12.8333 9.50002H17L12.8333 5.33335V9.50002Z" fill="#1E1E1E"/>
</svg>
