<svg width="24" height="24" viewBox="0 0 24 24" fill="none" xmlns="http://www.w3.org/2000/svg">
<path d="M8.66671 17H15.3334V15.3333H8.66671V17ZM8.66671 13.6666H15.3334V12H8.66671V13.6666ZM7.00004 20.3333C6.54171 20.3333 6.14935 20.1701 5.82296 19.8437C5.49657 19.5173 5.33337 19.125 5.33337 18.6666V5.33329C5.33337 4.87496 5.49657 4.4826 5.82296 4.15621C6.14935 3.82982 6.54171 3.66663 7.00004 3.66663H13.6667L18.6667 8.66663V18.6666C18.6667 19.125 18.5035 19.5173 18.1771 19.8437C17.8507 20.1701 17.4584 20.3333 17 20.3333H7.00004ZM12.8334 9.49996H17L12.8334 5.33329V9.49996Z" fill="#1E1E1E"/>
</svg>
