<svg width="24" height="24" viewBox="0 0 24 24" fill="none" xmlns="http://www.w3.org/2000/svg">
<path d="M18.6667 9.50004V7.00004H16.1667V5.33337H18.6667C19.125 5.33337 19.5174 5.49657 19.8438 5.82296C20.1702 6.14935 20.3334 6.54171 20.3334 7.00004V9.50004H18.6667ZM3.66669 9.50004V7.00004C3.66669 6.54171 3.82988 6.14935 4.15627 5.82296C4.48266 5.49657 4.87502 5.33337 5.33335 5.33337H7.83335V7.00004H5.33335V9.50004H3.66669ZM16.1667 18.6667V17H18.6667V14.5H20.3334V17C20.3334 17.4584 20.1702 17.8507 19.8438 18.1771C19.5174 18.5035 19.125 18.6667 18.6667 18.6667H16.1667ZM5.33335 18.6667C4.87502 18.6667 4.48266 18.5035 4.15627 18.1771C3.82988 17.8507 3.66669 17.4584 3.66669 17V14.5H5.33335V17H7.83335V18.6667H5.33335ZM7.00002 15.3334V8.66671H17V15.3334H7.00002Z" fill="#1E1E1E"/>
</svg>
