<svg width="24" height="24" viewBox="0 0 24 24" fill="none" xmlns="http://www.w3.org/2000/svg">
<path d="M19.7594 5.80856C19.6503 5.75902 19.5292 5.74188 19.4107 5.7592C19.2921 5.77651 19.181 5.82754 19.0906 5.90621C16.9031 7.7984 15.05 6.88121 12.9023 5.81793C10.6773 4.71559 8.15469 3.46793 5.34062 5.90621C5.27339 5.96449 5.21937 6.03646 5.18218 6.1173C5.145 6.19814 5.1255 6.28598 5.125 6.37496V19.5C5.125 19.6657 5.19085 19.8247 5.30806 19.9419C5.42527 20.0591 5.58424 20.125 5.75 20.125C5.91576 20.125 6.07473 20.0591 6.19194 19.9419C6.30915 19.8247 6.375 19.6657 6.375 19.5V16.0445C8.46797 14.3914 10.2711 15.2828 12.3477 16.3109C13.6289 16.9445 15.0086 17.6273 16.4883 17.6273C17.5766 17.6273 18.718 17.2562 19.9117 16.2211C19.979 16.1628 20.033 16.0908 20.0702 16.01C20.1073 15.9291 20.1268 15.8413 20.1273 15.7523V6.37496C20.1267 6.25522 20.0917 6.13818 20.0265 6.03777C19.9612 5.93736 19.8685 5.8578 19.7594 5.80856ZM6.375 14.5343V10.5843C7.69141 9.70309 8.925 9.67887 10.125 10.0109V14.0531C8.94297 13.7554 7.69297 13.7742 6.375 14.5343ZM10.125 5.97418C10.8477 6.19528 11.5789 6.55621 12.3477 6.93668C13.2273 7.37184 14.1531 7.82965 15.125 8.07418V12.1164C16.3242 12.4484 17.5578 12.4242 18.875 11.5422V15.457C17.557 16.4976 16.3539 16.5289 15.125 16.1531V12.1164C13.4359 11.6476 11.8141 10.4757 10.125 10.0109V5.97418Z" fill="#1E1E1E"/>
</svg>
