<svg width="24" height="24" viewBox="0 0 24 24" fill="none" xmlns="http://www.w3.org/2000/svg">
<path d="M5.60702 6.14998C5.54248 6.20593 5.49062 6.27502 5.45492 6.35262C5.41922 6.43023 5.40051 6.51456 5.40002 6.59998V19.2C5.40002 19.3591 5.46324 19.5117 5.57576 19.6242C5.68828 19.7368 5.84089 19.8 6.00002 19.8C6.15915 19.8 6.31177 19.7368 6.42429 19.6242C6.53681 19.5117 6.60002 19.3591 6.60002 19.2V15.8827C8.60927 14.2957 10.3403 15.1515 12.3338 16.1385C13.5638 16.7467 14.8883 17.4022 16.3088 17.4022C17.3535 17.4022 18.4493 17.046 19.5953 16.0522C19.6598 15.9963 19.7117 15.9272 19.7474 15.8496C19.7831 15.772 19.8018 15.6877 19.8023 15.6022V6.59998C19.802 6.48481 19.7686 6.37216 19.706 6.27547C19.6435 6.17878 19.5544 6.10213 19.4495 6.05468C19.3445 6.00724 19.2282 5.99099 19.1142 6.00789C19.0003 6.02479 18.8937 6.07411 18.807 6.14998C16.707 7.96723 14.928 7.08673 12.8663 6.06598C10.7303 5.00698 8.30852 3.80923 5.60702 6.14998ZM18.6 15.3187C16.5908 16.9057 14.8598 16.0492 12.8663 15.063C10.9913 14.1367 8.90552 13.1032 6.60002 14.433V6.88423C8.60927 5.29723 10.3403 6.15298 12.3338 7.13923C14.2088 8.06548 16.2953 9.09898 18.6 7.76923V15.3187Z" fill="#1E1E1E"/>
</svg>
