<svg width="24" height="24" viewBox="0 0 24 24" fill="none" xmlns="http://www.w3.org/2000/svg">
<path d="M5.33329 18.6666C4.87496 18.6666 4.4826 18.5035 4.15621 18.1771C3.82982 17.8507 3.66663 17.4583 3.66663 17V6.99998C3.66663 6.54165 3.82982 6.14929 4.15621 5.8229C4.4826 5.49651 4.87496 5.33331 5.33329 5.33331H10.3333L12 6.99998H18.6666C19.125 6.99998 19.5173 7.16317 19.8437 7.48956C20.1701 7.81595 20.3333 8.20831 20.3333 8.66665V17C20.3333 17.4583 20.1701 17.8507 19.8437 18.1771C19.5173 18.5035 19.125 18.6666 18.6666 18.6666H5.33329ZM6.99996 15.3333H13.6666V13.6666H6.99996V15.3333ZM6.99996 12H17V10.3333H6.99996V12Z" fill="#1E1E1E"/>
</svg>
