<svg width="24" height="24" viewBox="0 0 24 24" fill="none" xmlns="http://www.w3.org/2000/svg">
<path d="M4.70835 18.6666C4.25002 18.6666 3.85766 18.5035 3.53127 18.1771C3.20488 17.8507 3.04169 17.4583 3.04169 17V6.99998C3.04169 6.54165 3.20488 6.14929 3.53127 5.8229C3.85766 5.49651 4.25002 5.33331 4.70835 5.33331H9.70835L11.375 6.99998H18.0417C18.5 6.99998 18.8924 7.16317 19.2188 7.48956C19.5452 7.81595 19.7084 8.20831 19.7084 8.66665H4.70835V17L6.70835 10.3333H20.9584L18.8125 17.4791C18.7014 17.8403 18.4965 18.1285 18.1979 18.3437C17.8993 18.559 17.5695 18.6666 17.2084 18.6666H4.70835Z" fill="#1E1E1E"/>
</svg>
