<svg width="24" height="24" viewBox="0 0 24 24" fill="none" xmlns="http://www.w3.org/2000/svg">
<path d="M9.5 18.25C9.5 18.4158 9.43415 18.5747 9.31694 18.6919C9.19973 18.8092 9.04076 18.875 8.875 18.875H5.07656C4.75802 18.8746 4.45263 18.7479 4.22739 18.5226C4.00214 18.2974 3.87541 17.992 3.875 17.6734V17C3.875 16.8342 3.94085 16.6753 4.05806 16.5581C4.17527 16.4409 4.33424 16.375 4.5 16.375C4.66576 16.375 4.82473 16.4409 4.94194 16.5581C5.05915 16.6753 5.125 16.8342 5.125 17V17.625H8.875C9.04076 17.625 9.19973 17.6909 9.31694 17.8081C9.43415 17.9253 9.5 18.0842 9.5 18.25ZM14.5 17.625H12C11.8342 17.625 11.6753 17.6909 11.5581 17.8081C11.4408 17.9253 11.375 18.0842 11.375 18.25C11.375 18.4158 11.4408 18.5747 11.5581 18.6919C11.6753 18.8092 11.8342 18.875 12 18.875H14.5C14.6658 18.875 14.8247 18.8092 14.9419 18.6919C15.0592 18.5747 15.125 18.4158 15.125 18.25C15.125 18.0842 15.0592 17.9253 14.9419 17.8081C14.8247 17.6909 14.6658 17.625 14.5 17.625ZM19.5 13.25C19.3342 13.25 19.1753 13.3159 19.0581 13.4331C18.9408 13.5503 18.875 13.7092 18.875 13.875V17.625H17.625C17.4592 17.625 17.3003 17.6909 17.1831 17.8081C17.0658 17.9253 17 18.0842 17 18.25C17 18.4158 17.0658 18.5747 17.1831 18.6919C17.3003 18.8092 17.4592 18.875 17.625 18.875H18.9445C19.2575 18.8746 19.5575 18.7501 19.7788 18.5288C20.0001 18.3075 20.1246 18.0075 20.125 17.6945V13.875C20.125 13.7092 20.0592 13.5503 19.9419 13.4331C19.8247 13.3159 19.6658 13.25 19.5 13.25ZM18.875 7.62501H15.125C14.9592 7.62501 14.8003 7.69085 14.6831 7.80806C14.5658 7.92528 14.5 8.08425 14.5 8.25001C14.5 8.41577 14.5658 8.57474 14.6831 8.69195C14.8003 8.80916 14.9592 8.87501 15.125 8.87501H18.875V10.75C18.875 10.9158 18.9408 11.0747 19.0581 11.1919C19.1753 11.3092 19.3342 11.375 19.5 11.375C19.6658 11.375 19.8247 11.3092 19.9419 11.1919C20.0592 11.0747 20.125 10.9158 20.125 10.75V8.87501C20.125 8.54349 19.9933 8.22554 19.7589 7.99112C19.5245 7.7567 19.2065 7.62501 18.875 7.62501ZM4.5 8.87501H12C12.1237 8.8751 12.2446 8.8385 12.3475 8.76983C12.4504 8.70116 12.5305 8.60352 12.5779 8.48925C12.6252 8.37499 12.6376 8.24924 12.6135 8.12794C12.5893 8.00664 12.5297 7.89523 12.4422 7.80782L10.125 5.49141C10.0093 5.37483 9.87168 5.28241 9.71999 5.21951C9.5683 5.1566 9.40562 5.12448 9.24141 5.12501H5.125C4.79348 5.12501 4.47554 5.2567 4.24112 5.49112C4.0067 5.72554 3.875 6.04349 3.875 6.37501V8.25001C3.875 8.41577 3.94085 8.57474 4.05806 8.69195C4.17527 8.80916 4.33424 8.87501 4.5 8.87501ZM4.5 14.5C4.66576 14.5 4.82473 14.4342 4.94194 14.3169C5.05915 14.1997 5.125 14.0408 5.125 13.875V11.375C5.125 11.2092 5.05915 11.0503 4.94194 10.9331C4.82473 10.8159 4.66576 10.75 4.5 10.75C4.33424 10.75 4.17527 10.8159 4.05806 10.9331C3.94085 11.0503 3.875 11.2092 3.875 11.375V13.875C3.875 14.0408 3.94085 14.1997 4.05806 14.3169C4.17527 14.4342 4.33424 14.5 4.5 14.5Z" fill="#1E1E1E"/>
</svg>
