<svg width="24" height="24" viewBox="0 0 24 24" fill="none" xmlns="http://www.w3.org/2000/svg">
<path d="M4.49998 19.9166C4.04165 19.9166 3.64929 19.7535 3.3229 19.4271C2.99651 19.1007 2.83331 18.7083 2.83331 18.25V7.41665H4.49998V18.25H18.6666V19.9166H4.49998ZM7.83331 16.5833C7.37498 16.5833 6.98262 16.4201 6.65623 16.0937C6.32984 15.7673 6.16665 15.375 6.16665 14.9166V5.74998C6.16665 5.29165 6.32984 4.89929 6.65623 4.5729C6.98262 4.24651 7.37498 4.08331 7.83331 4.08331H12L13.6666 5.74998H19.5C19.9583 5.74998 20.3507 5.91317 20.6771 6.23956C21.0035 6.56595 21.1666 6.95831 21.1666 7.41665V14.9166C21.1666 15.375 21.0035 15.7673 20.6771 16.0937C20.3507 16.4201 19.9583 16.5833 19.5 16.5833H7.83331Z" fill="#1E1E1E"/>
</svg>
