<svg width="24" height="24" viewBox="0 0 24 24" fill="none" xmlns="http://www.w3.org/2000/svg">
<path d="M5.33337 19.0758C4.63893 19.0758 4.04865 18.8328 3.56254 18.3467C3.07643 17.8606 2.83337 17.2703 2.83337 16.5758C2.83337 16.2147 2.90282 15.871 3.04171 15.5446C3.1806 15.2182 3.38893 14.937 3.66671 14.7008V10.7425H5.33337V5.74251H12L15.9167 14.9717C16 15.1661 16.0625 15.3606 16.1042 15.555C16.1459 15.7495 16.1667 15.9508 16.1667 16.1592C16.1667 16.9647 15.882 17.6522 15.3125 18.2217C14.7431 18.7911 14.0556 19.0758 13.25 19.0758C12.6806 19.0758 12.1563 18.9265 11.6771 18.6279C11.198 18.3293 10.8403 17.9231 10.6042 17.4092H7.68754C7.50699 17.9092 7.20143 18.312 6.77087 18.6175C6.34032 18.9231 5.86115 19.0758 5.33337 19.0758ZM17 18.2425V4.90918H18.6667V16.5758H21.1667V18.2425H17ZM5.33337 17.4092C5.56949 17.4092 5.7674 17.3293 5.92712 17.1696C6.08685 17.0099 6.16671 16.812 6.16671 16.5758C6.16671 16.3397 6.08685 16.1418 5.92712 15.9821C5.7674 15.8224 5.56949 15.7425 5.33337 15.7425C5.09726 15.7425 4.89935 15.8224 4.73962 15.9821C4.5799 16.1418 4.50004 16.3397 4.50004 16.5758C4.50004 16.812 4.5799 17.0099 4.73962 17.1696C4.89935 17.3293 5.09726 17.4092 5.33337 17.4092ZM13.25 17.4092C13.5973 17.4092 13.8924 17.2877 14.1355 17.0446C14.3785 16.8015 14.5 16.5064 14.5 16.1592C14.5 15.812 14.3785 15.5168 14.1355 15.2738C13.8924 15.0307 13.5973 14.9092 13.25 14.9092C12.9028 14.9092 12.6077 15.0307 12.3646 15.2738C12.1216 15.5168 12 15.812 12 16.1592C12 16.5064 12.1216 16.8015 12.3646 17.0446C12.6077 17.2877 12.9028 17.4092 13.25 17.4092ZM9.43754 13.2425H13.375L10.8959 7.40918H7.00004V10.7425L9.43754 13.2425Z" fill="#1E1E1E"/>
</svg>
