<svg width="24" height="24" viewBox="0 0 24 24" fill="none" xmlns="http://www.w3.org/2000/svg">
<path d="M16.8 13.2H7.19998C7.04085 13.2 6.88823 13.1368 6.77571 13.0243C6.66319 12.9118 6.59998 12.7592 6.59998 12.6C6.59998 12.4409 6.66319 12.2883 6.77571 12.1758C6.88823 12.0632 7.04085 12 7.19998 12H16.8C16.9591 12 17.1117 12.0632 17.2242 12.1758C17.3368 12.2883 17.4 12.4409 17.4 12.6C17.4 12.7592 17.3368 12.9118 17.2242 13.0243C17.1117 13.1368 16.9591 13.2 16.8 13.2ZM19.8 8.40002H4.19998C4.04085 8.40002 3.88823 8.46324 3.77571 8.57576C3.66319 8.68828 3.59998 8.84089 3.59998 9.00002C3.59998 9.15915 3.66319 9.31177 3.77571 9.42429C3.88823 9.53681 4.04085 9.60002 4.19998 9.60002H19.8C19.9591 9.60002 20.1117 9.53681 20.2242 9.42429C20.3368 9.31177 20.4 9.15915 20.4 9.00002C20.4 8.84089 20.3368 8.68828 20.2242 8.57576C20.1117 8.46324 19.9591 8.40002 19.8 8.40002ZM12 15.6H10.2C10.0408 15.6 9.88823 15.6632 9.77571 15.7758C9.66319 15.8883 9.59998 16.0409 9.59998 16.2C9.59998 16.3592 9.66319 16.5118 9.77571 16.6243C9.88823 16.7368 10.0408 16.8 10.2 16.8H12C12.1591 16.8 12.3117 16.7368 12.4242 16.6243C12.5368 16.5118 12.6 16.3592 12.6 16.2C12.6 16.0409 12.5368 15.8883 12.4242 15.7758C12.3117 15.6632 12.1591 15.6 12 15.6ZM19.0245 15.1755C18.9688 15.1197 18.9026 15.0755 18.8297 15.0453C18.7569 15.0151 18.6788 14.9996 18.6 14.9996C18.5211 14.9996 18.443 15.0151 18.3702 15.0453C18.2974 15.0755 18.2312 15.1197 18.1755 15.1755L16.8 16.5518L15.4245 15.1755C15.3119 15.0629 15.1592 14.9997 15 14.9997C14.8408 14.9997 14.6881 15.0629 14.5755 15.1755C14.4629 15.2881 14.3996 15.4408 14.3996 15.6C14.3996 15.7592 14.4629 15.9119 14.5755 16.0245L15.9517 17.4L14.5755 18.7755C14.4629 18.8881 14.3996 19.0408 14.3996 19.2C14.3996 19.3592 14.4629 19.5119 14.5755 19.6245C14.6881 19.7371 14.8408 19.8004 15 19.8004C15.1592 19.8004 15.3119 19.7371 15.4245 19.6245L16.8 18.2483L18.1755 19.6245C18.2312 19.6803 18.2974 19.7245 18.3702 19.7547C18.4431 19.7848 18.5211 19.8004 18.6 19.8004C18.6788 19.8004 18.7569 19.7848 18.8297 19.7547C18.9025 19.7245 18.9687 19.6803 19.0245 19.6245C19.0802 19.5688 19.1244 19.5026 19.1546 19.4298C19.1848 19.3569 19.2003 19.2789 19.2003 19.2C19.2003 19.1212 19.1848 19.0431 19.1546 18.9703C19.1244 18.8975 19.0802 18.8313 19.0245 18.7755L17.6482 17.4L19.0245 16.0245C19.0803 15.9688 19.1245 15.9026 19.1547 15.8298C19.1849 15.757 19.2004 15.6789 19.2004 15.6C19.2004 15.5212 19.1849 15.4431 19.1547 15.3703C19.1245 15.2974 19.0803 15.2312 19.0245 15.1755Z" fill="#1E1E1E"/>
</svg>
