<svg width="24" height="24" viewBox="0 0 24 24" fill="none" xmlns="http://www.w3.org/2000/svg">
<path d="M17.4 12.6C17.4 12.7592 17.3368 12.9118 17.2242 13.0243C17.1117 13.1368 16.9591 13.2 16.8 13.2H7.19998C7.04085 13.2 6.88823 13.1368 6.77571 13.0243C6.66319 12.9118 6.59998 12.7592 6.59998 12.6C6.59998 12.4409 6.66319 12.2883 6.77571 12.1758C6.88823 12.0632 7.04085 12 7.19998 12H16.8C16.9591 12 17.1117 12.0632 17.2242 12.1758C17.3368 12.2883 17.4 12.4409 17.4 12.6ZM19.8 8.40002H4.19998C4.04085 8.40002 3.88823 8.46324 3.77571 8.57576C3.66319 8.68828 3.59998 8.84089 3.59998 9.00002C3.59998 9.15915 3.66319 9.31177 3.77571 9.42429C3.88823 9.53681 4.04085 9.60002 4.19998 9.60002H19.8C19.9591 9.60002 20.1117 9.53681 20.2242 9.42429C20.3368 9.31177 20.4 9.15915 20.4 9.00002C20.4 8.84089 20.3368 8.68828 20.2242 8.57576C20.1117 8.46324 19.9591 8.40002 19.8 8.40002ZM13.8 15.6H10.2C10.0408 15.6 9.88823 15.6632 9.77571 15.7758C9.66319 15.8883 9.59998 16.0409 9.59998 16.2C9.59998 16.3592 9.66319 16.5118 9.77571 16.6243C9.88823 16.7368 10.0408 16.8 10.2 16.8H13.8C13.9591 16.8 14.1117 16.7368 14.2242 16.6243C14.3368 16.5118 14.4 16.3592 14.4 16.2C14.4 16.0409 14.3368 15.8883 14.2242 15.7758C14.1117 15.6632 13.9591 15.6 13.8 15.6Z" fill="#1E1E1E"/>
</svg>
