<svg width="24" height="24" viewBox="0 0 24 24" fill="none" xmlns="http://www.w3.org/2000/svg">
<path d="M20.4 16.8H19.8V9.80022C19.8 9.60274 19.7513 9.40831 19.6581 9.23417C19.565 9.06003 19.4303 8.91158 19.266 8.80197L12.666 4.40172C12.4689 4.27032 12.2373 4.2002 12.0004 4.2002C11.7635 4.2002 11.5319 4.27032 11.3348 4.40172L4.73475 8.80197C4.57033 8.91149 4.4355 9.05991 4.34221 9.23405C4.24893 9.40819 4.20008 9.60267 4.2 9.80022V16.8H3.6C3.44087 16.8 3.28826 16.8632 3.17574 16.9757C3.06321 17.0882 3 17.2408 3 17.4C3 17.5591 3.06321 17.7117 3.17574 17.8242C3.28826 17.9368 3.44087 18 3.6 18H20.4C20.5591 18 20.7117 17.9368 20.8243 17.8242C20.9368 17.7117 21 17.5591 21 17.4C21 17.2408 20.9368 17.0882 20.8243 16.9757C20.7117 16.8632 20.5591 16.8 20.4 16.8ZM5.4 9.80022L12 5.39997L18.6 9.79947V16.8H16.8V12.6C16.8 12.4408 16.7368 12.2882 16.6243 12.1757C16.5117 12.0632 16.3591 12 16.2 12H7.8C7.64087 12 7.48826 12.0632 7.37574 12.1757C7.26321 12.2882 7.2 12.4408 7.2 12.6V16.8H5.4V9.80022ZM15.6 13.2V14.4H12.6V13.2H15.6ZM11.4 14.4H8.4V13.2H11.4V14.4ZM8.4 15.6H11.4V16.8H8.4V15.6ZM12.6 15.6H15.6V16.8H12.6V15.6Z" fill="#1E1E1E"/>
</svg>
