<svg width="24" height="24" viewBox="0 0 24 24" fill="none" xmlns="http://www.w3.org/2000/svg">
<path d="M19.3336 9.09846C19.3081 9.05976 19.2742 9.02723 19.2345 9.00324C19.1948 8.97925 19.1503 8.96439 19.1041 8.95975C19.058 8.95512 19.0114 8.96081 18.9677 8.97642C18.924 8.99204 18.8844 9.01718 18.8516 9.05002L12.9594 14.9422C12.8402 15.0482 12.6849 15.1046 12.5254 15.0998C12.366 15.095 12.2144 15.0294 12.1017 14.9164C11.989 14.8034 11.9238 14.6517 11.9195 14.4922C11.9151 14.3327 11.9719 14.1776 12.0782 14.0586L19.3204 6.81721C19.3784 6.75914 19.4245 6.6902 19.4559 6.61433C19.4873 6.53846 19.5035 6.45714 19.5035 6.37502C19.5035 6.2929 19.4873 6.21158 19.4559 6.13571C19.4245 6.05984 19.3784 5.9909 19.3204 5.93284C19.2623 5.87477 19.1933 5.8287 19.1175 5.79728C19.0416 5.76585 18.9603 5.74968 18.8782 5.74968C18.796 5.74968 18.7147 5.76585 18.6389 5.79728C18.563 5.8287 18.494 5.87477 18.436 5.93284L17.3907 6.97893C15.8989 5.81383 14.0696 5.16366 12.1771 5.12589C10.2846 5.08812 8.4309 5.66478 6.8938 6.76942C5.3567 7.87406 4.21906 9.44717 3.65142 11.2529C3.08379 13.0587 3.11675 14.9997 3.74535 16.7852C3.83148 17.03 3.99125 17.2421 4.20275 17.3925C4.41425 17.5429 4.6671 17.6241 4.9266 17.625H19.0727C19.3319 17.6252 19.5848 17.5447 19.7963 17.3948C20.0078 17.2449 20.1675 17.033 20.2532 16.7883C20.6987 15.5216 20.8474 14.1696 20.688 12.8364C20.5286 11.5032 20.0652 10.2244 19.3336 9.09846ZM6.48754 15.0008C6.52048 15.1632 6.48754 15.3321 6.39597 15.4703C6.3044 15.6084 6.1617 15.7046 5.99926 15.7375C5.95813 15.7459 5.91624 15.7501 5.87426 15.75C5.7302 15.7498 5.59063 15.6999 5.47917 15.6086C5.3677 15.5174 5.29117 15.3904 5.26254 15.2492C5.03905 14.1491 5.08819 13.0109 5.40568 11.9341C5.72317 10.8572 6.29937 9.87445 7.08399 9.0715C7.8686 8.26854 8.8378 7.6698 9.90701 7.32751C10.9762 6.98523 12.113 6.90981 13.218 7.10784C13.3812 7.13705 13.5261 7.22989 13.6208 7.36593C13.7155 7.50196 13.7523 7.67006 13.7231 7.83323C13.6939 7.9964 13.601 8.14128 13.465 8.236C13.329 8.33072 13.1609 8.36752 12.9977 8.3383C12.0934 8.17641 11.1632 8.23824 10.2883 8.51841C9.41344 8.79857 8.62038 9.28856 7.97834 9.94562C7.33631 10.6027 6.86479 11.4069 6.60494 12.288C6.34508 13.1692 6.30478 14.1005 6.48754 15.0008Z" fill="#1E1E1E"/>
</svg>
