<svg width="24" height="24" viewBox="0 0 24 24" fill="none" xmlns="http://www.w3.org/2000/svg">
<path d="M12 20.3334C10.8472 20.3334 9.76391 20.1146 8.75002 19.6771C7.73613 19.2396 6.85419 18.6459 6.10419 17.8959C5.35419 17.1459 4.76044 16.2639 4.32294 15.25C3.88544 14.2361 3.66669 13.1528 3.66669 12C3.66669 10.8472 3.88544 9.76391 4.32294 8.75002C4.76044 7.73613 5.35419 6.85419 6.10419 6.10419C6.85419 5.35419 7.73613 4.76044 8.75002 4.32294C9.76391 3.88544 10.8472 3.66669 12 3.66669C13.1528 3.66669 14.2361 3.88544 15.25 4.32294C16.2639 4.76044 17.1459 5.35419 17.8959 6.10419C18.6459 6.85419 19.2396 7.73613 19.6771 8.75002C20.1146 9.76391 20.3334 10.8472 20.3334 12C20.3334 13.1528 20.1146 14.2361 19.6771 15.25C19.2396 16.2639 18.6459 17.1459 17.8959 17.8959C17.1459 18.6459 16.2639 19.2396 15.25 19.6771C14.2361 20.1146 13.1528 20.3334 12 20.3334ZM12 18.6667C13.8611 18.6667 15.4375 18.0209 16.7292 16.7292C18.0209 15.4375 18.6667 13.8611 18.6667 12C18.6667 11.9028 18.6632 11.8021 18.6563 11.6979C18.6493 11.5938 18.6459 11.507 18.6459 11.4375C18.5764 11.8403 18.3889 12.1736 18.0834 12.4375C17.7778 12.7014 17.4167 12.8334 17 12.8334H15.3334C14.875 12.8334 14.4827 12.6702 14.1563 12.3438C13.8299 12.0174 13.6667 11.625 13.6667 11.1667V10.3334H10.3334V8.66669C10.3334 8.20835 10.4965 7.81599 10.8229 7.4896C11.1493 7.16321 11.5417 7.00002 12 7.00002H12.8334C12.8334 6.68058 12.9202 6.39933 13.0938 6.15627C13.2674 5.91321 13.4792 5.7153 13.7292 5.56252C13.4514 5.49308 13.1702 5.43752 12.8854 5.39585C12.6007 5.35419 12.3056 5.33335 12 5.33335C10.1389 5.33335 8.56252 5.97919 7.27085 7.27085C5.97919 8.56252 5.33335 10.1389 5.33335 12H9.50002C10.4167 12 11.2014 12.3264 11.8542 12.9792C12.507 13.632 12.8334 14.4167 12.8334 15.3334V16.1667H10.3334V18.4584C10.6111 18.5278 10.8854 18.5799 11.1563 18.6146C11.4271 18.6493 11.7084 18.6667 12 18.6667Z" fill="#1E1E1E"/>
</svg>
