<svg width="24" height="24" viewBox="0 0 24 24" fill="none" xmlns="http://www.w3.org/2000/svg">
<path d="M12 20.3334C10.8611 20.3334 9.78474 20.1146 8.77085 19.6771C7.75696 19.2396 6.87155 18.6424 6.1146 17.8854C5.35766 17.1285 4.76044 16.2431 4.32294 15.2292C3.88544 14.2153 3.66669 13.1389 3.66669 12C3.66669 10.8472 3.88544 9.76738 4.32294 8.76044C4.76044 7.75349 5.35766 6.87155 6.1146 6.1146C6.87155 5.35766 7.75696 4.76044 8.77085 4.32294C9.78474 3.88544 10.8611 3.66669 12 3.66669C13.1528 3.66669 14.2327 3.88544 15.2396 4.32294C16.2465 4.76044 17.1285 5.35766 17.8854 6.1146C18.6424 6.87155 19.2396 7.75349 19.6771 8.76044C20.1146 9.76738 20.3334 10.8472 20.3334 12C20.3334 13.1389 20.1146 14.2153 19.6771 15.2292C19.2396 16.2431 18.6424 17.1285 17.8854 17.8854C17.1285 18.6424 16.2465 19.2396 15.2396 19.6771C14.2327 20.1146 13.1528 20.3334 12 20.3334ZM12 18.625C12.3611 18.125 12.6736 17.6042 12.9375 17.0625C13.2014 16.5209 13.4167 15.9445 13.5834 15.3334H10.4167C10.5834 15.9445 10.7986 16.5209 11.0625 17.0625C11.3264 17.6042 11.6389 18.125 12 18.625ZM9.83335 18.2917C9.58335 17.8334 9.3646 17.3577 9.1771 16.8646C8.9896 16.3715 8.83335 15.8611 8.70835 15.3334H6.25002C6.6528 16.0278 7.15627 16.632 7.76044 17.1459C8.3646 17.6597 9.05558 18.0417 9.83335 18.2917ZM14.1667 18.2917C14.9445 18.0417 15.6354 17.6597 16.2396 17.1459C16.8438 16.632 17.3472 16.0278 17.75 15.3334H15.2917C15.1667 15.8611 15.0104 16.3715 14.8229 16.8646C14.6354 17.3577 14.4167 17.8334 14.1667 18.2917ZM5.54169 13.6667H8.37502C8.33335 13.3889 8.3021 13.1146 8.28127 12.8438C8.26044 12.5729 8.25002 12.2917 8.25002 12C8.25002 11.7084 8.26044 11.4271 8.28127 11.1563C8.3021 10.8854 8.33335 10.6111 8.37502 10.3334H5.54169C5.47224 10.6111 5.42016 10.8854 5.38544 11.1563C5.35071 11.4271 5.33335 11.7084 5.33335 12C5.33335 12.2917 5.35071 12.5729 5.38544 12.8438C5.42016 13.1146 5.47224 13.3889 5.54169 13.6667ZM10.0417 13.6667H13.9584C14 13.3889 14.0313 13.1146 14.0521 12.8438C14.0729 12.5729 14.0834 12.2917 14.0834 12C14.0834 11.7084 14.0729 11.4271 14.0521 11.1563C14.0313 10.8854 14 10.6111 13.9584 10.3334H10.0417C10 10.6111 9.96877 10.8854 9.94794 11.1563C9.9271 11.4271 9.91669 11.7084 9.91669 12C9.91669 12.2917 9.9271 12.5729 9.94794 12.8438C9.96877 13.1146 10 13.3889 10.0417 13.6667ZM15.625 13.6667H18.4584C18.5278 13.3889 18.5799 13.1146 18.6146 12.8438C18.6493 12.5729 18.6667 12.2917 18.6667 12C18.6667 11.7084 18.6493 11.4271 18.6146 11.1563C18.5799 10.8854 18.5278 10.6111 18.4584 10.3334H15.625C15.6667 10.6111 15.6979 10.8854 15.7188 11.1563C15.7396 11.4271 15.75 11.7084 15.75 12C15.75 12.2917 15.7396 12.5729 15.7188 12.8438C15.6979 13.1146 15.6667 13.3889 15.625 13.6667ZM15.2917 8.66669H17.75C17.3472 7.97224 16.8438 7.36808 16.2396 6.85419C15.6354 6.3403 14.9445 5.95835 14.1667 5.70835C14.4167 6.16669 14.6354 6.64238 14.8229 7.13544C15.0104 7.62849 15.1667 8.13891 15.2917 8.66669ZM10.4167 8.66669H13.5834C13.4167 8.05558 13.2014 7.47919 12.9375 6.93752C12.6736 6.39585 12.3611 5.87502 12 5.37502C11.6389 5.87502 11.3264 6.39585 11.0625 6.93752C10.7986 7.47919 10.5834 8.05558 10.4167 8.66669ZM6.25002 8.66669H8.70835C8.83335 8.13891 8.9896 7.62849 9.1771 7.13544C9.3646 6.64238 9.58335 6.16669 9.83335 5.70835C9.05558 5.95835 8.3646 6.3403 7.76044 6.85419C7.15627 7.36808 6.6528 7.97224 6.25002 8.66669Z" fill="#1E1E1E"/>
</svg>
