<svg width="24" height="24" viewBox="0 0 24 24" fill="none" xmlns="http://www.w3.org/2000/svg">
<path d="M18.6 6H5.40001C5.08175 6 4.77653 6.12643 4.55148 6.35147C4.32644 6.57652 4.20001 6.88174 4.20001 7.2V16.8C4.20001 17.1183 4.32644 17.4235 4.55148 17.6485C4.77653 17.8736 5.08175 18 5.40001 18H18.6C18.9183 18 19.2235 17.8736 19.4485 17.6485C19.6736 17.4235 19.8 17.1183 19.8 16.8V7.2C19.8 6.88174 19.6736 6.57652 19.4485 6.35147C19.2235 6.12643 18.9183 6 18.6 6ZM10.2 13.2V10.8H13.8V13.2H10.2ZM13.8 14.4V16.8H10.2V14.4H13.8ZM5.40001 10.8H9.00001V13.2H5.40001V10.8ZM10.2 9.6V7.2H13.8V9.6H10.2ZM15 10.8H18.6V13.2H15V10.8ZM18.6 9.6H15V7.2H18.6V9.6ZM9.00001 7.2V9.6H5.40001V7.2H9.00001ZM5.40001 14.4H9.00001V16.8H5.40001V14.4ZM18.6 16.8H15V14.4H18.6V16.8Z" fill="#1E1E1E"/>
</svg>
