<svg width="24" height="24" viewBox="0 0 24 24" fill="none" xmlns="http://www.w3.org/2000/svg">
<path d="M9.49998 18.6666C9.04165 18.6666 8.64929 18.5035 8.3229 18.1771C7.99651 17.8507 7.83331 17.4583 7.83331 17C7.83331 16.5416 7.99651 16.1493 8.3229 15.8229C8.64929 15.4965 9.04165 15.3333 9.49998 15.3333C9.95831 15.3333 10.3507 15.4965 10.6771 15.8229C11.0035 16.1493 11.1666 16.5416 11.1666 17C11.1666 17.4583 11.0035 17.8507 10.6771 18.1771C10.3507 18.5035 9.95831 18.6666 9.49998 18.6666ZM14.5 18.6666C14.0416 18.6666 13.6493 18.5035 13.3229 18.1771C12.9965 17.8507 12.8333 17.4583 12.8333 17C12.8333 16.5416 12.9965 16.1493 13.3229 15.8229C13.6493 15.4965 14.0416 15.3333 14.5 15.3333C14.9583 15.3333 15.3507 15.4965 15.6771 15.8229C16.0035 16.1493 16.1666 16.5416 16.1666 17C16.1666 17.4583 16.0035 17.8507 15.6771 18.1771C15.3507 18.5035 14.9583 18.6666 14.5 18.6666ZM9.49998 13.6666C9.04165 13.6666 8.64929 13.5035 8.3229 13.1771C7.99651 12.8507 7.83331 12.4583 7.83331 12C7.83331 11.5416 7.99651 11.1493 8.3229 10.8229C8.64929 10.4965 9.04165 10.3333 9.49998 10.3333C9.95831 10.3333 10.3507 10.4965 10.6771 10.8229C11.0035 11.1493 11.1666 11.5416 11.1666 12C11.1666 12.4583 11.0035 12.8507 10.6771 13.1771C10.3507 13.5035 9.95831 13.6666 9.49998 13.6666ZM14.5 13.6666C14.0416 13.6666 13.6493 13.5035 13.3229 13.1771C12.9965 12.8507 12.8333 12.4583 12.8333 12C12.8333 11.5416 12.9965 11.1493 13.3229 10.8229C13.6493 10.4965 14.0416 10.3333 14.5 10.3333C14.9583 10.3333 15.3507 10.4965 15.6771 10.8229C16.0035 11.1493 16.1666 11.5416 16.1666 12C16.1666 12.4583 16.0035 12.8507 15.6771 13.1771C15.3507 13.5035 14.9583 13.6666 14.5 13.6666ZM9.49998 8.66665C9.04165 8.66665 8.64929 8.50345 8.3229 8.17706C7.99651 7.85067 7.83331 7.45831 7.83331 6.99998C7.83331 6.54165 7.99651 6.14929 8.3229 5.8229C8.64929 5.49651 9.04165 5.33331 9.49998 5.33331C9.95831 5.33331 10.3507 5.49651 10.6771 5.8229C11.0035 6.14929 11.1666 6.54165 11.1666 6.99998C11.1666 7.45831 11.0035 7.85067 10.6771 8.17706C10.3507 8.50345 9.95831 8.66665 9.49998 8.66665ZM14.5 8.66665C14.0416 8.66665 13.6493 8.50345 13.3229 8.17706C12.9965 7.85067 12.8333 7.45831 12.8333 6.99998C12.8333 6.54165 12.9965 6.14929 13.3229 5.8229C13.6493 5.49651 14.0416 5.33331 14.5 5.33331C14.9583 5.33331 15.3507 5.49651 15.6771 5.8229C16.0035 6.14929 16.1666 6.54165 16.1666 6.99998C16.1666 7.45831 16.0035 7.85067 15.6771 8.17706C15.3507 8.50345 14.9583 8.66665 14.5 8.66665Z" fill="#1E1E1E"/>
</svg>
