<svg width="24" height="24" viewBox="0 0 24 24" fill="none" xmlns="http://www.w3.org/2000/svg">
<path d="M19.2 8.99998H15.555L16.1902 5.50723C16.2157 5.35194 16.1792 5.19283 16.0885 5.06421C15.9978 4.93559 15.8602 4.84774 15.7054 4.8196C15.5506 4.79147 15.3909 4.8253 15.2607 4.9138C15.1306 5.0023 15.0404 5.13839 15.0097 5.29273L14.3347 8.99998H10.755L11.3902 5.50723C11.4157 5.35194 11.3792 5.19283 11.2885 5.06421C11.1978 4.93559 11.0602 4.84774 10.9054 4.8196C10.7506 4.79147 10.5909 4.8253 10.4607 4.9138C10.3306 5.0023 10.2404 5.13839 10.2097 5.29273L9.53545 8.99998H5.99995C5.84082 8.99998 5.68821 9.0632 5.57569 9.17572C5.46317 9.28824 5.39995 9.44085 5.39995 9.59998C5.39995 9.75911 5.46317 9.91173 5.57569 10.0242C5.68821 10.1368 5.84082 10.2 5.99995 10.2H9.3172L8.66245 13.8H4.79995C4.64082 13.8 4.48821 13.8632 4.37569 13.9757C4.26317 14.0882 4.19995 14.2409 4.19995 14.4C4.19995 14.5591 4.26317 14.7117 4.37569 14.8242C4.48821 14.9368 4.64082 15 4.79995 15H8.44495L7.8097 18.4927C7.78128 18.6493 7.8162 18.8107 7.90677 18.9415C7.99735 19.0723 8.13617 19.1618 8.2927 19.1902C8.32807 19.1968 8.36398 19.2 8.39995 19.2C8.54033 19.1998 8.67621 19.1504 8.78392 19.0603C8.89163 18.9703 8.96436 18.8454 8.98945 18.7072L9.66445 15H13.245L12.6097 18.4927C12.5813 18.6493 12.6162 18.8107 12.7068 18.9415C12.7974 19.0723 12.9362 19.1618 13.0927 19.1902C13.1281 19.1968 13.164 19.2 13.2 19.2C13.3403 19.1998 13.4762 19.1504 13.5839 19.0603C13.6916 18.9703 13.7644 18.8454 13.7895 18.7072L14.4645 15H18C18.1591 15 18.3117 14.9368 18.4242 14.8242C18.5367 14.7117 18.6 14.5591 18.6 14.4C18.6 14.2409 18.5367 14.0882 18.4242 13.9757C18.3117 13.8632 18.1591 13.8 18 13.8H14.6827L15.3375 10.2H19.2C19.3591 10.2 19.5117 10.1368 19.6242 10.0242C19.7367 9.91173 19.8 9.75911 19.8 9.59998C19.8 9.44085 19.7367 9.28824 19.6242 9.17572C19.5117 9.0632 19.3591 8.99998 19.2 8.99998ZM13.4625 13.8H9.8827L10.5375 10.2H14.1172L13.4625 13.8Z" fill="#1E1E1E"/>
</svg>
