<svg width="24" height="24" viewBox="0 0 24 24" fill="none" xmlns="http://www.w3.org/2000/svg">
<path d="M20.7 9.36981C20.52 8.03981 19.85 6.83981 18.83 6.01981C17.82 5.21981 16.53 4.85981 15.27 5.04981C13.68 5.27981 12.71 6.20981 12 7.54981C11.29 6.19981 10.32 5.27981 8.72999 5.04981C7.45999 4.86981 6.17999 5.21981 5.15999 6.02981C4.13999 6.83981 3.46999 8.03981 3.29999 9.36981C2.54999 15.0398 11.37 19.7298 11.71 19.9198C11.8 19.9698 11.9 19.9998 12 19.9998C12.1 19.9998 12.2 19.9698 12.29 19.9198C12.63 19.7298 21.45 15.0398 20.7 9.36981Z" fill="#1E1E1E"/>
</svg>
