<svg width="24" height="24" viewBox="0 0 24 24" fill="none" xmlns="http://www.w3.org/2000/svg">
<path fill-rule="evenodd" clip-rule="evenodd" d="M15.93 4.99976C15.71 4.99976 15.49 5.01976 15.27 5.04976C13.68 5.27976 12.71 6.20976 12 7.54976C11.29 6.19976 10.32 5.27976 8.72999 5.04976C8.50999 5.01976 8.28999 4.99976 8.06999 4.99976C7.02999 4.99976 6.00999 5.35976 5.15999 6.02976C4.13999 6.83976 3.46999 8.03976 3.29999 9.36976C2.54999 15.0398 11.37 19.7298 11.71 19.9198C11.8 19.9698 11.9 19.9998 12 19.9998C12.1 19.9998 12.2 19.9698 12.29 19.9198C12.63 19.7298 21.45 15.0398 20.7 9.36976C20.52 8.03976 19.85 6.83976 18.83 6.01976C17.99 5.35976 16.97 4.99976 15.93 4.99976ZM15.93 6.66976C16.61 6.66976 17.25 6.89976 17.8 7.32976C18.48 7.86976 18.93 8.68976 19.05 9.58976C19.49 12.8998 15.03 16.4198 12 18.1798C8.97 16.4198 4.50999 12.8998 4.94999 9.58976C5.06999 8.68976 5.52999 7.86976 6.2 7.32976C6.74999 6.89976 7.39 6.66976 8.06999 6.66976C8.20999 6.66976 8.34999 6.67976 8.48999 6.69976C9.39999 6.82976 9.99 7.29976 10.52 8.32976C10.81 8.87976 11.38 9.21976 11.99 9.21976C12.6 9.21976 13.18 8.87976 13.46 8.32976C14 7.30976 14.59 6.83976 15.49 6.69976C15.63 6.67976 15.77 6.66976 15.91 6.66976" fill="#1E1E1E"/>
</svg>
