<svg width="24" height="24" viewBox="0 0 24 24" fill="none" xmlns="http://www.w3.org/2000/svg">
<path d="M12 17C12.2917 17 12.5382 16.8993 12.7396 16.6979C12.941 16.4965 13.0417 16.25 13.0417 15.9583C13.0417 15.6667 12.941 15.4201 12.7396 15.2188C12.5382 15.0174 12.2917 14.9167 12 14.9167C11.7083 14.9167 11.4618 15.0174 11.2604 15.2188C11.059 15.4201 10.9583 15.6667 10.9583 15.9583C10.9583 16.25 11.059 16.4965 11.2604 16.6979C11.4618 16.8993 11.7083 17 12 17ZM11.25 13.7917H12.7917C12.7917 13.2917 12.8472 12.9236 12.9583 12.6875C13.0694 12.4514 13.3056 12.1528 13.6667 11.7917C14.1528 11.3056 14.4965 10.8993 14.6979 10.5729C14.8993 10.2465 15 9.875 15 9.45833C15 8.72222 14.75 8.12847 14.25 7.67708C13.75 7.22569 13.0764 7 12.2292 7C11.4653 7 10.816 7.1875 10.2812 7.5625C9.74653 7.9375 9.375 8.45833 9.16667 9.125L10.5417 9.66667C10.6389 9.29167 10.8333 8.98958 11.125 8.76042C11.4167 8.53125 11.7569 8.41667 12.1458 8.41667C12.5208 8.41667 12.8333 8.51736 13.0833 8.71875C13.3333 8.92014 13.4583 9.1875 13.4583 9.52083C13.4583 9.75694 13.3819 10.0069 13.2292 10.2708C13.0764 10.5347 12.8194 10.8264 12.4583 11.1458C12 11.5486 11.684 11.934 11.5104 12.3021C11.3368 12.6701 11.25 13.1667 11.25 13.7917ZM6.16667 19.5C5.70833 19.5 5.31597 19.3368 4.98958 19.0104C4.66319 18.684 4.5 18.2917 4.5 17.8333V6.16667C4.5 5.70833 4.66319 5.31597 4.98958 4.98958C5.31597 4.66319 5.70833 4.5 6.16667 4.5H17.8333C18.2917 4.5 18.684 4.66319 19.0104 4.98958C19.3368 5.31597 19.5 5.70833 19.5 6.16667V17.8333C19.5 18.2917 19.3368 18.684 19.0104 19.0104C18.684 19.3368 18.2917 19.5 17.8333 19.5H6.16667Z" fill="#1E1E1E"/>
</svg>
