<svg width="24" height="24" viewBox="0 0 24 24" fill="none" xmlns="http://www.w3.org/2000/svg">
<path d="M20.4 18H19.2V12.6L19.3755 12.7755C19.4883 12.8881 19.6412 12.9513 19.8005 12.9511C19.9599 12.951 20.1127 12.8876 20.2253 12.7748C20.3378 12.662 20.401 12.5091 20.4009 12.3497C20.4007 12.1904 20.3373 12.0376 20.2245 11.925L12.8483 4.55102C12.6232 4.32615 12.3181 4.19983 12 4.19983C11.6819 4.19983 11.3768 4.32615 11.1518 4.55102L3.7755 11.925C3.66302 12.0376 3.59986 12.1903 3.59993 12.3494C3.6 12.5086 3.66329 12.6612 3.77587 12.7736C3.88846 12.8861 4.04112 12.9493 4.20027 12.9492C4.35941 12.9491 4.51202 12.8859 4.6245 12.7733L4.8 12.6V18H3.6C3.44087 18 3.28826 18.0632 3.17574 18.1758C3.06321 18.2883 3 18.4409 3 18.6C3 18.7592 3.06321 18.9118 3.17574 19.0243C3.28826 19.1368 3.44087 19.2 3.6 19.2H20.4C20.5591 19.2 20.7117 19.1368 20.8243 19.0243C20.9368 18.9118 21 18.7592 21 18.6C21 18.4409 20.9368 18.2883 20.8243 18.1758C20.7117 18.0632 20.5591 18 20.4 18ZM6 11.4L12 5.40002L18 11.4V18H14.4V13.8C14.4 13.6409 14.3368 13.4883 14.2243 13.3758C14.1117 13.2632 13.9591 13.2 13.8 13.2H10.2C10.0409 13.2 9.88826 13.2632 9.77574 13.3758C9.66321 13.4883 9.6 13.6409 9.6 13.8V18H6V11.4ZM13.2 18H10.8V14.4H13.2V18Z" fill="#1E1E1E"/>
</svg>
