<svg width="24" height="24" viewBox="0 0 24 24" fill="none" xmlns="http://www.w3.org/2000/svg">
<path d="M17.4 10.8C17.4 10.9592 17.3367 11.1118 17.2242 11.2243C17.1117 11.3368 16.9591 11.4 16.8 11.4H13.8C13.6408 11.4 13.4882 11.3368 13.3757 11.2243C13.2632 11.1118 13.2 10.9592 13.2 10.8C13.2 10.6409 13.2632 10.4883 13.3757 10.3758C13.4882 10.2632 13.6408 10.2 13.8 10.2H16.8C16.9591 10.2 17.1117 10.2632 17.2242 10.3758C17.3367 10.4883 17.4 10.6409 17.4 10.8ZM16.8 12.6H13.8C13.6408 12.6 13.4882 12.6632 13.3757 12.7758C13.2632 12.8883 13.2 13.0409 13.2 13.2C13.2 13.3592 13.2632 13.5118 13.3757 13.6243C13.4882 13.7368 13.6408 13.8 13.8 13.8H16.8C16.9591 13.8 17.1117 13.7368 17.2242 13.6243C17.3367 13.5118 17.4 13.3592 17.4 13.2C17.4 13.0409 17.3367 12.8883 17.2242 12.7758C17.1117 12.6632 16.9591 12.6 16.8 12.6ZM19.8 6.60002V17.4C19.8 17.7183 19.6735 18.0235 19.4485 18.2486C19.2234 18.4736 18.9182 18.6 18.6 18.6H5.39995C5.08169 18.6 4.77647 18.4736 4.55142 18.2486C4.32638 18.0235 4.19995 17.7183 4.19995 17.4V6.60002C4.19995 6.28176 4.32638 5.97654 4.55142 5.7515C4.77647 5.52645 5.08169 5.40002 5.39995 5.40002H18.6C18.9182 5.40002 19.2234 5.52645 19.4485 5.7515C19.6735 5.97654 19.8 6.28176 19.8 6.60002ZM18.6 17.4V6.60002H5.39995V17.4H18.6ZM12.5805 14.85C12.6202 15.0042 12.5971 15.1678 12.5163 15.305C12.4354 15.4421 12.3034 15.5415 12.1492 15.5813C11.995 15.6211 11.8314 15.598 11.6943 15.5171C11.5571 15.4362 11.4577 15.3042 11.418 15.15C11.2207 14.3805 10.4385 13.8 9.5992 13.8C8.75995 13.8 7.97845 14.3805 7.78045 15.15C7.74067 15.3042 7.64128 15.4362 7.50414 15.5171C7.36701 15.598 7.20336 15.6211 7.0492 15.5813C6.89504 15.5415 6.763 15.4421 6.68213 15.305C6.60125 15.1678 6.57817 15.0042 6.61795 14.85C6.81265 14.1253 7.27289 13.5004 7.9072 13.0995C7.57013 12.7644 7.34013 12.3368 7.24637 11.8709C7.1526 11.405 7.1993 10.9217 7.38053 10.4823C7.56176 10.0429 7.86936 9.66724 8.26435 9.40289C8.65934 9.13854 9.12392 8.99743 9.5992 8.99743C10.0745 8.99743 10.5391 9.13854 10.9341 9.40289C11.329 9.66724 11.6366 10.0429 11.8179 10.4823C11.9991 10.9217 12.0458 11.405 11.952 11.8709C11.8583 12.3368 11.6283 12.7644 11.2912 13.0995C11.9262 13.4999 12.3869 14.125 12.5812 14.85H12.5805ZM9.59995 12.6C9.83729 12.6 10.0693 12.5296 10.2666 12.3978C10.464 12.2659 10.6178 12.0785 10.7086 11.8592C10.7994 11.64 10.8232 11.3987 10.7769 11.1659C10.7306 10.9331 10.6163 10.7193 10.4485 10.5515C10.2807 10.3837 10.0668 10.2694 9.83406 10.2231C9.60128 10.1768 9.36 10.2005 9.14073 10.2914C8.92146 10.3822 8.73405 10.536 8.60219 10.7333C8.47033 10.9307 8.39995 11.1627 8.39995 11.4C8.39995 11.7183 8.52638 12.0235 8.75142 12.2486C8.97647 12.4736 9.28169 12.6 9.59995 12.6Z" fill="#1E1E1E"/>
</svg>
