<svg width="24" height="24" viewBox="0 0 24 24" fill="none" xmlns="http://www.w3.org/2000/svg">
<path d="M18.6 5.40002H5.40001C5.08175 5.40002 4.77653 5.52645 4.55148 5.7515C4.32644 5.97654 4.20001 6.28176 4.20001 6.60002V17.4C4.20001 17.7183 4.32644 18.0235 4.55148 18.2486C4.77653 18.4736 5.08175 18.6 5.40001 18.6H18.6C18.9183 18.6 19.2235 18.4736 19.4485 18.2486C19.6736 18.0235 19.8 17.7183 19.8 17.4V6.60002C19.8 6.28176 19.6736 5.97654 19.4485 5.7515C19.2235 5.52645 18.9183 5.40002 18.6 5.40002ZM18.6 6.60002V14.3063L16.6448 12.3518C16.5333 12.2403 16.401 12.1519 16.2554 12.0916C16.1098 12.0313 15.9537 12.0002 15.7961 12.0002C15.6385 12.0002 15.4825 12.0313 15.3369 12.0916C15.1912 12.1519 15.0589 12.2403 14.9475 12.3518L13.4475 13.8518L10.1475 10.5518C9.92249 10.3269 9.61739 10.2006 9.29926 10.2006C8.98114 10.2006 8.67603 10.3269 8.45101 10.5518L5.40001 13.6028V6.60002H18.6ZM5.40001 15.3L9.30001 11.4L15.3 17.4H5.40001V15.3ZM18.6 17.4H16.9973L14.2973 14.7L15.7973 13.2L18.6 16.0035V17.4ZM13.2 9.90002C13.2 9.72202 13.2528 9.54802 13.3517 9.40001C13.4506 9.25201 13.5911 9.13665 13.7556 9.06853C13.9201 9.00041 14.101 8.98259 14.2756 9.01732C14.4502 9.05204 14.6105 9.13776 14.7364 9.26363C14.8623 9.3895 14.948 9.54986 14.9827 9.72444C15.0174 9.89903 14.9996 10.08 14.9315 10.2444C14.8634 10.4089 14.748 10.5495 14.6 10.6483C14.452 10.7472 14.278 10.8 14.1 10.8C13.8613 10.8 13.6324 10.7052 13.4636 10.5364C13.2948 10.3676 13.2 10.1387 13.2 9.90002Z" fill="#1E1E1E"/>
</svg>
