<svg width="24" height="24" viewBox="0 0 24 24" fill="none" xmlns="http://www.w3.org/2000/svg">
<path d="M5.33329 18.6667C4.87496 18.6667 4.4826 18.5035 4.15621 18.1771C3.82982 17.8507 3.66663 17.4584 3.66663 17V7.00004C3.66663 6.54171 3.82982 6.14935 4.15621 5.82296C4.4826 5.49657 4.87496 5.33337 5.33329 5.33337H18.6666C19.125 5.33337 19.5173 5.49657 19.8437 5.82296C20.1701 6.14935 20.3333 6.54171 20.3333 7.00004V17C20.3333 17.4584 20.1701 17.8507 19.8437 18.1771C19.5173 18.5035 19.125 18.6667 18.6666 18.6667H5.33329ZM6.99996 15.3334H17L13.875 11.1667L11.375 14.5L9.49996 12L6.99996 15.3334Z" fill="#1E1E1E"/>
</svg>
