<svg width="24" height="24" viewBox="0 0 24 24" fill="none" xmlns="http://www.w3.org/2000/svg">
<path d="M9.49996 13.6666H17.8333L14.9583 9.91663L13.0416 12.4166L11.75 10.75L9.49996 13.6666ZM8.66663 17C8.20829 17 7.81593 16.8368 7.48954 16.5104C7.16315 16.184 6.99996 15.7916 6.99996 15.3333V5.33329C6.99996 4.87496 7.16315 4.4826 7.48954 4.15621C7.81593 3.82982 8.20829 3.66663 8.66663 3.66663H18.6666C19.125 3.66663 19.5173 3.82982 19.8437 4.15621C20.1701 4.4826 20.3333 4.87496 20.3333 5.33329V15.3333C20.3333 15.7916 20.1701 16.184 19.8437 16.5104C19.5173 16.8368 19.125 17 18.6666 17H8.66663ZM5.33329 20.3333C4.87496 20.3333 4.4826 20.1701 4.15621 19.8437C3.82982 19.5173 3.66663 19.125 3.66663 18.6666V6.99996H5.33329V18.6666H17V20.3333H5.33329Z" fill="#1E1E1E"/>
</svg>
