<svg width="24" height="24" viewBox="0 0 24 24" fill="none" xmlns="http://www.w3.org/2000/svg">
<path d="M18.6 5.40002H7.80001C7.48175 5.40002 7.17653 5.52645 6.95148 5.7515C6.72644 5.97654 6.60001 6.28176 6.60001 6.60002V7.80002H5.40001C5.08175 7.80002 4.77653 7.92645 4.55148 8.1515C4.32644 8.37654 4.20001 8.68176 4.20001 9.00002V17.4C4.20001 17.7183 4.32644 18.0235 4.55148 18.2486C4.77653 18.4736 5.08175 18.6 5.40001 18.6H16.2C16.5183 18.6 16.8235 18.4736 17.0485 18.2486C17.2736 18.0235 17.4 17.7183 17.4 17.4V16.2H18.6C18.9183 16.2 19.2235 16.0736 19.4485 15.8486C19.6736 15.6235 19.8 15.3183 19.8 15V6.60002C19.8 6.28176 19.6736 5.97654 19.4485 5.7515C19.2235 5.52645 18.9183 5.40002 18.6 5.40002ZM7.80001 6.60002H18.6V11.3063L17.8448 10.5518C17.7333 10.4403 17.601 10.3519 17.4554 10.2916C17.3098 10.2313 17.1537 10.2002 16.9961 10.2002C16.8385 10.2002 16.6825 10.2313 16.5369 10.2916C16.3912 10.3519 16.2589 10.4403 16.1475 10.5518L14.6475 12.0518L11.3475 8.75177C11.1225 8.5269 10.8174 8.40058 10.4993 8.40058C10.1811 8.40058 9.87603 8.5269 9.65101 8.75177L7.80001 10.6028V6.60002ZM16.2 17.4H5.40001V9.00002H6.60001V15C6.60001 15.3183 6.72644 15.6235 6.95148 15.8486C7.17653 16.0736 7.48175 16.2 7.80001 16.2H16.2V17.4ZM18.6 15H7.80001V12.3L10.5 9.60002L14.2245 13.3245C14.337 13.437 14.4896 13.5001 14.6486 13.5001C14.8077 13.5001 14.9603 13.437 15.0728 13.3245L16.9973 11.4L18.6 13.0035V15ZM14.4 8.70002C14.4 8.52202 14.4528 8.34802 14.5517 8.20001C14.6506 8.05201 14.7911 7.93665 14.9556 7.86853C15.1201 7.80041 15.301 7.78259 15.4756 7.81732C15.6502 7.85204 15.8105 7.93776 15.9364 8.06363C16.0623 8.1895 16.148 8.34986 16.1827 8.52444C16.2174 8.69903 16.1996 8.87999 16.1315 9.04444C16.0634 9.20889 15.948 9.34945 15.8 9.44835C15.652 9.54724 15.478 9.60002 15.3 9.60002C15.0613 9.60002 14.8324 9.5052 14.6636 9.33642C14.4948 9.16764 14.4 8.93872 14.4 8.70002Z" fill="#1E1E1E"/>
</svg>
