<svg width="24" height="24" viewBox="0 0 24 24" fill="none" xmlns="http://www.w3.org/2000/svg">
<path d="M6.16667 19.5C5.70833 19.5 5.31597 19.3368 4.98958 19.0104C4.66319 18.684 4.5 18.2917 4.5 17.8333V6.16667C4.5 5.70833 4.66319 5.31597 4.98958 4.98958C5.31597 4.66319 5.70833 4.5 6.16667 4.5H17.8333C18.2917 4.5 18.684 4.66319 19.0104 4.98958C19.3368 5.31597 19.5 5.70833 19.5 6.16667V17.8333C19.5 18.2917 19.3368 18.684 19.0104 19.0104C18.684 19.3368 18.2917 19.5 17.8333 19.5H6.16667ZM12 15.3333C12.5278 15.3333 13.0069 15.1806 13.4375 14.875C13.8681 14.5694 14.1667 14.1667 14.3333 13.6667H17.8333V6.16667H6.16667V13.6667H9.66667C9.83333 14.1667 10.1319 14.5694 10.5625 14.875C10.9931 15.1806 11.4722 15.3333 12 15.3333Z" fill="#1E1E1E"/>
</svg>
