<svg width="24" height="24" viewBox="0 0 24 24" fill="none" xmlns="http://www.w3.org/2000/svg">
<path d="M6.58333 16.5834C5.30556 16.5834 4.22222 16.1389 3.33333 15.25C2.44444 14.3611 2 13.2778 2 12C2 10.7222 2.44444 9.63891 3.33333 8.75002C4.22222 7.86113 5.30556 7.41669 6.58333 7.41669C7.09722 7.41669 7.59028 7.50696 8.0625 7.68752C8.53472 7.86808 8.95833 8.12502 9.33333 8.45835L10.75 9.75002L9.5 10.875L8.20833 9.70835C7.98611 9.51391 7.73611 9.36113 7.45833 9.25002C7.18056 9.13891 6.88889 9.08335 6.58333 9.08335C5.77778 9.08335 5.09028 9.36808 4.52083 9.93752C3.95139 10.507 3.66667 11.1945 3.66667 12C3.66667 12.8056 3.95139 13.4931 4.52083 14.0625C5.09028 14.632 5.77778 14.9167 6.58333 14.9167C6.88889 14.9167 7.18056 14.8611 7.45833 14.75C7.73611 14.6389 7.98611 14.4861 8.20833 14.2917L14.6667 8.45835C15.0417 8.12502 15.4653 7.86808 15.9375 7.68752C16.4097 7.50696 16.9028 7.41669 17.4167 7.41669C18.6944 7.41669 19.7778 7.86113 20.6667 8.75002C21.5556 9.63891 22 10.7222 22 12C22 13.2778 21.5556 14.3611 20.6667 15.25C19.7778 16.1389 18.6944 16.5834 17.4167 16.5834C16.9028 16.5834 16.4097 16.4931 15.9375 16.3125C15.4653 16.132 15.0417 15.875 14.6667 15.5417L13.25 14.25L14.5 13.125L15.7917 14.2917C16.0139 14.4861 16.2639 14.6389 16.5417 14.75C16.8194 14.8611 17.1111 14.9167 17.4167 14.9167C18.2222 14.9167 18.9097 14.632 19.4792 14.0625C20.0486 13.4931 20.3333 12.8056 20.3333 12C20.3333 11.1945 20.0486 10.507 19.4792 9.93752C18.9097 9.36808 18.2222 9.08335 17.4167 9.08335C17.1111 9.08335 16.8194 9.13891 16.5417 9.25002C16.2639 9.36113 16.0139 9.51391 15.7917 9.70835L9.33333 15.5417C8.95833 15.875 8.53472 16.132 8.0625 16.3125C7.59028 16.4931 7.09722 16.5834 6.58333 16.5834Z" fill="#1E1E1E"/>
</svg>
