<svg width="24" height="24" viewBox="0 0 24 24" fill="none" xmlns="http://www.w3.org/2000/svg">
<path d="M12 4.20001C10.4573 4.20001 8.94927 4.65747 7.66657 5.51455C6.38386 6.37162 5.38412 7.58982 4.79376 9.01508C4.20339 10.4403 4.04893 12.0087 4.34989 13.5217C4.65086 15.0348 5.39373 16.4246 6.48458 17.5154C7.57543 18.6063 8.96526 19.3492 10.4783 19.6501C11.9914 19.9511 13.5597 19.7966 14.9849 19.2063C16.4102 18.6159 17.6284 17.6162 18.4855 16.3335C19.3426 15.0508 19.8 13.5427 19.8 12C19.7978 9.93199 18.9753 7.9493 17.513 6.48699C16.0507 5.02468 14.068 4.2022 12 4.20001ZM12 18.6C10.6947 18.6 9.41862 18.2129 8.33325 17.4877C7.24789 16.7625 6.40195 15.7317 5.90241 14.5257C5.40287 13.3197 5.27217 11.9927 5.52683 10.7124C5.7815 9.43214 6.41008 8.25613 7.33311 7.33311C8.25614 6.41008 9.43214 5.78149 10.7124 5.52683C11.9927 5.27217 13.3197 5.40287 14.5257 5.90241C15.7317 6.40195 16.7625 7.24788 17.4877 8.33325C18.2129 9.41861 18.6 10.6947 18.6 12C18.598 13.7498 17.902 15.4274 16.6647 16.6647C15.4274 17.902 13.7498 18.598 12 18.6ZM13.2 15.6C13.2 15.7591 13.1368 15.9118 13.0243 16.0243C12.9118 16.1368 12.7591 16.2 12.6 16.2C12.2818 16.2 11.9765 16.0736 11.7515 15.8485C11.5264 15.6235 11.4 15.3183 11.4 15V12C11.2409 12 11.0883 11.9368 10.9758 11.8243C10.8632 11.7118 10.8 11.5591 10.8 11.4C10.8 11.2409 10.8632 11.0883 10.9758 10.9757C11.0883 10.8632 11.2409 10.8 11.4 10.8C11.7183 10.8 12.0235 10.9264 12.2485 11.1515C12.4736 11.3765 12.6 11.6818 12.6 12V15C12.7591 15 12.9118 15.0632 13.0243 15.1757C13.1368 15.2883 13.2 15.4409 13.2 15.6ZM10.8 8.70001C10.8 8.52201 10.8528 8.348 10.9517 8.2C11.0506 8.05199 11.1911 7.93664 11.3556 7.86852C11.5201 7.8004 11.701 7.78258 11.8756 7.81731C12.0502 7.85203 12.2105 7.93775 12.3364 8.06362C12.4623 8.18948 12.548 8.34985 12.5827 8.52443C12.6174 8.69901 12.5996 8.87997 12.5315 9.04443C12.4634 9.20888 12.348 9.34944 12.2 9.44833C12.052 9.54723 11.878 9.60001 11.7 9.60001C11.4613 9.60001 11.2324 9.50519 11.0636 9.33641C10.8948 9.16763 10.8 8.93871 10.8 8.70001Z" fill="#1E1E1E"/>
</svg>
