<svg width="24" height="24" viewBox="0 0 24 24" fill="none" xmlns="http://www.w3.org/2000/svg">
<path fill-rule="evenodd" clip-rule="evenodd" d="M12 3.66992C7.40004 3.66992 3.67004 7.39992 3.67004 11.9999C3.67004 16.5999 7.40004 20.3299 12 20.3299C16.6 20.3299 20.33 16.5999 20.33 11.9999C20.33 7.39992 16.61 3.66992 12 3.66992ZM12 6.58992C12.57 6.58992 13.03 7.04992 13.03 7.61992C13.03 8.18992 12.57 8.64992 12 8.64992C11.43 8.64992 10.97 8.18992 10.97 7.61992C10.97 7.04992 11.43 6.58992 12 6.58992ZM14.24 16.5899H9.76004V15.5599H10.45C10.83 15.5599 11.14 15.2499 11.14 14.8699V11.4199C11.14 11.0399 10.83 10.7299 10.45 10.7299H9.76004V9.69992H12.86V14.8699C12.86 15.2499 13.17 15.5599 13.55 15.5599H14.24V16.5899Z" fill="#1E1E1E"/>
</svg>
