<svg width="24" height="24" viewBox="0 0 24 24" fill="none" xmlns="http://www.w3.org/2000/svg">
<path d="M4.49998 12C4.34085 12 4.18823 11.9368 4.07571 11.8243C3.96319 11.7118 3.89998 11.5592 3.89998 11.4C3.89998 11.2409 3.96319 11.0883 4.07571 10.9758C4.18823 10.8632 4.34085 10.8 4.49998 10.8H6.59998C6.75911 10.8 6.91172 10.7368 7.02424 10.6243C7.13676 10.5118 7.19998 10.3592 7.19998 10.2C7.19998 10.0409 7.13676 9.88828 7.02424 9.77576C6.91172 9.66324 6.75911 9.60002 6.59998 9.60002H5.39998C4.92259 9.60002 4.46475 9.41038 4.12718 9.07282C3.78962 8.73525 3.59998 8.27741 3.59998 7.80002C3.59998 7.32263 3.78962 6.8648 4.12718 6.52723C4.46475 6.18967 4.92259 6.00002 5.39998 6.00002C5.39998 5.84089 5.46319 5.68828 5.57571 5.57576C5.68823 5.46324 5.84085 5.40002 5.99998 5.40002C6.15911 5.40002 6.31172 5.46324 6.42424 5.57576C6.53676 5.68828 6.59998 5.84089 6.59998 6.00002H7.19998C7.35911 6.00002 7.51172 6.06324 7.62424 6.17576C7.73676 6.28828 7.79998 6.44089 7.79998 6.60002C7.79998 6.75915 7.73676 6.91177 7.62424 7.02429C7.51172 7.13681 7.35911 7.20002 7.19998 7.20002H5.39998C5.24085 7.20002 5.08823 7.26324 4.97571 7.37576C4.86319 7.48828 4.79998 7.64089 4.79998 7.80002C4.79998 7.95915 4.86319 8.11177 4.97571 8.22429C5.08823 8.33681 5.24085 8.40002 5.39998 8.40002H6.59998C7.07737 8.40002 7.5352 8.58967 7.87277 8.92723C8.21033 9.2648 8.39998 9.72263 8.39998 10.2C8.39998 10.6774 8.21033 11.1353 7.87277 11.4728C7.5352 11.8104 7.07737 12 6.59998 12C6.59998 12.1592 6.53676 12.3118 6.42424 12.4243C6.31172 12.5368 6.15911 12.6 5.99998 12.6C5.84085 12.6 5.68823 12.5368 5.57571 12.4243C5.46319 12.3118 5.39998 12.1592 5.39998 12H4.49998ZM19.8 6.60002V16.8C19.8 17.1183 19.6735 17.4235 19.4485 17.6486C19.2235 17.8736 18.9182 18 18.6 18H5.39998C5.08172 18 4.77649 17.8736 4.55145 17.6486C4.3264 17.4235 4.19998 17.1183 4.19998 16.8V13.8C4.19998 13.6409 4.26319 13.4883 4.37571 13.3758C4.48823 13.2632 4.64085 13.2 4.79998 13.2C4.95911 13.2 5.11172 13.2632 5.22424 13.3758C5.33676 13.4883 5.39998 13.6409 5.39998 13.8V16.8H14.4V14.4H8.39998C8.24085 14.4 8.08823 14.3368 7.97571 14.2243C7.86319 14.1118 7.79998 13.9592 7.79998 13.8C7.79998 13.6409 7.86319 13.4883 7.97571 13.3758C8.08823 13.2632 8.24085 13.2 8.39998 13.2H14.4V10.8H10.2C10.0408 10.8 9.88823 10.7368 9.77571 10.6243C9.66319 10.5118 9.59998 10.3592 9.59998 10.2C9.59998 10.0409 9.66319 9.88828 9.77571 9.77576C9.88823 9.66324 10.0408 9.60002 10.2 9.60002H18.6V7.20002H9.59998C9.44085 7.20002 9.28823 7.13681 9.17571 7.02429C9.06319 6.91177 8.99998 6.75915 8.99998 6.60002C8.99998 6.44089 9.06319 6.28828 9.17571 6.17576C9.28823 6.06324 9.44085 6.00002 9.59998 6.00002H19.2C19.3591 6.00002 19.5117 6.06324 19.6242 6.17576C19.7368 6.28828 19.8 6.44089 19.8 6.60002ZM15.6 13.2H18.6V10.8H15.6V13.2ZM18.6 16.8V14.4H15.6V16.8H18.6Z" fill="#1E1E1E"/>
</svg>
