<svg width="24" height="24" viewBox="0 0 24 24" fill="none" xmlns="http://www.w3.org/2000/svg">
<path d="M6.41497 8.70496C7.02497 8.87496 7.50497 9.17496 7.82497 9.56496L7.81497 9.55496C8.13497 9.95496 8.30497 10.425 8.30497 10.955C8.30497 11.615 8.10497 12.125 7.70497 12.475C7.37497 12.765 6.96497 12.965 6.50497 13.065V13.895H5.01497V13.025C4.62497 12.915 4.27497 12.715 3.97497 12.455C3.77497 12.275 3.60497 12.035 3.44497 11.715L3.34497 11.515L4.73497 10.945C4.84497 11.175 4.95497 11.325 5.07497 11.425C5.27497 11.595 5.52497 11.675 5.86497 11.675C6.14497 11.675 6.39497 11.605 6.58497 11.485C6.74497 11.375 6.82497 11.215 6.82497 10.985C6.82497 10.765 6.76497 10.605 6.63497 10.485C6.55497 10.405 6.28497 10.225 5.47497 9.96496C4.71497 9.72496 4.20497 9.44496 3.90497 9.09496C3.60497 8.74496 3.45497 8.30496 3.45497 7.80496C3.45497 7.20496 3.65497 6.71496 4.05497 6.37496C4.36497 6.11496 4.69497 5.93496 5.02497 5.85496V5.02496H6.51497V5.85496C6.87497 5.94496 7.19497 6.10496 7.44497 6.32496C7.62497 6.48496 7.78497 6.68496 7.92497 6.93496L8.04497 7.13496L6.65497 7.71496C6.57497 7.55496 6.48497 7.44496 6.39497 7.37496C6.26497 7.27496 6.06497 7.22496 5.80497 7.22496C5.50497 7.22496 5.28497 7.28496 5.14497 7.40496C5.00497 7.52496 4.94497 7.64496 4.94497 7.81496C4.94497 8.00496 5.02497 8.13496 5.19497 8.24496C5.42497 8.38496 5.83497 8.53496 6.41497 8.70496Z" fill="#1E1E1E"/>
<path fill-rule="evenodd" clip-rule="evenodd" d="M8.55497 5.52496H19.645V5.53496C19.985 5.53496 20.265 5.80496 20.265 6.15496V17.215C20.265 17.905 19.705 18.465 19.015 18.465H4.98497C4.29497 18.465 3.73497 17.905 3.73497 17.215V14.895L5.40497 15.395V16.795H14.405V14.395H8.55497L9.55497 13.195H14.405V10.795H9.90497V9.59496H18.605V7.19496H9.55497L8.55497 5.52496ZM15.605 16.795H18.605V14.395H15.605V16.795ZM15.605 13.195H18.605V10.795H15.605V13.195Z" fill="#1E1E1E"/>
</svg>
