<svg width="24" height="24" viewBox="0 0 24 24" fill="none" xmlns="http://www.w3.org/2000/svg">
<path d="M12 19.5388C10.9583 19.5388 9.98264 19.3408 9.07292 18.945C8.16319 18.5492 7.37153 18.0145 6.69792 17.3408C6.02431 16.6672 5.48958 15.8756 5.09375 14.9658C4.69792 14.0561 4.5 13.0804 4.5 12.0388H6.16667C6.16667 13.6638 6.73264 15.0422 7.86458 16.1742C8.99653 17.3061 10.375 17.8721 12 17.8721C13.625 17.8721 15.0035 17.3061 16.1354 16.1742C17.2674 15.0422 17.8333 13.6638 17.8333 12.0388C17.8333 10.4138 17.2674 9.03528 16.1354 7.90334C15.0035 6.7714 13.625 6.20542 12 6.20542H11.875L13.1667 7.49709L12 8.70542L8.66667 5.37209L12 2.03876L13.1667 3.24709L11.875 4.53876H12C13.0417 4.53876 14.0174 4.73667 14.9271 5.13251C15.8368 5.52834 16.6285 6.06306 17.3021 6.73667C17.9757 7.41029 18.5104 8.20195 18.9062 9.11167C19.3021 10.0214 19.5 10.9971 19.5 12.0388C19.5 13.0804 19.3021 14.0561 18.9062 14.9658C18.5104 15.8756 17.9757 16.6672 17.3021 17.3408C16.6285 18.0145 15.8368 18.5492 14.9271 18.945C14.0174 19.3408 13.0417 19.5388 12 19.5388Z" fill="#1E1E1E"/>
</svg>
