<svg width="24" height="24" viewBox="0 0 24 24" fill="none" xmlns="http://www.w3.org/2000/svg">
<path d="M14.5 6.375V13.875C14.5 14.0408 14.4342 14.1997 14.3169 14.3169C14.1997 14.4342 14.0408 14.5 13.875 14.5H10.75C10.5842 14.5 10.4253 14.4342 10.3081 14.3169C10.1908 14.1997 10.125 14.0408 10.125 13.875V6.375C10.125 6.20924 10.1908 6.05027 10.3081 5.93306C10.4253 5.81585 10.5842 5.75 10.75 5.75H13.875C14.0408 5.75 14.1997 5.81585 14.3169 5.93306C14.4342 6.05027 14.5 6.20924 14.5 6.375ZM19.5 5.75H16.375C16.2092 5.75 16.0503 5.81585 15.9331 5.93306C15.8158 6.05027 15.75 6.20924 15.75 6.375V10.4375C15.75 10.5204 15.7829 10.5999 15.8415 10.6585C15.9001 10.7171 15.9796 10.75 16.0625 10.75H19.8125C19.8954 10.75 19.9749 10.7171 20.0335 10.6585C20.0921 10.5999 20.125 10.5204 20.125 10.4375V6.375C20.125 6.20924 20.0592 6.05027 19.9419 5.93306C19.8247 5.81585 19.6658 5.75 19.5 5.75ZM19.8125 12H16.0625C15.9796 12 15.9001 12.0329 15.8415 12.0915C15.7829 12.1501 15.75 12.2296 15.75 12.3125V15.75C15.75 16.0815 15.8817 16.3995 16.1161 16.6339C16.3505 16.8683 16.6685 17 17 17H18.875C19.2065 17 19.5245 16.8683 19.7589 16.6339C19.9933 16.3995 20.125 16.0815 20.125 15.75V12.3125C20.125 12.2296 20.0921 12.1501 20.0335 12.0915C19.9749 12.0329 19.8954 12 19.8125 12ZM8.25 5.75H5.125C4.95924 5.75 4.80027 5.81585 4.68306 5.93306C4.56585 6.05027 4.5 6.20924 4.5 6.375V10.4375C4.5 10.5204 4.53292 10.5999 4.59153 10.6585C4.65013 10.7171 4.72962 10.75 4.8125 10.75H8.5625C8.64538 10.75 8.72487 10.7171 8.78347 10.6585C8.84208 10.5999 8.875 10.5204 8.875 10.4375V6.375C8.875 6.20924 8.80915 6.05027 8.69194 5.93306C8.57473 5.81585 8.41576 5.75 8.25 5.75ZM8.5625 12H4.8125C4.72962 12 4.65013 12.0329 4.59153 12.0915C4.53292 12.1501 4.5 12.2296 4.5 12.3125V18.25C4.5 18.5815 4.6317 18.8995 4.86612 19.1339C5.10054 19.3683 5.41848 19.5 5.75 19.5H7.625C7.95652 19.5 8.27446 19.3683 8.50888 19.1339C8.7433 18.8995 8.875 18.5815 8.875 18.25V12.3125C8.875 12.2296 8.84208 12.1501 8.78347 12.0915C8.72487 12.0329 8.64538 12 8.5625 12Z" fill="#1E1E1E"/>
</svg>
