<svg width="24" height="24" viewBox="0 0 24 24" fill="none" xmlns="http://www.w3.org/2000/svg">
<path d="M10.5 15.3333L12.6667 13.1666L14.8334 15.3333L16 14.1666L13.8334 12L16 9.83331L14.8334 8.66665L12.6667 10.8333L10.5 8.66665L9.33335 9.83331L11.5 12L9.33335 14.1666L10.5 15.3333ZM8.50002 18.6666C8.23613 18.6666 7.98613 18.6076 7.75002 18.4896C7.51391 18.3715 7.31946 18.2083 7.16669 18L2.66669 12L7.16669 5.99998C7.31946 5.79165 7.51391 5.62845 7.75002 5.5104C7.98613 5.39234 8.23613 5.33331 8.50002 5.33331H17.6667C18.125 5.33331 18.5174 5.49651 18.8438 5.8229C19.1702 6.14929 19.3334 6.54165 19.3334 6.99998V17C19.3334 17.4583 19.1702 17.8507 18.8438 18.1771C18.5174 18.5035 18.125 18.6666 17.6667 18.6666H8.50002Z" fill="#1E1E1E"/>
</svg>
