<svg width="24" height="24" viewBox="0 0 24 24" fill="none" xmlns="http://www.w3.org/2000/svg">
<path d="M12 21.3334L8.66669 18H15.3334L12 21.3334ZM5.33335 16.3334C4.87502 16.3334 4.48266 16.1702 4.15627 15.8438C3.82988 15.5174 3.66669 15.125 3.66669 14.6667V6.33335C3.66669 5.87502 3.82988 5.48266 4.15627 5.15627C4.48266 4.82988 4.87502 4.66669 5.33335 4.66669H18.6667C19.125 4.66669 19.5174 4.82988 19.8438 5.15627C20.1702 5.48266 20.3334 5.87502 20.3334 6.33335V14.6667C20.3334 15.125 20.1702 15.5174 19.8438 15.8438C19.5174 16.1702 19.125 16.3334 18.6667 16.3334H5.33335ZM8.66669 13.8334H15.3334V12.1667H8.66669V13.8334ZM6.16669 11.3334H7.83335V9.66669H6.16669V11.3334ZM8.66669 11.3334H10.3334V9.66669H8.66669V11.3334ZM11.1667 11.3334H12.8334V9.66669H11.1667V11.3334ZM13.6667 11.3334H15.3334V9.66669H13.6667V11.3334ZM16.1667 11.3334H17.8334V9.66669H16.1667V11.3334ZM6.16669 8.83335H7.83335V7.16669H6.16669V8.83335ZM8.66669 8.83335H10.3334V7.16669H8.66669V8.83335ZM11.1667 8.83335H12.8334V7.16669H11.1667V8.83335ZM13.6667 8.83335H15.3334V7.16669H13.6667V8.83335ZM16.1667 8.83335H17.8334V7.16669H16.1667V8.83335Z" fill="#1E1E1E"/>
</svg>
