<svg width="24" height="24" viewBox="0 0 24 24" fill="none" xmlns="http://www.w3.org/2000/svg">
<path d="M7.41667 19.5C6.61111 19.5 5.92361 19.2153 5.35417 18.6458C4.78472 18.0764 4.5 17.3889 4.5 16.5833C4.5 15.7778 4.78472 15.0903 5.35417 14.5208C5.92361 13.9514 6.61111 13.6667 7.41667 13.6667H8.66667V10.3333H7.41667C6.61111 10.3333 5.92361 10.0486 5.35417 9.47917C4.78472 8.90972 4.5 8.22222 4.5 7.41667C4.5 6.61111 4.78472 5.92361 5.35417 5.35417C5.92361 4.78472 6.61111 4.5 7.41667 4.5C8.22222 4.5 8.90972 4.78472 9.47917 5.35417C10.0486 5.92361 10.3333 6.61111 10.3333 7.41667V8.66667H13.6667V7.41667C13.6667 6.61111 13.9514 5.92361 14.5208 5.35417C15.0903 4.78472 15.7778 4.5 16.5833 4.5C17.3889 4.5 18.0764 4.78472 18.6458 5.35417C19.2153 5.92361 19.5 6.61111 19.5 7.41667C19.5 8.22222 19.2153 8.90972 18.6458 9.47917C18.0764 10.0486 17.3889 10.3333 16.5833 10.3333H15.3333V13.6667H16.5833C17.3889 13.6667 18.0764 13.9514 18.6458 14.5208C19.2153 15.0903 19.5 15.7778 19.5 16.5833C19.5 17.3889 19.2153 18.0764 18.6458 18.6458C18.0764 19.2153 17.3889 19.5 16.5833 19.5C15.7778 19.5 15.0903 19.2153 14.5208 18.6458C13.9514 18.0764 13.6667 17.3889 13.6667 16.5833V15.3333H10.3333V16.5833C10.3333 17.3889 10.0486 18.0764 9.47917 18.6458C8.90972 19.2153 8.22222 19.5 7.41667 19.5ZM7.41667 17.8333C7.76389 17.8333 8.05903 17.7118 8.30208 17.4688C8.54514 17.2257 8.66667 16.9306 8.66667 16.5833V15.3333H7.41667C7.06944 15.3333 6.77431 15.4549 6.53125 15.6979C6.28819 15.941 6.16667 16.2361 6.16667 16.5833C6.16667 16.9306 6.28819 17.2257 6.53125 17.4688C6.77431 17.7118 7.06944 17.8333 7.41667 17.8333ZM16.5833 17.8333C16.9306 17.8333 17.2257 17.7118 17.4688 17.4688C17.7118 17.2257 17.8333 16.9306 17.8333 16.5833C17.8333 16.2361 17.7118 15.941 17.4688 15.6979C17.2257 15.4549 16.9306 15.3333 16.5833 15.3333H15.3333V16.5833C15.3333 16.9306 15.4549 17.2257 15.6979 17.4688C15.941 17.7118 16.2361 17.8333 16.5833 17.8333ZM10.3333 13.6667H13.6667V10.3333H10.3333V13.6667ZM7.41667 8.66667H8.66667V7.41667C8.66667 7.06944 8.54514 6.77431 8.30208 6.53125C8.05903 6.28819 7.76389 6.16667 7.41667 6.16667C7.06944 6.16667 6.77431 6.28819 6.53125 6.53125C6.28819 6.77431 6.16667 7.06944 6.16667 7.41667C6.16667 7.76389 6.28819 8.05903 6.53125 8.30208C6.77431 8.54514 7.06944 8.66667 7.41667 8.66667ZM15.3333 8.66667H16.5833C16.9306 8.66667 17.2257 8.54514 17.4688 8.30208C17.7118 8.05903 17.8333 7.76389 17.8333 7.41667C17.8333 7.06944 17.7118 6.77431 17.4688 6.53125C17.2257 6.28819 16.9306 6.16667 16.5833 6.16667C16.2361 6.16667 15.941 6.28819 15.6979 6.53125C15.4549 6.77431 15.3333 7.06944 15.3333 7.41667V8.66667Z" fill="#1E1E1E"/>
</svg>
