<svg width="24" height="24" viewBox="0 0 24 24" fill="none" xmlns="http://www.w3.org/2000/svg">
<path d="M5.33335 17.8334C4.87502 17.8334 4.48266 17.6702 4.15627 17.3438C3.82988 17.0174 3.66669 16.625 3.66669 16.1667V7.83335C3.66669 7.37502 3.82988 6.98266 4.15627 6.65627C4.48266 6.32988 4.87502 6.16669 5.33335 6.16669H18.6667C19.125 6.16669 19.5174 6.32988 19.8438 6.65627C20.1702 6.98266 20.3334 7.37502 20.3334 7.83335V16.1667C20.3334 16.625 20.1702 17.0174 19.8438 17.3438C19.5174 17.6702 19.125 17.8334 18.6667 17.8334H5.33335ZM8.66669 15.3334H15.3334V13.6667H8.66669V15.3334ZM6.16669 12.8334H7.83335V11.1667H6.16669V12.8334ZM8.66669 12.8334H10.3334V11.1667H8.66669V12.8334ZM11.1667 12.8334H12.8334V11.1667H11.1667V12.8334ZM13.6667 12.8334H15.3334V11.1667H13.6667V12.8334ZM16.1667 12.8334H17.8334V11.1667H16.1667V12.8334ZM6.16669 10.3334H7.83335V8.66669H6.16669V10.3334ZM8.66669 10.3334H10.3334V8.66669H8.66669V10.3334ZM11.1667 10.3334H12.8334V8.66669H11.1667V10.3334ZM13.6667 10.3334H15.3334V8.66669H13.6667V10.3334ZM16.1667 10.3334H17.8334V8.66669H16.1667V10.3334Z" fill="#1E1E1E"/>
</svg>
