<svg width="24" height="24" viewBox="0 0 24 24" fill="none" xmlns="http://www.w3.org/2000/svg">
<path d="M18.707 11.8016L9.95698 21.1766C9.86426 21.2755 9.74186 21.3416 9.60827 21.3649C9.47467 21.3882 9.33712 21.3674 9.21638 21.3057C9.09564 21.244 8.99825 21.1446 8.93892 21.0227C8.87958 20.9007 8.86152 20.7628 8.88745 20.6297L10.0328 14.9008L5.53042 13.2102C5.43373 13.174 5.3475 13.1144 5.27944 13.0368C5.21138 12.9592 5.16361 12.8659 5.1404 12.7653C5.11718 12.6647 5.11925 12.5599 5.14641 12.4603C5.17357 12.3607 5.22498 12.2694 5.29605 12.1945L14.046 2.81954C14.1388 2.72058 14.2612 2.65447 14.3948 2.63118C14.5284 2.60788 14.6659 2.62868 14.7867 2.69041C14.9074 2.75215 15.0048 2.85149 15.0641 2.97343C15.1234 3.09537 15.1415 3.2333 15.1156 3.36641L13.9671 9.10157L18.4695 10.7899C18.5655 10.8263 18.651 10.8858 18.7185 10.9631C18.7861 11.0404 18.8335 11.1332 18.8567 11.2332C18.8798 11.3332 18.878 11.4373 18.8514 11.5365C18.8247 11.6356 18.7741 11.7267 18.7039 11.8016H18.707Z" fill="#1E1E1E"/>
</svg>
