<svg width="24" height="24" viewBox="0 0 24 24" fill="none" xmlns="http://www.w3.org/2000/svg">
<path d="M20.4226 7.92112C20.2197 8.12479 19.9784 8.28631 19.7128 8.39639C19.4472 8.50647 19.1625 8.56293 18.875 8.56253C18.7262 8.56227 18.5778 8.54709 18.432 8.51721L16.0437 12.9524C16.3306 13.2392 16.5321 13.6002 16.6256 13.9949C16.7192 14.3896 16.7011 14.8026 16.5735 15.1877C16.4458 15.5728 16.2136 15.9148 15.9027 16.1755C15.5919 16.4361 15.2147 16.6052 14.8133 16.6639C14.4119 16.7225 14.002 16.6684 13.6296 16.5075C13.2572 16.3466 12.9368 16.0853 12.7044 15.7529C12.4719 15.4204 12.3365 15.0298 12.3132 14.6248C12.2899 14.2198 12.3797 13.8163 12.5726 13.4594L10.5367 11.4235C10.2182 11.5957 9.86203 11.6864 9.49995 11.6875C9.35115 11.6873 9.20275 11.6721 9.05698 11.6422L6.6687 16.0766C6.97461 16.3825 7.18292 16.7723 7.26731 17.1966C7.3517 17.621 7.30837 18.0608 7.14279 18.4605C6.97722 18.8602 6.69684 19.2018 6.33711 19.4422C5.97739 19.6825 5.55446 19.8108 5.12183 19.8108C4.68919 19.8108 4.26627 19.6825 3.90654 19.4422C3.54681 19.2018 3.26644 18.8602 3.10086 18.4605C2.93529 18.0608 2.89196 17.621 2.97634 17.1966C3.06073 16.7723 3.26905 16.3825 3.57495 16.0766C3.8314 15.8204 4.14749 15.6319 4.49482 15.5281C4.84215 15.4244 5.20983 15.4085 5.5648 15.4821L7.95308 11.0469C7.54351 10.6361 7.31352 10.0797 7.31352 9.49964C7.31352 8.91956 7.54351 8.36315 7.95308 7.95237C8.3246 7.58062 8.81756 7.35506 9.34175 7.31695C9.86595 7.27885 10.3863 7.43075 10.8077 7.74487C11.2291 8.05898 11.5233 8.51431 11.6365 9.02756C11.7497 9.5408 11.6743 10.0776 11.4242 10.5399L13.4601 12.5758C13.9141 12.3316 14.4396 12.255 14.9445 12.3594L17.3328 7.92424C17.1296 7.72111 16.9685 7.47996 16.8585 7.21454C16.7486 6.94913 16.692 6.66466 16.692 6.37737C16.692 6.09008 16.7486 5.80561 16.8585 5.5402C16.9685 5.27478 17.1296 5.03363 17.3328 4.83049C17.743 4.42024 18.2994 4.18976 18.8796 4.18976C19.4598 4.18976 20.0163 4.42024 20.4265 4.83049C20.8368 5.24075 21.0673 5.79718 21.0673 6.37737C21.0673 6.95756 20.8368 7.51399 20.4265 7.92424L20.4226 7.92112Z" fill="#1E1E1E"/>
</svg>
