<svg width="24" height="24" viewBox="0 0 24 24" fill="none" xmlns="http://www.w3.org/2000/svg">
<path d="M18.5477 8.5461C18.2146 8.87926 17.7828 9.09596 17.3165 9.16395C16.8503 9.23194 16.3746 9.14759 15.9602 8.92345L8.92348 15.9602C9.11644 16.317 9.20637 16.7205 9.1832 17.1255C9.16003 17.5306 9.02469 17.9212 8.79229 18.2537C8.5599 18.5862 8.23961 18.8476 7.86722 19.0086C7.49483 19.1695 7.08501 19.2238 6.68357 19.1652C6.28212 19.1067 5.90487 18.9376 5.59397 18.677C5.28307 18.4164 5.05077 18.0744 4.92303 17.6894C4.79529 17.3043 4.77715 16.8913 4.87063 16.4966C4.96411 16.1018 5.16554 15.7408 5.45239 15.4539C5.78553 15.1208 6.21733 14.9041 6.68355 14.8361C7.14976 14.7681 7.62547 14.8524 8.03989 15.0766L15.0766 8.03985C14.8836 7.68299 14.7937 7.2795 14.8169 6.87447C14.8401 6.46944 14.9754 6.07884 15.2078 5.7463C15.4402 5.41377 15.7605 5.15242 16.1329 4.99145C16.5053 4.83048 16.9151 4.77624 17.3165 4.83479C17.718 4.89334 18.0952 5.06237 18.4061 5.323C18.717 5.58362 18.9493 5.92557 19.0771 6.31063C19.2048 6.69568 19.2229 7.10867 19.1295 7.50345C19.036 7.89822 18.8346 8.25922 18.5477 8.5461Z" fill="#1E1E1E"/>
</svg>
