<svg width="24" height="24" viewBox="0 0 24 24" fill="none" xmlns="http://www.w3.org/2000/svg">
<path d="M19.666 19.6523L18.499 20.8193L10.499 12.8193H8.66602V11.1523H8.83203L7.23438 9.55469C6.79286 9.65697 6.40127 9.87511 6.06152 10.2148C5.57541 10.701 5.33301 11.2919 5.33301 11.9863C5.33306 12.6806 5.57561 13.2708 6.06152 13.7568C6.54763 14.2429 7.13856 14.4863 7.83301 14.4863H11.166V16.1523H7.83301C6.68023 16.1523 5.69727 15.7461 4.88477 14.9336C4.07246 14.1212 3.66606 13.1389 3.66602 11.9863C3.66602 11.028 3.95775 10.1738 4.54102 9.42383C4.93265 8.9203 5.40051 8.53459 5.94238 8.2627L3.16602 5.48633L4.33301 4.31934L19.666 19.6523Z" fill="#1E1E1E"/>
<path d="M16.166 7.81934C17.3188 7.81934 18.3018 8.22559 19.1143 9.03809C19.9267 9.85057 20.333 10.8336 20.333 11.9863C20.333 12.7779 20.1275 13.5072 19.7178 14.1738C19.3081 14.8403 18.7492 15.3472 18.041 15.6943L16.791 14.4023C17.3465 14.2496 17.7983 13.955 18.1455 13.5176C18.4927 13.0801 18.666 12.5696 18.666 11.9863C18.666 11.2919 18.4226 10.701 17.9365 10.2148C17.4505 9.72899 16.8603 9.48633 16.166 9.48633H12.833V7.81934H16.166Z" fill="#1E1E1E"/>
<path d="M15.333 12.8193H15.208L13.541 11.1523H15.333V12.8193Z" fill="#1E1E1E"/>
</svg>
