<svg width="24" height="24" viewBox="0 0 24 24" fill="none" xmlns="http://www.w3.org/2000/svg">
<path d="M17.2972 6.70274C16.8479 6.25354 16.2389 6.00081 15.6035 5.99997C14.9682 5.99913 14.3585 6.25023 13.908 6.69824L13.0342 7.61399C12.9225 7.71843 12.7751 7.77626 12.6221 7.77564C12.4692 7.77502 12.3222 7.71601 12.2113 7.61066C12.1004 7.50532 12.0339 7.36159 12.0255 7.20887C12.017 7.05614 12.0672 6.90595 12.1657 6.78899L13.0447 5.86724C13.0478 5.8638 13.0511 5.86055 13.0545 5.85749C13.7315 5.19144 14.6442 4.81988 15.5939 4.82375C16.5436 4.82762 17.4533 5.20659 18.1248 5.87813C18.7964 6.54967 19.1754 7.45937 19.1792 8.40906C19.1831 9.35875 18.8115 10.2715 18.1455 10.9485C18.1424 10.9519 18.1392 10.9552 18.1357 10.9582L17.214 11.8372C17.097 11.9358 16.9468 11.986 16.7941 11.9775C16.6414 11.969 16.4977 11.9026 16.3923 11.7917C16.287 11.6808 16.228 11.5338 16.2273 11.3809C16.2267 11.2279 16.2845 11.0805 16.389 10.9687L17.3047 10.095C17.7533 9.64398 18.0044 9.03337 18.003 8.39731C18.0016 7.76125 17.7478 7.15175 17.2972 6.70274ZM10.9657 16.386L10.092 17.3017C9.63973 17.741 9.0328 17.9846 8.40238 17.98C7.77195 17.9754 7.16865 17.7229 6.72286 17.2771C6.27707 16.8313 6.02459 16.228 6.01998 15.5976C6.01537 14.9672 6.25901 14.3602 6.69824 13.908L7.61399 13.0342C7.71843 12.9225 7.77626 12.7751 7.77564 12.6221C7.77502 12.4692 7.71601 12.3222 7.61066 12.2113C7.50532 12.1004 7.36159 12.0339 7.20887 12.0255C7.05614 12.017 6.90595 12.0672 6.78899 12.1657L5.86424 13.0447C5.8608 13.0478 5.85755 13.0511 5.85449 13.0545C5.18844 13.7315 4.81688 14.6442 4.82075 15.5939C4.82462 16.5436 5.20359 17.4533 5.87513 18.1248C6.54667 18.7964 7.45637 19.1754 8.40606 19.1792C9.35575 19.1831 10.2685 18.8115 10.9455 18.1455C10.9489 18.1424 10.9522 18.1392 10.9552 18.1357L11.8342 17.214C11.894 17.1581 11.9417 17.0907 11.9744 17.0157C12.0072 16.9407 12.0242 16.8599 12.0245 16.7781C12.0249 16.6963 12.0085 16.6153 11.9763 16.54C11.9442 16.4648 11.8971 16.397 11.8378 16.3406C11.7785 16.2843 11.7083 16.2407 11.6315 16.2125C11.5547 16.1843 11.473 16.172 11.3913 16.1766C11.3096 16.1811 11.2298 16.2023 11.1566 16.2388C11.0834 16.2753 11.0184 16.3264 10.9657 16.389V16.386ZM18.6 13.8H16.8C16.6409 13.8 16.4882 13.8632 16.3757 13.9757C16.2632 14.0882 16.2 14.2409 16.2 14.4C16.2 14.5591 16.2632 14.7117 16.3757 14.8243C16.4882 14.9368 16.6409 15 16.8 15H18.6C18.7591 15 18.9117 14.9368 19.0243 14.8243C19.1368 14.7117 19.2 14.5591 19.2 14.4C19.2 14.2409 19.1368 14.0882 19.0243 13.9757C18.9117 13.8632 18.7591 13.8 18.6 13.8ZM5.39999 10.2H7.19999C7.35912 10.2 7.51173 10.1368 7.62425 10.0243C7.73677 9.91173 7.79999 9.75912 7.79999 9.59999C7.79999 9.44086 7.73677 9.28825 7.62425 9.17572C7.51173 9.0632 7.35912 8.99999 7.19999 8.99999H5.39999C5.24086 8.99999 5.08825 9.0632 4.97572 9.17572C4.8632 9.28825 4.79999 9.44086 4.79999 9.59999C4.79999 9.75912 4.8632 9.91173 4.97572 10.0243C5.08825 10.1368 5.24086 10.2 5.39999 10.2ZM14.4 16.2C14.2409 16.2 14.0882 16.2632 13.9757 16.3757C13.8632 16.4882 13.8 16.6409 13.8 16.8V18.6C13.8 18.7591 13.8632 18.9117 13.9757 19.0243C14.0882 19.1368 14.2409 19.2 14.4 19.2C14.5591 19.2 14.7117 19.1368 14.8243 19.0243C14.9368 18.9117 15 18.7591 15 18.6V16.8C15 16.6409 14.9368 16.4882 14.8243 16.3757C14.7117 16.2632 14.5591 16.2 14.4 16.2ZM9.59999 7.79999C9.75912 7.79999 9.91173 7.73677 10.0243 7.62425C10.1368 7.51173 10.2 7.35912 10.2 7.19999V5.39999C10.2 5.24086 10.1368 5.08825 10.0243 4.97572C9.91173 4.8632 9.75912 4.79999 9.59999 4.79999C9.44086 4.79999 9.28825 4.8632 9.17572 4.97572C9.0632 5.08825 8.99999 5.24086 8.99999 5.39999V7.19999C8.99999 7.35912 9.0632 7.51173 9.17572 7.62425C9.28825 7.73677 9.44086 7.79999 9.59999 7.79999Z" fill="#1E1E1E"/>
</svg>
