<svg width="24" height="24" viewBox="0 0 24 24" fill="none" xmlns="http://www.w3.org/2000/svg">
<path d="M14.8245 9.17551C14.8803 9.23123 14.9245 9.29741 14.9547 9.37025C14.9849 9.44309 15.0005 9.52116 15.0005 9.60001C15.0005 9.67886 14.9849 9.75694 14.9547 9.82977C14.9245 9.90261 14.8803 9.96879 14.8245 10.0245L10.0245 14.8245C9.96874 14.8803 9.90256 14.9245 9.82972 14.9546C9.75688 14.9848 9.67882 15.0003 9.59998 15.0003C9.52115 15.0003 9.44308 14.9848 9.37024 14.9546C9.29741 14.9245 9.23123 14.8803 9.17548 14.8245C9.11974 14.7688 9.07552 14.7026 9.04535 14.6297C9.01518 14.5569 8.99965 14.4788 8.99965 14.4C8.99965 14.3212 9.01518 14.2431 9.04535 14.1703C9.07552 14.0974 9.11974 14.0313 9.17548 13.9755L13.9755 9.17551C14.0312 9.11972 14.0974 9.07547 14.1702 9.04527C14.2431 9.01508 14.3211 8.99954 14.4 8.99954C14.4788 8.99954 14.5569 9.01508 14.6297 9.04527C14.7026 9.07547 14.7688 9.11972 14.8245 9.17551ZM18.57 5.43001C18.18 5.03996 17.7169 4.73055 17.2074 4.51945C16.6978 4.30836 16.1516 4.19971 15.6 4.19971C15.0484 4.19971 14.5022 4.30836 13.9926 4.51945C13.483 4.73055 13.02 5.03996 12.63 5.43001L10.3755 7.68376C10.2629 7.79634 10.1996 7.94904 10.1996 8.10826C10.1996 8.26748 10.2629 8.42018 10.3755 8.53276C10.4881 8.64534 10.6408 8.70859 10.8 8.70859C10.9592 8.70859 11.1119 8.64534 11.2245 8.53276L13.479 6.28276C14.0436 5.7305 14.8033 5.4232 15.5931 5.42755C16.383 5.4319 17.1392 5.74755 17.6978 6.30599C18.2563 6.86444 18.5721 7.62063 18.5766 8.41045C18.5811 9.20027 18.2739 9.96 17.7217 10.5248L15.4665 12.7793C15.3539 12.8917 15.2906 13.0443 15.2905 13.2035C15.2905 13.3626 15.3536 13.5153 15.4661 13.6279C15.5786 13.7405 15.7312 13.8038 15.8903 13.8038C16.0495 13.8039 16.2021 13.7407 16.3147 13.6283L18.57 11.37C18.96 10.98 19.2694 10.517 19.4805 10.0074C19.6916 9.49778 19.8003 8.9516 19.8003 8.40001C19.8003 7.84842 19.6916 7.30224 19.4805 6.79264C19.2694 6.28305 18.96 5.82002 18.57 5.43001ZM12.7755 15.4665L10.521 17.721C10.2435 18.0047 9.91258 18.2305 9.54727 18.3854C9.18196 18.5403 8.78955 18.6211 8.39276 18.6233C7.99598 18.6255 7.6027 18.549 7.2357 18.3981C6.86871 18.2473 6.53528 18.0251 6.25473 17.7445C5.97418 17.4639 5.75209 17.1304 5.6013 16.7634C5.45051 16.3964 5.37403 16.0031 5.37629 15.6063C5.37854 15.2095 5.45949 14.8171 5.61444 14.4519C5.76939 14.0866 5.99526 13.7557 6.27898 13.4783L8.53273 11.2245C8.64532 11.1119 8.70857 10.9592 8.70857 10.8C8.70857 10.6408 8.64532 10.4881 8.53273 10.3755C8.42015 10.2629 8.26745 10.1997 8.10823 10.1997C7.94901 10.1997 7.79632 10.2629 7.68373 10.3755L5.42998 12.63C4.64229 13.4177 4.19977 14.486 4.19977 15.6C4.19977 16.714 4.64229 17.7823 5.42998 18.57C6.21768 19.3577 7.28602 19.8002 8.39998 19.8002C9.51395 19.8002 10.5823 19.3577 11.37 18.57L13.6245 16.3148C13.737 16.2022 13.8001 16.0495 13.8001 15.8904C13.8 15.7312 13.7367 15.5786 13.6241 15.4661C13.5115 15.3537 13.3589 15.2905 13.1997 15.2906C13.0406 15.2906 12.888 15.3539 12.7755 15.4665Z" fill="#1E1E1E"/>
</svg>
