<svg width="24" height="24" viewBox="0 0 24 24" fill="none" xmlns="http://www.w3.org/2000/svg">
<path d="M16.8611 9.91664C16.2014 9.91664 15.6284 9.71988 15.1423 9.32636C14.6562 8.93284 14.3321 8.43516 14.1701 7.83331H9.81247C9.68516 8.31942 9.445 8.73898 9.09199 9.09199C8.73898 9.445 8.31942 9.68516 7.83331 9.81247V14.1701C8.43516 14.3321 8.93284 14.6562 9.32636 15.1423C9.71988 15.6284 9.91664 16.2014 9.91664 16.8611C9.91664 17.625 9.64465 18.2789 9.10067 18.8229C8.55669 19.3669 7.90275 19.6389 7.13886 19.6389C6.37497 19.6389 5.72104 19.3669 5.17706 18.8229C4.63307 18.2789 4.36108 17.625 4.36108 16.8611C4.36108 16.2014 4.55784 15.6284 4.95136 15.1423C5.34488 14.6562 5.84257 14.3321 6.44442 14.1701V9.81247C5.84257 9.65044 5.34488 9.32636 4.95136 8.84025C4.55784 8.35414 4.36108 7.78701 4.36108 7.13886C4.36108 6.37497 4.63307 5.72104 5.17706 5.17706C5.72104 4.63307 6.37497 4.36108 7.13886 4.36108C7.78701 4.36108 8.35414 4.55784 8.84025 4.95136C9.32636 5.34488 9.65044 5.84257 9.81247 6.44442H14.1701C14.3321 5.84257 14.6562 5.34488 15.1423 4.95136C15.6284 4.55784 16.2014 4.36108 16.8611 4.36108C17.625 4.36108 18.2789 4.63307 18.8229 5.17706C19.3669 5.72104 19.6389 6.37497 19.6389 7.13886C19.6389 7.90275 19.3669 8.55669 18.8229 9.10067C18.2789 9.64465 17.625 9.91664 16.8611 9.91664ZM16.8611 19.6389C16.0972 19.6389 15.4433 19.3669 14.8993 18.8229C14.3553 18.2789 14.0833 17.625 14.0833 16.8611C14.0833 16.0972 14.3553 15.4433 14.8993 14.8993C15.4433 14.3553 16.0972 14.0833 16.8611 14.0833C17.625 14.0833 18.2789 14.3553 18.8229 14.8993C19.3669 15.4433 19.6389 16.0972 19.6389 16.8611C19.6389 17.625 19.3669 18.2789 18.8229 18.8229C18.2789 19.3669 17.625 19.6389 16.8611 19.6389Z" fill="#1E1E1E"/>
</svg>
