<svg width="24" height="24" viewBox="0 0 24 24" fill="none" xmlns="http://www.w3.org/2000/svg">
<path d="M11.1666 16.1667H7.83329C6.68051 16.1667 5.69788 15.7605 4.88538 14.948C4.07288 14.1355 3.66663 13.1528 3.66663 12C3.66663 10.8473 4.07288 9.86462 4.88538 9.05212C5.69788 8.23962 6.68051 7.83337 7.83329 7.83337H11.1666V9.50004H7.83329C7.13885 9.50004 6.54857 9.7431 6.06246 10.2292C5.57635 10.7153 5.33329 11.3056 5.33329 12C5.33329 12.6945 5.57635 13.2848 6.06246 13.7709C6.54857 14.257 7.13885 14.5 7.83329 14.5H11.1666V16.1667ZM8.66663 12.8334V11.1667H15.3333V12.8334H8.66663ZM12.8333 16.1667V14.5H16.1666C16.8611 14.5 17.4513 14.257 17.9375 13.7709C18.4236 13.2848 18.6666 12.6945 18.6666 12C18.6666 11.3056 18.4236 10.7153 17.9375 10.2292C17.4513 9.7431 16.8611 9.50004 16.1666 9.50004H12.8333V7.83337H16.1666C17.3194 7.83337 18.302 8.23962 19.1145 9.05212C19.927 9.86462 20.3333 10.8473 20.3333 12C20.3333 13.1528 19.927 14.1355 19.1145 14.948C18.302 15.7605 17.3194 16.1667 16.1666 16.1667H12.8333Z" fill="#1E1E1E"/>
</svg>
