<svg width="24" height="24" viewBox="0 0 24 24" fill="none" xmlns="http://www.w3.org/2000/svg">
<path d="M19.2 12C19.2 12.1591 19.1368 12.3117 19.0243 12.4242C18.9118 12.5368 18.7592 12.6 18.6 12.6H5.40005C5.24092 12.6 5.08831 12.5368 4.97578 12.4242C4.86326 12.3117 4.80005 12.1591 4.80005 12C4.80005 11.8408 4.86326 11.6882 4.97578 11.5757C5.08831 11.4632 5.24092 11.4 5.40005 11.4H18.6C18.7592 11.4 18.9118 11.4632 19.0243 11.5757C19.1368 11.6882 19.2 11.8408 19.2 12ZM5.40005 7.79998H18.6C18.7592 7.79998 18.9118 7.73676 19.0243 7.62424C19.1368 7.51172 19.2 7.35911 19.2 7.19998C19.2 7.04085 19.1368 6.88823 19.0243 6.77571C18.9118 6.66319 18.7592 6.59998 18.6 6.59998H5.40005C5.24092 6.59998 5.08831 6.66319 4.97578 6.77571C4.86326 6.88823 4.80005 7.04085 4.80005 7.19998C4.80005 7.35911 4.86326 7.51172 4.97578 7.62424C5.08831 7.73676 5.24092 7.79998 5.40005 7.79998ZM18.6 16.2H5.40005C5.24092 16.2 5.08831 16.2632 4.97578 16.3757C4.86326 16.4882 4.80005 16.6408 4.80005 16.8C4.80005 16.9591 4.86326 17.1117 4.97578 17.2242C5.08831 17.3368 5.24092 17.4 5.40005 17.4H18.6C18.7592 17.4 18.9118 17.3368 19.0243 17.2242C19.1368 17.1117 19.2 16.9591 19.2 16.8C19.2 16.6408 19.1368 16.4882 19.0243 16.3757C18.9118 16.2632 18.7592 16.2 18.6 16.2Z" fill="#1E1E1E"/>
</svg>
