<svg width="24" height="24" viewBox="0 0 24 24" fill="none" xmlns="http://www.w3.org/2000/svg">
<path d="M19.2 12C19.2 12.1591 19.1368 12.3117 19.0242 12.4243C18.9117 12.5368 18.7591 12.6 18.6 12.6H10.2C10.0409 12.6 9.88824 12.5368 9.77572 12.4243C9.6632 12.3117 9.59998 12.1591 9.59998 12C9.59998 11.8409 9.6632 11.6882 9.77572 11.5757C9.88824 11.4632 10.0409 11.4 10.2 11.4H18.6C18.7591 11.4 18.9117 11.4632 19.0242 11.5757C19.1368 11.6882 19.2 11.8409 19.2 12ZM10.2 7.79999H18.6C18.7591 7.79999 18.9117 7.73678 19.0242 7.62425C19.1368 7.51173 19.2 7.35912 19.2 7.19999C19.2 7.04086 19.1368 6.88825 19.0242 6.77573C18.9117 6.6632 18.7591 6.59999 18.6 6.59999H10.2C10.0409 6.59999 9.88824 6.6632 9.77572 6.77573C9.6632 6.88825 9.59998 7.04086 9.59998 7.19999C9.59998 7.35912 9.6632 7.51173 9.77572 7.62425C9.88824 7.73678 10.0409 7.79999 10.2 7.79999ZM18.6 16.2H10.2C10.0409 16.2 9.88824 16.2632 9.77572 16.3757C9.6632 16.4882 9.59998 16.6409 9.59998 16.8C9.59998 16.9591 9.6632 17.1117 9.77572 17.2243C9.88824 17.3368 10.0409 17.4 10.2 17.4H18.6C18.7591 17.4 18.9117 17.3368 19.0242 17.2243C19.1368 17.1117 19.2 16.9591 19.2 16.8C19.2 16.6409 19.1368 16.4882 19.0242 16.3757C18.9117 16.2632 18.7591 16.2 18.6 16.2ZM5.66848 6.53699L5.99998 6.37049V10.2C5.99998 10.3591 6.0632 10.5117 6.17572 10.6243C6.28824 10.7368 6.44085 10.8 6.59998 10.8C6.75911 10.8 6.91173 10.7368 7.02425 10.6243C7.13677 10.5117 7.19998 10.3591 7.19998 10.2V5.39999C7.20006 5.29766 7.17396 5.19702 7.12417 5.10762C7.07438 5.01822 7.00256 4.94305 6.91552 4.88923C6.82849 4.83542 6.72914 4.80476 6.62692 4.80017C6.52469 4.79557 6.42299 4.8172 6.33148 4.86299L5.13148 5.46299C4.98906 5.5342 4.88076 5.65907 4.83041 5.81013C4.80548 5.88493 4.79552 5.96391 4.80111 6.04255C4.8067 6.1212 4.82772 6.19797 4.86298 6.26849C4.89824 6.33901 4.94705 6.40189 5.00661 6.45355C5.06617 6.50521 5.13533 6.54463 5.21013 6.56956C5.36119 6.61992 5.52606 6.6082 5.66848 6.53699ZM8.38273 14.154C8.34956 13.9164 8.26867 13.6879 8.14494 13.4823C8.02121 13.2767 7.85719 13.0983 7.66273 12.9577C7.27327 12.6749 6.78952 12.5537 6.3127 12.6194C5.83589 12.6851 5.40296 12.9326 5.10448 13.3102C4.99041 13.4567 4.90006 13.6202 4.83673 13.7947C4.80367 13.8699 4.78637 13.951 4.7859 14.033C4.78543 14.1151 4.8018 14.1964 4.83401 14.2719C4.86622 14.3474 4.91357 14.4155 4.97314 14.4719C5.0327 14.5284 5.10322 14.572 5.18033 14.6002C5.25744 14.6283 5.33949 14.6403 5.42142 14.6354C5.50335 14.6305 5.58342 14.6089 5.65666 14.5719C5.7299 14.5349 5.79476 14.4832 5.84724 14.4201C5.89971 14.357 5.93868 14.2838 5.96173 14.205C5.98273 14.1475 6.01259 14.0936 6.05023 14.0452C6.15608 13.9134 6.30869 13.8274 6.47632 13.8052C6.64396 13.7829 6.8137 13.8262 6.95023 13.926C7.01591 13.9724 7.07146 14.0318 7.11349 14.1004C7.15552 14.169 7.18316 14.2454 7.19473 14.325C7.20532 14.4015 7.20035 14.4793 7.18011 14.5538C7.15988 14.6283 7.1248 14.6979 7.07698 14.7585C7.0748 14.7611 7.07279 14.7639 7.07098 14.7667L4.91923 17.6407C4.85256 17.7299 4.81202 17.8359 4.80215 17.9469C4.79229 18.0578 4.81349 18.1693 4.86339 18.2688C4.91329 18.3684 4.98991 18.4521 5.08468 18.5106C5.17945 18.5691 5.28862 18.6 5.39998 18.6H7.79998C7.95911 18.6 8.11173 18.5368 8.22425 18.4243C8.33677 18.3117 8.39998 18.1591 8.39998 18C8.39998 17.8409 8.33677 17.6882 8.22425 17.5757C8.11173 17.4632 7.95911 17.4 7.79998 17.4H6.59998L8.03098 15.4852C8.17607 15.2984 8.28199 15.0842 8.34243 14.8554C8.40287 14.6267 8.41657 14.3881 8.38273 14.154Z" fill="#1E1E1E"/>
</svg>
