<svg width="24" height="24" viewBox="0 0 24 24" fill="none" xmlns="http://www.w3.org/2000/svg">
<path d="M5.52003 6.30998C5.72003 6.16998 5.96003 6.09998 6.21003 6.09998C6.54003 6.09998 6.86003 6.23998 7.09003 6.46998C7.33003 6.69998 7.46003 7.01998 7.46003 7.34998C7.46003 7.58998 7.39003 7.82998 7.25003 8.03998C7.11003 8.24998 6.92003 8.40998 6.69003 8.49998C6.46003 8.58998 6.21003 8.61998 5.97003 8.56997C5.73003 8.51998 5.50003 8.39997 5.33003 8.22997C5.16003 8.05998 5.04003 7.82998 4.99003 7.58998C4.94003 7.34998 4.97003 7.09998 5.06003 6.86998C5.15003 6.63998 5.31003 6.44998 5.52003 6.30998Z" fill="#1E1E1E"/>
<path d="M5.52003 10.96C5.72003 10.82 5.96003 10.75 6.21003 10.75C6.54003 10.75 6.86003 10.89 7.09003 11.12C7.33003 11.35 7.46003 11.67 7.46003 12C7.46003 12.24 7.39003 12.48 7.25003 12.69C7.11003 12.9 6.92003 13.06 6.69003 13.15C6.46003 13.24 6.21003 13.27 5.97003 13.22C5.73003 13.17 5.50003 13.05 5.33003 12.88C5.16003 12.71 5.04003 12.48 4.99003 12.24C4.94003 12 4.97003 11.75 5.06003 11.52C5.15003 11.29 5.31003 11.1 5.52003 10.96Z" fill="#1E1E1E"/>
<path d="M6.21003 15.42C5.96003 15.42 5.72003 15.49 5.52003 15.63C5.31003 15.77 5.15003 15.96 5.06003 16.19C4.97003 16.42 4.94003 16.67 4.99003 16.91C5.04003 17.15 5.16003 17.38 5.33003 17.55C5.50003 17.72 5.73003 17.84 5.97003 17.89C6.21003 17.94 6.46003 17.91 6.69003 17.82C6.92003 17.73 7.11003 17.57 7.25003 17.36C7.39003 17.15 7.46003 16.91 7.46003 16.67C7.46003 16.34 7.33003 16.02 7.09003 15.79C6.85003 15.56 6.54003 15.42 6.21003 15.42Z" fill="#1E1E1E"/>
<path d="M9.5 15.83H19.5V17.5H9.5V15.83Z" fill="#1E1E1E"/>
<path d="M19.5 11.17H9.5V12.84H19.5V11.17Z" fill="#1E1E1E"/>
<path d="M9.5 8.17V6.5L19.5 6.53V8.19L9.5 8.17Z" fill="#1E1E1E"/>
</svg>
