<svg width="24" height="24" viewBox="0 0 24 24" fill="none" xmlns="http://www.w3.org/2000/svg">
<path d="M6.00998 6.67003V11.1H7.20998V5.33003L6.60998 5.03003L4.59998 6.03003L5.13998 7.11003L6.00998 6.67003Z" fill="#1E1E1E"/>
<path d="M10.5 8.17V6.5L19.5 6.53V8.19L10.5 8.17Z" fill="#1E1E1E"/>
<path d="M19.5 11.17H10.5V12.84H19.5V11.17Z" fill="#1E1E1E"/>
<path d="M19.5 15.83H10.5V17.5H19.5V15.83Z" fill="#1E1E1E"/>
<path d="M7.89 15.99L7.19 16.92L7.21 16.9L6.62 17.68H8.42V18.88H5.17L4.79 18.12L7.09 15.05C7.09626 15.0406 7.10277 15.0312 7.10933 15.0217C7.14468 14.9707 7.18156 14.9175 7.19 14.85C7.19055 14.8455 7.19111 14.8411 7.19167 14.8367C7.20105 14.7622 7.20944 14.6955 7.2 14.62C7.18999 14.54 7.16 14.47 7.12 14.4C7.08 14.34 7.03 14.28 6.96 14.23C6.83 14.13 6.66 14.09 6.49 14.11C6.31999 14.13 6.16 14.21 6.06 14.35C5.85 14.63 5.75 15.11 5.75 15.11L4.62 14.7L4.84 14.1C4.91 13.93 5 13.77 5.11 13.62C5.41 13.24 5.84 13 6.32 12.93C6.8 12.87 7.28 12.99 7.67 13.27C7.86 13.41 8.02999 13.58 8.14999 13.79C8.27999 13.99 8.36 14.22 8.39 14.46C8.42 14.69 8.41 14.93 8.35 15.16C8.29 15.39 8.18999 15.6 8.04 15.79L7.89 15.99Z" fill="#1E1E1E"/>
</svg>
