<svg width="24" height="24" viewBox="0 0 24 24" fill="none" xmlns="http://www.w3.org/2000/svg">
<path d="M8.39999 7.19999C8.39999 7.04086 8.4632 6.88825 8.57572 6.77572C8.68825 6.6632 8.84086 6.59999 8.99999 6.59999H18.6C18.7591 6.59999 18.9117 6.6632 19.0243 6.77572C19.1368 6.88825 19.2 7.04086 19.2 7.19999C19.2 7.35912 19.1368 7.51173 19.0243 7.62425C18.9117 7.73677 18.7591 7.79999 18.6 7.79999H8.99999C8.84086 7.79999 8.68825 7.73677 8.57572 7.62425C8.4632 7.51173 8.39999 7.35912 8.39999 7.19999ZM18.6 11.4H8.99999C8.84086 11.4 8.68825 11.4632 8.57572 11.5757C8.4632 11.6882 8.39999 11.8409 8.39999 12C8.39999 12.1591 8.4632 12.3117 8.57572 12.4243C8.68825 12.5368 8.84086 12.6 8.99999 12.6H18.6C18.7591 12.6 18.9117 12.5368 19.0243 12.4243C19.1368 12.3117 19.2 12.1591 19.2 12C19.2 11.8409 19.1368 11.6882 19.0243 11.5757C18.9117 11.4632 18.7591 11.4 18.6 11.4ZM18.6 16.2H8.99999C8.84086 16.2 8.68825 16.2632 8.57572 16.3757C8.4632 16.4882 8.39999 16.6409 8.39999 16.8C8.39999 16.9591 8.4632 17.1117 8.57572 17.2243C8.68825 17.3368 8.84086 17.4 8.99999 17.4H18.6C18.7591 17.4 18.9117 17.3368 19.0243 17.2243C19.1368 17.1117 19.2 16.9591 19.2 16.8C19.2 16.6409 19.1368 16.4882 19.0243 16.3757C18.9117 16.2632 18.7591 16.2 18.6 16.2ZM5.69999 6.29999C5.52199 6.29999 5.34798 6.35277 5.19998 6.45167C5.05197 6.55056 4.93662 6.69112 4.8685 6.85557C4.80038 7.02003 4.78255 7.20099 4.81728 7.37557C4.85201 7.55015 4.93772 7.71052 5.06359 7.83638C5.18946 7.96225 5.34982 8.04797 5.52441 8.08269C5.69899 8.11742 5.87995 8.0996 6.0444 8.03148C6.20886 7.96336 6.34942 7.848 6.44831 7.7C6.5472 7.552 6.59999 7.37799 6.59999 7.19999C6.59999 6.96129 6.50517 6.73237 6.33638 6.56359C6.1676 6.39481 5.93868 6.29999 5.69999 6.29999ZM5.69999 11.1C5.52199 11.1 5.34798 11.1528 5.19998 11.2517C5.05197 11.3506 4.93662 11.4911 4.8685 11.6556C4.80038 11.82 4.78255 12.001 4.81728 12.1756C4.85201 12.3502 4.93772 12.5105 5.06359 12.6364C5.18946 12.7623 5.34982 12.848 5.52441 12.8827C5.69899 12.9174 5.87995 12.8996 6.0444 12.8315C6.20886 12.7634 6.34942 12.648 6.44831 12.5C6.5472 12.352 6.59999 12.178 6.59999 12C6.59999 11.7613 6.50517 11.5324 6.33638 11.3636C6.1676 11.1948 5.93868 11.1 5.69999 11.1ZM5.69999 15.9C5.52199 15.9 5.34798 15.9528 5.19998 16.0517C5.05197 16.1506 4.93662 16.2911 4.8685 16.4556C4.80038 16.62 4.78255 16.801 4.81728 16.9756C4.85201 17.1502 4.93772 17.3105 5.06359 17.4364C5.18946 17.5623 5.34982 17.648 5.52441 17.6827C5.69899 17.7174 5.87995 17.6996 6.0444 17.6315C6.20886 17.5634 6.34942 17.448 6.44831 17.3C6.5472 17.152 6.59999 16.978 6.59999 16.8C6.59999 16.5613 6.50517 16.3324 6.33638 16.1636C6.1676 15.9948 5.93868 15.9 5.69999 15.9Z" fill="#1E1E1E"/>
</svg>
