<svg width="24" height="24" viewBox="0 0 24 24" fill="none" xmlns="http://www.w3.org/2000/svg">
<path d="M19.2 12C19.2 12.1591 19.1368 12.3117 19.0243 12.4243C18.9118 12.5368 18.7591 12.6 18.6 12.6H12C11.8409 12.6 11.6883 12.5368 11.5758 12.4243C11.4632 12.3117 11.4 12.1591 11.4 12C11.4 11.8409 11.4632 11.6882 11.5758 11.5757C11.6883 11.4632 11.8409 11.4 12 11.4H18.6C18.7591 11.4 18.9118 11.4632 19.0243 11.5757C19.1368 11.6882 19.2 11.8409 19.2 12ZM12 7.79999H18.6C18.7591 7.79999 18.9118 7.73678 19.0243 7.62426C19.1368 7.51173 19.2 7.35912 19.2 7.19999C19.2 7.04086 19.1368 6.88825 19.0243 6.77573C18.9118 6.66321 18.7591 6.59999 18.6 6.59999H12C11.8409 6.59999 11.6883 6.66321 11.5758 6.77573C11.4632 6.88825 11.4 7.04086 11.4 7.19999C11.4 7.35912 11.4632 7.51173 11.5758 7.62426C11.6883 7.73678 11.8409 7.79999 12 7.79999ZM18.6 16.2H12C11.8409 16.2 11.6883 16.2632 11.5758 16.3757C11.4632 16.4883 11.4 16.6409 11.4 16.8C11.4 16.9591 11.4632 17.1117 11.5758 17.2243C11.6883 17.3368 11.8409 17.4 12 17.4H18.6C18.7591 17.4 18.9118 17.3368 19.0243 17.2243C19.1368 17.1117 19.2 16.9591 19.2 16.8C19.2 16.6409 19.1368 16.4883 19.0243 16.3757C18.9118 16.2632 18.7591 16.2 18.6 16.2ZM8.57552 5.57549L6.60002 7.55174L5.82452 6.77549C5.71193 6.66291 5.55923 6.59966 5.40002 6.59966C5.2408 6.59966 5.0881 6.66291 4.97552 6.77549C4.86293 6.88808 4.79968 7.04077 4.79968 7.19999C4.79968 7.35921 4.86293 7.51191 4.97552 7.62449L6.17552 8.82449C6.23124 8.88028 6.29741 8.92453 6.37025 8.95473C6.44309 8.98492 6.52117 9.00046 6.60002 9.00046C6.67887 9.00046 6.75694 8.98492 6.82978 8.95473C6.90262 8.92453 6.96879 8.88028 7.02452 8.82449L9.42452 6.42449C9.5371 6.31191 9.60035 6.15921 9.60035 5.99999C9.60035 5.84077 9.5371 5.68808 9.42452 5.57549C9.31193 5.46291 9.15923 5.39966 9.00002 5.39966C8.8408 5.39966 8.6881 5.46291 8.57552 5.57549ZM8.57552 10.3755L6.60002 12.3517L5.82452 11.5755C5.71193 11.4629 5.55923 11.3997 5.40002 11.3997C5.2408 11.3997 5.0881 11.4629 4.97552 11.5755C4.86293 11.6881 4.79968 11.8408 4.79968 12C4.79968 12.0788 4.81521 12.1569 4.84538 12.2297C4.87555 12.3026 4.91977 12.3687 4.97552 12.4245L6.17552 13.6245C6.23124 13.6803 6.29741 13.7245 6.37025 13.7547C6.44309 13.7849 6.52117 13.8005 6.60002 13.8005C6.67887 13.8005 6.75694 13.7849 6.82978 13.7547C6.90262 13.7245 6.96879 13.6803 7.02452 13.6245L9.42452 11.2245C9.5371 11.1119 9.60035 10.9592 9.60035 10.8C9.60035 10.6408 9.5371 10.4881 9.42452 10.3755C9.31193 10.2629 9.15923 10.1997 9.00002 10.1997C8.8408 10.1997 8.6881 10.2629 8.57552 10.3755ZM8.57552 15.1755L6.60002 17.1517L5.82452 16.3755C5.76877 16.3197 5.70259 16.2755 5.62975 16.2454C5.55692 16.2152 5.47885 16.1997 5.40002 16.1997C5.32118 16.1997 5.24311 16.2152 5.17028 16.2454C5.09744 16.2755 5.03126 16.3197 4.97552 16.3755C4.91977 16.4312 4.87555 16.4974 4.84538 16.5703C4.81521 16.6431 4.79968 16.7212 4.79968 16.8C4.79968 16.8788 4.81521 16.9569 4.84538 17.0297C4.87555 17.1026 4.91977 17.1687 4.97552 17.2245L6.17552 18.4245C6.23124 18.4803 6.29741 18.5245 6.37025 18.5547C6.44309 18.5849 6.52117 18.6005 6.60002 18.6005C6.67887 18.6005 6.75694 18.5849 6.82978 18.5547C6.90262 18.5245 6.96879 18.4803 7.02452 18.4245L9.42452 16.0245C9.5371 15.9119 9.60035 15.7592 9.60035 15.6C9.60035 15.4408 9.5371 15.2881 9.42452 15.1755C9.31193 15.0629 9.15923 14.9997 9.00002 14.9997C8.8408 14.9997 8.6881 15.0629 8.57552 15.1755Z" fill="#1E1E1E"/>
</svg>
