<svg width="24" height="24" viewBox="0 0 24 24" fill="none" xmlns="http://www.w3.org/2000/svg">
<path d="M18 8.4H15.6V6.6C15.6 5.64522 15.2207 4.72955 14.5456 4.05442C13.8704 3.37928 12.9548 3 12 3C11.0452 3 10.1295 3.37928 9.4544 4.05442C8.77927 4.72955 8.39999 5.64522 8.39999 6.6V8.4H5.99999C5.68173 8.4 5.3765 8.52643 5.15146 8.75147C4.92642 8.97652 4.79999 9.28174 4.79999 9.6V18C4.79999 18.3183 4.92642 18.6235 5.15146 18.8485C5.3765 19.0736 5.68173 19.2 5.99999 19.2H18C18.3182 19.2 18.6235 19.0736 18.8485 18.8485C19.0736 18.6235 19.2 18.3183 19.2 18V9.6C19.2 9.28174 19.0736 8.97652 18.8485 8.75147C18.6235 8.52643 18.3182 8.4 18 8.4ZM9.59999 6.6C9.59999 5.96348 9.85284 5.35303 10.3029 4.90294C10.753 4.45286 11.3635 4.2 12 4.2C12.6365 4.2 13.247 4.45286 13.697 4.90294C14.1471 5.35303 14.4 5.96348 14.4 6.6V8.4H9.59999V6.6ZM18 18H5.99999V9.6H18V18ZM12.9 13.8C12.9 13.978 12.8472 14.152 12.7483 14.3C12.6494 14.448 12.5089 14.5634 12.3444 14.6315C12.1799 14.6996 11.999 14.7174 11.8244 14.6827C11.6498 14.648 11.4895 14.5623 11.3636 14.4364C11.2377 14.3105 11.152 14.1502 11.1173 13.9756C11.0826 13.801 11.1004 13.62 11.1685 13.4556C11.2366 13.2911 11.352 13.1506 11.5 13.0517C11.648 12.9528 11.822 12.9 12 12.9C12.2387 12.9 12.4676 12.9948 12.6364 13.1636C12.8052 13.3324 12.9 13.5613 12.9 13.8Z" fill="#1E1E1E"/>
</svg>
