<svg width="24" height="24" viewBox="0 0 24 24" fill="none" xmlns="http://www.w3.org/2000/svg">
<path d="M18 8.4H9.59999V6.6C9.59999 5.96348 9.85284 5.35303 10.3029 4.90294C10.753 4.45286 11.3635 4.2 12 4.2C13.1527 4.2 14.19 5.025 14.412 6.11925C14.4449 6.27388 14.5376 6.40924 14.6698 6.49593C14.802 6.58262 14.9631 6.61362 15.1181 6.58219C15.273 6.55077 15.4093 6.45946 15.4973 6.32812C15.5853 6.19677 15.6179 6.036 15.588 5.88075C15.249 4.21125 13.74 3 12 3C11.0455 3.00099 10.1304 3.3806 9.4555 4.05551C8.78058 4.73043 8.40098 5.64553 8.39999 6.6V8.4H5.99999C5.68173 8.4 5.3765 8.52643 5.15146 8.75147C4.92642 8.97652 4.79999 9.28174 4.79999 9.6V18C4.79999 18.3183 4.92642 18.6235 5.15146 18.8485C5.3765 19.0736 5.68173 19.2 5.99999 19.2H18C18.3182 19.2 18.6235 19.0736 18.8485 18.8485C19.0736 18.6235 19.2 18.3183 19.2 18V9.6C19.2 9.28174 19.0736 8.97652 18.8485 8.75147C18.6235 8.52643 18.3182 8.4 18 8.4ZM18 18H5.99999V9.6H18V18ZM12.9 13.8C12.9 13.978 12.8472 14.152 12.7483 14.3C12.6494 14.448 12.5089 14.5634 12.3444 14.6315C12.1799 14.6996 11.999 14.7174 11.8244 14.6827C11.6498 14.648 11.4895 14.5623 11.3636 14.4364C11.2377 14.3105 11.152 14.1502 11.1173 13.9756C11.0826 13.801 11.1004 13.62 11.1685 13.4556C11.2366 13.2911 11.352 13.1506 11.5 13.0517C11.648 12.9528 11.822 12.9 12 12.9C12.2387 12.9 12.4676 12.9948 12.6364 13.1636C12.8052 13.3324 12.9 13.5613 12.9 13.8Z" fill="#1E1E1E"/>
</svg>
