<svg width="24" height="24" viewBox="0 0 24 24" fill="none" xmlns="http://www.w3.org/2000/svg">
<path d="M7.00004 8.08333H14.5V6.41667C14.5 5.72222 14.257 5.13194 13.7709 4.64583C13.2848 4.15972 12.6945 3.91667 12 3.91667C11.3056 3.91667 10.7153 4.15972 10.2292 4.64583C9.7431 5.13194 9.50004 5.72222 9.50004 6.41667H7.83337C7.83337 5.26389 8.23962 4.28125 9.05212 3.46875C9.86462 2.65625 10.8473 2.25 12 2.25C13.1528 2.25 14.1355 2.65625 14.948 3.46875C15.7605 4.28125 16.1667 5.26389 16.1667 6.41667V8.08333H17C17.4584 8.08333 17.8507 8.24653 18.1771 8.57292C18.5035 8.89931 18.6667 9.29167 18.6667 9.75V18.0833C18.6667 18.5417 18.5035 18.934 18.1771 19.2604C17.8507 19.5868 17.4584 19.75 17 19.75H7.00004C6.54171 19.75 6.14935 19.5868 5.82296 19.2604C5.49657 18.934 5.33337 18.5417 5.33337 18.0833V9.75C5.33337 9.29167 5.49657 8.89931 5.82296 8.57292C6.14935 8.24653 6.54171 8.08333 7.00004 8.08333ZM12 15.5833C12.4584 15.5833 12.8507 15.4201 13.1771 15.0938C13.5035 14.7674 13.6667 14.375 13.6667 13.9167C13.6667 13.4583 13.5035 13.066 13.1771 12.7396C12.8507 12.4132 12.4584 12.25 12 12.25C11.5417 12.25 11.1493 12.4132 10.823 12.7396C10.4966 13.066 10.3334 13.4583 10.3334 13.9167C10.3334 14.375 10.4966 14.7674 10.823 15.0938C11.1493 15.4201 11.5417 15.5833 12 15.5833Z" fill="#1E1E1E"/>
</svg>
