<svg width="24" height="24" viewBox="0 0 24 24" fill="none" xmlns="http://www.w3.org/2000/svg">
<path d="M19.6245 18.7755L15.8692 15.021C16.9577 13.7143 17.5004 12.0383 17.3846 10.3416C17.2687 8.64491 16.5032 7.05819 15.2473 5.91153C13.9914 4.76486 12.3417 4.14654 10.6415 4.18518C8.94131 4.22382 7.32146 4.91645 6.11892 6.11899C4.91639 7.32152 4.22376 8.94138 4.18512 10.6416C4.14648 12.3418 4.7648 13.9914 5.91147 15.2474C7.05813 16.5033 8.64485 17.2688 10.3415 17.3846C12.0382 17.5005 13.7143 16.9577 15.021 15.8693L18.7755 19.6246C18.8312 19.6803 18.8974 19.7245 18.9703 19.7547C19.0431 19.7849 19.1212 19.8004 19.2 19.8004C19.2788 19.8004 19.3569 19.7849 19.4297 19.7547C19.5026 19.7245 19.5687 19.6803 19.6245 19.6246C19.6802 19.5688 19.7245 19.5026 19.7546 19.4298C19.7848 19.357 19.8003 19.2789 19.8003 19.2001C19.8003 19.1212 19.7848 19.0431 19.7546 18.9703C19.7245 18.8975 19.6802 18.8313 19.6245 18.7755ZM5.39999 10.8C5.39999 9.73203 5.71669 8.688 6.31005 7.79997C6.90341 6.91194 7.74678 6.21981 8.7335 5.8111C9.72022 5.40239 10.806 5.29545 11.8535 5.50381C12.901 5.71217 13.8632 6.22647 14.6184 6.98167C15.3736 7.73688 15.8879 8.69906 16.0962 9.74656C16.3046 10.7941 16.1977 11.8798 15.7889 12.8665C15.3802 13.8533 14.6881 14.6966 13.8001 15.29C12.912 15.8833 11.868 16.2001 10.8 16.2001C9.36831 16.1985 7.99572 15.629 6.98337 14.6167C5.97101 13.6043 5.40158 12.2317 5.39999 10.8Z" fill="#1E1E1E"/>
</svg>
