<svg width="24" height="24" viewBox="0 0 24 24" fill="none" xmlns="http://www.w3.org/2000/svg">
<path d="M10.2 13.8C10.2 13.9591 10.1368 14.1117 10.0242 14.2242C9.91172 14.3368 9.75911 14.4 9.59998 14.4H6.59998C6.44085 14.4 6.28823 14.3368 6.17571 14.2242C6.06319 14.1117 5.99998 13.9591 5.99998 13.8C5.99998 13.6408 6.06319 13.4882 6.17571 13.3757C6.28823 13.2632 6.44085 13.2 6.59998 13.2H9.59998C9.75911 13.2 9.91172 13.2632 10.0242 13.3757C10.1368 13.4882 10.2 13.6408 10.2 13.8ZM20.4 11.1V15.6C20.4 15.9182 20.2735 16.2235 20.0485 16.4485C19.8235 16.6735 19.5182 16.8 19.2 16.8H12.6V19.2C12.6 19.3591 12.5368 19.5117 12.4242 19.6242C12.3117 19.7368 12.1591 19.8 12 19.8C11.8408 19.8 11.6882 19.7368 11.5757 19.6242C11.4632 19.5117 11.4 19.3591 11.4 19.2V16.8H4.79998C4.48172 16.8 4.17649 16.6735 3.95145 16.4485C3.7264 16.2235 3.59998 15.9182 3.59998 15.6V11.1C3.60137 9.90693 4.07592 8.76314 4.91953 7.91953C5.76314 7.07592 6.90693 6.60137 8.09998 6.59998H13.8V4.19998C13.8 4.04085 13.8632 3.88823 13.9757 3.77571C14.0882 3.66319 14.2408 3.59998 14.4 3.59998H16.8C16.9591 3.59998 17.1117 3.66319 17.2242 3.77571C17.3368 3.88823 17.4 4.04085 17.4 4.19998C17.4 4.35911 17.3368 4.51172 17.2242 4.62424C17.1117 4.73676 16.9591 4.79998 16.8 4.79998H15V6.59998H15.9C17.093 6.60137 18.2368 7.07592 19.0804 7.91953C19.924 8.76314 20.3986 9.90693 20.4 11.1ZM11.4 15.6V11.1C11.4 10.2248 11.0523 9.38539 10.4334 8.76652C9.81456 8.14765 8.97519 7.79998 8.09998 7.79998C7.22476 7.79998 6.38539 8.14765 5.76652 8.76652C5.14765 9.38539 4.79998 10.2248 4.79998 11.1V15.6H11.4ZM19.2 11.1C19.199 10.2251 18.851 9.38627 18.2323 8.76762C17.6137 8.14896 16.7749 7.80097 15.9 7.79998H15V13.2C15 13.3591 14.9368 13.5117 14.8242 13.6242C14.7117 13.7368 14.5591 13.8 14.4 13.8C14.2408 13.8 14.0882 13.7368 13.9757 13.6242C13.8632 13.5117 13.8 13.3591 13.8 13.2V7.79998H11.1562C11.6117 8.22055 11.9751 8.73088 12.2236 9.29884C12.472 9.86679 12.6002 10.48 12.6 11.1V15.6H19.2V11.1Z" fill="#1E1E1E"/>
</svg>
