<svg width="24" height="24" viewBox="0 0 24 24" fill="none" xmlns="http://www.w3.org/2000/svg">
<path d="M16.2 7.80003C16.2001 6.99496 15.9688 6.20682 15.5337 5.52947C15.0985 4.85213 14.4779 4.31413 13.7456 3.97953C13.0133 3.64493 12.2004 3.52784 11.4034 3.6422C10.6065 3.75656 9.85927 4.09756 9.25066 4.62457C8.64205 5.15159 8.19774 5.84242 7.97063 6.6148C7.74352 7.38718 7.74318 8.20857 7.96966 8.98113C8.19614 9.7537 8.63989 10.4449 9.24807 10.9724C9.85625 11.4999 10.6032 11.8415 11.4 11.9565V19.8C11.4 19.9592 11.4633 20.1118 11.5758 20.2243C11.6883 20.3368 11.8409 20.4 12 20.4C12.1592 20.4 12.3118 20.3368 12.4243 20.2243C12.5368 20.1118 12.6 19.9592 12.6 19.8V11.9565C13.599 11.8109 14.5123 11.311 15.1732 10.5479C15.8341 9.78482 16.1985 8.80953 16.2 7.80003ZM12 10.8C11.4067 10.8 10.8267 10.6241 10.3333 10.2944C9.83999 9.9648 9.45547 9.49626 9.22841 8.94808C9.00135 8.39991 8.94194 7.79671 9.05769 7.21476C9.17345 6.63282 9.45917 6.09827 9.87873 5.67871C10.2983 5.25916 10.8328 4.97343 11.4148 4.85768C11.9967 4.74192 12.5999 4.80133 13.1481 5.0284C13.6963 5.25546 14.1648 5.63998 14.4945 6.13332C14.8241 6.62667 15 7.20669 15 7.80003C15 8.194 14.9225 8.58411 14.7717 8.94808C14.6209 9.31206 14.3999 9.64278 14.1214 9.92135C13.8428 10.1999 13.5121 10.4209 13.1481 10.5717C12.7841 10.7224 12.394 10.8 12 10.8Z" fill="#1E1E1E"/>
</svg>
