<svg width="24" height="24" viewBox="0 0 24 24" fill="none" xmlns="http://www.w3.org/2000/svg">
<path d="M12 17.8334C10.0416 16.3889 8.57982 14.9861 7.61454 13.625C6.64926 12.2639 6.16663 10.9306 6.16663 9.62502C6.16663 7.88891 6.70829 6.46183 7.79163 5.34377C8.87496 4.22571 10.2777 3.66669 12 3.66669C13.7222 3.66669 15.125 4.22571 16.2083 5.34377C17.2916 6.46183 17.8333 7.88891 17.8333 9.62502C17.8333 10.9306 17.3507 12.2639 16.3854 13.625C15.4201 14.9861 13.9583 16.3889 12 17.8334ZM12 11.1667C12.4583 11.1667 12.8507 11.0035 13.177 10.6771C13.5034 10.3507 13.6666 9.95835 13.6666 9.50002C13.6666 9.04169 13.5034 8.64933 13.177 8.32294C12.8507 7.99655 12.4583 7.83335 12 7.83335C11.5416 7.83335 11.1493 7.99655 10.8229 8.32294C10.4965 8.64933 10.3333 9.04169 10.3333 9.50002C10.3333 9.95835 10.4965 10.3507 10.8229 10.6771C11.1493 11.0035 11.5416 11.1667 12 11.1667ZM6.16663 20.3334V18.6667H17.8333V20.3334H6.16663Z" fill="#1E1E1E"/>
</svg>
