<svg width="24" height="24" viewBox="0 0 24 24" fill="none" xmlns="http://www.w3.org/2000/svg">
<path d="M19.8844 5.88206C19.8095 5.82372 19.7223 5.7832 19.6295 5.76357C19.5366 5.74395 19.4405 5.74573 19.3484 5.76878L14.5727 6.96253L9.77969 4.56565C9.64614 4.49904 9.49317 4.48241 9.34844 4.51878L4.34844 5.76878C4.21323 5.80257 4.09319 5.8806 4.00741 5.99044C3.92163 6.10029 3.87502 6.23565 3.875 6.37503V17.625C3.87501 17.72 3.89667 17.8137 3.93833 17.8991C3.97998 17.9844 4.04054 18.0591 4.1154 18.1176C4.19025 18.176 4.27745 18.2166 4.37035 18.2363C4.46326 18.256 4.55943 18.2543 4.65156 18.2313L9.42734 17.0375L14.2203 19.4344C14.3073 19.4773 14.403 19.4997 14.5 19.5C14.5511 19.5 14.602 19.4937 14.6516 19.4813L19.6516 18.2313C19.7868 18.1975 19.9068 18.1195 19.9926 18.0096C20.0784 17.8998 20.125 17.7644 20.125 17.625V6.37503C20.125 6.27997 20.1034 6.18616 20.0617 6.10073C20.02 6.01531 19.9593 5.94052 19.8844 5.88206ZM9.5 15.75C9.4489 15.7501 9.398 15.7564 9.34844 15.7688L5.125 16.8242V6.86331L9.42734 5.78753L9.5 5.82346V15.75ZM18.875 17.1367L14.5727 18.2125L14.5 18.1766V8.25003C14.5511 8.25025 14.602 8.24422 14.6516 8.23206L18.875 7.17581V17.1367Z" fill="#1E1E1E"/>
</svg>
