<svg width="24" height="24" viewBox="0 0 24 24" fill="none" xmlns="http://www.w3.org/2000/svg">
<path d="M5.33329 16.5833C4.87496 16.5833 4.4826 16.4201 4.15621 16.0937C3.82982 15.7673 3.66663 15.375 3.66663 14.9166V8.37498C3.66663 8.16665 3.72565 7.96179 3.84371 7.7604C3.96176 7.55901 4.12496 7.40276 4.33329 7.29165L10.75 4.08331L17.0416 7.29165C17.2083 7.37498 17.3507 7.50692 17.4687 7.68748C17.5868 7.86804 17.6666 8.05554 17.7083 8.24998H15.2708L10.75 5.95831L5.33329 8.64581V16.5833ZM7.83329 19.9166C7.37496 19.9166 6.9826 19.7535 6.65621 19.4271C6.32982 19.1007 6.16663 18.7083 6.16663 18.25V10.75C6.16663 10.2916 6.32982 9.89929 6.65621 9.5729C6.9826 9.24651 7.37496 9.08331 7.83329 9.08331H18.6666C19.125 9.08331 19.5173 9.24651 19.8437 9.5729C20.1701 9.89929 20.3333 10.2916 20.3333 10.75V18.25C20.3333 18.7083 20.1701 19.1007 19.8437 19.4271C19.5173 19.7535 19.125 19.9166 18.6666 19.9166H7.83329ZM13.25 15.2083L18.6666 12.4166V10.75L13.25 13.5416L7.83329 10.75V12.4166L13.25 15.2083Z" fill="#1E1E1E"/>
</svg>
