<svg width="24" height="24" viewBox="0 0 24 24" fill="none" xmlns="http://www.w3.org/2000/svg">
<path fill-rule="evenodd" clip-rule="evenodd" d="M9.865 5.26001H18.375C19.065 5.26001 19.625 5.82001 19.625 6.51001V14.95C19.625 15.15 19.505 15.34 19.315 15.43C19.235 15.46 19.165 15.48 19.085 15.48C18.965 15.48 18.845 15.44 18.745 15.36L16.765 13.71H9.865C9.175 13.71 8.615 13.15 8.615 12.46V6.51001C8.615 5.82001 9.175 5.26001 9.865 5.26001ZM10.455 11.48H15.455V10.23H10.455V11.48ZM10.455 8.74001H17.455V7.49001H10.455V8.74001Z" fill="#1E1E1E"/>
<path d="M6.775 15.72H14.135V14.71H15.385V15.72C15.385 16.41 14.825 16.97 14.135 16.97H7.235L5.255 18.62C5.155 18.7 5.035 18.74 4.915 18.74C4.835 18.74 4.755 18.72 4.685 18.69C4.495 18.6 4.375 18.42 4.375 18.21V9.77001C4.375 9.08001 4.935 8.52001 5.625 8.52001H7.615V9.77001H5.625V16.68L6.775 15.72Z" fill="#1E1E1E"/>
</svg>
