<svg width="24" height="24" viewBox="0 0 24 24" fill="none" xmlns="http://www.w3.org/2000/svg">
<path d="M7.41667 21.1666C6.95833 21.1666 6.56597 21.0035 6.23958 20.6771C5.91319 20.3507 5.75 19.9583 5.75 19.5V4.49998C5.75 4.04165 5.91319 3.64929 6.23958 3.3229C6.56597 2.99651 6.95833 2.83331 7.41667 2.83331H15.75C16.2083 2.83331 16.6007 2.99651 16.9271 3.3229C17.2535 3.64929 17.4167 4.04165 17.4167 4.49998V7.08331C17.6667 7.18054 17.8681 7.33331 18.0208 7.54165C18.1736 7.74998 18.25 7.98609 18.25 8.24998V9.91665C18.25 10.1805 18.1736 10.4166 18.0208 10.625C17.8681 10.8333 17.6667 10.9861 17.4167 11.0833V19.5C17.4167 19.9583 17.2535 20.3507 16.9271 20.6771C16.6007 21.0035 16.2083 21.1666 15.75 21.1666H7.41667ZM12.1771 6.7604C12.3368 6.60067 12.4167 6.40276 12.4167 6.16665C12.4167 5.93054 12.3368 5.73262 12.1771 5.5729C12.0174 5.41317 11.8194 5.33331 11.5833 5.33331C11.3472 5.33331 11.1493 5.41317 10.9896 5.5729C10.8299 5.73262 10.75 5.93054 10.75 6.16665C10.75 6.40276 10.8299 6.60067 10.9896 6.7604C11.1493 6.92012 11.3472 6.99998 11.5833 6.99998C11.8194 6.99998 12.0174 6.92012 12.1771 6.7604Z" fill="#1E1E1E"/>
</svg>
