<svg width="24" height="24" viewBox="0 0 24 24" fill="none" xmlns="http://www.w3.org/2000/svg">
<path d="M21.0828 6.68766C20.9929 6.6315 20.8901 6.59917 20.7841 6.5937C20.6782 6.58824 20.5727 6.60981 20.4774 6.65641C17.1235 8.29703 14.7281 7.52828 12.1961 6.71735C9.53284 5.86969 6.78284 4.99078 2.97737 6.8486C2.87227 6.89991 2.78368 6.97968 2.72167 7.07884C2.65966 7.17801 2.62672 7.29258 2.62659 7.40953V16.7791C2.62657 16.8851 2.65354 16.9894 2.70495 17.0822C2.75636 17.1749 2.83052 17.253 2.92046 17.3092C3.0104 17.3654 3.11315 17.3978 3.21905 17.4033C3.32495 17.4088 3.43051 17.3873 3.52581 17.3408C6.87971 15.7002 9.27502 16.4689 11.811 17.2798C13.3141 17.7603 14.8453 18.2502 16.5766 18.2502C17.9117 18.2502 19.368 17.9595 21.0227 17.1517C21.1278 17.1004 21.2164 17.0206 21.2784 16.9215C21.3404 16.8223 21.3733 16.7077 21.3735 16.5908V7.22125C21.3744 7.11493 21.3482 7.01013 21.2974 6.91676C21.2465 6.82339 21.1727 6.74454 21.0828 6.68766ZM5.75159 13.8752C5.75159 14.0409 5.68574 14.1999 5.56853 14.3171C5.45132 14.4343 5.29235 14.5002 5.12659 14.5002C4.96083 14.5002 4.80186 14.4343 4.68465 14.3171C4.56744 14.1999 4.50159 14.0409 4.50159 13.8752V8.87516C4.50159 8.7094 4.56744 8.55043 4.68465 8.43322C4.80186 8.31601 4.96083 8.25016 5.12659 8.25016C5.29235 8.25016 5.45132 8.31601 5.56853 8.43322C5.68574 8.55043 5.75159 8.7094 5.75159 8.87516V13.8752ZM12.0016 14.5002C11.5071 14.5002 11.0238 14.3535 10.6127 14.0788C10.2015 13.8041 9.88111 13.4137 9.69189 12.9569C9.50267 12.5001 9.45316 11.9974 9.54962 11.5124C9.64609 11.0275 9.88419 10.582 10.2338 10.2324C10.5835 9.88276 11.0289 9.64466 11.5139 9.54819C11.9988 9.45173 12.5015 9.50124 12.9583 9.69046C13.4151 9.87968 13.8056 10.2001 14.0803 10.6112C14.355 11.0224 14.5016 11.5057 14.5016 12.0002C14.5016 12.6632 14.2382 13.2991 13.7694 13.7679C13.3005 14.2368 12.6646 14.5002 12.0016 14.5002ZM19.5016 15.1252C19.5016 15.2909 19.4357 15.4499 19.3185 15.5671C19.2013 15.6843 19.0423 15.7502 18.8766 15.7502C18.7108 15.7502 18.5519 15.6843 18.4346 15.5671C18.3174 15.4499 18.2516 15.2909 18.2516 15.1252V10.1252C18.2516 9.9594 18.3174 9.80043 18.4346 9.68322C18.5519 9.56601 18.7108 9.50016 18.8766 9.50016C19.0423 9.50016 19.2013 9.56601 19.3185 9.68322C19.4357 9.80043 19.5016 9.9594 19.5016 10.1252V15.1252Z" fill="#1E1E1E"/>
</svg>
