<svg width="24" height="24" viewBox="0 0 24 24" fill="none" xmlns="http://www.w3.org/2000/svg">
<path d="M6.99996 20V18.3333H11.1666V15.8333H5.33329C4.87496 15.8333 4.4826 15.6701 4.15621 15.3438C3.82982 15.0174 3.66663 14.625 3.66663 14.1667V6.66667C3.66663 6.20833 3.82982 5.81597 4.15621 5.48958C4.4826 5.16319 4.87496 5 5.33329 5H18.6666C19.125 5 19.5173 5.16319 19.8437 5.48958C20.1701 5.81597 20.3333 6.20833 20.3333 6.66667V14.1667C20.3333 14.625 20.1701 15.0174 19.8437 15.3438C19.5173 15.6701 19.125 15.8333 18.6666 15.8333H12.8333V18.3333H17V20H6.99996Z" fill="#1E1E1E"/>
</svg>
