<svg width="24" height="24" viewBox="0 0 24 24" fill="none" xmlns="http://www.w3.org/2000/svg">
<path d="M15.0019 7.50806H13.8019V6.60806H12.9019V5.40806H13.8019V4.50806H15.0019V5.40806H15.9019V6.60806H15.0019V7.50806Z" fill="#1E1E1E"/>
<path d="M14.8819 13.5181C13.8419 13.1981 12.9019 12.6381 12.1319 11.8681C11.3619 11.0981 10.8019 10.1581 10.4819 9.11807C10.1619 8.07807 10.1119 6.97807 10.3219 5.91807C10.3819 5.52807 10.6019 5.01807 10.6019 5.01807C10.6019 5.01807 9.94186 5.08807 9.52186 5.23807C8.38186 5.65807 7.37186 6.34807 6.57186 7.25807C5.78186 8.17807 5.23186 9.26807 4.97186 10.4481C4.71186 11.6281 4.75186 12.8581 5.09186 14.0181C5.43186 15.1781 6.06186 16.2381 6.91186 17.0881C7.77186 17.9481 8.82186 18.5681 9.98186 18.9081C11.1419 19.2481 12.3719 19.2881 13.5519 19.0281C14.7319 18.7681 15.8319 18.2081 16.7419 17.4181C17.6519 16.6181 18.3519 15.6081 18.7619 14.4681C18.9119 14.0581 18.9819 13.3881 18.9819 13.3881C18.9819 13.3881 18.4719 13.6081 18.0819 13.6681C17.0219 13.8781 15.9219 13.8281 14.8819 13.5081V13.5181Z" fill="#1E1E1E"/>
<path d="M18.6019 9.00806V7.50806H17.4019V9.00806H15.9019V10.2081H17.4019V11.7081H18.6019V10.2081H20.1019V9.00806H18.6019Z" fill="#1E1E1E"/>
</svg>
