<svg width="24" height="24" viewBox="0 0 24 24" fill="none" xmlns="http://www.w3.org/2000/svg">
<path d="M20.4 9.60001C20.4 9.75914 20.3368 9.91175 20.2243 10.0243C20.1118 10.1368 19.9591 10.2 19.8 10.2H18.6V11.4C18.6 11.5591 18.5368 11.7118 18.4243 11.8243C18.3118 11.9368 18.1591 12 18 12C17.8409 12 17.6883 11.9368 17.5758 11.8243C17.4632 11.7118 17.4 11.5591 17.4 11.4V10.2H16.2C16.0409 10.2 15.8883 10.1368 15.7758 10.0243C15.6632 9.91175 15.6 9.75914 15.6 9.60001C15.6 9.44088 15.6632 9.28827 15.7758 9.17575C15.8883 9.06323 16.0409 9.00001 16.2 9.00001H17.4V7.80001C17.4 7.64088 17.4632 7.48827 17.5758 7.37575C17.6883 7.26323 17.8409 7.20001 18 7.20001C18.1591 7.20001 18.3118 7.26323 18.4243 7.37575C18.5368 7.48827 18.6 7.64088 18.6 7.80001V9.00001H19.8C19.9591 9.00001 20.1118 9.06323 20.2243 9.17575C20.3368 9.28827 20.4 9.44088 20.4 9.60001ZM13.2 6.60001H13.8V7.20001C13.8 7.35914 13.8632 7.51175 13.9758 7.62428C14.0883 7.7368 14.2409 7.80001 14.4 7.80001C14.5591 7.80001 14.7118 7.7368 14.8243 7.62428C14.9368 7.51175 15 7.35914 15 7.20001V6.60001H15.6C15.7591 6.60001 15.9118 6.5368 16.0243 6.42428C16.1368 6.31175 16.2 6.15914 16.2 6.00001C16.2 5.84088 16.1368 5.68827 16.0243 5.57575C15.9118 5.46323 15.7591 5.40001 15.6 5.40001H15V4.80001C15 4.64088 14.9368 4.48827 14.8243 4.37575C14.7118 4.26323 14.5591 4.20001 14.4 4.20001C14.2409 4.20001 14.0883 4.26323 13.9758 4.37575C13.8632 4.48827 13.8 4.64088 13.8 4.80001V5.40001H13.2C13.0409 5.40001 12.8883 5.46323 12.7758 5.57575C12.6632 5.68827 12.6 5.84088 12.6 6.00001C12.6 6.15914 12.6632 6.31175 12.7758 6.42428C12.8883 6.5368 13.0409 6.60001 13.2 6.60001ZM18.0855 13.6748C17.0213 13.885 15.9217 13.8299 14.8838 13.5144C13.8459 13.1988 12.9017 12.6325 12.1346 11.8654C11.3676 11.0983 10.8012 10.1541 10.4857 9.11625C10.1701 8.07837 10.115 6.97874 10.3253 5.91451C10.3459 5.81007 10.3383 5.70203 10.3034 5.60148C10.2684 5.50093 10.2074 5.41148 10.1264 5.34232C10.0455 5.27315 9.94766 5.22676 9.84289 5.20791C9.73812 5.18905 9.63023 5.1984 9.53027 5.23501C8.39412 5.65046 7.38096 6.34548 6.58436 7.25589C5.78775 8.1663 5.23337 9.26275 4.97242 10.444C4.71147 11.6252 4.75236 12.8532 5.09131 14.0145C5.43026 15.1757 6.05635 16.2329 6.91175 17.0883C7.76715 17.9437 8.8243 18.5698 9.98557 18.9087C11.1468 19.2477 12.3748 19.2886 13.556 19.0276C14.7373 18.7667 15.8337 18.2123 16.7441 17.4157C17.6546 16.6191 18.3496 15.6059 18.765 14.4698C18.8016 14.3698 18.811 14.2619 18.7921 14.1571C18.7733 14.0524 18.7269 13.9545 18.6577 13.8736C18.5886 13.7927 18.4991 13.7316 18.3986 13.6967C18.298 13.6617 18.19 13.6542 18.0855 13.6748Z" fill="#1E1E1E"/>
</svg>
