<svg width="24" height="24" viewBox="0 0 24 24" fill="none" xmlns="http://www.w3.org/2000/svg">
<path d="M20.75 11.375C20.75 11.5408 20.6842 11.6997 20.5669 11.8169C20.4497 11.9342 20.2908 12 20.125 12H17.625V13.25C17.625 13.4158 17.5592 13.5747 17.4419 13.6919C17.3247 13.8092 17.1658 13.875 17 13.875C16.8342 13.875 16.6753 13.8092 16.5581 13.6919C16.4408 13.5747 16.375 13.4158 16.375 13.25V12H7.625V14.5H8.25C8.58152 14.5 8.89946 14.6317 9.13388 14.8661C9.3683 15.1005 9.5 15.4185 9.5 15.75V18.25C9.5 18.5815 9.3683 18.8995 9.13388 19.1339C8.89946 19.3683 8.58152 19.5 8.25 19.5H5.75C5.41848 19.5 5.10054 19.3683 4.86612 19.1339C4.6317 18.8995 4.5 18.5815 4.5 18.25V15.75C4.5 15.4185 4.6317 15.1005 4.86612 14.8661C5.10054 14.6317 5.41848 14.5 5.75 14.5H6.375V12H3.875C3.70924 12 3.55027 11.9342 3.43306 11.8169C3.31585 11.6997 3.25 11.5408 3.25 11.375C3.25 11.2092 3.31585 11.0503 3.43306 10.9331C3.55027 10.8158 3.70924 10.75 3.875 10.75H11.375V8.875H10.75C10.4185 8.875 10.1005 8.7433 9.86612 8.50888C9.6317 8.27446 9.5 7.95652 9.5 7.625V5.125C9.5 4.79348 9.6317 4.47554 9.86612 4.24112C10.1005 4.0067 10.4185 3.875 10.75 3.875H13.25C13.5815 3.875 13.8995 4.0067 14.1339 4.24112C14.3683 4.47554 14.5 4.79348 14.5 5.125V7.625C14.5 7.95652 14.3683 8.27446 14.1339 8.50888C13.8995 8.7433 13.5815 8.875 13.25 8.875H12.625V10.75H20.125C20.2908 10.75 20.4497 10.8158 20.5669 10.9331C20.6842 11.0503 20.75 11.2092 20.75 11.375ZM19.3172 14.6828C19.2591 14.6247 19.1902 14.5786 19.1143 14.5471C19.0385 14.5157 18.9571 14.4995 18.875 14.4995C18.7929 14.4995 18.7115 14.5157 18.6357 14.5471C18.5598 14.5786 18.4909 14.6247 18.4328 14.6828L17 16.1164L15.5672 14.6828C15.4499 14.5655 15.2909 14.4997 15.125 14.4997C14.9591 14.4997 14.8001 14.5655 14.6828 14.6828C14.5655 14.8001 14.4997 14.9591 14.4997 15.125C14.4997 15.2909 14.5655 15.4499 14.6828 15.5672L16.1164 17L14.6828 18.4328C14.5655 18.5501 14.4997 18.7091 14.4997 18.875C14.4997 19.0409 14.5655 19.1999 14.6828 19.3172C14.8001 19.4345 14.9591 19.5003 15.125 19.5003C15.2909 19.5003 15.4499 19.4345 15.5672 19.3172L17 17.8836L18.4328 19.3172C18.4909 19.3753 18.5598 19.4213 18.6357 19.4527C18.7116 19.4842 18.7929 19.5003 18.875 19.5003C18.9571 19.5003 19.0384 19.4842 19.1143 19.4527C19.1902 19.4213 19.2591 19.3753 19.3172 19.3172C19.3753 19.2591 19.4213 19.1902 19.4527 19.1143C19.4842 19.0384 19.5003 18.9571 19.5003 18.875C19.5003 18.7929 19.4842 18.7116 19.4527 18.6357C19.4213 18.5598 19.3753 18.4909 19.3172 18.4328L17.8836 17L19.3172 15.5672C19.3753 15.5091 19.4214 15.4402 19.4529 15.3643C19.4843 15.2885 19.5005 15.2071 19.5005 15.125C19.5005 15.0429 19.4843 14.9615 19.4529 14.8857C19.4214 14.8098 19.3753 14.7409 19.3172 14.6828Z" fill="#1E1E1E"/>
</svg>
