<svg width="24" height="24" viewBox="0 0 24 24" fill="none" xmlns="http://www.w3.org/2000/svg">
<path d="M20.75 11.375C20.75 11.5408 20.6842 11.6997 20.5669 11.8169C20.4497 11.9342 20.2908 12 20.125 12H17.625V14.5H18.25C18.5815 14.5 18.8995 14.6317 19.1339 14.8661C19.3683 15.1005 19.5 15.4185 19.5 15.75V18.25C19.5 18.5815 19.3683 18.8995 19.1339 19.1339C18.8995 19.3683 18.5815 19.5 18.25 19.5H15.75C15.4185 19.5 15.1005 19.3683 14.8661 19.1339C14.6317 18.8995 14.5 18.5815 14.5 18.25V15.75C14.5 15.4185 14.6317 15.1005 14.8661 14.8661C15.1005 14.6317 15.4185 14.5 15.75 14.5H16.375V12H7.625V14.5H8.25C8.58152 14.5 8.89946 14.6317 9.13388 14.8661C9.3683 15.1005 9.5 15.4185 9.5 15.75V18.25C9.5 18.5815 9.3683 18.8995 9.13388 19.1339C8.89946 19.3683 8.58152 19.5 8.25 19.5H5.75C5.41848 19.5 5.10054 19.3683 4.86612 19.1339C4.6317 18.8995 4.5 18.5815 4.5 18.25V15.75C4.5 15.4185 4.6317 15.1005 4.86612 14.8661C5.10054 14.6317 5.41848 14.5 5.75 14.5H6.375V12H3.875C3.70924 12 3.55027 11.9342 3.43306 11.8169C3.31585 11.6997 3.25 11.5408 3.25 11.375C3.25 11.2092 3.31585 11.0503 3.43306 10.9331C3.55027 10.8158 3.70924 10.75 3.875 10.75H11.375V8.875H10.75C10.4185 8.875 10.1005 8.7433 9.86612 8.50888C9.6317 8.27446 9.5 7.95652 9.5 7.625V5.125C9.5 4.79348 9.6317 4.47554 9.86612 4.24112C10.1005 4.0067 10.4185 3.875 10.75 3.875H13.25C13.5815 3.875 13.8995 4.0067 14.1339 4.24112C14.3683 4.47554 14.5 4.79348 14.5 5.125V7.625C14.5 7.95652 14.3683 8.27446 14.1339 8.50888C13.8995 8.7433 13.5815 8.875 13.25 8.875H12.625V10.75H20.125C20.2908 10.75 20.4497 10.8158 20.5669 10.9331C20.6842 11.0503 20.75 11.2092 20.75 11.375Z" fill="#1E1E1E"/>
</svg>
