<svg width="24" height="24" viewBox="0 0 24 24" fill="none" xmlns="http://www.w3.org/2000/svg">
<path d="M18.875 5.125H5.125C4.79348 5.125 4.47554 5.2567 4.24112 5.49112C4.0067 5.72554 3.875 6.04348 3.875 6.375V18.875C3.87506 18.9815 3.90234 19.0863 3.95426 19.1793C4.00618 19.2723 4.08101 19.3505 4.17165 19.4065C4.26228 19.4624 4.36572 19.4943 4.47214 19.499C4.57856 19.5038 4.68442 19.4813 4.77969 19.4336L7 18.3234L9.22031 19.4336C9.30714 19.477 9.4029 19.4997 9.5 19.4997C9.5971 19.4997 9.69286 19.477 9.77969 19.4336L12 18.3234L14.2203 19.4336C14.3071 19.477 14.4029 19.4997 14.5 19.4997C14.5971 19.4997 14.6929 19.477 14.7797 19.4336L17 18.3234L19.2203 19.4336C19.3156 19.4813 19.4214 19.5038 19.5279 19.499C19.6343 19.4943 19.7377 19.4624 19.8284 19.4065C19.919 19.3505 19.9938 19.2723 20.0457 19.1793C20.0977 19.0863 20.1249 18.9815 20.125 18.875V6.375C20.125 6.04348 19.9933 5.72554 19.7589 5.49112C19.5245 5.2567 19.2065 5.125 18.875 5.125ZM11.0625 14.5C11.0625 14.5829 11.0296 14.6624 10.971 14.721C10.9124 14.7796 10.8329 14.8125 10.75 14.8125H7C6.91712 14.8125 6.83763 14.7796 6.77903 14.721C6.72042 14.6624 6.6875 14.5829 6.6875 14.5V9.5C6.6875 9.41712 6.72042 9.33763 6.77903 9.27903C6.83763 9.22042 6.91712 9.1875 7 9.1875H10.75C10.8329 9.1875 10.9124 9.22042 10.971 9.27903C11.0296 9.33763 11.0625 9.41712 11.0625 9.5V14.5ZM17 13.875H13.25C13.0842 13.875 12.9253 13.8092 12.8081 13.6919C12.6908 13.5747 12.625 13.4158 12.625 13.25C12.625 13.0842 12.6908 12.9253 12.8081 12.8081C12.9253 12.6908 13.0842 12.625 13.25 12.625H17C17.1658 12.625 17.3247 12.6908 17.4419 12.8081C17.5592 12.9253 17.625 13.0842 17.625 13.25C17.625 13.4158 17.5592 13.5747 17.4419 13.6919C17.3247 13.8092 17.1658 13.875 17 13.875ZM17 11.375H13.25C13.0842 11.375 12.9253 11.3092 12.8081 11.1919C12.6908 11.0747 12.625 10.9158 12.625 10.75C12.625 10.5842 12.6908 10.4253 12.8081 10.3081C12.9253 10.1908 13.0842 10.125 13.25 10.125H17C17.1658 10.125 17.3247 10.1908 17.4419 10.3081C17.5592 10.4253 17.625 10.5842 17.625 10.75C17.625 10.9158 17.5592 11.0747 17.4419 11.1919C17.3247 11.3092 17.1658 11.375 17 11.375Z" fill="#1E1E1E"/>
</svg>
