<svg width="24" height="24" viewBox="0 0 24 24" fill="none" xmlns="http://www.w3.org/2000/svg">
<path d="M18.875 5.75H6.375C6.04348 5.75 5.72554 5.8817 5.49112 6.11612C5.2567 6.35054 5.125 6.66848 5.125 7V16.375C5.125 16.5408 5.05915 16.6997 4.94194 16.8169C4.82473 16.9342 4.66576 17 4.5 17C4.33424 17 4.17527 16.9342 4.05806 16.8169C3.94085 16.6997 3.875 16.5408 3.875 16.375V8.875C3.875 8.70924 3.80915 8.55027 3.69194 8.43306C3.57473 8.31585 3.41576 8.25 3.25 8.25C3.08424 8.25 2.92527 8.31585 2.80806 8.43306C2.69085 8.55027 2.625 8.70924 2.625 8.875V16.3836C2.62727 16.8794 2.82582 17.3541 3.1772 17.7039C3.52859 18.0536 4.0042 18.25 4.5 18.25H18.25C18.7473 18.25 19.2242 18.0525 19.5758 17.7008C19.9275 17.3492 20.125 16.8723 20.125 16.375V7C20.125 6.66848 19.9933 6.35054 19.7589 6.11612C19.5245 5.8817 19.2065 5.75 18.875 5.75ZM15.75 13.875H9.5C9.33424 13.875 9.17527 13.8092 9.05806 13.6919C8.94085 13.5747 8.875 13.4158 8.875 13.25C8.875 13.0842 8.94085 12.9253 9.05806 12.8081C9.17527 12.6908 9.33424 12.625 9.5 12.625H15.75C15.9158 12.625 16.0747 12.6908 16.1919 12.8081C16.3092 12.9253 16.375 13.0842 16.375 13.25C16.375 13.4158 16.3092 13.5747 16.1919 13.6919C16.0747 13.8092 15.9158 13.875 15.75 13.875ZM15.75 11.375H9.5C9.33424 11.375 9.17527 11.3092 9.05806 11.1919C8.94085 11.0747 8.875 10.9158 8.875 10.75C8.875 10.5842 8.94085 10.4253 9.05806 10.3081C9.17527 10.1908 9.33424 10.125 9.5 10.125H15.75C15.9158 10.125 16.0747 10.1908 16.1919 10.3081C16.3092 10.4253 16.375 10.5842 16.375 10.75C16.375 10.9158 16.3092 11.0747 16.1919 11.1919C16.0747 11.3092 15.9158 11.375 15.75 11.375Z" fill="#1E1E1E"/>
</svg>
