<svg width="24" height="24" viewBox="0 0 24 24" fill="none" xmlns="http://www.w3.org/2000/svg">
<path d="M7.83794 18.6713V9.48378C7.83794 9.02544 8.00461 8.63655 8.33794 8.31711C8.67128 7.99766 9.06711 7.83794 9.52544 7.83794H18.6713C19.1296 7.83794 19.522 8.00114 19.8484 8.32753C20.1747 8.65391 20.3379 9.04628 20.3379 9.50461V16.1713L16.1713 20.3379H9.50461C9.04628 20.3379 8.65391 20.1747 8.32753 19.8484C8.00114 19.522 7.83794 19.1296 7.83794 18.6713ZM3.69211 7.21294C3.60878 6.75461 3.69905 6.34142 3.96294 5.97336C4.22683 5.6053 4.58794 5.37961 5.04628 5.29628L14.0879 3.69211C14.5463 3.60878 14.9595 3.69905 15.3275 3.96294C15.6956 4.22683 15.9213 4.58794 16.0046 5.04628L16.2129 6.17128H9.50461C8.58794 6.17128 7.80322 6.49766 7.15044 7.15044C6.49766 7.80322 6.17128 8.58794 6.17128 9.50461V17.4629C5.94905 17.3379 5.75808 17.1713 5.59836 16.9629C5.43864 16.7546 5.33794 16.5185 5.29628 16.2546L3.69211 7.21294ZM18.6713 15.3379H15.3379V18.6713L18.6713 15.3379Z" fill="#1E1E1E"/>
</svg>
