<svg width="24" height="24" viewBox="0 0 24 24" fill="none" xmlns="http://www.w3.org/2000/svg">
<path d="M18.25 4.5H16.375V3.875C16.375 3.70924 16.3092 3.55027 16.1919 3.43306C16.0747 3.31585 15.9158 3.25 15.75 3.25C15.5842 3.25 15.4253 3.31585 15.3081 3.43306C15.1908 3.55027 15.125 3.70924 15.125 3.875V4.5H12.625V3.875C12.625 3.70924 12.5592 3.55027 12.4419 3.43306C12.3247 3.31585 12.1658 3.25 12 3.25C11.8342 3.25 11.6753 3.31585 11.5581 3.43306C11.4408 3.55027 11.375 3.70924 11.375 3.875V4.5H8.875V3.875C8.875 3.70924 8.80915 3.55027 8.69194 3.43306C8.57473 3.31585 8.41576 3.25 8.25 3.25C8.08424 3.25 7.92527 3.31585 7.80806 3.43306C7.69085 3.55027 7.625 3.70924 7.625 3.875V4.5H5.75C5.58424 4.5 5.42527 4.56585 5.30806 4.68306C5.19085 4.80027 5.125 4.95924 5.125 5.125V17.625C5.125 18.288 5.38839 18.9239 5.85723 19.3928C6.32607 19.8616 6.96196 20.125 7.625 20.125H16.375C17.038 20.125 17.6739 19.8616 18.1428 19.3928C18.6116 18.9239 18.875 18.288 18.875 17.625V5.125C18.875 4.95924 18.8092 4.80027 18.6919 4.68306C18.5747 4.56585 18.4158 4.5 18.25 4.5ZM11.375 6.375C11.375 6.20924 11.4408 6.05027 11.5581 5.93306C11.6753 5.81585 11.8342 5.75 12 5.75C12.1658 5.75 12.3247 5.81585 12.4419 5.93306C12.5592 6.05027 12.625 6.20924 12.625 6.375V7C12.625 7.16576 12.5592 7.32473 12.4419 7.44194C12.3247 7.55915 12.1658 7.625 12 7.625C11.8342 7.625 11.6753 7.55915 11.5581 7.44194C11.4408 7.32473 11.375 7.16576 11.375 7V6.375ZM8.25 7.625C8.08424 7.625 7.92527 7.55915 7.80806 7.44194C7.69085 7.32473 7.625 7.16576 7.625 7V6.375C7.625 6.20924 7.69085 6.05027 7.80806 5.93306C7.92527 5.81585 8.08424 5.75 8.25 5.75C8.41576 5.75 8.57473 5.81585 8.69194 5.93306C8.80915 6.05027 8.875 6.20924 8.875 6.375V7C8.875 7.16576 8.80915 7.32473 8.69194 7.44194C8.57473 7.55915 8.41576 7.625 8.25 7.625ZM14.5 15.125H9.5C9.33424 15.125 9.17527 15.0592 9.05806 14.9419C8.94085 14.8247 8.875 14.6658 8.875 14.5C8.875 14.3342 8.94085 14.1753 9.05806 14.0581C9.17527 13.9408 9.33424 13.875 9.5 13.875H14.5C14.6658 13.875 14.8247 13.9408 14.9419 14.0581C15.0592 14.1753 15.125 14.3342 15.125 14.5C15.125 14.6658 15.0592 14.8247 14.9419 14.9419C14.8247 15.0592 14.6658 15.125 14.5 15.125ZM14.5 12.625H9.5C9.33424 12.625 9.17527 12.5592 9.05806 12.4419C8.94085 12.3247 8.875 12.1658 8.875 12C8.875 11.8342 8.94085 11.6753 9.05806 11.5581C9.17527 11.4408 9.33424 11.375 9.5 11.375H14.5C14.6658 11.375 14.8247 11.4408 14.9419 11.5581C15.0592 11.6753 15.125 11.8342 15.125 12C15.125 12.1658 15.0592 12.3247 14.9419 12.4419C14.8247 12.5592 14.6658 12.625 14.5 12.625ZM16.375 7C16.375 7.16576 16.3092 7.32473 16.1919 7.44194C16.0747 7.55915 15.9158 7.625 15.75 7.625C15.5842 7.625 15.4253 7.55915 15.3081 7.44194C15.1908 7.32473 15.125 7.16576 15.125 7V6.375C15.125 6.20924 15.1908 6.05027 15.3081 5.93306C15.4253 5.81585 15.5842 5.75 15.75 5.75C15.9158 5.75 16.0747 5.81585 16.1919 5.93306C16.3092 6.05027 16.375 6.20924 16.375 6.375V7Z" fill="#1E1E1E"/>
</svg>
