<svg width="24" height="24" viewBox="0 0 24 24" fill="none" xmlns="http://www.w3.org/2000/svg">
<path d="M6.41667 19.75C5.95833 19.75 5.56597 19.5868 5.23958 19.2604C4.91319 18.934 4.75 18.5417 4.75 18.0833V6.41667C4.75 5.95833 4.91319 5.56597 5.23958 5.23958C5.56597 4.91319 5.95833 4.75 6.41667 4.75H18.0833C18.5417 4.75 18.934 4.91319 19.2604 5.23958C19.5868 5.56597 19.75 5.95833 19.75 6.41667V14.75L14.75 19.75H6.41667ZM13.9167 18.0833L18.0833 13.9167H13.9167V18.0833ZM8.08333 13.9167H12.25V12.25H8.08333V13.9167ZM8.08333 10.5833H16.4167V8.91667H8.08333V10.5833Z" fill="#1E1E1E"/>
</svg>
