<svg width="24" height="24" viewBox="0 0 24 24" fill="none" xmlns="http://www.w3.org/2000/svg">
<path d="M19.6245 6.77556L17.2245 4.37556C17.1688 4.31977 17.1026 4.27552 17.0298 4.24532C16.9569 4.21513 16.8788 4.19958 16.8 4.19958C16.7211 4.19958 16.6431 4.21513 16.5702 4.24532C16.4974 4.27552 16.4312 4.31977 16.3755 4.37556L9.17549 11.5756C9.11979 11.6313 9.07562 11.6975 9.04551 11.7703C9.01539 11.8432 8.99993 11.9212 8.99999 12.0001V14.4001C8.99999 14.5592 9.0632 14.7118 9.17572 14.8243C9.28825 14.9368 9.44086 15.0001 9.59999 15.0001H12C12.0788 15.0001 12.1569 14.9847 12.2297 14.9545C12.3025 14.9244 12.3687 14.8803 12.4245 14.8246L19.6245 7.62456C19.6803 7.56883 19.7245 7.50266 19.7547 7.42982C19.7849 7.35698 19.8005 7.27891 19.8005 7.20006C19.8005 7.12121 19.7849 7.04313 19.7547 6.97029C19.7245 6.89745 19.6803 6.83128 19.6245 6.77556ZM11.7517 13.8001H10.2V12.2483L15 7.44831L16.5517 9.00006L11.7517 13.8001ZM17.4 8.15181L15.8482 6.60006L16.8 5.64831L18.3517 7.20006L17.4 8.15181ZM19.2 12.0001V18.0001C19.2 18.3183 19.0736 18.6235 18.8485 18.8486C18.6235 19.0736 18.3182 19.2001 18 19.2001H5.99999C5.68173 19.2001 5.3765 19.0736 5.15146 18.8486C4.92642 18.6235 4.79999 18.3183 4.79999 18.0001V6.00006C4.79999 5.6818 4.92642 5.37657 5.15146 5.15153C5.3765 4.92649 5.68173 4.80006 5.99999 4.80006H12C12.1591 4.80006 12.3117 4.86327 12.4243 4.97579C12.5368 5.08831 12.6 5.24093 12.6 5.40006C12.6 5.55919 12.5368 5.7118 12.4243 5.82432C12.3117 5.93684 12.1591 6.00006 12 6.00006H5.99999V18.0001H18V12.0001C18 11.8409 18.0632 11.6883 18.1757 11.5758C18.2882 11.4633 18.4409 11.4001 18.6 11.4001C18.7591 11.4001 18.9117 11.4633 19.0243 11.5758C19.1368 11.6883 19.2 11.8409 19.2 12.0001Z" fill="#1E1E1E"/>
</svg>
