<svg width="24" height="24" viewBox="0 0 24 24" fill="none" xmlns="http://www.w3.org/2000/svg">
<path d="M18.875 12V18.25C18.875 18.5815 18.7433 18.8995 18.5089 19.1339C18.2745 19.3683 17.9565 19.5 17.625 19.5H5.75C5.41848 19.5 5.10054 19.3683 4.86612 19.1339C4.6317 18.8995 4.5 18.5815 4.5 18.25V6.375C4.5 6.04348 4.6317 5.72554 4.86612 5.49112C5.10054 5.2567 5.41848 5.125 5.75 5.125H12C12.1658 5.125 12.3247 5.19085 12.4419 5.30806C12.5592 5.42527 12.625 5.58424 12.625 5.75C12.625 5.91576 12.5592 6.07473 12.4419 6.19194C12.3247 6.30915 12.1658 6.375 12 6.375H5.75V18.25H17.625V12C17.625 11.8342 17.6908 11.6753 17.8081 11.5581C17.9253 11.4408 18.0842 11.375 18.25 11.375C18.4158 11.375 18.5747 11.4408 18.6919 11.5581C18.8092 11.6753 18.875 11.8342 18.875 12ZM17.3125 3.875C16.7562 3.875 16.2125 4.03995 15.75 4.34899C15.2874 4.65803 14.927 5.09729 14.7141 5.6112C14.5012 6.12512 14.4455 6.69062 14.554 7.23619C14.6626 7.78176 14.9304 8.2829 15.3238 8.67624C15.7171 9.06957 16.2182 9.33744 16.7638 9.44596C17.3094 9.55448 17.8749 9.49878 18.3888 9.28591C18.9027 9.07304 19.342 8.71255 19.651 8.25004C19.96 7.78753 20.125 7.24376 20.125 6.6875C20.125 5.94158 19.8287 5.22621 19.3012 4.69876C18.7738 4.17132 18.0584 3.875 17.3125 3.875Z" fill="#1E1E1E"/>
</svg>
