<svg width="24" height="24" viewBox="0 0 24 24" fill="none" xmlns="http://www.w3.org/2000/svg">
<path d="M8.25 5.75C8.25 5.99723 8.17669 6.2389 8.03934 6.44446C7.90199 6.65002 7.70676 6.81024 7.47836 6.90485C7.24995 6.99946 6.99861 7.02421 6.75614 6.97598C6.51366 6.92775 6.29093 6.8087 6.11612 6.63388C5.9413 6.45907 5.82225 6.23634 5.77402 5.99386C5.72579 5.75139 5.75054 5.50005 5.84515 5.27165C5.93976 5.04324 6.09998 4.84802 6.30554 4.71066C6.5111 4.57331 6.75277 4.5 7 4.5C7.33152 4.5 7.64946 4.6317 7.88388 4.86612C8.1183 5.10054 8.25 5.41848 8.25 5.75ZM12 4.5C11.7528 4.5 11.5111 4.57331 11.3055 4.71066C11.1 4.84802 10.9398 5.04324 10.8452 5.27165C10.7505 5.50005 10.7258 5.75139 10.774 5.99386C10.8223 6.23634 10.9413 6.45907 11.1161 6.63388C11.2909 6.8087 11.5137 6.92775 11.7561 6.97598C11.9986 7.02421 12.2499 6.99946 12.4784 6.90485C12.7068 6.81024 12.902 6.65002 13.0393 6.44446C13.1767 6.2389 13.25 5.99723 13.25 5.75C13.25 5.41848 13.1183 5.10054 12.8839 4.86612C12.6495 4.6317 12.3315 4.5 12 4.5ZM17 7C17.2472 7 17.4889 6.92669 17.6945 6.78934C17.9 6.65199 18.0602 6.45676 18.1549 6.22836C18.2495 5.99995 18.2742 5.74861 18.226 5.50614C18.1778 5.26366 18.0587 5.04093 17.8839 4.86612C17.7091 4.6913 17.4863 4.57225 17.2439 4.52402C17.0014 4.47579 16.7501 4.50054 16.5216 4.59515C16.2932 4.68976 16.098 4.84998 15.9607 5.05554C15.8233 5.2611 15.75 5.50277 15.75 5.75C15.75 6.08152 15.8817 6.39946 16.1161 6.63388C16.3505 6.8683 16.6685 7 17 7ZM7 8.875C6.75277 8.875 6.5111 8.94831 6.30554 9.08566C6.09998 9.22302 5.93976 9.41824 5.84515 9.64665C5.75054 9.87505 5.72579 10.1264 5.77402 10.3689C5.82225 10.6113 5.9413 10.8341 6.11612 11.0089C6.29093 11.1837 6.51366 11.3028 6.75614 11.351C6.99861 11.3992 7.24995 11.3745 7.47836 11.2799C7.70676 11.1852 7.90199 11.025 8.03934 10.8195C8.17669 10.6139 8.25 10.3722 8.25 10.125C8.25 9.79348 8.1183 9.47554 7.88388 9.24112C7.64946 9.0067 7.33152 8.875 7 8.875ZM12 8.875C11.7528 8.875 11.5111 8.94831 11.3055 9.08566C11.1 9.22302 10.9398 9.41824 10.8452 9.64665C10.7505 9.87505 10.7258 10.1264 10.774 10.3689C10.8223 10.6113 10.9413 10.8341 11.1161 11.0089C11.2909 11.1837 11.5137 11.3028 11.7561 11.351C11.9986 11.3992 12.2499 11.3745 12.4784 11.2799C12.7068 11.1852 12.902 11.025 13.0393 10.8195C13.1767 10.6139 13.25 10.3722 13.25 10.125C13.25 9.79348 13.1183 9.47554 12.8839 9.24112C12.6495 9.0067 12.3315 8.875 12 8.875ZM17 8.875C16.7528 8.875 16.5111 8.94831 16.3055 9.08566C16.1 9.22302 15.9398 9.41824 15.8452 9.64665C15.7505 9.87505 15.7258 10.1264 15.774 10.3689C15.8223 10.6113 15.9413 10.8341 16.1161 11.0089C16.2909 11.1837 16.5137 11.3028 16.7561 11.351C16.9986 11.3992 17.2499 11.3745 17.4784 11.2799C17.7068 11.1852 17.902 11.025 18.0393 10.8195C18.1767 10.6139 18.25 10.3722 18.25 10.125C18.25 9.79348 18.1183 9.47554 17.8839 9.24112C17.6495 9.0067 17.3315 8.875 17 8.875ZM7 13.25C6.75277 13.25 6.5111 13.3233 6.30554 13.4607C6.09998 13.598 5.93976 13.7932 5.84515 14.0216C5.75054 14.2501 5.72579 14.5014 5.77402 14.7439C5.82225 14.9863 5.9413 15.2091 6.11612 15.3839C6.29093 15.5587 6.51366 15.6778 6.75614 15.726C6.99861 15.7742 7.24995 15.7495 7.47836 15.6549C7.70676 15.5602 7.90199 15.4 8.03934 15.1945C8.17669 14.9889 8.25 14.7472 8.25 14.5C8.25 14.1685 8.1183 13.8505 7.88388 13.6161C7.64946 13.3817 7.33152 13.25 7 13.25ZM12 13.25C11.7528 13.25 11.5111 13.3233 11.3055 13.4607C11.1 13.598 10.9398 13.7932 10.8452 14.0216C10.7505 14.2501 10.7258 14.5014 10.774 14.7439C10.8223 14.9863 10.9413 15.2091 11.1161 15.3839C11.2909 15.5587 11.5137 15.6778 11.7561 15.726C11.9986 15.7742 12.2499 15.7495 12.4784 15.6549C12.7068 15.5602 12.902 15.4 13.0393 15.1945C13.1767 14.9889 13.25 14.7472 13.25 14.5C13.25 14.1685 13.1183 13.8505 12.8839 13.6161C12.6495 13.3817 12.3315 13.25 12 13.25ZM12 17.625C11.7528 17.625 11.5111 17.6983 11.3055 17.8357C11.1 17.973 10.9398 18.1682 10.8452 18.3966C10.7505 18.6251 10.7258 18.8764 10.774 19.1189C10.8223 19.3613 10.9413 19.5841 11.1161 19.7589C11.2909 19.9337 11.5137 20.0528 11.7561 20.101C11.9986 20.1492 12.2499 20.1245 12.4784 20.0299C12.7068 19.9352 12.902 19.775 13.0393 19.5695C13.1767 19.3639 13.25 19.1222 13.25 18.875C13.25 18.5435 13.1183 18.2255 12.8839 17.9911C12.6495 17.7567 12.3315 17.625 12 17.625ZM17 13.25C16.7528 13.25 16.5111 13.3233 16.3055 13.4607C16.1 13.598 15.9398 13.7932 15.8452 14.0216C15.7505 14.2501 15.7258 14.5014 15.774 14.7439C15.8223 14.9863 15.9413 15.2091 16.1161 15.3839C16.2909 15.5587 16.5137 15.6778 16.7561 15.726C16.9986 15.7742 17.2499 15.7495 17.4784 15.6549C17.7068 15.5602 17.902 15.4 18.0393 15.1945C18.1767 14.9889 18.25 14.7472 18.25 14.5C18.25 14.1685 18.1183 13.8505 17.8839 13.6161C17.6495 13.3817 17.3315 13.25 17 13.25Z" fill="#1E1E1E"/>
</svg>
