<svg width="24" height="24" viewBox="0 0 24 24" fill="none" xmlns="http://www.w3.org/2000/svg">
<path fill-rule="evenodd" clip-rule="evenodd" d="M12 3.34003L4.5 7.67003V16.33L12 20.66L19.5 16.33V7.67003L12 3.34003ZM14.99 14C14.59 14.59 14.03 15.05 13.37 15.33C12.71 15.6 11.99 15.67 11.29 15.53C10.59 15.39 9.95 15.05 9.45 14.54C8.95 14.04 8.6 13.39 8.46 12.7C8.32 12.01 8.39 11.28 8.66 10.62C8.93 9.96003 9.39 9.40003 9.99 9.00003C10.59 8.60003 11.28 8.39003 11.99 8.39003C12.94 8.39003 13.86 8.77003 14.53 9.45003C15.2 10.12 15.58 11.04 15.59 11.99C15.59 12.7 15.38 13.4 14.98 13.99L14.99 14Z" fill="#1E1E1E"/>
</svg>
