<svg width="24" height="24" viewBox="0 0 24 24" fill="none" xmlns="http://www.w3.org/2000/svg">
<path d="M12 8.39999C11.2879 8.39999 10.5919 8.61113 9.9999 9.0067C9.40788 9.40227 8.94646 9.96451 8.67399 10.6223C8.40151 11.2801 8.33022 12.004 8.46912 12.7023C8.60803 13.4006 8.9509 14.0421 9.45437 14.5456C9.95784 15.049 10.5993 15.3919 11.2976 15.5308C11.996 15.6697 12.7198 15.5984 13.3776 15.326C14.0354 15.0535 14.5977 14.5921 14.9932 14C15.3888 13.408 15.6 12.712 15.6 12C15.5988 11.0456 15.2191 10.1306 14.5442 9.45572C13.8693 8.78085 12.9544 8.40118 12 8.39999ZM12 14.4C11.5253 14.4 11.0613 14.2592 10.6666 13.9955C10.2719 13.7318 9.96429 13.357 9.78264 12.9184C9.60099 12.4799 9.55346 11.9973 9.64607 11.5318C9.73867 11.0662 9.96725 10.6386 10.3029 10.3029C10.6385 9.96729 11.0662 9.73871 11.5317 9.6461C11.9973 9.5535 12.4798 9.60103 12.9184 9.78268C13.3569 9.96433 13.7318 10.2719 13.9955 10.6666C14.2592 11.0613 14.4 11.5253 14.4 12C14.4 12.6365 14.1471 13.247 13.697 13.697C13.2469 14.1471 12.6365 14.4 12 14.4ZM19.176 7.36124L12.576 3.74999C12.3996 3.65255 12.2014 3.60144 12 3.60144C11.7985 3.60144 11.6003 3.65255 11.424 3.74999L4.82395 7.36274C4.63547 7.46587 4.47813 7.61771 4.36837 7.80241C4.2586 7.98711 4.20044 8.19789 4.19995 8.41274V15.5857C4.20044 15.8006 4.2586 16.0114 4.36837 16.1961C4.47813 16.3808 4.63547 16.5326 4.82395 16.6357L11.424 20.2485C11.6003 20.3459 11.7985 20.397 12 20.397C12.2014 20.397 12.3996 20.3459 12.576 20.2485L19.176 16.6357C19.3644 16.5326 19.5218 16.3808 19.6315 16.1961C19.7413 16.0114 19.7995 15.8006 19.8 15.5857V8.41349C19.7999 8.19825 19.7419 7.98701 19.6321 7.80188C19.5223 7.61675 19.3648 7.46455 19.176 7.36124ZM12 19.2L5.39995 15.5865V8.41349L12 4.79999L18.6 8.41274V15.5857L12 19.2Z" fill="#1E1E1E"/>
</svg>
