<svg width="24" height="24" viewBox="0 0 24 24" fill="none" xmlns="http://www.w3.org/2000/svg">
<path d="M5.99998 20C5.33331 20 4.76664 19.7667 4.29998 19.3C3.83331 18.8333 3.59998 18.2667 3.59998 17.6V15.2H5.99998V4H18V17.6C18 18.2667 17.7666 18.8333 17.3 19.3C16.8333 19.7667 16.2666 20 15.6 20H5.99998ZM15.6 18.4C15.8266 18.4 16.0166 18.3233 16.17 18.17C16.3233 18.0167 16.4 17.8267 16.4 17.6V5.6H7.59998V15.2H14.8V17.6C14.8 17.8267 14.8766 18.0167 15.03 18.17C15.1833 18.3233 15.3733 18.4 15.6 18.4ZM8.39998 9.6V8H15.6V9.6H8.39998ZM8.39998 12V10.4H15.6V12H8.39998Z" fill="#1E1E1E"/>
</svg>
