<svg width="24" height="24" viewBox="0 0 24 24" fill="none" xmlns="http://www.w3.org/2000/svg">
<path d="M19.176 7.36124L12.576 3.74999C12.3996 3.65255 12.2014 3.60144 12 3.60144C11.7985 3.60144 11.6003 3.65255 11.424 3.74999L4.82395 7.36274C4.63547 7.46587 4.47813 7.61771 4.36837 7.80241C4.2586 7.98711 4.20044 8.19789 4.19995 8.41274V15.5857C4.20044 15.8006 4.2586 16.0114 4.36837 16.1961C4.47813 16.3808 4.63547 16.5326 4.82395 16.6357L11.424 20.2485C11.6003 20.3459 11.7985 20.397 12 20.397C12.2014 20.397 12.3996 20.3459 12.576 20.2485L19.176 16.6357C19.3644 16.5326 19.5218 16.3808 19.6315 16.1961C19.7413 16.0114 19.7995 15.8006 19.8 15.5857V8.41349C19.7999 8.19825 19.7419 7.98701 19.6321 7.80188C19.5223 7.61675 19.3648 7.46455 19.176 7.36124ZM12 4.79999L18.0255 8.09999L15.7927 9.32249L9.76645 6.02249L12 4.79999ZM12 11.4L5.97445 8.09999L8.51695 6.70799L14.5425 10.008L12 11.4ZM5.39995 9.14999L11.4 12.4335V18.8677L5.39995 15.5865V9.14999ZM18.6 15.5835L12.6 18.8677V12.4365L15 11.1232V13.8C15 13.9591 15.0632 14.1117 15.1757 14.2243C15.2882 14.3368 15.4408 14.4 15.6 14.4C15.7591 14.4 15.9117 14.3368 16.0242 14.2243C16.1367 14.1117 16.2 13.9591 16.2 13.8V10.4662L18.6 9.14999V15.5827V15.5835Z" fill="#1E1E1E"/>
</svg>
