<svg width="24" height="24" viewBox="0 0 24 24" fill="none" xmlns="http://www.w3.org/2000/svg">
<path d="M18.1245 11.5754C18.1803 11.6312 18.2246 11.6973 18.2548 11.7702C18.285 11.843 18.3005 11.9211 18.3005 11.9999C18.3005 12.0788 18.285 12.1569 18.2548 12.2297C18.2246 12.3025 18.1803 12.3687 18.1245 12.4244L11.9708 18.5744C11.183 19.3621 10.1145 19.8046 9.00051 19.8045C7.88647 19.8045 6.81809 19.3619 6.0304 18.5741C5.2427 17.7863 4.80022 16.7178 4.80029 15.6038C4.80036 14.4898 5.24298 13.4214 6.03077 12.6337L13.4753 5.07969C14.0377 4.51667 14.8007 4.20013 15.5966 4.19971C16.3924 4.19929 17.1558 4.51502 17.7188 5.07744C18.2818 5.63986 18.5983 6.40291 18.5988 7.19872C18.5992 7.99453 18.2834 8.75792 17.721 9.32094L10.275 16.8749C9.93687 17.2131 9.47824 17.4031 9.00002 17.4031C8.5218 17.4031 8.06317 17.2131 7.72502 16.8749C7.38687 16.5368 7.1969 16.0782 7.1969 15.5999C7.1969 15.1217 7.38687 14.6631 7.72502 14.3249L13.9725 7.97844C14.0272 7.92006 14.0931 7.87321 14.1662 7.84066C14.2393 7.80811 14.3182 7.79052 14.3982 7.78891C14.4782 7.78729 14.5577 7.8017 14.6321 7.83129C14.7064 7.86087 14.7741 7.90502 14.8311 7.96116C14.8882 8.01729 14.9334 8.08426 14.9642 8.15814C14.9949 8.23201 15.0106 8.31129 15.0103 8.39131C15.0099 8.47133 14.9936 8.55048 14.9622 8.62409C14.9308 8.6977 14.885 8.76429 14.8275 8.81994L8.57927 15.1732C8.52333 15.2287 8.47886 15.2947 8.44842 15.3674C8.41797 15.44 8.40214 15.518 8.40183 15.5968C8.40152 15.6756 8.41673 15.7537 8.44659 15.8266C8.47646 15.8995 8.5204 15.9659 8.5759 16.0218C8.6314 16.0778 8.69737 16.1222 8.77006 16.1527C8.84274 16.1831 8.92071 16.1989 8.99951 16.1993C9.07831 16.1996 9.1564 16.1844 9.22933 16.1545C9.30225 16.1246 9.36858 16.0807 9.42452 16.0252L16.8698 8.47494C17.2079 8.13749 17.3982 7.67952 17.3987 7.2018C17.3992 6.72407 17.2099 6.26572 16.8724 5.92757C16.5349 5.58941 16.077 5.39917 15.5993 5.39867C15.1215 5.39818 14.6632 5.58749 14.325 5.92494L6.88202 13.4759C6.60319 13.7543 6.38193 14.0849 6.23086 14.4488C6.07978 14.8127 6.00187 15.2028 6.00155 15.5968C6.00124 15.9908 6.07854 16.381 6.22903 16.7452C6.37952 17.1093 6.60026 17.4402 6.87865 17.7191C7.15703 17.9979 7.48761 18.2192 7.85151 18.3702C8.21541 18.5213 8.6055 18.5992 8.99951 18.5995C9.39352 18.5998 9.78374 18.5226 10.1479 18.3721C10.512 18.2216 10.8429 18.0008 11.1218 17.7224L17.2763 11.5724C17.3892 11.4604 17.542 11.3978 17.701 11.3983C17.8601 11.3989 18.0124 11.4626 18.1245 11.5754Z" fill="#1E1E1E"/>
</svg>
