<svg width="24" height="24" viewBox="0 0 24 24" fill="none" xmlns="http://www.w3.org/2000/svg">
<path fill-rule="evenodd" clip-rule="evenodd" d="M17.99 6L14.42 7.13L13.61 10.79L16.37 13.32L19.94 12.19L20.75 8.53L17.99 6ZM17.18 11.25C16.3 11.25 15.58 10.53 15.58 9.65C15.58 8.77 16.3 8.05 17.18 8.05C18.06 8.05 18.78 8.77 18.78 9.65C18.78 10.53 18.06 11.25 17.18 11.25Z" fill="#1E1E1E"/>
<path d="M9.34998 14.23L10.3 15.18L14.34 14.83L12.57 13.06L9.34998 14.23Z" fill="#1E1E1E"/>
<path d="M14.35 14.84L16.13 16.62L12.08 16.96L11.13 16.01L14.35 14.84Z" fill="#1E1E1E"/>
<path d="M12.91 17.79L13.94 18.82H16.14V16.63L12.91 17.79Z" fill="#1E1E1E"/>
<path d="M10.21 10.7L12.56 13.05L8.51 13.39L8.02 12.9L6.02 14.89L5.17 14.04L6.05 13.16L4 11.1L5.84 9.26L6.8 10.22L7.53 9.49L6.57 8.53L8.42 6.69L10.47 8.74L11.35 7.86L12.2 8.71L10.21 10.7Z" fill="#1E1E1E"/>
</svg>
