<svg width="24" height="24" viewBox="0 0 24 24" fill="none" xmlns="http://www.w3.org/2000/svg">
<path d="M6.00005 6.6V17.4C6.00005 17.5591 5.93683 17.7117 5.82431 17.8243C5.71179 17.9368 5.55918 18 5.40005 18C5.24092 18 5.08831 17.9368 4.97578 17.8243C4.86326 17.7117 4.80005 17.5591 4.80005 17.4V6.6C4.80005 6.44087 4.86326 6.28826 4.97578 6.17574C5.08831 6.06321 5.24092 6 5.40005 6C5.55918 6 5.71179 6.06321 5.82431 6.17574C5.93683 6.28826 6.00005 6.44087 6.00005 6.6ZM12.9 10.6875L11.4 11.175V9.6C11.4 9.44087 11.3368 9.28826 11.2243 9.17574C11.1118 9.06321 10.9592 9 10.8 9C10.6409 9 10.4883 9.06321 10.3758 9.17574C10.2633 9.28826 10.2 9.44087 10.2 9.6V11.175L8.70005 10.6875C8.54868 10.6378 8.38375 10.6502 8.24155 10.7221C8.09935 10.794 7.99153 10.9194 7.9418 11.0708C7.89207 11.2221 7.90451 11.387 7.97638 11.5292C8.04826 11.6714 8.17368 11.7793 8.32505 11.829L9.82505 12.3158L8.89955 13.5908C8.85064 13.6543 8.81496 13.727 8.79463 13.8046C8.7743 13.8822 8.76973 13.963 8.78118 14.0424C8.79263 14.1218 8.81988 14.198 8.86131 14.2667C8.90274 14.3353 8.95752 14.395 9.0224 14.4421C9.08728 14.4893 9.16095 14.5229 9.23905 14.5411C9.31716 14.5593 9.39811 14.5616 9.47713 14.5479C9.55616 14.5343 9.63164 14.5049 9.69913 14.4616C9.76661 14.4183 9.82473 14.3619 9.87005 14.2958L10.7955 13.0208L11.721 14.2958C11.7664 14.3619 11.8245 14.4183 11.892 14.4616C11.9595 14.5049 12.0349 14.5343 12.114 14.5479C12.193 14.5616 12.2739 14.5593 12.352 14.5411C12.4302 14.5229 12.5038 14.4893 12.5687 14.4421C12.6336 14.395 12.6884 14.3353 12.7298 14.2667C12.7712 14.198 12.7985 14.1218 12.8099 14.0424C12.8214 13.963 12.8168 13.8822 12.7965 13.8046C12.7761 13.727 12.7405 13.6543 12.6915 13.5908L11.766 12.3158L13.266 11.829C13.4107 11.7752 13.5291 11.6677 13.5966 11.5288C13.664 11.39 13.6754 11.2304 13.6282 11.0834C13.5811 10.9364 13.4791 10.8133 13.3435 10.7395C13.2079 10.6658 13.0491 10.6472 12.9 10.6875ZM20.85 11.073C20.8009 10.923 20.6946 10.7984 20.5542 10.7263C20.4138 10.6541 20.2506 10.6402 20.1 10.6875L18.6 11.175V9.6C18.6 9.44087 18.5368 9.28826 18.4243 9.17574C18.3118 9.06321 18.1592 9 18 9C17.8409 9 17.6883 9.06321 17.5758 9.17574C17.4633 9.28826 17.4 9.44087 17.4 9.6V11.175L15.9 10.6883C15.7487 10.639 15.5839 10.6519 15.4421 10.7242C15.3003 10.7964 15.1929 10.922 15.1437 11.0734C15.0944 11.2247 15.1074 11.3895 15.1796 11.5313C15.2518 11.6732 15.3774 11.7805 15.5288 11.8298L17.0288 12.3165L16.1033 13.5915C16.0544 13.6551 16.0187 13.7278 15.9984 13.8053C15.9781 13.8829 15.9735 13.9638 15.9849 14.0431C15.9964 14.1225 16.0236 14.1988 16.0651 14.2674C16.1065 14.3361 16.1613 14.3958 16.2261 14.4429C16.291 14.49 16.3647 14.5237 16.4428 14.5418C16.5209 14.56 16.6019 14.5623 16.6809 14.5487C16.7599 14.535 16.8354 14.5057 16.9029 14.4624C16.9704 14.4191 17.0285 14.3627 17.0738 14.2965L17.9993 13.0215L18.9248 14.2965C18.9701 14.3627 19.0282 14.4191 19.0957 14.4624C19.1632 14.5057 19.2387 14.535 19.3177 14.5487C19.3967 14.5623 19.4777 14.56 19.5558 14.5418C19.6339 14.5237 19.7076 14.49 19.7725 14.4429C19.8373 14.3958 19.8921 14.3361 19.9335 14.2674C19.975 14.1988 20.0022 14.1225 20.0137 14.0431C20.0251 13.9638 20.0205 13.8829 20.0002 13.8053C19.9799 13.7278 19.9442 13.6551 19.8953 13.5915L18.9698 12.3165L20.4698 11.8298C20.6204 11.7796 20.745 11.6718 20.8162 11.5299C20.8875 11.3881 20.8997 11.2238 20.85 11.073Z" fill="#1E1E1E"/>
</svg>
