<svg width="24" height="24" viewBox="0 0 24 24" fill="none" xmlns="http://www.w3.org/2000/svg">
<path d="M6.04999 6.5H4.79999V17.5H6.04999V6.5Z" fill="#1E1E1E"/>
<path d="M13.86 11.67L13.47 10.48L11.44 11.14V9H10.19V11.14L8.14999 10.48L7.76999 11.67L9.79999 12.33L8.54999 14.06L9.55999 14.79L10.81 13.06L12.07 14.79L13.08 14.06L11.83 12.33L13.86 11.67Z" fill="#1E1E1E"/>
<path d="M20.69 10.48L21.07 11.67L19.04 12.33L20.3 14.06L19.28 14.79L18.03 13.06L16.77 14.79L15.76 14.06L17.02 12.33L14.98 11.67L15.37 10.48L17.4 11.14V9H18.65V11.14L20.69 10.48Z" fill="#1E1E1E"/>
</svg>
