<svg width="24" height="24" viewBox="0 0 24 24" fill="none" xmlns="http://www.w3.org/2000/svg">
<path d="M19.8125 17.625C19.8123 18.1503 19.6231 18.658 19.2795 19.0553C18.9358 19.4526 18.4606 19.713 17.9408 19.7888C17.421 19.8647 16.8913 19.7509 16.4484 19.4684C16.0056 19.1858 15.6792 18.7534 15.5289 18.25H7.625C6.63044 18.25 5.67661 17.8549 4.97335 17.1517C4.27009 16.4484 3.875 15.4946 3.875 14.5C3.875 13.5054 4.27009 12.5516 4.97335 11.8483C5.67661 11.1451 6.63044 10.75 7.625 10.75H15.125C15.6223 10.75 16.0992 10.5525 16.4508 10.2008C16.8025 9.84919 17 9.37228 17 8.875C17 8.37772 16.8025 7.90081 16.4508 7.54917C16.0992 7.19754 15.6223 7 15.125 7H7.625C7.45924 7 7.30027 6.93415 7.18306 6.81694C7.06585 6.69973 7 6.54076 7 6.375C7 6.20924 7.06585 6.05027 7.18306 5.93306C7.30027 5.81585 7.45924 5.75 7.625 5.75H15.125C15.9538 5.75 16.7487 6.07924 17.3347 6.66529C17.9208 7.25134 18.25 8.0462 18.25 8.875C18.25 9.7038 17.9208 10.4987 17.3347 11.0847C16.7487 11.6708 15.9538 12 15.125 12H7.625C6.96196 12 6.32607 12.2634 5.85723 12.7322C5.38839 13.2011 5.125 13.837 5.125 14.5C5.125 15.163 5.38839 15.7989 5.85723 16.2678C6.32607 16.7366 6.96196 17 7.625 17H15.5289C15.6792 16.4966 16.0056 16.0642 16.4484 15.7816C16.8913 15.4991 17.421 15.3853 17.9408 15.4612C18.4606 15.537 18.9358 15.7974 19.2795 16.1947C19.6231 16.592 19.8123 17.0997 19.8125 17.625Z" fill="#1E1E1E"/>
</svg>
