<svg width="24" height="24" viewBox="0 0 24 24" fill="none" xmlns="http://www.w3.org/2000/svg">
<path d="M17.4 4.80005H14.4C14.0818 4.80005 13.7765 4.92648 13.5515 5.15152C13.3265 5.37656 13.2 5.68179 13.2 6.00005V18C13.2 18.3183 13.3265 18.6235 13.5515 18.8486C13.7765 19.0736 14.0818 19.2 14.4 19.2H17.4C17.7183 19.2 18.0235 19.0736 18.2486 18.8486C18.4736 18.6235 18.6 18.3183 18.6 18V6.00005C18.6 5.68179 18.4736 5.37656 18.2486 5.15152C18.0235 4.92648 17.7183 4.80005 17.4 4.80005ZM17.4 18H14.4V6.00005H17.4V18ZM9.60002 4.80005H6.60002C6.28176 4.80005 5.97654 4.92648 5.7515 5.15152C5.52645 5.37656 5.40002 5.68179 5.40002 6.00005V18C5.40002 18.3183 5.52645 18.6235 5.7515 18.8486C5.97654 19.0736 6.28176 19.2 6.60002 19.2H9.60002C9.91828 19.2 10.2235 19.0736 10.4486 18.8486C10.6736 18.6235 10.8 18.3183 10.8 18V6.00005C10.8 5.68179 10.6736 5.37656 10.4486 5.15152C10.2235 4.92648 9.91828 4.80005 9.60002 4.80005ZM9.60002 18H6.60002V6.00005H9.60002V18Z" fill="#1E1E1E"/>
</svg>
