<svg width="24" height="24" viewBox="0 0 24 24" fill="none" xmlns="http://www.w3.org/2000/svg">
<path d="M19.449 7.90276L16.0972 4.55176C15.9858 4.4403 15.8535 4.35189 15.7079 4.29157C15.5623 4.23124 15.4062 4.2002 15.2486 4.2002C15.091 4.2002 14.9349 4.23124 14.7893 4.29157C14.6437 4.35189 14.5114 4.4403 14.4 4.55176L5.15174 13.8C5.03983 13.911 4.9511 14.0432 4.89071 14.1888C4.83033 14.3345 4.79949 14.4906 4.79999 14.6483V18C4.79999 18.3183 4.92642 18.6235 5.15147 18.8485C5.37651 19.0736 5.68173 19.2 5.99999 19.2H18.6C18.7591 19.2 18.9117 19.1368 19.0243 19.0243C19.1368 18.9118 19.2 18.7591 19.2 18.6C19.2 18.4409 19.1368 18.2883 19.0243 18.1758C18.9117 18.0632 18.7591 18 18.6 18H11.049L19.449 9.60001C19.5605 9.48858 19.6489 9.35628 19.7092 9.21067C19.7695 9.06506 19.8006 8.909 19.8006 8.75139C19.8006 8.59378 19.7695 8.43771 19.7092 8.29211C19.6489 8.1465 19.5605 8.0142 19.449 7.90276ZM9.35174 18H5.99999V14.6483L12.6 8.04826L15.9517 11.4L9.35174 18ZM16.8 10.5518L13.449 7.20001L15.249 5.40001L18.6 8.75176L16.8 10.5518Z" fill="#1E1E1E"/>
</svg>
