<svg width="24" height="24" viewBox="0 0 24 24" fill="none" xmlns="http://www.w3.org/2000/svg">
<path fill-rule="evenodd" clip-rule="evenodd" d="M4.5 15.66V19.2001H8.03999L19.03 8.2301C19.19 8.07007 19.31 7.88013 19.39 7.68005C19.46 7.47009 19.5 7.26013 19.5 7.04004C19.5 6.84009 19.47 6.63013 19.39 6.42004C19.32 6.21008 19.2 6.03003 19.03 5.88013L17.88 4.71008C17.73 4.54004 17.55 4.41003 17.34 4.33008C17.13 4.25012 16.92 4.21008 16.69 4.21008C16.46 4.21008 16.25 4.25012 16.05 4.33008C15.85 4.41003 15.67 4.53003 15.5 4.68005L4.5 15.66ZM17.84 7.03003L16.67 8.20007L15.5 7.03003L16.67 5.86011L17.84 7.03003Z" fill="#1E1E1E"/>
<path d="M11.5 19.2001V17.53H19.5V19.2001H11.5Z" fill="#1E1E1E"/>
</svg>
