<svg width="24" height="24" viewBox="0 0 24 24" fill="none" xmlns="http://www.w3.org/2000/svg">
<path d="M8.25004 11.1666C7.44448 11.1666 6.75699 10.8819 6.18754 10.3125C5.6181 9.74304 5.33337 9.05554 5.33337 8.24998C5.33337 7.44442 5.6181 6.75692 6.18754 6.18748C6.75699 5.61804 7.44448 5.33331 8.25004 5.33331C9.0556 5.33331 9.7431 5.61804 10.3125 6.18748C10.882 6.75692 11.1667 7.44442 11.1667 8.24998C11.1667 9.05554 10.882 9.74304 10.3125 10.3125C9.7431 10.8819 9.0556 11.1666 8.25004 11.1666ZM8.25004 9.49998C8.59726 9.49998 8.8924 9.37845 9.13546 9.1354C9.37851 8.89234 9.50004 8.5972 9.50004 8.24998C9.50004 7.90276 9.37851 7.60762 9.13546 7.36456C8.8924 7.12151 8.59726 6.99998 8.25004 6.99998C7.90282 6.99998 7.60768 7.12151 7.36462 7.36456C7.12157 7.60762 7.00004 7.90276 7.00004 8.24998C7.00004 8.5972 7.12157 8.89234 7.36462 9.1354C7.60768 9.37845 7.90282 9.49998 8.25004 9.49998ZM15.75 18.6666C14.9445 18.6666 14.257 18.3819 13.6875 17.8125C13.1181 17.243 12.8334 16.5555 12.8334 15.75C12.8334 14.9444 13.1181 14.2569 13.6875 13.6875C14.257 13.118 14.9445 12.8333 15.75 12.8333C16.5556 12.8333 17.2431 13.118 17.8125 13.6875C18.382 14.2569 18.6667 14.9444 18.6667 15.75C18.6667 16.5555 18.382 17.243 17.8125 17.8125C17.2431 18.3819 16.5556 18.6666 15.75 18.6666ZM15.75 17C16.0973 17 16.3924 16.8785 16.6355 16.6354C16.8785 16.3923 17 16.0972 17 15.75C17 15.4028 16.8785 15.1076 16.6355 14.8646C16.3924 14.6215 16.0973 14.5 15.75 14.5C15.4028 14.5 15.1077 14.6215 14.8646 14.8646C14.6216 15.1076 14.5 15.4028 14.5 15.75C14.5 16.0972 14.6216 16.3923 14.8646 16.6354C15.1077 16.8785 15.4028 17 15.75 17ZM6.50004 18.6666L5.33337 17.5L17.5 5.33331L18.6667 6.49998L6.50004 18.6666Z" fill="#1E1E1E"/>
</svg>
