<svg width="24" height="24" viewBox="0 0 24 24" fill="none" xmlns="http://www.w3.org/2000/svg">
<path d="M18.625 19.5C16.8889 19.5 15.1736 19.1215 13.4792 18.3646C11.7847 17.6076 10.2431 16.5347 8.85417 15.1458C7.46528 13.7569 6.39236 12.2153 5.63542 10.5208C4.87847 8.82639 4.5 7.11111 4.5 5.375C4.5 5.125 4.58333 4.91667 4.75 4.75C4.91667 4.58333 5.125 4.5 5.375 4.5H8.75C8.94444 4.5 9.11806 4.56597 9.27083 4.69792C9.42361 4.82986 9.51389 4.98611 9.54167 5.16667L10.0833 8.08333C10.1111 8.30556 10.1042 8.49306 10.0625 8.64583C10.0208 8.79861 9.94444 8.93056 9.83333 9.04167L7.8125 11.0833C8.09028 11.5972 8.42014 12.0937 8.80208 12.5729C9.18403 13.0521 9.60417 13.5139 10.0625 13.9583C10.4931 14.3889 10.9444 14.7882 11.4167 15.1562C11.8889 15.5243 12.3889 15.8611 12.9167 16.1667L14.875 14.2083C15 14.0833 15.1632 13.9896 15.3646 13.9271C15.566 13.8646 15.7639 13.8472 15.9583 13.875L18.8333 14.4583C19.0278 14.5139 19.1875 14.6146 19.3125 14.7604C19.4375 14.9062 19.5 15.0694 19.5 15.25V18.625C19.5 18.875 19.4167 19.0833 19.25 19.25C19.0833 19.4167 18.875 19.5 18.625 19.5Z" fill="#1E1E1E"/>
</svg>
