<svg width="24" height="24" viewBox="0 0 24 24" fill="none" xmlns="http://www.w3.org/2000/svg">
<path d="M18 4.80005H5.99999C5.68173 4.80005 5.3765 4.92648 5.15146 5.15152C4.92642 5.37656 4.79999 5.68179 4.79999 6.00005V18C4.79999 18.3183 4.92642 18.6235 5.15146 18.8486C5.3765 19.0736 5.68173 19.2 5.99999 19.2H18C18.3182 19.2 18.6235 19.0736 18.8485 18.8486C19.0736 18.6235 19.2 18.3183 19.2 18V6.00005C19.2 5.68179 19.0736 5.37656 18.8485 5.15152C18.6235 4.92648 18.3182 4.80005 18 4.80005ZM5.99999 18V6.8483L17.1517 18H5.99999ZM6.84824 6.00005H18V17.1525L6.84824 6.00005Z" fill="#1E1E1E"/>
</svg>
