<svg width="24" height="24" viewBox="0 0 24 24" fill="none" xmlns="http://www.w3.org/2000/svg">
<path d="M19.8299 10.9867L9.02395 4.37621C8.84177 4.26465 8.6331 4.20375 8.41951 4.19979C8.20592 4.19584 7.99514 4.24897 7.80895 4.35371C7.62453 4.45682 7.47091 4.60719 7.36387 4.78936C7.25684 4.97153 7.20026 5.17892 7.19995 5.39021V18.6097C7.20134 18.9266 7.32853 19.2301 7.55355 19.4533C7.77857 19.6764 8.08301 19.8012 8.39995 19.8C8.62117 19.7999 8.83809 19.7389 9.02695 19.6237L19.8299 13.0132C20.0036 12.9074 20.1471 12.7586 20.2467 12.5813C20.3463 12.404 20.3986 12.2041 20.3986 12.0007C20.3986 11.7973 20.3463 11.5974 20.2467 11.4201C20.1471 11.2428 20.0036 11.0941 19.8299 10.9882V10.9867ZM8.39995 18.5955V5.39996L19.1872 12L8.39995 18.5955Z" fill="#1E1E1E"/>
</svg>
