<svg width="24" height="24" viewBox="0 0 24 24" fill="none" xmlns="http://www.w3.org/2000/svg">
<path d="M16.2 7.19998V16.8C16.2 16.9591 16.1367 17.1117 16.0242 17.2242C15.9117 17.3368 15.7591 17.4 15.6 17.4C15.4408 17.4 15.2882 17.3368 15.1757 17.2242C15.0632 17.1117 15 16.9591 15 16.8V7.19998C15 7.04085 15.0632 6.88823 15.1757 6.77571C15.2882 6.66319 15.4408 6.59998 15.6 6.59998C15.7591 6.59998 15.9117 6.66319 16.0242 6.77571C16.1367 6.88823 16.2 7.04085 16.2 7.19998ZM19.2 6.59998C19.0408 6.59998 18.8882 6.66319 18.7757 6.77571C18.6632 6.88823 18.6 7.04085 18.6 7.19998V16.8C18.6 16.9591 18.6632 17.1117 18.7757 17.2242C18.8882 17.3368 19.0408 17.4 19.2 17.4C19.3591 17.4 19.5117 17.3368 19.6242 17.2242C19.7367 17.1117 19.8 16.9591 19.8 16.8V7.19998C19.8 7.04085 19.7367 6.88823 19.6242 6.77571C19.5117 6.66319 19.3591 6.59998 19.2 6.59998ZM13.2 12C13.2003 12.1996 13.15 12.396 13.0539 12.571C12.9577 12.7459 12.8189 12.8937 12.6502 13.0005L6.03595 17.2117C5.85597 17.3268 5.64839 17.3914 5.43489 17.3989C5.22139 17.4064 5.0098 17.3564 4.82222 17.2542C4.63464 17.1519 4.47794 17.0012 4.36848 16.8178C4.25902 16.6343 4.20082 16.4249 4.19995 16.2112V7.78873C4.20082 7.5751 4.25902 7.36562 4.36848 7.18217C4.47794 6.99871 4.63464 6.84801 4.82222 6.74579C5.0098 6.64357 5.22139 6.59358 5.43489 6.60104C5.64839 6.60851 5.85597 6.67315 6.03595 6.78823L12.6502 10.9995C12.8189 11.1063 12.9577 11.254 13.0539 11.429C13.15 11.6039 13.2003 11.8004 13.2 12ZM11.9865 12L5.39995 7.80598V16.1947L11.9865 12Z" fill="#1E1E1E"/>
</svg>
