<svg width="24" height="24" viewBox="0 0 24 24" fill="none" xmlns="http://www.w3.org/2000/svg">
<path d="M19.2 12C19.2 12.1591 19.1368 12.3117 19.0243 12.4243C18.9117 12.5368 18.7591 12.6 18.6 12.6H12.6V18.6C12.6 18.7591 12.5368 18.9117 12.4243 19.0243C12.3117 19.1368 12.1591 19.2 12 19.2C11.8409 19.2 11.6882 19.1368 11.5757 19.0243C11.4632 18.9117 11.4 18.7591 11.4 18.6V12.6H5.39999C5.24086 12.6 5.08825 12.5368 4.97572 12.4243C4.8632 12.3117 4.79999 12.1591 4.79999 12C4.79999 11.8409 4.8632 11.6882 4.97572 11.5757C5.08825 11.4632 5.24086 11.4 5.39999 11.4H11.4V5.39999C11.4 5.24086 11.4632 5.08825 11.5757 4.97572C11.6882 4.8632 11.8409 4.79999 12 4.79999C12.1591 4.79999 12.3117 4.8632 12.4243 4.97572C12.5368 5.08825 12.6 5.24086 12.6 5.39999V11.4H18.6C18.7591 11.4 18.9117 11.4632 19.0243 11.5757C19.1368 11.6882 19.2 11.8409 19.2 12Z" fill="#1E1E1E"/>
</svg>
