<svg width="24" height="24" viewBox="0 0 24 24" fill="none" xmlns="http://www.w3.org/2000/svg">
<path d="M17.8245 7.02445L7.02451 17.8245C6.91193 17.937 6.75923 18.0003 6.60001 18.0003C6.44079 18.0003 6.2881 17.937 6.17551 17.8245C6.06293 17.7119 5.99968 17.5592 5.99968 17.4C5.99968 17.2407 6.06293 17.088 6.17551 16.9755L16.9755 6.17545C17.0881 6.06287 17.2408 5.99962 17.4 5.99962C17.5592 5.99962 17.7119 6.06287 17.8245 6.17545C17.9371 6.28804 18.0003 6.44073 18.0003 6.59995C18.0003 6.75917 17.9371 6.91187 17.8245 7.02445ZM7.20001 10.8C7.20001 10.9591 7.26323 11.1117 7.37575 11.2242C7.48827 11.3367 7.64088 11.4 7.80001 11.4C7.95914 11.4 8.11175 11.3367 8.22428 11.2242C8.3368 11.1117 8.40001 10.9591 8.40001 10.8V8.39995H10.8C10.9591 8.39995 11.1118 8.33674 11.2243 8.22421C11.3368 8.11169 11.4 7.95908 11.4 7.79995C11.4 7.64082 11.3368 7.48821 11.2243 7.37569C11.1118 7.26317 10.9591 7.19995 10.8 7.19995H8.40001V4.79995C8.40001 4.64082 8.3368 4.48821 8.22428 4.37569C8.11175 4.26317 7.95914 4.19995 7.80001 4.19995C7.64088 4.19995 7.48827 4.26317 7.37575 4.37569C7.26323 4.48821 7.20001 4.64082 7.20001 4.79995V7.19995H4.80001C4.64088 7.19995 4.48827 7.26317 4.37575 7.37569C4.26323 7.48821 4.20001 7.64082 4.20001 7.79995C4.20001 7.95908 4.26323 8.11169 4.37575 8.22421C4.48827 8.33674 4.64088 8.39995 4.80001 8.39995H7.20001V10.8ZM19.2 15.6H13.2C13.0409 15.6 12.8883 15.6632 12.7757 15.7757C12.6632 15.8882 12.6 16.0408 12.6 16.2C12.6 16.3591 12.6632 16.5117 12.7757 16.6242C12.8883 16.7367 13.0409 16.8 13.2 16.8H19.2C19.3591 16.8 19.5118 16.7367 19.6243 16.6242C19.7368 16.5117 19.8 16.3591 19.8 16.2C19.8 16.0408 19.7368 15.8882 19.6243 15.7757C19.5118 15.6632 19.3591 15.6 19.2 15.6Z" fill="#1E1E1E"/>
</svg>
