<svg width="24" height="24" viewBox="0 0 24 24" fill="none" xmlns="http://www.w3.org/2000/svg">
<path d="M17 7.83333H7.00002V4.5H17V7.83333ZM17 12.4167C17.2361 12.4167 17.434 12.3368 17.5938 12.1771C17.7535 12.0174 17.8334 11.8194 17.8334 11.5833C17.8334 11.3472 17.7535 11.1493 17.5938 10.9896C17.434 10.8299 17.2361 10.75 17 10.75C16.7639 10.75 16.566 10.8299 16.4063 10.9896C16.2465 11.1493 16.1667 11.3472 16.1667 11.5833C16.1667 11.8194 16.2465 12.0174 16.4063 12.1771C16.566 12.3368 16.7639 12.4167 17 12.4167ZM15.3334 17.8333V14.5H8.66669V17.8333H15.3334ZM17 19.5H7.00002V16.1667H3.66669V11.1667C3.66669 10.4583 3.90974 9.86458 4.39585 9.38542C4.88196 8.90625 5.47224 8.66667 6.16669 8.66667H17.8334C18.5417 8.66667 19.1354 8.90625 19.6146 9.38542C20.0938 9.86458 20.3334 10.4583 20.3334 11.1667V16.1667H17V19.5Z" fill="#1E1E1E"/>
</svg>
