<svg width="24" height="24" viewBox="0 0 24 24" fill="none" xmlns="http://www.w3.org/2000/svg">
<path d="M18.5002 7.80005H17.4V5.40005C17.4 5.24092 17.3368 5.08831 17.2242 4.97578C17.1117 4.86326 16.9591 4.80005 16.8 4.80005H7.19998C7.04085 4.80005 6.88823 4.86326 6.77571 4.97578C6.66319 5.08831 6.59998 5.24092 6.59998 5.40005V7.80005H5.49973C4.45198 7.80005 3.59998 8.6078 3.59998 9.60005V15.6C3.59998 15.7592 3.66319 15.9118 3.77571 16.0243C3.88823 16.1368 4.04085 16.2 4.19998 16.2H6.59998V18.6C6.59998 18.7592 6.66319 18.9118 6.77571 19.0243C6.88823 19.1368 7.04085 19.2 7.19998 19.2H16.8C16.9591 19.2 17.1117 19.1368 17.2242 19.0243C17.3368 18.9118 17.4 18.7592 17.4 18.6V16.2H19.8C19.9591 16.2 20.1117 16.1368 20.2242 16.0243C20.3368 15.9118 20.4 15.7592 20.4 15.6V9.60005C20.4 8.6078 19.548 7.80005 18.5002 7.80005ZM7.79998 6.00005H16.2V7.80005H7.79998V6.00005ZM16.2 18H7.79998V14.4H16.2V18ZM19.2 15H17.4V13.8C17.4 13.6409 17.3368 13.4883 17.2242 13.3758C17.1117 13.2633 16.9591 13.2 16.8 13.2H7.19998C7.04085 13.2 6.88823 13.2633 6.77571 13.3758C6.66319 13.4883 6.59998 13.6409 6.59998 13.8V15H4.79998V9.60005C4.79998 9.2693 5.11423 9.00005 5.49973 9.00005H18.5002C18.8857 9.00005 19.2 9.2693 19.2 9.60005V15ZM17.4 11.1C17.4 11.2781 17.3472 11.4521 17.2483 11.6001C17.1494 11.7481 17.0088 11.8634 16.8444 11.9315C16.6799 11.9997 16.499 12.0175 16.3244 11.9828C16.1498 11.948 15.9894 11.8623 15.8636 11.7364C15.7377 11.6106 15.652 11.4502 15.6173 11.2756C15.5825 11.101 15.6004 10.9201 15.6685 10.7556C15.7366 10.5912 15.852 10.4506 16 10.3517C16.148 10.2528 16.322 10.2 16.5 10.2C16.7387 10.2 16.9676 10.2949 17.1364 10.4637C17.3052 10.6324 17.4 10.8614 17.4 11.1Z" fill="#1E1E1E"/>
</svg>
