<svg width="24" height="24" viewBox="0 0 24 24" fill="none" xmlns="http://www.w3.org/2000/svg">
<path d="M12 20.3333C10.8472 20.3333 9.76385 20.1145 8.74996 19.677C7.73607 19.2395 6.85413 18.6458 6.10413 17.8958C5.35413 17.1458 4.76038 16.2638 4.32288 15.25C3.88538 14.2361 3.66663 13.1527 3.66663 12C3.66663 10.8472 3.88538 9.76385 4.32288 8.74996C4.76038 7.73607 5.35413 6.85413 6.10413 6.10413C6.85413 5.35413 7.73607 4.76038 8.74996 4.32288C9.76385 3.88538 10.8472 3.66663 12 3.66663C13.1527 3.66663 14.2361 3.88538 15.25 4.32288C16.2638 4.76038 17.1458 5.35413 17.8958 6.10413C18.6458 6.85413 19.2395 7.73607 19.677 8.74996C20.1145 9.76385 20.3333 10.8472 20.3333 12C20.3333 13.1527 20.1145 14.2361 19.677 15.25C19.2395 16.2638 18.6458 17.1458 17.8958 17.8958C17.1458 18.6458 16.2638 19.2395 15.25 19.677C14.2361 20.1145 13.1527 20.3333 12 20.3333ZM12 18.6666C12.75 18.6666 13.4722 18.5451 14.1666 18.302C14.8611 18.059 15.5 17.7083 16.0833 17.25L6.74996 7.91663C6.29163 8.49996 5.94093 9.13885 5.69788 9.83329C5.45482 10.5277 5.33329 11.25 5.33329 12C5.33329 13.8611 5.97913 15.4375 7.27079 16.7291C8.56246 18.0208 10.1388 18.6666 12 18.6666ZM17.25 16.0833C17.7083 15.5 18.059 14.8611 18.302 14.1666C18.5451 13.4722 18.6666 12.75 18.6666 12C18.6666 10.1388 18.0208 8.56246 16.7291 7.27079C15.4375 5.97913 13.8611 5.33329 12 5.33329C11.25 5.33329 10.5277 5.45482 9.83329 5.69788C9.13885 5.94093 8.49996 6.29163 7.91663 6.74996L17.25 16.0833Z" fill="#1E1E1E"/>
</svg>
