<svg width="24" height="24" viewBox="0 0 24 24" fill="none" xmlns="http://www.w3.org/2000/svg">
<path d="M12 4.20001C10.4573 4.20001 8.94921 4.65747 7.66651 5.51455C6.3838 6.37162 5.38406 7.58982 4.79369 9.01508C4.20333 10.4403 4.04886 12.0087 4.34983 13.5217C4.65079 15.0348 5.39367 16.4246 6.48452 17.5154C7.57537 18.6063 8.9652 19.3492 10.4782 19.6501C11.9913 19.9511 13.5596 19.7966 14.9849 19.2063C16.4101 18.6159 17.6283 17.6162 18.4854 16.3335C19.3425 15.0508 19.8 13.5427 19.8 12C19.7978 9.93199 18.9753 7.9493 17.513 6.48699C16.0507 5.02468 14.068 4.2022 12 4.20001ZM18.6 12C18.6015 13.5432 18.0595 15.0376 17.0692 16.221L7.77895 6.93001C8.7427 6.12824 9.91487 5.61754 11.1583 5.45767C12.4017 5.2978 13.6649 5.49537 14.8002 6.02726C15.9354 6.55915 16.8956 7.40336 17.5686 8.4611C18.2415 9.51884 18.5992 10.7464 18.6 12ZM5.39995 12C5.39842 10.4569 5.94037 8.96246 6.9307 7.77901L16.221 17.07C15.2572 17.8718 14.085 18.3825 12.8416 18.5424C11.5982 18.7022 10.335 18.5047 9.19975 17.9728C8.06453 17.4409 7.10427 16.5967 6.43135 15.5389C5.75842 14.4812 5.40067 13.2537 5.39995 12Z" fill="#1E1E1E"/>
</svg>
