<svg width="24" height="24" viewBox="0 0 24 24" fill="none" xmlns="http://www.w3.org/2000/svg">
<path d="M4.5 11.1667V4.5H11.1667V11.1667H4.5ZM6.16667 9.5H9.5V6.16667H6.16667V9.5ZM4.5 19.5V12.8333H11.1667V19.5H4.5ZM6.16667 17.8333H9.5V14.5H6.16667V17.8333ZM12.8333 11.1667V4.5H19.5V11.1667H12.8333ZM14.5 9.5H17.8333V6.16667H14.5V9.5ZM17.8333 19.5V17.8333H19.5V19.5H17.8333ZM12.8333 14.5V12.8333H14.5V14.5H12.8333ZM14.5 16.1667V14.5H16.1667V16.1667H14.5ZM12.8333 17.8333V16.1667H14.5V17.8333H12.8333ZM14.5 19.5V17.8333H16.1667V19.5H14.5ZM16.1667 17.8333V16.1667H17.8333V17.8333H16.1667ZM16.1667 14.5V12.8333H17.8333V14.5H16.1667ZM17.8333 16.1667V14.5H19.5V16.1667H17.8333Z" fill="#1E1E1E"/>
</svg>
