<svg width="24" height="24" viewBox="0 0 24 24" fill="none" xmlns="http://www.w3.org/2000/svg">
<path d="M16.8 9.60002C16.8 11.7383 14.9647 13.5083 12.6 13.767V14.4C12.6 14.5592 12.5367 14.7118 12.4242 14.8243C12.3117 14.9368 12.1591 15 12 15C11.8408 15 11.6882 14.9368 11.5757 14.8243C11.4632 14.7118 11.4 14.5592 11.4 14.4V13.2C11.4 13.0409 11.4632 12.8883 11.5757 12.7758C11.6882 12.6632 11.8408 12.6 12 12.6C13.9852 12.6 15.6 11.2545 15.6 9.60002C15.6 7.94552 13.9852 6.60002 12 6.60002C10.0147 6.60002 8.39995 7.94552 8.39995 9.60002C8.39995 9.75915 8.33674 9.91177 8.22422 10.0243C8.11169 10.1368 7.95908 10.2 7.79995 10.2C7.64082 10.2 7.48821 10.1368 7.37569 10.0243C7.26317 9.91177 7.19995 9.75915 7.19995 9.60002C7.19995 7.28402 9.3532 5.40002 12 5.40002C14.6467 5.40002 16.8 7.28402 16.8 9.60002ZM12 16.8C11.7626 16.8 11.5306 16.8704 11.3333 17.0023C11.1359 17.1341 10.9821 17.3215 10.8913 17.5408C10.8005 17.7601 10.7767 18.0014 10.823 18.2341C10.8693 18.4669 10.9836 18.6807 11.1514 18.8486C11.3192 19.0164 11.5331 19.1307 11.7658 19.177C11.9986 19.2233 12.2399 19.1995 12.4592 19.1087C12.6784 19.0179 12.8659 18.864 12.9977 18.6667C13.1296 18.4694 13.2 18.2374 13.2 18C13.2 17.6818 13.0735 17.3765 12.8485 17.1515C12.6234 16.9265 12.3182 16.8 12 16.8Z" fill="#1E1E1E"/>
</svg>
