<svg width="24" height="24" viewBox="0 0 24 24" fill="none" xmlns="http://www.w3.org/2000/svg">
<path d="M12.9 15.9C12.9 16.078 12.8472 16.252 12.7483 16.4C12.6494 16.548 12.5088 16.6634 12.3444 16.7315C12.1799 16.7996 11.999 16.8174 11.8244 16.7827C11.6498 16.748 11.4894 16.6623 11.3636 16.5364C11.2377 16.4105 11.152 16.2502 11.1172 16.0756C11.0825 15.901 11.1003 15.7201 11.1685 15.5556C11.2366 15.3911 11.3519 15.2506 11.4999 15.1517C11.6479 15.0528 11.822 15 12 15C12.2386 15 12.4676 15.0948 12.6363 15.2636C12.8051 15.4324 12.9 15.6613 12.9 15.9ZM12 7.80001C10.3455 7.80001 8.99995 9.01126 8.99995 10.5V10.8C8.99995 10.9591 9.06317 11.1118 9.17569 11.2243C9.28821 11.3368 9.44082 11.4 9.59995 11.4C9.75908 11.4 9.9117 11.3368 10.0242 11.2243C10.1367 11.1118 10.2 10.9591 10.2 10.8V10.5C10.2 9.67501 11.0077 9.00001 12 9.00001C12.9922 9.00001 13.8 9.67501 13.8 10.5C13.8 11.325 12.9922 12 12 12C11.8408 12 11.6882 12.0632 11.5757 12.1757C11.4632 12.2883 11.4 12.4409 11.4 12.6V13.2C11.4 13.3591 11.4632 13.5118 11.5757 13.6243C11.6882 13.7368 11.8408 13.8 12 13.8C12.1591 13.8 12.3117 13.7368 12.4242 13.6243C12.5367 13.5118 12.6 13.3591 12.6 13.2V13.146C13.968 12.8948 15 11.8035 15 10.5C15 9.01126 13.6545 7.80001 12 7.80001ZM19.8 12C19.8 13.5427 19.3425 15.0508 18.4854 16.3335C17.6283 17.6162 16.4101 18.6159 14.9849 19.2063C13.5596 19.7966 11.9913 19.9511 10.4782 19.6501C8.9652 19.3492 7.57537 18.6063 6.48452 17.5154C5.39367 16.4246 4.65079 15.0348 4.34983 13.5217C4.04886 12.0087 4.20333 10.4403 4.79369 9.01508C5.38406 7.58982 6.3838 6.37162 7.66651 5.51455C8.94921 4.65747 10.4573 4.20001 12 4.20001C14.068 4.2022 16.0507 5.02468 17.513 6.48699C18.9753 7.9493 19.7978 9.93199 19.8 12ZM18.6 12C18.6 10.6947 18.2129 9.41861 17.4877 8.33325C16.7624 7.24788 15.7317 6.40195 14.5257 5.90241C13.3197 5.40287 11.9926 5.27217 10.7124 5.52683C9.43208 5.78149 8.25608 6.41008 7.33305 7.33311C6.41002 8.25613 5.78143 9.43214 5.52677 10.7124C5.27211 11.9927 5.40281 13.3197 5.90235 14.5257C6.40189 15.7317 7.24783 16.7625 8.33319 17.4877C9.41855 18.2129 10.6946 18.6 12 18.6C13.7498 18.598 15.4274 17.902 16.6647 16.6647C17.902 15.4274 18.598 13.7498 18.6 12Z" fill="#1E1E1E"/>
</svg>
