<svg width="24" height="24" viewBox="0 0 24 24" fill="none" xmlns="http://www.w3.org/2000/svg">
<path d="M10.8334 14.9167C10.8334 13.7917 10.9341 12.9827 11.1355 12.4896C11.3368 11.9966 11.7639 11.4584 12.4167 10.875C12.9862 10.375 13.4202 9.94101 13.7188 9.57296C14.0174 9.2049 14.1667 8.78476 14.1667 8.31254C14.1667 7.7431 13.9757 7.27087 13.5938 6.89587C13.2118 6.52087 12.6806 6.33337 12 6.33337C11.2917 6.33337 10.7535 6.54865 10.3855 6.97921C10.0174 7.40976 9.75699 7.84726 9.60421 8.29171L7.45837 7.37504C7.75004 6.48615 8.28476 5.71532 9.06254 5.06254C9.84032 4.40976 10.8195 4.08337 12 4.08337C13.4584 4.08337 14.5799 4.48962 15.3646 5.30212C16.1493 6.11462 16.5417 7.09032 16.5417 8.22921C16.5417 8.92365 16.3924 9.5174 16.0938 10.0105C15.7952 10.5035 15.3264 11.0625 14.6875 11.6875C14.007 12.3403 13.5938 12.8368 13.448 13.1771C13.3021 13.5174 13.2292 14.0973 13.2292 14.9167H10.8334ZM12 19.9167C11.5417 19.9167 11.1493 19.7535 10.823 19.4271C10.4966 19.1007 10.3334 18.7084 10.3334 18.25C10.3334 17.7917 10.4966 17.3993 10.823 17.073C11.1493 16.7466 11.5417 16.5834 12 16.5834C12.4584 16.5834 12.8507 16.7466 13.1771 17.073C13.5035 17.3993 13.6667 17.7917 13.6667 18.25C13.6667 18.7084 13.5035 19.1007 13.1771 19.4271C12.8507 19.7535 12.4584 19.9167 12 19.9167Z" fill="#1E1E1E"/>
</svg>
