<svg width="24" height="24" viewBox="0 0 24 24" fill="none" xmlns="http://www.w3.org/2000/svg">
<path d="M11.3827 10.3692L11.3824 10.4115C11.3826 10.4364 11.3828 10.4615 11.3828 10.4868C11.3828 11.6023 10.9972 12.7022 10.2145 14.0127C9.61608 15.0146 8.63473 15.8818 7.85463 16.4639C7.59358 16.6587 7.22758 16.5989 7.02863 16.341V16.341C6.82447 16.0763 6.87073 15.6991 7.11154 15.4673C7.55626 15.0393 7.94414 14.5544 8.27519 14.0127C8.48612 13.6675 8.63705 13.3316 8.728 13.0049C8.75519 12.9072 8.67639 12.8153 8.575 12.8153V12.8153C7.02437 12.8153 5.76733 11.5583 5.76733 10.0076C5.76733 8.45699 7.02437 7.19995 8.575 7.19995C8.61162 7.19995 8.64808 7.20085 8.68437 7.20264C8.72685 7.20085 8.76974 7.19995 8.81304 7.19995C9.57001 7.19995 10.1875 7.47883 10.6656 8.0366C11.0932 8.5354 11.3295 9.2413 11.3747 10.1543C11.38 10.226 11.3827 10.2977 11.3827 10.3692Z" fill="#1E1E1E"/>
<path d="M18.2326 10.3692L18.2323 10.4115C18.2325 10.4364 18.2327 10.4615 18.2327 10.4868C18.2327 11.6023 17.8471 12.7022 17.0644 14.0127C16.466 15.0146 15.4846 15.8818 14.7045 16.4639C14.4435 16.6587 14.0775 16.5989 13.8785 16.341V16.341C13.6744 16.0763 13.7206 15.6991 13.9614 15.4673C14.4062 15.0393 14.794 14.5544 15.1251 14.0127C15.336 13.6675 15.487 13.3316 15.5779 13.0049C15.6051 12.9072 15.5263 12.8153 15.4249 12.8153V12.8153C13.8743 12.8153 12.6172 11.5583 12.6172 10.0076C12.6172 8.45699 13.8743 7.19995 15.4249 7.19995C15.4615 7.19995 15.498 7.20085 15.5343 7.20264C15.5768 7.20085 15.6196 7.19995 15.6629 7.19995C16.4199 7.19995 17.0374 7.47883 17.5155 8.0366C17.9431 8.5354 18.1794 9.2413 18.2246 10.1543C18.2299 10.226 18.2326 10.2977 18.2326 10.3692Z" fill="#1E1E1E"/>
</svg>
