<svg width="24" height="24" viewBox="0 0 24 24" fill="none" xmlns="http://www.w3.org/2000/svg">
<path d="M6.33341 17L8.25008 13.6667C7.33341 13.6667 6.54869 13.3403 5.89591 12.6875C5.24314 12.0347 4.91675 11.25 4.91675 10.3333C4.91675 9.41667 5.24314 8.63194 5.89591 7.97917C6.54869 7.32639 7.33341 7 8.25008 7C9.16675 7 9.95147 7.32639 10.6042 7.97917C11.257 8.63194 11.5834 9.41667 11.5834 10.3333C11.5834 10.6528 11.5452 10.9479 11.4688 11.2188C11.3924 11.4896 11.2779 11.75 11.1251 12L8.25008 17H6.33341ZM13.8334 17L15.7501 13.6667C14.8334 13.6667 14.0487 13.3403 13.3959 12.6875C12.7431 12.0347 12.4167 11.25 12.4167 10.3333C12.4167 9.41667 12.7431 8.63194 13.3959 7.97917C14.0487 7.32639 14.8334 7 15.7501 7C16.6667 7 17.4515 7.32639 18.1042 7.97917C18.757 8.63194 19.0834 9.41667 19.0834 10.3333C19.0834 10.6528 19.0452 10.9479 18.9688 11.2188C18.8924 11.4896 18.7779 11.75 18.6251 12L15.7501 17H13.8334Z" fill="#1E1E1E"/>
</svg>
