<svg width="24" height="24" viewBox="0 0 24 24" fill="none" xmlns="http://www.w3.org/2000/svg">
<path d="M18.4672 5.06641L8.29142 3.26953C7.96498 3.21209 7.62909 3.28664 7.35761 3.47681C7.08614 3.66697 6.90131 3.95717 6.84376 4.28359L4.51954 17.4867C4.49111 17.6485 4.49484 17.8142 4.5305 17.9745C4.56616 18.1348 4.63307 18.2866 4.72738 18.421C4.8217 18.5554 4.94159 18.67 5.08019 18.7581C5.2188 18.8461 5.3734 18.9061 5.53517 18.9344L15.7109 20.7313C15.8728 20.7598 16.0386 20.7562 16.199 20.7205C16.3594 20.6849 16.5112 20.6181 16.6457 20.5237C16.7802 20.4294 16.8949 20.3095 16.983 20.1708C17.0711 20.0321 17.1311 19.8775 17.1594 19.7156L19.4836 6.5125C19.5405 6.18596 19.4655 5.85017 19.2748 5.57898C19.0842 5.3078 18.7937 5.12342 18.4672 5.06641ZM12.5859 12.2781C12.5604 12.4227 12.4848 12.5537 12.3724 12.6481C12.26 12.7425 12.1179 12.7944 11.9711 12.7945C11.9344 12.7945 11.8979 12.7914 11.8617 12.7852L8.61954 12.2125C8.46546 12.1746 8.33156 12.0795 8.245 11.9465C8.15844 11.8135 8.12571 11.6526 8.15344 11.4964C8.18116 11.3401 8.26728 11.2003 8.39431 11.1052C8.52135 11.0101 8.67979 10.9669 8.83751 10.9844L12.0781 11.5539C12.1591 11.5681 12.2364 11.598 12.3057 11.6421C12.3751 11.6862 12.435 11.7435 12.4822 11.8107C12.5293 11.878 12.5628 11.9539 12.5806 12.0341C12.5984 12.1143 12.6002 12.1972 12.5859 12.2781ZM16.2578 10.3891C16.2323 10.5335 16.1569 10.6644 16.0446 10.7588C15.9323 10.8532 15.7904 10.9051 15.6438 10.9055C15.6068 10.9055 15.5699 10.9021 15.5336 10.8953L9.04923 9.75078C8.88595 9.72188 8.74085 9.6293 8.64584 9.49341C8.55082 9.35752 8.51368 9.18945 8.54259 9.02617C8.57149 8.8629 8.66407 8.71779 8.79996 8.62278C8.93585 8.52777 9.10392 8.49063 9.2672 8.51953L15.7516 9.66484C15.8326 9.67891 15.91 9.70881 15.9794 9.75284C16.0488 9.79687 16.1089 9.85417 16.1561 9.92144C16.2034 9.98871 16.2369 10.0646 16.2547 10.1449C16.2726 10.2251 16.2744 10.3081 16.2602 10.3891H16.2578ZM16.6914 7.92656C16.6659 8.07115 16.5903 8.20213 16.4779 8.29656C16.3655 8.39098 16.2234 8.44282 16.0766 8.44297C16.0399 8.44292 16.0033 8.43978 15.9672 8.43359L9.48282 7.28828C9.40013 7.27611 9.32072 7.24748 9.2493 7.20408C9.17787 7.16068 9.11587 7.1034 9.06697 7.03562C9.01807 6.96784 8.98326 6.89094 8.9646 6.80947C8.94594 6.728 8.94381 6.64361 8.95834 6.5613C8.97287 6.479 9.00376 6.40044 9.04918 6.33028C9.0946 6.26012 9.15363 6.19978 9.22278 6.15284C9.29193 6.1059 9.3698 6.0733 9.45177 6.05698C9.53374 6.04065 9.61815 6.04094 9.70001 6.05781L16.1844 7.20234C16.2654 7.21632 16.343 7.24616 16.4125 7.29015C16.482 7.33414 16.5421 7.39142 16.5894 7.4587C16.6368 7.52598 16.6703 7.60195 16.6882 7.68223C16.7061 7.76252 16.708 7.84555 16.6938 7.92656H16.6914Z" fill="#1E1E1E"/>
</svg>
