<svg width="24" height="24" viewBox="0 0 24 24" fill="none" xmlns="http://www.w3.org/2000/svg">
<path d="M7.79995 10.2C7.79995 10.0409 7.86317 9.88828 7.97569 9.77576C8.08821 9.66324 8.24082 9.60002 8.39995 9.60002H15.6C15.7591 9.60002 15.9117 9.66324 16.0242 9.77576C16.1367 9.88828 16.2 10.0409 16.2 10.2C16.2 10.3592 16.1367 10.5118 16.0242 10.6243C15.9117 10.7368 15.7591 10.8 15.6 10.8H8.39995C8.24082 10.8 8.08821 10.7368 7.97569 10.6243C7.86317 10.5118 7.79995 10.3592 7.79995 10.2ZM8.39995 13.2H15.6C15.7591 13.2 15.9117 13.1368 16.0242 13.0243C16.1367 12.9118 16.2 12.7592 16.2 12.6C16.2 12.4409 16.1367 12.2883 16.0242 12.1758C15.9117 12.0632 15.7591 12 15.6 12H8.39995C8.24082 12 8.08821 12.0632 7.97569 12.1758C7.86317 12.2883 7.79995 12.4409 7.79995 12.6C7.79995 12.7592 7.86317 12.9118 7.97569 13.0243C8.08821 13.1368 8.24082 13.2 8.39995 13.2ZM19.8 6.60002V18C19.7999 18.1023 19.7737 18.2028 19.7239 18.2921C19.674 18.3814 19.6022 18.4565 19.5152 18.5102C19.4282 18.564 19.3289 18.5945 19.2267 18.5991C19.1245 18.6037 19.0229 18.582 18.9315 18.5363L16.8 17.4705L14.6685 18.5363C14.5851 18.578 14.4932 18.5997 14.4 18.5997C14.3067 18.5997 14.2148 18.578 14.1315 18.5363L12 17.4705L9.86845 18.5363C9.78509 18.578 9.69316 18.5997 9.59995 18.5997C9.50674 18.5997 9.41481 18.578 9.33145 18.5363L7.19995 17.4705L5.06845 18.5363C4.977 18.582 4.87537 18.6037 4.77321 18.5991C4.67104 18.5945 4.57174 18.564 4.48473 18.5102C4.39772 18.4565 4.32588 18.3814 4.27604 18.2921C4.2262 18.2028 4.20001 18.1023 4.19995 18V6.60002C4.19995 6.28176 4.32638 5.97654 4.55142 5.7515C4.77647 5.52645 5.08169 5.40002 5.39995 5.40002H18.6C18.9182 5.40002 19.2234 5.52645 19.4485 5.7515C19.6735 5.97654 19.8 6.28176 19.8 6.60002ZM18.6 6.60002H5.39995V17.0295L6.93145 16.263C7.01481 16.2213 7.10674 16.1996 7.19995 16.1996C7.29316 16.1996 7.38509 16.2213 7.46845 16.263L9.59995 17.3295L11.7315 16.263C11.8148 16.2213 11.9067 16.1996 12 16.1996C12.0932 16.1996 12.1851 16.2213 12.2685 16.263L14.4 17.3295L16.5315 16.263C16.6148 16.2213 16.7067 16.1996 16.8 16.1996C16.8932 16.1996 16.9851 16.2213 17.0685 16.263L18.6 17.0295V6.60002Z" fill="#1E1E1E"/>
</svg>
