<svg width="24" height="24" viewBox="0 0 24 24" fill="none" xmlns="http://www.w3.org/2000/svg">
<path fill-rule="evenodd" clip-rule="evenodd" d="M19.4399 4.7488C19.2099 4.5188 18.9099 4.3988 18.5899 4.3988H5.38994C5.06994 4.3988 4.76994 4.5288 4.53994 4.7488C4.30994 4.9788 4.18994 5.2788 4.18994 5.5988V18.9988C4.18994 19.0988 4.21994 19.1988 4.26994 19.2888C4.31994 19.3788 4.38994 19.4488 4.47994 19.5088C4.56994 19.5588 4.66994 19.5888 4.76994 19.5988C4.86994 19.5988 4.96994 19.5788 5.06994 19.5388L7.19994 18.4688L9.32994 19.5388C9.40994 19.5788 9.50994 19.5988 9.59994 19.5988C9.68994 19.5988 9.78994 19.5788 9.86994 19.5388L11.9999 18.4688L14.1299 19.5388C14.2099 19.5788 14.3099 19.5988 14.3999 19.5988C14.4899 19.5988 14.5899 19.5788 14.6699 19.5388L16.7999 18.4688L18.9299 19.5388C19.0199 19.5888 19.1199 19.6088 19.2299 19.5988C19.3299 19.5988 19.4299 19.5588 19.5199 19.5088C19.6099 19.4588 19.6799 19.3788 19.7299 19.2888C19.7799 19.1988 19.8099 19.0988 19.8099 18.9988V5.5988C19.8099 5.2788 19.6799 4.9788 19.4599 4.7488H19.4399ZM14.4899 15.4788H7.48994V14.2288H14.4899V15.4788ZM16.4899 12.2288H7.48994V10.9788H16.4899V12.2288ZM16.4899 8.9788H7.48994V7.7288H16.4899V8.9788Z" fill="#1E1E1E"/>
</svg>
