<svg width="24" height="24" viewBox="0 0 24 24" fill="none" xmlns="http://www.w3.org/2000/svg">
<path d="M9.49996 18.25C9.49996 18.4157 9.43411 18.5747 9.3169 18.6919C9.19969 18.8091 9.04072 18.875 8.87496 18.875H5.12496C4.79592 18.8748 4.47273 18.788 4.18786 18.6233C3.90298 18.4587 3.66645 18.222 3.50202 17.937C3.33759 17.652 3.25105 17.3287 3.2511 16.9997C3.25115 16.6707 3.33778 16.3474 3.5023 16.0625L5.6898 12.289L4.61011 11.664C4.50191 11.6027 4.41446 11.5105 4.35895 11.3992C4.30344 11.288 4.28239 11.1626 4.2985 11.0393C4.31461 10.916 4.36714 10.8003 4.44937 10.707C4.5316 10.6137 4.6398 10.5471 4.76011 10.5156L7.32027 9.83045C7.39958 9.80919 7.4823 9.80376 7.5637 9.81448C7.6451 9.82519 7.7236 9.85184 7.7947 9.89291C7.8658 9.93397 7.92811 9.98864 7.97808 10.0538C8.02804 10.119 8.06468 10.1933 8.08589 10.2726L8.77261 12.8328C8.80467 12.9522 8.80057 13.0785 8.76085 13.1956C8.72112 13.3127 8.64754 13.4154 8.54943 13.4907C8.45132 13.5659 8.33309 13.6104 8.20969 13.6185C8.08629 13.6265 7.96327 13.5978 7.85621 13.5359L6.77183 12.9109L4.58668 16.6875C4.53195 16.7823 4.50307 16.8898 4.50294 16.9992C4.50281 17.1087 4.53142 17.2163 4.58593 17.3112C4.64043 17.4061 4.7189 17.4851 4.8135 17.5401C4.9081 17.5952 5.0155 17.6245 5.12496 17.625H8.87496C9.04072 17.625 9.19969 17.6908 9.3169 17.808C9.43411 17.9252 9.49996 18.0842 9.49996 18.25ZM12 4.49998C12.1098 4.49888 12.2179 4.5273 12.313 4.58227C12.4081 4.63724 12.4867 4.71675 12.5406 4.81248L14.7281 8.58592L13.6484 9.21092C13.5422 9.27288 13.4567 9.36479 13.4025 9.47513C13.3483 9.58547 13.3278 9.70935 13.3436 9.83126C13.3595 9.95318 13.4109 10.0677 13.4915 10.1605C13.5721 10.2533 13.6783 10.3203 13.7968 10.3531L16.3578 11.0398C16.4106 11.0537 16.4649 11.0608 16.5195 11.0609C16.657 11.0608 16.7906 11.0153 16.8996 10.9316C17.0087 10.8478 17.087 10.7304 17.1226 10.5976L17.8093 8.03592C17.8412 7.91659 17.8371 7.79047 17.7974 7.67351C17.7577 7.55654 17.6842 7.45396 17.5862 7.37873C17.4882 7.3035 17.3702 7.25898 17.2469 7.2508C17.1237 7.24263 17.0008 7.27116 16.8937 7.33279L15.8085 7.95779L13.6226 4.18748C13.4579 3.90298 13.2213 3.66678 12.9365 3.50259C12.6517 3.33839 12.3287 3.25195 12 3.25195C11.6712 3.25195 11.3482 3.33839 11.0634 3.50259C10.7786 3.66678 10.542 3.90298 10.3773 4.18748L8.56793 7.31248C8.49019 7.45564 8.47142 7.62351 8.51562 7.7803C8.55982 7.9371 8.6635 8.07045 8.80456 8.15193C8.94563 8.23342 9.11294 8.2566 9.27085 8.21654C9.42876 8.17648 9.56479 8.07635 9.64996 7.93748L11.4593 4.81248C11.5132 4.71675 11.5918 4.63724 11.6869 4.58227C11.782 4.5273 11.8901 4.49888 12 4.49998ZM20.4945 16.0625L18.6867 12.9375C18.6002 12.8014 18.4645 12.7041 18.3079 12.6657C18.1513 12.6274 17.986 12.651 17.8464 12.7317C17.7069 12.8123 17.6039 12.9438 17.559 13.0986C17.5141 13.2535 17.5307 13.4196 17.6054 13.5625L19.4132 16.6875C19.468 16.7823 19.4968 16.8898 19.497 16.9992C19.4971 17.1087 19.4685 17.2163 19.414 17.3112C19.3595 17.4061 19.281 17.4851 19.1864 17.5401C19.0918 17.5952 18.9844 17.6245 18.875 17.625H14.5V16.375C14.5001 16.2513 14.4635 16.1304 14.3948 16.0275C14.3261 15.9246 14.2285 15.8444 14.1142 15.7971C13.9999 15.7497 13.8742 15.7374 13.7529 15.7615C13.6316 15.7857 13.5202 15.8453 13.4328 15.9328L11.5578 17.8078C11.4997 17.8658 11.4536 17.9348 11.4221 18.0106C11.3907 18.0865 11.3745 18.1678 11.3745 18.25C11.3745 18.3321 11.3907 18.4134 11.4221 18.4893C11.4536 18.5652 11.4997 18.6341 11.5578 18.6922L13.4328 20.5672C13.5202 20.6547 13.6316 20.7143 13.7529 20.7384C13.8742 20.7626 13.9999 20.7502 14.1142 20.7029C14.2285 20.6555 14.3261 20.5753 14.3948 20.4725C14.4635 20.3696 14.5001 20.2487 14.5 20.125V18.875H18.875C19.204 18.8748 19.5272 18.788 19.8121 18.6233C20.0969 18.4587 20.3335 18.222 20.4979 17.937C20.6623 17.652 20.7489 17.3287 20.7488 16.9997C20.7488 16.6707 20.6621 16.3474 20.4976 16.0625H20.4945Z" fill="#1E1E1E"/>
</svg>
