<svg width="24" height="24" viewBox="0 0 24 24" fill="none" xmlns="http://www.w3.org/2000/svg">
<path d="M12 18.6667C10.1389 18.6667 8.56248 18.0209 7.27081 16.7292C5.97915 15.4375 5.33331 13.8612 5.33331 12C5.33331 10.1389 5.97915 8.56254 7.27081 7.27087C8.56248 5.97921 10.1389 5.33337 12 5.33337C12.9583 5.33337 13.875 5.53129 14.75 5.92712C15.625 6.32296 16.375 6.88893 17 7.62504V5.33337H18.6666V11.1667H12.8333V9.50004H16.3333C15.8889 8.72226 15.2812 8.11115 14.5104 7.66671C13.7396 7.22226 12.9028 7.00004 12 7.00004C10.6111 7.00004 9.43054 7.48615 8.45831 8.45837C7.48609 9.4306 6.99998 10.6112 6.99998 12C6.99998 13.3889 7.48609 14.5695 8.45831 15.5417C9.43054 16.5139 10.6111 17 12 17C13.0694 17 14.0347 16.6945 14.8958 16.0834C15.7569 15.4723 16.3611 14.6667 16.7083 13.6667H18.4583C18.0694 15.1389 17.2778 16.3403 16.0833 17.2709C14.8889 18.2014 13.5278 18.6667 12 18.6667Z" fill="#1E1E1E"/>
</svg>
