<svg width="24" height="24" viewBox="0 0 24 24" fill="none" xmlns="http://www.w3.org/2000/svg">
<path d="M4.2 12C4.20158 10.5683 4.77102 9.19575 5.78337 8.18339C6.79573 7.17104 8.16831 6.6016 9.6 6.60002H17.7517L16.9755 5.82452C16.8629 5.71193 16.7997 5.55923 16.7997 5.40002C16.7997 5.2408 16.8629 5.0881 16.9755 4.97552C17.0881 4.86293 17.2408 4.79968 17.4 4.79968C17.5592 4.79968 17.7119 4.86293 17.8245 4.97552L19.6245 6.77552C19.6803 6.83124 19.7245 6.89741 19.7547 6.97025C19.7849 7.04309 19.8005 7.12117 19.8005 7.20002C19.8005 7.27887 19.7849 7.35694 19.7547 7.42978C19.7245 7.50262 19.6803 7.56879 19.6245 7.62452L17.8245 9.42452C17.7119 9.5371 17.5592 9.60035 17.4 9.60035C17.2408 9.60035 17.0881 9.5371 16.9755 9.42452C16.8629 9.31193 16.7997 9.15923 16.7997 9.00002C16.7997 8.8408 16.8629 8.6881 16.9755 8.57552L17.7517 7.80002H9.6C8.48645 7.80121 7.41886 8.24409 6.63146 9.03148C5.84407 9.81888 5.40119 10.8865 5.4 12C5.4 12.1591 5.33678 12.3118 5.22426 12.4243C5.11174 12.5368 4.95913 12.6 4.8 12.6C4.64087 12.6 4.48825 12.5368 4.37573 12.4243C4.26321 12.3118 4.2 12.1591 4.2 12ZM19.2 11.4C19.0409 11.4 18.8883 11.4632 18.7757 11.5758C18.6632 11.6883 18.6 11.8409 18.6 12C18.5988 13.1136 18.1559 14.1812 17.3685 14.9685C16.5811 15.7559 15.5135 16.1988 14.4 16.2H6.24825L7.0245 15.4245C7.08024 15.3688 7.12446 15.3026 7.15463 15.2298C7.1848 15.1569 7.20033 15.0789 7.20033 15C7.20033 14.9212 7.1848 14.8431 7.15463 14.7703C7.12446 14.6974 7.08024 14.6313 7.0245 14.5755C6.96875 14.5198 6.90257 14.4756 6.82973 14.4454C6.7569 14.4152 6.67883 14.3997 6.6 14.3997C6.52116 14.3997 6.44309 14.4152 6.37026 14.4454C6.29742 14.4756 6.23124 14.5198 6.1755 14.5755L4.3755 16.3755C4.31971 16.4312 4.27545 16.4974 4.24526 16.5703C4.21507 16.6431 4.19952 16.7212 4.19952 16.8C4.19952 16.8789 4.21507 16.9569 4.24526 17.0298C4.27545 17.1026 4.31971 17.1688 4.3755 17.2245L6.1755 19.0245C6.23124 19.0803 6.29742 19.1245 6.37026 19.1547C6.44309 19.1848 6.52116 19.2004 6.6 19.2004C6.67883 19.2004 6.7569 19.1848 6.82973 19.1547C6.90257 19.1245 6.96875 19.0803 7.0245 19.0245C7.08024 18.9688 7.12446 18.9026 7.15463 18.8298C7.1848 18.7569 7.20033 18.6789 7.20033 18.6C7.20033 18.5212 7.1848 18.4431 7.15463 18.3703C7.12446 18.2974 7.08024 18.2313 7.0245 18.1755L6.24825 17.4H14.4C15.8317 17.3984 17.2043 16.829 18.2166 15.8166C19.229 14.8043 19.7984 13.4317 19.8 12C19.8 11.8409 19.7368 11.6883 19.6243 11.5758C19.5117 11.4632 19.3591 11.4 19.2 11.4Z" fill="#1E1E1E"/>
</svg>
