<svg width="24" height="24" viewBox="0 0 24 24" fill="none" xmlns="http://www.w3.org/2000/svg">
<path d="M13.25 11.375V18.25C13.25 18.4158 13.1842 18.5747 13.0669 18.6919C12.9497 18.8092 12.7908 18.875 12.625 18.875H5.75C5.58424 18.875 5.42527 18.8092 5.30806 18.6919C5.19085 18.5747 5.125 18.4158 5.125 18.25V11.375C5.125 11.2092 5.19085 11.0503 5.30806 10.9331C5.42527 10.8158 5.58424 10.75 5.75 10.75H12.625C12.7908 10.75 12.9497 10.8158 13.0669 10.9331C13.1842 11.0503 13.25 11.2092 13.25 11.375ZM18.25 15.75C18.0842 15.75 17.9253 15.8158 17.8081 15.9331C17.6908 16.0503 17.625 16.2092 17.625 16.375V17.625H15.75C15.5842 17.625 15.4253 17.6908 15.3081 17.8081C15.1908 17.9253 15.125 18.0842 15.125 18.25C15.125 18.4158 15.1908 18.5747 15.3081 18.6919C15.4253 18.8092 15.5842 18.875 15.75 18.875H17.625C17.9565 18.875 18.2745 18.7433 18.5089 18.5089C18.7433 18.2745 18.875 17.9565 18.875 17.625V16.375C18.875 16.2092 18.8092 16.0503 18.6919 15.9331C18.5747 15.8158 18.4158 15.75 18.25 15.75ZM18.25 10.125C18.0842 10.125 17.9253 10.1908 17.8081 10.3081C17.6908 10.4253 17.625 10.5842 17.625 10.75V13.25C17.625 13.4158 17.6908 13.5747 17.8081 13.6919C17.9253 13.8092 18.0842 13.875 18.25 13.875C18.4158 13.875 18.5747 13.8092 18.6919 13.6919C18.8092 13.5747 18.875 13.4158 18.875 13.25V10.75C18.875 10.5842 18.8092 10.4253 18.6919 10.3081C18.5747 10.1908 18.4158 10.125 18.25 10.125ZM17.625 5.125H16.375C16.2092 5.125 16.0503 5.19085 15.9331 5.30806C15.8158 5.42527 15.75 5.58424 15.75 5.75C15.75 5.91576 15.8158 6.07473 15.9331 6.19194C16.0503 6.30915 16.2092 6.375 16.375 6.375H17.625V7.625C17.625 7.79076 17.6908 7.94973 17.8081 8.06694C17.9253 8.18415 18.0842 8.25 18.25 8.25C18.4158 8.25 18.5747 8.18415 18.6919 8.06694C18.8092 7.94973 18.875 7.79076 18.875 7.625V6.375C18.875 6.04348 18.7433 5.72554 18.5089 5.49112C18.2745 5.2567 17.9565 5.125 17.625 5.125ZM13.25 5.125H10.75C10.5842 5.125 10.4253 5.19085 10.3081 5.30806C10.1908 5.42527 10.125 5.58424 10.125 5.75C10.125 5.91576 10.1908 6.07473 10.3081 6.19194C10.4253 6.30915 10.5842 6.375 10.75 6.375H13.25C13.4158 6.375 13.5747 6.30915 13.6919 6.19194C13.8092 6.07473 13.875 5.91576 13.875 5.75C13.875 5.58424 13.8092 5.42527 13.6919 5.30806C13.5747 5.19085 13.4158 5.125 13.25 5.125ZM5.75 8.875C5.91576 8.875 6.07473 8.80915 6.19194 8.69194C6.30915 8.57473 6.375 8.41576 6.375 8.25V6.375H7.625C7.79076 6.375 7.94973 6.30915 8.06694 6.19194C8.18415 6.07473 8.25 5.91576 8.25 5.75C8.25 5.58424 8.18415 5.42527 8.06694 5.30806C7.94973 5.19085 7.79076 5.125 7.625 5.125H6.375C6.04348 5.125 5.72554 5.2567 5.49112 5.49112C5.2567 5.72554 5.125 6.04348 5.125 6.375V8.25C5.125 8.41576 5.19085 8.57473 5.30806 8.69194C5.42527 8.80915 5.58424 8.875 5.75 8.875Z" fill="#1E1E1E"/>
</svg>
