<svg width="24" height="24" viewBox="0 0 24 24" fill="none" xmlns="http://www.w3.org/2000/svg">
<path d="M12 12.4167C11.3056 12.4167 10.7153 12.1736 10.2292 11.6875C9.7431 11.2014 9.50004 10.6111 9.50004 9.91667C9.50004 9.22222 9.7431 8.63194 10.2292 8.14583C10.7153 7.65972 11.3056 7.41667 12 7.41667C12.6945 7.41667 13.2848 7.65972 13.7709 8.14583C14.257 8.63194 14.5 9.22222 14.5 9.91667C14.5 10.6111 14.257 11.2014 13.7709 11.6875C13.2848 12.1736 12.6945 12.4167 12 12.4167ZM7.00004 20.75V14.3125C6.47226 13.7292 6.06254 13.0625 5.77087 12.3125C5.47921 11.5625 5.33337 10.7639 5.33337 9.91667C5.33337 8.05556 5.97921 6.47917 7.27087 5.1875C8.56254 3.89583 10.1389 3.25 12 3.25C13.8612 3.25 15.4375 3.89583 16.7292 5.1875C18.0209 6.47917 18.6667 8.05556 18.6667 9.91667C18.6667 10.7639 18.5209 11.5625 18.2292 12.3125C17.9375 13.0625 17.5278 13.7292 17 14.3125V20.75L12 19.0833L7.00004 20.75ZM12 14.9167C13.3889 14.9167 14.5695 14.4306 15.5417 13.4583C16.5139 12.4861 17 11.3056 17 9.91667C17 8.52778 16.5139 7.34722 15.5417 6.375C14.5695 5.40278 13.3889 4.91667 12 4.91667C10.6112 4.91667 9.4306 5.40278 8.45837 6.375C7.48615 7.34722 7.00004 8.52778 7.00004 9.91667C7.00004 11.3056 7.48615 12.4861 8.45837 13.4583C9.4306 14.4306 10.6112 14.9167 12 14.9167Z" fill="#1E1E1E"/>
</svg>
