<svg width="24" height="24" viewBox="0 0 24 24" fill="none" xmlns="http://www.w3.org/2000/svg">
<path d="M18 12.6H5.99999C5.68173 12.6 5.3765 12.7264 5.15146 12.9515C4.92642 13.1765 4.79999 13.4817 4.79999 13.8V16.8C4.79999 17.1183 4.92642 17.4235 5.15146 17.6485C5.3765 17.8736 5.68173 18 5.99999 18H18C18.3182 18 18.6235 17.8736 18.8485 17.6485C19.0736 17.4235 19.2 17.1183 19.2 16.8V13.8C19.2 13.4817 19.0736 13.1765 18.8485 12.9515C18.6235 12.7264 18.3182 12.6 18 12.6ZM18 16.8H5.99999V13.8H18V16.8ZM18 6H5.99999C5.68173 6 5.3765 6.12643 5.15146 6.35147C4.92642 6.57652 4.79999 6.88174 4.79999 7.2V10.2C4.79999 10.5183 4.92642 10.8235 5.15146 11.0485C5.3765 11.2736 5.68173 11.4 5.99999 11.4H18C18.3182 11.4 18.6235 11.2736 18.8485 11.0485C19.0736 10.8235 19.2 10.5183 19.2 10.2V7.2C19.2 6.88174 19.0736 6.57652 18.8485 6.35147C18.6235 6.12643 18.3182 6 18 6ZM18 10.2H5.99999V7.2H18V10.2Z" fill="#1E1E1E"/>
</svg>
