<svg width="24" height="24" viewBox="0 0 24 24" fill="none" xmlns="http://www.w3.org/2000/svg">
<path d="M18 10.8H6.00005C5.68179 10.8 5.37656 10.9265 5.15152 11.1515C4.92648 11.3765 4.80005 11.6818 4.80005 12V13.8C4.80005 14.1183 4.92648 14.4235 5.15152 14.6486C5.37656 14.8736 5.68179 15 6.00005 15H18C18.3183 15 18.6235 14.8736 18.8486 14.6486C19.0736 14.4235 19.2 14.1183 19.2 13.8V12C19.2 11.6818 19.0736 11.3765 18.8486 11.1515C18.6235 10.9265 18.3183 10.8 18 10.8ZM18 13.8H6.00005V12H18V13.8ZM18 5.40002H6.00005C5.68179 5.40002 5.37656 5.52645 5.15152 5.7515C4.92648 5.97654 4.80005 6.28176 4.80005 6.60002V8.40002C4.80005 8.71828 4.92648 9.02351 5.15152 9.24855C5.37656 9.4736 5.68179 9.60002 6.00005 9.60002H18C18.3183 9.60002 18.6235 9.4736 18.8486 9.24855C19.0736 9.02351 19.2 8.71828 19.2 8.40002V6.60002C19.2 6.28176 19.0736 5.97654 18.8486 5.7515C18.6235 5.52645 18.3183 5.40002 18 5.40002ZM18 8.40002H6.00005V6.60002H18V8.40002ZM14.4 18.6C14.4 18.7592 14.3368 18.9118 14.2243 19.0243C14.1118 19.1368 13.9592 19.2 13.8 19.2H12.6V20.4C12.6 20.5592 12.5368 20.7118 12.4243 20.8243C12.3118 20.9368 12.1592 21 12 21C11.8409 21 11.6883 20.9368 11.5758 20.8243C11.4633 20.7118 11.4 20.5592 11.4 20.4V19.2H10.2C10.0409 19.2 9.88831 19.1368 9.77578 19.0243C9.66326 18.9118 9.60005 18.7592 9.60005 18.6C9.60005 18.4409 9.66326 18.2883 9.77578 18.1758C9.88831 18.0632 10.0409 18 10.2 18H11.4V16.8C11.4 16.6409 11.4633 16.4883 11.5758 16.3758C11.6883 16.2632 11.8409 16.2 12 16.2C12.1592 16.2 12.3118 16.2632 12.4243 16.3758C12.5368 16.4883 12.6 16.6409 12.6 16.8V18H13.8C13.9592 18 14.1118 18.0632 14.2243 18.1758C14.3368 18.2883 14.4 18.4409 14.4 18.6Z" fill="#1E1E1E"/>
</svg>
