<svg width="24" height="24" viewBox="0 0 24 24" fill="none" xmlns="http://www.w3.org/2000/svg">
<path d="M5.41998 5.40002H18.58C18.9224 5.40002 19.2 5.67761 19.2 6.02002V8.28003C19.2 8.62244 18.9224 8.90002 18.58 8.90002H5.41998C5.07758 8.90002 4.79999 8.62244 4.79999 8.28003V6.02002C4.79999 5.67761 5.07758 5.40002 5.41998 5.40002Z" fill="#1E1E1E"/>
<path d="M5.41998 10.8H18.58C18.9224 10.8 19.2 11.0776 19.2 11.42V13.6801C19.2 14.0225 18.9224 14.3 18.58 14.3H5.41998C5.07758 14.3 4.79999 14.0225 4.79999 13.6801V11.42C4.79999 11.0776 5.07758 10.8 5.41998 10.8Z" fill="#1E1E1E"/>
<path d="M12.6 16.44H11.4V18H9.83997V19.2H11.4V20.75H12.6V19.2H14.15V18H12.6V16.44Z" fill="#1E1E1E"/>
</svg>
