<svg width="24" height="24" viewBox="0 0 24 24" fill="none" xmlns="http://www.w3.org/2000/svg">
<path d="M20.3844 9.49999L9.49998 20.3836C9.38391 20.4997 9.24609 20.5918 9.09442 20.6546C8.94274 20.7175 8.78017 20.7498 8.616 20.7498C8.45182 20.7498 8.28925 20.7175 8.13758 20.6546C7.9859 20.5918 7.84809 20.4997 7.73201 20.3836L3.61561 16.268C3.4995 16.1519 3.4074 16.0141 3.34457 15.8624C3.28173 15.7107 3.24939 15.5482 3.24939 15.384C3.24939 15.2198 3.28173 15.0572 3.34457 14.9056C3.4074 14.7539 3.4995 14.6161 3.61561 14.5L5.89451 12.2211C5.92354 12.192 5.958 12.169 5.99594 12.1533C6.03388 12.1375 6.07454 12.1294 6.11561 12.1294C6.15667 12.1294 6.19734 12.1375 6.23528 12.1533C6.27321 12.169 6.30768 12.192 6.3367 12.2211L9.0578 14.9422C9.11856 15.0029 9.19119 15.0505 9.27115 15.0819C9.35111 15.1133 9.43669 15.1278 9.52254 15.1247C9.60838 15.1215 9.69266 15.1007 9.7701 15.0635C9.84755 15.0264 9.91649 14.9736 9.97264 14.9086C10.0753 14.7848 10.1275 14.6268 10.1188 14.4662C10.1101 14.3056 10.0412 14.1542 9.92576 14.0422L7.22029 11.3367C7.16185 11.2781 7.12903 11.1988 7.12903 11.116C7.12903 11.0333 7.16185 10.9539 7.22029 10.8953L8.39217 9.72343C8.42119 9.69438 8.45566 9.67133 8.4936 9.6556C8.53153 9.63987 8.5722 9.63178 8.61326 9.63178C8.65433 9.63178 8.695 9.63987 8.73293 9.6556C8.77087 9.67133 8.80534 9.69438 8.83436 9.72343L11.5555 12.4445C11.6162 12.5053 11.6888 12.5528 11.7688 12.5842C11.8488 12.6156 11.9343 12.6302 12.0202 12.627C12.106 12.6239 12.1903 12.6031 12.2678 12.5659C12.3452 12.5287 12.4142 12.4759 12.4703 12.4109C12.5729 12.2871 12.6251 12.1291 12.6164 11.9686C12.6077 11.808 12.5388 11.6565 12.4234 11.5445L9.72108 8.83671C9.66264 8.77813 9.62981 8.69876 9.62981 8.61601C9.62981 8.53326 9.66264 8.45389 9.72108 8.39531L10.893 7.22343C10.9515 7.16499 11.0309 7.13217 11.1137 7.13217C11.1964 7.13217 11.2758 7.16499 11.3344 7.22343L14.0555 9.94452C14.1162 10.0054 14.1889 10.053 14.2689 10.0845C14.349 10.116 14.4346 10.1306 14.5206 10.1274C14.6065 10.1243 14.6909 10.1034 14.7684 10.0662C14.8459 10.0289 14.9149 9.97607 14.9711 9.91093C15.0736 9.78702 15.1257 9.629 15.1168 9.4684C15.108 9.3078 15.0389 9.15644 14.9234 9.04452L12.2211 6.33671C12.1626 6.27813 12.1298 6.19876 12.1298 6.11601C12.1298 6.03326 12.1626 5.95389 12.2211 5.89531L14.5 3.6164C14.6161 3.5003 14.7539 3.4082 14.9055 3.34536C15.0572 3.28252 15.2198 3.25018 15.384 3.25018C15.5481 3.25018 15.7107 3.28252 15.8624 3.34536C16.0141 3.4082 16.1519 3.5003 16.268 3.6164L20.3844 7.73203C20.5005 7.8481 20.5926 7.98591 20.6554 8.13759C20.7182 8.28926 20.7506 8.45183 20.7506 8.61601C20.7506 8.78019 20.7182 8.94275 20.6554 9.09443C20.5926 9.2461 20.5005 9.38392 20.3844 9.49999Z" fill="#1E1E1E"/>
</svg>
