<svg width="24" height="24" viewBox="0 0 24 24" fill="none" xmlns="http://www.w3.org/2000/svg">
<path d="M3.66663 20.3334C3.66663 18.7917 3.87149 17.4757 4.28121 16.3854C4.69093 15.2952 5.21524 14.3889 5.85413 13.6667C6.49301 12.9445 7.20829 12.3854 7.99996 11.9896C8.79163 11.5938 9.5694 11.3195 10.3333 11.1667V8.66669C8.43051 8.43058 6.84371 7.84377 5.57288 6.90627C4.30204 5.96877 3.66663 4.88891 3.66663 3.66669H20.3333C20.3333 4.88891 19.6979 5.96877 18.427 6.90627C17.1562 7.84377 15.5694 8.43058 13.6666 8.66669V11.1667C14.4305 11.3195 15.2083 11.5938 16 11.9896C16.7916 12.3854 17.5069 12.9445 18.1458 13.6667C18.7847 14.3889 19.309 15.2952 19.7187 16.3854C20.1284 17.4757 20.3333 18.7917 20.3333 20.3334H15.3333V18.6667H18.5625C18.3125 16.5556 17.5243 15.0278 16.1979 14.0834C14.8715 13.1389 13.4722 12.6667 12 12.6667C10.5277 12.6667 9.12843 13.1389 7.80204 14.0834C6.47565 15.0278 5.68746 16.5556 5.43746 18.6667H8.66663V20.3334H3.66663ZM12 20.3334C11.5416 20.3334 11.1493 20.1702 10.8229 19.8438C10.4965 19.5174 10.3333 19.125 10.3333 18.6667C10.3333 18.4306 10.3784 18.2153 10.4687 18.0209C10.559 17.8264 10.6805 17.6528 10.8333 17.5C11.1666 17.1667 11.7291 16.816 12.5208 16.4479C13.3125 16.0799 14.25 15.7084 15.3333 15.3334C14.9444 16.4167 14.5694 17.3542 14.2083 18.1459C13.8472 18.9375 13.5 19.5 13.1666 19.8334C13.0138 19.9861 12.8402 20.1077 12.6458 20.1979C12.4513 20.2882 12.2361 20.3334 12 20.3334Z" fill="#1E1E1E"/>
</svg>
