<svg width="24" height="24" viewBox="0 0 24 24" fill="none" xmlns="http://www.w3.org/2000/svg">
<path d="M12.1602 5.16016V6.83008H16.8301V5.16016H18.5V6.83008H19.3301C19.79 6.8301 20.1798 6.99033 20.5098 7.32031V7.30957C20.8398 7.63957 21 8.03023 21 8.49023V17.1602C20.9999 17.6201 20.8397 18.0099 20.5098 18.3398C20.1798 18.6698 19.79 18.8301 19.3301 18.8301H9.66016C9.20025 18.8301 8.81043 18.6697 8.48047 18.3398C8.15053 18.0099 7.99029 17.6201 7.99023 17.1602H19.3203V10.8301H7.99023V8.5C7.99023 8.04 8.15047 7.65031 8.48047 7.32031C8.81046 6.99034 9.20017 6.83008 9.66016 6.83008H10.4902V5.16016H12.1602Z" fill="#1E1E1E"/>
<path d="M6.66016 11L4.52051 13.1699H13.3301V14.8301H4.52051L6.66016 17L5.5 18.1699L1.33008 14L5.5 9.83008L6.66016 11Z" fill="#1E1E1E"/>
</svg>
