<svg width="24" height="24" viewBox="0 0 24 24" fill="none" xmlns="http://www.w3.org/2000/svg">
<path d="M7.16016 5.16016V6.83008H11.8301V5.16016H13.5V6.83008H14.3301C14.79 6.8301 15.1798 6.99033 15.5098 7.32031C15.8397 7.65029 16 8.04004 16 8.5V10.8301H4.66992V17.1699H16C16 17.6299 15.8397 18.0196 15.5098 18.3496C15.1798 18.6796 14.79 18.8398 14.3301 18.8398H4.66016C4.2002 18.8398 3.81045 18.6796 3.48047 18.3496C3.15047 18.0196 2.99024 17.6299 2.99023 17.1699V8.5C2.99023 8.04 3.15047 7.65031 3.48047 7.32031C3.81046 6.99034 4.20017 6.83008 4.66016 6.83008H5.49023V5.16016H7.16016Z" fill="#1E1E1E"/>
<path d="M22.6699 14L18.5 18.1699L17.3398 17L19.4795 14.8301H10.6699V13.1699H19.4795L17.3398 11L18.5 9.83008L22.6699 14Z" fill="#1E1E1E"/>
</svg>
