<svg width="24" height="24" viewBox="0 0 24 24" fill="none" xmlns="http://www.w3.org/2000/svg">
<path d="M20.2211 3.77734C19.4819 3.03926 18.4801 2.62469 17.4355 2.62469C16.391 2.62469 15.3891 3.03926 14.65 3.77734L10.4906 7.93749C10.3745 8.05327 10.2824 8.19088 10.2196 8.34239C10.1569 8.49389 10.1247 8.65632 10.125 8.8203V10.125H8.81014C8.53784 10.1257 8.27308 10.2145 8.05545 10.3781C8.03284 10.3954 8.01144 10.4142 7.99139 10.4344L7.36639 11.0594C7.25028 11.1754 7.15818 11.3133 7.09535 11.4649C7.03251 11.6166 7.00017 11.7792 7.00017 11.9434C7.00017 12.1075 7.03251 12.2701 7.09535 12.4218C7.15818 12.5734 7.25028 12.7113 7.36639 12.8273L8.82732 14.2891L2.8117 20.3086C2.75363 20.3667 2.70757 20.4356 2.67614 20.5115C2.64472 20.5873 2.62854 20.6687 2.62854 20.7508C2.62854 20.8329 2.64472 20.9142 2.67614 20.9901C2.70757 21.066 2.75363 21.1349 2.8117 21.193C2.92898 21.3102 3.08804 21.3761 3.25389 21.3761C3.33601 21.3761 3.41733 21.3599 3.4932 21.3285C3.56907 21.2971 3.63801 21.251 3.69607 21.193L9.7117 15.1726L11.1734 16.6344C11.4078 16.8686 11.7256 17.0002 12.057 17.0002C12.3884 17.0002 12.7062 16.8686 12.9406 16.6344L13.5656 16.0094C13.5858 15.9891 13.6046 15.9674 13.6219 15.9445C13.7865 15.7274 13.8757 15.4624 13.8758 15.1898V13.875H15.1797C15.3438 13.8753 15.5064 13.843 15.6579 13.78C15.8095 13.7169 15.947 13.6244 16.0625 13.5078L20.2211 9.34921C20.5869 8.98336 20.8772 8.54903 21.0752 8.07102C21.2732 7.593 21.3751 7.08067 21.3751 6.56327C21.3751 6.04587 21.2732 5.53354 21.0752 5.05553C20.8772 4.57752 20.5869 4.14319 20.2211 3.77734ZM18.0672 6.81562L13.6922 11.1906C13.575 11.3079 13.416 11.3738 13.2503 11.3739C13.0845 11.374 12.9255 11.3082 12.8082 11.191C12.6909 11.0738 12.625 10.9149 12.6249 10.7491C12.6248 10.5833 12.6906 10.4243 12.8078 10.307L17.1828 5.93202C17.3001 5.81475 17.4591 5.74886 17.625 5.74886C17.7908 5.74886 17.9499 5.81475 18.0672 5.93202C18.1844 6.0493 18.2503 6.20836 18.2503 6.37421C18.2503 6.54006 18.1844 6.69912 18.0672 6.8164V6.81562Z" fill="#1E1E1E"/>
</svg>
