<svg width="24" height="24" viewBox="0 0 24 24" fill="none" xmlns="http://www.w3.org/2000/svg">
<path d="M14.6396 9.42969L13.9297 10.1396L12.6201 8.83008V15.1699L13.9297 13.8604L14.6396 14.5703L12 17.21L9.36035 14.5703L10.0703 13.8604L11.3799 15.1699V8.83008L10.0703 10.1396L9.36035 9.42969L12 6.79004L14.6396 9.42969Z" fill="#1E1E1E"/>
<path fill-rule="evenodd" clip-rule="evenodd" d="M15 4C16.65 4 18 5.35 18 7V17C18 18.65 16.65 20 15 20H9C7.35 20 6 18.65 6 17V7C6 5.35 7.35 4 9 4H15ZM9 5.25C8.04 5.25 7.25 6.04 7.25 7V17C7.25 17.96 8.04 18.75 9 18.75H15C15.96 18.75 16.75 17.96 16.75 17V7C16.75 6.04 15.96 5.25 15 5.25H9Z" fill="#1E1E1E"/>
</svg>
