<svg width="24" height="24" viewBox="0 0 24 24" fill="none" xmlns="http://www.w3.org/2000/svg">
<path d="M14.6396 9.42969L13.9297 10.1396L12.6201 8.83008V15.1699L13.9297 13.8604L14.6396 14.5703L12 17.21L9.36035 14.5703L10.0703 13.8604L11.3799 15.1699V8.83008L10.0703 10.1396L9.36035 9.42969L12 6.79004L14.6396 9.42969Z" fill="#1E1E1E"/>
<path fill-rule="evenodd" clip-rule="evenodd" d="M15 4C16.65 4 18 5.35 18 7V17C18 18.65 16.65 20 15 20H9C7.35 20 6 18.65 6 17V7C6 5.35 7.35 4 9 4H15ZM9 5C7.9 5 7 5.9 7 7V17C7 18.1 7.9 19 9 19H15C16.1 19 17 18.1 17 17V7C17 5.9 16.1 5 15 5H9Z" fill="#1E1E1E"/>
</svg>
