<svg width="24" height="24" viewBox="0 0 24 24" fill="none" xmlns="http://www.w3.org/2000/svg">
<path d="M18.3333 19.5L13.0833 14.25C12.6667 14.5833 12.1875 14.8472 11.6458 15.0417C11.1042 15.2361 10.5278 15.3333 9.91667 15.3333C8.40278 15.3333 7.12153 14.809 6.07292 13.7604C5.02431 12.7118 4.5 11.4306 4.5 9.91667C4.5 8.40278 5.02431 7.12153 6.07292 6.07292C7.12153 5.02431 8.40278 4.5 9.91667 4.5C11.4306 4.5 12.7118 5.02431 13.7604 6.07292C14.809 7.12153 15.3333 8.40278 15.3333 9.91667C15.3333 10.5278 15.2361 11.1042 15.0417 11.6458C14.8472 12.1875 14.5833 12.6667 14.25 13.0833L19.5 18.3333L18.3333 19.5ZM9.91667 13.6667C10.9583 13.6667 11.8437 13.3021 12.5729 12.5729C13.3021 11.8437 13.6667 10.9583 13.6667 9.91667C13.6667 8.875 13.3021 7.98958 12.5729 7.26042C11.8437 6.53125 10.9583 6.16667 9.91667 6.16667C8.875 6.16667 7.98958 6.53125 7.26042 7.26042C6.53125 7.98958 6.16667 8.875 6.16667 9.91667C6.16667 10.9583 6.53125 11.8437 7.26042 12.5729C7.98958 13.3021 8.875 13.6667 9.91667 13.6667Z" fill="#1E1E1E"/>
</svg>
