<svg width="24" height="24" viewBox="0 0 24 24" fill="none" xmlns="http://www.w3.org/2000/svg">
<path d="M9.45829 13.2917L14.1666 8.56252L12.9791 7.37502L9.45829 10.9167L7.68746 9.16669L6.49996 10.3334L9.45829 13.2917ZM10.3333 17C8.47218 17 6.89579 16.3542 5.60413 15.0625C4.31246 13.7709 3.66663 12.1945 3.66663 10.3334C3.66663 8.47224 4.31246 6.89585 5.60413 5.60419C6.89579 4.31252 8.47218 3.66669 10.3333 3.66669C12.1944 3.66669 13.7708 4.31252 15.0625 5.60419C16.3541 6.89585 17 8.47224 17 10.3334C17 11.1111 16.8784 11.8438 16.6354 12.5313C16.3923 13.2188 16.0486 13.8472 15.6041 14.4167L20.3333 19.1667L19.1666 20.3334L14.4166 15.6042C13.8472 16.0486 13.2187 16.3924 12.5312 16.6354C11.8437 16.8785 11.1111 17 10.3333 17Z" fill="#1E1E1E"/>
</svg>
