<svg width="24" height="24" viewBox="0 0 24 24" fill="none" xmlns="http://www.w3.org/2000/svg">
<path d="M19.7917 20.9583L17.2292 18.4166C16.9792 18.5694 16.7118 18.684 16.4271 18.7604C16.1424 18.8368 15.8472 18.875 15.5417 18.875C14.625 18.875 13.8403 18.5486 13.1875 17.8958C12.5347 17.243 12.2084 16.4583 12.2084 15.5416C12.2084 14.625 12.5347 13.8402 13.1875 13.1875C13.8403 12.5347 14.625 12.2083 15.5417 12.2083C16.4584 12.2083 17.2431 12.5347 17.8959 13.1875C18.5486 13.8402 18.875 14.625 18.875 15.5416C18.875 15.8611 18.8334 16.1632 18.75 16.4479C18.6667 16.7326 18.5486 17 18.3959 17.25L20.9584 19.7916L19.7917 20.9583ZM6.37502 18.875C5.45835 18.875 4.67363 18.5486 4.02085 17.8958C3.36808 17.243 3.04169 16.4583 3.04169 15.5416C3.04169 14.625 3.36808 13.8402 4.02085 13.1875C4.67363 12.5347 5.45835 12.2083 6.37502 12.2083C7.29169 12.2083 8.07641 12.5347 8.72919 13.1875C9.38196 13.8402 9.70835 14.625 9.70835 15.5416C9.70835 16.4583 9.38196 17.243 8.72919 17.8958C8.07641 18.5486 7.29169 18.875 6.37502 18.875ZM15.5417 17.2083C16 17.2083 16.3924 17.0451 16.7188 16.7187C17.0452 16.3923 17.2084 16 17.2084 15.5416C17.2084 15.0833 17.0452 14.6909 16.7188 14.3645C16.3924 14.0382 16 13.875 15.5417 13.875C15.0834 13.875 14.691 14.0382 14.3646 14.3645C14.0382 14.6909 13.875 15.0833 13.875 15.5416C13.875 16 14.0382 16.3923 14.3646 16.7187C14.691 17.0451 15.0834 17.2083 15.5417 17.2083ZM6.37502 9.70829C5.45835 9.70829 4.67363 9.3819 4.02085 8.72913C3.36808 8.07635 3.04169 7.29163 3.04169 6.37496C3.04169 5.45829 3.36808 4.67357 4.02085 4.02079C4.67363 3.36801 5.45835 3.04163 6.37502 3.04163C7.29169 3.04163 8.07641 3.36801 8.72919 4.02079C9.38196 4.67357 9.70835 5.45829 9.70835 6.37496C9.70835 7.29163 9.38196 8.07635 8.72919 8.72913C8.07641 9.3819 7.29169 9.70829 6.37502 9.70829ZM15.5417 9.70829C14.625 9.70829 13.8403 9.3819 13.1875 8.72913C12.5347 8.07635 12.2084 7.29163 12.2084 6.37496C12.2084 5.45829 12.5347 4.67357 13.1875 4.02079C13.8403 3.36801 14.625 3.04163 15.5417 3.04163C16.4584 3.04163 17.2431 3.36801 17.8959 4.02079C18.5486 4.67357 18.875 5.45829 18.875 6.37496C18.875 7.29163 18.5486 8.07635 17.8959 8.72913C17.2431 9.3819 16.4584 9.70829 15.5417 9.70829Z" fill="#1E1E1E"/>
</svg>
