<svg width="24" height="24" viewBox="0 0 24 24" fill="none" xmlns="http://www.w3.org/2000/svg">
<path d="M3.66669 17.4167V15.75H12V17.4167H3.66669ZM3.66669 13.25V11.5834H7.83335V13.25H3.66669ZM3.66669 9.08337V7.41671H7.83335V9.08337H3.66669ZM19.1667 17.4167L15.9584 14.2084C15.625 14.4445 15.2604 14.6216 14.8646 14.7396C14.4688 14.8577 14.0695 14.9167 13.6667 14.9167C12.5139 14.9167 11.5313 14.5105 10.7188 13.698C9.90627 12.8855 9.50002 11.9028 9.50002 10.75C9.50002 9.59726 9.90627 8.61462 10.7188 7.80212C11.5313 6.98962 12.5139 6.58337 13.6667 6.58337C14.8195 6.58337 15.8021 6.98962 16.6146 7.80212C17.4271 8.61462 17.8334 9.59726 17.8334 10.75C17.8334 11.1528 17.7743 11.5521 17.6563 11.948C17.5382 12.3438 17.3611 12.7084 17.125 13.0417L20.3334 16.25L19.1667 17.4167ZM13.6667 13.25C14.3611 13.25 14.9514 13.007 15.4375 12.5209C15.9236 12.0348 16.1667 11.4445 16.1667 10.75C16.1667 10.0556 15.9236 9.46532 15.4375 8.97921C14.9514 8.4931 14.3611 8.25004 13.6667 8.25004C12.9722 8.25004 12.382 8.4931 11.8959 8.97921C11.4097 9.46532 11.1667 10.0556 11.1667 10.75C11.1667 11.4445 11.4097 12.0348 11.8959 12.5209C12.382 13.007 12.9722 13.25 13.6667 13.25Z" fill="#1E1E1E"/>
</svg>
