<svg width="24" height="24" viewBox="0 0 24 24" fill="none" xmlns="http://www.w3.org/2000/svg">
<path d="M9.70833 20.3334L9.375 17.6667C9.19444 17.5972 9.02431 17.5139 8.86458 17.4167C8.70486 17.3195 8.54861 17.2153 8.39583 17.1042L5.91667 18.1459L3.625 14.1875L5.77083 12.5625C5.75694 12.4653 5.75 12.3715 5.75 12.2813V11.7188C5.75 11.6285 5.75694 11.5347 5.77083 11.4375L3.625 9.81252L5.91667 5.85419L8.39583 6.89585C8.54861 6.78474 8.70833 6.68058 8.875 6.58335C9.04167 6.48613 9.20833 6.4028 9.375 6.33335L9.70833 3.66669H14.2917L14.625 6.33335C14.8056 6.4028 14.9757 6.48613 15.1354 6.58335C15.2951 6.68058 15.4514 6.78474 15.6042 6.89585L18.0833 5.85419L20.375 9.81252L18.2292 11.4375C18.2431 11.5347 18.25 11.6285 18.25 11.7188V12.2813C18.25 12.3715 18.2361 12.4653 18.2083 12.5625L20.3542 14.1875L18.0625 18.1459L15.6042 17.1042C15.4514 17.2153 15.2917 17.3195 15.125 17.4167C14.9583 17.5139 14.7917 17.5972 14.625 17.6667L14.2917 20.3334H9.70833ZM12.0417 14.9167C12.8472 14.9167 13.5347 14.632 14.1042 14.0625C14.6736 13.4931 14.9583 12.8056 14.9583 12C14.9583 11.1945 14.6736 10.507 14.1042 9.93752C13.5347 9.36808 12.8472 9.08335 12.0417 9.08335C11.2222 9.08335 10.5312 9.36808 9.96875 9.93752C9.40625 10.507 9.125 11.1945 9.125 12C9.125 12.8056 9.40625 13.4931 9.96875 14.0625C10.5312 14.632 11.2222 14.9167 12.0417 14.9167Z" fill="#1E1E1E"/>
</svg>
