<svg width="24" height="24" viewBox="0 0 24 24" fill="none" xmlns="http://www.w3.org/2000/svg">
<path d="M10.718 16.1773C10.7493 16.2713 10.7579 16.3714 10.7429 16.4693C10.728 16.5672 10.69 16.6601 10.6321 16.7405C10.5742 16.8208 10.498 16.8862 10.4099 16.9314C10.3217 16.9765 10.2241 17 10.125 17H3.87505C3.77601 17 3.67839 16.9765 3.59023 16.9314C3.50207 16.8862 3.42589 16.8208 3.36798 16.7405C3.31007 16.6601 3.27208 16.5672 3.25715 16.4693C3.24221 16.3714 3.25076 16.2713 3.28208 16.1773L6.40708 6.80235C6.44854 6.67787 6.52812 6.5696 6.63455 6.49288C6.74098 6.41615 6.86885 6.37486 7.00005 6.37486C7.13125 6.37486 7.25912 6.41615 7.36554 6.49288C7.47197 6.5696 7.55155 6.67787 7.59301 6.80235L10.718 16.1773ZM18.25 7.9375C18.25 7.13402 18.0118 6.34857 17.5654 5.6805C17.119 5.01242 16.4845 4.49172 15.7422 4.18424C14.9999 3.87676 14.183 3.79631 13.395 3.95306C12.6069 4.10981 11.8831 4.49673 11.3149 5.06488C10.7468 5.63303 10.3599 6.3569 10.2031 7.14495C10.0464 7.933 10.1268 8.74983 10.4343 9.49215C10.7418 10.2345 11.2625 10.869 11.9305 11.3153C12.5986 11.7617 13.3841 12 14.1875 12C15.2646 11.9988 16.2972 11.5704 17.0588 10.8088C17.8204 10.0472 18.2488 9.01456 18.25 7.9375ZM19.5 13.25H12.625C12.4593 13.25 12.3003 13.3158 12.1831 13.4331C12.0659 13.5503 12 13.7092 12 13.875V18.25C12 18.4158 12.0659 18.5747 12.1831 18.6919C12.3003 18.8092 12.4593 18.875 12.625 18.875H19.5C19.6658 18.875 19.8248 18.8092 19.942 18.6919C20.0592 18.5747 20.125 18.4158 20.125 18.25V13.875C20.125 13.7092 20.0592 13.5503 19.942 13.4331C19.8248 13.3158 19.6658 13.25 19.5 13.25Z" fill="#1E1E1E"/>
</svg>
