<svg width="24" height="24" viewBox="0 0 24 24" fill="none" xmlns="http://www.w3.org/2000/svg">
<path d="M17.28 9.05005L15.19 6.96007L16.07 6.07007L19.8 9.80007L16.07 13.5301L15.19 12.6501L17.2827 10.55H15.53C11.9772 10.55 10.2271 13.0201 8.81852 15.008L8.81001 15.02C8.69483 15.1784 8.58483 15.3368 8.48001 15.4877C8.43922 15.5464 8.39922 15.604 8.36001 15.66L7.15001 14.78C7.29001 14.59 7.44001 14.38 7.59001 14.16C9.02001 12.13 11.19 9.05005 15.53 9.05005H17.28Z" fill="#1E1E1E"/>
<path d="M5.87001 17.13V7.80005H4.20001V16.8C4.20001 17.9 5.10001 18.8 6.20001 18.8H17.2V17.13H5.87001Z" fill="#1E1E1E"/>
</svg>
