<svg width="24" height="24" viewBox="0 0 24 24" fill="none" xmlns="http://www.w3.org/2000/svg">
<path d="M19.6245 10.6245L16.0245 14.2245C15.9119 14.3371 15.7592 14.4003 15.6 14.4003C15.4408 14.4003 15.2881 14.3371 15.1755 14.2245C15.0629 14.1119 14.9997 13.9592 14.9997 13.8C14.9997 13.6407 15.0629 13.4881 15.1755 13.3755L17.7518 10.8H14.775C13.3115 10.7996 11.8894 11.2856 10.7322 12.1816C9.57512 13.0777 8.74864 14.3329 8.38276 15.75C8.34298 15.9041 8.24359 16.0362 8.10645 16.117C7.96932 16.1979 7.80567 16.221 7.65151 16.1812C7.49736 16.1414 7.36532 16.042 7.28444 15.9049C7.20357 15.7678 7.18048 15.6041 7.22026 15.45C7.65197 13.7749 8.62858 12.2909 9.99631 11.2318C11.364 10.1727 13.0452 9.59865 14.775 9.59997H17.7533L15.1755 7.02447C15.1198 6.96872 15.0755 6.90254 15.0454 6.82971C15.0152 6.75687 14.9997 6.6788 14.9997 6.59997C14.9997 6.52113 15.0152 6.44307 15.0454 6.37023C15.0755 6.29739 15.1198 6.23121 15.1755 6.17547C15.2881 6.06288 15.4408 5.99963 15.6 5.99963C15.6788 5.99963 15.7569 6.01516 15.8298 6.04533C15.9026 6.0755 15.9688 6.11972 16.0245 6.17547L19.6245 9.77547C19.6803 9.83119 19.7246 9.89736 19.7547 9.9702C19.7849 10.043 19.8005 10.1211 19.8005 10.2C19.8005 10.2788 19.7849 10.3569 19.7547 10.4297C19.7246 10.5026 19.6803 10.5687 19.6245 10.6245ZM16.8 18H5.40001V8.99997C5.40001 8.84084 5.3368 8.68823 5.22428 8.5757C5.11175 8.46318 4.95914 8.39997 4.80001 8.39997C4.64088 8.39997 4.48827 8.46318 4.37575 8.5757C4.26323 8.68823 4.20001 8.84084 4.20001 8.99997V18.6C4.20001 18.7591 4.26323 18.9117 4.37575 19.0242C4.48827 19.1368 4.64088 19.2 4.80001 19.2H16.8C16.9591 19.2 17.1118 19.1368 17.2243 19.0242C17.3368 18.9117 17.4 18.7591 17.4 18.6C17.4 18.4408 17.3368 18.2882 17.2243 18.1757C17.1118 18.0632 16.9591 18 16.8 18Z" fill="#1E1E1E"/>
</svg>
