<svg width="24" height="24" viewBox="0 0 24 24" fill="none" xmlns="http://www.w3.org/2000/svg">
<path d="M20.2245 15.7755C20.2802 15.8312 20.3245 15.8974 20.3547 15.9702C20.3849 16.0431 20.4004 16.1211 20.4004 16.2C20.4004 16.2788 20.3849 16.3569 20.3547 16.4298C20.3245 16.5026 20.2802 16.5688 20.2245 16.6245L18.4245 18.4245C18.3119 18.5371 18.1592 18.6003 18 18.6003C17.8407 18.6003 17.688 18.5371 17.5755 18.4245C17.4629 18.3119 17.3996 18.1592 17.3996 18C17.3996 17.8408 17.4629 17.6881 17.5755 17.5755L18.3517 16.8H17.4705C16.611 16.7993 15.7642 16.5938 15 16.2006C14.2358 15.8073 13.5763 15.2376 13.0762 14.5387L9.9472 10.1587C9.55818 9.61518 9.04525 9.17213 8.4509 8.86628C7.85655 8.56043 7.19788 8.40059 6.52945 8.39999H4.79995C4.64082 8.39999 4.48821 8.33678 4.37569 8.22426C4.26317 8.11173 4.19995 7.95912 4.19995 7.79999C4.19995 7.64086 4.26317 7.48825 4.37569 7.37573C4.48821 7.26321 4.64082 7.19999 4.79995 7.19999H6.52945C7.38887 7.20071 8.23575 7.40619 8.99992 7.79943C9.76409 8.19267 10.4236 8.76234 10.9237 9.46124L14.0527 13.8412C14.4417 14.3848 14.9547 14.8279 15.549 15.1337C16.1434 15.4396 16.802 15.5994 17.4705 15.6H18.3517L17.5755 14.8245C17.4629 14.7119 17.3996 14.5592 17.3996 14.4C17.3996 14.2408 17.4629 14.0881 17.5755 13.9755C17.688 13.8629 17.8407 13.7997 18 13.7997C18.1592 13.7997 18.3119 13.8629 18.4245 13.9755L20.2245 15.7755ZM13.125 10.425C13.1891 10.4708 13.2616 10.5035 13.3383 10.5213C13.4151 10.5391 13.4946 10.5415 13.5723 10.5286C13.6501 10.5156 13.7245 10.4875 13.7913 10.4458C13.8582 10.4041 13.9162 10.3496 13.962 10.2855L14.052 10.1602C14.4409 9.6163 14.9539 9.17289 15.5484 8.86678C16.1429 8.56066 16.8018 8.40064 17.4705 8.39999H18.3517L17.5755 9.17549C17.4629 9.28808 17.3996 9.44077 17.3996 9.59999C17.3996 9.75921 17.4629 9.91191 17.5755 10.0245C17.688 10.1371 17.8407 10.2003 18 10.2003C18.1592 10.2003 18.3119 10.1371 18.4245 10.0245L20.2245 8.22449C20.2802 8.16877 20.3245 8.10259 20.3547 8.02976C20.3849 7.95692 20.4004 7.87884 20.4004 7.79999C20.4004 7.72114 20.3849 7.64307 20.3547 7.57023C20.3245 7.49739 20.2802 7.43122 20.2245 7.37549L18.4245 5.57549C18.3119 5.46291 18.1592 5.39966 18 5.39966C17.8407 5.39966 17.688 5.46291 17.5755 5.57549C17.4629 5.68808 17.3996 5.84077 17.3996 5.99999C17.3996 6.15921 17.4629 6.31191 17.5755 6.42449L18.3517 7.19999H17.4705C16.611 7.20071 15.7642 7.40619 15 7.79943C14.2358 8.19267 13.5763 8.76234 13.0762 9.46124L12.9862 9.58649C12.9401 9.65061 12.9072 9.7232 12.8892 9.80008C12.8712 9.87697 12.8686 9.95665 12.8815 10.0345C12.8944 10.1124 12.9225 10.187 12.9643 10.254C13.0061 10.321 13.0607 10.3791 13.125 10.425ZM10.875 13.575C10.8108 13.5292 10.7383 13.4965 10.6616 13.4787C10.5848 13.4609 10.5053 13.4584 10.4276 13.4714C10.3498 13.4843 10.2754 13.5125 10.2086 13.5542C10.1417 13.5959 10.0837 13.6504 10.038 13.7145L9.94795 13.8397C9.55902 14.3837 9.04604 14.8271 8.45154 15.1332C7.85704 15.4393 7.19814 15.5993 6.52945 15.6H4.79995C4.64082 15.6 4.48821 15.6632 4.37569 15.7757C4.26317 15.8883 4.19995 16.0409 4.19995 16.2C4.19995 16.3591 4.26317 16.5117 4.37569 16.6243C4.48821 16.7368 4.64082 16.8 4.79995 16.8H6.52945C7.38887 16.7993 8.23575 16.5938 8.99992 16.2006C9.76409 15.8073 10.4236 15.2376 10.9237 14.5387L11.0137 14.4135C11.0598 14.3494 11.0927 14.2768 11.1107 14.1999C11.1287 14.123 11.1313 14.0433 11.1184 13.9654C11.1055 13.8875 11.0774 13.813 11.0356 13.746C10.9938 13.679 10.9392 13.6209 10.875 13.575Z" fill="#1E1E1E"/>
</svg>
