<svg width="24" height="24" viewBox="0 0 24 24" fill="none" xmlns="http://www.w3.org/2000/svg">
<path d="M21.2188 11.168L18.5883 14.0859C18.4711 14.2162 18.3279 14.3204 18.1678 14.3917C18.0078 14.463 17.8346 14.4999 17.6594 14.5H12.625V19.5C12.625 19.6658 12.5592 19.8247 12.4419 19.9419C12.3247 20.0592 12.1658 20.125 12 20.125C11.8342 20.125 11.6753 20.0592 11.5581 19.9419C11.4408 19.8247 11.375 19.6658 11.375 19.5V14.5H5.125C4.79348 14.5 4.47554 14.3683 4.24112 14.1339C4.0067 13.8995 3.875 13.5815 3.875 13.25V8.25C3.875 7.91848 4.0067 7.60054 4.24112 7.36612C4.47554 7.1317 4.79348 7 5.125 7H11.375V4.5C11.375 4.33424 11.4408 4.17527 11.5581 4.05806C11.6753 3.94085 11.8342 3.875 12 3.875C12.1658 3.875 12.3247 3.94085 12.4419 4.05806C12.5592 4.17527 12.625 4.33424 12.625 4.5V7H17.6594C17.8346 7.00006 18.0078 7.03696 18.1678 7.10829C18.3279 7.17962 18.4711 7.2838 18.5883 7.41406L21.2188 10.332C21.322 10.4468 21.3791 10.5957 21.3791 10.75C21.3791 10.9043 21.322 11.0532 21.2188 11.168Z" fill="#1E1E1E"/>
</svg>
