<svg width="24" height="24" viewBox="0 0 24 24" fill="none" xmlns="http://www.w3.org/2000/svg">
<path d="M17.4 4.80005C17.2409 4.80005 17.0883 4.86326 16.9757 4.97578C16.8632 5.08831 16.8 5.24092 16.8 5.40005V10.5923L7.83225 4.9838C7.65165 4.87043 7.44403 4.80739 7.23088 4.80121C7.01774 4.79504 6.80682 4.84595 6.61995 4.94867C6.43309 5.05139 6.27709 5.2022 6.16809 5.38547C6.05909 5.56874 6.00105 5.77782 6 5.99105V18.009C6.00224 18.2218 6.06101 18.4301 6.17028 18.6127C6.27955 18.7953 6.4354 18.9455 6.62185 19.048C6.8083 19.1505 7.01864 19.2016 7.23134 19.196C7.44403 19.1904 7.65142 19.1284 7.83225 19.0163L16.8 13.4078V18.6C16.8 18.7592 16.8632 18.9118 16.9757 19.0243C17.0883 19.1368 17.2409 19.2 17.4 19.2C17.5591 19.2 17.7117 19.1368 17.8243 19.0243C17.9368 18.9118 18 18.7592 18 18.6V5.40005C18 5.24092 17.9368 5.08831 17.8243 4.97578C17.7117 4.86326 17.5591 4.80005 17.4 4.80005ZM7.2 17.9948V6.0038L16.788 12.0038L7.2 17.9948Z" fill="#1E1E1E"/>
</svg>
