<svg width="24" height="24" viewBox="0 0 24 24" fill="none" xmlns="http://www.w3.org/2000/svg">
<path d="M17.3858 4.94994C17.1983 4.84609 16.9865 4.79431 16.7724 4.79998C16.5582 4.80565 16.3494 4.86857 16.1678 4.98219L7.2 10.5922V5.39994C7.2 5.24081 7.13679 5.0882 7.02426 4.97568C6.91174 4.86316 6.75913 4.79994 6.6 4.79994C6.44087 4.79994 6.28826 4.86316 6.17574 4.97568C6.06321 5.0882 6 5.24081 6 5.39994V18.5999C6 18.7591 6.06321 18.9117 6.17574 19.0242C6.28826 19.1367 6.44087 19.1999 6.6 19.1999C6.75913 19.1999 6.91174 19.1367 7.02426 19.0242C7.13679 18.9117 7.2 18.7591 7.2 18.5999V13.4077L16.1678 19.0162C16.3484 19.1296 16.556 19.1926 16.7691 19.1988C16.9823 19.205 17.1932 19.154 17.38 19.0513C17.5669 18.9486 17.7229 18.7978 17.8319 18.6145C17.9409 18.4312 17.9989 18.2222 18 18.0089V5.99094C18 5.77837 17.943 5.56969 17.835 5.38661C17.7269 5.20353 17.5718 5.05274 17.3858 4.94994ZM16.8 17.9999L7.212 11.9999L16.8 6.00519V17.9999Z" fill="#1E1E1E"/>
</svg>
