<svg width="24" height="24" viewBox="0 0 24 24" fill="none" xmlns="http://www.w3.org/2000/svg">
<path d="M10.75 15.125H13.25L12 12.625L10.75 15.125ZM9.08329 12.8334C9.54163 12.8334 9.93399 12.6702 10.2604 12.3438C10.5868 12.0174 10.75 11.625 10.75 11.1667C10.75 10.7084 10.5868 10.316 10.2604 9.9896C9.93399 9.66321 9.54163 9.50002 9.08329 9.50002C8.62496 9.50002 8.2326 9.66321 7.90621 9.9896C7.57982 10.316 7.41663 10.7084 7.41663 11.1667C7.41663 11.625 7.57982 12.0174 7.90621 12.3438C8.2326 12.6702 8.62496 12.8334 9.08329 12.8334ZM14.9166 12.8334C15.375 12.8334 15.7673 12.6702 16.0937 12.3438C16.4201 12.0174 16.5833 11.625 16.5833 11.1667C16.5833 10.7084 16.4201 10.316 16.0937 9.9896C15.7673 9.66321 15.375 9.50002 14.9166 9.50002C14.4583 9.50002 14.0659 9.66321 13.7395 9.9896C13.4132 10.316 13.25 10.7084 13.25 11.1667C13.25 11.625 13.4132 12.0174 13.7395 12.3438C14.0659 12.6702 14.4583 12.8334 14.9166 12.8334ZM6.99996 20.3334V16.7917C6.45829 16.5556 5.9826 16.2396 5.57288 15.8438C5.16315 15.4479 4.81593 15 4.53121 14.5C4.24649 14 4.03121 13.4653 3.88538 12.8959C3.73954 12.3264 3.66663 11.75 3.66663 11.1667C3.66663 8.97224 4.4444 7.17363 5.99996 5.77085C7.55551 4.36808 9.55551 3.66669 12 3.66669C14.4444 3.66669 16.4444 4.36808 18 5.77085C19.5555 7.17363 20.3333 8.97224 20.3333 11.1667C20.3333 11.75 20.2604 12.3264 20.1145 12.8959C19.9687 13.4653 19.7534 14 19.4687 14.5C19.184 15 18.8368 15.4479 18.427 15.8438C18.0173 16.2396 17.5416 16.5556 17 16.7917V20.3334H14.5V18.6667H12.8333V20.3334H11.1666V18.6667H9.49996V20.3334H6.99996Z" fill="#1E1E1E"/>
</svg>
