<svg width="24" height="24" viewBox="0 0 24 24" fill="none" xmlns="http://www.w3.org/2000/svg">
<path d="M8.70002 12.6C8.69998 13.0522 8.55397 13.4924 8.28371 13.8549C8.01345 14.2175 7.63338 14.4831 7.20002 14.6123V18.6C7.20002 18.7592 7.13681 18.9118 7.02429 19.0243C6.91177 19.1368 6.75915 19.2 6.60002 19.2C6.44089 19.2 6.28828 19.1368 6.17576 19.0243C6.06324 18.9118 6.00002 18.7592 6.00002 18.6V14.6123C5.56681 14.483 5.18689 14.2173 4.91677 13.8547C4.64664 13.4922 4.50073 13.0522 4.50073 12.6C4.50073 12.1479 4.64664 11.7079 4.91677 11.3454C5.18689 10.9828 5.56681 10.7171 6.00002 10.5878V5.40005C6.00002 5.24092 6.06324 5.08831 6.17576 4.97578C6.28828 4.86326 6.44089 4.80005 6.60002 4.80005C6.75915 4.80005 6.91177 4.86326 7.02429 4.97578C7.13681 5.08831 7.20002 5.24092 7.20002 5.40005V10.5878C7.63338 10.717 8.01345 10.9826 8.28371 11.3452C8.55397 11.7077 8.69998 12.1478 8.70002 12.6ZM12.6 6.9878V5.40005C12.6 5.24092 12.5368 5.08831 12.4243 4.97578C12.3118 4.86326 12.1592 4.80005 12 4.80005C11.8409 4.80005 11.6883 4.86326 11.5758 4.97578C11.4632 5.08831 11.4 5.24092 11.4 5.40005V6.9878C10.9668 7.11713 10.5869 7.38281 10.3168 7.74536C10.0466 8.1079 9.90073 8.54794 9.90073 9.00005C9.90073 9.45216 10.0466 9.8922 10.3168 10.2547C10.5869 10.6173 10.9668 10.883 11.4 11.0123V18.6C11.4 18.7592 11.4632 18.9118 11.5758 19.0243C11.6883 19.1368 11.8409 19.2 12 19.2C12.1592 19.2 12.3118 19.1368 12.4243 19.0243C12.5368 18.9118 12.6 18.7592 12.6 18.6V11.0123C13.0332 10.883 13.4132 10.6173 13.6833 10.2547C13.9534 9.8922 14.0993 9.45216 14.0993 9.00005C14.0993 8.54794 13.9534 8.1079 13.6833 7.74536C13.4132 7.38281 13.0332 7.11713 12.6 6.9878ZM18 12.9878V5.40005C18 5.24092 17.9368 5.08831 17.8243 4.97578C17.7118 4.86326 17.5592 4.80005 17.4 4.80005C17.2409 4.80005 17.0883 4.86326 16.9758 4.97578C16.8632 5.08831 16.8 5.24092 16.8 5.40005V12.9878C16.3668 13.1171 15.9869 13.3828 15.7168 13.7454C15.4466 14.1079 15.3007 14.5479 15.3007 15C15.3007 15.4522 15.4466 15.8922 15.7168 16.2547C15.9869 16.6173 16.3668 16.883 16.8 17.0123V18.6C16.8 18.7592 16.8632 18.9118 16.9758 19.0243C17.0883 19.1368 17.2409 19.2 17.4 19.2C17.5592 19.2 17.7118 19.1368 17.8243 19.0243C17.9368 18.9118 18 18.7592 18 18.6V17.0123C18.4332 16.883 18.8132 16.6173 19.0833 16.2547C19.3534 15.8922 19.4993 15.4522 19.4993 15C19.4993 14.5479 19.3534 14.1079 19.0833 13.7454C18.8132 13.3828 18.4332 13.1171 18 12.9878Z" fill="#1E1E1E"/>
</svg>
