<svg width="24" height="24" viewBox="0 0 24 24" fill="none" xmlns="http://www.w3.org/2000/svg">
<path d="M5.40002 12C5.40002 11.8409 5.46324 11.6883 5.57576 11.5757C5.68828 11.4632 5.84089 11.4 6.00002 11.4H11.4C11.5592 11.4 11.7118 11.4632 11.8243 11.5757C11.9368 11.6883 12 11.8409 12 12C12 12.1591 11.9368 12.3118 11.8243 12.4243C11.7118 12.5368 11.5592 12.6 11.4 12.6H6.00002C5.84089 12.6 5.68828 12.5368 5.57576 12.4243C5.46324 12.3118 5.40002 12.1591 5.40002 12ZM6.00002 7.80001H10.2C10.3592 7.80001 10.5118 7.73679 10.6243 7.62427C10.7368 7.51175 10.8 7.35914 10.8 7.20001C10.8 7.04088 10.7368 6.88827 10.6243 6.77574C10.5118 6.66322 10.3592 6.60001 10.2 6.60001H6.00002C5.84089 6.60001 5.68828 6.66322 5.57576 6.77574C5.46324 6.88827 5.40002 7.04088 5.40002 7.20001C5.40002 7.35914 5.46324 7.51175 5.57576 7.62427C5.68828 7.73679 5.84089 7.80001 6.00002 7.80001ZM16.2 16.2H6.00002C5.84089 16.2 5.68828 16.2632 5.57576 16.3757C5.46324 16.4883 5.40002 16.6409 5.40002 16.8C5.40002 16.9591 5.46324 17.1117 5.57576 17.2243C5.68828 17.3368 5.84089 17.4 6.00002 17.4H16.2C16.3592 17.4 16.5118 17.3368 16.6243 17.2243C16.7368 17.1117 16.8 16.9591 16.8 16.8C16.8 16.6409 16.7368 16.4883 16.6243 16.3757C16.5118 16.2632 16.3592 16.2 16.2 16.2ZM19.6245 8.57551L16.6245 5.57551C16.5688 5.51972 16.5026 5.47547 16.4298 5.44527C16.357 5.41508 16.2789 5.39954 16.2 5.39954C16.1212 5.39954 16.0431 5.41508 15.9703 5.44527C15.8974 5.47547 15.8312 5.51972 15.7755 5.57551L12.7755 8.57551C12.6629 8.68809 12.5997 8.84079 12.5997 9.00001C12.5997 9.15923 12.6629 9.31192 12.7755 9.42451C12.8881 9.53709 13.0408 9.60034 13.2 9.60034C13.3592 9.60034 13.5119 9.53709 13.6245 9.42451L15.6 7.44826V13.2C15.6 13.3591 15.6632 13.5118 15.7758 13.6243C15.8883 13.7368 16.0409 13.8 16.2 13.8C16.3592 13.8 16.5118 13.7368 16.6243 13.6243C16.7368 13.5118 16.8 13.3591 16.8 13.2V7.44826L18.7755 9.42451C18.8313 9.48025 18.8975 9.52447 18.9703 9.55464C19.0431 9.58481 19.1212 9.60034 19.2 9.60034C19.2789 9.60034 19.3569 9.58481 19.4298 9.55464C19.5026 9.52447 19.5688 9.48025 19.6245 9.42451C19.6803 9.36876 19.7245 9.30258 19.7547 9.22975C19.7848 9.15691 19.8004 9.07884 19.8004 9.00001C19.8004 8.92117 19.7848 8.84311 19.7547 8.77027C19.7245 8.69743 19.6803 8.63125 19.6245 8.57551Z" fill="#1E1E1E"/>
</svg>
