<svg width="24" height="24" viewBox="0 0 24 24" fill="none" xmlns="http://www.w3.org/2000/svg">
<path d="M12 12C12 12.1591 11.9368 12.3117 11.8243 12.4242C11.7118 12.5368 11.5592 12.6 11.4 12.6H6.00002C5.84089 12.6 5.68828 12.5368 5.57576 12.4242C5.46324 12.3117 5.40002 12.1591 5.40002 12C5.40002 11.8408 5.46324 11.6882 5.57576 11.5757C5.68828 11.4632 5.84089 11.4 6.00002 11.4H11.4C11.5592 11.4 11.7118 11.4632 11.8243 11.5757C11.9368 11.6882 12 11.8408 12 12ZM6.00002 7.79998H16.2C16.3592 7.79998 16.5118 7.73676 16.6243 7.62424C16.7368 7.51172 16.8 7.35911 16.8 7.19998C16.8 7.04085 16.7368 6.88823 16.6243 6.77571C16.5118 6.66319 16.3592 6.59998 16.2 6.59998H6.00002C5.84089 6.59998 5.68828 6.66319 5.57576 6.77571C5.46324 6.88823 5.40002 7.04085 5.40002 7.19998C5.40002 7.35911 5.46324 7.51172 5.57576 7.62424C5.68828 7.73676 5.84089 7.79998 6.00002 7.79998ZM10.2 16.2H6.00002C5.84089 16.2 5.68828 16.2632 5.57576 16.3757C5.46324 16.4882 5.40002 16.6408 5.40002 16.8C5.40002 16.9591 5.46324 17.1117 5.57576 17.2242C5.68828 17.3368 5.84089 17.4 6.00002 17.4H10.2C10.3592 17.4 10.5118 17.3368 10.6243 17.2242C10.7368 17.1117 10.8 16.9591 10.8 16.8C10.8 16.6408 10.7368 16.4882 10.6243 16.3757C10.5118 16.2632 10.3592 16.2 10.2 16.2ZM19.6245 14.5755C19.5688 14.5197 19.5026 14.4754 19.4298 14.4452C19.357 14.415 19.2789 14.3995 19.2 14.3995C19.1212 14.3995 19.0431 14.415 18.9703 14.4452C18.8974 14.4754 18.8312 14.5197 18.7755 14.5755L16.8 16.5517V10.8C16.8 10.6408 16.7368 10.4882 16.6243 10.3757C16.5118 10.2632 16.3592 10.2 16.2 10.2C16.0409 10.2 15.8883 10.2632 15.7758 10.3757C15.6632 10.4882 15.6 10.6408 15.6 10.8V16.5517L13.6245 14.5755C13.5119 14.4629 13.3592 14.3996 13.2 14.3996C13.0408 14.3996 12.8881 14.4629 12.7755 14.5755C12.6629 14.6881 12.5997 14.8408 12.5997 15C12.5997 15.1592 12.6629 15.3119 12.7755 15.4245L15.7755 18.4245C15.8312 18.4803 15.8974 18.5245 15.9703 18.5547C16.0431 18.5849 16.1212 18.6004 16.2 18.6004C16.2789 18.6004 16.357 18.5849 16.4298 18.5547C16.5026 18.5245 16.5688 18.4803 16.6245 18.4245L19.6245 15.4245C19.6803 15.3688 19.7246 15.3026 19.7548 15.2297C19.785 15.1569 19.8005 15.0788 19.8005 15C19.8005 14.9211 19.785 14.843 19.7548 14.7702C19.7246 14.6974 19.6803 14.6312 19.6245 14.5755Z" fill="#1E1E1E"/>
</svg>
