<svg width="24" height="24" viewBox="0 0 24 24" fill="none" xmlns="http://www.w3.org/2000/svg">
<path d="M18.25 13.25C18.2516 13.5048 18.1742 13.7539 18.0284 13.9629C17.8826 14.1719 17.6756 14.3306 17.4359 14.4172L13.4063 15.9062L11.9219 19.9391C11.834 20.1779 11.6749 20.384 11.4662 20.5295C11.2575 20.6751 11.0092 20.7532 10.7547 20.7532C10.5002 20.7532 10.2519 20.6751 10.0432 20.5295C9.83444 20.384 9.67541 20.1779 9.5875 19.9391L8.09375 15.9062L4.06094 14.4219C3.82213 14.334 3.61604 14.1749 3.47046 13.9662C3.32488 13.7575 3.24683 13.5092 3.24683 13.2547C3.24683 13.0002 3.32488 12.7519 3.47046 12.5432C3.61604 12.3344 3.82213 12.1754 4.06094 12.0875L8.09375 10.5938L9.57813 6.56094C9.66603 6.32213 9.82507 6.11604 10.0338 5.97046C10.2425 5.82488 10.4908 5.74682 10.7453 5.74682C10.9998 5.74682 11.2481 5.82488 11.4568 5.97046C11.6656 6.11604 11.8246 6.32213 11.9125 6.56094L13.4063 10.5938L17.4391 12.0781C17.6789 12.1655 17.8858 12.3251 18.031 12.535C18.1763 12.7449 18.2528 12.9947 18.25 13.25ZM13.875 5.75H15.125V7C15.125 7.16576 15.1908 7.32473 15.3081 7.44194C15.4253 7.55915 15.5842 7.625 15.75 7.625C15.9158 7.625 16.0747 7.55915 16.1919 7.44194C16.3092 7.32473 16.375 7.16576 16.375 7V5.75H17.625C17.7908 5.75 17.9497 5.68415 18.0669 5.56694C18.1842 5.44973 18.25 5.29076 18.25 5.125C18.25 4.95924 18.1842 4.80027 18.0669 4.68306C17.9497 4.56585 17.7908 4.5 17.625 4.5H16.375V3.25C16.375 3.08424 16.3092 2.92527 16.1919 2.80806C16.0747 2.69085 15.9158 2.625 15.75 2.625C15.5842 2.625 15.4253 2.69085 15.3081 2.80806C15.1908 2.92527 15.125 3.08424 15.125 3.25V4.5H13.875C13.7092 4.5 13.5503 4.56585 13.4331 4.68306C13.3158 4.80027 13.25 4.95924 13.25 5.125C13.25 5.29076 13.3158 5.44973 13.4331 5.56694C13.5503 5.68415 13.7092 5.75 13.875 5.75ZM20.75 8.25H20.125V7.625C20.125 7.45924 20.0592 7.30027 19.9419 7.18306C19.8247 7.06585 19.6658 7 19.5 7C19.3342 7 19.1753 7.06585 19.0581 7.18306C18.9408 7.30027 18.875 7.45924 18.875 7.625V8.25H18.25C18.0842 8.25 17.9253 8.31585 17.8081 8.43306C17.6908 8.55027 17.625 8.70924 17.625 8.875C17.625 9.04076 17.6908 9.19973 17.8081 9.31694C17.9253 9.43415 18.0842 9.5 18.25 9.5H18.875V10.125C18.875 10.2908 18.9408 10.4497 19.0581 10.5669C19.1753 10.6842 19.3342 10.75 19.5 10.75C19.6658 10.75 19.8247 10.6842 19.9419 10.5669C20.0592 10.4497 20.125 10.2908 20.125 10.125V9.5H20.75C20.9158 9.5 21.0747 9.43415 21.1919 9.31694C21.3092 9.19973 21.375 9.04076 21.375 8.875C21.375 8.70924 21.3092 8.55027 21.1919 8.43306C21.0747 8.31585 20.9158 8.25 20.75 8.25Z" fill="#1E1E1E"/>
</svg>
