<svg width="24" height="24" viewBox="0 0 24 24" fill="none" xmlns="http://www.w3.org/2000/svg">
<path d="M18.25 4.5H5.75C5.41848 4.5 5.10054 4.6317 4.86612 4.86612C4.6317 5.10054 4.5 5.41848 4.5 5.75V18.25C4.5 18.5815 4.6317 18.8995 4.86612 19.1339C5.10054 19.3683 5.41848 19.5 5.75 19.5H18.25C18.5815 19.5 18.8995 19.3683 19.1339 19.1339C19.3683 18.8995 19.5 18.5815 19.5 18.25V5.75C19.5 5.41848 19.3683 5.10054 19.1339 4.86612C18.8995 4.6317 18.5815 4.5 18.25 4.5ZM18.25 18.25H5.75V5.75H18.25V18.25ZM15.125 9.5V14.5C15.125 14.6658 15.0592 14.8247 14.9419 14.9419C14.8247 15.0592 14.6658 15.125 14.5 15.125H9.5C9.33424 15.125 9.17527 15.0592 9.05806 14.9419C8.94085 14.8247 8.875 14.6658 8.875 14.5V9.5C8.875 9.33424 8.94085 9.17527 9.05806 9.05806C9.17527 8.94085 9.33424 8.875 9.5 8.875H14.5C14.6658 8.875 14.8247 8.94085 14.9419 9.05806C15.0592 9.17527 15.125 9.33424 15.125 9.5Z" fill="#1E1E1E"/>
</svg>
