<svg width="24" height="24" viewBox="0 0 24 24" fill="none" xmlns="http://www.w3.org/2000/svg">
<path d="M10.125 5.125C10.125 4.95924 10.1908 4.80027 10.3081 4.68306C10.4253 4.56585 10.5842 4.5 10.75 4.5H13.25C13.4158 4.5 13.5747 4.56585 13.6919 4.68306C13.8092 4.80027 13.875 4.95924 13.875 5.125C13.875 5.29076 13.8092 5.44973 13.6919 5.56694C13.5747 5.68415 13.4158 5.75 13.25 5.75H10.75C10.5842 5.75 10.4253 5.68415 10.3081 5.56694C10.1908 5.44973 10.125 5.29076 10.125 5.125ZM13.25 18.25H10.75C10.5842 18.25 10.4253 18.3158 10.3081 18.4331C10.1908 18.5503 10.125 18.7092 10.125 18.875C10.125 19.0408 10.1908 19.1997 10.3081 19.3169C10.4253 19.4342 10.5842 19.5 10.75 19.5H13.25C13.4158 19.5 13.5747 19.4342 13.6919 19.3169C13.8092 19.1997 13.875 19.0408 13.875 18.875C13.875 18.7092 13.8092 18.5503 13.6919 18.4331C13.5747 18.3158 13.4158 18.25 13.25 18.25ZM18.25 4.5H16.375C16.2092 4.5 16.0503 4.56585 15.9331 4.68306C15.8158 4.80027 15.75 4.95924 15.75 5.125C15.75 5.29076 15.8158 5.44973 15.9331 5.56694C16.0503 5.68415 16.2092 5.75 16.375 5.75H18.25V7.625C18.25 7.79076 18.3158 7.94973 18.4331 8.06694C18.5503 8.18415 18.7092 8.25 18.875 8.25C19.0408 8.25 19.1997 8.18415 19.3169 8.06694C19.4342 7.94973 19.5 7.79076 19.5 7.625V5.75C19.5 5.41848 19.3683 5.10054 19.1339 4.86612C18.8995 4.6317 18.5815 4.5 18.25 4.5ZM18.875 10.125C18.7092 10.125 18.5503 10.1908 18.4331 10.3081C18.3158 10.4253 18.25 10.5842 18.25 10.75V13.25C18.25 13.4158 18.3158 13.5747 18.4331 13.6919C18.5503 13.8092 18.7092 13.875 18.875 13.875C19.0408 13.875 19.1997 13.8092 19.3169 13.6919C19.4342 13.5747 19.5 13.4158 19.5 13.25V10.75C19.5 10.5842 19.4342 10.4253 19.3169 10.3081C19.1997 10.1908 19.0408 10.125 18.875 10.125ZM18.875 15.75C18.7092 15.75 18.5503 15.8158 18.4331 15.9331C18.3158 16.0503 18.25 16.2092 18.25 16.375V18.25H16.375C16.2092 18.25 16.0503 18.3158 15.9331 18.4331C15.8158 18.5503 15.75 18.7092 15.75 18.875C15.75 19.0408 15.8158 19.1997 15.9331 19.3169C16.0503 19.4342 16.2092 19.5 16.375 19.5H18.25C18.5815 19.5 18.8995 19.3683 19.1339 19.1339C19.3683 18.8995 19.5 18.5815 19.5 18.25V16.375C19.5 16.2092 19.4342 16.0503 19.3169 15.9331C19.1997 15.8158 19.0408 15.75 18.875 15.75ZM5.125 13.875C5.29076 13.875 5.44973 13.8092 5.56694 13.6919C5.68415 13.5747 5.75 13.4158 5.75 13.25V10.75C5.75 10.5842 5.68415 10.4253 5.56694 10.3081C5.44973 10.1908 5.29076 10.125 5.125 10.125C4.95924 10.125 4.80027 10.1908 4.68306 10.3081C4.56585 10.4253 4.5 10.5842 4.5 10.75V13.25C4.5 13.4158 4.56585 13.5747 4.68306 13.6919C4.80027 13.8092 4.95924 13.875 5.125 13.875ZM7.625 18.25H5.75V16.375C5.75 16.2092 5.68415 16.0503 5.56694 15.9331C5.44973 15.8158 5.29076 15.75 5.125 15.75C4.95924 15.75 4.80027 15.8158 4.68306 15.9331C4.56585 16.0503 4.5 16.2092 4.5 16.375V18.25C4.5 18.5815 4.6317 18.8995 4.86612 19.1339C5.10054 19.3683 5.41848 19.5 5.75 19.5H7.625C7.79076 19.5 7.94973 19.4342 8.06694 19.3169C8.18415 19.1997 8.25 19.0408 8.25 18.875C8.25 18.7092 8.18415 18.5503 8.06694 18.4331C7.94973 18.3158 7.79076 18.25 7.625 18.25ZM5.125 8.25C5.29076 8.25 5.44973 8.18415 5.56694 8.06694C5.68415 7.94973 5.75 7.79076 5.75 7.625V5.75H7.625C7.79076 5.75 7.94973 5.68415 8.06694 5.56694C8.18415 5.44973 8.25 5.29076 8.25 5.125C8.25 4.95924 8.18415 4.80027 8.06694 4.68306C7.94973 4.56585 7.79076 4.5 7.625 4.5H5.75C5.41848 4.5 5.10054 4.6317 4.86612 4.86612C4.6317 5.10054 4.5 5.41848 4.5 5.75V7.625C4.5 7.79076 4.56585 7.94973 4.68306 8.06694C4.80027 8.18415 4.95924 8.25 5.125 8.25ZM16.375 15.75V8.25C16.375 8.08424 16.3092 7.92527 16.1919 7.80806C16.0747 7.69085 15.9158 7.625 15.75 7.625H8.25C8.08424 7.625 7.92527 7.69085 7.80806 7.80806C7.69085 7.92527 7.625 8.08424 7.625 8.25V15.75C7.625 15.9158 7.69085 16.0747 7.80806 16.1919C7.92527 16.3092 8.08424 16.375 8.25 16.375H15.75C15.9158 16.375 16.0747 16.3092 16.1919 16.1919C16.3092 16.0747 16.375 15.9158 16.375 15.75Z" fill="#1E1E1E"/>
</svg>
