<svg width="24" height="24" viewBox="0 0 24 24" fill="none" xmlns="http://www.w3.org/2000/svg">
<path d="M10.2 5.40002H6.60002C6.28176 5.40002 5.97654 5.52645 5.7515 5.7515C5.52645 5.97654 5.40002 6.28176 5.40002 6.60002V10.2C5.40002 10.5183 5.52645 10.8235 5.7515 11.0486C5.97654 11.2736 6.28176 11.4 6.60002 11.4H10.2C10.5183 11.4 10.8235 11.2736 11.0486 11.0486C11.2736 10.8235 11.4 10.5183 11.4 10.2V6.60002C11.4 6.28176 11.2736 5.97654 11.0486 5.7515C10.8235 5.52645 10.5183 5.40002 10.2 5.40002ZM10.2 10.2H6.60002V6.60002H10.2V10.2ZM17.4 5.40002H13.8C13.4818 5.40002 13.1765 5.52645 12.9515 5.7515C12.7265 5.97654 12.6 6.28176 12.6 6.60002V10.2C12.6 10.5183 12.7265 10.8235 12.9515 11.0486C13.1765 11.2736 13.4818 11.4 13.8 11.4H17.4C17.7183 11.4 18.0235 11.2736 18.2486 11.0486C18.4736 10.8235 18.6 10.5183 18.6 10.2V6.60002C18.6 6.28176 18.4736 5.97654 18.2486 5.7515C18.0235 5.52645 17.7183 5.40002 17.4 5.40002ZM17.4 10.2H13.8V6.60002H17.4V10.2ZM10.2 12.6H6.60002C6.28176 12.6 5.97654 12.7265 5.7515 12.9515C5.52645 13.1765 5.40002 13.4818 5.40002 13.8V17.4C5.40002 17.7183 5.52645 18.0235 5.7515 18.2486C5.97654 18.4736 6.28176 18.6 6.60002 18.6H10.2C10.5183 18.6 10.8235 18.4736 11.0486 18.2486C11.2736 18.0235 11.4 17.7183 11.4 17.4V13.8C11.4 13.4818 11.2736 13.1765 11.0486 12.9515C10.8235 12.7265 10.5183 12.6 10.2 12.6ZM10.2 17.4H6.60002V13.8H10.2V17.4ZM17.4 12.6H13.8C13.4818 12.6 13.1765 12.7265 12.9515 12.9515C12.7265 13.1765 12.6 13.4818 12.6 13.8V17.4C12.6 17.7183 12.7265 18.0235 12.9515 18.2486C13.1765 18.4736 13.4818 18.6 13.8 18.6H17.4C17.7183 18.6 18.0235 18.4736 18.2486 18.2486C18.4736 18.0235 18.6 17.7183 18.6 17.4V13.8C18.6 13.4818 18.4736 13.1765 18.2486 12.9515C18.0235 12.7265 17.7183 12.6 17.4 12.6ZM17.4 17.4H13.8V13.8H17.4V17.4Z" fill="#1E1E1E"/>
</svg>
