<svg width="24" height="24" viewBox="0 0 24 24" fill="none" xmlns="http://www.w3.org/2000/svg">
<path d="M17.4 5.40002H6.60002C6.28176 5.40002 5.97654 5.52645 5.7515 5.7515C5.52645 5.97654 5.40002 6.28176 5.40002 6.60002V17.4C5.40002 17.7183 5.52645 18.0235 5.7515 18.2486C5.97654 18.4736 6.28176 18.6 6.60002 18.6H17.4C17.7183 18.6 18.0235 18.4736 18.2486 18.2486C18.4736 18.0235 18.6 17.7183 18.6 17.4V6.60002C18.6 6.28176 18.4736 5.97654 18.2486 5.7515C18.0235 5.52645 17.7183 5.40002 17.4 5.40002ZM17.4 6.60002V11.4H6.60002V6.60002H17.4ZM17.4 17.4H6.60002V12.6H17.4V17.4Z" fill="#1E1E1E"/>
</svg>
