<svg width="24" height="24" viewBox="0 0 24 24" fill="none" xmlns="http://www.w3.org/2000/svg">
<path fill-rule="evenodd" clip-rule="evenodd" d="M18.1733 13.1533C17.8433 12.8233 17.4533 12.6633 16.9933 12.6633H12.7933C13.1233 9.33333 15.4933 9.12333 15.4933 6.16333C15.4933 4.23333 13.9233 2.66333 11.9933 2.66333C10.0633 2.66333 8.49325 4.23333 8.49325 6.16333C8.49325 9.12333 10.8733 9.33333 11.1933 12.6633H7.00325C6.54325 12.6633 6.15325 12.8233 5.82325 13.1533C5.49325 13.4833 5.33325 13.8733 5.33325 14.3333V19.3333H18.6633V14.3333C18.6633 13.8733 18.5033 13.4833 18.1733 13.1533ZM17.0033 15.9933H7.00325V14.3233H17.0033V15.9933Z" fill="#1E1E1E"/>
</svg>
