<svg width="24" height="24" viewBox="0 0 24 24" fill="none" xmlns="http://www.w3.org/2000/svg">
<path fill-rule="evenodd" clip-rule="evenodd" d="M11.9901 3.6001C11.7501 3.6001 11.5101 3.6701 11.3101 3.8101C11.1101 3.9501 10.9501 4.1401 10.8601 4.3601L9.15006 8.4901L4.73006 8.8501C4.49006 8.8701 4.26006 8.9601 4.07006 9.1101C3.88006 9.2601 3.74006 9.4601 3.66006 9.7001C3.59006 9.9301 3.58006 10.1801 3.65006 10.4101C3.72006 10.6401 3.85006 10.8501 4.03006 11.0101L7.41006 13.9201L6.38006 18.2801C6.32006 18.5201 6.34006 18.7601 6.42006 18.9901C6.50006 19.2201 6.65006 19.4201 6.85006 19.5601C7.05006 19.7001 7.28006 19.7801 7.52006 19.7901C7.54006 19.7901 7.55006 19.7901 7.57006 19.7901C7.80006 19.7901 8.02006 19.7301 8.21006 19.6101L12.0001 17.2801L15.7901 19.6101C15.9801 19.7301 16.2101 19.7901 16.4301 19.7901C16.4501 19.7901 16.4601 19.7901 16.4801 19.7901C16.7201 19.7901 16.9601 19.7001 17.1501 19.5601C17.3501 19.4201 17.5001 19.2201 17.5801 18.9901C17.6601 18.7601 17.6801 18.5101 17.6201 18.2801L16.5901 13.9201L19.9701 11.0101C20.1501 10.8501 20.2901 10.6401 20.3501 10.4101C20.4201 10.1801 20.4101 9.9301 20.3401 9.7001C20.2601 9.4701 20.1201 9.2701 19.9301 9.1101C19.7401 8.9601 19.5101 8.8701 19.2701 8.8501L14.8501 8.4901L13.1401 4.3601C13.0501 4.1301 12.8901 3.9401 12.6901 3.8101C12.4901 3.6701 12.2501 3.6001 12.0101 3.6001H11.9901ZM11.9901 5.9801L13.2901 9.1301C13.5301 9.7101 14.0701 10.1001 14.7001 10.1501L18.0901 10.4201L15.5001 12.6601C15.0301 13.0701 14.8201 13.7001 14.9701 14.3001L15.7601 17.6401L12.8701 15.8601C12.6001 15.7001 12.3001 15.6101 12.0001 15.6101C11.7001 15.6101 11.3901 15.6901 11.1301 15.8601L8.24006 17.6401L9.03006 14.3101C9.17006 13.7001 8.97006 13.0701 8.50006 12.6601L5.91006 10.4201L9.30006 10.1501C9.92006 10.1001 10.4701 9.7001 10.7101 9.1301L12.0101 5.9801" fill="#1E1E1E"/>
</svg>
