<svg width="24" height="24" viewBox="0 0 24 24" fill="none" xmlns="http://www.w3.org/2000/svg">
<path d="M19.9718 11.0137L16.5968 13.926L17.625 18.2812C17.6817 18.5177 17.6671 18.7656 17.583 18.9937C17.4989 19.2218 17.3491 19.4199 17.1525 19.5629C16.9558 19.706 16.7212 19.7875 16.4783 19.7972C16.2353 19.807 15.995 19.7445 15.7875 19.6177L12 17.2867L8.21025 19.6177C8.00282 19.7438 7.76273 19.8057 7.52021 19.7956C7.27768 19.7855 7.04357 19.7038 6.84735 19.5609C6.65114 19.418 6.50158 19.2203 6.41753 18.9925C6.33348 18.7648 6.31868 18.5173 6.375 18.2812L7.407 13.926L4.032 11.0137C3.84848 10.8551 3.71575 10.6459 3.65039 10.4123C3.58503 10.1787 3.58994 9.93105 3.66451 9.70023C3.73908 9.4694 3.88 9.26566 4.06967 9.11444C4.25935 8.96323 4.48936 8.87124 4.731 8.84998L9.156 8.49298L10.863 4.36198C10.9554 4.13684 11.1127 3.94426 11.3148 3.80873C11.5169 3.6732 11.7548 3.60083 11.9981 3.60083C12.2415 3.60083 12.4793 3.6732 12.6815 3.80873C12.8836 3.94426 13.0409 4.13684 13.1333 4.36198L14.8395 8.49298L19.2645 8.84998C19.5066 8.87045 19.7373 8.96192 19.9277 9.11293C20.118 9.26394 20.2596 9.46776 20.3346 9.69887C20.4097 9.92997 20.4148 10.1781 20.3495 10.4121C20.2841 10.6461 20.1512 10.8557 19.9673 11.0145L19.9718 11.0137Z" fill="#1E1E1E"/>
</svg>
