<svg width="24" height="24" viewBox="0 0 24 24" fill="none" xmlns="http://www.w3.org/2000/svg">
<path d="M20.3385 9.69449C20.2635 9.46389 20.1219 9.26064 19.9316 9.11036C19.7412 8.96008 19.5107 8.86949 19.269 8.84999L14.844 8.49299L13.1355 4.36124C13.0431 4.13611 12.8858 3.94353 12.6837 3.808C12.4816 3.67246 12.2437 3.6001 12.0004 3.6001C11.757 3.6001 11.5191 3.67246 11.317 3.808C11.1149 3.94353 10.9576 4.13611 10.8652 4.36124L9.15824 8.49224L4.73099 8.84999C4.48887 8.87047 4.25818 8.96194 4.06782 9.11295C3.87746 9.26395 3.73589 9.46778 3.66086 9.69889C3.58583 9.92999 3.58066 10.1781 3.64601 10.4121C3.71137 10.6462 3.84433 10.8557 4.02824 11.0145L7.40324 13.9267L6.37499 18.2812C6.31748 18.5178 6.33156 18.7661 6.41544 18.9947C6.49932 19.2232 6.64922 19.4217 6.84611 19.5649C7.043 19.7081 7.27799 19.7896 7.52127 19.799C7.76455 19.8084 8.00513 19.7453 8.21249 19.6177L12 17.2867L15.7897 19.6177C15.9972 19.7438 16.2373 19.8057 16.4798 19.7956C16.7223 19.7855 16.9564 19.7038 17.1526 19.5609C17.3489 19.418 17.4984 19.2203 17.5825 18.9926C17.6665 18.7648 17.6813 18.5174 17.625 18.2812L16.593 13.926L19.968 11.0137C20.1534 10.8552 20.2876 10.6452 20.3535 10.4104C20.4195 10.1755 20.4142 9.92637 20.3385 9.69449ZM19.188 10.1047L15.5355 13.2547C15.4522 13.3265 15.3902 13.4198 15.3564 13.5245C15.3225 13.6291 15.3181 13.741 15.3435 13.848L16.4595 18.558C16.4624 18.5645 16.4627 18.5718 16.4603 18.5785C16.4579 18.5852 16.4531 18.5908 16.4467 18.594C16.4332 18.6045 16.4295 18.6022 16.4182 18.594L12.3142 16.0702C12.2197 16.0121 12.1109 15.9814 12 15.9814C11.889 15.9814 11.7803 16.0121 11.6857 16.0702L7.58174 18.5955C7.57049 18.6022 7.56749 18.6045 7.55324 18.5955C7.54691 18.5923 7.54206 18.5867 7.53969 18.58C7.53731 18.5733 7.5376 18.566 7.54049 18.5595L8.65649 13.8495C8.68192 13.7425 8.67747 13.6306 8.64361 13.526C8.60975 13.4213 8.54778 13.328 8.46449 13.2562L4.81199 10.1062C4.80299 10.0987 4.79474 10.092 4.80224 10.0687C4.80974 10.0455 4.81574 10.0485 4.82699 10.047L9.62099 9.65999C9.73095 9.65056 9.83617 9.61099 9.92509 9.54562C10.014 9.48025 10.0832 9.39163 10.125 9.28949L11.9715 4.81874C11.9775 4.80599 11.9797 4.79999 11.9977 4.79999C12.0157 4.79999 12.018 4.80599 12.024 4.81874L13.875 9.28949C13.9172 9.39167 13.9868 9.4802 14.0761 9.54531C14.1655 9.61042 14.2711 9.64959 14.3812 9.65849L19.1752 10.0455C19.1865 10.0455 19.1932 10.0455 19.2 10.0672C19.2067 10.089 19.2 10.0972 19.188 10.1047Z" fill="#1E1E1E"/>
</svg>
