<svg width="24" height="24" viewBox="0 0 24 24" fill="none" xmlns="http://www.w3.org/2000/svg">
<path d="M17.8334 14.5C17.125 14.5 16.5313 14.2604 16.0521 13.7812C15.5729 13.3021 15.3334 12.7083 15.3334 12C15.3334 11.2916 15.5729 10.6979 16.0521 10.2187C16.5313 9.73956 17.125 9.49998 17.8334 9.49998C18.5417 9.49998 19.1354 9.73956 19.6146 10.2187C20.0938 10.6979 20.3334 11.2916 20.3334 12C20.3334 12.7083 20.0938 13.3021 19.6146 13.7812C19.1354 14.2604 18.5417 14.5 17.8334 14.5ZM9.50002 16.1666L8.33335 14.9791L10.4792 12.8333H3.66669V11.1666H10.4792L8.33335 8.99998L9.50002 7.83331L13.6667 12L9.50002 16.1666Z" fill="#1E1E1E"/>
</svg>
