<svg width="24" height="24" viewBox="0 0 24 24" fill="none" xmlns="http://www.w3.org/2000/svg">
<path d="M12.3301 7.45996C13.0801 7.45996 13.7305 7.72954 14.2705 8.26953C14.8105 8.80952 15.0801 9.45997 15.0801 10.21C15.0801 10.96 14.8105 11.6104 14.2705 12.1504C13.7305 12.6904 13.0801 12.96 12.3301 12.96C11.5801 12.96 10.9296 12.6904 10.3896 12.1504C9.84966 11.6104 9.58008 10.96 9.58008 10.21C9.58009 9.45997 9.84966 8.80952 10.3896 8.26953C10.9296 7.72954 11.5701 7.45996 12.3301 7.45996Z" fill="#1E1E1E"/>
<path fill-rule="evenodd" clip-rule="evenodd" d="M19 5C19.46 5 19.8497 5.16026 20.1797 5.49023C20.5097 5.82022 20.6699 6.20996 20.6699 6.66992V16.6699C20.6699 17.1299 20.5097 17.5196 20.1797 17.8496C19.8497 18.1796 19.46 18.3398 19 18.3398H5.66992C5.20996 18.3398 4.82022 18.1796 4.49023 17.8496C4.16029 17.5196 4 17.1299 4 16.6699V6.66992C4.00002 6.20996 4.16025 5.82022 4.49023 5.49023C4.82022 5.16025 5.20996 5.00002 5.66992 5H19ZM5.67969 6.5C5.61997 6.5 5.60948 6.49989 5.55957 6.5498C5.50971 6.59968 5.50977 6.61004 5.50977 6.66992V16.6699C5.50977 16.7298 5.50977 16.7402 5.55957 16.79C5.60948 16.84 5.61997 16.8398 5.67969 16.8398H6.57031C6.57034 16.44 6.67999 16.0701 6.87988 15.7402C7.08982 15.3903 7.36986 15.1302 7.71973 14.9502C8.45973 14.5802 9.22023 14.3004 9.99023 14.1104C10.7601 13.9204 11.5399 13.8301 12.3398 13.8301C13.1398 13.8301 13.9204 13.9204 14.6904 14.1104C15.4603 14.3003 16.2101 14.5803 16.96 14.9502C17.3099 15.1402 17.5898 15.4003 17.7998 15.7402C17.9997 16.0802 18.1103 16.4399 18.1104 16.8398H19C19.06 16.8398 19.0701 16.84 19.1201 16.79C19.1701 16.7401 19.1699 16.7299 19.1699 16.6699H19.1797V6.66992C19.1797 6.60999 19.1799 6.59978 19.1299 6.5498C19.08 6.49996 19.0697 6.5 19.0098 6.5H5.67969Z" fill="#1E1E1E"/>
</svg>
