<svg width="24" height="24" viewBox="0 0 24 24" fill="none" xmlns="http://www.w3.org/2000/svg">
<path d="M10.4375 16.6875C10.4375 17.182 10.2909 17.6653 10.0162 18.0764C9.74145 18.4875 9.35101 18.808 8.89419 18.9972C8.43737 19.1864 7.93471 19.2359 7.44976 19.1395C6.9648 19.043 6.51935 18.8049 6.16971 18.4553C5.82008 18.1056 5.58198 17.6602 5.48552 17.1752C5.38906 16.6903 5.43856 16.1876 5.62778 15.7308C5.817 15.274 6.13743 14.8835 6.54856 14.6088C6.95968 14.3341 7.44303 14.1875 7.93748 14.1875C8.60052 14.1875 9.23641 14.4509 9.70525 14.9197C10.1741 15.3886 10.4375 16.0245 10.4375 16.6875ZM6.19217 11.1922L7.31248 10.0711L8.43279 11.1922C8.55007 11.3095 8.70913 11.3753 8.87498 11.3753C9.04083 11.3753 9.19989 11.3095 9.31717 11.1922C9.43444 11.0749 9.50033 10.9159 9.50033 10.75C9.50033 10.5841 9.43444 10.4251 9.31717 10.3078L8.19607 9.1875L9.31717 8.06719C9.43444 7.94991 9.50033 7.79085 9.50033 7.625C9.50033 7.45915 9.43444 7.30009 9.31717 7.18281C9.19989 7.06554 9.04083 6.99965 8.87498 6.99965C8.70913 6.99965 8.55007 7.06554 8.43279 7.18281L7.31248 8.30391L6.19217 7.18281C6.07489 7.06554 5.91583 6.99965 5.74998 6.99965C5.58413 6.99965 5.42507 7.06554 5.30779 7.18281C5.19052 7.30009 5.12463 7.45915 5.12463 7.625C5.12463 7.79085 5.19052 7.94991 5.30779 8.06719L6.42889 9.1875L5.30779 10.3078C5.19052 10.4251 5.12463 10.5841 5.12463 10.75C5.12463 10.9159 5.19052 11.0749 5.30779 11.1922C5.42507 11.3095 5.58413 11.3753 5.74998 11.3753C5.91583 11.3753 6.07489 11.3095 6.19217 11.1922ZM18.8211 16.6875L19.9422 15.5672C20.0594 15.4499 20.1253 15.2909 20.1253 15.125C20.1253 14.9591 20.0594 14.8001 19.9422 14.6828C19.8249 14.5655 19.6658 14.4997 19.5 14.4997C19.3341 14.4997 19.1751 14.5655 19.0578 14.6828L17.9375 15.8039L16.8172 14.6828C16.6999 14.5655 16.5408 14.4997 16.375 14.4997C16.2091 14.4997 16.0501 14.5655 15.9328 14.6828C15.8155 14.8001 15.7496 14.9591 15.7496 15.125C15.7496 15.2909 15.8155 15.4499 15.9328 15.5672L17.0539 16.6875L15.9328 17.8078C15.8155 17.9251 15.7496 18.0841 15.7496 18.25C15.7496 18.4159 15.8155 18.5749 15.9328 18.6922C16.0501 18.8095 16.2091 18.8753 16.375 18.8753C16.5408 18.8753 16.6999 18.8095 16.8172 18.6922L17.9375 17.5711L19.0578 18.6922C19.1159 18.7503 19.1848 18.7963 19.2607 18.8277C19.3365 18.8592 19.4179 18.8753 19.5 18.8753C19.5821 18.8753 19.6634 18.8592 19.7393 18.8277C19.8152 18.7963 19.8841 18.7503 19.9422 18.6922C20.0002 18.6341 20.0463 18.5652 20.0777 18.4893C20.1092 18.4134 20.1253 18.3321 20.1253 18.25C20.1253 18.1679 20.1092 18.0866 20.0777 18.0107C20.0463 17.9348 20.0002 17.8659 19.9422 17.8078L18.8211 16.6875ZM14.9422 5.93281L14.7586 5.75H16.375C16.5407 5.75 16.6997 5.68415 16.8169 5.56694C16.9341 5.44973 17 5.29076 17 5.125C17 4.95924 16.9341 4.80027 16.8169 4.68306C16.6997 4.56585 16.5407 4.5 16.375 4.5H13.25C13.0842 4.5 12.9252 4.56585 12.808 4.68306C12.6908 4.80027 12.625 4.95924 12.625 5.125V8.25C12.625 8.41576 12.6908 8.57473 12.808 8.69194C12.9252 8.80915 13.0842 8.875 13.25 8.875C13.4157 8.875 13.5747 8.80915 13.6919 8.69194C13.8091 8.57473 13.875 8.41576 13.875 8.25V6.63359L14.0578 6.81719C15.4586 8.21797 15.4562 9.58281 15.207 10.4813C14.8445 11.7914 13.6945 12.9633 12.4726 13.2688C12.3247 13.3058 12.1954 13.3957 12.1091 13.5216C12.0229 13.6474 11.9856 13.8004 12.0043 13.9517C12.023 14.1031 12.0965 14.2424 12.2108 14.3434C12.3251 14.4444 12.4724 14.5001 12.625 14.5C12.6763 14.4999 12.7275 14.4936 12.7773 14.4813C14.4344 14.0672 15.9297 12.5594 16.4125 10.8148C16.889 9.09219 16.3672 7.35859 14.9422 5.93281Z" fill="#1E1E1E"/>
</svg>
