<svg width="24" height="24" viewBox="0 0 24 24" fill="none" xmlns="http://www.w3.org/2000/svg">
<path d="M10.8333 15.8333L16.7083 9.95829L15.5416 8.79163L10.8333 13.5L8.45829 11.125L7.29163 12.2916L10.8333 15.8333ZM12 20.3333C10.8472 20.3333 9.76385 20.1145 8.74996 19.677C7.73607 19.2395 6.85413 18.6458 6.10413 17.8958C5.35413 17.1458 4.76038 16.2638 4.32288 15.25C3.88538 14.2361 3.66663 13.1527 3.66663 12C3.66663 10.8472 3.88538 9.76385 4.32288 8.74996C4.76038 7.73607 5.35413 6.85413 6.10413 6.10413C6.85413 5.35413 7.73607 4.76038 8.74996 4.32288C9.76385 3.88538 10.8472 3.66663 12 3.66663C13.1527 3.66663 14.2361 3.88538 15.25 4.32288C16.2638 4.76038 17.1458 5.35413 17.8958 6.10413C18.6458 6.85413 19.2395 7.73607 19.677 8.74996C20.1145 9.76385 20.3333 10.8472 20.3333 12C20.3333 13.1527 20.1145 14.2361 19.677 15.25C19.2395 16.2638 18.6458 17.1458 17.8958 17.8958C17.1458 18.6458 16.2638 19.2395 15.25 19.677C14.2361 20.1145 13.1527 20.3333 12 20.3333Z" fill="#1E1E1E"/>
</svg>
