<svg width="24" height="24" viewBox="0 0 24 24" fill="none" xmlns="http://www.w3.org/2000/svg">
<path d="M11.4 5.4V3.6C11.4 3.44087 11.4632 3.28826 11.5757 3.17574C11.6883 3.06321 11.8409 3 12 3C12.1591 3 12.3117 3.06321 12.4243 3.17574C12.5368 3.28826 12.6 3.44087 12.6 3.6V5.4C12.6 5.55913 12.5368 5.71174 12.4243 5.82426C12.3117 5.93679 12.1591 6 12 6C11.8409 6 11.6883 5.93679 11.5757 5.82426C11.4632 5.71174 11.4 5.55913 11.4 5.4ZM12 7.2C11.0507 7.2 10.1226 7.48152 9.33326 8.00895C8.54391 8.53638 7.92868 9.28603 7.56538 10.1631C7.20208 11.0402 7.10702 12.0053 7.29223 12.9364C7.47744 13.8675 7.9346 14.7228 8.60589 15.3941C9.27718 16.0654 10.1325 16.5226 11.0636 16.7078C11.9947 16.893 12.9598 16.7979 13.8369 16.4346C14.714 16.0713 15.4636 15.4561 15.9911 14.6667C16.5185 13.8774 16.8 12.9494 16.8 12C16.7986 10.7274 16.2925 9.5073 15.3926 8.60742C14.4927 7.70755 13.2726 7.20139 12 7.2ZM6.7755 7.6245C6.88808 7.73708 7.04078 7.80033 7.2 7.80033C7.35922 7.80033 7.51192 7.73708 7.6245 7.6245C7.73708 7.51192 7.80033 7.35922 7.80033 7.2C7.80033 7.04078 7.73708 6.88808 7.6245 6.7755L6.4245 5.5755C6.31192 5.46292 6.15922 5.39967 6 5.39967C5.84078 5.39967 5.68808 5.46292 5.5755 5.5755C5.46292 5.68808 5.39967 5.84078 5.39967 6C5.39967 6.15922 5.46292 6.31192 5.5755 6.4245L6.7755 7.6245ZM6.7755 16.3755L5.5755 17.5755C5.46292 17.6881 5.39967 17.8408 5.39967 18C5.39967 18.1592 5.46292 18.3119 5.5755 18.4245C5.68808 18.5371 5.84078 18.6003 6 18.6003C6.15922 18.6003 6.31192 18.5371 6.4245 18.4245L7.6245 17.2245C7.68025 17.1688 7.72447 17.1026 7.75464 17.0297C7.78481 16.9569 7.80033 16.8788 7.80033 16.8C7.80033 16.7212 7.78481 16.6431 7.75464 16.5703C7.72447 16.4974 7.68025 16.4312 7.6245 16.3755C7.56875 16.3198 7.50257 16.2755 7.42974 16.2454C7.3569 16.2152 7.27884 16.1997 7.2 16.1997C7.12116 16.1997 7.0431 16.2152 6.97026 16.2454C6.89743 16.2755 6.83125 16.3198 6.7755 16.3755ZM16.8 7.8C16.8788 7.80006 16.9569 7.78459 17.0297 7.75448C17.1025 7.72437 17.1687 7.6802 17.2245 7.6245L18.4245 6.4245C18.5371 6.31192 18.6003 6.15922 18.6003 6C18.6003 5.84078 18.5371 5.68808 18.4245 5.5755C18.3119 5.46292 18.1592 5.39967 18 5.39967C17.8408 5.39967 17.6881 5.46292 17.5755 5.5755L16.3755 6.7755C16.2915 6.85941 16.2343 6.96637 16.2111 7.08282C16.1879 7.19927 16.1998 7.31998 16.2452 7.42967C16.2907 7.53937 16.3677 7.63311 16.4664 7.69903C16.5652 7.76495 16.6813 7.80009 16.8 7.8ZM17.2245 16.3755C17.1119 16.2629 16.9592 16.1997 16.8 16.1997C16.6408 16.1997 16.4881 16.2629 16.3755 16.3755C16.2629 16.4881 16.1997 16.6408 16.1997 16.8C16.1997 16.9592 16.2629 17.1119 16.3755 17.2245L17.5755 18.4245C17.6312 18.4802 17.6974 18.5245 17.7703 18.5546C17.8431 18.5848 17.9212 18.6003 18 18.6003C18.0788 18.6003 18.1569 18.5848 18.2297 18.5546C18.3026 18.5245 18.3688 18.4802 18.4245 18.4245C18.4802 18.3688 18.5245 18.3026 18.5546 18.2297C18.5848 18.1569 18.6003 18.0788 18.6003 18C18.6003 17.9212 18.5848 17.8431 18.5546 17.7703C18.5245 17.6974 18.4802 17.6312 18.4245 17.5755L17.2245 16.3755ZM6 12C6 11.8409 5.93679 11.6883 5.82426 11.5757C5.71174 11.4632 5.55913 11.4 5.4 11.4H3.6C3.44087 11.4 3.28826 11.4632 3.17574 11.5757C3.06321 11.6883 3 11.8409 3 12C3 12.1591 3.06321 12.3117 3.17574 12.4243C3.28826 12.5368 3.44087 12.6 3.6 12.6H5.4C5.55913 12.6 5.71174 12.5368 5.82426 12.4243C5.93679 12.3117 6 12.1591 6 12ZM12 18C11.8409 18 11.6883 18.0632 11.5757 18.1757C11.4632 18.2883 11.4 18.4409 11.4 18.6V20.4C11.4 20.5591 11.4632 20.7117 11.5757 20.8243C11.6883 20.9368 11.8409 21 12 21C12.1591 21 12.3117 20.9368 12.4243 20.8243C12.5368 20.7117 12.6 20.5591 12.6 20.4V18.6C12.6 18.4409 12.5368 18.2883 12.4243 18.1757C12.3117 18.0632 12.1591 18 12 18ZM20.4 11.4H18.6C18.4409 11.4 18.2883 11.4632 18.1757 11.5757C18.0632 11.6883 18 11.8409 18 12C18 12.1591 18.0632 12.3117 18.1757 12.4243C18.2883 12.5368 18.4409 12.6 18.6 12.6H20.4C20.5591 12.6 20.7117 12.5368 20.8243 12.4243C20.9368 12.3117 21 12.1591 21 12C21 11.8409 20.9368 11.6883 20.8243 11.5757C20.7117 11.4632 20.5591 11.4 20.4 11.4Z" fill="#1E1E1E"/>
</svg>
