<svg width="24" height="24" viewBox="0 0 24 24" fill="none" xmlns="http://www.w3.org/2000/svg">
<path d="M12 16.1667C10.8473 16.1667 9.86462 15.7605 9.05212 14.948C8.23962 14.1355 7.83337 13.1528 7.83337 12C7.83337 10.8473 8.23962 9.86462 9.05212 9.05212C9.86462 8.23962 10.8473 7.83337 12 7.83337C13.1528 7.83337 14.1355 8.23962 14.948 9.05212C15.7605 9.86462 16.1667 10.8473 16.1667 12C16.1667 13.1528 15.7605 14.1355 14.948 14.948C14.1355 15.7605 13.1528 16.1667 12 16.1667ZM6.16671 12.8334H2.83337V11.1667H6.16671V12.8334ZM21.1667 12.8334H17.8334V11.1667H21.1667V12.8334ZM11.1667 6.16671V2.83337H12.8334V6.16671H11.1667ZM11.1667 21.1667V17.8334H12.8334V21.1667H11.1667ZM7.33337 8.45837L5.22921 6.43754L6.41671 5.20837L8.41671 7.29171L7.33337 8.45837ZM17.5834 18.7917L15.5625 16.6875L16.6667 15.5417L18.7709 17.5625L17.5834 18.7917ZM15.5417 7.33337L17.5625 5.22921L18.7917 6.41671L16.7084 8.41671L15.5417 7.33337ZM5.20837 17.5834L7.31254 15.5625L8.45837 16.6667L6.43754 18.7709L5.20837 17.5834Z" fill="#1E1E1E"/>
</svg>
