<svg width="24" height="24" viewBox="0 0 24 24" fill="none" xmlns="http://www.w3.org/2000/svg">
<path d="M12 20.3333C10.8472 20.3333 9.76385 20.1145 8.74996 19.677C7.73607 19.2395 6.85413 18.6458 6.10413 17.8958C5.35413 17.1458 4.76038 16.2638 4.32288 15.25C3.88538 14.2361 3.66663 13.1527 3.66663 12C3.66663 10.8472 3.88538 9.76385 4.32288 8.74996C4.76038 7.73607 5.35413 6.85413 6.10413 6.10413C6.85413 5.35413 7.73607 4.76038 8.74996 4.32288C9.76385 3.88538 10.8472 3.66663 12 3.66663C13.1527 3.66663 14.2361 3.88538 15.25 4.32288C16.2638 4.76038 17.1458 5.35413 17.8958 6.10413C18.6458 6.85413 19.2395 7.73607 19.677 8.74996C20.1145 9.76385 20.3333 10.8472 20.3333 12C20.3333 13.1527 20.1145 14.2361 19.677 15.25C19.2395 16.2638 18.6458 17.1458 17.8958 17.8958C17.1458 18.6458 16.2638 19.2395 15.25 19.677C14.2361 20.1145 13.1527 20.3333 12 20.3333ZM9.58329 18.2083L10.5833 15.9166C9.99996 15.7083 9.49649 15.3854 9.07288 14.9479C8.64926 14.5104 8.3194 14 8.08329 13.4166L5.79163 14.375C6.11107 15.2638 6.60413 16.0416 7.27079 16.7083C7.93746 17.375 8.70829 17.875 9.58329 18.2083ZM8.08329 10.5833C8.3194 9.99996 8.64926 9.48954 9.07288 9.05204C9.49649 8.61454 9.99996 8.29163 10.5833 8.08329L9.62496 5.79163C8.73607 6.12496 7.95829 6.62496 7.29163 7.29163C6.62496 7.95829 6.12496 8.73607 5.79163 9.62496L8.08329 10.5833ZM12 14.5C12.6944 14.5 13.2847 14.2569 13.7708 13.7708C14.2569 13.2847 14.5 12.6944 14.5 12C14.5 11.3055 14.2569 10.7152 13.7708 10.2291C13.2847 9.74301 12.6944 9.49996 12 9.49996C11.3055 9.49996 10.7152 9.74301 10.2291 10.2291C9.74301 10.7152 9.49996 11.3055 9.49996 12C9.49996 12.6944 9.74301 13.2847 10.2291 13.7708C10.7152 14.2569 11.3055 14.5 12 14.5ZM14.4166 18.2083C15.2916 17.875 16.059 17.3784 16.7187 16.7187C17.3784 16.059 17.875 15.2916 18.2083 14.4166L15.9166 13.4166C15.7083 14 15.3888 14.5034 14.9583 14.927C14.5277 15.3507 14.0277 15.6805 13.4583 15.9166L14.4166 18.2083ZM15.9166 10.5416L18.2083 9.58329C17.875 8.70829 17.3784 7.94093 16.7187 7.28121C16.059 6.62149 15.2916 6.12496 14.4166 5.79163L13.4583 8.12496C14.0277 8.33329 14.5208 8.64926 14.9375 9.07288C15.3541 9.49649 15.6805 9.98607 15.9166 10.5416Z" fill="#1E1E1E"/>
</svg>
