<svg width="24" height="24" viewBox="0 0 24 24" fill="none" xmlns="http://www.w3.org/2000/svg">
<path d="M5.33002 13.67H10.33V15.34H8.29002L8.50002 15.55C9.00002 16.05 9.55002 16.42 10.14 16.65C10.73 16.89 11.34 17 11.96 17C13.03 17 14 16.69 14.87 16.08C15.74 15.47 16.35 14.66 16.71 13.66H18.46C18.07 15.15 17.28 16.35 16.07 17.27C14.87 18.19 13.5 18.66 11.96 18.66C11.13 18.66 10.31 18.5 9.51002 18.19C8.71002 17.88 7.97002 17.38 7.29002 16.7L7.00002 16.37V18.66H5.33002V13.66V13.67Z" fill="#1E1E1E"/>
<path d="M7.92002 6.72997C9.13002 5.79997 10.5 5.33997 12.04 5.33997C12.87 5.33997 13.69 5.49997 14.49 5.80997C15.29 6.11997 16.03 6.61997 16.71 7.29997L17 7.62997V5.33997H18.67V10.34H13.67V8.66997H15.71L15.5 8.45997C15 7.95997 14.45 7.58997 13.86 7.35997C13.27 7.11997 12.66 7.00997 12.04 7.00997C10.97 7.00997 10 7.31997 9.13002 7.92997C8.26002 8.53997 7.65002 9.34997 7.29002 10.35H5.54002C5.93002 8.85997 6.72002 7.65997 7.93002 6.73997L7.92002 6.72997Z" fill="#1E1E1E"/>
</svg>
