<svg width="24" height="24" viewBox="0 0 24 24" fill="none" xmlns="http://www.w3.org/2000/svg">
<path d="M19.2 6H4.79995C4.64082 6 4.48821 6.06321 4.37569 6.17574C4.26317 6.28826 4.19995 6.44087 4.19995 6.6V16.8C4.19995 17.1183 4.32638 17.4235 4.55142 17.6485C4.77647 17.8736 5.08169 18 5.39995 18H18.6C18.9182 18 19.2234 17.8736 19.4485 17.6485C19.6735 17.4235 19.8 17.1183 19.8 16.8V6.6C19.8 6.44087 19.7367 6.28826 19.6242 6.17574C19.5117 6.06321 19.3591 6 19.2 6ZM5.39995 10.8H8.39995V13.2H5.39995V10.8ZM9.59995 10.8H18.6V13.2H9.59995V10.8ZM18.6 7.2V9.6H5.39995V7.2H18.6ZM5.39995 14.4H8.39995V16.8H5.39995V14.4ZM18.6 16.8H9.59995V14.4H18.6V16.8Z" fill="#1E1E1E"/>
</svg>
