<svg width="24" height="24" viewBox="0 0 24 24" fill="none" xmlns="http://www.w3.org/2000/svg">
<path d="M20.6482 12.6001L13.2 5.1518C13.089 5.03989 12.9568 4.95116 12.8112 4.89077C12.6656 4.83039 12.5094 4.79955 12.3517 4.80005H5.39999C5.24086 4.80005 5.08825 4.86327 4.97573 4.97579C4.86321 5.08831 4.79999 5.24093 4.79999 5.40005V12.3518C4.79949 12.5094 4.83033 12.6656 4.89071 12.8112C4.9511 12.9569 5.03983 13.089 5.15174 13.2001L12.6 20.6483C12.7114 20.7598 12.8437 20.8482 12.9893 20.9085C13.1349 20.9688 13.291 20.9999 13.4486 20.9999C13.6062 20.9999 13.7623 20.9688 13.9079 20.9085C14.0535 20.8482 14.1858 20.7598 14.2972 20.6483L20.6482 14.2973C20.7597 14.1859 20.8481 14.0536 20.9084 13.908C20.9688 13.7624 20.9998 13.6063 20.9998 13.4487C20.9998 13.2911 20.9688 13.135 20.9084 12.9894C20.8481 12.8438 20.7597 12.7115 20.6482 12.6001ZM13.4482 19.8001L5.99999 12.3518V6.00005H12.3517L19.8 13.4483L13.4482 19.8001ZM9.59999 8.70005C9.59999 8.87806 9.54721 9.05206 9.44832 9.20007C9.34942 9.34807 9.20886 9.46343 9.04441 9.53155C8.87996 9.59967 8.699 9.61749 8.52441 9.58276C8.34983 9.54804 8.18946 9.46232 8.0636 9.33645C7.93773 9.21058 7.85201 9.05022 7.81729 8.87564C7.78256 8.70105 7.80038 8.52009 7.8685 8.35564C7.93662 8.19119 8.05198 8.05063 8.19998 7.95173C8.34799 7.85284 8.52199 7.80005 8.69999 7.80005C8.93869 7.80005 9.16761 7.89488 9.33639 8.06366C9.50517 8.23244 9.59999 8.46136 9.59999 8.70005Z" fill="#1E1E1E"/>
</svg>
