<svg width="24" height="24" viewBox="0 0 24 24" fill="none" xmlns="http://www.w3.org/2000/svg">
<path d="M20.5207 14.5415L14.5623 20.4998C14.3957 20.6665 14.2082 20.7915 13.9998 20.8748C13.7915 20.9581 13.5832 20.9998 13.3748 20.9998C13.1665 20.9998 12.9582 20.9581 12.7498 20.8748C12.5415 20.7915 12.354 20.6665 12.1873 20.4998L4.83317 13.1456C4.68039 12.9929 4.56234 12.8158 4.479 12.6144C4.39567 12.413 4.354 12.2012 4.354 11.979V5.9998C4.354 5.54146 4.5172 5.1491 4.84359 4.82271C5.16998 4.49632 5.56234 4.33313 6.02067 4.33313H11.9998C12.2221 4.33313 12.4373 4.37827 12.6457 4.46855C12.854 4.55882 13.0346 4.68035 13.1873 4.83313L20.5207 12.1873C20.6873 12.354 20.8089 12.5415 20.8853 12.7498C20.9616 12.9581 20.9998 13.1665 20.9998 13.3748C20.9998 13.5831 20.9616 13.788 20.8853 13.9894C20.8089 14.1908 20.6873 14.3748 20.5207 14.5415ZM8.104 9.33313C8.45123 9.33313 8.74637 9.2116 8.98942 8.96855C9.23248 8.72549 9.354 8.43035 9.354 8.08313C9.354 7.73591 9.23248 7.44077 8.98942 7.19771C8.74637 6.95466 8.45123 6.83313 8.104 6.83313C7.75678 6.83313 7.46164 6.95466 7.21859 7.19771C6.97553 7.44077 6.854 7.73591 6.854 8.08313C6.854 8.43035 6.97553 8.72549 7.21859 8.96855C7.46164 9.2116 7.75678 9.33313 8.104 9.33313Z" fill="#1E1E1E"/>
</svg>
