<svg width="24" height="24" viewBox="0 0 24 24" fill="none" xmlns="http://www.w3.org/2000/svg">
<path d="M19.3336 8.49682C20.2009 10.3107 20.3655 12.3816 19.7958 14.3098C19.226 16.2379 17.9622 17.8867 16.2482 18.9378C14.5343 19.989 12.4918 20.368 10.5148 20.0017C8.53789 19.6355 6.76669 18.5499 5.54307 16.9545C4.31946 15.3592 3.73017 13.3671 3.88894 11.3628C4.04771 9.35848 4.94328 7.48402 6.40282 6.1012C7.86235 4.71837 9.78237 3.92519 11.7923 3.87475C13.8023 3.82432 15.7597 4.52019 17.2867 5.82807L19.0578 4.05619C19.1751 3.93892 19.3342 3.87303 19.5 3.87303C19.6659 3.87303 19.8249 3.93892 19.9422 4.05619C20.0595 4.17347 20.1254 4.33253 20.1254 4.49838C20.1254 4.66423 20.0595 4.82329 19.9422 4.94057L15.0938 9.78979L12.1477 12.7359L10.2766 14.607C10.7603 14.9269 11.3235 15.1059 11.9032 15.124C12.4829 15.1421 13.0562 14.9984 13.5589 14.7092C14.0616 14.42 14.4739 13.9966 14.7497 13.4864C15.0254 12.9762 15.1538 12.3993 15.1203 11.8203C15.111 11.6545 15.1679 11.4918 15.2785 11.368C15.3891 11.2442 15.5444 11.1694 15.7102 11.1601C15.8759 11.1508 16.0386 11.2077 16.1624 11.3183C16.2862 11.4289 16.361 11.5842 16.3703 11.7499C16.4207 12.6349 16.2011 13.5144 15.7406 14.2718C15.28 15.0292 14.6003 15.6288 13.7913 15.9913C12.9824 16.3538 12.0824 16.4619 11.2106 16.3015C10.3388 16.1411 9.53631 15.7196 8.90938 15.0929C8.12968 14.3103 7.67492 13.2617 7.63641 12.1576C7.5979 11.0535 7.9785 9.97578 8.70178 9.14074C9.42507 8.30569 10.4375 7.77519 11.5357 7.65575C12.634 7.53631 13.7368 7.83678 14.6227 8.49682L16.3984 6.71791C15.0959 5.6365 13.4398 5.07445 11.7482 5.13969C10.0565 5.20494 8.44862 5.89288 7.23328 7.0714C6.01794 8.24992 5.28087 9.83591 5.16364 11.5248C5.0464 13.2136 5.55726 14.8862 6.5981 16.2214C7.63894 17.5565 9.13637 18.46 10.8028 18.7584C12.4692 19.0567 14.1871 18.7289 15.6265 17.8378C17.0659 16.9468 18.1254 15.5553 18.6014 13.9307C19.0774 12.3061 18.9364 10.5629 18.2055 9.03588C18.134 8.88628 18.1249 8.71442 18.1801 8.55809C18.2353 8.40176 18.3504 8.27377 18.5 8.20229C18.6496 8.1308 18.8215 8.12168 18.9778 8.17691C19.1341 8.23215 19.2621 8.34722 19.3336 8.49682Z" fill="#1E1E1E"/>
</svg>
