<svg width="24" height="24" viewBox="0 0 24 24" fill="none" xmlns="http://www.w3.org/2000/svg">
<path d="M12.0001 20.3333C10.8473 20.3333 9.76397 20.1145 8.75008 19.677C7.73619 19.2395 6.85425 18.6458 6.10425 17.8958C5.35425 17.1458 4.7605 16.2638 4.323 15.25C3.8855 14.2361 3.66675 13.1527 3.66675 12C3.66675 10.8472 3.8855 9.76385 4.323 8.74996C4.7605 7.73607 5.35425 6.85413 6.10425 6.10413C6.85425 5.35413 7.73619 4.76038 8.75008 4.32288C9.76397 3.88538 10.8473 3.66663 12.0001 3.66663C13.1529 3.66663 14.2362 3.88538 15.2501 4.32288C16.264 4.76038 17.1459 5.35413 17.8959 6.10413C18.6459 6.85413 19.2397 7.73607 19.6772 8.74996C20.1147 9.76385 20.3334 10.8472 20.3334 12C20.3334 13.1527 20.1147 14.2361 19.6772 15.25C19.2397 16.2638 18.6459 17.1458 17.8959 17.8958C17.1459 18.6458 16.264 19.2395 15.2501 19.677C14.2362 20.1145 13.1529 20.3333 12.0001 20.3333ZM12.0001 18.6666C13.8612 18.6666 15.4376 18.0208 16.7292 16.7291C18.0209 15.4375 18.6667 13.8611 18.6667 12C18.6667 10.1388 18.0209 8.56246 16.7292 7.27079C15.4376 5.97913 13.8612 5.33329 12.0001 5.33329C10.139 5.33329 8.56258 5.97913 7.27091 7.27079C5.97925 8.56246 5.33341 10.1388 5.33341 12C5.33341 13.8611 5.97925 15.4375 7.27091 16.7291C8.56258 18.0208 10.139 18.6666 12.0001 18.6666ZM12.0001 17C10.6112 17 9.43064 16.5138 8.45841 15.5416C7.48619 14.5694 7.00008 13.3888 7.00008 12C7.00008 10.6111 7.48619 9.43051 8.45841 8.45829C9.43064 7.48607 10.6112 6.99996 12.0001 6.99996C13.389 6.99996 14.5695 7.48607 15.5417 8.45829C16.514 9.43051 17.0001 10.6111 17.0001 12C17.0001 13.3888 16.514 14.5694 15.5417 15.5416C14.5695 16.5138 13.389 17 12.0001 17ZM12.0001 15.3333C12.9167 15.3333 13.7015 15.0069 14.3542 14.3541C15.007 13.7013 15.3334 12.9166 15.3334 12C15.3334 11.0833 15.007 10.2986 14.3542 9.64579C13.7015 8.99301 12.9167 8.66663 12.0001 8.66663C11.0834 8.66663 10.2987 8.99301 9.64591 9.64579C8.99314 10.2986 8.66675 11.0833 8.66675 12C8.66675 12.9166 8.99314 13.7013 9.64591 14.3541C10.2987 15.0069 11.0834 15.3333 12.0001 15.3333ZM12.0001 13.6666C11.5417 13.6666 11.1494 13.5034 10.823 13.177C10.4966 12.8507 10.3334 12.4583 10.3334 12C10.3334 11.5416 10.4966 11.1493 10.823 10.8229C11.1494 10.4965 11.5417 10.3333 12.0001 10.3333C12.4584 10.3333 12.8508 10.4965 13.1772 10.8229C13.5036 11.1493 13.6667 11.5416 13.6667 12C13.6667 12.4583 13.5036 12.8507 13.1772 13.177C12.8508 13.5034 12.4584 13.6666 12.0001 13.6666Z" fill="#1E1E1E"/>
</svg>
