<svg width="24" height="24" viewBox="0 0 24 24" fill="none" xmlns="http://www.w3.org/2000/svg">
<path d="M19.0402 8.63703C19.8728 10.3784 20.0309 12.3664 19.4839 14.2175C18.9369 16.0685 17.7237 17.6513 16.0783 18.6604C14.4329 19.6695 12.4721 20.0334 10.5742 19.6818C8.67636 19.3301 6.976 18.288 5.80133 16.7564C4.62666 15.2249 4.06094 13.3125 4.21336 11.3884C4.36578 9.46422 5.22553 7.66475 6.62668 6.33723C8.02784 5.00972 9.87106 4.24827 11.8006 4.19985C13.7302 4.15143 15.6093 4.81946 17.0752 6.07503L18.7755 4.37403C18.8881 4.26145 19.0408 4.1982 19.2 4.1982C19.3592 4.1982 19.5119 4.26145 19.6245 4.37403C19.7371 4.48661 19.8003 4.63931 19.8003 4.79853C19.8003 4.95775 19.7371 5.11045 19.6245 5.22303L12.4245 12.423C12.3119 12.5356 12.1592 12.5989 12 12.5989C11.8408 12.5989 11.6881 12.5356 11.5755 12.423C11.4629 12.3104 11.3997 12.1577 11.3997 11.9985C11.3997 11.8393 11.4629 11.6866 11.5755 11.574L13.6545 9.49503C13.0911 9.1224 12.4183 8.95082 11.7453 9.00809C11.0722 9.06536 10.4381 9.34811 9.94575 9.81057C9.45336 10.273 9.13147 10.8881 9.03218 11.5563C8.93288 12.2245 9.062 12.9066 9.39863 13.4923C9.73525 14.0779 10.2597 14.5328 10.887 14.7834C11.5144 15.0339 12.2079 15.0653 12.8553 14.8726C13.5028 14.68 14.0663 14.2744 14.4545 13.7216C14.8428 13.1688 15.0331 12.5012 14.9947 11.8268C14.9903 11.748 15.0014 11.6691 15.0275 11.5946C15.0536 11.5201 15.094 11.4515 15.1466 11.3926C15.1992 11.3338 15.2628 11.2859 15.3339 11.2516C15.405 11.2174 15.4822 11.1975 15.561 11.193C15.7201 11.1841 15.8763 11.2387 15.9951 11.3449C16.054 11.3975 16.1019 11.4611 16.1362 11.5322C16.1704 11.6033 16.1903 11.6805 16.1947 11.7593C16.2494 12.7139 15.9768 13.6585 15.4219 14.4372C14.8669 15.2158 14.0629 15.7818 13.1427 16.0416C12.2226 16.3013 11.2413 16.2394 10.3611 15.8659C9.48089 15.4924 8.75448 14.8298 8.3019 13.9875C7.84933 13.1453 7.69768 12.1738 7.87203 11.2337C8.04639 10.2936 8.5363 9.44109 9.26079 8.81713C9.98529 8.19316 10.901 7.83508 11.8566 7.80206C12.8122 7.76904 13.7504 8.06306 14.5162 8.63553L16.2225 6.92928C14.9721 5.89113 13.3822 5.35155 11.7582 5.41419C10.1342 5.47682 8.59065 6.13725 7.42393 7.26863C6.25721 8.40001 5.54962 9.92256 5.43707 11.5439C5.32452 13.1651 5.81495 14.7709 6.81416 16.0526C7.81337 17.3343 9.2509 18.2017 10.8507 18.4881C12.4504 18.7745 14.0996 18.4598 15.4814 17.6044C16.8633 16.749 17.8804 15.4132 18.3373 13.8535C18.7943 12.2939 18.6589 10.6204 17.9572 9.15453C17.8886 9.01092 17.8799 8.84592 17.9329 8.69585C17.9859 8.54577 18.0964 8.42291 18.24 8.35428C18.3836 8.28566 18.5486 8.27689 18.6987 8.32992C18.8487 8.38294 18.9716 8.49342 19.0402 8.63703Z" fill="#1E1E1E"/>
</svg>
