<svg width="24" height="24" viewBox="0 0 24 24" fill="none" xmlns="http://www.w3.org/2000/svg">
<path d="M12 20.3334C10.8472 20.3334 9.76391 20.1146 8.75002 19.6771C7.73613 19.2396 6.85419 18.6459 6.10419 17.8959C5.35419 17.1459 4.76044 16.2639 4.32294 15.25C3.88544 14.2361 3.66669 13.1528 3.66669 12C3.66669 10.8472 3.88544 9.76391 4.32294 8.75002C4.76044 7.73613 5.35419 6.85419 6.10419 6.10419C6.85419 5.35419 7.73613 4.76044 8.75002 4.32294C9.76391 3.88544 10.8472 3.66669 12 3.66669C12.9028 3.66669 13.757 3.79863 14.5625 4.06252C15.3681 4.32641 16.1111 4.69446 16.7917 5.16669L15.5834 6.39585C15.0556 6.06252 14.4931 5.8021 13.8959 5.6146C13.2986 5.4271 12.6667 5.33335 12 5.33335C10.1528 5.33335 8.57988 5.98266 7.28127 7.28127C5.98266 8.57988 5.33335 10.1528 5.33335 12C5.33335 13.8472 5.98266 15.4202 7.28127 16.7188C8.57988 18.0174 10.1528 18.6667 12 18.6667C13.8472 18.6667 15.4202 18.0174 16.7188 16.7188C18.0174 15.4202 18.6667 13.8472 18.6667 12C18.6667 11.75 18.6528 11.5 18.625 11.25C18.5972 11 18.5556 10.757 18.5 10.5209L19.8542 9.16669C20.007 9.61113 20.125 10.0695 20.2084 10.5417C20.2917 11.0139 20.3334 11.5 20.3334 12C20.3334 13.1528 20.1146 14.2361 19.6771 15.25C19.2396 16.2639 18.6459 17.1459 17.8959 17.8959C17.1459 18.6459 16.2639 19.2396 15.25 19.6771C14.2361 20.1146 13.1528 20.3334 12 20.3334ZM10.8334 15.8334L7.29169 12.2917L8.45835 11.125L10.8334 13.5L19.1667 5.14585L20.3334 6.31252L10.8334 15.8334Z" fill="#1E1E1E"/>
</svg>
