<svg width="24" height="24" viewBox="0 0 24 24" fill="none" xmlns="http://www.w3.org/2000/svg">
<path d="M11.4 7.19998C11.4 7.35911 11.3368 7.51172 11.2243 7.62424C11.1118 7.73676 10.9592 7.79998 10.8 7.79998H5.40005C5.24092 7.79998 5.08831 7.73676 4.97578 7.62424C4.86326 7.51172 4.80005 7.35911 4.80005 7.19998C4.80005 7.04085 4.86326 6.88823 4.97578 6.77571C5.08831 6.66319 5.24092 6.59998 5.40005 6.59998H10.8C10.9592 6.59998 11.1118 6.66319 11.2243 6.77571C11.3368 6.88823 11.4 7.04085 11.4 7.19998ZM10.8 9.59998H5.40005C5.24092 9.59998 5.08831 9.66319 4.97578 9.77571C4.86326 9.88823 4.80005 10.0408 4.80005 10.2C4.80005 10.3591 4.86326 10.5117 4.97578 10.6242C5.08831 10.7368 5.24092 10.8 5.40005 10.8H10.8C10.9592 10.8 11.1118 10.7368 11.2243 10.6242C11.3368 10.5117 11.4 10.3591 11.4 10.2C11.4 10.0408 11.3368 9.88823 11.2243 9.77571C11.1118 9.66319 10.9592 9.59998 10.8 9.59998ZM10.8 12.6H5.40005C5.24092 12.6 5.08831 12.6632 4.97578 12.7757C4.86326 12.8882 4.80005 13.0408 4.80005 13.2C4.80005 13.3591 4.86326 13.5117 4.97578 13.6242C5.08831 13.7368 5.24092 13.8 5.40005 13.8H10.8C10.9592 13.8 11.1118 13.7368 11.2243 13.6242C11.3368 13.5117 11.4 13.3591 11.4 13.2C11.4 13.0408 11.3368 12.8882 11.2243 12.7757C11.1118 12.6632 10.9592 12.6 10.8 12.6ZM10.8 15.6H5.40005C5.24092 15.6 5.08831 15.6632 4.97578 15.7757C4.86326 15.8882 4.80005 16.0408 4.80005 16.2C4.80005 16.3591 4.86326 16.5117 4.97578 16.6242C5.08831 16.7368 5.24092 16.8 5.40005 16.8H10.8C10.9592 16.8 11.1118 16.7368 11.2243 16.6242C11.3368 16.5117 11.4 16.3591 11.4 16.2C11.4 16.0408 11.3368 15.8882 11.2243 15.7757C11.1118 15.6632 10.9592 15.6 10.8 15.6ZM13.2 7.79998H18.6C18.7592 7.79998 18.9118 7.73676 19.0243 7.62424C19.1368 7.51172 19.2 7.35911 19.2 7.19998C19.2 7.04085 19.1368 6.88823 19.0243 6.77571C18.9118 6.66319 18.7592 6.59998 18.6 6.59998H13.2C13.0409 6.59998 12.8883 6.66319 12.7758 6.77571C12.6633 6.88823 12.6 7.04085 12.6 7.19998C12.6 7.35911 12.6633 7.51172 12.7758 7.62424C12.8883 7.73676 13.0409 7.79998 13.2 7.79998ZM18.6 9.59998H13.2C13.0409 9.59998 12.8883 9.66319 12.7758 9.77571C12.6633 9.88823 12.6 10.0408 12.6 10.2C12.6 10.3591 12.6633 10.5117 12.7758 10.6242C12.8883 10.7368 13.0409 10.8 13.2 10.8H18.6C18.7592 10.8 18.9118 10.7368 19.0243 10.6242C19.1368 10.5117 19.2 10.3591 19.2 10.2C19.2 10.0408 19.1368 9.88823 19.0243 9.77571C18.9118 9.66319 18.7592 9.59998 18.6 9.59998ZM18.6 12.6H13.2C13.0409 12.6 12.8883 12.6632 12.7758 12.7757C12.6633 12.8882 12.6 13.0408 12.6 13.2C12.6 13.3591 12.6633 13.5117 12.7758 13.6242C12.8883 13.7368 13.0409 13.8 13.2 13.8H18.6C18.7592 13.8 18.9118 13.7368 19.0243 13.6242C19.1368 13.5117 19.2 13.3591 19.2 13.2C19.2 13.0408 19.1368 12.8882 19.0243 12.7757C18.9118 12.6632 18.7592 12.6 18.6 12.6ZM18.6 15.6H13.2C13.0409 15.6 12.8883 15.6632 12.7758 15.7757C12.6633 15.8882 12.6 16.0408 12.6 16.2C12.6 16.3591 12.6633 16.5117 12.7758 16.6242C12.8883 16.7368 13.0409 16.8 13.2 16.8H18.6C18.7592 16.8 18.9118 16.7368 19.0243 16.6242C19.1368 16.5117 19.2 16.3591 19.2 16.2C19.2 16.0408 19.1368 15.8882 19.0243 15.7757C18.9118 15.6632 18.7592 15.6 18.6 15.6Z" fill="#1E1E1E"/>
</svg>
