<svg width="24" height="24" viewBox="0 0 24 24" fill="none" xmlns="http://www.w3.org/2000/svg">
<path d="M21.375 8.25V15.75C21.375 16.0815 21.2433 16.3995 21.0089 16.6339C20.7745 16.8683 20.4565 17 20.125 17H12.9375C12.8546 17 12.7751 16.9671 12.7165 16.9085C12.6579 16.8499 12.625 16.7704 12.625 16.6875V7.3125C12.625 7.22962 12.6579 7.15013 12.7165 7.09153C12.7751 7.03292 12.8546 7 12.9375 7H20.125C20.4565 7 20.7745 7.1317 21.0089 7.36612C21.2433 7.60054 21.375 7.91848 21.375 8.25ZM11.375 5.75V18.25C11.375 18.4158 11.3092 18.5747 11.1919 18.6919C11.0747 18.8092 10.9158 18.875 10.75 18.875C10.5842 18.875 10.4253 18.8092 10.3081 18.6919C10.1908 18.5747 10.125 18.4158 10.125 18.25V17H3.875C3.54348 17 3.22554 16.8683 2.99112 16.6339C2.7567 16.3995 2.625 16.0815 2.625 15.75V8.25C2.625 7.91848 2.7567 7.60054 2.99112 7.36612C3.22554 7.1317 3.54348 7 3.875 7H10.125V5.75C10.125 5.58424 10.1908 5.42527 10.3081 5.30806C10.4253 5.19085 10.5842 5.125 10.75 5.125C10.9158 5.125 11.0747 5.19085 11.1919 5.30806C11.3092 5.42527 11.375 5.58424 11.375 5.75ZM8.875 10.75C8.875 10.5842 8.80915 10.4253 8.69194 10.3081C8.57473 10.1908 8.41576 10.125 8.25 10.125H5.75C5.58424 10.125 5.42527 10.1908 5.30806 10.3081C5.19085 10.4253 5.125 10.5842 5.125 10.75C5.125 10.9158 5.19085 11.0747 5.30806 11.1919C5.42527 11.3092 5.58424 11.375 5.75 11.375H6.375V13.25C6.375 13.4158 6.44085 13.5747 6.55806 13.6919C6.67527 13.8092 6.83424 13.875 7 13.875C7.16576 13.875 7.32473 13.8092 7.44194 13.6919C7.55915 13.5747 7.625 13.4158 7.625 13.25V11.375H8.25C8.41576 11.375 8.57473 11.3092 8.69194 11.1919C8.80915 11.0747 8.875 10.9158 8.875 10.75Z" fill="#1E1E1E"/>
</svg>
