<svg width="24" height="24" viewBox="0 0 24 24" fill="none" xmlns="http://www.w3.org/2000/svg">
<path d="M12.0289 19.4925C10.9872 19.4925 10.0115 19.298 9.10179 18.9091C8.19206 18.5203 7.39693 17.9855 6.71637 17.305C6.03581 16.6244 5.50109 15.8293 5.1122 14.9196C4.72331 14.0098 4.52887 13.0341 4.52887 11.9925C4.52887 10.9508 4.72331 9.97511 5.1122 9.06539C5.50109 8.15567 6.03581 7.36053 6.71637 6.67997C7.39693 5.99942 8.19206 5.46469 9.10179 5.07581C10.0115 4.68692 10.9872 4.49247 12.0289 4.49247C12.3205 4.49247 12.6018 4.50983 12.8726 4.54456C13.1435 4.57928 13.4178 4.63136 13.6955 4.70081V6.40914C13.4178 6.32581 13.1435 6.26331 12.8726 6.22164C12.6018 6.17997 12.3205 6.15914 12.0289 6.15914C10.39 6.15914 9.00804 6.72164 7.88304 7.84664C6.75804 8.97164 6.19554 10.3536 6.19554 11.9925C6.19554 13.6314 6.75804 15.0133 7.88304 16.1383C9.00804 17.2633 10.39 17.8258 12.0289 17.8258C13.6678 17.8258 15.0497 17.2633 16.1747 16.1383C17.2997 15.0133 17.8622 13.6314 17.8622 11.9925C17.8622 11.8397 17.8553 11.7008 17.8414 11.5758C17.8275 11.4508 17.8066 11.3119 17.7789 11.1591H19.4872C19.515 11.3119 19.5289 11.4508 19.5289 11.5758V11.9925C19.5289 13.0341 19.3344 14.0098 18.9455 14.9196C18.5566 15.8293 18.0219 16.6244 17.3414 17.305C16.6608 17.9855 15.8657 18.5203 14.956 18.9091C14.0462 19.298 13.0705 19.4925 12.0289 19.4925ZM14.3622 15.4925L11.1955 12.3258V7.82581H12.8622V11.6591L15.5289 14.3258L14.3622 15.4925ZM17.8622 9.49247V6.99247H15.3622V5.32581H17.8622V2.82581H19.5289V5.32581H22.0289V6.99247H19.5289V9.49247H17.8622Z" fill="#1E1E1E"/>
</svg>
