<svg width="24" height="24" viewBox="0 0 24 24" fill="none" xmlns="http://www.w3.org/2000/svg">
<path d="M9.5 3.77714V2.11047H14.5V3.77714H9.5ZM11.1667 12.9438H12.8333V7.94381H11.1667V12.9438ZM12 19.6105C10.9722 19.6105 10.0035 19.4126 9.09375 19.0167C8.18403 18.6209 7.38889 18.0827 6.70833 17.4021C6.02778 16.7216 5.48958 15.9264 5.09375 15.0167C4.69792 14.107 4.5 13.1383 4.5 12.1105C4.5 11.0827 4.69792 10.1139 5.09375 9.20422C5.48958 8.2945 6.02778 7.49936 6.70833 6.81881C7.38889 6.13825 8.18403 5.60006 9.09375 5.20422C10.0035 4.80839 10.9722 4.61047 12 4.61047C12.8611 4.61047 13.6875 4.74936 14.4792 5.02714C15.2708 5.30492 16.0139 5.7077 16.7083 6.23547L17.875 5.06881L19.0417 6.23547L17.875 7.40214C18.4028 8.09658 18.8056 8.83964 19.0833 9.63131C19.3611 10.423 19.5 11.2494 19.5 12.1105C19.5 13.1383 19.3021 14.107 18.9062 15.0167C18.5104 15.9264 17.9722 16.7216 17.2917 17.4021C16.6111 18.0827 15.816 18.6209 14.9062 19.0167C13.9965 19.4126 13.0278 19.6105 12 19.6105Z" fill="#1E1E1E"/>
</svg>
