<svg width="24" height="24" viewBox="0 0 24 24" fill="none" xmlns="http://www.w3.org/2000/svg">
<path d="M17.9479 19.5104L13.3854 14.9479L15.1354 13.1979L19.6979 17.7604L17.9479 19.5104ZM6.44792 19.5104L4.69792 17.7604L10.4479 12.0104L9.03125 10.5937L8.44792 11.1771L7.38542 10.1146V11.8229L6.80208 12.4062L4.28125 9.8854L4.86458 9.30206H6.57292L5.53125 8.2604L8.48958 5.30206C8.76736 5.02429 9.06597 4.8229 9.38542 4.6979C9.70486 4.5729 10.0313 4.5104 10.3646 4.5104C10.6979 4.5104 11.0243 4.5729 11.3438 4.6979C11.6632 4.8229 11.9618 5.02429 12.2396 5.30206L10.3229 7.21873L11.3646 8.2604L10.7813 8.84373L12.1979 10.2604L14.0729 8.3854C14.0174 8.23262 13.9722 8.0729 13.9375 7.90623C13.9028 7.73956 13.8854 7.5729 13.8854 7.40623C13.8854 6.58679 14.1667 5.89581 14.7292 5.33331C15.2917 4.77081 15.9826 4.48956 16.8021 4.48956C17.0104 4.48956 17.2083 4.5104 17.3958 4.55206C17.5833 4.59373 17.7743 4.65623 17.9688 4.73956L15.9062 6.80206L17.4063 8.30206L19.4688 6.23956C19.566 6.43401 19.6319 6.62498 19.6667 6.81248C19.7014 6.99998 19.7188 7.1979 19.7188 7.40623C19.7188 8.22567 19.4375 8.91665 18.875 9.47915C18.3125 10.0416 17.6215 10.3229 16.8021 10.3229C16.6354 10.3229 16.4688 10.309 16.3021 10.2812C16.1354 10.2535 15.9757 10.2048 15.8229 10.1354L6.44792 19.5104Z" fill="#1E1E1E"/>
</svg>
