<svg width="24" height="24" viewBox="0 0 24 24" fill="none" xmlns="http://www.w3.org/2000/svg">
<path d="M19.2 7.20005H15.6V6.60005C15.6 6.12266 15.4103 5.66482 15.0728 5.32726C14.7352 4.98969 14.2774 4.80005 13.8 4.80005H10.2C9.72259 4.80005 9.26475 4.98969 8.92718 5.32726C8.58962 5.66482 8.39998 6.12266 8.39998 6.60005V7.20005H4.79998C4.48172 7.20005 4.17649 7.32648 3.95145 7.55152C3.7264 7.77656 3.59998 8.08179 3.59998 8.40005V16.8C3.59998 17.1183 3.7264 17.4235 3.95145 17.6486C4.17649 17.8736 4.48172 18 4.79998 18H19.2C19.5182 18 19.8235 17.8736 20.0485 17.6486C20.2735 17.4235 20.4 17.1183 20.4 16.8V8.40005C20.4 8.08179 20.2735 7.77656 20.0485 7.55152C19.8235 7.32648 19.5182 7.20005 19.2 7.20005ZM9.59998 6.60005C9.59998 6.44092 9.66319 6.28831 9.77571 6.17578C9.88823 6.06326 10.0408 6.00005 10.2 6.00005H13.8C13.9591 6.00005 14.1117 6.06326 14.2242 6.17578C14.3368 6.28831 14.4 6.44092 14.4 6.60005V7.20005H9.59998V6.60005ZM19.2 8.40005V10.8H16.8V10.2C16.8 10.0409 16.7368 9.88831 16.6242 9.77578C16.5117 9.66326 16.3591 9.60005 16.2 9.60005C16.0408 9.60005 15.8882 9.66326 15.7757 9.77578C15.6632 9.88831 15.6 10.0409 15.6 10.2V10.8H8.39998V10.2C8.39998 10.0409 8.33676 9.88831 8.22424 9.77578C8.11172 9.66326 7.95911 9.60005 7.79998 9.60005C7.64085 9.60005 7.48823 9.66326 7.37571 9.77578C7.26319 9.88831 7.19998 10.0409 7.19998 10.2V10.8H4.79998V8.40005H19.2ZM19.2 16.8H4.79998V12H7.19998V12.6C7.19998 12.7592 7.26319 12.9118 7.37571 13.0243C7.48823 13.1368 7.64085 13.2 7.79998 13.2C7.95911 13.2 8.11172 13.1368 8.22424 13.0243C8.33676 12.9118 8.39998 12.7592 8.39998 12.6V12H15.6V12.6C15.6 12.7592 15.6632 12.9118 15.7757 13.0243C15.8882 13.1368 16.0408 13.2 16.2 13.2C16.3591 13.2 16.5117 13.1368 16.6242 13.0243C16.7368 12.9118 16.8 12.7592 16.8 12.6V12H19.2V16.8Z" fill="#1E1E1E"/>
</svg>
