<svg width="24" height="24" viewBox="0 0 24 24" fill="none" xmlns="http://www.w3.org/2000/svg">
<path d="M9.50008 8.13338H14.5001V6.46672H9.50008V8.13338ZM3.66675 18.1334V13.9667H7.00008V14.8H8.66675V13.9667H15.3334V14.8H17.0001V13.9667H20.3334V18.1334H3.66675ZM3.66675 13.1334V9.80005C3.66675 9.34172 3.82994 8.94935 4.15633 8.62297C4.48272 8.29658 4.87508 8.13338 5.33341 8.13338H7.83341V6.46672C7.83341 6.00838 7.99661 5.61602 8.323 5.28963C8.64939 4.96324 9.04175 4.80005 9.50008 4.80005H14.5001C14.9584 4.80005 15.3508 4.96324 15.6772 5.28963C16.0036 5.61602 16.1667 6.00838 16.1667 6.46672V8.13338H18.6667C19.1251 8.13338 19.5174 8.29658 19.8438 8.62297C20.1702 8.94935 20.3334 9.34172 20.3334 9.80005V13.1334H17.0001V11.4667H15.3334V13.1334H8.66675V11.4667H7.00008V13.1334H3.66675Z" fill="#1E1E1E"/>
</svg>
