<svg width="24" height="24" viewBox="0 0 24 24" fill="none" xmlns="http://www.w3.org/2000/svg">
<path d="M18.6 5.99998H15.6V5.39998C15.6 4.92259 15.4103 4.46475 15.0728 4.12718C14.7352 3.78962 14.2774 3.59998 13.8 3.59998H10.2C9.7226 3.59998 9.26476 3.78962 8.9272 4.12718C8.58963 4.46475 8.39999 4.92259 8.39999 5.39998V5.99998H5.39999C5.24086 5.99998 5.08825 6.06319 4.97572 6.17571C4.8632 6.28823 4.79999 6.44085 4.79999 6.59998C4.79999 6.75911 4.8632 6.91172 4.97572 7.02424C5.08825 7.13676 5.24086 7.19998 5.39999 7.19998H5.99999V18C5.99999 18.3182 6.12642 18.6235 6.35146 18.8485C6.5765 19.0735 6.88173 19.2 7.19999 19.2H16.8C17.1182 19.2 17.4235 19.0735 17.6485 18.8485C17.8736 18.6235 18 18.3182 18 18V7.19998H18.6C18.7591 7.19998 18.9117 7.13676 19.0243 7.02424C19.1368 6.91172 19.2 6.75911 19.2 6.59998C19.2 6.44085 19.1368 6.28823 19.0243 6.17571C18.9117 6.06319 18.7591 5.99998 18.6 5.99998ZM9.59999 5.39998C9.59999 5.24085 9.6632 5.08823 9.77572 4.97571C9.88825 4.86319 10.0409 4.79998 10.2 4.79998H13.8C13.9591 4.79998 14.1117 4.86319 14.2243 4.97571C14.3368 5.08823 14.4 5.24085 14.4 5.39998V5.99998H9.59999V5.39998ZM16.8 18H7.19999V7.19998H16.8V18ZM10.8 10.2V15C10.8 15.1591 10.7368 15.3117 10.6243 15.4242C10.5117 15.5368 10.3591 15.6 10.2 15.6C10.0409 15.6 9.88825 15.5368 9.77572 15.4242C9.6632 15.3117 9.59999 15.1591 9.59999 15V10.2C9.59999 10.0408 9.6632 9.88823 9.77572 9.77571C9.88825 9.66319 10.0409 9.59998 10.2 9.59998C10.3591 9.59998 10.5117 9.66319 10.6243 9.77571C10.7368 9.88823 10.8 10.0408 10.8 10.2ZM14.4 10.2V15C14.4 15.1591 14.3368 15.3117 14.2243 15.4242C14.1117 15.5368 13.9591 15.6 13.8 15.6C13.6409 15.6 13.4882 15.5368 13.3757 15.4242C13.2632 15.3117 13.2 15.1591 13.2 15V10.2C13.2 10.0408 13.2632 9.88823 13.3757 9.77571C13.4882 9.66319 13.6409 9.59998 13.8 9.59998C13.9591 9.59998 14.1117 9.66319 14.2243 9.77571C14.3368 9.88823 14.4 10.0408 14.4 10.2Z" fill="#1E1E1E"/>
</svg>
