<svg width="24" height="24" viewBox="0 0 24 24" fill="none" xmlns="http://www.w3.org/2000/svg">
<path d="M8.87498 19.5C8.87498 19.7472 8.80167 19.9889 8.66432 20.1944C8.52697 20.4 8.33174 20.5602 8.10333 20.6548C7.87493 20.7494 7.62359 20.7742 7.38112 20.726C7.13864 20.6777 6.91591 20.5587 6.7411 20.3839C6.56628 20.209 6.44723 19.9863 6.399 19.7438C6.35077 19.5014 6.37552 19.25 6.47013 19.0216C6.56474 18.7932 6.72496 18.598 6.93052 18.4606C7.13608 18.3233 7.37775 18.25 7.62498 18.25C7.9565 18.25 8.27444 18.3817 8.50886 18.6161C8.74328 18.8505 8.87498 19.1685 8.87498 19.5ZM18.875 18.25C18.6278 18.25 18.3861 18.3233 18.1805 18.4606C17.975 18.598 17.8147 18.7932 17.7201 19.0216C17.6255 19.25 17.6008 19.5014 17.649 19.7438C17.6972 19.9863 17.8163 20.209 17.9911 20.3839C18.1659 20.5587 18.3886 20.6777 18.6311 20.726C18.8736 20.7742 19.1249 20.7494 19.3533 20.6548C19.5817 20.5602 19.777 20.4 19.9143 20.1944C20.0517 19.9889 20.125 19.7472 20.125 19.5C20.125 19.1685 19.9933 18.8505 19.7589 18.6161C19.5244 18.3817 19.2065 18.25 18.875 18.25ZM20.75 15.75H6.37498V7.88357C6.37551 7.71936 6.34338 7.55668 6.28048 7.40499C6.21758 7.25331 6.12515 7.11563 6.00857 6.99998L4.31717 5.30779C4.2591 5.24972 4.19016 5.20366 4.11429 5.17224C4.03842 5.14081 3.9571 5.12463 3.87498 5.12463C3.70913 5.12463 3.55007 5.19052 3.43279 5.30779C3.37472 5.36586 3.32866 5.4348 3.29724 5.51067C3.26581 5.58654 3.24963 5.66786 3.24963 5.74998C3.24963 5.91583 3.31552 6.07489 3.43279 6.19217L5.12498 7.88357V15.75H4.49998C4.33422 15.75 4.17525 15.8158 4.05804 15.933C3.94083 16.0503 3.87498 16.2092 3.87498 16.375C3.87498 16.5407 3.94083 16.6997 4.05804 16.8169C4.17525 16.9341 4.33422 17 4.49998 17H20.75C20.9157 17 21.0747 16.9341 21.1919 16.8169C21.3091 16.6997 21.375 16.5407 21.375 16.375C21.375 16.2092 21.3091 16.0503 21.1919 15.933C21.0747 15.8158 20.9157 15.75 20.75 15.75ZM8.87498 14.5H18.875C19.2065 14.5 19.5244 14.3683 19.7589 14.1339C19.9933 13.8994 20.125 13.5815 20.125 13.25V8.24998C20.125 7.91846 19.9933 7.60052 19.7589 7.3661C19.5244 7.13168 19.2065 6.99998 18.875 6.99998H8.87498C8.54346 6.99998 8.22552 7.13168 7.9911 7.3661C7.75668 7.60052 7.62498 7.91846 7.62498 8.24998V13.25C7.62498 13.5815 7.75668 13.8994 7.9911 14.1339C8.22552 14.3683 8.54346 14.5 8.87498 14.5Z" fill="#1E1E1E"/>
</svg>
