<svg width="24" height="24" viewBox="0 0 24 24" fill="none" xmlns="http://www.w3.org/2000/svg">
<path d="M7.81962 19.0759C7.12518 19.0759 6.5349 18.8328 6.04879 18.3467C5.56268 17.8606 5.31962 17.2703 5.31962 16.5759H3.65295V7.40922C3.65295 6.95089 3.81615 6.55853 4.14254 6.23214C4.46893 5.90575 4.86129 5.74255 5.31962 5.74255H16.9863V9.07589H19.4863L21.9863 12.4092V16.5759H20.3196C20.3196 17.2703 20.0766 17.8606 19.5905 18.3467C19.1043 18.8328 18.5141 19.0759 17.8196 19.0759C17.1252 19.0759 16.5349 18.8328 16.0488 18.3467C15.5627 17.8606 15.3196 17.2703 15.3196 16.5759H10.3196C10.3196 17.2703 10.0766 17.8606 9.59045 18.3467C9.10434 18.8328 8.51407 19.0759 7.81962 19.0759ZM7.81962 17.4092C8.05573 17.4092 8.25365 17.3294 8.41337 17.1696C8.57309 17.0099 8.65295 16.812 8.65295 16.5759C8.65295 16.3398 8.57309 16.1419 8.41337 15.9821C8.25365 15.8224 8.05573 15.7426 7.81962 15.7426C7.58351 15.7426 7.38559 15.8224 7.22587 15.9821C7.06615 16.1419 6.98629 16.3398 6.98629 16.5759C6.98629 16.812 7.06615 17.0099 7.22587 17.1696C7.38559 17.3294 7.58351 17.4092 7.81962 17.4092ZM17.8196 17.4092C18.0557 17.4092 18.2536 17.3294 18.4134 17.1696C18.5731 17.0099 18.653 16.812 18.653 16.5759C18.653 16.3398 18.5731 16.1419 18.4134 15.9821C18.2536 15.8224 18.0557 15.7426 17.8196 15.7426C17.5835 15.7426 17.3856 15.8224 17.2259 15.9821C17.0661 16.1419 16.9863 16.3398 16.9863 16.5759C16.9863 16.812 17.0661 17.0099 17.2259 17.1696C17.3856 17.3294 17.5835 17.4092 17.8196 17.4092ZM16.9863 13.2426H20.528L18.653 10.7426H16.9863V13.2426Z" fill="#1E1E1E"/>
</svg>
