<svg width="24" height="24" viewBox="0 0 24 24" fill="none" xmlns="http://www.w3.org/2000/svg">
<path d="M19.2 9.66002V9.60002C19.1988 8.48648 18.756 7.41889 17.9686 6.63149C17.1812 5.8441 16.1136 5.40122 15 5.40002H14.4C14.0818 5.40002 13.7765 5.52645 13.5515 5.7515C13.3265 5.97654 13.2 6.28176 13.2 6.60002V15.6H12V7.80002C12 7.64089 11.9368 7.48828 11.8243 7.37576C11.7118 7.26324 11.5592 7.20002 11.4 7.20002H3.60002C3.28176 7.20002 2.97654 7.32645 2.7515 7.5515C2.52645 7.77654 2.40002 8.08176 2.40002 8.40002L2.40002 16.2C2.40057 16.6873 2.54942 17.1628 2.82678 17.5635C3.10414 17.9641 3.49687 18.2708 3.95276 18.4428C4.40865 18.6148 4.90609 18.644 5.37897 18.5264C5.85184 18.4089 6.27773 18.1502 6.60002 17.7848C6.88811 18.112 7.2599 18.3547 7.67548 18.4865C8.09105 18.6184 8.5347 18.6346 8.95879 18.5334C9.38287 18.4322 9.77136 18.2173 10.0825 17.9119C10.3937 17.6065 10.6158 17.2221 10.725 16.8H16.875C17.0201 17.3667 17.3672 17.8609 17.851 18.1897C18.3348 18.5185 18.9221 18.6593 19.5024 18.5856C20.0827 18.5119 20.6161 18.2288 21.0024 17.7895C21.3886 17.3502 21.6012 16.785 21.6 16.2V12.6C21.5992 11.9087 21.36 11.2388 20.9228 10.7032C20.4856 10.1677 19.8772 9.79926 19.2 9.66002ZM14.4 6.60002H15C15.7957 6.60002 16.5587 6.91609 17.1213 7.4787C17.684 8.04131 18 8.80437 18 9.60002V10.2C18 10.3592 18.0632 10.5118 18.1758 10.6243C18.2883 10.7368 18.4409 10.8 18.6 10.8C19.0774 10.8 19.5353 10.9897 19.8728 11.3272C20.2104 11.6648 20.4 12.1226 20.4 12.6V14.1233C20.0357 13.9111 19.6216 13.7995 19.2 13.8C18.6679 13.8005 18.1511 13.9775 17.7303 14.3032C17.3096 14.629 17.0088 15.085 16.875 15.6H14.4V6.60002ZM10.8 8.40002V15.6H10.725C10.6158 15.1779 10.3937 14.7935 10.0825 14.4881C9.77136 14.1827 9.38287 13.9679 8.95879 13.8666C8.5347 13.7654 8.09105 13.7816 7.67548 13.9135C7.2599 14.0454 6.88811 14.288 6.60002 14.6153C6.23447 14.1983 5.73542 13.9213 5.18821 13.8315C4.64101 13.7418 4.07962 13.8449 3.60002 14.1233V8.40002H10.8ZM4.80002 17.4C4.56269 17.4 4.33068 17.3296 4.13334 17.1978C3.936 17.0659 3.78219 16.8785 3.69137 16.6592C3.60054 16.44 3.57678 16.1987 3.62308 15.9659C3.66938 15.7331 3.78367 15.5193 3.9515 15.3515C4.11932 15.1837 4.33314 15.0694 4.56592 15.0231C4.79869 14.9768 5.03997 15.0005 5.25924 15.0914C5.47852 15.1822 5.66593 15.336 5.79779 15.5333C5.92965 15.7307 6.00002 15.9627 6.00002 16.2C6.00002 16.5183 5.8736 16.8235 5.64855 17.0486C5.42351 17.2736 5.11828 17.4 4.80002 17.4ZM8.40002 17.4C8.16269 17.4 7.93068 17.3296 7.73334 17.1978C7.536 17.0659 7.38219 16.8785 7.29137 16.6592C7.20054 16.44 7.17678 16.1987 7.22308 15.9659C7.26938 15.7331 7.38367 15.5193 7.5515 15.3515C7.71932 15.1837 7.93314 15.0694 8.16592 15.0231C8.39869 14.9768 8.63997 15.0005 8.85924 15.0914C9.07852 15.1822 9.26593 15.336 9.39779 15.5333C9.52965 15.7307 9.60002 15.9627 9.60002 16.2C9.60002 16.5183 9.4736 16.8235 9.24855 17.0486C9.02351 17.2736 8.71828 17.4 8.40002 17.4ZM19.2 17.4C18.9627 17.4 18.7307 17.3296 18.5333 17.1978C18.336 17.0659 18.1822 16.8785 18.0914 16.6592C18.0005 16.44 17.9768 16.1987 18.0231 15.9659C18.0694 15.7331 18.1837 15.5193 18.3515 15.3515C18.5193 15.1837 18.7331 15.0694 18.9659 15.0231C19.1987 14.9768 19.44 15.0005 19.6592 15.0914C19.8785 15.1822 20.0659 15.336 20.1978 15.5333C20.3296 15.7307 20.4 15.9627 20.4 16.2C20.4 16.5183 20.2736 16.8235 20.0486 17.0486C19.8235 17.2736 19.5183 17.4 19.2 17.4Z" fill="#1E1E1E"/>
</svg>
