<svg width="24" height="24" viewBox="0 0 24 24" fill="none" xmlns="http://www.w3.org/2000/svg">
<path d="M12 19.5C10.9583 19.5 9.98264 19.3021 9.07292 18.9062C8.16319 18.5104 7.37153 17.9757 6.69792 17.3021C6.02431 16.6285 5.48958 15.8368 5.09375 14.9271C4.69792 14.0174 4.5 13.0417 4.5 12C4.5 10.9583 4.69792 9.98264 5.09375 9.07292C5.48958 8.16319 6.02431 7.37153 6.69792 6.69792C7.37153 6.02431 8.16319 5.48958 9.07292 5.09375C9.98264 4.69792 10.9583 4.5 12 4.5C13.1389 4.5 14.2188 4.74306 15.2396 5.22917C16.2604 5.71528 17.125 6.40278 17.8333 7.29167V5.33333H19.5V10.3333H14.5V8.66667H16.7917C16.2222 7.88889 15.5208 7.27778 14.6875 6.83333C13.8542 6.38889 12.9583 6.16667 12 6.16667C10.375 6.16667 8.99653 6.73264 7.86458 7.86458C6.73264 8.99653 6.16667 10.375 6.16667 12C6.16667 13.625 6.73264 15.0035 7.86458 16.1354C8.99653 17.2674 10.375 17.8333 12 17.8333C13.4583 17.8333 14.7326 17.3611 15.8229 16.4167C16.9132 15.4722 17.5556 14.2778 17.75 12.8333H19.4583C19.25 14.7361 18.434 16.3229 17.0104 17.5938C15.5868 18.8646 13.9167 19.5 12 19.5ZM14.3333 15.5L11.1667 12.3333V7.83333H12.8333V11.6667L15.5 14.3333L14.3333 15.5Z" fill="#1E1E1E"/>
</svg>
