<svg width="24" height="24" viewBox="0 0 24 24" fill="none" xmlns="http://www.w3.org/2000/svg">
<path d="M20.4 12.6V17.4C20.4 17.7182 20.2735 18.0234 20.0485 18.2485C19.8235 18.4735 19.5182 18.6 19.2 18.6H4.79998C4.48172 18.6 4.17649 18.4735 3.95145 18.2485C3.7264 18.0234 3.59998 17.7182 3.59998 17.4V12.6C3.59998 12.2817 3.7264 11.9765 3.95145 11.7514C4.17649 11.5264 4.48172 11.4 4.79998 11.4H8.39998C8.55911 11.4 8.71172 11.4632 8.82424 11.5757C8.93676 11.6882 8.99998 11.8408 8.99998 12C8.99998 12.1591 8.93676 12.3117 8.82424 12.4242C8.71172 12.5367 8.55911 12.6 8.39998 12.6H4.79998V17.4H19.2V12.6H15.6C15.4408 12.6 15.2882 12.5367 15.1757 12.4242C15.0632 12.3117 15 12.1591 15 12C15 11.8408 15.0632 11.6882 15.1757 11.5757C15.2882 11.4632 15.4408 11.4 15.6 11.4H19.2C19.5182 11.4 19.8235 11.5264 20.0485 11.7514C20.2735 11.9765 20.4 12.2817 20.4 12.6ZM8.82448 8.22446L11.4 5.64821V12C11.4 12.1591 11.4632 12.3117 11.5757 12.4242C11.6882 12.5367 11.8408 12.6 12 12.6C12.1591 12.6 12.3117 12.5367 12.4242 12.4242C12.5368 12.3117 12.6 12.1591 12.6 12V5.64821L15.1755 8.22446C15.2881 8.33704 15.4408 8.40029 15.6 8.40029C15.7592 8.40029 15.9119 8.33704 16.0245 8.22446C16.1371 8.11187 16.2003 7.95918 16.2003 7.79996C16.2003 7.64074 16.1371 7.48804 16.0245 7.37546L12.4245 3.77546C12.3688 3.71967 12.3026 3.67542 12.2297 3.64522C12.1569 3.61503 12.0788 3.59949 12 3.59949C11.9211 3.59949 11.843 3.61503 11.7702 3.64522C11.6974 3.67542 11.6312 3.71967 11.5755 3.77546L7.97548 7.37546C7.86289 7.48804 7.79964 7.64074 7.79964 7.79996C7.79964 7.95918 7.86289 8.11187 7.97548 8.22446C8.08806 8.33704 8.24076 8.40029 8.39998 8.40029C8.55919 8.40029 8.71189 8.33704 8.82448 8.22446ZM17.4 15C17.4 14.822 17.3472 14.6479 17.2483 14.4999C17.1494 14.3519 17.0088 14.2366 16.8444 14.1685C16.6799 14.1003 16.499 14.0825 16.3244 14.1173C16.1498 14.152 15.9894 14.2377 15.8636 14.3636C15.7377 14.4894 15.652 14.6498 15.6173 14.8244C15.5825 14.999 15.6004 15.1799 15.6685 15.3444C15.7366 15.5088 15.852 15.6494 16 15.7483C16.148 15.8472 16.322 15.9 16.5 15.9C16.7387 15.9 16.9676 15.8051 17.1364 15.6364C17.3052 15.4676 17.4 15.2387 17.4 15Z" fill="#1E1E1E"/>
</svg>
