<svg width="24" height="24" viewBox="0 0 24 24" fill="none" xmlns="http://www.w3.org/2000/svg">
<path d="M11.1666 18.6667H7.41665C6.15276 18.6667 5.0729 18.2292 4.17706 17.3542C3.28123 16.4792 2.83331 15.4098 2.83331 14.1459C2.83331 13.0625 3.1597 12.0973 3.81248 11.25C4.46526 10.4028 5.31942 9.86115 6.37498 9.62504C6.7222 8.34726 7.41665 7.31254 8.45831 6.52087C9.49998 5.72921 10.6805 5.33337 12 5.33337C13.625 5.33337 15.0035 5.89935 16.1354 7.03129C17.2673 8.16324 17.8333 9.54171 17.8333 11.1667C18.7916 11.2778 19.5868 11.691 20.2187 12.4063C20.8507 13.1216 21.1666 13.9584 21.1666 14.9167C21.1666 15.9584 20.8021 16.8438 20.0729 17.573C19.3437 18.3021 18.4583 18.6667 17.4166 18.6667H12.8333V12.7084L14.1666 14L15.3333 12.8334L12 9.50004L8.66665 12.8334L9.83331 14L11.1666 12.7084V18.6667Z" fill="#1E1E1E"/>
</svg>
