<svg width="24" height="24" viewBox="0 0 24 24" fill="none" xmlns="http://www.w3.org/2000/svg">
<path d="M10.8541 12.9375C10.368 13.4237 9.77776 13.6667 9.08331 13.6667C8.38887 13.6667 7.79859 13.4237 7.31248 12.9375C6.82637 12.4514 6.58331 11.8612 6.58331 11.1667C6.58331 10.4723 6.82637 9.88198 7.31248 9.39587C7.79859 8.90976 8.38887 8.66671 9.08331 8.66671C9.77776 8.66671 10.368 8.90976 10.8541 9.39587C11.3403 9.88198 11.5833 10.4723 11.5833 11.1667C11.5833 11.8612 11.3403 12.4514 10.8541 12.9375Z" fill="#1E1E1E"/>
<path d="M14.0833 17.0834V18.6667H4.08331V17.0834C4.08331 16.7917 4.15276 16.5139 4.29165 16.25C4.43053 15.9862 4.62498 15.7778 4.87498 15.625C5.49998 15.25 6.16317 14.9688 6.86456 14.7813C7.56595 14.5938 8.30554 14.5 9.08331 14.5C9.86109 14.5 10.6007 14.5938 11.3021 14.7813C12.0035 14.9688 12.6666 15.25 13.2916 15.625C13.5416 15.7778 13.7361 15.9862 13.875 16.25C14.0139 16.5139 14.0833 16.7917 14.0833 17.0834Z" fill="#1E1E1E"/>
<path d="M19.9166 12V13.6667H13.25V12H19.9166Z" fill="#1E1E1E"/>
<path d="M19.9166 5.33337V7.00004H9.91665V5.33337H19.9166Z" fill="#1E1E1E"/>
<path d="M19.9166 10.3334H13.1666C13.0972 10.0139 13.0035 9.71532 12.8854 9.43754C12.7673 9.15976 12.6111 8.90282 12.4166 8.66671H19.9166V10.3334Z" fill="#1E1E1E"/>
</svg>
