<svg width="24" height="24" viewBox="0 0 24 24" fill="none" xmlns="http://www.w3.org/2000/svg">
<path d="M20.76 13.68C20.6969 13.7272 20.6252 13.7616 20.5489 13.7812C20.4726 13.8007 20.3931 13.8051 20.3151 13.7939C20.2371 13.7828 20.1621 13.7564 20.0943 13.7162C20.0265 13.6761 19.9673 13.623 19.92 13.56C19.5583 13.0739 19.0876 12.6795 18.5457 12.4085C18.0038 12.1375 17.4058 11.9976 16.8 12C16.682 12 16.5666 11.9652 16.4683 11.8999C16.37 11.8347 16.2931 11.7419 16.2472 11.6332C16.2161 11.5594 16.2 11.4801 16.2 11.4C16.2 11.3198 16.2161 11.2405 16.2472 11.1667C16.2931 11.058 16.37 10.9652 16.4683 10.9C16.5666 10.8348 16.682 10.8 16.8 10.8C17.1366 10.7999 17.4665 10.7055 17.7522 10.5274C18.0379 10.3492 18.2679 10.0946 18.4161 9.79229C18.5642 9.49001 18.6247 9.15223 18.5905 8.81731C18.5564 8.48239 18.429 8.16377 18.2228 7.89763C18.0166 7.63149 17.74 7.4285 17.4242 7.31173C17.1085 7.19495 16.7663 7.16906 16.4366 7.237C16.1068 7.30494 15.8028 7.46399 15.5589 7.69608C15.315 7.92817 15.1411 8.224 15.057 8.54996C15.0373 8.62629 15.0027 8.698 14.9553 8.76098C14.9079 8.82396 14.8486 8.87699 14.7807 8.91703C14.7128 8.95708 14.6376 8.98336 14.5596 8.99437C14.4815 9.00538 14.4021 9.00091 14.3257 8.98121C14.2494 8.96151 14.1777 8.92697 14.1147 8.87957C14.0517 8.83216 13.9987 8.77281 13.9587 8.7049C13.9186 8.637 13.8923 8.56187 13.8813 8.48382C13.8703 8.40576 13.8748 8.32629 13.8945 8.24996C14.0113 7.79795 14.232 7.37944 14.539 7.02773C14.846 6.67602 15.2309 6.40082 15.663 6.22403C16.0951 6.04723 16.5625 5.97373 17.028 6.00936C17.4935 6.04499 17.9443 6.18878 18.3444 6.42927C18.7446 6.66977 19.0831 7.00034 19.333 7.39468C19.5829 7.78902 19.7374 8.23624 19.784 8.70077C19.8307 9.1653 19.7683 9.63431 19.6018 10.0705C19.4353 10.5066 19.1693 10.8979 18.825 11.2132C19.6408 11.5665 20.3501 12.127 20.8822 12.8392C20.9295 12.9024 20.9638 12.9743 20.9833 13.0508C21.0027 13.1273 21.0069 13.2069 20.9955 13.285C20.9842 13.363 20.9575 13.4381 20.9171 13.5059C20.8767 13.5737 20.8233 13.6328 20.76 13.68ZM16.719 18.3C16.7624 18.3683 16.7915 18.4446 16.8047 18.5245C16.8178 18.6043 16.8147 18.686 16.7954 18.7646C16.7762 18.8432 16.7412 18.9171 16.6927 18.9818C16.6441 19.0466 16.583 19.1008 16.5129 19.1413C16.4428 19.1818 16.3653 19.2077 16.285 19.2175C16.2047 19.2272 16.1232 19.2206 16.0455 19.1981C15.9677 19.1755 15.8954 19.1375 15.8328 19.0863C15.7701 19.035 15.7185 18.9717 15.681 18.9C15.303 18.26 14.7647 17.7296 14.1192 17.3611C13.4737 16.9927 12.7433 16.7989 12 16.7989C11.2567 16.7989 10.5263 16.9927 9.88076 17.3611C9.23525 17.7296 8.69695 18.26 8.31898 18.9C8.28147 18.9717 8.22985 19.035 8.16721 19.0863C8.10458 19.1375 8.03222 19.1755 7.95451 19.1981C7.87679 19.2206 7.79531 19.2272 7.71498 19.2175C7.63465 19.2077 7.55713 19.1818 7.48707 19.1413C7.41701 19.1008 7.35586 19.0466 7.30731 18.9818C7.25876 18.9171 7.22381 18.8432 7.20456 18.7646C7.18531 18.686 7.18215 18.6043 7.19529 18.5245C7.20842 18.4446 7.23757 18.3683 7.28098 18.3C7.86268 17.3005 8.74963 16.514 9.81148 16.056C9.21398 15.5985 8.77485 14.9653 8.55583 14.2453C8.33681 13.5254 8.34891 12.7549 8.59042 12.0422C8.83193 11.3295 9.29072 10.7104 9.90229 10.2719C10.5139 9.83338 11.2475 9.59756 12 9.59756C12.7525 9.59756 13.4861 9.83338 14.0977 10.2719C14.7093 10.7104 15.168 11.3295 15.4095 12.0422C15.6511 12.7549 15.6632 13.5254 15.4441 14.2453C15.2251 14.9653 14.786 15.5985 14.1885 16.056C15.2503 16.514 16.1373 17.3005 16.719 18.3ZM12 15.6C12.4747 15.6 12.9387 15.4592 13.3334 15.1955C13.728 14.9318 14.0356 14.5569 14.2173 14.1184C14.3989 13.6799 14.4465 13.1973 14.3539 12.7317C14.2613 12.2662 14.0327 11.8386 13.697 11.5029C13.3614 11.1673 12.9338 10.9387 12.4682 10.8461C12.0026 10.7535 11.5201 10.801 11.0815 10.9827C10.643 11.1643 10.2682 11.4719 10.0045 11.8666C9.74074 12.2613 9.59998 12.7253 9.59998 13.2C9.59998 13.8365 9.85284 14.4469 10.3029 14.897C10.753 15.3471 11.3635 15.6 12 15.6ZM7.79998 11.4C7.79998 11.2408 7.73677 11.0882 7.62425 10.9757C7.51173 10.8632 7.35911 10.8 7.19998 10.8C6.86333 10.7999 6.53343 10.7055 6.24776 10.5274C5.96209 10.3492 5.7321 10.0946 5.58391 9.79229C5.43572 9.49001 5.37527 9.15223 5.40943 8.81731C5.44359 8.48239 5.57099 8.16377 5.77716 7.89763C5.98333 7.63149 6.26001 7.4285 6.57576 7.31173C6.89151 7.19495 7.23368 7.16906 7.56341 7.237C7.89313 7.30494 8.1972 7.46399 8.44106 7.69608C8.68493 7.92817 8.85882 8.224 8.94298 8.54996C8.98277 8.70412 9.08216 8.83616 9.21929 8.91703C9.35643 8.99791 9.52008 9.021 9.67423 8.98121C9.82839 8.94143 9.96043 8.84204 10.0413 8.7049C10.1222 8.56777 10.1453 8.40412 10.1055 8.24996C9.98867 7.79795 9.76797 7.37944 9.46094 7.02773C9.15392 6.67602 8.76905 6.40082 8.33695 6.22403C7.90485 6.04723 7.43746 5.97373 6.97195 6.00936C6.50645 6.04499 6.05568 6.18878 5.65553 6.42927C5.25537 6.66977 4.91687 7.00034 4.66695 7.39468C4.41703 7.78902 4.2626 8.23624 4.21593 8.70077C4.16927 9.1653 4.23167 9.63431 4.39817 10.0705C4.56466 10.5066 4.83065 10.8979 5.17498 11.2132C4.35995 11.5668 3.65152 12.1273 3.11998 12.8392C3.02441 12.9665 2.98331 13.1266 3.00575 13.2842C3.02818 13.4418 3.1123 13.584 3.23961 13.6796C3.36691 13.7752 3.52697 13.8163 3.68457 13.7938C3.84217 13.7714 3.98441 13.6873 4.07998 13.56C4.44162 13.0739 4.91234 12.6795 5.45425 12.4085C5.99616 12.1375 6.59412 11.9976 7.19998 12C7.35911 12 7.51173 11.9367 7.62425 11.8242C7.73677 11.7117 7.79998 11.5591 7.79998 11.4Z" fill="#1E1E1E"/>
</svg>
