<svg width="24" height="24" viewBox="0 0 24 24" fill="none" xmlns="http://www.w3.org/2000/svg">
<path d="M19.719 18.3C18.5767 16.3253 16.8165 14.9093 14.7622 14.238C15.7783 13.6331 16.5678 12.7114 17.0094 11.6144C17.451 10.5174 17.5202 9.30574 17.2065 8.16556C16.8928 7.02537 16.2135 6.01968 15.273 5.30293C14.3324 4.58618 13.1825 4.198 12 4.198C10.8174 4.198 9.66757 4.58618 8.72699 5.30293C7.78641 6.01968 7.10712 7.02537 6.79343 8.16556C6.47974 9.30574 6.54899 10.5174 6.99056 11.6144C7.43213 12.7114 8.2216 13.6331 9.23772 14.238C7.18347 14.9085 5.42322 16.3245 4.28097 18.3C4.23908 18.3683 4.2113 18.4443 4.19926 18.5236C4.18722 18.6028 4.19116 18.6836 4.21086 18.7612C4.23057 18.8389 4.26562 18.9118 4.31397 18.9757C4.36231 19.0396 4.42296 19.0932 4.49234 19.1333C4.56172 19.1733 4.63842 19.1991 4.71793 19.2091C4.79743 19.219 4.87812 19.213 4.95524 19.1912C5.03235 19.1695 5.10434 19.1325 5.16694 19.0825C5.22954 19.0325 5.28149 18.9704 5.31972 18.9C6.73272 16.458 9.23022 15 12 15C14.7697 15 17.2672 16.458 18.6802 18.9C18.7185 18.9704 18.7704 19.0325 18.833 19.0825C18.8956 19.1325 18.9676 19.1695 19.0447 19.1912C19.1218 19.213 19.2025 19.219 19.282 19.2091C19.3615 19.1991 19.4382 19.1733 19.5076 19.1333C19.577 19.0932 19.6376 19.0396 19.686 18.9757C19.7343 18.9118 19.7694 18.8389 19.7891 18.7612C19.8088 18.6836 19.8127 18.6028 19.8007 18.5236C19.7886 18.4443 19.7609 18.3683 19.719 18.3ZM7.79997 9.60004C7.79997 8.76936 8.0463 7.95733 8.5078 7.26664C8.9693 6.57596 9.62525 6.03763 10.3927 5.71974C11.1602 5.40186 12.0046 5.31868 12.8194 5.48074C13.6341 5.6428 14.3824 6.04281 14.9698 6.63019C15.5572 7.21757 15.9572 7.96594 16.1193 8.78066C16.2813 9.59538 16.1982 10.4399 15.8803 11.2073C15.5624 11.9748 15.0241 12.6307 14.3334 13.0922C13.6427 13.5537 12.8307 13.8 12 13.8C10.8864 13.7988 9.81883 13.356 9.03144 12.5686C8.24404 11.7812 7.80116 10.7136 7.79997 9.60004Z" fill="#1E1E1E"/>
</svg>
