<svg width="24" height="24" viewBox="0 0 24 24" fill="none" xmlns="http://www.w3.org/2000/svg">
<path d="M17.6634 13.17V11.1667H15.6676V9.50004H17.6634V7.5H19.33V9.50004H21.3276V11.1667H19.33V13.17H17.6634ZM10.9967 12C10.08 12 9.2953 11.6737 8.64252 11.0209C7.98974 10.3681 7.66335 9.58337 7.66335 8.66671C7.66335 7.75004 7.98974 6.96532 8.64252 6.31254C9.2953 5.65976 10.08 5.33337 10.9967 5.33337C11.9134 5.33337 12.6981 5.65976 13.3509 6.31254C14.0036 6.96532 14.33 7.75004 14.33 8.66671C14.33 9.58337 14.0036 10.3681 13.3509 11.0209C12.6981 11.6737 11.9134 12 10.9967 12ZM4.33002 18.6667V16.3334C4.33002 15.8612 4.45154 15.4271 4.6946 15.0313C4.93766 14.6355 5.26057 14.3334 5.66335 14.125C6.52446 13.6945 7.39946 13.3716 8.28835 13.1563C9.17724 12.941 10.08 12.8334 10.9967 12.8334C11.9134 12.8334 12.8161 12.941 13.705 13.1563C14.5939 13.3716 15.4689 13.6945 16.33 14.125C16.7328 14.3334 17.0557 14.6355 17.2988 15.0313C17.5418 15.4271 17.6634 15.8612 17.6634 16.3334V18.6667H4.33002Z" fill="#1E1E1E"/>
</svg>
