<svg width="24" height="24" viewBox="0 0 24 24" fill="none" xmlns="http://www.w3.org/2000/svg">
<path d="M2 17V15.6875C2 15.0903 2.30556 14.6042 2.91667 14.2292C3.52778 13.8542 4.33333 13.6667 5.33333 13.6667C5.51389 13.6667 5.6875 13.6701 5.85417 13.6771C6.02083 13.684 6.18056 13.7014 6.33333 13.7292C6.13889 14.0208 5.99306 14.3264 5.89583 14.6458C5.79861 14.9653 5.75 15.2986 5.75 15.6458V17H2ZM7 17V15.6458C7 15.2014 7.12153 14.7951 7.36458 14.4271C7.60764 14.059 7.95139 13.7361 8.39583 13.4583C8.84028 13.1806 9.37153 12.9722 9.98958 12.8333C10.6076 12.6944 11.2778 12.625 12 12.625C12.7361 12.625 13.4132 12.6944 14.0312 12.8333C14.6493 12.9722 15.1806 13.1806 15.625 13.4583C16.0694 13.7361 16.4097 14.059 16.6458 14.4271C16.8819 14.7951 17 15.2014 17 15.6458V17H7ZM18.25 17V15.6458C18.25 15.2847 18.2049 14.9444 18.1146 14.625C18.0243 14.3056 17.8889 14.0069 17.7083 13.7292C17.8611 13.7014 18.0174 13.684 18.1771 13.6771C18.3368 13.6701 18.5 13.6667 18.6667 13.6667C19.6667 13.6667 20.4722 13.8507 21.0833 14.2188C21.6944 14.5868 22 15.0764 22 15.6875V17H18.25ZM5.33333 12.8333C4.875 12.8333 4.48264 12.6701 4.15625 12.3438C3.82986 12.0174 3.66667 11.625 3.66667 11.1667C3.66667 10.6944 3.82986 10.2986 4.15625 9.97917C4.48264 9.65972 4.875 9.5 5.33333 9.5C5.80556 9.5 6.20139 9.65972 6.52083 9.97917C6.84028 10.2986 7 10.6944 7 11.1667C7 11.625 6.84028 12.0174 6.52083 12.3438C6.20139 12.6701 5.80556 12.8333 5.33333 12.8333ZM18.6667 12.8333C18.2083 12.8333 17.816 12.6701 17.4896 12.3438C17.1632 12.0174 17 11.625 17 11.1667C17 10.6944 17.1632 10.2986 17.4896 9.97917C17.816 9.65972 18.2083 9.5 18.6667 9.5C19.1389 9.5 19.5347 9.65972 19.8542 9.97917C20.1736 10.2986 20.3333 10.6944 20.3333 11.1667C20.3333 11.625 20.1736 12.0174 19.8542 12.3438C19.5347 12.6701 19.1389 12.8333 18.6667 12.8333ZM12 12C11.3056 12 10.7153 11.7569 10.2292 11.2708C9.74305 10.7847 9.5 10.1944 9.5 9.5C9.5 8.79167 9.74305 8.19792 10.2292 7.71875C10.7153 7.23958 11.3056 7 12 7C12.7083 7 13.3021 7.23958 13.7812 7.71875C14.2604 8.19792 14.5 8.79167 14.5 9.5C14.5 10.1944 14.2604 10.7847 13.7812 11.2708C13.3021 11.7569 12.7083 12 12 12Z" fill="#1E1E1E"/>
</svg>
