<svg width="24" height="24" viewBox="0 0 24 24" fill="none" xmlns="http://www.w3.org/2000/svg">
<path d="M12 12C11.0834 12 10.2987 11.6737 9.64587 11.0209C8.9931 10.3681 8.66671 9.58337 8.66671 8.66671C8.66671 7.75004 8.9931 6.96532 9.64587 6.31254C10.2987 5.65976 11.0834 5.33337 12 5.33337C12.9167 5.33337 13.7014 5.65976 14.3542 6.31254C15.007 6.96532 15.3334 7.75004 15.3334 8.66671C15.3334 9.58337 15.007 10.3681 14.3542 11.0209C13.7014 11.6737 12.9167 12 12 12ZM5.33337 18.6667V16.3334C5.33337 15.8612 5.4549 15.4271 5.69796 15.0313C5.94101 14.6355 6.26393 14.3334 6.66671 14.125C7.52782 13.6945 8.40282 13.3716 9.29171 13.1563C10.1806 12.941 11.0834 12.8334 12 12.8334C12.9167 12.8334 13.8195 12.941 14.7084 13.1563C15.5973 13.3716 16.4723 13.6945 17.3334 14.125C17.7362 14.3334 18.0591 14.6355 18.3021 15.0313C18.5452 15.4271 18.6667 15.8612 18.6667 16.3334V18.6667H5.33337Z" fill="#1E1E1E"/>
</svg>
