<svg width="24" height="24" viewBox="0 0 24 24" fill="none" xmlns="http://www.w3.org/2000/svg">
<path d="M4.49998 17.8333C4.04165 17.8333 3.64929 17.6701 3.3229 17.3437C2.99651 17.0173 2.83331 16.625 2.83331 16.1666V7.83329C2.83331 7.37496 2.99651 6.9826 3.3229 6.65621C3.64929 6.32982 4.04165 6.16663 4.49998 6.16663H12.8333C13.2916 6.16663 13.684 6.32982 14.0104 6.65621C14.3368 6.9826 14.5 7.37496 14.5 7.83329V16.1666C14.5 16.625 14.3368 17.0173 14.0104 17.3437C13.684 17.6701 13.2916 17.8333 12.8333 17.8333H4.49998ZM4.49998 14.7916C5.11109 14.4305 5.76387 14.1527 6.45831 13.9583C7.15276 13.7638 7.88887 13.6666 8.66665 13.6666C9.44442 13.6666 10.1805 13.7638 10.875 13.9583C11.5694 14.1527 12.2222 14.4305 12.8333 14.7916V7.83329H4.49998V14.7916ZM8.66665 13.0416C8.02776 13.0416 7.48609 12.8194 7.04165 12.375C6.5972 11.9305 6.37498 11.3888 6.37498 10.75C6.37498 10.1111 6.5972 9.5694 7.04165 9.12496C7.48609 8.68052 8.02776 8.45829 8.66665 8.45829C9.30554 8.45829 9.8472 8.68052 10.2916 9.12496C10.7361 9.5694 10.9583 10.1111 10.9583 10.75C10.9583 11.3888 10.7361 11.9305 10.2916 12.375C9.8472 12.8194 9.30554 13.0416 8.66665 13.0416ZM16.1666 17.8333V6.16663H17.8333V17.8333H16.1666ZM19.5 17.8333V6.16663H21.1666V17.8333H19.5Z" fill="#1E1E1E"/>
</svg>
