<svg width="24" height="24" viewBox="0 0 24 24" fill="none" xmlns="http://www.w3.org/2000/svg">
<path d="M13.6666 12.8334H17.8333V11.1667H13.6666V12.8334ZM13.6666 10.3334H17.8333V8.66671H13.6666V10.3334ZM6.16663 15.3334H12.8333V14.875C12.8333 14.25 12.5277 13.7535 11.9166 13.3855C11.3055 13.0174 10.5 12.8334 9.49996 12.8334C8.49996 12.8334 7.6944 13.0174 7.08329 13.3855C6.47218 13.7535 6.16663 14.25 6.16663 14.875V15.3334ZM9.49996 12C9.95829 12 10.3507 11.8368 10.677 11.5105C11.0034 11.1841 11.1666 10.7917 11.1666 10.3334C11.1666 9.87504 11.0034 9.48268 10.677 9.15629C10.3507 8.8299 9.95829 8.66671 9.49996 8.66671C9.04163 8.66671 8.64926 8.8299 8.32288 9.15629C7.99649 9.48268 7.83329 9.87504 7.83329 10.3334C7.83329 10.7917 7.99649 11.1841 8.32288 11.5105C8.64926 11.8368 9.04163 12 9.49996 12ZM5.33329 18.6667C4.87496 18.6667 4.4826 18.5035 4.15621 18.1771C3.82982 17.8507 3.66663 17.4584 3.66663 17V7.00004C3.66663 6.54171 3.82982 6.14935 4.15621 5.82296C4.4826 5.49657 4.87496 5.33337 5.33329 5.33337H18.6666C19.125 5.33337 19.5173 5.49657 19.8437 5.82296C20.1701 6.14935 20.3333 6.54171 20.3333 7.00004V17C20.3333 17.4584 20.1701 17.8507 19.8437 18.1771C19.5173 18.5035 19.125 18.6667 18.6666 18.6667H5.33329Z" fill="#1E1E1E"/>
</svg>
