<svg width="24" height="24" viewBox="0 0 24 24" fill="none" xmlns="http://www.w3.org/2000/svg">
<path d="M5.33335 17.8334C4.87502 17.8334 4.48266 17.6702 4.15627 17.3438C3.82988 17.0174 3.66669 16.625 3.66669 16.1667V7.83335C3.66669 7.37502 3.82988 6.98266 4.15627 6.65627C4.48266 6.32988 4.87502 6.16669 5.33335 6.16669H18.6667C19.125 6.16669 19.5174 6.32988 19.8438 6.65627C20.1702 6.98266 20.3334 7.37502 20.3334 7.83335V16.1667C20.3334 16.625 20.1702 17.0174 19.8438 17.3438C19.5174 17.6702 19.125 17.8334 18.6667 17.8334H5.33335ZM10.3334 15.3334L15.3334 12L10.3334 8.66669V15.3334Z" fill="#1E1E1E"/>
</svg>
