<svg width="24" height="24" viewBox="0 0 24 24" fill="none" xmlns="http://www.w3.org/2000/svg">
<path d="M4.5 16.585V14.085C4.5 13.395 5.06 12.835 5.75 12.835H9.92C10.61 12.835 11.17 13.395 11.17 14.085V16.585C11.17 17.275 10.61 17.835 9.92 17.835H5.75C5.06 17.835 4.5 17.275 4.5 16.585Z" fill="#1E1E1E"/>
<path d="M12.83 16.585V14.085C12.83 13.395 13.39 12.835 14.08 12.835H18.25C18.94 12.835 19.5 13.395 19.5 14.085V16.585C19.5 17.275 18.94 17.835 18.25 17.835H14.08C13.39 17.835 12.83 17.275 12.83 16.585Z" fill="#1E1E1E"/>
<path d="M4.5 9.91504V7.41504C4.5 6.72504 5.06 6.16504 5.75 6.16504H9.92C10.61 6.16504 11.17 6.72504 11.17 7.41504V9.91504C11.17 10.605 10.61 11.165 9.92 11.165H5.75C5.06 11.165 4.5 10.605 4.5 9.91504Z" fill="#1E1E1E"/>
<path d="M12.83 9.91504V7.41504C12.83 6.72504 13.39 6.16504 14.08 6.16504H18.25C18.94 6.16504 19.5 6.72504 19.5 7.41504V9.91504C19.5 10.605 18.94 11.165 18.25 11.165H14.08C13.39 11.165 12.83 10.605 12.83 9.91504Z" fill="#1E1E1E"/>
</svg>
