<svg width="24" height="24" viewBox="0 0 24 24" fill="none" xmlns="http://www.w3.org/2000/svg">
<path d="M5.41998 6H18.58C18.9224 6 19.2 6.27759 19.2 6.62V10.43C19.2 10.7724 18.9224 11.05 18.58 11.05H5.41998C5.07758 11.05 4.79999 10.7724 4.79999 10.43V6.62C4.79999 6.27759 5.07758 6 5.41998 6Z" fill="#1E1E1E"/>
<path d="M5.41998 12.95H18.58C18.9224 12.95 19.2 13.2276 19.2 13.57V17.38C19.2 17.7224 18.9224 18 18.58 18H5.41998C5.07758 18 4.79999 17.7224 4.79999 17.38V13.57C4.79999 13.2276 5.07758 12.95 5.41998 12.95Z" fill="#1E1E1E"/>
</svg>
