<svg width="24" height="24" viewBox="0 0 24 24" fill="none" xmlns="http://www.w3.org/2000/svg">
<path d="M9.82 17.345C10.15 17.675 10.54 17.835 11 17.835H18.33C18.79 17.835 19.18 17.675 19.51 17.345C19.84 17.015 20 16.625 20 16.165V7.83498C20 7.37498 19.84 6.98498 19.51 6.65498C19.18 6.32498 18.79 6.16498 18.33 6.16498H11C10.54 6.16498 10.15 6.32498 9.82 6.65498C9.49 6.98498 9.33 7.37498 9.33 7.83498V16.165C9.33 16.625 9.49 17.015 9.82 17.345Z" fill="#1E1E1E"/>
<path d="M7.67 7.08498H4V8.33498H7.67V7.08498Z" fill="#1E1E1E"/>
<path d="M4 9.94498H7.67V11.195H4V9.94498Z" fill="#1E1E1E"/>
<path d="M7.67 12.805H4V14.055H7.67V12.805Z" fill="#1E1E1E"/>
<path d="M7.67 15.655H4V16.905H7.67V15.655Z" fill="#1E1E1E"/>
</svg>
