<svg width="24" height="24" viewBox="0 0 24 24" fill="none" xmlns="http://www.w3.org/2000/svg">
<path fill-rule="evenodd" clip-rule="evenodd" d="M19.645 5.53497H4.35505C4.00505 5.53497 3.73505 5.81497 3.73505 6.15497V17.215C3.73505 17.905 4.29505 18.465 4.98505 18.465H19.015C19.705 18.465 20.265 17.905 20.265 17.215V6.15497C20.265 5.80497 19.985 5.53497 19.645 5.53497ZM18.605 13.205H9.60505V10.805H18.605V13.205ZM5.40505 9.60497V7.20497H18.605V9.60497H5.40505ZM8.40505 13.205H5.40505V10.805H8.40505V13.205ZM5.40505 14.405H8.40505V16.805H5.40505V14.405ZM9.60505 16.805V14.405H18.605V16.805H9.60505Z" fill="#1E1E1E"/>
</svg>
