<svg width="24" height="24" viewBox="0 0 24 24" fill="none" xmlns="http://www.w3.org/2000/svg">
<path fill-rule="evenodd" clip-rule="evenodd" d="M18.25 5.75002C18.02 5.53002 17.72 5.40002 17.4 5.40002H6.60002C6.28002 5.40002 5.98002 5.53002 5.75002 5.75002C5.53002 5.97002 5.40002 6.28002 5.40002 6.60002V17.4C5.40002 17.72 5.53002 18.02 5.75002 18.25C5.98002 18.47 6.28002 18.6 6.60002 18.6H17.4C17.72 18.6 18.02 18.47 18.25 18.25C18.48 18.02 18.6 17.72 18.6 17.4V6.60002C18.6 6.28002 18.47 5.98002 18.25 5.75002ZM7.07002 7.07002H11.4V11.4H7.07002V7.07002ZM7.07002 12.6H11.4V16.93H7.07002V12.6ZM12.6 12.6H16.93V16.93H12.6V12.6ZM12.6 11.4V7.07002H16.93V11.4H12.6Z" fill="#1E1E1E"/>
</svg>
