<svg width="24" height="24" viewBox="0 0 24 24" fill="none" xmlns="http://www.w3.org/2000/svg">
<path d="M21.375 13.875C21.375 14.0408 21.3091 14.1997 21.1919 14.3169C21.0747 14.4342 20.9157 14.5 20.75 14.5H19.5V15.75C19.5 15.9158 19.4341 16.0747 19.3169 16.1919C19.1997 16.3092 19.0407 16.375 18.875 16.375C18.7092 16.375 18.5503 16.3092 18.433 16.1919C18.3158 16.0747 18.25 15.9158 18.25 15.75V14.5H17C16.8342 14.5 16.6753 14.4342 16.558 14.3169C16.4408 14.1997 16.375 14.0408 16.375 13.875C16.375 13.7092 16.4408 13.5503 16.558 13.4331C16.6753 13.3158 16.8342 13.25 17 13.25H18.25V12C18.25 11.8342 18.3158 11.6753 18.433 11.5581C18.5503 11.4408 18.7092 11.375 18.875 11.375C19.0407 11.375 19.1997 11.4408 19.3169 11.5581C19.4341 11.6753 19.5 11.8342 19.5 12V13.25H20.75C20.9157 13.25 21.0747 13.3158 21.1919 13.4331C21.3091 13.5503 21.375 13.7092 21.375 13.875ZM6.37498 7.625H7.62498V8.875C7.62498 9.04076 7.69083 9.19973 7.80804 9.31694C7.92525 9.43415 8.08422 9.5 8.24998 9.5C8.41574 9.5 8.57471 9.43415 8.69192 9.31694C8.80913 9.19973 8.87498 9.04076 8.87498 8.875V7.625H10.125C10.2907 7.625 10.4497 7.55915 10.5669 7.44194C10.6841 7.32473 10.75 7.16576 10.75 7C10.75 6.83424 10.6841 6.67527 10.5669 6.55806C10.4497 6.44085 10.2907 6.375 10.125 6.375H8.87498V5.125C8.87498 4.95924 8.80913 4.80027 8.69192 4.68306C8.57471 4.56585 8.41574 4.5 8.24998 4.5C8.08422 4.5 7.92525 4.56585 7.80804 4.68306C7.69083 4.80027 7.62498 4.95924 7.62498 5.125V6.375H6.37498C6.20922 6.375 6.05025 6.44085 5.93304 6.55806C5.81583 6.67527 5.74998 6.83424 5.74998 7C5.74998 7.16576 5.81583 7.32473 5.93304 7.44194C6.05025 7.55915 6.20922 7.625 6.37498 7.625ZM16.375 17H15.75V16.375C15.75 16.2092 15.6841 16.0503 15.5669 15.9331C15.4497 15.8158 15.2907 15.75 15.125 15.75C14.9592 15.75 14.8003 15.8158 14.683 15.9331C14.5658 16.0503 14.5 16.2092 14.5 16.375V17H13.875C13.7092 17 13.5503 17.0658 13.433 17.1831C13.3158 17.3003 13.25 17.4592 13.25 17.625C13.25 17.7908 13.3158 17.9497 13.433 18.0669C13.5503 18.1842 13.7092 18.25 13.875 18.25H14.5V18.875C14.5 19.0408 14.5658 19.1997 14.683 19.3169C14.8003 19.4342 14.9592 19.5 15.125 19.5C15.2907 19.5 15.4497 19.4342 15.5669 19.3169C15.6841 19.1997 15.75 19.0408 15.75 18.875V18.25H16.375C16.5407 18.25 16.6997 18.1842 16.8169 18.0669C16.9341 17.9497 17 17.7908 17 17.625C17 17.4592 16.9341 17.3003 16.8169 17.1831C16.6997 17.0658 16.5407 17 16.375 17ZM19.1336 8.25L8.24998 19.1336C8.01559 19.3678 7.69777 19.4994 7.36639 19.4994C7.03501 19.4994 6.71719 19.3678 6.48279 19.1336L4.86561 17.518C4.7495 17.4019 4.6574 17.2641 4.59457 17.1124C4.53173 16.9607 4.49939 16.7982 4.49939 16.634C4.49939 16.4698 4.53173 16.3072 4.59457 16.1556C4.6574 16.0039 4.7495 15.8661 4.86561 15.75L15.75 4.86641C15.8661 4.7503 16.0039 4.6582 16.1555 4.59537C16.3072 4.53253 16.4698 4.50019 16.634 4.50019C16.7981 4.50019 16.9607 4.53253 17.1124 4.59537C17.2641 4.6582 17.4019 4.7503 17.518 4.86641L19.1336 6.48203C19.2497 6.59811 19.3418 6.73592 19.4046 6.8876C19.4675 7.03927 19.4998 7.20184 19.4998 7.36602C19.4998 7.53019 19.4675 7.69276 19.4046 7.84444C19.3418 7.99611 19.2497 8.13392 19.1336 8.25ZM18.25 7.36641L16.6336 5.75L14.1336 8.25L15.75 9.86641L18.25 7.36641Z" fill="#1E1E1E"/>
</svg>
