<svg width="24" height="24" viewBox="0 0 24 24" fill="none" xmlns="http://www.w3.org/2000/svg">
<path d="M11.4 12.6V8.39996C11.4 8.24083 11.4632 8.08822 11.5757 7.97569C11.6882 7.86317 11.8408 7.79996 12 7.79996C12.1591 7.79996 12.3117 7.86317 12.4242 7.97569C12.5367 8.08822 12.6 8.24083 12.6 8.39996V12.6C12.6 12.7591 12.5367 12.9117 12.4242 13.0242C12.3117 13.1367 12.1591 13.2 12 13.2C11.8408 13.2 11.6882 13.1367 11.5757 13.0242C11.4632 12.9117 11.4 12.7591 11.4 12.6ZM19.8 9.26621V14.7337C19.8005 14.8914 19.7696 15.0475 19.7092 15.1931C19.6489 15.3388 19.5601 15.4709 19.4482 15.582L15.582 19.4482C15.4709 19.5601 15.3388 19.6489 15.1931 19.7092C15.0475 19.7696 14.8914 19.8005 14.7337 19.8H9.26621C9.10856 19.8005 8.95239 19.7696 8.80677 19.7092C8.66115 19.6489 8.52898 19.5601 8.41796 19.4482L4.55171 15.582C4.43979 15.4709 4.35106 15.3388 4.29068 15.1931C4.23029 15.0475 4.19945 14.8914 4.19996 14.7337V9.26621C4.19945 9.10856 4.23029 8.95239 4.29068 8.80677C4.35106 8.66115 4.43979 8.52898 4.55171 8.41796L8.41796 4.55171C8.52898 4.43979 8.66115 4.35106 8.80677 4.29068C8.95239 4.23029 9.10856 4.19945 9.26621 4.19996H14.7337C14.8914 4.19945 15.0475 4.23029 15.1931 4.29068C15.3388 4.35106 15.4709 4.43979 15.582 4.55171L19.4482 8.41796C19.5601 8.52898 19.6489 8.66115 19.7092 8.80677C19.7696 8.95239 19.8005 9.10856 19.8 9.26621ZM18.6 9.26621L14.7337 5.39996H9.26621L5.39996 9.26621V14.7337L9.26621 18.6H14.7337L18.6 14.7337V9.26621ZM12 14.4C11.822 14.4 11.6479 14.4527 11.4999 14.5516C11.3519 14.6505 11.2366 14.7911 11.1685 14.9555C11.1003 15.12 11.0825 15.301 11.1173 15.4755C11.152 15.6501 11.2377 15.8105 11.3636 15.9364C11.4894 16.0622 11.6498 16.1479 11.8244 16.1827C11.999 16.2174 12.1799 16.1996 12.3444 16.1314C12.5088 16.0633 12.6494 15.948 12.7483 15.8C12.8472 15.652 12.9 15.478 12.9 15.3C12.9 15.0613 12.8051 14.8323 12.6364 14.6636C12.4676 14.4948 12.2387 14.4 12 14.4Z" fill="#1E1E1E"/>
</svg>
