<svg width="24" height="24" viewBox="0 0 24 24" fill="none" xmlns="http://www.w3.org/2000/svg">
<path d="M12.0001 7.80004C12.1592 7.80004 12.3118 7.86325 12.4243 7.97577C12.5368 8.0883 12.6001 8.24091 12.6001 8.40004V12.6C12.6001 12.7592 12.5368 12.9118 12.4243 13.0243C12.3118 13.1368 12.1592 13.2 12.0001 13.2C11.8409 13.2 11.6883 13.1368 11.5758 13.0243C11.4633 12.9118 11.4001 12.7592 11.4001 12.6V8.40004C11.4001 8.24091 11.4633 8.0883 11.5758 7.97577C11.6883 7.86325 11.8409 7.80004 12.0001 7.80004ZM11.1001 15.3C11.1001 15.478 11.1528 15.652 11.2517 15.8001C11.3506 15.9481 11.4912 16.0634 11.6556 16.1315C11.8201 16.1996 12.0011 16.2175 12.1756 16.1827C12.3502 16.148 12.5106 16.0623 12.6364 15.9364C12.7623 15.8106 12.848 15.6502 12.8828 15.4756C12.9175 15.301 12.8997 15.1201 12.8315 14.9556C12.7634 14.7912 12.6481 14.6506 12.5001 14.5517C12.3521 14.4528 12.1781 14.4 12.0001 14.4C11.7614 14.4 11.5324 14.4949 11.3637 14.6636C11.1949 14.8324 11.1001 15.0613 11.1001 15.3ZM20.4001 12C20.4005 12.1572 20.3698 12.3129 20.3097 12.4581C20.2495 12.6033 20.1612 12.7352 20.0498 12.846L12.8461 20.0505C12.6212 20.274 12.3171 20.3995 12.0001 20.3995C11.683 20.3995 11.3789 20.274 11.1541 20.0505L3.95405 12.846C3.73055 12.6212 3.6051 12.3171 3.6051 12C3.6051 11.683 3.73055 11.3789 3.95405 11.154L11.1578 3.94954C11.3826 3.72604 11.6868 3.60059 12.0038 3.60059C12.3208 3.60059 12.625 3.72604 12.8498 3.94954L20.0536 11.154C20.1643 11.2652 20.2519 11.3972 20.3114 11.5424C20.3709 11.6876 20.401 11.8431 20.4001 12ZM19.2001 12L12.0001 4.80004L4.80005 12L12.0001 19.2L19.2001 12Z" fill="#1E1E1E"/>
</svg>
