<svg width="24" height="24" viewBox="0 0 24 24" fill="none" xmlns="http://www.w3.org/2000/svg">
<path d="M20.16 16.5068L13.6013 5.1165C13.4374 4.83744 13.2034 4.60606 12.9226 4.4453C12.6417 4.28453 12.3237 4.19995 12 4.19995C11.6764 4.19995 11.3584 4.28453 11.0775 4.4453C10.7967 4.60606 10.5627 4.83744 10.3988 5.1165L3.84005 16.5068C3.68235 16.7767 3.59924 17.0836 3.59924 17.3963C3.59924 17.7089 3.68235 18.0158 3.84005 18.2858C4.00185 18.5665 4.23543 18.7991 4.51682 18.9598C4.79821 19.1205 5.11729 19.2034 5.4413 19.2H18.5588C18.8826 19.2031 19.2013 19.1201 19.4824 18.9594C19.7635 18.7988 19.9969 18.5663 20.1585 18.2858C20.3165 18.016 20.3998 17.7091 20.4001 17.3965C20.4004 17.0839 20.3175 16.7768 20.16 16.5068ZM19.1198 17.685C19.0626 17.7825 18.9805 17.8631 18.882 17.9185C18.7834 17.9738 18.6718 18.002 18.5588 18H5.4413C5.32826 18.002 5.21673 17.9738 5.11814 17.9185C5.01956 17.8631 4.93748 17.7825 4.8803 17.685C4.82851 17.5973 4.80119 17.4973 4.80119 17.3955C4.80119 17.2937 4.82851 17.1937 4.8803 17.106L11.439 5.71575C11.4974 5.61868 11.5798 5.53836 11.6784 5.48259C11.777 5.42683 11.8883 5.39752 12.0015 5.39752C12.1148 5.39752 12.2261 5.42683 12.3247 5.48259C12.4233 5.53836 12.5057 5.61868 12.564 5.71575L19.1228 17.106C19.1741 17.194 19.2009 17.2941 19.2004 17.3959C19.1999 17.4978 19.172 17.5976 19.1198 17.685ZM11.4 13.2V10.2C11.4 10.0409 11.4633 9.88826 11.5758 9.77574C11.6883 9.66321 11.8409 9.6 12 9.6C12.1592 9.6 12.3118 9.66321 12.4243 9.77574C12.5368 9.88826 12.6 10.0409 12.6 10.2V13.2C12.6 13.3591 12.5368 13.5117 12.4243 13.6243C12.3118 13.7368 12.1592 13.8 12 13.8C11.8409 13.8 11.6883 13.7368 11.5758 13.6243C11.4633 13.5117 11.4 13.3591 11.4 13.2ZM12.9 15.9C12.9 16.078 12.8473 16.252 12.7484 16.4C12.6495 16.548 12.5089 16.6634 12.3445 16.7315C12.18 16.7996 11.999 16.8174 11.8245 16.7827C11.6499 16.748 11.4895 16.6623 11.3637 16.5364C11.2378 16.4105 11.1521 16.2502 11.1173 16.0756C11.0826 15.901 11.1004 15.72 11.1686 15.5556C11.2367 15.3911 11.352 15.2506 11.5 15.1517C11.648 15.0528 11.822 15 12 15C12.2387 15 12.4677 15.0948 12.6364 15.2636C12.8052 15.4324 12.9 15.6613 12.9 15.9Z" fill="#1E1E1E"/>
</svg>
