<svg width="24" height="24" viewBox="0 0 24 24" fill="none" xmlns="http://www.w3.org/2000/svg">
<path fill-rule="evenodd" clip-rule="evenodd" d="M20.16 16.31L13.6 4.92C13.44 4.64 13.2 4.41 12.92 4.25C12.64 4.09 12.32 4 12 4C11.68 4 11.36 4.08 11.08 4.25C10.8 4.42 10.57 4.64 10.4 4.92L3.83998 16.31C3.67998 16.58 3.59998 16.89 3.59998 17.2C3.59998 17.51 3.67998 17.82 3.83998 18.09C3.99998 18.37 4.23998 18.6 4.51998 18.76C4.79998 18.92 5.11998 19 5.43998 19H18.56C18.88 19 19.2 18.92 19.48 18.76C19.76 18.6 19.99 18.37 20.16 18.09C20.32 17.82 20.4 17.51 20.4 17.2C20.4 16.89 20.32 16.58 20.16 16.31ZM12.59 16.26C12.43 16.42 12.23 16.5 12 16.5C11.77 16.5 11.57 16.42 11.41 16.26C11.25 16.1 11.17 15.9 11.17 15.67C11.17 15.44 11.25 15.24 11.41 15.08C11.57 14.92 11.77 14.84 12 14.84C12.23 14.84 12.43 14.92 12.59 15.08C12.75 15.24 12.83 15.44 12.83 15.67C12.83 15.9 12.75 16.1 12.59 16.26ZM12.83 14H11.16V9.83H12.83V14Z" fill="#1E1E1E"/>
</svg>
