<svg width="24" height="24" viewBox="0 0 24 24" fill="none" xmlns="http://www.w3.org/2000/svg">
<path d="M12 4.19995C10.4573 4.19995 8.94927 4.65741 7.66657 5.51449C6.38386 6.37156 5.38412 7.58976 4.79376 9.01502C4.20339 10.4403 4.04893 12.0086 4.34989 13.5217C4.65086 15.0347 5.39373 16.4245 6.48458 17.5154C7.57543 18.6062 8.96526 19.3491 10.4783 19.6501C11.9914 19.951 13.5597 19.7966 14.9849 19.2062C16.4102 18.6158 17.6284 17.6161 18.4855 16.3334C19.3426 15.0507 19.8 13.5426 19.8 12C19.7978 9.93193 18.9753 7.94924 17.513 6.48693C16.0507 5.02462 14.068 4.20214 12 4.19995ZM12 18.6C10.6947 18.6 9.41862 18.2129 8.33325 17.4876C7.24789 16.7624 6.40195 15.7317 5.90241 14.5257C5.40287 13.3197 5.27217 11.9926 5.52683 10.7124C5.7815 9.43208 6.41008 8.25607 7.33311 7.33305C8.25614 6.41002 9.43214 5.78143 10.7124 5.52677C11.9927 5.27211 13.3197 5.40281 14.5257 5.90235C15.7317 6.40188 16.7625 7.24782 17.4877 8.33319C18.2129 9.41855 18.6 10.6946 18.6 12C18.598 13.7498 17.902 15.4274 16.6647 16.6647C15.4274 17.902 13.7498 18.598 12 18.6ZM11.4 12.6V8.39995C11.4 8.24082 11.4632 8.08821 11.5758 7.97569C11.6883 7.86317 11.8409 7.79995 12 7.79995C12.1591 7.79995 12.3118 7.86317 12.4243 7.97569C12.5368 8.08821 12.6 8.24082 12.6 8.39995V12.6C12.6 12.7591 12.5368 12.9117 12.4243 13.0242C12.3118 13.1367 12.1591 13.2 12 13.2C11.8409 13.2 11.6883 13.1367 11.5758 13.0242C11.4632 12.9117 11.4 12.7591 11.4 12.6ZM12.9 15.3C12.9 15.478 12.8472 15.652 12.7483 15.8C12.6494 15.948 12.5089 16.0633 12.3444 16.1314C12.18 16.1996 11.999 16.2174 11.8244 16.1827C11.6499 16.1479 11.4895 16.0622 11.3636 15.9363C11.2378 15.8105 11.152 15.6501 11.1173 15.4755C11.0826 15.3009 11.1004 15.12 11.1685 14.9555C11.2366 14.7911 11.352 14.6505 11.5 14.5516C11.648 14.4527 11.822 14.4 12 14.4C12.2387 14.4 12.4676 14.4948 12.6364 14.6636C12.8052 14.8323 12.9 15.0613 12.9 15.3Z" fill="#1E1E1E"/>
</svg>
