<svg width="24" height="24" viewBox="0 0 24 24" fill="none" xmlns="http://www.w3.org/2000/svg">
<path d="M19.97 17.76L18.23 10.76C18.12 10.31 17.72 10 17.26 10H14.22C14.7 9.47 15 8.77 15 8C15 6.34 13.66 5 12 5C10.34 5 9.00001 6.34 9.00001 8C9.00001 8.77 9.30001 9.47 9.78001 10H6.74001C6.28001 10 5.88001 10.31 5.77001 10.76L4.03001 17.76C3.87001 18.39 4.35001 19 5.00001 19H19C19.65 19 20.13 18.39 19.97 17.76ZM12 7C12.55 7 13 7.45 13 8C13 8.55 12.55 9 12 9C11.45 9 11 8.55 11 8C11 7.45 11.45 7 12 7Z" fill="#1E1E1E"/>
</svg>
