<svg width="24" height="24" viewBox="0 0 24 24" fill="none" xmlns="http://www.w3.org/2000/svg">
<path d="M10.2 13.2V17.073C10.2 17.2321 10.1368 17.3847 10.0243 17.4973C9.91175 17.6098 9.75914 17.673 9.60001 17.673C9.56405 17.6728 9.52817 17.6695 9.49276 17.6632L4.69276 16.7902C4.55451 16.7651 4.42946 16.6923 4.33942 16.5844C4.24937 16.4766 4.20003 16.3405 4.20001 16.2V13.2C4.20001 13.0409 4.26323 12.8883 4.37575 12.7757C4.48827 12.6632 4.64088 12.6 4.80001 12.6H9.60001C9.75914 12.6 9.91175 12.6632 10.0243 12.7757C10.1368 12.8883 10.2 13.0409 10.2 13.2ZM9.98476 6.4665C9.91727 6.41014 9.83822 6.36931 9.7532 6.34688C9.66818 6.32446 9.57927 6.321 9.49276 6.33675L4.69276 7.20975C4.55451 7.23486 4.42946 7.3077 4.33942 7.41557C4.24937 7.52344 4.20003 7.65948 4.20001 7.8V10.8C4.20001 10.9591 4.26323 11.1117 4.37575 11.2243C4.48827 11.3368 4.64088 11.4 4.80001 11.4H9.60001C9.75914 11.4 9.91175 11.3368 10.0243 11.2243C10.1368 11.1117 10.2 10.9591 10.2 10.8V6.927C10.2 6.83916 10.1808 6.7524 10.1436 6.67282C10.1064 6.59325 10.0522 6.52282 9.98476 6.4665ZM18 12.6H12C11.8409 12.6 11.6883 12.6632 11.5757 12.7757C11.4632 12.8883 11.4 13.0409 11.4 13.2V17.5087C11.3999 17.6494 11.4491 17.7856 11.5392 17.8936C11.6292 18.0017 11.7544 18.0746 11.8928 18.0997L17.8928 19.1902C17.9281 19.1969 17.964 19.2001 18 19.2C18.1591 19.2 18.3118 19.1368 18.4243 19.0243C18.5368 18.9117 18.6 18.7591 18.6 18.6V13.2C18.6 13.0409 18.5368 12.8883 18.4243 12.7757C18.3118 12.6632 18.1591 12.6 18 12.6ZM18.3848 4.9395C18.3173 4.88314 18.2382 4.84231 18.1532 4.81988C18.0682 4.79746 17.9793 4.794 17.8928 4.80975L11.8928 5.901C11.7545 5.92611 11.6295 5.99895 11.5394 6.10682C11.4494 6.21468 11.4 6.35073 11.4 6.49125V10.8C11.4 10.9591 11.4632 11.1117 11.5757 11.2243C11.6883 11.3368 11.8409 11.4 12 11.4H18C18.1591 11.4 18.3118 11.3368 18.4243 11.2243C18.5368 11.1117 18.6 10.9591 18.6 10.8V5.4C18.6 5.31216 18.5808 5.2254 18.5436 5.14582C18.5064 5.06625 18.4522 4.99582 18.3848 4.9395Z" fill="#1E1E1E"/>
</svg>
