<svg width="24" height="24" viewBox="0 0 24 24" fill="none" xmlns="http://www.w3.org/2000/svg">
<path d="M18.0625 9.64585L15.125 6.70835L13.3542 8.45835L11.5834 6.70835L13.9375 4.33335C14.1042 4.16669 14.2917 4.04516 14.5 3.96877C14.7084 3.89238 14.9167 3.85419 15.125 3.85419C15.3473 3.85419 15.5591 3.89238 15.7605 3.96877C15.9618 4.04516 16.1389 4.16669 16.2917 4.33335L18.0625 6.10419C18.3125 6.3403 18.4966 6.6146 18.6146 6.9271C18.7327 7.2396 18.7917 7.55558 18.7917 7.87502C18.7917 8.19447 18.7327 8.50697 18.6146 8.81252C18.4966 9.11808 18.3125 9.39585 18.0625 9.64585ZM6.58337 13.4792C6.33337 13.2292 6.20837 12.934 6.20837 12.5938C6.20837 12.2535 6.33337 11.9584 6.58337 11.7084L8.62504 9.64585L10.3959 11.4167L8.33337 13.4792C8.09726 13.7292 7.80907 13.8542 7.46879 13.8542C7.12851 13.8542 6.83337 13.7292 6.58337 13.4792ZM5.68754 19.6667C5.53476 19.5 5.41671 19.316 5.33337 19.1146C5.25004 18.9132 5.20837 18.7014 5.20837 18.4792C5.20837 18.257 5.24657 18.0452 5.32296 17.8438C5.39935 17.6424 5.52087 17.4584 5.68754 17.2917L11.5834 11.4167L8.93754 8.75002C8.68754 8.51391 8.56254 8.22572 8.56254 7.88544C8.56254 7.54516 8.68754 7.25002 8.93754 7.00002C9.17365 6.75002 9.46532 6.62502 9.81254 6.62502C10.1598 6.62502 10.4584 6.75002 10.7084 7.00002L13.3542 9.64585L14.5417 8.45835L16.875 10.8334C17.0417 11 17.125 11.1945 17.125 11.4167C17.125 11.6389 17.0417 11.8334 16.875 12C16.7084 12.1667 16.5139 12.25 16.2917 12.25C16.0695 12.25 15.875 12.1667 15.7084 12L8.04171 19.6667C7.87504 19.8334 7.69101 19.9549 7.48962 20.0313C7.28824 20.1077 7.08337 20.1459 6.87504 20.1459C6.66671 20.1459 6.45837 20.1042 6.25004 20.0209C6.04171 19.9375 5.85421 19.8195 5.68754 19.6667Z" fill="#1E1E1E"/>
</svg>
