<svg width="24" height="24" viewBox="0 0 24 24" fill="none" xmlns="http://www.w3.org/2000/svg">
<path d="M19.407 7.57504C19.3706 7.48509 19.3129 7.4053 19.2389 7.34253C19.1649 7.27975 19.0768 7.23586 18.9821 7.21463C18.8874 7.19339 18.789 7.19543 18.6953 7.22059C18.6016 7.24574 18.5153 7.29325 18.444 7.35904L15.4215 10.1483L14.1292 9.87079L13.8517 8.57854L16.641 5.55604C16.7068 5.48471 16.7543 5.39849 16.7795 5.30476C16.8046 5.21104 16.8067 5.11261 16.7854 5.01793C16.7642 4.92324 16.7203 4.83511 16.6575 4.76111C16.5947 4.68711 16.515 4.62944 16.425 4.59304C15.6052 4.26142 14.7165 4.1362 13.837 4.22841C12.9575 4.32061 12.1141 4.6274 11.3809 5.12183C10.6477 5.61626 10.0471 6.28319 9.63198 7.06403C9.21684 7.84487 8.99982 8.71571 9 9.60004C8.99903 10.3468 9.15222 11.0857 9.45 11.7705L4.93425 15.675C4.923 15.684 4.9125 15.6945 4.902 15.7043C4.45186 16.1544 4.19897 16.7649 4.19897 17.4015C4.19897 17.7168 4.26106 18.0289 4.38168 18.3201C4.50231 18.6113 4.67911 18.8759 4.902 19.0988C5.12488 19.3217 5.38949 19.4985 5.6807 19.6191C5.97192 19.7397 6.28404 19.8018 6.59925 19.8018C7.23584 19.8018 7.84636 19.5489 8.2965 19.0988C8.30625 19.089 8.31675 19.0778 8.32575 19.0673L12.2295 14.55C13.0518 14.911 13.9512 15.0612 14.8462 14.987C15.7412 14.9128 16.6035 14.6165 17.3552 14.1251C18.1068 13.6336 18.724 12.9624 19.1509 12.1723C19.5778 11.3822 19.8009 10.4981 19.8 9.60004C19.8012 8.90598 19.6677 8.21828 19.407 7.57504ZM14.4 13.8C13.6898 13.7991 12.9914 13.6185 12.3697 13.275C12.2493 13.2085 12.1097 13.1854 11.9742 13.2096C11.8388 13.2337 11.7157 13.3037 11.6257 13.4078L7.43325 18.2633C7.20637 18.4788 6.90427 18.5972 6.59136 18.5932C6.27845 18.5892 5.97948 18.4631 5.75819 18.2418C5.53691 18.0206 5.41083 17.7216 5.40682 17.4087C5.40281 17.0958 5.5212 16.7937 5.73675 16.5668L10.5885 12.375C10.6928 12.285 10.7629 12.1618 10.787 12.0262C10.8112 11.8906 10.788 11.7508 10.7212 11.6303C10.3388 10.9385 10.1593 10.1529 10.2034 9.36363C10.2475 8.57439 10.5135 7.81363 10.9707 7.16881C11.4279 6.52398 12.0578 6.02126 12.7879 5.71845C13.5181 5.41564 14.3189 5.32503 15.0982 5.45704L12.7582 7.99279C12.6931 8.06342 12.6459 8.14865 12.6206 8.24132C12.5953 8.33398 12.5926 8.43137 12.6127 8.52529L13.0372 10.5C13.0615 10.613 13.1179 10.7165 13.1996 10.7982C13.2813 10.8799 13.3848 10.9363 13.4977 10.9605L15.474 11.385C15.5679 11.4052 15.6653 11.4025 15.758 11.3772C15.8506 11.3518 15.9359 11.3047 16.0065 11.2395L18.5422 8.89954C18.6433 9.5018 18.612 10.1188 18.4505 10.7078C18.2889 11.2967 18.001 11.8434 17.6068 12.3098C17.2126 12.7761 16.7215 13.1511 16.1677 13.4084C15.6139 13.6658 15.0107 13.7994 14.4 13.8Z" fill="#1E1E1E"/>
</svg>
