<svg width="24" height="24" viewBox="0 0 24 24" fill="none" xmlns="http://www.w3.org/2000/svg">
<path d="M20.125 9.50003C20.126 10.4355 19.8936 11.3565 19.4489 12.1795C19.0042 13.0025 18.3613 13.7017 17.5783 14.2136C16.7954 14.7256 15.8971 15.0341 14.9648 15.1114C14.0325 15.1887 13.0957 15.0323 12.2391 14.6563L8.17189 19.361C8.16252 19.3719 8.15158 19.3836 8.14142 19.3938C7.67253 19.8627 7.03657 20.1261 6.37345 20.1261C5.71034 20.1261 5.07438 19.8627 4.60549 19.3938C4.13659 18.9249 3.87317 18.2889 3.87317 17.6258C3.87317 16.9627 4.13659 16.3267 4.60549 15.8578C4.61642 15.8477 4.62736 15.8367 4.63908 15.8274L9.34377 11.761C8.92225 10.7968 8.77939 9.73371 8.93138 8.69243C9.08337 7.65114 9.52413 6.67329 10.2037 5.86979C10.8832 5.06629 11.7743 4.4693 12.7759 4.14655C13.7775 3.8238 14.8495 3.78819 15.8703 4.04378C15.9756 4.07015 16.0721 4.12346 16.1505 4.19847C16.2289 4.27347 16.2864 4.36759 16.3174 4.47156C16.3483 4.57553 16.3517 4.68577 16.3272 4.79144C16.3026 4.89711 16.251 4.99458 16.1774 5.07425L13.25 8.25003L13.6922 10.3086L15.75 10.75L18.9258 7.81878C19.0055 7.74514 19.1029 7.69351 19.2086 7.66897C19.3143 7.64442 19.4245 7.6478 19.5285 7.67878C19.6325 7.70976 19.7266 7.76726 19.8016 7.84564C19.8766 7.92402 19.9299 8.02058 19.9563 8.12581C20.0684 8.57527 20.1251 9.03678 20.125 9.50003Z" fill="#1E1E1E"/>
</svg>
