<svg width="24" height="24" viewBox="0 0 24 24" fill="none" xmlns="http://www.w3.org/2000/svg">
<path d="M17.8245 16.9755C17.8803 17.0313 17.9245 17.0975 17.9547 17.1703C17.9848 17.2431 18.0004 17.3212 18.0004 17.4C18.0004 17.4789 17.9848 17.5569 17.9547 17.6298C17.9245 17.7026 17.8803 17.7688 17.8245 17.8245C17.7688 17.8803 17.7026 17.9245 17.6298 17.9547C17.5569 17.9848 17.4789 18.0004 17.4 18.0004C17.3212 18.0004 17.2431 17.9848 17.1703 17.9547C17.0975 17.9245 17.0313 17.8803 16.9755 17.8245L12 12.8483L7.02453 17.8245C6.91194 17.9371 6.75925 18.0004 6.60003 18.0004C6.44081 18.0004 6.28811 17.9371 6.17553 17.8245C6.06294 17.7119 5.99969 17.5592 5.99969 17.4C5.99969 17.2408 6.06294 17.0881 6.17553 16.9755L11.1518 12L6.17553 7.02453C6.06294 6.91194 5.99969 6.75925 5.99969 6.60003C5.99969 6.44081 6.06294 6.28811 6.17553 6.17553C6.28811 6.06294 6.44081 5.99969 6.60003 5.99969C6.75925 5.99969 6.91194 6.06294 7.02453 6.17553L12 11.1518L16.9755 6.17553C17.0881 6.06294 17.2408 5.99969 17.4 5.99969C17.5592 5.99969 17.7119 6.06294 17.8245 6.17553C17.9371 6.28811 18.0004 6.44081 18.0004 6.60003C18.0004 6.75925 17.9371 6.91194 17.8245 7.02453L12.8483 12L17.8245 16.9755Z" fill="#1E1E1E"/>
</svg>
