<svg width="24" height="24" viewBox="0 0 24 24" fill="none" xmlns="http://www.w3.org/2000/svg">
<path d="M13.8524 10.7788C13.8524 10.9419 13.7876 11.0982 13.6723 11.2135C13.5571 11.3288 13.4007 11.3935 13.2377 11.3935H8.31997C8.15694 11.3935 8.00059 11.3288 7.88531 11.2135C7.77002 11.0982 7.70526 10.9419 7.70526 10.7788C7.70526 10.6158 7.77002 10.4594 7.88531 10.3442C8.00059 10.2289 8.15694 10.1641 8.31997 10.1641H13.2377C13.4007 10.1641 13.5571 10.2289 13.6723 10.3442C13.7876 10.4594 13.8524 10.6158 13.8524 10.7788ZM19.8197 19.8197C19.7626 19.8769 19.6948 19.9222 19.6202 19.9531C19.5456 19.9841 19.4656 20 19.3848 20C19.304 20 19.224 19.9841 19.1494 19.9531C19.0748 19.9222 19.007 19.8769 18.9499 19.8197L15.1033 15.9724C13.7646 17.0875 12.0474 17.6435 10.3091 17.5249C8.57084 17.4062 6.94521 16.6219 5.77043 15.3352C4.59565 14.0485 3.96216 12.3584 4.00175 10.6165C4.04134 8.87457 4.75095 7.215 5.98297 5.98297C7.215 4.75095 8.87457 4.04134 10.6165 4.00175C12.3584 3.96216 14.0485 4.59565 15.3352 5.77043C16.6219 6.94521 17.4062 8.57084 17.5249 10.3091C17.6435 12.0474 17.0875 13.7646 15.9724 15.1033L19.8197 18.9499C19.8769 19.007 19.9222 19.0748 19.9531 19.1494C19.9841 19.224 20 19.304 20 19.3848C20 19.4656 19.9841 19.5456 19.9531 19.6202C19.9222 19.6948 19.8769 19.7626 19.8197 19.8197ZM10.7788 16.3112C11.873 16.3112 12.9427 15.9868 13.8525 15.3789C14.7623 14.771 15.4714 13.9069 15.8901 12.896C16.3088 11.8851 16.4184 10.7727 16.2049 9.6995C15.9915 8.62632 15.4646 7.64054 14.6908 6.86682C13.9171 6.09309 12.9313 5.56618 11.8581 5.35271C10.785 5.13924 9.67258 5.2488 8.66166 5.66754C7.65074 6.08627 6.7867 6.79538 6.17879 7.70518C5.57088 8.61498 5.24641 9.68462 5.24641 10.7788C5.24804 12.2456 5.83144 13.6519 6.86861 14.689C7.90579 15.7262 9.31204 16.3096 10.7788 16.3112Z" fill="#1E1E1E"/>
</svg>
